<svg xmlns="http://www.w3.org/2000/svg" xmlns:xlink="http://www.w3.org/1999/xlink" contentStyleType="text/css" data-diagram-type="CLASS" height="961px" preserveAspectRatio="none" style="width:2829px;height:961px;background:#FFFFFF;" version="1.1" viewBox="0 0 2829 961" width="2829px" zoomAndPan="magnify"><defs/><g><!--cluster Services Classes--><g id="cluster_Services Classes"><path d="M8.5,6 L139.9229,6 A3.75,3.75 0 0 1 142.4229,8.5 L149.4229,28.2969 L2819.5,28.2969 A2.5,2.5 0 0 1 2822,30.7969 L2822,951.91 A2.5,2.5 0 0 1 2819.5,954.41 L8.5,954.41 A2.5,2.5 0 0 1 6,951.91 L6,8.5 A2.5,2.5 0 0 1 8.5,6 " fill="#FFFFFF" fill-opacity="0.00000" style="stroke:#000000;stroke-width:1.5;"/><line style="stroke:#000000;stroke-width:1.5;" x1="6" x2="149.4229" y1="28.2969" y2="28.2969"/><text fill="#000000" font-family="sans-serif" font-size="14" font-weight="bold" lengthAdjust="spacing" textLength="130.4229" x="10" y="20.9951">Services Classes</text></g><!--class AuthService--><g id="elem_AuthService"><rect codeLine="362" fill="#F1F1F1" height="308.75" id="AuthService" rx="2.5" ry="2.5" style="stroke:#181818;stroke-width:0.5;" width="741.3125" x="2064.34" y="41"/><ellipse cx="2388.4694" cy="57" fill="#ADD1B2" rx="11" ry="11" style="stroke:#181818;stroke-width:1;"/><path d="M2391.4381,62.6406 Q2390.86,62.9375 2390.2194,63.0781 Q2389.5788,63.2344 2388.8756,63.2344 Q2386.3756,63.2344 2385.0475,61.5938 Q2383.735,59.9375 2383.735,56.8125 Q2383.735,53.6875 2385.0475,52.0313 Q2386.3756,50.375 2388.8756,50.375 Q2389.5788,50.375 2390.2194,50.5313 Q2390.8756,50.6875 2391.4381,50.9844 L2391.4381,53.7031 Q2390.8131,53.125 2390.2194,52.8594 Q2389.6256,52.5781 2389.0006,52.5781 Q2387.6569,52.5781 2386.9694,53.6563 Q2386.2819,54.7188 2386.2819,56.8125 Q2386.2819,58.9063 2386.9694,59.9844 Q2387.6569,61.0469 2389.0006,61.0469 Q2389.6256,61.0469 2390.2194,60.7813 Q2390.8131,60.5 2391.4381,59.9219 L2391.4381,62.6406 Z " fill="#000000"/><text fill="#000000" font-family="sans-serif" font-size="14" lengthAdjust="spacing" textLength="84.5537" x="2408.9694" y="61.8467">AuthService</text><line style="stroke:#181818;stroke-width:0.5;" x1="2065.34" x2="2804.6525" y1="73" y2="73"/><line style="stroke:#181818;stroke-width:0.5;" x1="2065.34" x2="2804.6525" y1="81" y2="81"/><ellipse cx="2075.34" cy="94.6484" fill="#84BE84" rx="3" ry="3" style="stroke:#038048;stroke-width:1;"/><text fill="#000000" font-family="sans-serif" font-size="14" lengthAdjust="spacing" textLength="379.5176" x="2084.34" y="97.9951">verify_password(user: User, plain_password: str): bool</text><ellipse cx="2075.34" cy="110.9453" fill="#84BE84" rx="3" ry="3" style="stroke:#038048;stroke-width:1;"/><text fill="#000000" font-family="sans-serif" font-size="14" lengthAdjust="spacing" textLength="657.2754" x="2084.34" y="114.292">create_jwt(user: User, user_agent: str, ip_address: str): Tuple[access_jwt: str, refresh_jwt: str]</text><rect fill="#F24D5C" height="6" style="stroke:#C82930;stroke-width:1;" width="6" x="2072.34" y="124.2422"/><text fill="#000000" font-family="sans-serif" font-size="14" lengthAdjust="spacing" textLength="496.9316" x="2084.34" y="130.5889">__create_refresh_jwt(user: User): Tuple[refresh_jti: str, refresh_jwt: str]</text><rect fill="#F24D5C" height="6" style="stroke:#C82930;stroke-width:1;" width="6" x="2072.34" y="140.5391"/><text fill="#000000" font-family="sans-serif" font-size="14" lengthAdjust="spacing" textLength="357.7041" x="2084.34" y="146.8857">__create_access_jwt(user: User, refresh_jti: str): str</text><rect fill="#F24D5C" height="6" style="stroke:#C82930;stroke-width:1;" width="6" x="2072.34" y="156.8359"/><text fill="#000000" font-family="sans-serif" font-size="14" lengthAdjust="spacing" textLength="180.2432" x="2084.34" y="163.1826">__encode_jwt(jwt: str): str</text><ellipse cx="2075.34" cy="176.1328" fill="#84BE84" rx="3" ry="3" style="stroke:#038048;stroke-width:1;"/><text fill="#000000" font-family="sans-serif" font-size="14" lengthAdjust="spacing" textLength="370.6855" x="2084.34" y="179.4795">verify_refresh_request(access_jwt, refresh_jwt): User</text><rect fill="#F24D5C" height="6" style="stroke:#C82930;stroke-width:1;" width="6" x="2072.34" y="189.4297"/><text fill="#000000" font-family="sans-serif" font-size="14" lengthAdjust="spacing" textLength="180.2568" x="2084.34" y="195.7764">__decode_jwt(jwt: str): str</text><rect fill="#F24D5C" height="6" style="stroke:#C82930;stroke-width:1;" width="6" x="2072.34" y="205.7266"/><text fill="#000000" font-family="sans-serif" font-size="14" lengthAdjust="spacing" textLength="292.1885" x="2084.34" y="212.0732">__has_jwt_expired(decoded_jwt: str): bool</text><rect fill="#F24D5C" height="6" style="stroke:#C82930;stroke-width:1;" width="6" x="2072.34" y="222.0234"/><text fill="#000000" font-family="sans-serif" font-size="14" lengthAdjust="spacing" textLength="435.6133" x="2084.34" y="228.3701">__query_blacklisted_jwt_by_jti(jti): BlacklistedJWTAccessToken</text><rect fill="#F24D5C" height="6" style="stroke:#C82930;stroke-width:1;" width="6" x="2072.34" y="238.3203"/><text fill="#000000" font-family="sans-serif" font-size="14" lengthAdjust="spacing" textLength="619.8623" x="2084.34" y="244.667">__does_jti_match(refresh_jti_from_access_jwt: str, refresh_jti_from_refresh_jwt: str): bool</text><rect fill="#F24D5C" height="6" style="stroke:#C82930;stroke-width:1;" width="6" x="2072.34" y="254.6172"/><text fill="#000000" font-family="sans-serif" font-size="14" lengthAdjust="spacing" textLength="672.499" x="2084.34" y="260.9639">__query_whitelisted_jwt_by_jti_user_agent(jti: str, user_agent: str): WhitelistedJWTRefreshToken</text><ellipse cx="2075.34" cy="273.9141" fill="#84BE84" rx="3" ry="3" style="stroke:#038048;stroke-width:1;"/><text fill="#000000" font-family="sans-serif" font-size="14" lengthAdjust="spacing" textLength="415.6797" x="2084.34" y="277.2607">revoke_jwt(access_jwt: str, user_agent: str, ip_address: str)</text><rect fill="#F24D5C" height="6" style="stroke:#C82930;stroke-width:1;" width="6" x="2072.34" y="287.2109"/><text fill="#000000" font-family="sans-serif" font-size="14" lengthAdjust="spacing" textLength="475.8975" x="2084.34" y="293.5576">__blacklist_jwt(jwt: str, jti: str, expires_at: datetime.datetime): None</text><rect fill="#F24D5C" height="6" style="stroke:#C82930;stroke-width:1;" width="6" x="2072.34" y="303.5078"/><text fill="#000000" font-family="sans-serif" font-size="14" lengthAdjust="spacing" textLength="715.3125" x="2084.34" y="309.8545">__query_whitelisted_jwt_by_device_info(user_agent: str, ip_address: str): WhitelistedJWTRefreshToken</text><rect fill="#F24D5C" height="6" style="stroke:#C82930;stroke-width:1;" width="6" x="2072.34" y="319.8047"/><text fill="#000000" font-family="sans-serif" font-size="14" lengthAdjust="spacing" textLength="472.9375" x="2084.34" y="326.1514">__query_whitelisted_jwt_by_jti(jti: str): WhitelistedJWTRefreshToken</text><ellipse cx="2075.34" cy="339.1016" fill="#84BE84" rx="3" ry="3" style="stroke:#038048;stroke-width:1;"/><text fill="#000000" font-family="sans-serif" font-size="14" lengthAdjust="spacing" textLength="222.2979" x="2084.34" y="342.4482">verify_access_jwt(jwt: str): User</text></g><g id="elem_GMN4"><path d="M2187.75,409.75 L2187.75,722.4063 A0,0 0 0 0 2187.75,722.4063 L2682.2471,722.4063 A0,0 0 0 0 2682.2471,722.4063 L2682.2471,419.75 L2672.2471,409.75 L2439,409.75 L2435,350.07 L2431,409.75 L2187.75,409.75 A0,0 0 0 0 2187.75,409.75 " fill="#FEFFDD" style="stroke:#181818;stroke-width:0.5;"/><path d="M2672.2471,409.75 L2672.2471,419.75 L2682.2471,419.75 L2672.2471,409.75 " fill="#FEFFDD" style="stroke:#181818;stroke-width:0.5;"/><text fill="#000000" font-family="sans-serif" font-size="13" lengthAdjust="spacing" textLength="172.3008" x="2193.75" y="426.8169">JWT Access Token Format:</text><text fill="#000000" font-family="sans-serif" font-size="13" lengthAdjust="spacing" textLength="122.6494" x="2210.2793" y="441.9497">Header.alg: HS256</text><text fill="#000000" font-family="sans-serif" font-size="13" lengthAdjust="spacing" textLength="105.6504" x="2210.2793" y="457.0825">Header.typ: JWT</text><text fill="#000000" font-family="sans-serif" font-size="13" lengthAdjust="spacing" textLength="136.0811" x="2210.2793" y="472.2153">Payload.jti: uuid (str)</text><text fill="#000000" font-family="sans-serif" font-size="13" lengthAdjust="spacing" textLength="188.8555" x="2210.2793" y="487.3481">Payload.refresh_jti: uuid (str)</text><text fill="#000000" font-family="sans-serif" font-size="13" lengthAdjust="spacing" textLength="200.5098" x="2210.2793" y="502.481">Payload.iss: thementalloadhub</text><text fill="#000000" font-family="sans-serif" font-size="13" lengthAdjust="spacing" textLength="277.5894" x="2210.2793" y="517.6138">Payload.iat: issued_at (datetime.datetime)</text><text fill="#000000" font-family="sans-serif" font-size="13" lengthAdjust="spacing" textLength="165.1343" x="2210.2793" y="532.7466">Payload.sub: user_id (int)</text><text fill="#000000" font-family="sans-serif" font-size="13" lengthAdjust="spacing" textLength="456.9678" x="2210.2793" y="547.8794">Payload.exp: expiration_time (datetime.datetime {now + 5 minutes})</text><text fill="#000000" font-family="sans-serif" font-size="13" lengthAdjust="spacing" textLength="114.353" x="2210.2793" y="563.0122">Signature: HS256</text><text fill="#000000" font-family="sans-serif" font-size="13" lengthAdjust="spacing" textLength="4.1323" x="2193.75" y="578.145">&#160;</text><text fill="#000000" font-family="sans-serif" font-size="13" lengthAdjust="spacing" textLength="177.5313" x="2193.75" y="593.2778">JWT Refresh Token Format:</text><text fill="#000000" font-family="sans-serif" font-size="13" lengthAdjust="spacing" textLength="122.6494" x="2210.2793" y="608.4106">Header.alg: HS256</text><text fill="#000000" font-family="sans-serif" font-size="13" lengthAdjust="spacing" textLength="105.6504" x="2210.2793" y="623.5435">Header.typ: JWT</text><text fill="#000000" font-family="sans-serif" font-size="13" lengthAdjust="spacing" textLength="136.0811" x="2210.2793" y="638.6763">Payload.jti: uuid (str)</text><text fill="#000000" font-family="sans-serif" font-size="13" lengthAdjust="spacing" textLength="200.5098" x="2210.2793" y="653.8091">Payload.iss: thementalloadhub</text><text fill="#000000" font-family="sans-serif" font-size="13" lengthAdjust="spacing" textLength="277.5894" x="2210.2793" y="668.9419">Payload.iat: issued_at (datetime.datetime)</text><text fill="#000000" font-family="sans-serif" font-size="13" lengthAdjust="spacing" textLength="165.1343" x="2210.2793" y="684.0747">Payload.sub: user_id (int)</text><text fill="#000000" font-family="sans-serif" font-size="13" lengthAdjust="spacing" textLength="443.3013" x="2210.2793" y="699.2075">Payload.exp: expiration_time (datetime.datetime {now + 31 days})</text><text fill="#000000" font-family="sans-serif" font-size="13" lengthAdjust="spacing" textLength="114.353" x="2210.2793" y="714.3403">Signature: HS256</text></g><!--class EmailVerificationService--><g id="elem_EmailVerificationService"><rect codeLine="403" fill="#F1F1F1" height="129.4844" id="EmailVerificationService" rx="2.5" ry="2.5" style="stroke:#181818;stroke-width:0.5;" width="509.7383" x="22.13" y="130.64"/><ellipse cx="187.5836" cy="146.64" fill="#ADD1B2" rx="11" ry="11" style="stroke:#181818;stroke-width:1;"/><path d="M190.5524,152.2806 Q189.9742,152.5775 189.3336,152.7181 Q188.693,152.8744 187.9899,152.8744 Q185.4899,152.8744 184.1617,151.2338 Q182.8492,149.5775 182.8492,146.4525 Q182.8492,143.3275 184.1617,141.6713 Q185.4899,140.015 187.9899,140.015 Q188.693,140.015 189.3336,140.1713 Q189.9899,140.3275 190.5524,140.6244 L190.5524,143.3431 Q189.9274,142.765 189.3336,142.4994 Q188.7399,142.2181 188.1149,142.2181 Q186.7711,142.2181 186.0836,143.2963 Q185.3961,144.3588 185.3961,146.4525 Q185.3961,148.5463 186.0836,149.6244 Q186.7711,150.6869 188.1149,150.6869 Q188.7399,150.6869 189.3336,150.4213 Q189.9274,150.14 190.5524,149.5619 L190.5524,152.2806 Z " fill="#000000"/><text fill="#000000" font-family="sans-serif" font-size="14" lengthAdjust="spacing" textLength="170.3311" x="208.0836" y="151.4867">EmailVerificationService</text><line style="stroke:#181818;stroke-width:0.5;" x1="23.13" x2="530.8683" y1="162.64" y2="162.64"/><line style="stroke:#181818;stroke-width:0.5;" x1="23.13" x2="530.8683" y1="170.64" y2="170.64"/><ellipse cx="33.13" cy="184.2884" fill="#84BE84" rx="3" ry="3" style="stroke:#038048;stroke-width:1;"/><text fill="#000000" font-family="sans-serif" font-size="14" lengthAdjust="spacing" textLength="267.5928" x="42.13" y="187.6351">is_email_format_valid(email: str): bool</text><ellipse cx="33.13" cy="200.5853" fill="#84BE84" rx="3" ry="3" style="stroke:#038048;stroke-width:1;"/><text fill="#000000" font-family="sans-serif" font-size="14" lengthAdjust="spacing" textLength="215.4824" x="42.13" y="203.932">create_verification_token(): str</text><ellipse cx="33.13" cy="216.8822" fill="#84BE84" rx="3" ry="3" style="stroke:#038048;stroke-width:1;"/><text fill="#000000" font-family="sans-serif" font-size="14" lengthAdjust="spacing" textLength="350.6563" x="42.13" y="220.2289">send_verification_mail(verification_link: str): None</text><rect fill="#F24D5C" height="6" style="stroke:#C82930;stroke-width:1;" width="6" x="30.13" y="230.1791"/><text fill="#000000" font-family="sans-serif" font-size="14" lengthAdjust="spacing" textLength="483.7383" x="42.13" y="236.5257">__create_verification_link(plain_verification_token: str, email: str): str</text><ellipse cx="33.13" cy="249.4759" fill="#84BE84" rx="3" ry="3" style="stroke:#038048;stroke-width:1;"/><text fill="#000000" font-family="sans-serif" font-size="14" lengthAdjust="spacing" textLength="368.6895" x="42.13" y="252.8226">verify_email(user: User, verification_token: str): bool</text></g><!--class UserService--><g id="elem_UserService"><rect codeLine="411" fill="#F1F1F1" height="113.1875" id="UserService" rx="2.5" ry="2.5" style="stroke:#181818;stroke-width:0.5;" width="654.5986" x="566.7" y="138.78"/><ellipse cx="847.9236" cy="154.78" fill="#ADD1B2" rx="11" ry="11" style="stroke:#181818;stroke-width:1;"/><path d="M850.8924,160.4206 Q850.3143,160.7175 849.6736,160.8581 Q849.033,161.0144 848.3299,161.0144 Q845.8299,161.0144 844.5018,159.3737 Q843.1893,157.7175 843.1893,154.5925 Q843.1893,151.4675 844.5018,149.8112 Q845.8299,148.155 848.3299,148.155 Q849.033,148.155 849.6736,148.3112 Q850.3299,148.4675 850.8924,148.7644 L850.8924,151.4831 Q850.2674,150.905 849.6736,150.6394 Q849.0799,150.3581 848.4549,150.3581 Q847.1111,150.3581 846.4236,151.4362 Q845.7361,152.4987 845.7361,154.5925 Q845.7361,156.6862 846.4236,157.7644 Q847.1111,158.8269 848.4549,158.8269 Q849.0799,158.8269 849.6736,158.5612 Q850.2674,158.28 850.8924,157.7019 L850.8924,160.4206 Z " fill="#000000"/><text fill="#000000" font-family="sans-serif" font-size="14" lengthAdjust="spacing" textLength="83.6514" x="868.4236" y="159.6267">UserService</text><line style="stroke:#181818;stroke-width:0.5;" x1="567.7" x2="1220.2986" y1="170.78" y2="170.78"/><line style="stroke:#181818;stroke-width:0.5;" x1="567.7" x2="1220.2986" y1="178.78" y2="178.78"/><ellipse cx="577.7" cy="192.4284" fill="#84BE84" rx="3" ry="3" style="stroke:#038048;stroke-width:1;"/><text fill="#000000" font-family="sans-serif" font-size="14" lengthAdjust="spacing" textLength="264.7285" x="586.7" y="195.7751">query_users_by_mail(email: str): User</text><ellipse cx="577.7" cy="208.7253" fill="#84BE84" rx="3" ry="3" style="stroke:#038048;stroke-width:1;"/><text fill="#000000" font-family="sans-serif" font-size="14" lengthAdjust="spacing" textLength="628.5986" x="586.7" y="212.072">query_users_by_unverified_mail_and_not_expired_verification(unverified_email: str): User</text><ellipse cx="577.7" cy="225.0222" fill="#84BE84" rx="3" ry="3" style="stroke:#038048;stroke-width:1;"/><text fill="#000000" font-family="sans-serif" font-size="14" lengthAdjust="spacing" textLength="258.9248" x="586.7" y="228.3689">query_users_by_id(user_id: int): User</text><ellipse cx="577.7" cy="241.3191" fill="#84BE84" rx="3" ry="3" style="stroke:#038048;stroke-width:1;"/><text fill="#000000" font-family="sans-serif" font-size="14" lengthAdjust="spacing" textLength="625.4746" x="586.7" y="244.6657">create_user(unverified_email: str, plain_password: str, plain_verification_token: str): User</text></g><!--class HouseholdService--><g id="elem_HouseholdService"><rect codeLine="418" fill="#F1F1F1" height="96.8906" id="HouseholdService" rx="2.5" ry="2.5" style="stroke:#181818;stroke-width:0.5;" width="621.834" x="1256.08" y="146.93"/><ellipse cx="1499.8324" cy="162.93" fill="#ADD1B2" rx="11" ry="11" style="stroke:#181818;stroke-width:1;"/><path d="M1502.8012,168.5706 Q1502.2231,168.8675 1501.5824,169.0081 Q1500.9418,169.1644 1500.2387,169.1644 Q1497.7387,169.1644 1496.4106,167.5237 Q1495.0981,165.8675 1495.0981,162.7425 Q1495.0981,159.6175 1496.4106,157.9612 Q1497.7387,156.305 1500.2387,156.305 Q1500.9418,156.305 1501.5824,156.4612 Q1502.2387,156.6175 1502.8012,156.9144 L1502.8012,159.6331 Q1502.1762,159.055 1501.5824,158.7894 Q1500.9887,158.5081 1500.3637,158.5081 Q1499.0199,158.5081 1498.3324,159.5862 Q1497.6449,160.6487 1497.6449,162.7425 Q1497.6449,164.8362 1498.3324,165.9144 Q1499.0199,166.9769 1500.3637,166.9769 Q1500.9887,166.9769 1501.5824,166.7112 Q1502.1762,166.43 1502.8012,165.8519 L1502.8012,168.5706 Z " fill="#000000"/><text fill="#000000" font-family="sans-serif" font-size="14" lengthAdjust="spacing" textLength="125.8291" x="1520.3324" y="167.7767">HouseholdService</text><line style="stroke:#181818;stroke-width:0.5;" x1="1257.08" x2="1876.914" y1="178.93" y2="178.93"/><line style="stroke:#181818;stroke-width:0.5;" x1="1257.08" x2="1876.914" y1="186.93" y2="186.93"/><ellipse cx="1267.08" cy="200.5784" fill="#84BE84" rx="3" ry="3" style="stroke:#038048;stroke-width:1;"/><text fill="#000000" font-family="sans-serif" font-size="14" lengthAdjust="spacing" textLength="386.2031" x="1276.08" y="203.9251">create_household(name: str, creator: User): Household</text><ellipse cx="1267.08" cy="216.8753" fill="#84BE84" rx="3" ry="3" style="stroke:#038048;stroke-width:1;"/><text fill="#000000" font-family="sans-serif" font-size="14" lengthAdjust="spacing" textLength="595.834" x="1276.08" y="220.222">query_household_list_by_household_admin(household_admin: User): List[Household]</text><ellipse cx="1267.08" cy="233.1722" fill="#84BE84" rx="3" ry="3" style="stroke:#038048;stroke-width:1;"/><text fill="#000000" font-family="sans-serif" font-size="14" lengthAdjust="spacing" textLength="436.0781" x="1276.08" y="236.5189">assign_household_role(user: User, role: HouseholdRole): None</text></g><!--class TaskService--><g id="elem_TaskService"><rect codeLine="427" fill="#F1F1F1" height="48" id="TaskService" rx="2.5" ry="2.5" style="stroke:#181818;stroke-width:0.5;" width="116.2734" x="1912.86" y="171.38"/><ellipse cx="1927.86" cy="187.38" fill="#ADD1B2" rx="11" ry="11" style="stroke:#181818;stroke-width:1;"/><path d="M1930.8288,193.0206 Q1930.2506,193.3175 1929.61,193.4581 Q1928.9694,193.6144 1928.2663,193.6144 Q1925.7663,193.6144 1924.4381,191.9738 Q1923.1256,190.3175 1923.1256,187.1925 Q1923.1256,184.0675 1924.4381,182.4113 Q1925.7663,180.755 1928.2663,180.755 Q1928.9694,180.755 1929.61,180.9113 Q1930.2663,181.0675 1930.8288,181.3644 L1930.8288,184.0831 Q1930.2038,183.505 1929.61,183.2394 Q1929.0163,182.9581 1928.3913,182.9581 Q1927.0475,182.9581 1926.36,184.0363 Q1925.6725,185.0988 1925.6725,187.1925 Q1925.6725,189.2863 1926.36,190.3644 Q1927.0475,191.4269 1928.3913,191.4269 Q1929.0163,191.4269 1929.61,191.1613 Q1930.2038,190.88 1930.8288,190.3019 L1930.8288,193.0206 Z " fill="#000000"/><text fill="#000000" font-family="sans-serif" font-size="14" lengthAdjust="spacing" textLength="84.2734" x="1941.86" y="192.2267">TaskService</text><line style="stroke:#181818;stroke-width:0.5;" x1="1913.86" x2="2028.1334" y1="203.38" y2="203.38"/><line style="stroke:#181818;stroke-width:0.5;" x1="1913.86" x2="2028.1334" y1="211.38" y2="211.38"/></g><!--class RecurringTaskService--><g id="elem_RecurringTaskService"><rect codeLine="430" fill="#F1F1F1" height="48" id="RecurringTaskService" rx="2.5" ry="2.5" style="stroke:#181818;stroke-width:0.5;" width="184.3457" x="184.83" y="542.08"/><ellipse cx="199.83" cy="558.08" fill="#ADD1B2" rx="11" ry="11" style="stroke:#181818;stroke-width:1;"/><path d="M202.7988,563.7206 Q202.2206,564.0175 201.58,564.1581 Q200.9394,564.3144 200.2363,564.3144 Q197.7363,564.3144 196.4081,562.6738 Q195.0956,561.0175 195.0956,557.8925 Q195.0956,554.7675 196.4081,553.1113 Q197.7363,551.455 200.2363,551.455 Q200.9394,551.455 201.58,551.6113 Q202.2363,551.7675 202.7988,552.0644 L202.7988,554.7831 Q202.1738,554.205 201.58,553.9394 Q200.9863,553.6581 200.3613,553.6581 Q199.0175,553.6581 198.33,554.7363 Q197.6425,555.7988 197.6425,557.8925 Q197.6425,559.9863 198.33,561.0644 Q199.0175,562.1269 200.3613,562.1269 Q200.9863,562.1269 201.58,561.8613 Q202.1738,561.58 202.7988,561.0019 L202.7988,563.7206 Z " fill="#000000"/><text fill="#000000" font-family="sans-serif" font-size="14" lengthAdjust="spacing" textLength="152.3457" x="213.83" y="562.9267">RecurringTaskService</text><line style="stroke:#181818;stroke-width:0.5;" x1="185.83" x2="368.1757" y1="574.08" y2="574.08"/><line style="stroke:#181818;stroke-width:0.5;" x1="185.83" x2="368.1757" y1="582.08" y2="582.08"/></g><!--class NonRecurringTaskService--><g id="elem_NonRecurringTaskService"><rect codeLine="433" fill="#F1F1F1" height="48" id="NonRecurringTaskService" rx="2.5" ry="2.5" style="stroke:#181818;stroke-width:0.5;" width="212.2568" x="403.87" y="542.08"/><ellipse cx="418.87" cy="558.08" fill="#ADD1B2" rx="11" ry="11" style="stroke:#181818;stroke-width:1;"/><path d="M421.8388,563.7206 Q421.2606,564.0175 420.62,564.1581 Q419.9794,564.3144 419.2763,564.3144 Q416.7763,564.3144 415.4481,562.6738 Q414.1356,561.0175 414.1356,557.8925 Q414.1356,554.7675 415.4481,553.1113 Q416.7763,551.455 419.2763,551.455 Q419.9794,551.455 420.62,551.6113 Q421.2763,551.7675 421.8388,552.0644 L421.8388,554.7831 Q421.2138,554.205 420.62,553.9394 Q420.0263,553.6581 419.4013,553.6581 Q418.0575,553.6581 417.37,554.7363 Q416.6825,555.7988 416.6825,557.8925 Q416.6825,559.9863 417.37,561.0644 Q418.0575,562.1269 419.4013,562.1269 Q420.0263,562.1269 420.62,561.8613 Q421.2138,561.58 421.8388,561.0019 L421.8388,563.7206 Z " fill="#000000"/><text fill="#000000" font-family="sans-serif" font-size="14" lengthAdjust="spacing" textLength="180.2568" x="432.87" y="562.9267">NonRecurringTaskService</text><line style="stroke:#181818;stroke-width:0.5;" x1="404.87" x2="615.1268" y1="574.08" y2="574.08"/><line style="stroke:#181818;stroke-width:0.5;" x1="404.87" x2="615.1268" y1="582.08" y2="582.08"/></g><!--class AreaOfResponsibilityService--><g id="elem_AreaOfResponsibilityService"><rect codeLine="437" fill="#F1F1F1" height="48" id="AreaOfResponsibilityService" rx="2.5" ry="2.5" style="stroke:#181818;stroke-width:0.5;" width="229.6885" x="651.16" y="542.08"/><ellipse cx="666.16" cy="558.08" fill="#ADD1B2" rx="11" ry="11" style="stroke:#181818;stroke-width:1;"/><path d="M669.1288,563.7206 Q668.5506,564.0175 667.91,564.1581 Q667.2694,564.3144 666.5663,564.3144 Q664.0663,564.3144 662.7381,562.6738 Q661.4256,561.0175 661.4256,557.8925 Q661.4256,554.7675 662.7381,553.1113 Q664.0663,551.455 666.5663,551.455 Q667.2694,551.455 667.91,551.6113 Q668.5663,551.7675 669.1288,552.0644 L669.1288,554.7831 Q668.5038,554.205 667.91,553.9394 Q667.3163,553.6581 666.6913,553.6581 Q665.3475,553.6581 664.66,554.7363 Q663.9725,555.7988 663.9725,557.8925 Q663.9725,559.9863 664.66,561.0644 Q665.3475,562.1269 666.6913,562.1269 Q667.3163,562.1269 667.91,561.8613 Q668.5038,561.58 669.1288,561.0019 L669.1288,563.7206 Z " fill="#000000"/><text fill="#000000" font-family="sans-serif" font-size="14" lengthAdjust="spacing" textLength="197.6885" x="680.16" y="562.9267">AreaOfResponsibilityService</text><line style="stroke:#181818;stroke-width:0.5;" x1="652.16" x2="879.8485" y1="574.08" y2="574.08"/><line style="stroke:#181818;stroke-width:0.5;" x1="652.16" x2="879.8485" y1="582.08" y2="582.08"/></g><!--class ProjectService--><g id="elem_ProjectService"><rect codeLine="438" fill="#F1F1F1" height="48" id="ProjectService" rx="2.5" ry="2.5" style="stroke:#181818;stroke-width:0.5;" width="132.1943" x="915.9" y="542.08"/><ellipse cx="930.9" cy="558.08" fill="#ADD1B2" rx="11" ry="11" style="stroke:#181818;stroke-width:1;"/><path d="M933.8688,563.7206 Q933.2906,564.0175 932.65,564.1581 Q932.0094,564.3144 931.3063,564.3144 Q928.8063,564.3144 927.4781,562.6738 Q926.1656,561.0175 926.1656,557.8925 Q926.1656,554.7675 927.4781,553.1113 Q928.8063,551.455 931.3063,551.455 Q932.0094,551.455 932.65,551.6113 Q933.3063,551.7675 933.8688,552.0644 L933.8688,554.7831 Q933.2438,554.205 932.65,553.9394 Q932.0563,553.6581 931.4313,553.6581 Q930.0875,553.6581 929.4,554.7363 Q928.7125,555.7988 928.7125,557.8925 Q928.7125,559.9863 929.4,561.0644 Q930.0875,562.1269 931.4313,562.1269 Q932.0563,562.1269 932.65,561.8613 Q933.2438,561.58 933.8688,561.0019 L933.8688,563.7206 Z " fill="#000000"/><text fill="#000000" font-family="sans-serif" font-size="14" lengthAdjust="spacing" textLength="100.1943" x="944.9" y="562.9267">ProjectService</text><line style="stroke:#181818;stroke-width:0.5;" x1="916.9" x2="1047.0943" y1="574.08" y2="574.08"/><line style="stroke:#181818;stroke-width:0.5;" x1="916.9" x2="1047.0943" y1="582.08" y2="582.08"/></g><!--class CustomListService--><g id="elem_CustomListService"><rect codeLine="439" fill="#F1F1F1" height="48" id="CustomListService" rx="2.5" ry="2.5" style="stroke:#181818;stroke-width:0.5;" width="161.8486" x="196.08" y="782.41"/><ellipse cx="211.08" cy="798.41" fill="#ADD1B2" rx="11" ry="11" style="stroke:#181818;stroke-width:1;"/><path d="M214.0488,804.0506 Q213.4706,804.3475 212.83,804.4881 Q212.1894,804.6444 211.4863,804.6444 Q208.9863,804.6444 207.6581,803.0038 Q206.3456,801.3475 206.3456,798.2225 Q206.3456,795.0975 207.6581,793.4413 Q208.9863,791.785 211.4863,791.785 Q212.1894,791.785 212.83,791.9413 Q213.4863,792.0975 214.0488,792.3944 L214.0488,795.1131 Q213.4238,794.535 212.83,794.2694 Q212.2363,793.9881 211.6113,793.9881 Q210.2675,793.9881 209.58,795.0663 Q208.8925,796.1288 208.8925,798.2225 Q208.8925,800.3163 209.58,801.3944 Q210.2675,802.4569 211.6113,802.4569 Q212.2363,802.4569 212.83,802.1913 Q213.4238,801.91 214.0488,801.3319 L214.0488,804.0506 Z " fill="#000000"/><text fill="#000000" font-family="sans-serif" font-size="14" lengthAdjust="spacing" textLength="129.8486" x="225.08" y="803.2567">CustomListService</text><line style="stroke:#181818;stroke-width:0.5;" x1="197.08" x2="356.9286" y1="814.41" y2="814.41"/><line style="stroke:#181818;stroke-width:0.5;" x1="197.08" x2="356.9286" y1="822.41" y2="822.41"/></g><!--class CustomListItemService--><g id="elem_CustomListItemService"><rect codeLine="440" fill="#F1F1F1" height="48" id="CustomListItemService" rx="2.5" ry="2.5" style="stroke:#181818;stroke-width:0.5;" width="193.7178" x="393.14" y="782.41"/><ellipse cx="408.14" cy="798.41" fill="#ADD1B2" rx="11" ry="11" style="stroke:#181818;stroke-width:1;"/><path d="M411.1088,804.0506 Q410.5306,804.3475 409.89,804.4881 Q409.2494,804.6444 408.5463,804.6444 Q406.0463,804.6444 404.7181,803.0038 Q403.4056,801.3475 403.4056,798.2225 Q403.4056,795.0975 404.7181,793.4413 Q406.0463,791.785 408.5463,791.785 Q409.2494,791.785 409.89,791.9413 Q410.5463,792.0975 411.1088,792.3944 L411.1088,795.1131 Q410.4838,794.535 409.89,794.2694 Q409.2963,793.9881 408.6713,793.9881 Q407.3275,793.9881 406.64,795.0663 Q405.9525,796.1288 405.9525,798.2225 Q405.9525,800.3163 406.64,801.3944 Q407.3275,802.4569 408.6713,802.4569 Q409.2963,802.4569 409.89,802.1913 Q410.4838,801.91 411.1088,801.3319 L411.1088,804.0506 Z " fill="#000000"/><text fill="#000000" font-family="sans-serif" font-size="14" lengthAdjust="spacing" textLength="161.7178" x="422.14" y="803.2567">CustomListItemService</text><line style="stroke:#181818;stroke-width:0.5;" x1="394.14" x2="585.8578" y1="814.41" y2="814.41"/><line style="stroke:#181818;stroke-width:0.5;" x1="394.14" x2="585.8578" y1="822.41" y2="822.41"/></g><!--class ShoppingListService--><g id="elem_ShoppingListService"><rect codeLine="441" fill="#F1F1F1" height="48" id="ShoppingListService" rx="2.5" ry="2.5" style="stroke:#181818;stroke-width:0.5;" width="173.9619" x="622.02" y="782.41"/><ellipse cx="637.02" cy="798.41" fill="#ADD1B2" rx="11" ry="11" style="stroke:#181818;stroke-width:1;"/><path d="M639.9888,804.0506 Q639.4106,804.3475 638.77,804.4881 Q638.1294,804.6444 637.4263,804.6444 Q634.9263,804.6444 633.5981,803.0038 Q632.2856,801.3475 632.2856,798.2225 Q632.2856,795.0975 633.5981,793.4413 Q634.9263,791.785 637.4263,791.785 Q638.1294,791.785 638.77,791.9413 Q639.4263,792.0975 639.9888,792.3944 L639.9888,795.1131 Q639.3638,794.535 638.77,794.2694 Q638.1763,793.9881 637.5513,793.9881 Q636.2075,793.9881 635.52,795.0663 Q634.8325,796.1288 634.8325,798.2225 Q634.8325,800.3163 635.52,801.3944 Q636.2075,802.4569 637.5513,802.4569 Q638.1763,802.4569 638.77,802.1913 Q639.3638,801.91 639.9888,801.3319 L639.9888,804.0506 Z " fill="#000000"/><text fill="#000000" font-family="sans-serif" font-size="14" lengthAdjust="spacing" textLength="141.9619" x="651.02" y="803.2567">ShoppingListService</text><line style="stroke:#181818;stroke-width:0.5;" x1="623.02" x2="794.9819" y1="814.41" y2="814.41"/><line style="stroke:#181818;stroke-width:0.5;" x1="623.02" x2="794.9819" y1="822.41" y2="822.41"/></g><!--class ShoppingListItemCategoryService--><g id="elem_ShoppingListItemCategoryService"><rect codeLine="442" fill="#F1F1F1" height="48" id="ShoppingListItemCategoryService" rx="2.5" ry="2.5" style="stroke:#181818;stroke-width:0.5;" width="269.7813" x="831.11" y="782.41"/><ellipse cx="846.11" cy="798.41" fill="#ADD1B2" rx="11" ry="11" style="stroke:#181818;stroke-width:1;"/><path d="M849.0788,804.0506 Q848.5006,804.3475 847.86,804.4881 Q847.2194,804.6444 846.5163,804.6444 Q844.0163,804.6444 842.6881,803.0038 Q841.3756,801.3475 841.3756,798.2225 Q841.3756,795.0975 842.6881,793.4413 Q844.0163,791.785 846.5163,791.785 Q847.2194,791.785 847.86,791.9413 Q848.5163,792.0975 849.0788,792.3944 L849.0788,795.1131 Q848.4538,794.535 847.86,794.2694 Q847.2663,793.9881 846.6413,793.9881 Q845.2975,793.9881 844.61,795.0663 Q843.9225,796.1288 843.9225,798.2225 Q843.9225,800.3163 844.61,801.3944 Q845.2975,802.4569 846.6413,802.4569 Q847.2663,802.4569 847.86,802.1913 Q848.4538,801.91 849.0788,801.3319 L849.0788,804.0506 Z " fill="#000000"/><text fill="#000000" font-family="sans-serif" font-size="14" lengthAdjust="spacing" textLength="237.7813" x="860.11" y="803.2567">ShoppingListItemCategoryService</text><line style="stroke:#181818;stroke-width:0.5;" x1="832.11" x2="1099.8913" y1="814.41" y2="814.41"/><line style="stroke:#181818;stroke-width:0.5;" x1="832.11" x2="1099.8913" y1="822.41" y2="822.41"/></g><!--class ShoppingListItemService--><g id="elem_ShoppingListItemService"><rect codeLine="443" fill="#F1F1F1" height="48" id="ShoppingListItemService" rx="2.5" ry="2.5" style="stroke:#181818;stroke-width:0.5;" width="205.8311" x="174.08" y="890.41"/><ellipse cx="189.08" cy="906.41" fill="#ADD1B2" rx="11" ry="11" style="stroke:#181818;stroke-width:1;"/><path d="M192.0488,912.0506 Q191.4706,912.3475 190.83,912.4881 Q190.1894,912.6444 189.4863,912.6444 Q186.9863,912.6444 185.6581,911.0038 Q184.3456,909.3475 184.3456,906.2225 Q184.3456,903.0975 185.6581,901.4413 Q186.9863,899.785 189.4863,899.785 Q190.1894,899.785 190.83,899.9413 Q191.4863,900.0975 192.0488,900.3944 L192.0488,903.1131 Q191.4238,902.535 190.83,902.2694 Q190.2363,901.9881 189.6113,901.9881 Q188.2675,901.9881 187.58,903.0663 Q186.8925,904.1288 186.8925,906.2225 Q186.8925,908.3163 187.58,909.3944 Q188.2675,910.4569 189.6113,910.4569 Q190.2363,910.4569 190.83,910.1913 Q191.4238,909.91 192.0488,909.3319 L192.0488,912.0506 Z " fill="#000000"/><text fill="#000000" font-family="sans-serif" font-size="14" lengthAdjust="spacing" textLength="173.8311" x="203.08" y="911.2567">ShoppingListItemService</text><line style="stroke:#181818;stroke-width:0.5;" x1="175.08" x2="378.9111" y1="922.41" y2="922.41"/><line style="stroke:#181818;stroke-width:0.5;" x1="175.08" x2="378.9111" y1="930.41" y2="930.41"/></g><!--SRC=[tLlTRzms4d_tNq7iFKH9lKQTD7qGq0DwGNlfeUaPTje-58N0bRWhnbfnIr9szrh_xnrIN_pIIbhtucqNSBocPeR3ttoHrEGP-lu6VO6-5uIZ6ydu_koi86k994ESRdA9Cif9AYahptOulSKRWXRlM4OAzAR0GX2nGB-T8VWyMuvyQYhqhmB455H8ag7__FWUVPccH0ZqdjsISeOWFRif36JLehIaHYdr-GHza3H6Gl9kQ8cI9CSY9rdouLxQppv1vDSTh5aa69vaM199j-IY_MBGKP58DLUowhM8TWMcfPBwF4OhnWflpaIGb1CPrR_qtCzx3HxEPe7vOqubCS2y9clGF3yIJKCQ26jaFHhE2bmh0RyflITqb-0iWqd4iIQu8vokzxKPFZBqRnaiB6T5DXlcZjD2bMOnegKqHagy9Iume3YWa8q2K-soINJWmn3B14WDp6OYeNB7R11qmZcyVhB5j1Zqj1r8kMSyyzojr4v1WUImW9einIgtrHxa-QT8jFEs0XstQjol5G4-EmhtHp5VRPKjaJdB11gnnlJuC3Nhq8zASf_KWMSP1FY-OsKWL3l6C9C3S3ERRwg6VS26WxCV8SYDYg_AQjk7y3KhYE76EDlI4X8enr1AeQnUTa-K8y70IrEKamuIBoRoxf7sGpz4r73S1w335Jj9oXNAGVdONeljMnWAwau67FyKqz2NeDD_rzT4x5Wfw8eMLEvdfwMGa94qDG8tIAMR4Z2GpBEKfBBmKdn6HChfJddYNo7xNt7s0JQ8iv5k-1u7RWl8QkzXY-5HmjO9jsmP3xl9SIR92CuAMX87Q0TafWYS65A3fr4mh7JKsENV31SZjjdLbB7b0gVls3g1DoexwRjPKRB59MnOxGIUib9okghgn1x8uyh_acbU7KpR1-2i4xMXyuddX3ULa6pxBHJ2sMcXPpsrpF0dkZjWdEQaFZDwUK7NNKdlo9DMNTSQtqYoVPn5dleuuwuecRMusbIEOpV4m1qxK9b-0_vMMhp98Eql5IwbTiPrmR2LCahgdPzB9ad0jOBLvXJJn7iiRcSd2CNqo1tPSV5_AACSsEFjE6LSoxzglXaFXSIo4Z6wqRzjU3b9AyvfkV5iENkFScexZQO4rt0OngoukYQoocvEDtbNRzLdIp8At5-WLzrGmUxXxy-y6MfK3VahTK_7DjO4aa70M3EeOobd6tKlPKsZO7JdwNqoKV-y9SLkz5uZMFqbSCTzH3oHJQwrpv4o9M_sgRKroZ0jzXPmzuJSwY73Dh17olLOZzgUOAw70hXTjoxk1JNl54bIfKdigXQc1Q09lyE5TvL6VfKgtecSWj79bD_lM3aCqO7zoC2Xv0aZVcf9kCdPRWUhFMhlQ3B_ttQF1s3_Cu-S7z_PJFJKjkGD2DamllyxxFhSjJtIEnfaua7CJjkwoKmuwhsl5vhcxjUL-7VQqpwSbUH-XpVap7q5UaqAVMFSlGJrBuU3Lmx-9iZTj0oMv5dPjDDl1fU-X5vSBj2BvH8jFhsuUB5mhwXZj5YHWfKR0RkdXUPoA1g-vVA55jM_yJgULL_L07kE1SABshM3jxMTW2cJj_SrWqm17kEAuZWs7NAprDJ5VnQ7LGkFvfolwM0LcIp5jeljYERbPEqBYyvf4y-MchiT1N9Qth7YZcIGtgQojLxNiQePFI-mbHo-OW11gV9K8GLYQzSjaY4FqHFueff8c2m4lbsEQ4S5IdCADb7Q1JolWQOvkDaw12YR0vXFPnwMR1OjHJ70mnPgUm_SCMXwzyJIUaMJ0RyfSmAwOdXkxQQN29TPBrXFAz2Qisr_1lDstylbx__i5AJTWaQ90W5fUypXuXpociCSZXK20WrxpEJk0bgfLN-d_uF0MEsRXNO5PDaliCL3Lsp65wE4pOqAEKnfkb7lCqCSHYOOrSFA34Ry3tCO-M3A19OxJ648rZeBgU7YrCR-a0pNZe6ISum8lxWU8sMWaiqLDOmEQqKPzdRBcfSBvh4Fh66C5NRm_jRpXl0xcX9nR0DUn__kXol4okA8b-ILp1ifrid1RV7eBxhEqQHsZtf3hrguB5wdW-pSRHm3GU-hNK5-mhe1i6j2EqUyxc7hHdwsUbwQwGmYOzfEQFUuQNkRABNNnLgBA-svtvy4nGnE5vgpdS5hmscWRgLnyaj5X8pwIIqjdpkt66gMZ8pDqhG5APAaRiZBefghx_CBjTg1AdnlDaLg2QkzMdC4Fy0psBTfgyY8K4p95iiqZmpe4bMfas5pjnIkfORLlUzx7mrrazxrejx-ZZ-2qE7EIUkUyWv6DEAUvgCkRgdSOMkPxnprAXvie7JRemwYa14LvmajrooQ48WJa1W3FJ9YOnAmJJ0O4MVOktFy1_slkby07v1G1Ze9RXio-ffnSBcu8z37L88pmYzmiOdHsvkNhpyFFPNxNQp4MS-kyBvWEBlGowegcg78igX9OwM74LggK9SvsO8zSA66yceLfbHk0EILlWH1aUyHGJPHhMBKT9wXY9OoJ0Q-5jSErxJFWS307EYtajs3jLwZBIqhISI3BUu6jZ5mNE2anTUoZzNP_8G6-ek2_keIqi1-578rIE1WfAB4l3tyIdNI_c3qI8RAFnLrnssorjP9xd11iwXlmXsizu6kJA_W2L3B9bHo8skaeELjiF_JACiUm-46q7DawHyimfh2AlBJkqdxrg4GedMML9A5oerw7aiVvzs4Gs-qGckxm94t0SksnTnQSnJicnwTWjQxlBOrrQTlO5T4uIc2MyDsS1X88ws7UcbzD9-f_-ZoZykNyFFArw-xyO-w5nRdg3cJTVj1_rr08_Ir1r3VPAlBzCeSqKt2aVDtDuaw8lpKpVIpEzKhh-qWiHjwxTsct-5hneRt4jk6RVXTxG4wzwGK97s6hXYSXE044eyqttRi3twFOl1PVyGRUQmkCu8avc5jbC2y4fb4t12TFVm1]--></g></svg>