<svg xmlns="http://www.w3.org/2000/svg" xmlns:xlink="http://www.w3.org/1999/xlink" contentStyleType="text/css" height="626.4px" preserveAspectRatio="none" style="width:1068px;height:626px;background:#FFFFFF;" version="1.1" viewBox="0 0 1068 626" width="1068.6px" zoomAndPan="magnify"><defs/><g><!--cluster Model Classes--><g id="cluster_Model Classes"><path d="M5.1,3.6082 L64.057,3.6082 A2.25,2.25 0 0 1 65.557,5.1082 L69.757,18.3809 L1062.9,18.3809 A1.5,1.5 0 0 1 1064.4,19.8809 L1064.4,620.7082 A1.5,1.5 0 0 1 1062.9,622.2082 L5.1,622.2082 A1.5,1.5 0 0 1 3.6,620.7082 L3.6,5.1082 A1.5,1.5 0 0 1 5.1,3.6082 " fill="none" style="stroke:#000000;stroke-width:0.8999999999999999;"/><line style="stroke:#000000;stroke-width:0.8999999999999999;" x1="3.6" x2="69.757" y1="18.3809" y2="18.3809"/><text fill="#000000" font-family="sans-serif" font-size="8.4" font-weight="bold" lengthAdjust="spacing" textLength="58.357" x="6" y="13.8727">Model Classes</text></g><!--class Household--><g id="elem_Household"><rect codeLine="6" fill="#F1F1F1" height="73.4906" id="Household" rx="1.5" ry="1.5" style="stroke:#181818;stroke-width:0.3;" width="171.1066" x="30" y="499.8082"/><ellipse cx="92.9221" cy="509.4082" fill="#ADD1B2" rx="6.6" ry="6.6" style="stroke:#181818;stroke-width:0.6;"/><path d="M94.5814,506.9332 Q94.6752,506.802 94.7877,506.7363 Q94.9002,506.6707 95.0314,506.6707 Q95.2564,506.6707 95.3971,506.8301 Q95.5377,506.9801 95.5377,507.3457 L95.5377,508.2176 Q95.5377,508.5832 95.3971,508.7426 Q95.2564,508.902 95.0314,508.902 Q94.8252,508.902 94.7033,508.7801 Q94.5814,508.6676 94.5158,508.3582 Q94.4877,508.1426 94.3752,508.0301 Q94.1783,507.8051 93.8127,507.6738 Q93.4471,507.5426 93.0721,507.5426 Q92.6127,507.5426 92.2283,507.7395 Q91.8533,507.9363 91.5533,508.3863 Q91.2627,508.8363 91.2627,509.4551 L91.2627,510.1113 Q91.2627,510.852 91.7971,511.3488 Q92.3314,511.8363 93.2877,511.8363 Q93.8502,511.8363 94.2439,511.6863 Q94.4783,511.5926 94.7314,511.3301 Q94.8908,511.1707 94.9752,511.1238 Q95.0689,511.077 95.1908,511.077 Q95.3877,511.077 95.5377,511.2363 Q95.6971,511.3863 95.6971,511.5926 Q95.6971,511.7988 95.4908,512.0426 Q95.1908,512.3895 94.7127,512.5863 Q94.0658,512.8582 93.2877,512.8582 Q92.3783,512.8582 91.6564,512.4832 Q91.0658,512.1832 90.6533,511.5457 Q90.2408,510.8988 90.2408,510.1301 L90.2408,509.4363 Q90.2408,508.6395 90.6064,507.9551 Q90.9814,507.2613 91.6377,506.8957 Q92.2939,506.5207 93.0346,506.5207 Q93.4752,506.5207 93.8596,506.6238 Q94.2533,506.7176 94.5814,506.9332 Z " fill="#000000"/><text fill="#000000" font-family="sans-serif" font-size="8.4" lengthAdjust="spacing" textLength="40.1625" x="105.2221" y="512.8863">Household</text><line style="stroke:#181818;stroke-width:0.3;" x1="30.6" x2="200.5066" y1="519.0082" y2="519.0082"/><ellipse cx="36.6" cy="527.8945" fill="none" rx="1.8" ry="1.8" style="stroke:#038048;stroke-width:0.6;"/><text fill="#000000" font-family="sans-serif" font-size="8.4" lengthAdjust="spacing" textLength="62.1059" x="42" y="530.4727">id: int {readOnly}</text><ellipse cx="36.6" cy="539.0672" fill="none" rx="1.8" ry="1.8" style="stroke:#038048;stroke-width:0.6;"/><text fill="#000000" font-family="sans-serif" font-size="8.4" lengthAdjust="spacing" textLength="35.0109" x="42" y="541.6453">name: str</text><ellipse cx="36.6" cy="550.2398" fill="none" rx="1.8" ry="1.8" style="stroke:#038048;stroke-width:0.6;"/><text fill="#000000" font-family="sans-serif" font-size="8.4" lengthAdjust="spacing" textLength="153.1605" x="42" y="552.818">created_at: datetime.datetime {readOnly}</text><ellipse cx="36.6" cy="561.4125" fill="none" rx="1.8" ry="1.8" style="stroke:#038048;stroke-width:0.6;"/><text fill="#000000" font-family="sans-serif" font-size="8.4" lengthAdjust="spacing" textLength="155.5066" x="42" y="563.9906">updated_at: datetime.datetime {readOnly}</text><line style="stroke:#181818;stroke-width:0.3;" x1="30.6" x2="200.5066" y1="568.4988" y2="568.4988"/></g><!--class User--><g id="elem_User"><rect codeLine="16" fill="#F1F1F1" height="129.3539" id="User" rx="1.5" ry="1.5" style="stroke:#181818;stroke-width:0.3;" width="204.7066" x="13.2" y="349.2082"/><ellipse cx="104.1357" cy="358.8082" fill="#ADD1B2" rx="6.6" ry="6.6" style="stroke:#181818;stroke-width:0.6;"/><path d="M105.7951,356.3332 Q105.8889,356.202 106.0014,356.1363 Q106.1139,356.0707 106.2451,356.0707 Q106.4701,356.0707 106.6107,356.2301 Q106.7514,356.3801 106.7514,356.7457 L106.7514,357.6176 Q106.7514,357.9832 106.6107,358.1426 Q106.4701,358.302 106.2451,358.302 Q106.0389,358.302 105.917,358.1801 Q105.7951,358.0676 105.7295,357.7582 Q105.7014,357.5426 105.5889,357.4301 Q105.392,357.2051 105.0264,357.0738 Q104.6607,356.9426 104.2857,356.9426 Q103.8264,356.9426 103.442,357.1395 Q103.067,357.3363 102.767,357.7863 Q102.4764,358.2363 102.4764,358.8551 L102.4764,359.5113 Q102.4764,360.252 103.0107,360.7488 Q103.5451,361.2363 104.5014,361.2363 Q105.0639,361.2363 105.4576,361.0863 Q105.692,360.9926 105.9451,360.7301 Q106.1045,360.5707 106.1889,360.5238 Q106.2826,360.477 106.4045,360.477 Q106.6014,360.477 106.7514,360.6363 Q106.9107,360.7863 106.9107,360.9926 Q106.9107,361.1988 106.7045,361.4426 Q106.4045,361.7895 105.9264,361.9863 Q105.2795,362.2582 104.5014,362.2582 Q103.592,362.2582 102.8701,361.8832 Q102.2795,361.5832 101.867,360.9457 Q101.4545,360.2988 101.4545,359.5301 L101.4545,358.8363 Q101.4545,358.0395 101.8201,357.3551 Q102.1951,356.6613 102.8514,356.2957 Q103.5076,355.9207 104.2482,355.9207 Q104.6889,355.9207 105.0732,356.0238 Q105.467,356.1176 105.7951,356.3332 Z " fill="#000000"/><text fill="#000000" font-family="sans-serif" font-size="8.4" lengthAdjust="spacing" textLength="17.7352" x="116.4357" y="362.2863">User</text><line style="stroke:#181818;stroke-width:0.3;" x1="13.8" x2="217.3066" y1="368.4082" y2="368.4082"/><ellipse cx="19.8" cy="377.2945" fill="none" rx="1.8" ry="1.8" style="stroke:#038048;stroke-width:0.6;"/><text fill="#000000" font-family="sans-serif" font-size="8.4" lengthAdjust="spacing" textLength="62.1059" x="25.2" y="379.8727">id: int {readOnly}</text><ellipse cx="19.8" cy="388.4672" fill="none" rx="1.8" ry="1.8" style="stroke:#038048;stroke-width:0.6;"/><text fill="#000000" font-family="sans-serif" font-size="8.4" lengthAdjust="spacing" textLength="76.1004" x="25.2" y="391.0453">email: str {readOnly}</text><rect fill="none" height="3.6" style="stroke:#C82930;stroke-width:0.6;" width="3.6" x="18" y="397.8398"/><text fill="#000000" font-family="sans-serif" font-size="8.4" lengthAdjust="spacing" textLength="91.5223" x="25.2" y="402.218">__hashed_password: str</text><ellipse cx="19.8" cy="410.8125" fill="none" rx="1.8" ry="1.8" style="stroke:#038048;stroke-width:0.6;"/><text fill="#000000" font-family="sans-serif" font-size="8.4" lengthAdjust="spacing" textLength="53.2301" x="25.2" y="413.3906">is_active: bool</text><ellipse cx="19.8" cy="421.9852" fill="none" rx="1.8" ry="1.8" style="stroke:#038048;stroke-width:0.6;"/><text fill="#000000" font-family="sans-serif" font-size="8.4" lengthAdjust="spacing" textLength="153.1605" x="25.2" y="424.5633">created_at: datetime.datetime {readOnly}</text><ellipse cx="19.8" cy="433.1578" fill="none" rx="1.8" ry="1.8" style="stroke:#038048;stroke-width:0.6;"/><text fill="#000000" font-family="sans-serif" font-size="8.4" lengthAdjust="spacing" textLength="155.5066" x="25.2" y="435.7359">updated_at: datetime.datetime {readOnly}</text><line style="stroke:#181818;stroke-width:0.3;" x1="13.8" x2="217.3066" y1="440.2441" y2="440.2441"/><rect fill="#F24D5C" height="3.6" style="stroke:#C82930;stroke-width:0.6;" width="3.6" x="18" y="447.3305"/><text fill="#000000" font-family="sans-serif" font-size="8.4" lengthAdjust="spacing" textLength="146.1428" x="25.2" y="451.7086">__hash_password(plain_password): str</text><ellipse cx="19.8" cy="460.3031" fill="#84BE84" rx="1.8" ry="1.8" style="stroke:#038048;stroke-width:0.6;"/><text fill="#000000" font-family="sans-serif" font-size="8.4" lengthAdjust="spacing" textLength="189.1066" x="25.2" y="462.8812">update_password(new_plain_password: str): None</text><ellipse cx="19.8" cy="471.4758" fill="#84BE84" rx="1.8" ry="1.8" style="stroke:#038048;stroke-width:0.6;"/><text fill="#000000" font-family="sans-serif" font-size="8.4" lengthAdjust="spacing" textLength="159.2021" x="25.2" y="474.0539">verify_password(plain_password: str): bool</text></g><!--class HouseholdRole--><g id="elem_HouseholdRole"><rect codeLine="29" fill="#F1F1F1" height="51.1453" id="HouseholdRole" rx="1.5" ry="1.5" style="stroke:#181818;stroke-width:0.3;" width="92.6396" x="69.3" y="276.9082"/><ellipse cx="85.5006" cy="286.5082" fill="#ADD1B2" rx="6.6" ry="6.6" style="stroke:#181818;stroke-width:0.6;"/><path d="M87.16,284.0332 Q87.2537,283.902 87.3662,283.8363 Q87.4787,283.7707 87.61,283.7707 Q87.835,283.7707 87.9756,283.9301 Q88.1162,284.0801 88.1162,284.4457 L88.1162,285.3176 Q88.1162,285.6832 87.9756,285.8426 Q87.835,286.002 87.61,286.002 Q87.4037,286.002 87.2819,285.8801 Q87.16,285.7676 87.0944,285.4582 Q87.0662,285.2426 86.9537,285.1301 Q86.7569,284.9051 86.3912,284.7738 Q86.0256,284.6426 85.6506,284.6426 Q85.1912,284.6426 84.8069,284.8395 Q84.4319,285.0363 84.1319,285.4863 Q83.8412,285.9363 83.8412,286.5551 L83.8412,287.2113 Q83.8412,287.952 84.3756,288.4488 Q84.91,288.9363 85.8662,288.9363 Q86.4287,288.9363 86.8225,288.7863 Q87.0569,288.6926 87.31,288.4301 Q87.4694,288.2707 87.5537,288.2238 Q87.6475,288.177 87.7694,288.177 Q87.9662,288.177 88.1162,288.3363 Q88.2756,288.4863 88.2756,288.6926 Q88.2756,288.8988 88.0694,289.1426 Q87.7694,289.4895 87.2912,289.6863 Q86.6444,289.9582 85.8662,289.9582 Q84.9569,289.9582 84.235,289.5832 Q83.6444,289.2832 83.2319,288.6457 Q82.8194,287.9988 82.8194,287.2301 L82.8194,286.5363 Q82.8194,285.7395 83.185,285.0551 Q83.56,284.3613 84.2162,283.9957 Q84.8725,283.6207 85.6131,283.6207 Q86.0537,283.6207 86.4381,283.7238 Q86.8319,283.8176 87.16,284.0332 Z " fill="#000000"/><text fill="#000000" font-family="sans-serif" font-size="8.4" lengthAdjust="spacing" textLength="57.4383" x="95.5008" y="289.9863">HouseholdRole</text><line style="stroke:#181818;stroke-width:0.3;" x1="69.9" x2="161.3396" y1="296.1082" y2="296.1082"/><ellipse cx="75.9" cy="304.9945" fill="none" rx="1.8" ry="1.8" style="stroke:#038048;stroke-width:0.6;"/><text fill="#000000" font-family="sans-serif" font-size="8.4" lengthAdjust="spacing" textLength="62.1059" x="81.3" y="307.5727">id: int {readOnly}</text><ellipse cx="75.9" cy="316.1672" fill="none" rx="1.8" ry="1.8" style="stroke:#038048;stroke-width:0.6;"/><text fill="#000000" font-family="sans-serif" font-size="8.4" lengthAdjust="spacing" textLength="77.0396" x="81.3" y="318.7453">name: str {readOnly}</text><line style="stroke:#181818;stroke-width:0.3;" x1="69.9" x2="161.3396" y1="323.2535" y2="323.2535"/></g><!--class Household_User--><g id="elem_Household_User"><rect codeLine="34" fill="#F1F1F1" height="95.8359" id="Household_User" rx="1.5" ry="1.5" style="stroke:#181818;stroke-width:0.3;" width="142.1578" x="44.4" y="159.6082"/><ellipse cx="81.6442" cy="169.2082" fill="#ADD1B2" rx="6.6" ry="6.6" style="stroke:#181818;stroke-width:0.6;"/><path d="M83.3036,166.7332 Q83.3974,166.602 83.5099,166.5363 Q83.6224,166.4707 83.7536,166.4707 Q83.9786,166.4707 84.1192,166.6301 Q84.2599,166.7801 84.2599,167.1457 L84.2599,168.0176 Q84.2599,168.3832 84.1192,168.5426 Q83.9786,168.702 83.7536,168.702 Q83.5474,168.702 83.4255,168.5801 Q83.3036,168.4676 83.238,168.1582 Q83.2099,167.9426 83.0974,167.8301 Q82.9005,167.6051 82.5349,167.4738 Q82.1692,167.3426 81.7942,167.3426 Q81.3349,167.3426 80.9505,167.5395 Q80.5755,167.7363 80.2755,168.1863 Q79.9849,168.6363 79.9849,169.2551 L79.9849,169.9113 Q79.9849,170.652 80.5192,171.1488 Q81.0536,171.6363 82.0099,171.6363 Q82.5724,171.6363 82.9661,171.4863 Q83.2005,171.3926 83.4536,171.1301 Q83.613,170.9707 83.6974,170.9238 Q83.7911,170.877 83.913,170.877 Q84.1099,170.877 84.2599,171.0363 Q84.4192,171.1863 84.4192,171.3926 Q84.4192,171.5988 84.213,171.8426 Q83.913,172.1895 83.4349,172.3863 Q82.788,172.6582 82.0099,172.6582 Q81.1005,172.6582 80.3786,172.2832 Q79.788,171.9832 79.3755,171.3457 Q78.963,170.6988 78.963,169.9301 L78.963,169.2363 Q78.963,168.4395 79.3286,167.7551 Q79.7036,167.0613 80.3599,166.6957 Q81.0161,166.3207 81.7567,166.3207 Q82.1974,166.3207 82.5817,166.4238 Q82.9755,166.5176 83.3036,166.7332 Z " fill="#000000"/><text fill="#000000" font-family="sans-serif" font-size="8.4" lengthAdjust="spacing" textLength="62.5693" x="93.9442" y="172.6863">Household_User</text><line style="stroke:#181818;stroke-width:0.3;" x1="45" x2="185.9578" y1="178.8082" y2="178.8082"/><ellipse cx="51" cy="187.6945" fill="none" rx="1.8" ry="1.8" style="stroke:#038048;stroke-width:0.6;"/><text fill="#000000" font-family="sans-serif" font-size="8.4" lengthAdjust="spacing" textLength="126.5578" x="56.4" y="190.2727">household_user_id: int {readOnly}</text><ellipse cx="51" cy="198.8672" fill="none" rx="1.8" ry="1.8" style="stroke:#038048;stroke-width:0.6;"/><text fill="#000000" font-family="sans-serif" font-size="8.4" lengthAdjust="spacing" textLength="38.7434" x="56.4" y="201.4453">user: User</text><ellipse cx="51" cy="210.0398" fill="none" rx="1.8" ry="1.8" style="stroke:#038048;stroke-width:0.6;"/><text fill="#000000" font-family="sans-serif" font-size="8.4" lengthAdjust="spacing" textLength="83.598" x="56.4" y="212.618">household: Household</text><ellipse cx="51" cy="221.2125" fill="none" rx="1.8" ry="1.8" style="stroke:#038048;stroke-width:0.6;"/><text fill="#000000" font-family="sans-serif" font-size="8.4" lengthAdjust="spacing" textLength="119.5523" x="56.4" y="223.7906">household_role: HouseholdRole</text><ellipse cx="51" cy="232.3852" fill="none" rx="1.8" ry="1.8" style="stroke:#038048;stroke-width:0.6;"/><text fill="#000000" font-family="sans-serif" font-size="8.4" lengthAdjust="spacing" textLength="65.3789" x="56.4" y="234.9633">is_accepted: bool</text><ellipse cx="51" cy="243.5578" fill="none" rx="1.8" ry="1.8" style="stroke:#038048;stroke-width:0.6;"/><text fill="#000000" font-family="sans-serif" font-size="8.4" lengthAdjust="spacing" textLength="58.8451" x="56.4" y="246.1359">is_deleted: bool</text><line style="stroke:#181818;stroke-width:0.3;" x1="45" x2="185.9578" y1="250.6441" y2="250.6441"/></g><!--class AreaOfResponsibility--><g id="elem_AreaOfResponsibility"><rect codeLine="46" fill="#F1F1F1" height="107.0086" id="AreaOfResponsibility" rx="1.5" ry="1.5" style="stroke:#181818;stroke-width:0.3;" width="171.1066" x="30" y="31.8082"/><ellipse cx="73.7862" cy="41.4082" fill="#ADD1B2" rx="6.6" ry="6.6" style="stroke:#181818;stroke-width:0.6;"/><path d="M75.4456,38.9332 Q75.5394,38.802 75.6519,38.7363 Q75.7644,38.6707 75.8956,38.6707 Q76.1206,38.6707 76.2612,38.8301 Q76.4019,38.9801 76.4019,39.3457 L76.4019,40.2176 Q76.4019,40.5832 76.2612,40.7426 Q76.1206,40.902 75.8956,40.902 Q75.6894,40.902 75.5675,40.7801 Q75.4456,40.6676 75.38,40.3582 Q75.3519,40.1426 75.2394,40.0301 Q75.0425,39.8051 74.6769,39.6738 Q74.3112,39.5426 73.9362,39.5426 Q73.4769,39.5426 73.0925,39.7395 Q72.7175,39.9363 72.4175,40.3863 Q72.1269,40.8363 72.1269,41.4551 L72.1269,42.1113 Q72.1269,42.852 72.6612,43.3488 Q73.1956,43.8363 74.1519,43.8363 Q74.7144,43.8363 75.1081,43.6863 Q75.3425,43.5926 75.5956,43.3301 Q75.755,43.1707 75.8394,43.1238 Q75.9331,43.077 76.055,43.077 Q76.2519,43.077 76.4019,43.2363 Q76.5612,43.3863 76.5612,43.5926 Q76.5612,43.7988 76.355,44.0426 Q76.055,44.3895 75.5769,44.5863 Q74.93,44.8582 74.1519,44.8582 Q73.2425,44.8582 72.5206,44.4832 Q71.93,44.1832 71.5175,43.5457 Q71.105,42.8988 71.105,42.1301 L71.105,41.4363 Q71.105,40.6395 71.4706,39.9551 Q71.8456,39.2613 72.5019,38.8957 Q73.1581,38.5207 73.8987,38.5207 Q74.3394,38.5207 74.7237,38.6238 Q75.1175,38.7176 75.4456,38.9332 Z " fill="#000000"/><text fill="#000000" font-family="sans-serif" font-size="8.4" lengthAdjust="spacing" textLength="78.4342" x="86.0862" y="44.8863">AreaOfResponsibility</text><line style="stroke:#181818;stroke-width:0.3;" x1="30.6" x2="200.5066" y1="51.0082" y2="51.0082"/><ellipse cx="36.6" cy="59.8945" fill="none" rx="1.8" ry="1.8" style="stroke:#038048;stroke-width:0.6;"/><text fill="#000000" font-family="sans-serif" font-size="8.4" lengthAdjust="spacing" textLength="62.1059" x="42" y="62.4727">id: int {readOnly}</text><ellipse cx="36.6" cy="71.0672" fill="none" rx="1.8" ry="1.8" style="stroke:#038048;stroke-width:0.6;"/><text fill="#000000" font-family="sans-serif" font-size="8.4" lengthAdjust="spacing" textLength="125.6268" x="42" y="73.6453">household: Household {readOnly}</text><ellipse cx="36.6" cy="82.2398" fill="none" rx="1.8" ry="1.8" style="stroke:#038048;stroke-width:0.6;"/><text fill="#000000" font-family="sans-serif" font-size="8.4" lengthAdjust="spacing" textLength="67.7045" x="42" y="84.818">assigned_to: User</text><ellipse cx="36.6" cy="93.4125" fill="none" rx="1.8" ry="1.8" style="stroke:#038048;stroke-width:0.6;"/><text fill="#000000" font-family="sans-serif" font-size="8.4" lengthAdjust="spacing" textLength="27.0703" x="42" y="95.9906">title: str</text><ellipse cx="36.6" cy="104.5852" fill="none" rx="1.8" ry="1.8" style="stroke:#038048;stroke-width:0.6;"/><text fill="#000000" font-family="sans-serif" font-size="8.4" lengthAdjust="spacing" textLength="54.6205" x="42" y="107.1633">description: str</text><ellipse cx="36.6" cy="115.7578" fill="none" rx="1.8" ry="1.8" style="stroke:#038048;stroke-width:0.6;"/><text fill="#000000" font-family="sans-serif" font-size="8.4" lengthAdjust="spacing" textLength="153.1605" x="42" y="118.3359">created_at: datetime.datetime {readOnly}</text><ellipse cx="36.6" cy="126.9305" fill="none" rx="1.8" ry="1.8" style="stroke:#038048;stroke-width:0.6;"/><text fill="#000000" font-family="sans-serif" font-size="8.4" lengthAdjust="spacing" textLength="155.5066" x="42" y="129.5086">updated_at: datetime.datetime {readOnly}</text><line style="stroke:#181818;stroke-width:0.3;" x1="30.6" x2="200.5066" y1="134.0168" y2="134.0168"/></g><!--class Project--><g id="elem_Project"><rect codeLine="59" fill="#F1F1F1" height="151.6992" id="Project" rx="1.5" ry="1.5" style="stroke:#181818;stroke-width:0.3;" width="180.4172" x="253.8" y="460.5082"/><ellipse cx="328.3869" cy="470.1082" fill="#ADD1B2" rx="6.6" ry="6.6" style="stroke:#181818;stroke-width:0.6;"/><path d="M330.0463,467.6332 Q330.14,467.502 330.2525,467.4363 Q330.365,467.3707 330.4963,467.3707 Q330.7213,467.3707 330.8619,467.5301 Q331.0025,467.6801 331.0025,468.0457 L331.0025,468.9176 Q331.0025,469.2832 330.8619,469.4426 Q330.7213,469.602 330.4963,469.602 Q330.29,469.602 330.1682,469.4801 Q330.0463,469.3676 329.9807,469.0582 Q329.9525,468.8426 329.84,468.7301 Q329.6432,468.5051 329.2775,468.3738 Q328.9119,468.2426 328.5369,468.2426 Q328.0775,468.2426 327.6932,468.4395 Q327.3182,468.6363 327.0182,469.0863 Q326.7275,469.5363 326.7275,470.1551 L326.7275,470.8113 Q326.7275,471.552 327.2619,472.0488 Q327.7963,472.5363 328.7525,472.5363 Q329.315,472.5363 329.7088,472.3863 Q329.9432,472.2926 330.1963,472.0301 Q330.3557,471.8707 330.44,471.8238 Q330.5338,471.777 330.6557,471.777 Q330.8525,471.777 331.0025,471.9363 Q331.1619,472.0863 331.1619,472.2926 Q331.1619,472.4988 330.9557,472.7426 Q330.6557,473.0895 330.1775,473.2863 Q329.5307,473.5582 328.7525,473.5582 Q327.8432,473.5582 327.1213,473.1832 Q326.5307,472.8832 326.1182,472.2457 Q325.7057,471.5988 325.7057,470.8301 L325.7057,470.1363 Q325.7057,469.3395 326.0713,468.6551 Q326.4463,467.9613 327.1025,467.5957 Q327.7588,467.2207 328.4994,467.2207 Q328.94,467.2207 329.3244,467.3238 Q329.7182,467.4176 330.0463,467.6332 Z " fill="#000000"/><text fill="#000000" font-family="sans-serif" font-size="8.4" lengthAdjust="spacing" textLength="26.1434" x="340.6869" y="473.5863">Project</text><line style="stroke:#181818;stroke-width:0.3;" x1="254.4" x2="433.6172" y1="479.7082" y2="479.7082"/><ellipse cx="260.4" cy="488.5945" fill="none" rx="1.8" ry="1.8" style="stroke:#038048;stroke-width:0.6;"/><text fill="#000000" font-family="sans-serif" font-size="8.4" lengthAdjust="spacing" textLength="62.1059" x="265.8" y="491.1727">id: int {readOnly}</text><ellipse cx="260.4" cy="499.7672" fill="none" rx="1.8" ry="1.8" style="stroke:#038048;stroke-width:0.6;"/><text fill="#000000" font-family="sans-serif" font-size="8.4" lengthAdjust="spacing" textLength="125.6268" x="265.8" y="502.3453">household: Household {readOnly}</text><ellipse cx="260.4" cy="510.9398" fill="none" rx="1.8" ry="1.8" style="stroke:#038048;stroke-width:0.6;"/><text fill="#000000" font-family="sans-serif" font-size="8.4" lengthAdjust="spacing" textLength="105.9926" x="265.8" y="513.518">created_by: User {readOnly}</text><ellipse cx="260.4" cy="522.1125" fill="none" rx="1.8" ry="1.8" style="stroke:#038048;stroke-width:0.6;"/><text fill="#000000" font-family="sans-serif" font-size="8.4" lengthAdjust="spacing" textLength="164.8172" x="265.8" y="524.6906">area_of_responsibility: AreaOfResponsibility</text><ellipse cx="260.4" cy="533.2852" fill="none" rx="1.8" ry="1.8" style="stroke:#038048;stroke-width:0.6;"/><text fill="#000000" font-family="sans-serif" font-size="8.4" lengthAdjust="spacing" textLength="27.0703" x="265.8" y="535.8633">title: str</text><ellipse cx="260.4" cy="544.4578" fill="none" rx="1.8" ry="1.8" style="stroke:#038048;stroke-width:0.6;"/><text fill="#000000" font-family="sans-serif" font-size="8.4" lengthAdjust="spacing" textLength="54.6205" x="265.8" y="547.0359">description: str</text><ellipse cx="260.4" cy="555.6305" fill="none" rx="1.8" ry="1.8" style="stroke:#038048;stroke-width:0.6;"/><text fill="#000000" font-family="sans-serif" font-size="8.4" lengthAdjust="spacing" textLength="87.3305" x="265.8" y="558.2086">deadline: datetime.date</text><ellipse cx="260.4" cy="566.8031" fill="none" rx="1.8" ry="1.8" style="stroke:#038048;stroke-width:0.6;"/><text fill="#000000" font-family="sans-serif" font-size="8.4" lengthAdjust="spacing" textLength="49.9734" x="265.8" y="569.3813">is_done: bool</text><ellipse cx="260.4" cy="577.9758" fill="none" rx="1.8" ry="1.8" style="stroke:#038048;stroke-width:0.6;"/><text fill="#000000" font-family="sans-serif" font-size="8.4" lengthAdjust="spacing" textLength="153.1605" x="265.8" y="580.5539">created_at: datetime.datetime {readOnly}</text><ellipse cx="260.4" cy="589.1484" fill="none" rx="1.8" ry="1.8" style="stroke:#038048;stroke-width:0.6;"/><text fill="#000000" font-family="sans-serif" font-size="8.4" lengthAdjust="spacing" textLength="155.5066" x="265.8" y="591.7266">updated_at: datetime.datetime {readOnly}</text><ellipse cx="260.4" cy="600.3211" fill="none" rx="1.8" ry="1.8" style="stroke:#038048;stroke-width:0.6;"/><text fill="#000000" font-family="sans-serif" font-size="8.4" lengthAdjust="spacing" textLength="143.8295" x="265.8" y="602.8992">done_at: datetime.datetime {readOnly}</text><line style="stroke:#181818;stroke-width:0.3;" x1="254.4" x2="433.6172" y1="607.4074" y2="607.4074"/></g><!--class ProjectGoal--><g id="elem_ProjectGoal"><rect codeLine="73" fill="#F1F1F1" height="73.4906" id="ProjectGoal" rx="1.5" ry="1.5" style="stroke:#181818;stroke-width:0.3;" width="77.7059" x="305.1" y="366.0082"/><ellipse cx="320.6786" cy="375.6082" fill="#ADD1B2" rx="6.6" ry="6.6" style="stroke:#181818;stroke-width:0.6;"/><path d="M322.338,373.1332 Q322.4317,373.002 322.5442,372.9363 Q322.6567,372.8707 322.788,372.8707 Q323.013,372.8707 323.1536,373.0301 Q323.2942,373.1801 323.2942,373.5457 L323.2942,374.4176 Q323.2942,374.7832 323.1536,374.9426 Q323.013,375.102 322.788,375.102 Q322.5817,375.102 322.4599,374.9801 Q322.338,374.8676 322.2724,374.5582 Q322.2442,374.3426 322.1317,374.2301 Q321.9349,374.0051 321.5692,373.8738 Q321.2036,373.7426 320.8286,373.7426 Q320.3692,373.7426 319.9849,373.9395 Q319.6099,374.1363 319.3099,374.5863 Q319.0192,375.0363 319.0192,375.6551 L319.0192,376.3113 Q319.0192,377.052 319.5536,377.5488 Q320.088,378.0363 321.0442,378.0363 Q321.6067,378.0363 322.0005,377.8863 Q322.2349,377.7926 322.488,377.5301 Q322.6474,377.3707 322.7317,377.3238 Q322.8255,377.277 322.9474,377.277 Q323.1442,377.277 323.2942,377.4363 Q323.4536,377.5863 323.4536,377.7926 Q323.4536,377.9988 323.2474,378.2426 Q322.9474,378.5895 322.4692,378.7863 Q321.8224,379.0582 321.0442,379.0582 Q320.1349,379.0582 319.413,378.6832 Q318.8224,378.3832 318.4099,377.7457 Q317.9974,377.0988 317.9974,376.3301 L317.9974,375.6363 Q317.9974,374.8395 318.363,374.1551 Q318.738,373.4613 319.3942,373.0957 Q320.0505,372.7207 320.7911,372.7207 Q321.2317,372.7207 321.6161,372.8238 Q322.0099,372.9176 322.338,373.1332 Z " fill="#000000"/><text fill="#000000" font-family="sans-serif" font-size="8.4" lengthAdjust="spacing" textLength="43.8867" x="330.5405" y="379.0863">ProjectGoal</text><line style="stroke:#181818;stroke-width:0.3;" x1="305.7" x2="382.2059" y1="385.2082" y2="385.2082"/><ellipse cx="311.7" cy="394.0945" fill="none" rx="1.8" ry="1.8" style="stroke:#038048;stroke-width:0.6;"/><text fill="#000000" font-family="sans-serif" font-size="8.4" lengthAdjust="spacing" textLength="62.1059" x="317.1" y="396.6727">id: int {readOnly}</text><ellipse cx="311.7" cy="405.2672" fill="none" rx="1.8" ry="1.8" style="stroke:#038048;stroke-width:0.6;"/><text fill="#000000" font-family="sans-serif" font-size="8.4" lengthAdjust="spacing" textLength="56.0232" x="317.1" y="407.8453">project: Project</text><ellipse cx="311.7" cy="416.4398" fill="none" rx="1.8" ry="1.8" style="stroke:#038048;stroke-width:0.6;"/><text fill="#000000" font-family="sans-serif" font-size="8.4" lengthAdjust="spacing" textLength="27.0703" x="317.1" y="419.018">title: str</text><ellipse cx="311.7" cy="427.6125" fill="none" rx="1.8" ry="1.8" style="stroke:#038048;stroke-width:0.6;"/><text fill="#000000" font-family="sans-serif" font-size="8.4" lengthAdjust="spacing" textLength="54.6205" x="317.1" y="430.1906">description: str</text><line style="stroke:#181818;stroke-width:0.3;" x1="305.7" x2="382.2059" y1="434.6988" y2="434.6988"/></g><!--class ProjectRole--><g id="elem_ProjectRole"><rect codeLine="80" fill="#F1F1F1" height="51.1453" id="ProjectRole" rx="1.5" ry="1.5" style="stroke:#181818;stroke-width:0.3;" width="92.6396" x="297.9" y="293.7082"/><ellipse cx="320.4092" cy="303.3082" fill="#ADD1B2" rx="6.6" ry="6.6" style="stroke:#181818;stroke-width:0.6;"/><path d="M322.0686,300.8332 Q322.1624,300.702 322.2749,300.6363 Q322.3874,300.5707 322.5186,300.5707 Q322.7436,300.5707 322.8842,300.7301 Q323.0249,300.8801 323.0249,301.2457 L323.0249,302.1176 Q323.0249,302.4832 322.8842,302.6426 Q322.7436,302.802 322.5186,302.802 Q322.3124,302.802 322.1905,302.6801 Q322.0686,302.5676 322.003,302.2582 Q321.9749,302.0426 321.8624,301.9301 Q321.6655,301.7051 321.2999,301.5738 Q320.9342,301.4426 320.5592,301.4426 Q320.0999,301.4426 319.7155,301.6395 Q319.3405,301.8363 319.0405,302.2863 Q318.7499,302.7363 318.7499,303.3551 L318.7499,304.0113 Q318.7499,304.752 319.2842,305.2488 Q319.8186,305.7363 320.7749,305.7363 Q321.3374,305.7363 321.7311,305.5863 Q321.9655,305.4926 322.2186,305.2301 Q322.378,305.0707 322.4624,305.0238 Q322.5561,304.977 322.678,304.977 Q322.8749,304.977 323.0249,305.1363 Q323.1842,305.2863 323.1842,305.4926 Q323.1842,305.6988 322.978,305.9426 Q322.678,306.2895 322.1999,306.4863 Q321.553,306.7582 320.7749,306.7582 Q319.8655,306.7582 319.1436,306.3832 Q318.553,306.0832 318.1405,305.4457 Q317.728,304.7988 317.728,304.0301 L317.728,303.3363 Q317.728,302.5395 318.0936,301.8551 Q318.4686,301.1613 319.1249,300.7957 Q319.7811,300.4207 320.5217,300.4207 Q320.9624,300.4207 321.3467,300.5238 Q321.7405,300.6176 322.0686,300.8332 Z " fill="#000000"/><text fill="#000000" font-family="sans-serif" font-size="8.4" lengthAdjust="spacing" textLength="43.4191" x="331.8113" y="306.7863">ProjectRole</text><line style="stroke:#181818;stroke-width:0.3;" x1="298.5" x2="389.9396" y1="312.9082" y2="312.9082"/><ellipse cx="304.5" cy="321.7945" fill="none" rx="1.8" ry="1.8" style="stroke:#038048;stroke-width:0.6;"/><text fill="#000000" font-family="sans-serif" font-size="8.4" lengthAdjust="spacing" textLength="62.1059" x="309.9" y="324.3727">id: int {readOnly}</text><ellipse cx="304.5" cy="332.9672" fill="none" rx="1.8" ry="1.8" style="stroke:#038048;stroke-width:0.6;"/><text fill="#000000" font-family="sans-serif" font-size="8.4" lengthAdjust="spacing" textLength="77.0396" x="309.9" y="335.5453">name: str {readOnly}</text><line style="stroke:#181818;stroke-width:0.3;" x1="298.5" x2="389.9396" y1="340.0535" y2="340.0535"/></g><!--class User_Project--><g id="elem_User_Project"><rect codeLine="85" fill="#F1F1F1" height="73.4906" id="User_Project" rx="1.5" ry="1.5" style="stroke:#181818;stroke-width:0.3;" width="77.7059" x="305.1" y="199.2082"/><ellipse cx="318.58" cy="208.8082" fill="#ADD1B2" rx="6.6" ry="6.6" style="stroke:#181818;stroke-width:0.6;"/><path d="M320.2394,206.3332 Q320.3332,206.202 320.4457,206.1363 Q320.5582,206.0707 320.6894,206.0707 Q320.9144,206.0707 321.055,206.2301 Q321.1957,206.3801 321.1957,206.7457 L321.1957,207.6176 Q321.1957,207.9832 321.055,208.1426 Q320.9144,208.302 320.6894,208.302 Q320.4832,208.302 320.3613,208.1801 Q320.2394,208.0676 320.1738,207.7582 Q320.1457,207.5426 320.0332,207.4301 Q319.8363,207.2051 319.4707,207.0738 Q319.105,206.9426 318.73,206.9426 Q318.2707,206.9426 317.8863,207.1395 Q317.5113,207.3363 317.2113,207.7863 Q316.9207,208.2363 316.9207,208.8551 L316.9207,209.5113 Q316.9207,210.252 317.455,210.7488 Q317.9894,211.2363 318.9457,211.2363 Q319.5082,211.2363 319.9019,211.0863 Q320.1363,210.9926 320.3894,210.7301 Q320.5488,210.5707 320.6332,210.5238 Q320.7269,210.477 320.8488,210.477 Q321.0457,210.477 321.1957,210.6363 Q321.355,210.7863 321.355,210.9926 Q321.355,211.1988 321.1488,211.4426 Q320.8488,211.7895 320.3707,211.9863 Q319.7238,212.2582 318.9457,212.2582 Q318.0363,212.2582 317.3144,211.8832 Q316.7238,211.5832 316.3113,210.9457 Q315.8988,210.2988 315.8988,209.5301 L315.8988,208.8363 Q315.8988,208.0395 316.2644,207.3551 Q316.6394,206.6613 317.2957,206.2957 Q317.9519,205.9207 318.6925,205.9207 Q319.1332,205.9207 319.5175,206.0238 Q319.9113,206.1176 320.2394,206.3332 Z " fill="#000000"/><text fill="#000000" font-family="sans-serif" font-size="8.4" lengthAdjust="spacing" textLength="48.5502" x="327.9756" y="212.2863">User_Project</text><line style="stroke:#181818;stroke-width:0.3;" x1="305.7" x2="382.2059" y1="218.4082" y2="218.4082"/><ellipse cx="311.7" cy="227.2945" fill="none" rx="1.8" ry="1.8" style="stroke:#038048;stroke-width:0.6;"/><text fill="#000000" font-family="sans-serif" font-size="8.4" lengthAdjust="spacing" textLength="62.1059" x="317.1" y="229.8727">id: int {readOnly}</text><ellipse cx="311.7" cy="238.4672" fill="none" rx="1.8" ry="1.8" style="stroke:#038048;stroke-width:0.6;"/><text fill="#000000" font-family="sans-serif" font-size="8.4" lengthAdjust="spacing" textLength="38.7434" x="317.1" y="241.0453">user: User</text><ellipse cx="311.7" cy="249.6398" fill="none" rx="1.8" ry="1.8" style="stroke:#038048;stroke-width:0.6;"/><text fill="#000000" font-family="sans-serif" font-size="8.4" lengthAdjust="spacing" textLength="56.0232" x="317.1" y="252.218">project: Project</text><ellipse cx="311.7" cy="260.8125" fill="none" rx="1.8" ry="1.8" style="stroke:#038048;stroke-width:0.6;"/><text fill="#000000" font-family="sans-serif" font-size="8.4" lengthAdjust="spacing" textLength="62.0936" x="317.1" y="263.3906">role: ProjectRole</text><line style="stroke:#181818;stroke-width:0.3;" x1="305.7" x2="382.2059" y1="267.8988" y2="267.8988"/></g><!--class CustomList--><g id="elem_CustomList"><rect codeLine="95" fill="#F1F1F1" height="151.6992" id="CustomList" rx="1.5" ry="1.5" style="stroke:#181818;stroke-width:0.3;" width="180.4172" x="253.8" y="26.1082"/><ellipse cx="320.4524" cy="35.7082" fill="#ADD1B2" rx="6.6" ry="6.6" style="stroke:#181818;stroke-width:0.6;"/><path d="M322.1118,33.2332 Q322.2056,33.102 322.3181,33.0363 Q322.4306,32.9707 322.5618,32.9707 Q322.7868,32.9707 322.9274,33.1301 Q323.0681,33.2801 323.0681,33.6457 L323.0681,34.5176 Q323.0681,34.8832 322.9274,35.0426 Q322.7868,35.202 322.5618,35.202 Q322.3556,35.202 322.2337,35.0801 Q322.1118,34.9676 322.0462,34.6582 Q322.0181,34.4426 321.9056,34.3301 Q321.7087,34.1051 321.3431,33.9738 Q320.9774,33.8426 320.6024,33.8426 Q320.1431,33.8426 319.7587,34.0395 Q319.3837,34.2363 319.0837,34.6863 Q318.7931,35.1363 318.7931,35.7551 L318.7931,36.4113 Q318.7931,37.152 319.3274,37.6488 Q319.8618,38.1363 320.8181,38.1363 Q321.3806,38.1363 321.7743,37.9863 Q322.0087,37.8926 322.2618,37.6301 Q322.4212,37.4707 322.5056,37.4238 Q322.5993,37.377 322.7212,37.377 Q322.9181,37.377 323.0681,37.5363 Q323.2274,37.6863 323.2274,37.8926 Q323.2274,38.0988 323.0212,38.3426 Q322.7212,38.6895 322.2431,38.8863 Q321.5962,39.1582 320.8181,39.1582 Q319.9087,39.1582 319.1868,38.7832 Q318.5962,38.4832 318.1837,37.8457 Q317.7712,37.1988 317.7712,36.4301 L317.7712,35.7363 Q317.7712,34.9395 318.1368,34.2551 Q318.5118,33.5613 319.1681,33.1957 Q319.8243,32.8207 320.5649,32.8207 Q321.0056,32.8207 321.3899,32.9238 Q321.7837,33.0176 322.1118,33.2332 Z " fill="#000000"/><text fill="#000000" font-family="sans-serif" font-size="8.4" lengthAdjust="spacing" textLength="42.0123" x="332.7524" y="39.1863">CustomList</text><line style="stroke:#181818;stroke-width:0.3;" x1="254.4" x2="433.6172" y1="45.3082" y2="45.3082"/><ellipse cx="260.4" cy="54.1945" fill="none" rx="1.8" ry="1.8" style="stroke:#038048;stroke-width:0.6;"/><text fill="#000000" font-family="sans-serif" font-size="8.4" lengthAdjust="spacing" textLength="62.1059" x="265.8" y="56.7727">id: int {readOnly}</text><ellipse cx="260.4" cy="65.3672" fill="none" rx="1.8" ry="1.8" style="stroke:#038048;stroke-width:0.6;"/><text fill="#000000" font-family="sans-serif" font-size="8.4" lengthAdjust="spacing" textLength="125.6268" x="265.8" y="67.9453">household: Household {readOnly}</text><ellipse cx="260.4" cy="76.5398" fill="none" rx="1.8" ry="1.8" style="stroke:#038048;stroke-width:0.6;"/><text fill="#000000" font-family="sans-serif" font-size="8.4" lengthAdjust="spacing" textLength="105.9926" x="265.8" y="79.118">created_by: User {readOnly}</text><ellipse cx="260.4" cy="87.7125" fill="none" rx="1.8" ry="1.8" style="stroke:#038048;stroke-width:0.6;"/><text fill="#000000" font-family="sans-serif" font-size="8.4" lengthAdjust="spacing" textLength="164.8172" x="265.8" y="90.2906">area_of_responsibility: AreaOfResponsibility</text><ellipse cx="260.4" cy="98.8852" fill="none" rx="1.8" ry="1.8" style="stroke:#038048;stroke-width:0.6;"/><text fill="#000000" font-family="sans-serif" font-size="8.4" lengthAdjust="spacing" textLength="56.0232" x="265.8" y="101.4633">project: Project</text><ellipse cx="260.4" cy="110.0578" fill="none" rx="1.8" ry="1.8" style="stroke:#038048;stroke-width:0.6;"/><text fill="#000000" font-family="sans-serif" font-size="8.4" lengthAdjust="spacing" textLength="27.0703" x="265.8" y="112.6359">title: str</text><ellipse cx="260.4" cy="121.2305" fill="none" rx="1.8" ry="1.8" style="stroke:#038048;stroke-width:0.6;"/><text fill="#000000" font-family="sans-serif" font-size="8.4" lengthAdjust="spacing" textLength="54.6205" x="265.8" y="123.8086">description: str</text><ellipse cx="260.4" cy="132.4031" fill="none" rx="1.8" ry="1.8" style="stroke:#038048;stroke-width:0.6;"/><text fill="#000000" font-family="sans-serif" font-size="8.4" lengthAdjust="spacing" textLength="63.4963" x="265.8" y="134.9813">is_checklist: bool</text><ellipse cx="260.4" cy="143.5758" fill="none" rx="1.8" ry="1.8" style="stroke:#038048;stroke-width:0.6;"/><text fill="#000000" font-family="sans-serif" font-size="8.4" lengthAdjust="spacing" textLength="53.2301" x="265.8" y="146.1539">is_active: bool</text><ellipse cx="260.4" cy="154.7484" fill="none" rx="1.8" ry="1.8" style="stroke:#038048;stroke-width:0.6;"/><text fill="#000000" font-family="sans-serif" font-size="8.4" lengthAdjust="spacing" textLength="153.1605" x="265.8" y="157.3266">created_at: datetime.datetime {readOnly}</text><ellipse cx="260.4" cy="165.9211" fill="none" rx="1.8" ry="1.8" style="stroke:#038048;stroke-width:0.6;"/><text fill="#000000" font-family="sans-serif" font-size="8.4" lengthAdjust="spacing" textLength="155.5066" x="265.8" y="168.4992">updated_at: datetime.datetime {readOnly}</text><line style="stroke:#181818;stroke-width:0.3;" x1="254.4" x2="433.6172" y1="173.0074" y2="173.0074"/></g><!--class CustomListItem--><g id="elem_CustomListItem"><rect codeLine="109" fill="#F1F1F1" height="62.318" id="CustomListItem" rx="1.5" ry="1.5" style="stroke:#181818;stroke-width:0.3;" width="141.2268" x="490.2" y="505.2082"/><ellipse cx="529.089" cy="514.8082" fill="#ADD1B2" rx="6.6" ry="6.6" style="stroke:#181818;stroke-width:0.6;"/><path d="M530.7483,512.3332 Q530.8421,512.202 530.9546,512.1363 Q531.0671,512.0707 531.1983,512.0707 Q531.4233,512.0707 531.564,512.2301 Q531.7046,512.3801 531.7046,512.7457 L531.7046,513.6176 Q531.7046,513.9832 531.564,514.1426 Q531.4233,514.302 531.1983,514.302 Q530.9921,514.302 530.8702,514.1801 Q530.7483,514.0676 530.6827,513.7582 Q530.6546,513.5426 530.5421,513.4301 Q530.3452,513.2051 529.9796,513.0738 Q529.614,512.9426 529.239,512.9426 Q528.7796,512.9426 528.3952,513.1395 Q528.0202,513.3363 527.7202,513.7863 Q527.4296,514.2363 527.4296,514.8551 L527.4296,515.5113 Q527.4296,516.252 527.964,516.7488 Q528.4983,517.2363 529.4546,517.2363 Q530.0171,517.2363 530.4108,517.0863 Q530.6452,516.9926 530.8983,516.7301 Q531.0577,516.5707 531.1421,516.5238 Q531.2358,516.477 531.3577,516.477 Q531.5546,516.477 531.7046,516.6363 Q531.864,516.7863 531.864,516.9926 Q531.864,517.1988 531.6577,517.4426 Q531.3577,517.7895 530.8796,517.9863 Q530.2327,518.2582 529.4546,518.2582 Q528.5452,518.2582 527.8233,517.8832 Q527.2327,517.5832 526.8202,516.9457 Q526.4077,516.2988 526.4077,515.5301 L526.4077,514.8363 Q526.4077,514.0395 526.7733,513.3551 Q527.1483,512.6613 527.8046,512.2957 Q528.4608,511.9207 529.2015,511.9207 Q529.6421,511.9207 530.0265,512.0238 Q530.4202,512.1176 530.7483,512.3332 Z " fill="#000000"/><text fill="#000000" font-family="sans-serif" font-size="8.4" lengthAdjust="spacing" textLength="58.3488" x="541.389" y="518.2863">CustomListItem</text><line style="stroke:#181818;stroke-width:0.3;" x1="490.8" x2="630.8268" y1="524.4082" y2="524.4082"/><ellipse cx="496.8" cy="533.2945" fill="none" rx="1.8" ry="1.8" style="stroke:#038048;stroke-width:0.6;"/><text fill="#000000" font-family="sans-serif" font-size="8.4" lengthAdjust="spacing" textLength="62.1059" x="502.2" y="535.8727">id: int {readOnly}</text><ellipse cx="496.8" cy="544.4672" fill="none" rx="1.8" ry="1.8" style="stroke:#038048;stroke-width:0.6;"/><text fill="#000000" font-family="sans-serif" font-size="8.4" lengthAdjust="spacing" textLength="125.6268" x="502.2" y="547.0453">household: Household {readOnly}</text><ellipse cx="496.8" cy="555.6398" fill="none" rx="1.8" ry="1.8" style="stroke:#038048;stroke-width:0.6;"/><text fill="#000000" font-family="sans-serif" font-size="8.4" lengthAdjust="spacing" textLength="35.0109" x="502.2" y="558.218">name: str</text><line style="stroke:#181818;stroke-width:0.3;" x1="490.8" x2="630.8268" y1="562.7262" y2="562.7262"/></g><!--class CustomList_CustomListItem--><g id="elem_CustomList_CustomListItem"><rect codeLine="115" fill="#F1F1F1" height="118.1812" id="CustomList_CustomListItem" rx="1.5" ry="1.5" style="stroke:#181818;stroke-width:0.3;" width="149.1182" x="486" y="365.7082"/><ellipse cx="506.1984" cy="375.3082" fill="#ADD1B2" rx="6.6" ry="6.6" style="stroke:#181818;stroke-width:0.6;"/><path d="M507.8578,372.8332 Q507.9515,372.702 508.064,372.6363 Q508.1765,372.5707 508.3078,372.5707 Q508.5328,372.5707 508.6734,372.7301 Q508.814,372.8801 508.814,373.2457 L508.814,374.1176 Q508.814,374.4832 508.6734,374.6426 Q508.5328,374.802 508.3078,374.802 Q508.1015,374.802 507.9797,374.6801 Q507.8578,374.5676 507.7922,374.2582 Q507.764,374.0426 507.6515,373.9301 Q507.4547,373.7051 507.089,373.5738 Q506.7234,373.4426 506.3484,373.4426 Q505.889,373.4426 505.5047,373.6395 Q505.1297,373.8363 504.8297,374.2863 Q504.539,374.7363 504.539,375.3551 L504.539,376.0113 Q504.539,376.752 505.0734,377.2488 Q505.6078,377.7363 506.564,377.7363 Q507.1265,377.7363 507.5203,377.5863 Q507.7547,377.4926 508.0078,377.2301 Q508.1672,377.0707 508.2515,377.0238 Q508.3453,376.977 508.4672,376.977 Q508.664,376.977 508.814,377.1363 Q508.9734,377.2863 508.9734,377.4926 Q508.9734,377.6988 508.7672,377.9426 Q508.4672,378.2895 507.989,378.4863 Q507.3422,378.7582 506.564,378.7582 Q505.6547,378.7582 504.9328,378.3832 Q504.3422,378.0832 503.9297,377.4457 Q503.5172,376.7988 503.5172,376.0301 L503.5172,375.3363 Q503.5172,374.5395 503.8828,373.8551 Q504.2578,373.1613 504.914,372.7957 Q505.5703,372.4207 506.3109,372.4207 Q506.7515,372.4207 507.1359,372.5238 Q507.5297,372.6176 507.8578,372.8332 Z " fill="#000000"/><text fill="#000000" font-family="sans-serif" font-size="8.4" lengthAdjust="spacing" textLength="105.0328" x="517.0869" y="378.7863">CustomList_CustomListItem</text><line style="stroke:#181818;stroke-width:0.3;" x1="486.6" x2="634.5182" y1="384.9082" y2="384.9082"/><ellipse cx="492.6" cy="393.7945" fill="none" rx="1.8" ry="1.8" style="stroke:#038048;stroke-width:0.6;"/><text fill="#000000" font-family="sans-serif" font-size="8.4" lengthAdjust="spacing" textLength="62.1059" x="498" y="396.3727">id: int {readOnly}</text><ellipse cx="492.6" cy="404.9672" fill="none" rx="1.8" ry="1.8" style="stroke:#038048;stroke-width:0.6;"/><text fill="#000000" font-family="sans-serif" font-size="8.4" lengthAdjust="spacing" textLength="56.9461" x="498" y="407.5453">list: CustomList</text><ellipse cx="492.6" cy="416.1398" fill="none" rx="1.8" ry="1.8" style="stroke:#038048;stroke-width:0.6;"/><text fill="#000000" font-family="sans-serif" font-size="8.4" lengthAdjust="spacing" textLength="78.8854" x="498" y="418.718">item: CustomListItem</text><ellipse cx="492.6" cy="427.3125" fill="none" rx="1.8" ry="1.8" style="stroke:#038048;stroke-width:0.6;"/><text fill="#000000" font-family="sans-serif" font-size="8.4" lengthAdjust="spacing" textLength="133.5182" x="498" y="429.8906">parent: CustomList_CustomListItem</text><ellipse cx="492.6" cy="438.4852" fill="none" rx="1.8" ry="1.8" style="stroke:#038048;stroke-width:0.6;"/><text fill="#000000" font-family="sans-serif" font-size="8.4" lengthAdjust="spacing" textLength="49.9652" x="498" y="441.0633">quantity: float</text><ellipse cx="492.6" cy="449.6578" fill="none" rx="1.8" ry="1.8" style="stroke:#038048;stroke-width:0.6;"/><text fill="#000000" font-family="sans-serif" font-size="8.4" lengthAdjust="spacing" textLength="27.542" x="498" y="452.2359">unit: str</text><ellipse cx="492.6" cy="460.8305" fill="none" rx="1.8" ry="1.8" style="stroke:#038048;stroke-width:0.6;"/><text fill="#000000" font-family="sans-serif" font-size="8.4" lengthAdjust="spacing" textLength="30.3475" x="498" y="463.4086">note: str</text><ellipse cx="492.6" cy="472.0031" fill="none" rx="1.8" ry="1.8" style="stroke:#038048;stroke-width:0.6;"/><text fill="#000000" font-family="sans-serif" font-size="8.4" lengthAdjust="spacing" textLength="49.9734" x="498" y="474.5812">is_done: bool</text><line style="stroke:#181818;stroke-width:0.3;" x1="486.6" x2="634.5182" y1="479.0895" y2="479.0895"/></g><!--class Task--><g id="elem_Task"><rect codeLine="129" fill="#F1F1F1" height="174.0445" id="Task" rx="1.5" ry="1.5" style="stroke:#181818;stroke-width:0.3;" width="180.4172" x="470.4" y="170.4082"/><ellipse cx="548.9572" cy="180.0082" fill="#ADD1B2" rx="6.6" ry="6.6" style="stroke:#181818;stroke-width:0.6;"/><path d="M550.6166,177.5332 Q550.7104,177.402 550.8229,177.3363 Q550.9354,177.2707 551.0666,177.2707 Q551.2916,177.2707 551.4322,177.4301 Q551.5729,177.5801 551.5729,177.9457 L551.5729,178.8176 Q551.5729,179.1832 551.4322,179.3426 Q551.2916,179.502 551.0666,179.502 Q550.8604,179.502 550.7385,179.3801 Q550.6166,179.2676 550.551,178.9582 Q550.5229,178.7426 550.4104,178.6301 Q550.2135,178.4051 549.8479,178.2738 Q549.4822,178.1426 549.1072,178.1426 Q548.6479,178.1426 548.2635,178.3395 Q547.8885,178.5363 547.5885,178.9863 Q547.2979,179.4363 547.2979,180.0551 L547.2979,180.7113 Q547.2979,181.452 547.8322,181.9488 Q548.3666,182.4363 549.3229,182.4363 Q549.8854,182.4363 550.2791,182.2863 Q550.5135,182.1926 550.7666,181.9301 Q550.926,181.7707 551.0104,181.7238 Q551.1041,181.677 551.226,181.677 Q551.4229,181.677 551.5729,181.8363 Q551.7322,181.9863 551.7322,182.1926 Q551.7322,182.3988 551.526,182.6426 Q551.226,182.9895 550.7479,183.1863 Q550.101,183.4582 549.3229,183.4582 Q548.4135,183.4582 547.6916,183.0832 Q547.101,182.7832 546.6885,182.1457 Q546.276,181.4988 546.276,180.7301 L546.276,180.0363 Q546.276,179.2395 546.6416,178.5551 Q547.0166,177.8613 547.6729,177.4957 Q548.3291,177.1207 549.0697,177.1207 Q549.5104,177.1207 549.8947,177.2238 Q550.2885,177.3176 550.6166,177.5332 Z " fill="#000000"/><text fill="#000000" font-family="sans-serif" font-size="8.4" lengthAdjust="spacing" textLength="18.2027" x="561.2572" y="183.4863">Task</text><line style="stroke:#181818;stroke-width:0.3;" x1="471" x2="650.2172" y1="189.6082" y2="189.6082"/><ellipse cx="477" cy="198.4945" fill="none" rx="1.8" ry="1.8" style="stroke:#038048;stroke-width:0.6;"/><text fill="#000000" font-family="sans-serif" font-size="8.4" lengthAdjust="spacing" textLength="62.1059" x="482.4" y="201.0727">id: int {readOnly}</text><ellipse cx="477" cy="209.6672" fill="none" rx="1.8" ry="1.8" style="stroke:#038048;stroke-width:0.6;"/><text fill="#000000" font-family="sans-serif" font-size="8.4" lengthAdjust="spacing" textLength="125.6268" x="482.4" y="212.2453">household: Household {readOnly}</text><ellipse cx="477" cy="220.8398" fill="none" rx="1.8" ry="1.8" style="stroke:#038048;stroke-width:0.6;"/><text fill="#000000" font-family="sans-serif" font-size="8.4" lengthAdjust="spacing" textLength="164.8172" x="482.4" y="223.418">area_of_responsibility: AreaOfResponsibility</text><ellipse cx="477" cy="232.0125" fill="none" rx="1.8" ry="1.8" style="stroke:#038048;stroke-width:0.6;"/><text fill="#000000" font-family="sans-serif" font-size="8.4" lengthAdjust="spacing" textLength="105.9926" x="482.4" y="234.5906">created_by: User {readOnly}</text><ellipse cx="477" cy="243.1852" fill="none" rx="1.8" ry="1.8" style="stroke:#038048;stroke-width:0.6;"/><text fill="#000000" font-family="sans-serif" font-size="8.4" lengthAdjust="spacing" textLength="67.7045" x="482.4" y="245.7633">assigned_to: User</text><ellipse cx="477" cy="254.3578" fill="none" rx="1.8" ry="1.8" style="stroke:#038048;stroke-width:0.6;"/><text fill="#000000" font-family="sans-serif" font-size="8.4" lengthAdjust="spacing" textLength="56.0068" x="482.4" y="256.9359">priority: Priority</text><ellipse cx="477" cy="265.5305" fill="none" rx="1.8" ry="1.8" style="stroke:#038048;stroke-width:0.6;"/><text fill="#000000" font-family="sans-serif" font-size="8.4" lengthAdjust="spacing" textLength="50.8922" x="482.4" y="268.1086">status: Status</text><ellipse cx="477" cy="276.7031" fill="none" rx="1.8" ry="1.8" style="stroke:#038048;stroke-width:0.6;"/><text fill="#000000" font-family="sans-serif" font-size="8.4" lengthAdjust="spacing" textLength="64.4314" x="482.4" y="279.2813">is_recurring: bool</text><ellipse cx="477" cy="287.8758" fill="none" rx="1.8" ry="1.8" style="stroke:#038048;stroke-width:0.6;"/><text fill="#000000" font-family="sans-serif" font-size="8.4" lengthAdjust="spacing" textLength="27.0703" x="482.4" y="290.4539">title: str</text><ellipse cx="477" cy="299.0484" fill="none" rx="1.8" ry="1.8" style="stroke:#038048;stroke-width:0.6;"/><text fill="#000000" font-family="sans-serif" font-size="8.4" lengthAdjust="spacing" textLength="54.6205" x="482.4" y="301.6266">description: str</text><ellipse cx="477" cy="310.2211" fill="none" rx="1.8" ry="1.8" style="stroke:#038048;stroke-width:0.6;"/><text fill="#000000" font-family="sans-serif" font-size="8.4" lengthAdjust="spacing" textLength="153.1605" x="482.4" y="312.7992">created_at: datetime.datetime {readOnly}</text><ellipse cx="477" cy="321.3938" fill="none" rx="1.8" ry="1.8" style="stroke:#038048;stroke-width:0.6;"/><text fill="#000000" font-family="sans-serif" font-size="8.4" lengthAdjust="spacing" textLength="155.5066" x="482.4" y="323.9719">updated_at: datetime.datetime {readOnly}</text><ellipse cx="477" cy="332.5664" fill="none" rx="1.8" ry="1.8" style="stroke:#038048;stroke-width:0.6;"/><text fill="#000000" font-family="sans-serif" font-size="8.4" lengthAdjust="spacing" textLength="143.8295" x="482.4" y="335.1445">done_at: datetime.datetime {readOnly}</text><line style="stroke:#181818;stroke-width:0.3;" x1="471" x2="650.2172" y1="339.6527" y2="339.6527"/></g><!--class Priority--><g id="elem_Priority"><rect codeLine="145" fill="#F1F1F1" height="51.1453" id="Priority" rx="1.5" ry="1.5" style="stroke:#181818;stroke-width:0.3;" width="92.6396" x="514.5" y="98.1082"/><ellipse cx="545.2022" cy="107.7082" fill="#ADD1B2" rx="6.6" ry="6.6" style="stroke:#181818;stroke-width:0.6;"/><path d="M546.8616,105.2332 Q546.9554,105.102 547.0679,105.0363 Q547.1804,104.9707 547.3116,104.9707 Q547.5366,104.9707 547.6772,105.1301 Q547.8179,105.2801 547.8179,105.6457 L547.8179,106.5176 Q547.8179,106.8832 547.6772,107.0426 Q547.5366,107.202 547.3116,107.202 Q547.1054,107.202 546.9835,107.0801 Q546.8616,106.9676 546.796,106.6582 Q546.7679,106.4426 546.6554,106.3301 Q546.4585,106.1051 546.0929,105.9738 Q545.7272,105.8426 545.3522,105.8426 Q544.8929,105.8426 544.5085,106.0395 Q544.1335,106.2363 543.8335,106.6863 Q543.5429,107.1363 543.5429,107.7551 L543.5429,108.4113 Q543.5429,109.152 544.0772,109.6488 Q544.6116,110.1363 545.5679,110.1363 Q546.1304,110.1363 546.5241,109.9863 Q546.7585,109.8926 547.0116,109.6301 Q547.171,109.4707 547.2554,109.4238 Q547.3491,109.377 547.471,109.377 Q547.6679,109.377 547.8179,109.5363 Q547.9772,109.6863 547.9772,109.8926 Q547.9772,110.0988 547.771,110.3426 Q547.471,110.6895 546.9929,110.8863 Q546.346,111.1582 545.5679,111.1582 Q544.6585,111.1582 543.9366,110.7832 Q543.346,110.4832 542.9335,109.8457 Q542.521,109.1988 542.521,108.4301 L542.521,107.7363 Q542.521,106.9395 542.8866,106.2551 Q543.2616,105.5613 543.9179,105.1957 Q544.5741,104.8207 545.3147,104.8207 Q545.7554,104.8207 546.1397,104.9238 Q546.5335,105.0176 546.8616,105.2332 Z " fill="#000000"/><text fill="#000000" font-family="sans-serif" font-size="8.4" lengthAdjust="spacing" textLength="26.1352" x="557.5022" y="111.1863">Priority</text><line style="stroke:#181818;stroke-width:0.3;" x1="515.1" x2="606.5396" y1="117.3082" y2="117.3082"/><ellipse cx="521.1" cy="126.1945" fill="none" rx="1.8" ry="1.8" style="stroke:#038048;stroke-width:0.6;"/><text fill="#000000" font-family="sans-serif" font-size="8.4" lengthAdjust="spacing" textLength="62.1059" x="526.5" y="128.7727">id: int {readOnly}</text><ellipse cx="521.1" cy="137.3672" fill="none" rx="1.8" ry="1.8" style="stroke:#038048;stroke-width:0.6;"/><text fill="#000000" font-family="sans-serif" font-size="8.4" lengthAdjust="spacing" textLength="77.0396" x="526.5" y="139.9453">name: str {readOnly}</text><line style="stroke:#181818;stroke-width:0.3;" x1="515.1" x2="606.5396" y1="144.4535" y2="144.4535"/></g><!--class Status--><g id="elem_Status"><rect codeLine="150" fill="#F1F1F1" height="51.1453" id="Status" rx="1.5" ry="1.5" style="stroke:#181818;stroke-width:0.3;" width="92.6396" x="514.5" y="26.1082"/><ellipse cx="546.363" cy="35.7082" fill="#ADD1B2" rx="6.6" ry="6.6" style="stroke:#181818;stroke-width:0.6;"/><path d="M548.0224,33.2332 Q548.1161,33.102 548.2286,33.0363 Q548.3411,32.9707 548.4724,32.9707 Q548.6974,32.9707 548.838,33.1301 Q548.9786,33.2801 548.9786,33.6457 L548.9786,34.5176 Q548.9786,34.8832 548.838,35.0426 Q548.6974,35.202 548.4724,35.202 Q548.2661,35.202 548.1442,35.0801 Q548.0224,34.9676 547.9567,34.6582 Q547.9286,34.4426 547.8161,34.3301 Q547.6192,34.1051 547.2536,33.9738 Q546.888,33.8426 546.513,33.8426 Q546.0536,33.8426 545.6692,34.0395 Q545.2942,34.2363 544.9942,34.6863 Q544.7036,35.1363 544.7036,35.7551 L544.7036,36.4113 Q544.7036,37.152 545.238,37.6488 Q545.7724,38.1363 546.7286,38.1363 Q547.2911,38.1363 547.6849,37.9863 Q547.9192,37.8926 548.1724,37.6301 Q548.3317,37.4707 548.4161,37.4238 Q548.5099,37.377 548.6317,37.377 Q548.8286,37.377 548.9786,37.5363 Q549.138,37.6863 549.138,37.8926 Q549.138,38.0988 548.9317,38.3426 Q548.6317,38.6895 548.1536,38.8863 Q547.5067,39.1582 546.7286,39.1582 Q545.8192,39.1582 545.0974,38.7832 Q544.5067,38.4832 544.0942,37.8457 Q543.6817,37.1988 543.6817,36.4301 L543.6817,35.7363 Q543.6817,34.9395 544.0474,34.2551 Q544.4224,33.5613 545.0786,33.1957 Q545.7349,32.8207 546.4755,32.8207 Q546.9161,32.8207 547.3005,32.9238 Q547.6942,33.0176 548.0224,33.2332 Z " fill="#000000"/><text fill="#000000" font-family="sans-serif" font-size="8.4" lengthAdjust="spacing" textLength="23.8137" x="558.663" y="39.1863">Status</text><line style="stroke:#181818;stroke-width:0.3;" x1="515.1" x2="606.5396" y1="45.3082" y2="45.3082"/><ellipse cx="521.1" cy="54.1945" fill="none" rx="1.8" ry="1.8" style="stroke:#038048;stroke-width:0.6;"/><text fill="#000000" font-family="sans-serif" font-size="8.4" lengthAdjust="spacing" textLength="62.1059" x="526.5" y="56.7727">id: int {readOnly}</text><ellipse cx="521.1" cy="65.3672" fill="none" rx="1.8" ry="1.8" style="stroke:#038048;stroke-width:0.6;"/><text fill="#000000" font-family="sans-serif" font-size="8.4" lengthAdjust="spacing" textLength="77.0396" x="526.5" y="67.9453">name: str {readOnly}</text><line style="stroke:#181818;stroke-width:0.3;" x1="515.1" x2="606.5396" y1="72.4535" y2="72.4535"/></g><!--class Task_TaskHelper--><g id="elem_Task_TaskHelper"><rect codeLine="155" fill="#F1F1F1" height="62.318" id="Task_TaskHelper" rx="1.5" ry="1.5" style="stroke:#181818;stroke-width:0.3;" width="85.0219" x="734.7" y="505.2082"/><ellipse cx="743.7" cy="514.8082" fill="#ADD1B2" rx="6.6" ry="6.6" style="stroke:#181818;stroke-width:0.6;"/><path d="M745.3594,512.3332 Q745.4531,512.202 745.5656,512.1363 Q745.6781,512.0707 745.8094,512.0707 Q746.0344,512.0707 746.175,512.2301 Q746.3156,512.3801 746.3156,512.7457 L746.3156,513.6176 Q746.3156,513.9832 746.175,514.1426 Q746.0344,514.302 745.8094,514.302 Q745.6031,514.302 745.4812,514.1801 Q745.3594,514.0676 745.2937,513.7582 Q745.2656,513.5426 745.1531,513.4301 Q744.9563,513.2051 744.5906,513.0738 Q744.225,512.9426 743.85,512.9426 Q743.3906,512.9426 743.0063,513.1395 Q742.6313,513.3363 742.3313,513.7863 Q742.0406,514.2363 742.0406,514.8551 L742.0406,515.5113 Q742.0406,516.252 742.575,516.7488 Q743.1094,517.2363 744.0656,517.2363 Q744.6281,517.2363 745.0219,517.0863 Q745.2563,516.9926 745.5094,516.7301 Q745.6687,516.5707 745.7531,516.5238 Q745.8469,516.477 745.9688,516.477 Q746.1656,516.477 746.3156,516.6363 Q746.475,516.7863 746.475,516.9926 Q746.475,517.1988 746.2688,517.4426 Q745.9688,517.7895 745.4906,517.9863 Q744.8438,518.2582 744.0656,518.2582 Q743.1563,518.2582 742.4344,517.8832 Q741.8438,517.5832 741.4313,516.9457 Q741.0188,516.2988 741.0188,515.5301 L741.0188,514.8363 Q741.0188,514.0395 741.3844,513.3551 Q741.7594,512.6613 742.4156,512.2957 Q743.0719,511.9207 743.8125,511.9207 Q744.2531,511.9207 744.6375,512.0238 Q745.0313,512.1176 745.3594,512.3332 Z " fill="#000000"/><text fill="#000000" font-family="sans-serif" font-size="8.4" lengthAdjust="spacing" textLength="65.8219" x="752.1" y="518.2863">Task_TaskHelper</text><line style="stroke:#181818;stroke-width:0.3;" x1="735.3" x2="819.1219" y1="524.4082" y2="524.4082"/><ellipse cx="741.3" cy="533.2945" fill="none" rx="1.8" ry="1.8" style="stroke:#038048;stroke-width:0.6;"/><text fill="#000000" font-family="sans-serif" font-size="8.4" lengthAdjust="spacing" textLength="62.1059" x="746.7" y="535.8727">id: int {readOnly}</text><ellipse cx="741.3" cy="544.4672" fill="none" rx="1.8" ry="1.8" style="stroke:#038048;stroke-width:0.6;"/><text fill="#000000" font-family="sans-serif" font-size="8.4" lengthAdjust="spacing" textLength="38.7434" x="746.7" y="547.0453">user: User</text><ellipse cx="741.3" cy="555.6398" fill="none" rx="1.8" ry="1.8" style="stroke:#038048;stroke-width:0.6;"/><text fill="#000000" font-family="sans-serif" font-size="8.4" lengthAdjust="spacing" textLength="38.2758" x="746.7" y="558.218">task: Task</text><line style="stroke:#181818;stroke-width:0.3;" x1="735.3" x2="819.1219" y1="562.7262" y2="562.7262"/></g><!--class RecurrenceCycle--><g id="elem_RecurrenceCycle"><rect codeLine="161" fill="#F1F1F1" height="51.1453" id="RecurrenceCycle" rx="1.5" ry="1.5" style="stroke:#181818;stroke-width:0.3;" width="92.6396" x="731.1" y="432.9082"/><ellipse cx="744.1574" cy="442.5082" fill="#ADD1B2" rx="6.6" ry="6.6" style="stroke:#181818;stroke-width:0.6;"/><path d="M745.8168,440.0332 Q745.9105,439.902 746.023,439.8363 Q746.1355,439.7707 746.2668,439.7707 Q746.4918,439.7707 746.6324,439.9301 Q746.773,440.0801 746.773,440.4457 L746.773,441.3176 Q746.773,441.6832 746.6324,441.8426 Q746.4918,442.002 746.2668,442.002 Q746.0605,442.002 745.9386,441.8801 Q745.8168,441.7676 745.7511,441.4582 Q745.723,441.2426 745.6105,441.1301 Q745.4136,440.9051 745.048,440.7738 Q744.6824,440.6426 744.3074,440.6426 Q743.848,440.6426 743.4636,440.8395 Q743.0886,441.0363 742.7886,441.4863 Q742.498,441.9363 742.498,442.5551 L742.498,443.2113 Q742.498,443.952 743.0324,444.4488 Q743.5668,444.9363 744.523,444.9363 Q745.0855,444.9363 745.4793,444.7863 Q745.7136,444.6926 745.9668,444.4301 Q746.1261,444.2707 746.2105,444.2238 Q746.3043,444.177 746.4261,444.177 Q746.623,444.177 746.773,444.3363 Q746.9324,444.4863 746.9324,444.6926 Q746.9324,444.8988 746.7261,445.1426 Q746.4261,445.4895 745.948,445.6863 Q745.3011,445.9582 744.523,445.9582 Q743.6136,445.9582 742.8918,445.5832 Q742.3011,445.2832 741.8886,444.6457 Q741.4761,443.9988 741.4761,443.2301 L741.4761,442.5363 Q741.4761,441.7395 741.8418,441.0551 Q742.2168,440.3613 742.873,439.9957 Q743.5293,439.6207 744.2699,439.6207 Q744.7105,439.6207 745.0949,439.7238 Q745.4886,439.8176 745.8168,440.0332 Z " fill="#000000"/><text fill="#000000" font-family="sans-serif" font-size="8.4" lengthAdjust="spacing" textLength="64.4232" x="753.459" y="445.9863">RecurrenceCycle</text><line style="stroke:#181818;stroke-width:0.3;" x1="731.7" x2="823.1396" y1="452.1082" y2="452.1082"/><ellipse cx="737.7" cy="460.9945" fill="none" rx="1.8" ry="1.8" style="stroke:#038048;stroke-width:0.6;"/><text fill="#000000" font-family="sans-serif" font-size="8.4" lengthAdjust="spacing" textLength="62.1059" x="743.1" y="463.5727">id: int {readOnly}</text><ellipse cx="737.7" cy="472.1672" fill="none" rx="1.8" ry="1.8" style="stroke:#038048;stroke-width:0.6;"/><text fill="#000000" font-family="sans-serif" font-size="8.4" lengthAdjust="spacing" textLength="77.0396" x="743.1" y="474.7453">name: str {readOnly}</text><line style="stroke:#181818;stroke-width:0.3;" x1="731.7" x2="823.1396" y1="479.2535" y2="479.2535"/></g><!--class RecurringTask--><g id="elem_RecurringTask"><rect codeLine="166" fill="#F1F1F1" height="73.4906" id="RecurringTask" rx="1.5" ry="1.5" style="stroke:#181818;stroke-width:0.3;" width="148.6506" x="702.9" y="338.4082"/><ellipse cx="747.3671" cy="348.0082" fill="#ADD1B2" rx="6.6" ry="6.6" style="stroke:#181818;stroke-width:0.6;"/><path d="M749.0265,345.5332 Q749.1202,345.402 749.2327,345.3363 Q749.3452,345.2707 749.4765,345.2707 Q749.7015,345.2707 749.8421,345.4301 Q749.9827,345.5801 749.9827,345.9457 L749.9827,346.8176 Q749.9827,347.1832 749.8421,347.3426 Q749.7015,347.502 749.4765,347.502 Q749.2702,347.502 749.1483,347.3801 Q749.0265,347.2676 748.9608,346.9582 Q748.9327,346.7426 748.8202,346.6301 Q748.6233,346.4051 748.2577,346.2738 Q747.8921,346.1426 747.5171,346.1426 Q747.0577,346.1426 746.6733,346.3395 Q746.2983,346.5363 745.9983,346.9863 Q745.7077,347.4363 745.7077,348.0551 L745.7077,348.7113 Q745.7077,349.452 746.2421,349.9488 Q746.7765,350.4363 747.7327,350.4363 Q748.2952,350.4363 748.689,350.2863 Q748.9233,350.1926 749.1765,349.9301 Q749.3358,349.7707 749.4202,349.7238 Q749.514,349.677 749.6358,349.677 Q749.8327,349.677 749.9827,349.8363 Q750.1421,349.9863 750.1421,350.1926 Q750.1421,350.3988 749.9358,350.6426 Q749.6358,350.9895 749.1577,351.1863 Q748.5108,351.4582 747.7327,351.4582 Q746.8233,351.4582 746.1015,351.0832 Q745.5108,350.7832 745.0983,350.1457 Q744.6858,349.4988 744.6858,348.7301 L744.6858,348.0363 Q744.6858,347.2395 745.0515,346.5551 Q745.4265,345.8613 746.0827,345.4957 Q746.739,345.1207 747.4796,345.1207 Q747.9202,345.1207 748.3046,345.2238 Q748.6983,345.3176 749.0265,345.5332 Z " fill="#000000"/><text fill="#000000" font-family="sans-serif" font-size="8.4" lengthAdjust="spacing" textLength="54.6164" x="759.6671" y="351.4863">RecurringTask</text><line style="stroke:#181818;stroke-width:0.3;" x1="703.5" x2="850.9506" y1="357.6082" y2="357.6082"/><ellipse cx="709.5" cy="366.4945" fill="none" rx="1.8" ry="1.8" style="stroke:#038048;stroke-width:0.6;"/><text fill="#000000" font-family="sans-serif" font-size="8.4" lengthAdjust="spacing" textLength="133.0506" x="714.9" y="369.0727">recurrence_cycle: RecurrenceCycle</text><ellipse cx="709.5" cy="377.6672" fill="none" rx="1.8" ry="1.8" style="stroke:#038048;stroke-width:0.6;"/><text fill="#000000" font-family="sans-serif" font-size="8.4" lengthAdjust="spacing" textLength="85.4396" x="714.9" y="380.2453">recurrence_interval: int</text><ellipse cx="709.5" cy="388.8398" fill="none" rx="1.8" ry="1.8" style="stroke:#038048;stroke-width:0.6;"/><text fill="#000000" font-family="sans-serif" font-size="8.4" lengthAdjust="spacing" textLength="122.3373" x="714.9" y="391.418">next_reset_at: datetime.datetime</text><ellipse cx="709.5" cy="400.0125" fill="none" rx="1.8" ry="1.8" style="stroke:#038048;stroke-width:0.6;"/><text fill="#000000" font-family="sans-serif" font-size="8.4" lengthAdjust="spacing" textLength="53.2301" x="714.9" y="402.5906">is_active: bool</text><line style="stroke:#181818;stroke-width:0.3;" x1="703.5" x2="850.9506" y1="407.0988" y2="407.0988"/></g><!--class NonRecurringTask--><g id="elem_NonRecurringTask"><rect codeLine="173" fill="#F1F1F1" height="51.1453" id="NonRecurringTask" rx="1.5" ry="1.5" style="stroke:#181818;stroke-width:0.3;" width="118.7994" x="717.9" y="266.1082"/><ellipse cx="740.208" cy="275.7082" fill="#ADD1B2" rx="6.6" ry="6.6" style="stroke:#181818;stroke-width:0.6;"/><path d="M741.8674,273.2332 Q741.9612,273.102 742.0737,273.0363 Q742.1862,272.9707 742.3174,272.9707 Q742.5424,272.9707 742.683,273.1301 Q742.8237,273.2801 742.8237,273.6457 L742.8237,274.5176 Q742.8237,274.8832 742.683,275.0426 Q742.5424,275.202 742.3174,275.202 Q742.1112,275.202 741.9893,275.0801 Q741.8674,274.9676 741.8018,274.6582 Q741.7737,274.4426 741.6612,274.3301 Q741.4643,274.1051 741.0987,273.9738 Q740.733,273.8426 740.358,273.8426 Q739.8987,273.8426 739.5143,274.0395 Q739.1393,274.2363 738.8393,274.6863 Q738.5487,275.1363 738.5487,275.7551 L738.5487,276.4113 Q738.5487,277.152 739.083,277.6488 Q739.6174,278.1363 740.5737,278.1363 Q741.1362,278.1363 741.5299,277.9863 Q741.7643,277.8926 742.0174,277.6301 Q742.1768,277.4707 742.2612,277.4238 Q742.3549,277.377 742.4768,277.377 Q742.6737,277.377 742.8237,277.5363 Q742.983,277.6863 742.983,277.8926 Q742.983,278.0988 742.7768,278.3426 Q742.4768,278.6895 741.9987,278.8863 Q741.3518,279.1582 740.5737,279.1582 Q739.6643,279.1582 738.9424,278.7832 Q738.3518,278.4832 737.9393,277.8457 Q737.5268,277.1988 737.5268,276.4301 L737.5268,275.7363 Q737.5268,274.9395 737.8924,274.2551 Q738.2674,273.5613 738.9237,273.1957 Q739.5799,272.8207 740.3205,272.8207 Q740.7612,272.8207 741.1455,272.9238 Q741.5393,273.0176 741.8674,273.2332 Z " fill="#000000"/><text fill="#000000" font-family="sans-serif" font-size="8.4" lengthAdjust="spacing" textLength="70.026" x="751.5654" y="279.1863">NonRecurringTask</text><line style="stroke:#181818;stroke-width:0.3;" x1="718.5" x2="836.0994" y1="285.3082" y2="285.3082"/><ellipse cx="724.5" cy="294.1945" fill="none" rx="1.8" ry="1.8" style="stroke:#038048;stroke-width:0.6;"/><text fill="#000000" font-family="sans-serif" font-size="8.4" lengthAdjust="spacing" textLength="56.0232" x="729.9" y="296.7727">project: Project</text><ellipse cx="724.5" cy="305.3672" fill="none" rx="1.8" ry="1.8" style="stroke:#038048;stroke-width:0.6;"/><text fill="#000000" font-family="sans-serif" font-size="8.4" lengthAdjust="spacing" textLength="103.1994" x="729.9" y="307.9453">deadline: datetime.datetime</text><line style="stroke:#181818;stroke-width:0.3;" x1="718.5" x2="836.0994" y1="312.4535" y2="312.4535"/></g><!--class ShoppingList--><g id="elem_ShoppingList"><rect codeLine="181" fill="#F1F1F1" height="118.1812" id="ShoppingList" rx="1.5" ry="1.5" style="stroke:#181818;stroke-width:0.3;" width="180.4172" x="687" y="126.9082"/><ellipse cx="750.3732" cy="136.5082" fill="#ADD1B2" rx="6.6" ry="6.6" style="stroke:#181818;stroke-width:0.6;"/><path d="M752.0326,134.0332 Q752.1264,133.902 752.2389,133.8363 Q752.3514,133.7707 752.4826,133.7707 Q752.7076,133.7707 752.8482,133.9301 Q752.9889,134.0801 752.9889,134.4457 L752.9889,135.3176 Q752.9889,135.6832 752.8482,135.8426 Q752.7076,136.002 752.4826,136.002 Q752.2764,136.002 752.1545,135.8801 Q752.0326,135.7676 751.967,135.4582 Q751.9389,135.2426 751.8264,135.1301 Q751.6295,134.9051 751.2639,134.7738 Q750.8982,134.6426 750.5232,134.6426 Q750.0639,134.6426 749.6795,134.8395 Q749.3045,135.0363 749.0045,135.4863 Q748.7139,135.9363 748.7139,136.5551 L748.7139,137.2113 Q748.7139,137.952 749.2482,138.4488 Q749.7826,138.9363 750.7389,138.9363 Q751.3014,138.9363 751.6951,138.7863 Q751.9295,138.6926 752.1826,138.4301 Q752.342,138.2707 752.4264,138.2238 Q752.5201,138.177 752.642,138.177 Q752.8389,138.177 752.9889,138.3363 Q753.1482,138.4863 753.1482,138.6926 Q753.1482,138.8988 752.942,139.1426 Q752.642,139.4895 752.1639,139.6863 Q751.517,139.9582 750.7389,139.9582 Q749.8295,139.9582 749.1076,139.5832 Q748.517,139.2832 748.1045,138.6457 Q747.692,137.9988 747.692,137.2301 L747.692,136.5363 Q747.692,135.7395 748.0576,135.0551 Q748.4326,134.3613 749.0889,133.9957 Q749.7451,133.6207 750.4857,133.6207 Q750.9264,133.6207 751.3107,133.7238 Q751.7045,133.8176 752.0326,134.0332 Z " fill="#000000"/><text fill="#000000" font-family="sans-serif" font-size="8.4" lengthAdjust="spacing" textLength="48.5707" x="762.6732" y="139.9863">ShoppingList</text><line style="stroke:#181818;stroke-width:0.3;" x1="687.6" x2="866.8172" y1="146.1082" y2="146.1082"/><ellipse cx="693.6" cy="154.9945" fill="none" rx="1.8" ry="1.8" style="stroke:#038048;stroke-width:0.6;"/><text fill="#000000" font-family="sans-serif" font-size="8.4" lengthAdjust="spacing" textLength="62.1059" x="699" y="157.5727">id: int {readOnly}</text><ellipse cx="693.6" cy="166.1672" fill="none" rx="1.8" ry="1.8" style="stroke:#038048;stroke-width:0.6;"/><text fill="#000000" font-family="sans-serif" font-size="8.4" lengthAdjust="spacing" textLength="125.6268" x="699" y="168.7453">household: Household {readOnly}</text><ellipse cx="693.6" cy="177.3398" fill="none" rx="1.8" ry="1.8" style="stroke:#038048;stroke-width:0.6;"/><text fill="#000000" font-family="sans-serif" font-size="8.4" lengthAdjust="spacing" textLength="105.9926" x="699" y="179.918">created_by: User {readOnly}</text><ellipse cx="693.6" cy="188.5125" fill="none" rx="1.8" ry="1.8" style="stroke:#038048;stroke-width:0.6;"/><text fill="#000000" font-family="sans-serif" font-size="8.4" lengthAdjust="spacing" textLength="56.0232" x="699" y="191.0906">project: Project</text><ellipse cx="693.6" cy="199.6852" fill="none" rx="1.8" ry="1.8" style="stroke:#038048;stroke-width:0.6;"/><text fill="#000000" font-family="sans-serif" font-size="8.4" lengthAdjust="spacing" textLength="164.8172" x="699" y="202.2633">area_of_responsibility: AreaOfResponsibility</text><ellipse cx="693.6" cy="210.8578" fill="none" rx="1.8" ry="1.8" style="stroke:#038048;stroke-width:0.6;"/><text fill="#000000" font-family="sans-serif" font-size="8.4" lengthAdjust="spacing" textLength="27.0703" x="699" y="213.4359">title: str</text><ellipse cx="693.6" cy="222.0305" fill="none" rx="1.8" ry="1.8" style="stroke:#038048;stroke-width:0.6;"/><text fill="#000000" font-family="sans-serif" font-size="8.4" lengthAdjust="spacing" textLength="153.1605" x="699" y="224.6086">created_at: datetime.datetime {readOnly}</text><ellipse cx="693.6" cy="233.2031" fill="none" rx="1.8" ry="1.8" style="stroke:#038048;stroke-width:0.6;"/><text fill="#000000" font-family="sans-serif" font-size="8.4" lengthAdjust="spacing" textLength="155.5066" x="699" y="235.7813">updated_at: datetime.datetime {readOnly}</text><line style="stroke:#181818;stroke-width:0.3;" x1="687.6" x2="866.8172" y1="240.2895" y2="240.2895"/></g><!--class ShoppingListItemCategory--><g id="elem_ShoppingListItemCategory"><rect codeLine="192" fill="#F1F1F1" height="62.318" id="ShoppingListItemCategory" rx="1.5" ry="1.5" style="stroke:#181818;stroke-width:0.3;" width="141.2268" x="908.7" y="505.2082"/><ellipse cx="928.066" cy="514.8082" fill="#ADD1B2" rx="6.6" ry="6.6" style="stroke:#181818;stroke-width:0.6;"/><path d="M929.7254,512.3332 Q929.8191,512.202 929.9316,512.1363 Q930.0441,512.0707 930.1754,512.0707 Q930.4004,512.0707 930.541,512.2301 Q930.6816,512.3801 930.6816,512.7457 L930.6816,513.6176 Q930.6816,513.9832 930.541,514.1426 Q930.4004,514.302 930.1754,514.302 Q929.9691,514.302 929.8472,514.1801 Q929.7254,514.0676 929.6597,513.7582 Q929.6316,513.5426 929.5191,513.4301 Q929.3222,513.2051 928.9566,513.0738 Q928.591,512.9426 928.216,512.9426 Q927.7566,512.9426 927.3722,513.1395 Q926.9972,513.3363 926.6972,513.7863 Q926.4066,514.2363 926.4066,514.8551 L926.4066,515.5113 Q926.4066,516.252 926.941,516.7488 Q927.4754,517.2363 928.4316,517.2363 Q928.9941,517.2363 929.3879,517.0863 Q929.6222,516.9926 929.8754,516.7301 Q930.0347,516.5707 930.1191,516.5238 Q930.2129,516.477 930.3347,516.477 Q930.5316,516.477 930.6816,516.6363 Q930.841,516.7863 930.841,516.9926 Q930.841,517.1988 930.6347,517.4426 Q930.3347,517.7895 929.8566,517.9863 Q929.2097,518.2582 928.4316,518.2582 Q927.5222,518.2582 926.8004,517.8832 Q926.2097,517.5832 925.7972,516.9457 Q925.3847,516.2988 925.3847,515.5301 L925.3847,514.8363 Q925.3847,514.0395 925.7504,513.3551 Q926.1254,512.6613 926.7816,512.2957 Q927.4379,511.9207 928.1785,511.9207 Q928.6191,511.9207 929.0035,512.0238 Q929.3972,512.1176 929.7254,512.3332 Z " fill="#000000"/><text fill="#000000" font-family="sans-serif" font-size="8.4" lengthAdjust="spacing" textLength="98.9912" x="938.7696" y="518.2863">ShoppingListItemCategory</text><line style="stroke:#181818;stroke-width:0.3;" x1="909.3" x2="1049.3268" y1="524.4082" y2="524.4082"/><ellipse cx="915.3" cy="533.2945" fill="none" rx="1.8" ry="1.8" style="stroke:#038048;stroke-width:0.6;"/><text fill="#000000" font-family="sans-serif" font-size="8.4" lengthAdjust="spacing" textLength="62.1059" x="920.7" y="535.8727">id: int {readOnly}</text><ellipse cx="915.3" cy="544.4672" fill="none" rx="1.8" ry="1.8" style="stroke:#038048;stroke-width:0.6;"/><text fill="#000000" font-family="sans-serif" font-size="8.4" lengthAdjust="spacing" textLength="125.6268" x="920.7" y="547.0453">household: Household {readOnly}</text><ellipse cx="915.3" cy="555.6398" fill="none" rx="1.8" ry="1.8" style="stroke:#038048;stroke-width:0.6;"/><text fill="#000000" font-family="sans-serif" font-size="8.4" lengthAdjust="spacing" textLength="35.0109" x="920.7" y="558.218">name: str</text><line style="stroke:#181818;stroke-width:0.3;" x1="909.3" x2="1049.3268" y1="562.7262" y2="562.7262"/></g><!--class ShoppingListItem--><g id="elem_ShoppingListItem"><rect codeLine="198" fill="#F1F1F1" height="73.4906" id="ShoppingListItem" rx="1.5" ry="1.5" style="stroke:#181818;stroke-width:0.3;" width="151.4766" x="903.6" y="411.0082"/><ellipse cx="944.3347" cy="420.6082" fill="#ADD1B2" rx="6.6" ry="6.6" style="stroke:#181818;stroke-width:0.6;"/><path d="M945.994,418.1332 Q946.0878,418.002 946.2003,417.9363 Q946.3128,417.8707 946.444,417.8707 Q946.669,417.8707 946.8097,418.0301 Q946.9503,418.1801 946.9503,418.5457 L946.9503,419.4176 Q946.9503,419.7832 946.8097,419.9426 Q946.669,420.102 946.444,420.102 Q946.2378,420.102 946.1159,419.9801 Q945.994,419.8676 945.9284,419.5582 Q945.9003,419.3426 945.7878,419.2301 Q945.5909,419.0051 945.2253,418.8738 Q944.8597,418.7426 944.4847,418.7426 Q944.0253,418.7426 943.6409,418.9395 Q943.2659,419.1363 942.9659,419.5863 Q942.6753,420.0363 942.6753,420.6551 L942.6753,421.3113 Q942.6753,422.052 943.2097,422.5488 Q943.744,423.0363 944.7003,423.0363 Q945.2628,423.0363 945.6565,422.8863 Q945.8909,422.7926 946.144,422.5301 Q946.3034,422.3707 946.3878,422.3238 Q946.4815,422.277 946.6034,422.277 Q946.8003,422.277 946.9503,422.4363 Q947.1097,422.5863 947.1097,422.7926 Q947.1097,422.9988 946.9034,423.2426 Q946.6034,423.5895 946.1253,423.7863 Q945.4784,424.0582 944.7003,424.0582 Q943.7909,424.0582 943.069,423.6832 Q942.4784,423.3832 942.0659,422.7457 Q941.6534,422.0988 941.6534,421.3301 L941.6534,420.6363 Q941.6534,419.8395 942.019,419.1551 Q942.394,418.4613 943.0503,418.0957 Q943.7065,417.7207 944.4472,417.7207 Q944.8878,417.7207 945.2722,417.8238 Q945.6659,417.9176 945.994,418.1332 Z " fill="#000000"/><text fill="#000000" font-family="sans-serif" font-size="8.4" lengthAdjust="spacing" textLength="64.9072" x="956.6347" y="424.0863">ShoppingListItem</text><line style="stroke:#181818;stroke-width:0.3;" x1="904.2" x2="1054.4766" y1="430.2082" y2="430.2082"/><ellipse cx="910.2" cy="439.0945" fill="none" rx="1.8" ry="1.8" style="stroke:#038048;stroke-width:0.6;"/><text fill="#000000" font-family="sans-serif" font-size="8.4" lengthAdjust="spacing" textLength="62.1059" x="915.6" y="441.6727">id: int {readOnly}</text><ellipse cx="910.2" cy="450.2672" fill="none" rx="1.8" ry="1.8" style="stroke:#038048;stroke-width:0.6;"/><text fill="#000000" font-family="sans-serif" font-size="8.4" lengthAdjust="spacing" textLength="125.6268" x="915.6" y="452.8453">household: Household {readOnly}</text><ellipse cx="910.2" cy="461.4398" fill="none" rx="1.8" ry="1.8" style="stroke:#038048;stroke-width:0.6;"/><text fill="#000000" font-family="sans-serif" font-size="8.4" lengthAdjust="spacing" textLength="135.8766" x="915.6" y="464.018">category: ShoppingListItemCategory</text><ellipse cx="910.2" cy="472.6125" fill="none" rx="1.8" ry="1.8" style="stroke:#038048;stroke-width:0.6;"/><text fill="#000000" font-family="sans-serif" font-size="8.4" lengthAdjust="spacing" textLength="27.0703" x="915.6" y="475.1906">title: str</text><line style="stroke:#181818;stroke-width:0.3;" x1="904.2" x2="1054.4766" y1="479.6988" y2="479.6988"/></g><!--class ShoppingList_ShoppingListItem--><g id="elem_ShoppingList_ShoppingListItem"><rect codeLine="205" fill="#F1F1F1" height="107.0086" id="ShoppingList_ShoppingListItem" rx="1.5" ry="1.5" style="stroke:#181818;stroke-width:0.3;" width="137.3496" x="910.5" y="283.2082"/><ellipse cx="919.5" cy="292.8082" fill="#ADD1B2" rx="6.6" ry="6.6" style="stroke:#181818;stroke-width:0.6;"/><path d="M921.1594,290.3332 Q921.2531,290.202 921.3656,290.1363 Q921.4781,290.0707 921.6094,290.0707 Q921.8344,290.0707 921.975,290.2301 Q922.1156,290.3801 922.1156,290.7457 L922.1156,291.6176 Q922.1156,291.9832 921.975,292.1426 Q921.8344,292.302 921.6094,292.302 Q921.4031,292.302 921.2813,292.1801 Q921.1594,292.0676 921.0938,291.7582 Q921.0656,291.5426 920.9531,291.4301 Q920.7563,291.2051 920.3906,291.0738 Q920.025,290.9426 919.65,290.9426 Q919.1906,290.9426 918.8063,291.1395 Q918.4313,291.3363 918.1313,291.7863 Q917.8406,292.2363 917.8406,292.8551 L917.8406,293.5113 Q917.8406,294.252 918.375,294.7488 Q918.9094,295.2363 919.8656,295.2363 Q920.4281,295.2363 920.8219,295.0863 Q921.0563,294.9926 921.3094,294.7301 Q921.4688,294.5707 921.5531,294.5238 Q921.6469,294.477 921.7688,294.477 Q921.9656,294.477 922.1156,294.6363 Q922.275,294.7863 922.275,294.9926 Q922.275,295.1988 922.0687,295.4426 Q921.7688,295.7895 921.2906,295.9863 Q920.6438,296.2582 919.8656,296.2582 Q918.9563,296.2582 918.2344,295.8832 Q917.6438,295.5832 917.2312,294.9457 Q916.8188,294.2988 916.8188,293.5301 L916.8188,292.8363 Q916.8188,292.0395 917.1844,291.3551 Q917.5594,290.6613 918.2156,290.2957 Q918.8719,289.9207 919.6125,289.9207 Q920.0531,289.9207 920.4375,290.0238 Q920.8313,290.1176 921.1594,290.3332 Z " fill="#000000"/><text fill="#000000" font-family="sans-serif" font-size="8.4" lengthAdjust="spacing" textLength="118.1496" x="927.9" y="296.2863">ShoppingList_ShoppingListItem</text><line style="stroke:#181818;stroke-width:0.3;" x1="911.1" x2="1047.2496" y1="302.4082" y2="302.4082"/><ellipse cx="917.1" cy="311.2945" fill="none" rx="1.8" ry="1.8" style="stroke:#038048;stroke-width:0.6;"/><text fill="#000000" font-family="sans-serif" font-size="8.4" lengthAdjust="spacing" textLength="62.1059" x="922.5" y="313.8727">id: int {readOnly}</text><ellipse cx="917.1" cy="322.4672" fill="none" rx="1.8" ry="1.8" style="stroke:#038048;stroke-width:0.6;"/><text fill="#000000" font-family="sans-serif" font-size="8.4" lengthAdjust="spacing" textLength="63.5045" x="922.5" y="325.0453">list: ShoppingList</text><ellipse cx="917.1" cy="333.6398" fill="none" rx="1.8" ry="1.8" style="stroke:#038048;stroke-width:0.6;"/><text fill="#000000" font-family="sans-serif" font-size="8.4" lengthAdjust="spacing" textLength="85.4438" x="922.5" y="336.218">item: ShoppingListItem</text><ellipse cx="917.1" cy="344.8125" fill="none" rx="1.8" ry="1.8" style="stroke:#038048;stroke-width:0.6;"/><text fill="#000000" font-family="sans-serif" font-size="8.4" lengthAdjust="spacing" textLength="49.9652" x="922.5" y="347.3906">quantity: float</text><ellipse cx="917.1" cy="355.9852" fill="none" rx="1.8" ry="1.8" style="stroke:#038048;stroke-width:0.6;"/><text fill="#000000" font-family="sans-serif" font-size="8.4" lengthAdjust="spacing" textLength="27.542" x="922.5" y="358.5633">unit: str</text><ellipse cx="917.1" cy="367.1578" fill="none" rx="1.8" ry="1.8" style="stroke:#038048;stroke-width:0.6;"/><text fill="#000000" font-family="sans-serif" font-size="8.4" lengthAdjust="spacing" textLength="30.3475" x="922.5" y="369.7359">note: str</text><ellipse cx="917.1" cy="378.3305" fill="none" rx="1.8" ry="1.8" style="stroke:#038048;stroke-width:0.6;"/><text fill="#000000" font-family="sans-serif" font-size="8.4" lengthAdjust="spacing" textLength="49.9734" x="922.5" y="380.9086">is_done: bool</text><line style="stroke:#181818;stroke-width:0.3;" x1="911.1" x2="1047.2496" y1="385.4168" y2="385.4168"/></g><!--SRC=[rLfBSzis4BxhLs3OWnqtyjJDZOVEP7neCjCq7hljbGEHa8YQ0bW0igkc_kzPlW4GV82rx5GpYHLZlzt5xhVO1PcCR1LI70cwInLAg22nefojSXpVunr1mIUUa0nTPrXA8WFqPONWSxQU-5HIw0C_I9BoBF50bQOwP6sn-7oFQ18YoXJw8WXEFhFi-AGjChmd8P9AQB-BGL2H9C8gH0byKtHFBfilRZM7F9aFULfvnUDtIOHtA0hG_2YGFQPP6GRN-Xf5KOfb2llBGVSZ5uaTCYeZ31nuW5XkECzUC9XLZFP4fJoHQ28s-cxQlPpd6QQi_USRUs-LEvqu8u-H2IaHWFkLCw817uYWs-EGdGRKngkcXKNbMvwH1NGUu9obFEhH96sNuAU8HeqL4c57Jqj1Q1MohL_0na9pdpQXOf833tgKWZKuNeYvv5bKxs53dxUtHEQSIRgX6LL7xo9pAPcVArUat99WY-uOL8JYlNWhghBU2POG6GkQ5uVoDtwutGZ-9tGFxz3Nk5D4kudGvXZMnwWp9_3BY6yZOMG_72RMidGbO3gZZ5YHjwg1izSvUC4_CEr532DzFtESpKzXNe52WpI-ONMvSOepjc1EvCrIvv4wik_g4DMsiQG6hmzIyVqlLFgNOGVztrNYix2fBS4u9V5z1d5mTQjN6eqCFdQP-gZ8_XJPCaVf0UFHKZ-gs5fKhN6WABGsg2SQ2C8CR3Ge-zS1CrMoPvjnh1ivCAhil3EkY8CBrd7iMOs_ONdlNOS5w2IJnxBQcbcu8sDDBYWNfQcR-fksA1LM1ncYk_Ad6NouYnw4e6pNAxTlRLBwZmsqYifpjwqgfC-jjQ1dLFprWMIvpyNKsGyLA0gxEZ4itPRf9omcryVu-RlwRSEkNi69rd0K5vP3snMtBFX3n0FEIizqTyZVggWwejpac6WmXjDmBHtsUwGD3ioUhNdFW-qkvNaEBYmQD7JmwuqQ8y5wpll0Ymu6UcIBRdWDe1qNnnSU4MmtJfBaUclXuAQ7CpFeRBJSysgcwTM5FjNOoay-gpoj67dCyOwiv3rbC3lXOaDdnM9n5gXZJX0NAkKWQJ_mlIKPBZgfzoFV5kY1Agiqk0hGnNgDWXykBoy2-y5MY88DoJZRIQHuKA8iYHgtNb-KgZh-B8UMbqc0frWY75IiSJueQXNCCTxS90T13ensELi6AzdivMRPNhmGni6-6EdlwU2nDrkBcHUJYFhpZOeBGKlQg9VB4jty5iGfU-3P0qdWv9WBQrZNGWkBFHQOJWxVoa1HN31LAedurgP5DCIGqa1VLLq9ivN0jwi9xwX4SKeX9uLt3kRLeQbdPDC7XsGzzVRbzA7LX9HQ2W0iDg4sfwmMKChRWsd3Yle4_CXI0hvYM3VcjJN2BEaKbsObsWg-xmRWtdotNl_xK-iWRJSqAUGeI9CnuttFnPfnX9K5Xq8j7vxejg0Bjwhlz1yeZCsntcZRGDRT1fjub1CO5y6aO7s79UEIEeqwpWmXj9DWqW_ZPD3gVnYXdGTp31Xqc0DmzZeZKiFDgQdz8Hrs7XqjPucAVdDTecMWa_cg6euERrHf-RRRMkyiy8CFx64A2gDWCpLsC-4TN6nfJEJI_mVGuZ_zSOCuZCwBNeBNMchRxjUWfapzrlqEVNVr8_nvrxkOHUsDuxozqBn5TM5KrySthhUVjT9tlKTWaVbMzBnxwl4MELwJwc-QZGszFwXqPBy57qQM3TwCoDaKSugUeHiE58BKXHClJ5luK__5Z7Ejgus9vQ8BE4LqbayAwBrabd0jj7hw2W00]--></g></svg>