<svg xmlns="http://www.w3.org/2000/svg" xmlns:xlink="http://www.w3.org/1999/xlink" contentStyleType="text/css" height="475px" preserveAspectRatio="none" style="width:895px;height:475px;background:#FFFFFF;" version="1.1" viewBox="0 0 895 475" width="895px" zoomAndPan="magnify"><defs/><g><!--cluster Services Classes--><g id="cluster_Services Classes"><path d="M8.5,6.0137 L123.9268,6.0137 A3.75,3.75 0 0 1 126.4268,8.5137 L133.4268,30.6348 L885.5,30.6348 A2.5,2.5 0 0 1 888,33.1348 L888,465.5137 A2.5,2.5 0 0 1 885.5,468.0137 L8.5,468.0137 A2.5,2.5 0 0 1 6,465.5137 L6,8.5137 A2.5,2.5 0 0 1 8.5,6.0137 " fill="none" style="stroke:#000000;stroke-width:1.5;"/><line style="stroke:#000000;stroke-width:1.5;" x1="6" x2="133.4268" y1="30.6348" y2="30.6348"/><text fill="#000000" font-family="sans-serif" font-size="14" font-weight="bold" lengthAdjust="spacing" textLength="114.4268" x="10" y="23.1211">Services Classes</text></g><!--class UserService--><g id="elem_UserService"><rect codeLine="295" fill="#F1F1F1" height="48" id="UserService" rx="2.5" ry="2.5" style="stroke:#181818;stroke-width:0.5;" width="108.2412" x="22" y="61.5137"/><ellipse cx="37" cy="77.5137" fill="#ADD1B2" rx="11" ry="11" style="stroke:#181818;stroke-width:1.0;"/><path d="M39.7656,73.3887 Q39.9219,73.1699 40.1094,73.0605 Q40.2969,72.9512 40.5156,72.9512 Q40.8906,72.9512 41.125,73.2168 Q41.3594,73.4668 41.3594,74.0762 L41.3594,75.5293 Q41.3594,76.1387 41.125,76.4043 Q40.8906,76.6699 40.5156,76.6699 Q40.1719,76.6699 39.9688,76.4668 Q39.7656,76.2793 39.6563,75.7637 Q39.6094,75.4043 39.4219,75.2168 Q39.0938,74.8418 38.4844,74.623 Q37.875,74.4043 37.25,74.4043 Q36.4844,74.4043 35.8438,74.7324 Q35.2188,75.0605 34.7188,75.8105 Q34.2344,76.5605 34.2344,77.5918 L34.2344,78.6855 Q34.2344,79.9199 35.125,80.748 Q36.0156,81.5605 37.6094,81.5605 Q38.5469,81.5605 39.2031,81.3105 Q39.5938,81.1543 40.0156,80.7168 Q40.2813,80.4512 40.4219,80.373 Q40.5781,80.2949 40.7813,80.2949 Q41.1094,80.2949 41.3594,80.5605 Q41.625,80.8105 41.625,81.1543 Q41.625,81.498 41.2813,81.9043 Q40.7813,82.4824 39.9844,82.8105 Q38.9063,83.2637 37.6094,83.2637 Q36.0938,83.2637 34.8906,82.6387 Q33.9063,82.1387 33.2188,81.0762 Q32.5313,79.998 32.5313,78.7168 L32.5313,77.5605 Q32.5313,76.2324 33.1406,75.0918 Q33.7656,73.9355 34.8594,73.3262 Q35.9531,72.7012 37.1875,72.7012 Q37.9219,72.7012 38.5625,72.873 Q39.2188,73.0293 39.7656,73.3887 Z " fill="#000000"/><text fill="#000000" font-family="sans-serif" font-size="14" lengthAdjust="spacing" textLength="76.2412" x="51" y="83.3105">UserService</text><line style="stroke:#181818;stroke-width:0.5;" x1="23" x2="129.2412" y1="93.5137" y2="93.5137"/><line style="stroke:#181818;stroke-width:0.5;" x1="23" x2="129.2412" y1="101.5137" y2="101.5137"/></g><!--class HouseholdService--><g id="elem_HouseholdService"><rect codeLine="298" fill="#F1F1F1" height="85.2422" id="HouseholdService" rx="2.5" ry="2.5" style="stroke:#181818;stroke-width:0.5;" width="419.7773" x="165" y="43.0137"/><ellipse cx="313.8286" cy="59.0137" fill="#ADD1B2" rx="11" ry="11" style="stroke:#181818;stroke-width:1.0;"/><path d="M316.5942,54.8887 Q316.7505,54.6699 316.938,54.5605 Q317.1255,54.4512 317.3442,54.4512 Q317.7192,54.4512 317.9536,54.7168 Q318.188,54.9668 318.188,55.5762 L318.188,57.0293 Q318.188,57.6387 317.9536,57.9043 Q317.7192,58.1699 317.3442,58.1699 Q317.0005,58.1699 316.7974,57.9668 Q316.5942,57.7793 316.4849,57.2637 Q316.438,56.9043 316.2505,56.7168 Q315.9224,56.3418 315.313,56.123 Q314.7036,55.9043 314.0786,55.9043 Q313.313,55.9043 312.6724,56.2324 Q312.0474,56.5605 311.5474,57.3105 Q311.063,58.0605 311.063,59.0918 L311.063,60.1855 Q311.063,61.4199 311.9536,62.248 Q312.8442,63.0605 314.438,63.0605 Q315.3755,63.0605 316.0317,62.8105 Q316.4224,62.6543 316.8442,62.2168 Q317.1099,61.9512 317.2505,61.873 Q317.4067,61.7949 317.6099,61.7949 Q317.938,61.7949 318.188,62.0605 Q318.4536,62.3105 318.4536,62.6543 Q318.4536,62.998 318.1099,63.4043 Q317.6099,63.9824 316.813,64.3105 Q315.7349,64.7637 314.438,64.7637 Q312.9224,64.7637 311.7192,64.1387 Q310.7349,63.6387 310.0474,62.5762 Q309.3599,61.498 309.3599,60.2168 L309.3599,59.0605 Q309.3599,57.7324 309.9692,56.5918 Q310.5942,55.4355 311.688,54.8262 Q312.7817,54.2012 314.0161,54.2012 Q314.7505,54.2012 315.3911,54.373 Q316.0474,54.5293 316.5942,54.8887 Z " fill="#000000"/><text fill="#000000" font-family="sans-serif" font-size="14" lengthAdjust="spacing" textLength="113.6201" x="334.3286" y="64.8105">HouseholdService</text><line style="stroke:#181818;stroke-width:0.5;" x1="166" x2="583.7773" y1="75.0137" y2="75.0137"/><line style="stroke:#181818;stroke-width:0.5;" x1="166" x2="583.7773" y1="83.0137" y2="83.0137"/><ellipse cx="176" cy="97.8242" fill="#84BE84" rx="3" ry="3" style="stroke:#038048;stroke-width:1.0;"/><text fill="#000000" font-family="sans-serif" font-size="14" lengthAdjust="spacing" textLength="342.3916" x="185" y="102.1211">create_household(name: str, creator: User): Household</text><ellipse cx="176" cy="116.4453" fill="#84BE84" rx="3" ry="3" style="stroke:#038048;stroke-width:1.0;"/><text fill="#000000" font-family="sans-serif" font-size="14" lengthAdjust="spacing" textLength="393.7773" x="185" y="120.7422">assign_household_role(user: User, role: HouseholdRole): None</text></g><!--class AuthService--><g id="elem_AuthService"><rect codeLine="305" fill="#F1F1F1" height="48" id="AuthService" rx="2.5" ry="2.5" style="stroke:#181818;stroke-width:0.5;" width="107.4824" x="620.5" y="61.5137"/><ellipse cx="635.5" cy="77.5137" fill="#ADD1B2" rx="11" ry="11" style="stroke:#181818;stroke-width:1.0;"/><path d="M638.2656,73.3887 Q638.4219,73.1699 638.6094,73.0605 Q638.7969,72.9512 639.0156,72.9512 Q639.3906,72.9512 639.625,73.2168 Q639.8594,73.4668 639.8594,74.0762 L639.8594,75.5293 Q639.8594,76.1387 639.625,76.4043 Q639.3906,76.6699 639.0156,76.6699 Q638.6719,76.6699 638.4688,76.4668 Q638.2656,76.2793 638.1563,75.7637 Q638.1094,75.4043 637.9219,75.2168 Q637.5938,74.8418 636.9844,74.623 Q636.375,74.4043 635.75,74.4043 Q634.9844,74.4043 634.3438,74.7324 Q633.7188,75.0605 633.2188,75.8105 Q632.7344,76.5605 632.7344,77.5918 L632.7344,78.6855 Q632.7344,79.9199 633.625,80.748 Q634.5156,81.5605 636.1094,81.5605 Q637.0469,81.5605 637.7031,81.3105 Q638.0938,81.1543 638.5156,80.7168 Q638.7813,80.4512 638.9219,80.373 Q639.0781,80.2949 639.2813,80.2949 Q639.6094,80.2949 639.8594,80.5605 Q640.125,80.8105 640.125,81.1543 Q640.125,81.498 639.7813,81.9043 Q639.2813,82.4824 638.4844,82.8105 Q637.4063,83.2637 636.1094,83.2637 Q634.5938,83.2637 633.3906,82.6387 Q632.4063,82.1387 631.7188,81.0762 Q631.0313,79.998 631.0313,78.7168 L631.0313,77.5605 Q631.0313,76.2324 631.6406,75.0918 Q632.2656,73.9355 633.3594,73.3262 Q634.4531,72.7012 635.6875,72.7012 Q636.4219,72.7012 637.0625,72.873 Q637.7188,73.0293 638.2656,73.3887 Z " fill="#000000"/><text fill="#000000" font-family="sans-serif" font-size="14" lengthAdjust="spacing" textLength="75.4824" x="649.5" y="83.3105">AuthService</text><line style="stroke:#181818;stroke-width:0.5;" x1="621.5" x2="726.9824" y1="93.5137" y2="93.5137"/><line style="stroke:#181818;stroke-width:0.5;" x1="621.5" x2="726.9824" y1="101.5137" y2="101.5137"/></g><!--class TaskService--><g id="elem_TaskService"><rect codeLine="308" fill="#F1F1F1" height="48" id="TaskService" rx="2.5" ry="2.5" style="stroke:#181818;stroke-width:0.5;" width="109.0205" x="762.5" y="61.5137"/><ellipse cx="777.5" cy="77.5137" fill="#ADD1B2" rx="11" ry="11" style="stroke:#181818;stroke-width:1.0;"/><path d="M780.2656,73.3887 Q780.4219,73.1699 780.6094,73.0605 Q780.7969,72.9512 781.0156,72.9512 Q781.3906,72.9512 781.625,73.2168 Q781.8594,73.4668 781.8594,74.0762 L781.8594,75.5293 Q781.8594,76.1387 781.625,76.4043 Q781.3906,76.6699 781.0156,76.6699 Q780.6719,76.6699 780.4688,76.4668 Q780.2656,76.2793 780.1563,75.7637 Q780.1094,75.4043 779.9219,75.2168 Q779.5938,74.8418 778.9844,74.623 Q778.375,74.4043 777.75,74.4043 Q776.9844,74.4043 776.3438,74.7324 Q775.7188,75.0605 775.2188,75.8105 Q774.7344,76.5605 774.7344,77.5918 L774.7344,78.6855 Q774.7344,79.9199 775.625,80.748 Q776.5156,81.5605 778.1094,81.5605 Q779.0469,81.5605 779.7031,81.3105 Q780.0938,81.1543 780.5156,80.7168 Q780.7813,80.4512 780.9219,80.373 Q781.0781,80.2949 781.2813,80.2949 Q781.6094,80.2949 781.8594,80.5605 Q782.125,80.8105 782.125,81.1543 Q782.125,81.498 781.7813,81.9043 Q781.2813,82.4824 780.4844,82.8105 Q779.4063,83.2637 778.1094,83.2637 Q776.5938,83.2637 775.3906,82.6387 Q774.4063,82.1387 773.7188,81.0762 Q773.0313,79.998 773.0313,78.7168 L773.0313,77.5605 Q773.0313,76.2324 773.6406,75.0918 Q774.2656,73.9355 775.3594,73.3262 Q776.4531,72.7012 777.6875,72.7012 Q778.4219,72.7012 779.0625,72.873 Q779.7188,73.0293 780.2656,73.3887 Z " fill="#000000"/><text fill="#000000" font-family="sans-serif" font-size="14" lengthAdjust="spacing" textLength="77.0205" x="791.5" y="83.3105">TaskService</text><line style="stroke:#181818;stroke-width:0.5;" x1="763.5" x2="870.5205" y1="93.5137" y2="93.5137"/><line style="stroke:#181818;stroke-width:0.5;" x1="763.5" x2="870.5205" y1="101.5137" y2="101.5137"/></g><!--class RecurringTaskService--><g id="elem_RecurringTaskService"><rect codeLine="311" fill="#F1F1F1" height="48" id="RecurringTaskService" rx="2.5" ry="2.5" style="stroke:#181818;stroke-width:0.5;" width="169.71" x="24" y="188.0137"/><ellipse cx="39" cy="204.0137" fill="#ADD1B2" rx="11" ry="11" style="stroke:#181818;stroke-width:1.0;"/><path d="M41.7656,199.8887 Q41.9219,199.6699 42.1094,199.5605 Q42.2969,199.4512 42.5156,199.4512 Q42.8906,199.4512 43.125,199.7168 Q43.3594,199.9668 43.3594,200.5762 L43.3594,202.0293 Q43.3594,202.6387 43.125,202.9043 Q42.8906,203.1699 42.5156,203.1699 Q42.1719,203.1699 41.9688,202.9668 Q41.7656,202.7793 41.6563,202.2637 Q41.6094,201.9043 41.4219,201.7168 Q41.0938,201.3418 40.4844,201.123 Q39.875,200.9043 39.25,200.9043 Q38.4844,200.9043 37.8438,201.2324 Q37.2188,201.5605 36.7188,202.3105 Q36.2344,203.0605 36.2344,204.0918 L36.2344,205.1855 Q36.2344,206.4199 37.125,207.248 Q38.0156,208.0605 39.6094,208.0605 Q40.5469,208.0605 41.2031,207.8105 Q41.5938,207.6543 42.0156,207.2168 Q42.2813,206.9512 42.4219,206.873 Q42.5781,206.7949 42.7813,206.7949 Q43.1094,206.7949 43.3594,207.0605 Q43.625,207.3105 43.625,207.6543 Q43.625,207.998 43.2813,208.4043 Q42.7813,208.9824 41.9844,209.3105 Q40.9063,209.7637 39.6094,209.7637 Q38.0938,209.7637 36.8906,209.1387 Q35.9063,208.6387 35.2188,207.5762 Q34.5313,206.498 34.5313,205.2168 L34.5313,204.0605 Q34.5313,202.7324 35.1406,201.5918 Q35.7656,200.4355 36.8594,199.8262 Q37.9531,199.2012 39.1875,199.2012 Q39.9219,199.2012 40.5625,199.373 Q41.2188,199.5293 41.7656,199.8887 Z " fill="#000000"/><text fill="#000000" font-family="sans-serif" font-size="14" lengthAdjust="spacing" textLength="137.71" x="53" y="209.8105">RecurringTaskService</text><line style="stroke:#181818;stroke-width:0.5;" x1="25" x2="192.71" y1="220.0137" y2="220.0137"/><line style="stroke:#181818;stroke-width:0.5;" x1="25" x2="192.71" y1="228.0137" y2="228.0137"/></g><!--class NonRecurringTaskService--><g id="elem_NonRecurringTaskService"><rect codeLine="314" fill="#F1F1F1" height="48" id="NonRecurringTaskService" rx="2.5" ry="2.5" style="stroke:#181818;stroke-width:0.5;" width="195.3926" x="229.5" y="188.0137"/><ellipse cx="244.5" cy="204.0137" fill="#ADD1B2" rx="11" ry="11" style="stroke:#181818;stroke-width:1.0;"/><path d="M247.2656,199.8887 Q247.4219,199.6699 247.6094,199.5605 Q247.7969,199.4512 248.0156,199.4512 Q248.3906,199.4512 248.625,199.7168 Q248.8594,199.9668 248.8594,200.5762 L248.8594,202.0293 Q248.8594,202.6387 248.625,202.9043 Q248.3906,203.1699 248.0156,203.1699 Q247.6719,203.1699 247.4688,202.9668 Q247.2656,202.7793 247.1563,202.2637 Q247.1094,201.9043 246.9219,201.7168 Q246.5938,201.3418 245.9844,201.123 Q245.375,200.9043 244.75,200.9043 Q243.9844,200.9043 243.3438,201.2324 Q242.7188,201.5605 242.2188,202.3105 Q241.7344,203.0605 241.7344,204.0918 L241.7344,205.1855 Q241.7344,206.4199 242.625,207.248 Q243.5156,208.0605 245.1094,208.0605 Q246.0469,208.0605 246.7031,207.8105 Q247.0938,207.6543 247.5156,207.2168 Q247.7813,206.9512 247.9219,206.873 Q248.0781,206.7949 248.2813,206.7949 Q248.6094,206.7949 248.8594,207.0605 Q249.125,207.3105 249.125,207.6543 Q249.125,207.998 248.7813,208.4043 Q248.2813,208.9824 247.4844,209.3105 Q246.4063,209.7637 245.1094,209.7637 Q243.5938,209.7637 242.3906,209.1387 Q241.4063,208.6387 240.7188,207.5762 Q240.0313,206.498 240.0313,205.2168 L240.0313,204.0605 Q240.0313,202.7324 240.6406,201.5918 Q241.2656,200.4355 242.3594,199.8262 Q243.4531,199.2012 244.6875,199.2012 Q245.4219,199.2012 246.0625,199.373 Q246.7188,199.5293 247.2656,199.8887 Z " fill="#000000"/><text fill="#000000" font-family="sans-serif" font-size="14" lengthAdjust="spacing" textLength="163.3926" x="258.5" y="209.8105">NonRecurringTaskService</text><line style="stroke:#181818;stroke-width:0.5;" x1="230.5" x2="423.8926" y1="220.0137" y2="220.0137"/><line style="stroke:#181818;stroke-width:0.5;" x1="230.5" x2="423.8926" y1="228.0137" y2="228.0137"/></g><!--class AreaOfResponsibilityService--><g id="elem_AreaOfResponsibilityService"><rect codeLine="318" fill="#F1F1F1" height="48" id="AreaOfResponsibilityService" rx="2.5" ry="2.5" style="stroke:#181818;stroke-width:0.5;" width="209.4063" x="459.5" y="188.0137"/><ellipse cx="474.5" cy="204.0137" fill="#ADD1B2" rx="11" ry="11" style="stroke:#181818;stroke-width:1.0;"/><path d="M477.2656,199.8887 Q477.4219,199.6699 477.6094,199.5605 Q477.7969,199.4512 478.0156,199.4512 Q478.3906,199.4512 478.625,199.7168 Q478.8594,199.9668 478.8594,200.5762 L478.8594,202.0293 Q478.8594,202.6387 478.625,202.9043 Q478.3906,203.1699 478.0156,203.1699 Q477.6719,203.1699 477.4688,202.9668 Q477.2656,202.7793 477.1563,202.2637 Q477.1094,201.9043 476.9219,201.7168 Q476.5938,201.3418 475.9844,201.123 Q475.375,200.9043 474.75,200.9043 Q473.9844,200.9043 473.3438,201.2324 Q472.7188,201.5605 472.2188,202.3105 Q471.7344,203.0605 471.7344,204.0918 L471.7344,205.1855 Q471.7344,206.4199 472.625,207.248 Q473.5156,208.0605 475.1094,208.0605 Q476.0469,208.0605 476.7031,207.8105 Q477.0938,207.6543 477.5156,207.2168 Q477.7813,206.9512 477.9219,206.873 Q478.0781,206.7949 478.2813,206.7949 Q478.6094,206.7949 478.8594,207.0605 Q479.125,207.3105 479.125,207.6543 Q479.125,207.998 478.7813,208.4043 Q478.2813,208.9824 477.4844,209.3105 Q476.4063,209.7637 475.1094,209.7637 Q473.5938,209.7637 472.3906,209.1387 Q471.4063,208.6387 470.7188,207.5762 Q470.0313,206.498 470.0313,205.2168 L470.0313,204.0605 Q470.0313,202.7324 470.6406,201.5918 Q471.2656,200.4355 472.3594,199.8262 Q473.4531,199.2012 474.6875,199.2012 Q475.4219,199.2012 476.0625,199.373 Q476.7188,199.5293 477.2656,199.8887 Z " fill="#000000"/><text fill="#000000" font-family="sans-serif" font-size="14" lengthAdjust="spacing" textLength="177.4063" x="488.5" y="209.8105">AreaOfResponsibilityService</text><line style="stroke:#181818;stroke-width:0.5;" x1="460.5" x2="667.9063" y1="220.0137" y2="220.0137"/><line style="stroke:#181818;stroke-width:0.5;" x1="460.5" x2="667.9063" y1="228.0137" y2="228.0137"/></g><!--class ProjectService--><g id="elem_ProjectService"><rect codeLine="319" fill="#F1F1F1" height="48" id="ProjectService" rx="2.5" ry="2.5" style="stroke:#181818;stroke-width:0.5;" width="122.2549" x="704" y="188.0137"/><ellipse cx="719" cy="204.0137" fill="#ADD1B2" rx="11" ry="11" style="stroke:#181818;stroke-width:1.0;"/><path d="M721.7656,199.8887 Q721.9219,199.6699 722.1094,199.5605 Q722.2969,199.4512 722.5156,199.4512 Q722.8906,199.4512 723.125,199.7168 Q723.3594,199.9668 723.3594,200.5762 L723.3594,202.0293 Q723.3594,202.6387 723.125,202.9043 Q722.8906,203.1699 722.5156,203.1699 Q722.1719,203.1699 721.9688,202.9668 Q721.7656,202.7793 721.6563,202.2637 Q721.6094,201.9043 721.4219,201.7168 Q721.0938,201.3418 720.4844,201.123 Q719.875,200.9043 719.25,200.9043 Q718.4844,200.9043 717.8438,201.2324 Q717.2188,201.5605 716.7188,202.3105 Q716.2344,203.0605 716.2344,204.0918 L716.2344,205.1855 Q716.2344,206.4199 717.125,207.248 Q718.0156,208.0605 719.6094,208.0605 Q720.5469,208.0605 721.2031,207.8105 Q721.5938,207.6543 722.0156,207.2168 Q722.2813,206.9512 722.4219,206.873 Q722.5781,206.7949 722.7813,206.7949 Q723.1094,206.7949 723.3594,207.0605 Q723.625,207.3105 723.625,207.6543 Q723.625,207.998 723.2813,208.4043 Q722.7813,208.9824 721.9844,209.3105 Q720.9063,209.7637 719.6094,209.7637 Q718.0938,209.7637 716.8906,209.1387 Q715.9063,208.6387 715.2188,207.5762 Q714.5313,206.498 714.5313,205.2168 L714.5313,204.0605 Q714.5313,202.7324 715.1406,201.5918 Q715.7656,200.4355 716.8594,199.8262 Q717.9531,199.2012 719.1875,199.2012 Q719.9219,199.2012 720.5625,199.373 Q721.2188,199.5293 721.7656,199.8887 Z " fill="#000000"/><text fill="#000000" font-family="sans-serif" font-size="14" lengthAdjust="spacing" textLength="90.2549" x="733" y="209.8105">ProjectService</text><line style="stroke:#181818;stroke-width:0.5;" x1="705" x2="825.2549" y1="220.0137" y2="220.0137"/><line style="stroke:#181818;stroke-width:0.5;" x1="705" x2="825.2549" y1="228.0137" y2="228.0137"/></g><!--class CustomListService--><g id="elem_CustomListService"><rect codeLine="320" fill="#F1F1F1" height="48" id="CustomListService" rx="2.5" ry="2.5" style="stroke:#181818;stroke-width:0.5;" width="148.7031" x="35.5" y="296.0137"/><ellipse cx="50.5" cy="312.0137" fill="#ADD1B2" rx="11" ry="11" style="stroke:#181818;stroke-width:1.0;"/><path d="M53.2656,307.8887 Q53.4219,307.6699 53.6094,307.5605 Q53.7969,307.4512 54.0156,307.4512 Q54.3906,307.4512 54.625,307.7168 Q54.8594,307.9668 54.8594,308.5762 L54.8594,310.0293 Q54.8594,310.6387 54.625,310.9043 Q54.3906,311.1699 54.0156,311.1699 Q53.6719,311.1699 53.4688,310.9668 Q53.2656,310.7793 53.1563,310.2637 Q53.1094,309.9043 52.9219,309.7168 Q52.5938,309.3418 51.9844,309.123 Q51.375,308.9043 50.75,308.9043 Q49.9844,308.9043 49.3438,309.2324 Q48.7188,309.5605 48.2188,310.3105 Q47.7344,311.0605 47.7344,312.0918 L47.7344,313.1855 Q47.7344,314.4199 48.625,315.248 Q49.5156,316.0605 51.1094,316.0605 Q52.0469,316.0605 52.7031,315.8105 Q53.0938,315.6543 53.5156,315.2168 Q53.7813,314.9512 53.9219,314.873 Q54.0781,314.7949 54.2813,314.7949 Q54.6094,314.7949 54.8594,315.0605 Q55.125,315.3105 55.125,315.6543 Q55.125,315.998 54.7813,316.4043 Q54.2813,316.9824 53.4844,317.3105 Q52.4063,317.7637 51.1094,317.7637 Q49.5938,317.7637 48.3906,317.1387 Q47.4063,316.6387 46.7188,315.5762 Q46.0313,314.498 46.0313,313.2168 L46.0313,312.0605 Q46.0313,310.7324 46.6406,309.5918 Q47.2656,308.4355 48.3594,307.8262 Q49.4531,307.2012 50.6875,307.2012 Q51.4219,307.2012 52.0625,307.373 Q52.7188,307.5293 53.2656,307.8887 Z " fill="#000000"/><text fill="#000000" font-family="sans-serif" font-size="14" lengthAdjust="spacing" textLength="116.7031" x="64.5" y="317.8105">CustomListService</text><line style="stroke:#181818;stroke-width:0.5;" x1="36.5" x2="183.2031" y1="328.0137" y2="328.0137"/><line style="stroke:#181818;stroke-width:0.5;" x1="36.5" x2="183.2031" y1="336.0137" y2="336.0137"/></g><!--class CustomListItemService--><g id="elem_CustomListItemService"><rect codeLine="321" fill="#F1F1F1" height="48" id="CustomListItemService" rx="2.5" ry="2.5" style="stroke:#181818;stroke-width:0.5;" width="175.9307" x="220" y="296.0137"/><ellipse cx="235" cy="312.0137" fill="#ADD1B2" rx="11" ry="11" style="stroke:#181818;stroke-width:1.0;"/><path d="M237.7656,307.8887 Q237.9219,307.6699 238.1094,307.5605 Q238.2969,307.4512 238.5156,307.4512 Q238.8906,307.4512 239.125,307.7168 Q239.3594,307.9668 239.3594,308.5762 L239.3594,310.0293 Q239.3594,310.6387 239.125,310.9043 Q238.8906,311.1699 238.5156,311.1699 Q238.1719,311.1699 237.9688,310.9668 Q237.7656,310.7793 237.6563,310.2637 Q237.6094,309.9043 237.4219,309.7168 Q237.0938,309.3418 236.4844,309.123 Q235.875,308.9043 235.25,308.9043 Q234.4844,308.9043 233.8438,309.2324 Q233.2188,309.5605 232.7188,310.3105 Q232.2344,311.0605 232.2344,312.0918 L232.2344,313.1855 Q232.2344,314.4199 233.125,315.248 Q234.0156,316.0605 235.6094,316.0605 Q236.5469,316.0605 237.2031,315.8105 Q237.5938,315.6543 238.0156,315.2168 Q238.2813,314.9512 238.4219,314.873 Q238.5781,314.7949 238.7813,314.7949 Q239.1094,314.7949 239.3594,315.0605 Q239.625,315.3105 239.625,315.6543 Q239.625,315.998 239.2813,316.4043 Q238.7813,316.9824 237.9844,317.3105 Q236.9063,317.7637 235.6094,317.7637 Q234.0938,317.7637 232.8906,317.1387 Q231.9063,316.6387 231.2188,315.5762 Q230.5313,314.498 230.5313,313.2168 L230.5313,312.0605 Q230.5313,310.7324 231.1406,309.5918 Q231.7656,308.4355 232.8594,307.8262 Q233.9531,307.2012 235.1875,307.2012 Q235.9219,307.2012 236.5625,307.373 Q237.2188,307.5293 237.7656,307.8887 Z " fill="#000000"/><text fill="#000000" font-family="sans-serif" font-size="14" lengthAdjust="spacing" textLength="143.9307" x="249" y="317.8105">CustomListItemService</text><line style="stroke:#181818;stroke-width:0.5;" x1="221" x2="394.9307" y1="328.0137" y2="328.0137"/><line style="stroke:#181818;stroke-width:0.5;" x1="221" x2="394.9307" y1="336.0137" y2="336.0137"/></g><!--class ShoppingListService--><g id="elem_ShoppingListService"><rect codeLine="322" fill="#F1F1F1" height="48" id="ShoppingListService" rx="2.5" ry="2.5" style="stroke:#181818;stroke-width:0.5;" width="159.6338" x="431" y="296.0137"/><ellipse cx="446" cy="312.0137" fill="#ADD1B2" rx="11" ry="11" style="stroke:#181818;stroke-width:1.0;"/><path d="M448.7656,307.8887 Q448.9219,307.6699 449.1094,307.5605 Q449.2969,307.4512 449.5156,307.4512 Q449.8906,307.4512 450.125,307.7168 Q450.3594,307.9668 450.3594,308.5762 L450.3594,310.0293 Q450.3594,310.6387 450.125,310.9043 Q449.8906,311.1699 449.5156,311.1699 Q449.1719,311.1699 448.9688,310.9668 Q448.7656,310.7793 448.6563,310.2637 Q448.6094,309.9043 448.4219,309.7168 Q448.0938,309.3418 447.4844,309.123 Q446.875,308.9043 446.25,308.9043 Q445.4844,308.9043 444.8438,309.2324 Q444.2188,309.5605 443.7188,310.3105 Q443.2344,311.0605 443.2344,312.0918 L443.2344,313.1855 Q443.2344,314.4199 444.125,315.248 Q445.0156,316.0605 446.6094,316.0605 Q447.5469,316.0605 448.2031,315.8105 Q448.5938,315.6543 449.0156,315.2168 Q449.2813,314.9512 449.4219,314.873 Q449.5781,314.7949 449.7813,314.7949 Q450.1094,314.7949 450.3594,315.0605 Q450.625,315.3105 450.625,315.6543 Q450.625,315.998 450.2813,316.4043 Q449.7813,316.9824 448.9844,317.3105 Q447.9063,317.7637 446.6094,317.7637 Q445.0938,317.7637 443.8906,317.1387 Q442.9063,316.6387 442.2188,315.5762 Q441.5313,314.498 441.5313,313.2168 L441.5313,312.0605 Q441.5313,310.7324 442.1406,309.5918 Q442.7656,308.4355 443.8594,307.8262 Q444.9531,307.2012 446.1875,307.2012 Q446.9219,307.2012 447.5625,307.373 Q448.2188,307.5293 448.7656,307.8887 Z " fill="#000000"/><text fill="#000000" font-family="sans-serif" font-size="14" lengthAdjust="spacing" textLength="127.6338" x="460" y="317.8105">ShoppingListService</text><line style="stroke:#181818;stroke-width:0.5;" x1="432" x2="589.6338" y1="328.0137" y2="328.0137"/><line style="stroke:#181818;stroke-width:0.5;" x1="432" x2="589.6338" y1="336.0137" y2="336.0137"/></g><!--class ShoppingListItemCategoryService--><g id="elem_ShoppingListItemCategoryService"><rect codeLine="323" fill="#F1F1F1" height="48" id="ShoppingListItemCategoryService" rx="2.5" ry="2.5" style="stroke:#181818;stroke-width:0.5;" width="243.668" x="626" y="296.0137"/><ellipse cx="641" cy="312.0137" fill="#ADD1B2" rx="11" ry="11" style="stroke:#181818;stroke-width:1.0;"/><path d="M643.7656,307.8887 Q643.9219,307.6699 644.1094,307.5605 Q644.2969,307.4512 644.5156,307.4512 Q644.8906,307.4512 645.125,307.7168 Q645.3594,307.9668 645.3594,308.5762 L645.3594,310.0293 Q645.3594,310.6387 645.125,310.9043 Q644.8906,311.1699 644.5156,311.1699 Q644.1719,311.1699 643.9688,310.9668 Q643.7656,310.7793 643.6563,310.2637 Q643.6094,309.9043 643.4219,309.7168 Q643.0938,309.3418 642.4844,309.123 Q641.875,308.9043 641.25,308.9043 Q640.4844,308.9043 639.8438,309.2324 Q639.2188,309.5605 638.7188,310.3105 Q638.2344,311.0605 638.2344,312.0918 L638.2344,313.1855 Q638.2344,314.4199 639.125,315.248 Q640.0156,316.0605 641.6094,316.0605 Q642.5469,316.0605 643.2031,315.8105 Q643.5938,315.6543 644.0156,315.2168 Q644.2813,314.9512 644.4219,314.873 Q644.5781,314.7949 644.7813,314.7949 Q645.1094,314.7949 645.3594,315.0605 Q645.625,315.3105 645.625,315.6543 Q645.625,315.998 645.2813,316.4043 Q644.7813,316.9824 643.9844,317.3105 Q642.9063,317.7637 641.6094,317.7637 Q640.0938,317.7637 638.8906,317.1387 Q637.9063,316.6387 637.2188,315.5762 Q636.5313,314.498 636.5313,313.2168 L636.5313,312.0605 Q636.5313,310.7324 637.1406,309.5918 Q637.7656,308.4355 638.8594,307.8262 Q639.9531,307.2012 641.1875,307.2012 Q641.9219,307.2012 642.5625,307.373 Q643.2188,307.5293 643.7656,307.8887 Z " fill="#000000"/><text fill="#000000" font-family="sans-serif" font-size="14" lengthAdjust="spacing" textLength="211.668" x="655" y="317.8105">ShoppingListItemCategoryService</text><line style="stroke:#181818;stroke-width:0.5;" x1="627" x2="868.668" y1="328.0137" y2="328.0137"/><line style="stroke:#181818;stroke-width:0.5;" x1="627" x2="868.668" y1="336.0137" y2="336.0137"/></g><!--class ShoppingListItemService--><g id="elem_ShoppingListItemService"><rect codeLine="324" fill="#F1F1F1" height="48" id="ShoppingListItemService" rx="2.5" ry="2.5" style="stroke:#181818;stroke-width:0.5;" width="186.8613" x="22.5" y="404.0137"/><ellipse cx="37.5" cy="420.0137" fill="#ADD1B2" rx="11" ry="11" style="stroke:#181818;stroke-width:1.0;"/><path d="M40.2656,415.8887 Q40.4219,415.6699 40.6094,415.5605 Q40.7969,415.4512 41.0156,415.4512 Q41.3906,415.4512 41.625,415.7168 Q41.8594,415.9668 41.8594,416.5762 L41.8594,418.0293 Q41.8594,418.6387 41.625,418.9043 Q41.3906,419.1699 41.0156,419.1699 Q40.6719,419.1699 40.4688,418.9668 Q40.2656,418.7793 40.1563,418.2637 Q40.1094,417.9043 39.9219,417.7168 Q39.5938,417.3418 38.9844,417.123 Q38.375,416.9043 37.75,416.9043 Q36.9844,416.9043 36.3438,417.2324 Q35.7188,417.5605 35.2188,418.3105 Q34.7344,419.0605 34.7344,420.0918 L34.7344,421.1855 Q34.7344,422.4199 35.625,423.248 Q36.5156,424.0605 38.1094,424.0605 Q39.0469,424.0605 39.7031,423.8105 Q40.0938,423.6543 40.5156,423.2168 Q40.7813,422.9512 40.9219,422.873 Q41.0781,422.7949 41.2813,422.7949 Q41.6094,422.7949 41.8594,423.0605 Q42.125,423.3105 42.125,423.6543 Q42.125,423.998 41.7813,424.4043 Q41.2813,424.9824 40.4844,425.3105 Q39.4063,425.7637 38.1094,425.7637 Q36.5938,425.7637 35.3906,425.1387 Q34.4063,424.6387 33.7188,423.5762 Q33.0313,422.498 33.0313,421.2168 L33.0313,420.0605 Q33.0313,418.7324 33.6406,417.5918 Q34.2656,416.4355 35.3594,415.8262 Q36.4531,415.2012 37.6875,415.2012 Q38.4219,415.2012 39.0625,415.373 Q39.7188,415.5293 40.2656,415.8887 Z " fill="#000000"/><text fill="#000000" font-family="sans-serif" font-size="14" lengthAdjust="spacing" textLength="154.8613" x="51.5" y="425.8105">ShoppingListItemService</text><line style="stroke:#181818;stroke-width:0.5;" x1="23.5" x2="208.3613" y1="436.0137" y2="436.0137"/><line style="stroke:#181818;stroke-width:0.5;" x1="23.5" x2="208.3613" y1="444.0137" y2="444.0137"/></g><!--SRC=[rLfRRzis57xtho2yXxHP7IpDdWHaG14CQu5r3P9jhm8jqHONcTH8AfdNvh_lK1UAf2XR4fgaCz3KaSxzVET2AJdPAAGu4dIRAPHIGH95ELiKEBd3MuAM7tbASdILOoc9NABF2mIVazMHJqs5tlDIaepdwGIkIbN7sMZKd-yHJID4cKAV1S7f9vRl7wsR3Ez8XAGIrhK421L9OwmYbC8tHNVahFqI5bCMwNYMnyMaUFmXYPWS2iqqFWfaXsbUXI5qVuNYECCo0_yAaFt0HUg7ZCeO0mRk8PPhplDd36OTenrH6KybEX8RsnlZowiYnvIPNr_xljNcTEICFCGkIyK1VBznHYp6UoBePZ-afsKoyMfWyJChTnsIRtXEh3pYT4SP1KQik42NwDpSANN2Bz5RMvHN5N4F59cvfTdZWnZH5547Haz0v9MjBr-07v7hbW-VX1IGzHw0u1uq4-BUcbX2xy2XJviR8WlE95tJdAhzv98A2HbVOg58XIb15zqomB_YlNWhgl9Ulqg9J0GjT0l-nblPjU1_mQoO7Fg6xocYtKPelO-QfXdC2LoC-IOMJlQZOM3DIrSAgdFAY1TvhneuUvas2_Q1wad0SDBt2yVv-1GMDLFaW6PgMEsUsiZnEcgZ9jvX1gkBsrCJpfIWwxBkjO7MgW4JJmPdi9CUSBVkdPRvSqhlgfIAxtw5sJ6v-ZhM_rq1VXKGcSfBCfBSvH27q91weVt7mMENgG-Ax9uYM-w-FA0ydcj77LiFgWqV28ey1-r40q2OmniFqlvTOgOgz6noZcqb9QFApplZYWImu7NXYTNuEvPta-jGCpt9mZ6ljaOMxe5jfX2KYqhLTVFDkYaLLgMCq6trlnjyE72MGb2sxPNRjxOWpPoRpS2gWsBbl1HRWBapf38uX9lff3yxabBWlaGNvbBE7-3t7tiQwjXQyjTmWi_vrb6WE83TqQ1FCO9l0I_IKQFTzFLqq8trZ_SaBwQSJ8EpKe6WgAiXswER2Xc49UHgdpY3FeKZxjvnx86Gk-gI5JkO-5brhVDgJx2eBWNykcc1sAjDOGo94sr9v9iMfeL0476FyoeaTXSY_oXTe4I5SNHa5Zb6mp5rsEu34tDWEpNg9_R0sumN1PWmQoUncLzkApaGhAzvOdZM7SAEh1wSLy2qvMB_pDk4RyQJ9BbnBHfqUZWpWyR6yoslrvzUNTWBa2_yoTUQnmKZ3mKSZHRoZZ9Oix1swAIQAj0BrBuWY0kLSQ3q7m3Va1pheMiU0VUVRGMFP_qHw8-imOO_gGCP-oPmLSrWURv4fwiLMlvmTdQwz9-mHMYv9ZbdMmcpSrbnUHGDtsfrMedgO3gVjJhM0dk69SBB6fp19rP6m1ZbxTbsa2d0OnqNvx5LHJF9p6gAJU9mviTipkcM3dRNqLBSlBX0j1-qr5XO6j36lLnMtErL8AVidkVt98K6DPQjHPrXrHfxA72D73udWg148rKgYVZ6XqKyX91AGLzKKmcZXS2tyoFMKOcIZ49Ej7K1v3MXQTPsruO0PRD-z-diLTbbgQHe1hZPXjfTvWn3HU_lmoqgcWxuWMK4RCLmtraBLmYpj1DSgPLe8_YkMxjxQ-HgzUKdOo0r3Xqb2XIaYvZ3upM4ciCSNXO20gryJEGs1QtDgh_JVw4mrll6KJD0Lfs3RJogHO-BvL72vbHD3bFQCEemCyHXTOAZTZYTmQh_OGwh7unHuC1X34DmrZcH6XvERUqFoV3p61WvSqJqX-iSAGEJRAgeuUZmLfILRt-izNh1DFO17uwnmiRPBgVTwdaBvsUQ43dtpmyC_yS_hn673NtMk_T6IgCx_3xMfMbUzj-YxyxVmh-BtlalDWURL-RSz0OrXL6VKb-7NiCsGYzw3-LYz_Nig-vPoniKU5zhl-1s77fNgko0lneF1suxk3b0vqCiI7g2hZb0258N7NbpQzWV-o-gWlUwsZXoMq-188cDygC4zYmPHTmGBHx_0m00]--></g></svg>