<svg xmlns="http://www.w3.org/2000/svg" xmlns:xlink="http://www.w3.org/1999/xlink" contentStyleType="text/css" height="1072.8px" preserveAspectRatio="none" style="width:1661px;height:1072px;background:#FFFFFF;" version="1.1" viewBox="0 0 1661 1072" width="1661.4px" zoomAndPan="magnify"><defs/><g><!--cluster Model Classes--><g id="cluster_Model Classes"><path d="M7.65,5.4123 L96.0855,5.4123 A3.375,3.375 0 0 1 98.3355,7.6623 L104.6355,27.5713 L1652.85,27.5713 A2.25,2.25 0 0 1 1655.1,29.8213 L1655.1,1064.2623 A2.25,2.25 0 0 1 1652.85,1066.5123 L7.65,1066.5123 A2.25,2.25 0 0 1 5.4,1064.2623 L5.4,7.6623 A2.25,2.25 0 0 1 7.65,5.4123 " fill="none" style="stroke:#000000;stroke-width:1.35;"/><line style="stroke:#000000;stroke-width:1.35;" x1="5.4" x2="104.6355" y1="27.5713" y2="27.5713"/><text fill="#000000" font-family="sans-serif" font-size="12.6" font-weight="bold" lengthAdjust="spacing" textLength="87.5355" x="9" y="20.809">Model Classes</text></g><!--class Household--><g id="elem_Household"><rect codeLine="8" fill="#F1F1F1" height="126.9949" id="Household" rx="2.25" ry="2.25" style="stroke:#181818;stroke-width:0.45;" width="193.6169" x="105.75" y="890.5623"/><ellipse cx="168.6116" cy="904.9623" fill="#ADD1B2" rx="9.9" ry="9.9" style="stroke:#181818;stroke-width:0.9;"/><path d="M171.1006,901.2498 Q171.2413,901.0529 171.41,900.9545 Q171.5788,900.8561 171.7756,900.8561 Q172.1131,900.8561 172.3241,901.0951 Q172.535,901.3201 172.535,901.8686 L172.535,903.1764 Q172.535,903.7248 172.3241,903.9639 Q172.1131,904.2029 171.7756,904.2029 Q171.4663,904.2029 171.2834,904.0201 Q171.1006,903.8514 171.0022,903.3873 Q170.96,903.0639 170.7913,902.8951 Q170.4959,902.5576 169.9475,902.3607 Q169.3991,902.1639 168.8366,902.1639 Q168.1475,902.1639 167.5709,902.4592 Q167.0084,902.7545 166.5584,903.4295 Q166.1225,904.1045 166.1225,905.0326 L166.1225,906.017 Q166.1225,907.1279 166.9241,907.8732 Q167.7256,908.6045 169.16,908.6045 Q170.0038,908.6045 170.5944,908.3795 Q170.9459,908.2389 171.3256,907.8451 Q171.5647,907.6061 171.6913,907.5357 Q171.8319,907.4654 172.0147,907.4654 Q172.31,907.4654 172.535,907.7045 Q172.7741,907.9295 172.7741,908.2389 Q172.7741,908.5482 172.4647,908.9139 Q172.0147,909.4342 171.2975,909.7295 Q170.3272,910.1373 169.16,910.1373 Q167.7959,910.1373 166.7131,909.5748 Q165.8272,909.1248 165.2084,908.1686 Q164.5897,907.1982 164.5897,906.0451 L164.5897,905.0045 Q164.5897,903.8092 165.1381,902.7826 Q165.7006,901.742 166.685,901.1936 Q167.6694,900.6311 168.7803,900.6311 Q169.4413,900.6311 170.0178,900.7857 Q170.6084,900.9264 171.1006,901.2498 Z " fill="#000000"/><text fill="#000000" font-family="sans-serif" font-size="12.6" lengthAdjust="spacing" textLength="60.2438" x="187.0616" y="910.1795">Household</text><line style="stroke:#181818;stroke-width:0.45;" x1="106.65" x2="298.4669" y1="919.3623" y2="919.3623"/><ellipse cx="115.65" cy="932.6918" fill="none" rx="2.7" ry="2.7" style="stroke:#038048;stroke-width:0.9;"/><text fill="#000000" font-family="sans-serif" font-size="12.6" lengthAdjust="spacing" textLength="30.1157" x="123.75" y="936.559">id: int</text><ellipse cx="115.65" cy="949.4508" fill="none" rx="2.7" ry="2.7" style="stroke:#038048;stroke-width:0.9;"/><text fill="#000000" font-family="sans-serif" font-size="12.6" lengthAdjust="spacing" textLength="52.5164" x="123.75" y="953.318">name: str</text><ellipse cx="115.65" cy="966.2098" fill="none" rx="2.7" ry="2.7" style="stroke:#038048;stroke-width:0.9;"/><text fill="#000000" font-family="sans-serif" font-size="12.6" lengthAdjust="spacing" textLength="166.6978" x="123.75" y="970.077">created_at: datetime.datetime</text><ellipse cx="115.65" cy="982.9688" fill="none" rx="2.7" ry="2.7" style="stroke:#038048;stroke-width:0.9;"/><text fill="#000000" font-family="sans-serif" font-size="12.6" lengthAdjust="spacing" textLength="170.2169" x="123.75" y="986.8359">updated_at: datetime.datetime</text><ellipse cx="115.65" cy="999.7277" fill="none" rx="2.7" ry="2.7" style="stroke:#038048;stroke-width:0.9;"/><text fill="#000000" font-family="sans-serif" font-size="12.6" lengthAdjust="spacing" textLength="88.2677" x="123.75" y="1003.5949">is_deleted: bool</text><line style="stroke:#181818;stroke-width:0.45;" x1="106.65" x2="298.4669" y1="1010.3572" y2="1010.3572"/></g><!--class User--><g id="elem_User"><rect codeLine="19" fill="#F1F1F1" height="294.5848" id="User" rx="2.25" ry="2.25" style="stroke:#181818;stroke-width:0.45;" width="365.1996" x="19.8" y="564.7623"/><ellipse cx="185.2734" cy="579.1623" fill="#ADD1B2" rx="9.9" ry="9.9" style="stroke:#181818;stroke-width:0.9;"/><path d="M187.7625,575.4498 Q187.9031,575.2529 188.0719,575.1545 Q188.2406,575.0561 188.4375,575.0561 Q188.775,575.0561 188.9859,575.2951 Q189.1969,575.5201 189.1969,576.0686 L189.1969,577.3764 Q189.1969,577.9248 188.9859,578.1639 Q188.775,578.4029 188.4375,578.4029 Q188.1281,578.4029 187.9453,578.2201 Q187.7625,578.0514 187.6641,577.5873 Q187.6219,577.2639 187.4531,577.0951 Q187.1578,576.7576 186.6094,576.5607 Q186.0609,576.3639 185.4984,576.3639 Q184.8094,576.3639 184.2328,576.6592 Q183.6703,576.9545 183.2203,577.6295 Q182.7844,578.3045 182.7844,579.2326 L182.7844,580.217 Q182.7844,581.3279 183.5859,582.0732 Q184.3875,582.8045 185.8219,582.8045 Q186.6656,582.8045 187.2563,582.5795 Q187.6078,582.4389 187.9875,582.0451 Q188.2266,581.8061 188.3531,581.7357 Q188.4938,581.6654 188.6766,581.6654 Q188.9719,581.6654 189.1969,581.9045 Q189.4359,582.1295 189.4359,582.4389 Q189.4359,582.7482 189.1266,583.1139 Q188.6766,583.6342 187.9594,583.9295 Q186.9891,584.3373 185.8219,584.3373 Q184.4578,584.3373 183.375,583.7748 Q182.4891,583.3248 181.8703,582.3686 Q181.2516,581.3982 181.2516,580.2451 L181.2516,579.2045 Q181.2516,578.0092 181.8,576.9826 Q182.3625,575.942 183.3469,575.3936 Q184.3313,574.8311 185.4422,574.8311 Q186.1031,574.8311 186.6797,574.9857 Q187.2703,575.1264 187.7625,575.4498 Z " fill="#000000"/><text fill="#000000" font-family="sans-serif" font-size="12.6" lengthAdjust="spacing" textLength="26.6027" x="203.7234" y="584.3795">User</text><line style="stroke:#181818;stroke-width:0.45;" x1="20.7" x2="384.0996" y1="593.5623" y2="593.5623"/><ellipse cx="29.7" cy="606.8918" fill="none" rx="2.7" ry="2.7" style="stroke:#038048;stroke-width:0.9;"/><text fill="#000000" font-family="sans-serif" font-size="12.6" lengthAdjust="spacing" textLength="30.1157" x="37.8" y="610.759">id: int</text><ellipse cx="29.7" cy="623.6508" fill="none" rx="2.7" ry="2.7" style="stroke:#038048;stroke-width:0.9;"/><text fill="#000000" font-family="sans-serif" font-size="12.6" lengthAdjust="spacing" textLength="51.1075" x="37.8" y="627.518">email: str</text><rect fill="none" height="5.4" style="stroke:#C82930;stroke-width:0.9;" width="5.4" x="27" y="637.7098"/><text fill="#000000" font-family="sans-serif" font-size="12.6" lengthAdjust="spacing" textLength="137.2834" x="37.8" y="644.277">__hashed_password: str</text><ellipse cx="29.7" cy="657.1688" fill="none" rx="2.7" ry="2.7" style="stroke:#038048;stroke-width:0.9;"/><text fill="#000000" font-family="sans-serif" font-size="12.6" lengthAdjust="spacing" textLength="112.7479" x="37.8" y="661.0359">unverified_email: str</text><rect fill="none" height="5.4" style="stroke:#C82930;stroke-width:0.9;" width="5.4" x="27" y="671.2277"/><text fill="#000000" font-family="sans-serif" font-size="12.6" lengthAdjust="spacing" textLength="181.4142" x="37.8" y="677.7949">__hashed_verification_token: str</text><ellipse cx="29.7" cy="690.6867" fill="none" rx="2.7" ry="2.7" style="stroke:#038048;stroke-width:0.9;"/><text fill="#000000" font-family="sans-serif" font-size="12.6" lengthAdjust="spacing" textLength="119.0663" x="37.8" y="694.5539">is_user_verified: bool</text><ellipse cx="29.7" cy="707.4457" fill="none" rx="2.7" ry="2.7" style="stroke:#038048;stroke-width:0.9;"/><text fill="#000000" font-family="sans-serif" font-size="12.6" lengthAdjust="spacing" textLength="212.2189" x="37.8" y="711.3129">verification_exp_at: datetime.datetime</text><ellipse cx="29.7" cy="724.2047" fill="none" rx="2.7" ry="2.7" style="stroke:#038048;stroke-width:0.9;"/><text fill="#000000" font-family="sans-serif" font-size="12.6" lengthAdjust="spacing" textLength="166.6978" x="37.8" y="728.0719">created_at: datetime.datetime</text><ellipse cx="29.7" cy="740.9637" fill="none" rx="2.7" ry="2.7" style="stroke:#038048;stroke-width:0.9;"/><text fill="#000000" font-family="sans-serif" font-size="12.6" lengthAdjust="spacing" textLength="170.2169" x="37.8" y="744.8309">updated_at: datetime.datetime</text><ellipse cx="29.7" cy="757.7227" fill="none" rx="2.7" ry="2.7" style="stroke:#038048;stroke-width:0.9;"/><text fill="#000000" font-family="sans-serif" font-size="12.6" lengthAdjust="spacing" textLength="88.2677" x="37.8" y="761.5898">is_deleted: bool</text><line style="stroke:#181818;stroke-width:0.45;" x1="20.7" x2="384.0996" y1="768.3521" y2="768.3521"/><rect fill="#F24D5C" height="5.4" style="stroke:#C82930;stroke-width:0.9;" width="5.4" x="27" y="778.9816"/><text fill="#000000" font-family="sans-serif" font-size="12.6" lengthAdjust="spacing" textLength="167.3561" x="37.8" y="785.5488">__hash_secret(secret: str): str</text><ellipse cx="29.7" cy="798.4406" fill="#84BE84" rx="2.7" ry="2.7" style="stroke:#038048;stroke-width:0.9;"/><text fill="#000000" font-family="sans-serif" font-size="12.6" lengthAdjust="spacing" textLength="283.66" x="37.8" y="802.3078">update_password(new_plain_password: str): None</text><ellipse cx="29.7" cy="815.1996" fill="#84BE84" rx="2.7" ry="2.7" style="stroke:#038048;stroke-width:0.9;"/><text fill="#000000" font-family="sans-serif" font-size="12.6" lengthAdjust="spacing" textLength="238.8032" x="37.8" y="819.0668">verify_password(plain_password: str): bool</text><ellipse cx="29.7" cy="831.9586" fill="#84BE84" rx="2.7" ry="2.7" style="stroke:#038048;stroke-width:0.9;"/><text fill="#000000" font-family="sans-serif" font-size="12.6" lengthAdjust="spacing" textLength="341.7996" x="37.8" y="835.8258">update_verification_token(plain_verification_token: str): None</text><ellipse cx="29.7" cy="848.7176" fill="#84BE84" rx="2.7" ry="2.7" style="stroke:#038048;stroke-width:0.9;"/><text fill="#000000" font-family="sans-serif" font-size="12.6" lengthAdjust="spacing" textLength="327.0647" x="37.8" y="852.5848">verify_verification_token(plain_verification_token: str): bool</text></g><!--class HouseholdRole--><g id="elem_HouseholdRole"><rect codeLine="38" fill="#F1F1F1" height="76.718" id="HouseholdRole" rx="2.25" ry="2.25" style="stroke:#181818;stroke-width:0.45;" width="114.9574" x="144.9" y="456.7623"/><ellipse cx="158.4" cy="471.1623" fill="#EB937F" rx="9.9" ry="9.9" style="stroke:#181818;stroke-width:0.9;"/><path d="M157.3734,471.8795 L157.3734,474.1295 L161.2688,474.1295 L161.2688,473.2998 Q161.2688,472.7514 161.4797,472.5123 Q161.7047,472.2732 162.0422,472.2732 Q162.3797,472.2732 162.5906,472.5123 Q162.8016,472.7514 162.8016,473.2998 L162.8016,475.6623 L155.6016,475.6623 Q155.0391,475.6623 154.8,475.4514 Q154.575,475.2404 154.575,474.8889 Q154.575,474.5514 154.8141,474.3404 Q155.0531,474.1295 155.6016,474.1295 L155.8406,474.1295 L155.8406,468.1389 L155.6016,468.1389 Q155.0391,468.1389 154.8,467.9279 Q154.575,467.717 154.575,467.3654 Q154.575,467.0279 154.8,466.817 Q155.0391,466.6061 155.6016,466.6061 L162.4641,466.6061 L162.4641,468.9404 Q162.4641,469.4889 162.2531,469.7279 Q162.0563,469.9529 161.7047,469.9529 Q161.3672,469.9529 161.1563,469.7279 Q160.9453,469.4889 160.9453,468.9404 L160.9453,468.1389 L157.3734,468.1389 L157.3734,470.3467 L158.7094,470.3467 Q158.7094,469.7561 158.8219,469.5873 Q159.0609,469.2217 159.4828,469.2217 Q159.8203,469.2217 160.0313,469.4607 Q160.2422,469.6857 160.2422,470.2342 L160.2422,472.0061 Q160.2422,472.4982 160.1297,472.667 Q159.8906,473.0186 159.4828,473.0186 Q159.0609,473.0186 158.8219,472.6529 Q158.7094,472.4842 158.7094,471.8795 L157.3734,471.8795 Z " fill="#000000"/><text fill="#000000" font-family="sans-serif" font-size="12.6" lengthAdjust="spacing" textLength="86.1574" x="171" y="476.3795">HouseholdRole</text><line style="stroke:#181818;stroke-width:0.45;" x1="145.8" x2="258.9574" y1="485.5623" y2="485.5623"/><text fill="#000000" font-family="sans-serif" font-size="12.6" lengthAdjust="spacing" textLength="94.1924" x="150.3" y="502.759">administrator = 1</text><text fill="#000000" font-family="sans-serif" font-size="12.6" lengthAdjust="spacing" textLength="45.878" x="150.3" y="519.518">user = 2</text><line style="stroke:#181818;stroke-width:0.45;" x1="145.8" x2="258.9574" y1="526.2803" y2="526.2803"/></g><!--class Household_User--><g id="elem_Household_User"><rect codeLine="43" fill="#F1F1F1" height="177.2719" id="Household_User" rx="2.25" ry="2.25" style="stroke:#181818;stroke-width:0.45;" width="202.7285" x="101.25" y="247.9623"/><ellipse cx="151.8623" cy="262.3623" fill="#ADD1B2" rx="9.9" ry="9.9" style="stroke:#181818;stroke-width:0.9;"/><path d="M154.3513,258.6498 Q154.4919,258.4529 154.6607,258.3545 Q154.8294,258.2561 155.0263,258.2561 Q155.3638,258.2561 155.5748,258.4951 Q155.7857,258.7201 155.7857,259.2686 L155.7857,260.5764 Q155.7857,261.1248 155.5748,261.3639 Q155.3638,261.6029 155.0263,261.6029 Q154.7169,261.6029 154.5341,261.4201 Q154.3513,261.2514 154.2529,260.7873 Q154.2107,260.4639 154.0419,260.2951 Q153.7466,259.9576 153.1982,259.7607 Q152.6498,259.5639 152.0873,259.5639 Q151.3982,259.5639 150.8216,259.8592 Q150.2591,260.1545 149.8091,260.8295 Q149.3732,261.5045 149.3732,262.4326 L149.3732,263.417 Q149.3732,264.5279 150.1748,265.2732 Q150.9763,266.0045 152.4107,266.0045 Q153.2544,266.0045 153.8451,265.7795 Q154.1966,265.6389 154.5763,265.2451 Q154.8154,265.0061 154.9419,264.9357 Q155.0826,264.8654 155.2654,264.8654 Q155.5607,264.8654 155.7857,265.1045 Q156.0248,265.3295 156.0248,265.6389 Q156.0248,265.9482 155.7154,266.3139 Q155.2654,266.8342 154.5482,267.1295 Q153.5779,267.5373 152.4107,267.5373 Q151.0466,267.5373 149.9638,266.9748 Q149.0779,266.5248 148.4591,265.5686 Q147.8404,264.5982 147.8404,263.4451 L147.8404,262.4045 Q147.8404,261.2092 148.3888,260.1826 Q148.9513,259.142 149.9357,258.5936 Q150.9201,258.0311 152.031,258.0311 Q152.6919,258.0311 153.2685,258.1857 Q153.8591,258.3264 154.3513,258.6498 Z " fill="#000000"/><text fill="#000000" font-family="sans-serif" font-size="12.6" lengthAdjust="spacing" textLength="93.854" x="170.3123" y="267.5795">Household_User</text><line style="stroke:#181818;stroke-width:0.45;" x1="102.15" x2="303.0785" y1="276.7623" y2="276.7623"/><ellipse cx="111.15" cy="290.0918" fill="none" rx="2.7" ry="2.7" style="stroke:#038048;stroke-width:0.9;"/><text fill="#000000" font-family="sans-serif" font-size="12.6" lengthAdjust="spacing" textLength="126.7937" x="119.25" y="293.959">household_user_id: int</text><ellipse cx="111.15" cy="306.8508" fill="none" rx="2.7" ry="2.7" style="stroke:#038048;stroke-width:0.9;"/><text fill="#000000" font-family="sans-serif" font-size="12.6" lengthAdjust="spacing" textLength="58.115" x="119.25" y="310.718">user: User</text><ellipse cx="111.15" cy="323.6098" fill="none" rx="2.7" ry="2.7" style="stroke:#038048;stroke-width:0.9;"/><text fill="#000000" font-family="sans-serif" font-size="12.6" lengthAdjust="spacing" textLength="125.3971" x="119.25" y="327.477">household: Household</text><ellipse cx="111.15" cy="340.3688" fill="none" rx="2.7" ry="2.7" style="stroke:#038048;stroke-width:0.9;"/><text fill="#000000" font-family="sans-serif" font-size="12.6" lengthAdjust="spacing" textLength="179.3285" x="119.25" y="344.2359">household_role: HouseholdRole</text><ellipse cx="111.15" cy="357.1277" fill="none" rx="2.7" ry="2.7" style="stroke:#038048;stroke-width:0.9;"/><text fill="#000000" font-family="sans-serif" font-size="12.6" lengthAdjust="spacing" textLength="98.0684" x="119.25" y="360.9949">is_accepted: bool</text><ellipse cx="111.15" cy="373.8867" fill="none" rx="2.7" ry="2.7" style="stroke:#038048;stroke-width:0.9;"/><text fill="#000000" font-family="sans-serif" font-size="12.6" lengthAdjust="spacing" textLength="166.6978" x="119.25" y="377.7539">created_at: datetime.datetime</text><ellipse cx="111.15" cy="390.6457" fill="none" rx="2.7" ry="2.7" style="stroke:#038048;stroke-width:0.9;"/><text fill="#000000" font-family="sans-serif" font-size="12.6" lengthAdjust="spacing" textLength="170.2169" x="119.25" y="394.5129">updated_at: datetime.datetime</text><ellipse cx="111.15" cy="407.4047" fill="none" rx="2.7" ry="2.7" style="stroke:#038048;stroke-width:0.9;"/><text fill="#000000" font-family="sans-serif" font-size="12.6" lengthAdjust="spacing" textLength="88.2677" x="119.25" y="411.2719">is_deleted: bool</text><line style="stroke:#181818;stroke-width:0.45;" x1="102.15" x2="303.0785" y1="418.0342" y2="418.0342"/></g><!--class AreaOfResponsibility--><g id="elem_AreaOfResponsibility"><rect codeLine="57" fill="#F1F1F1" height="177.2719" id="AreaOfResponsibility" rx="2.25" ry="2.25" style="stroke:#181818;stroke-width:0.45;" width="193.6169" x="105.75" y="39.1623"/><ellipse cx="140.4745" cy="53.5623" fill="#ADD1B2" rx="9.9" ry="9.9" style="stroke:#181818;stroke-width:0.9;"/><path d="M142.9636,49.8498 Q143.1042,49.6529 143.273,49.5545 Q143.4417,49.4561 143.6386,49.4561 Q143.9761,49.4561 144.187,49.6951 Q144.398,49.9201 144.398,50.4686 L144.398,51.7764 Q144.398,52.3248 144.187,52.5639 Q143.9761,52.8029 143.6386,52.8029 Q143.3292,52.8029 143.1464,52.6201 Q142.9636,52.4514 142.8652,51.9873 Q142.823,51.6639 142.6542,51.4951 Q142.3589,51.1576 141.8105,50.9607 Q141.262,50.7639 140.6995,50.7639 Q140.0105,50.7639 139.4339,51.0592 Q138.8714,51.3545 138.4214,52.0295 Q137.9855,52.7045 137.9855,53.6326 L137.9855,54.617 Q137.9855,55.7279 138.787,56.4732 Q139.5886,57.2045 141.023,57.2045 Q141.8667,57.2045 142.4573,56.9795 Q142.8089,56.8389 143.1886,56.4451 Q143.4277,56.2061 143.5542,56.1357 Q143.6948,56.0654 143.8777,56.0654 Q144.173,56.0654 144.398,56.3045 Q144.637,56.5295 144.637,56.8389 Q144.637,57.1482 144.3277,57.5139 Q143.8777,58.0342 143.1605,58.3295 Q142.1902,58.7373 141.023,58.7373 Q139.6589,58.7373 138.5761,58.1748 Q137.6902,57.7248 137.0714,56.7686 Q136.4527,55.7982 136.4527,54.6451 L136.4527,53.6045 Q136.4527,52.4092 137.0011,51.3826 Q137.5636,50.342 138.548,49.7936 Q139.5323,49.2311 140.6433,49.2311 Q141.3042,49.2311 141.8808,49.3857 Q142.4714,49.5264 142.9636,49.8498 Z " fill="#000000"/><text fill="#000000" font-family="sans-serif" font-size="12.6" lengthAdjust="spacing" textLength="117.6513" x="157.7911" y="58.7795">AreaOfResponsibility</text><line style="stroke:#181818;stroke-width:0.45;" x1="106.65" x2="298.4669" y1="67.9623" y2="67.9623"/><ellipse cx="115.65" cy="81.2918" fill="none" rx="2.7" ry="2.7" style="stroke:#038048;stroke-width:0.9;"/><text fill="#000000" font-family="sans-serif" font-size="12.6" lengthAdjust="spacing" textLength="30.1157" x="123.75" y="85.159">id: int</text><ellipse cx="115.65" cy="98.0508" fill="none" rx="2.7" ry="2.7" style="stroke:#038048;stroke-width:0.9;"/><text fill="#000000" font-family="sans-serif" font-size="12.6" lengthAdjust="spacing" textLength="125.3971" x="123.75" y="101.918">household: Household</text><ellipse cx="115.65" cy="114.8098" fill="none" rx="2.7" ry="2.7" style="stroke:#038048;stroke-width:0.9;"/><text fill="#000000" font-family="sans-serif" font-size="12.6" lengthAdjust="spacing" textLength="101.5567" x="123.75" y="118.677">assigned_to: User</text><ellipse cx="115.65" cy="131.5688" fill="none" rx="2.7" ry="2.7" style="stroke:#038048;stroke-width:0.9;"/><text fill="#000000" font-family="sans-serif" font-size="12.6" lengthAdjust="spacing" textLength="40.6055" x="123.75" y="135.4359">title: str</text><ellipse cx="115.65" cy="148.3277" fill="none" rx="2.7" ry="2.7" style="stroke:#038048;stroke-width:0.9;"/><text fill="#000000" font-family="sans-serif" font-size="12.6" lengthAdjust="spacing" textLength="81.9308" x="123.75" y="152.1949">description: str</text><ellipse cx="115.65" cy="165.0867" fill="none" rx="2.7" ry="2.7" style="stroke:#038048;stroke-width:0.9;"/><text fill="#000000" font-family="sans-serif" font-size="12.6" lengthAdjust="spacing" textLength="166.6978" x="123.75" y="168.9539">created_at: datetime.datetime</text><ellipse cx="115.65" cy="181.8457" fill="none" rx="2.7" ry="2.7" style="stroke:#038048;stroke-width:0.9;"/><text fill="#000000" font-family="sans-serif" font-size="12.6" lengthAdjust="spacing" textLength="170.2169" x="123.75" y="185.7129">updated_at: datetime.datetime</text><ellipse cx="115.65" cy="198.6047" fill="none" rx="2.7" ry="2.7" style="stroke:#038048;stroke-width:0.9;"/><text fill="#000000" font-family="sans-serif" font-size="12.6" lengthAdjust="spacing" textLength="88.2677" x="123.75" y="202.4719">is_deleted: bool</text><line style="stroke:#181818;stroke-width:0.45;" x1="106.65" x2="298.4669" y1="209.2342" y2="209.2342"/></g><!--class Project--><g id="elem_Project"><rect codeLine="71" fill="#F1F1F1" height="244.3078" id="Project" rx="2.25" ry="2.25" style="stroke:#181818;stroke-width:0.45;" width="270.6258" x="439.2" y="807.7623"/><ellipse cx="551.0804" cy="822.1623" fill="#ADD1B2" rx="9.9" ry="9.9" style="stroke:#181818;stroke-width:0.9;"/><path d="M553.5694,818.4498 Q553.7101,818.2529 553.8788,818.1545 Q554.0476,818.0561 554.2444,818.0561 Q554.5819,818.0561 554.7929,818.2951 Q555.0038,818.5201 555.0038,819.0686 L555.0038,820.3764 Q555.0038,820.9248 554.7929,821.1639 Q554.5819,821.4029 554.2444,821.4029 Q553.9351,821.4029 553.7522,821.2201 Q553.5694,821.0514 553.471,820.5873 Q553.4288,820.2639 553.2601,820.0951 Q552.9647,819.7576 552.4163,819.5607 Q551.8679,819.3639 551.3054,819.3639 Q550.6163,819.3639 550.0397,819.6592 Q549.4772,819.9545 549.0272,820.6295 Q548.5913,821.3045 548.5913,822.2326 L548.5913,823.217 Q548.5913,824.3279 549.3929,825.0732 Q550.1944,825.8045 551.6288,825.8045 Q552.4726,825.8045 553.0632,825.5795 Q553.4147,825.4389 553.7944,825.0451 Q554.0335,824.8061 554.1601,824.7357 Q554.3007,824.6654 554.4835,824.6654 Q554.7788,824.6654 555.0038,824.9045 Q555.2429,825.1295 555.2429,825.4389 Q555.2429,825.7482 554.9335,826.1139 Q554.4835,826.6342 553.7663,826.9295 Q552.796,827.3373 551.6288,827.3373 Q550.2647,827.3373 549.1819,826.7748 Q548.296,826.3248 547.6772,825.3686 Q547.0585,824.3982 547.0585,823.2451 L547.0585,822.2045 Q547.0585,821.0092 547.6069,819.9826 Q548.1694,818.942 549.1538,818.3936 Q550.1382,817.8311 551.2491,817.8311 Q551.9101,817.8311 552.4866,817.9857 Q553.0772,818.1264 553.5694,818.4498 Z " fill="#000000"/><text fill="#000000" font-family="sans-serif" font-size="12.6" lengthAdjust="spacing" textLength="39.215" x="569.5304" y="827.3795">Project</text><line style="stroke:#181818;stroke-width:0.45;" x1="440.1" x2="708.9258" y1="836.5623" y2="836.5623"/><ellipse cx="449.1" cy="849.8918" fill="none" rx="2.7" ry="2.7" style="stroke:#038048;stroke-width:0.9;"/><text fill="#000000" font-family="sans-serif" font-size="12.6" lengthAdjust="spacing" textLength="30.1157" x="457.2" y="853.759">id: int</text><ellipse cx="449.1" cy="866.6508" fill="none" rx="2.7" ry="2.7" style="stroke:#038048;stroke-width:0.9;"/><text fill="#000000" font-family="sans-serif" font-size="12.6" lengthAdjust="spacing" textLength="125.3971" x="457.2" y="870.518">household: Household</text><ellipse cx="449.1" cy="883.4098" fill="none" rx="2.7" ry="2.7" style="stroke:#038048;stroke-width:0.9;"/><text fill="#000000" font-family="sans-serif" font-size="12.6" lengthAdjust="spacing" textLength="95.9458" x="457.2" y="887.277">created_by: User</text><ellipse cx="449.1" cy="900.1688" fill="none" rx="2.7" ry="2.7" style="stroke:#038048;stroke-width:0.9;"/><text fill="#000000" font-family="sans-serif" font-size="12.6" lengthAdjust="spacing" textLength="247.2258" x="457.2" y="904.0359">area_of_responsibility: AreaOfResponsibility</text><ellipse cx="449.1" cy="916.9277" fill="none" rx="2.7" ry="2.7" style="stroke:#038048;stroke-width:0.9;"/><text fill="#000000" font-family="sans-serif" font-size="12.6" lengthAdjust="spacing" textLength="40.6055" x="457.2" y="920.7949">title: str</text><ellipse cx="449.1" cy="933.6867" fill="none" rx="2.7" ry="2.7" style="stroke:#038048;stroke-width:0.9;"/><text fill="#000000" font-family="sans-serif" font-size="12.6" lengthAdjust="spacing" textLength="81.9308" x="457.2" y="937.5539">description: str</text><ellipse cx="449.1" cy="950.4457" fill="none" rx="2.7" ry="2.7" style="stroke:#038048;stroke-width:0.9;"/><text fill="#000000" font-family="sans-serif" font-size="12.6" lengthAdjust="spacing" textLength="130.9957" x="457.2" y="954.3129">deadline: datetime.date</text><ellipse cx="449.1" cy="967.2047" fill="none" rx="2.7" ry="2.7" style="stroke:#038048;stroke-width:0.9;"/><text fill="#000000" font-family="sans-serif" font-size="12.6" lengthAdjust="spacing" textLength="74.9602" x="457.2" y="971.0719">is_done: bool</text><ellipse cx="449.1" cy="983.9637" fill="none" rx="2.7" ry="2.7" style="stroke:#038048;stroke-width:0.9;"/><text fill="#000000" font-family="sans-serif" font-size="12.6" lengthAdjust="spacing" textLength="152.7012" x="457.2" y="987.8309">done_at: datetime.datetime</text><ellipse cx="449.1" cy="1000.7227" fill="none" rx="2.7" ry="2.7" style="stroke:#038048;stroke-width:0.9;"/><text fill="#000000" font-family="sans-serif" font-size="12.6" lengthAdjust="spacing" textLength="166.6978" x="457.2" y="1004.5898">created_at: datetime.datetime</text><ellipse cx="449.1" cy="1017.4816" fill="none" rx="2.7" ry="2.7" style="stroke:#038048;stroke-width:0.9;"/><text fill="#000000" font-family="sans-serif" font-size="12.6" lengthAdjust="spacing" textLength="170.2169" x="457.2" y="1021.3488">updated_at: datetime.datetime</text><ellipse cx="449.1" cy="1034.2406" fill="none" rx="2.7" ry="2.7" style="stroke:#038048;stroke-width:0.9;"/><text fill="#000000" font-family="sans-serif" font-size="12.6" lengthAdjust="spacing" textLength="88.2677" x="457.2" y="1038.1078">is_deleted: bool</text><line style="stroke:#181818;stroke-width:0.45;" x1="440.1" x2="708.9258" y1="1044.8701" y2="1044.8701"/></g><!--class ProjectGoal--><g id="elem_ProjectGoal"><rect codeLine="86" fill="#F1F1F1" height="160.5129" id="ProjectGoal" rx="2.25" ry="2.25" style="stroke:#181818;stroke-width:0.45;" width="193.6169" x="477.9" y="615.6123"/><ellipse cx="537.9684" cy="630.0123" fill="#ADD1B2" rx="9.9" ry="9.9" style="stroke:#181818;stroke-width:0.9;"/><path d="M540.4575,626.2998 Q540.5981,626.1029 540.7668,626.0045 Q540.9356,625.9061 541.1325,625.9061 Q541.47,625.9061 541.6809,626.1451 Q541.8918,626.3701 541.8918,626.9186 L541.8918,628.2264 Q541.8918,628.7748 541.6809,629.0139 Q541.47,629.2529 541.1325,629.2529 Q540.8231,629.2529 540.6403,629.0701 Q540.4575,628.9014 540.359,628.4373 Q540.3168,628.1139 540.1481,627.9451 Q539.8528,627.6076 539.3043,627.4107 Q538.7559,627.2139 538.1934,627.2139 Q537.5043,627.2139 536.9278,627.5092 Q536.3653,627.8045 535.9153,628.4795 Q535.4793,629.1545 535.4793,630.0826 L535.4793,631.067 Q535.4793,632.1779 536.2809,632.9232 Q537.0825,633.6545 538.5168,633.6545 Q539.3606,633.6545 539.9512,633.4295 Q540.3028,633.2889 540.6825,632.8951 Q540.9215,632.6561 541.0481,632.5857 Q541.1887,632.5154 541.3715,632.5154 Q541.6668,632.5154 541.8918,632.7545 Q542.1309,632.9795 542.1309,633.2889 Q542.1309,633.5982 541.8215,633.9639 Q541.3715,634.4842 540.6543,634.7795 Q539.684,635.1873 538.5168,635.1873 Q537.1528,635.1873 536.07,634.6248 Q535.184,634.1748 534.5653,633.2186 Q533.9465,632.2482 533.9465,631.0951 L533.9465,630.0545 Q533.9465,628.8592 534.495,627.8326 Q535.0575,626.792 536.0418,626.2436 Q537.0262,625.6811 538.1372,625.6811 Q538.7981,625.6811 539.3747,625.8357 Q539.9653,625.9764 540.4575,626.2998 Z " fill="#000000"/><text fill="#000000" font-family="sans-serif" font-size="12.6" lengthAdjust="spacing" textLength="65.8301" x="556.4184" y="635.2295">ProjectGoal</text><line style="stroke:#181818;stroke-width:0.45;" x1="478.8" x2="670.6169" y1="644.4123" y2="644.4123"/><ellipse cx="487.8" cy="657.7418" fill="none" rx="2.7" ry="2.7" style="stroke:#038048;stroke-width:0.9;"/><text fill="#000000" font-family="sans-serif" font-size="12.6" lengthAdjust="spacing" textLength="30.1157" x="495.9" y="661.609">id: int</text><ellipse cx="487.8" cy="674.5008" fill="none" rx="2.7" ry="2.7" style="stroke:#038048;stroke-width:0.9;"/><text fill="#000000" font-family="sans-serif" font-size="12.6" lengthAdjust="spacing" textLength="84.0349" x="495.9" y="678.368">project: Project</text><ellipse cx="487.8" cy="691.2598" fill="none" rx="2.7" ry="2.7" style="stroke:#038048;stroke-width:0.9;"/><text fill="#000000" font-family="sans-serif" font-size="12.6" lengthAdjust="spacing" textLength="40.6055" x="495.9" y="695.127">title: str</text><ellipse cx="487.8" cy="708.0188" fill="none" rx="2.7" ry="2.7" style="stroke:#038048;stroke-width:0.9;"/><text fill="#000000" font-family="sans-serif" font-size="12.6" lengthAdjust="spacing" textLength="81.9308" x="495.9" y="711.8859">description: str</text><ellipse cx="487.8" cy="724.7777" fill="none" rx="2.7" ry="2.7" style="stroke:#038048;stroke-width:0.9;"/><text fill="#000000" font-family="sans-serif" font-size="12.6" lengthAdjust="spacing" textLength="166.6978" x="495.9" y="728.6449">created_at: datetime.datetime</text><ellipse cx="487.8" cy="741.5367" fill="none" rx="2.7" ry="2.7" style="stroke:#038048;stroke-width:0.9;"/><text fill="#000000" font-family="sans-serif" font-size="12.6" lengthAdjust="spacing" textLength="170.2169" x="495.9" y="745.4039">updated_at: datetime.datetime</text><ellipse cx="487.8" cy="758.2957" fill="none" rx="2.7" ry="2.7" style="stroke:#038048;stroke-width:0.9;"/><text fill="#000000" font-family="sans-serif" font-size="12.6" lengthAdjust="spacing" textLength="88.2677" x="495.9" y="762.1629">is_deleted: bool</text><line style="stroke:#181818;stroke-width:0.45;" x1="478.8" x2="670.6169" y1="768.9252" y2="768.9252"/></g><!--class ProjectRole--><g id="elem_ProjectRole"><rect codeLine="96" fill="#F1F1F1" height="76.718" id="ProjectRole" rx="2.25" ry="2.25" style="stroke:#181818;stroke-width:0.45;" width="126.7225" x="511.2" y="507.1623"/><ellipse cx="539.4572" cy="521.5623" fill="#EB937F" rx="9.9" ry="9.9" style="stroke:#181818;stroke-width:0.9;"/><path d="M538.4306,522.2795 L538.4306,524.5295 L542.3259,524.5295 L542.3259,523.6998 Q542.3259,523.1514 542.5369,522.9123 Q542.7619,522.6732 543.0994,522.6732 Q543.4369,522.6732 543.6478,522.9123 Q543.8588,523.1514 543.8588,523.6998 L543.8588,526.0623 L536.6588,526.0623 Q536.0963,526.0623 535.8572,525.8514 Q535.6322,525.6404 535.6322,525.2889 Q535.6322,524.9514 535.8713,524.7404 Q536.1103,524.5295 536.6588,524.5295 L536.8978,524.5295 L536.8978,518.5389 L536.6588,518.5389 Q536.0963,518.5389 535.8572,518.3279 Q535.6322,518.117 535.6322,517.7654 Q535.6322,517.4279 535.8572,517.217 Q536.0963,517.0061 536.6588,517.0061 L543.5213,517.0061 L543.5213,519.3404 Q543.5213,519.8889 543.3103,520.1279 Q543.1134,520.3529 542.7619,520.3529 Q542.4244,520.3529 542.2134,520.1279 Q542.0025,519.8889 542.0025,519.3404 L542.0025,518.5389 L538.4306,518.5389 L538.4306,520.7467 L539.7666,520.7467 Q539.7666,520.1561 539.8791,519.9873 Q540.1181,519.6217 540.54,519.6217 Q540.8775,519.6217 541.0884,519.8607 Q541.2994,520.0857 541.2994,520.6342 L541.2994,522.4061 Q541.2994,522.8982 541.1869,523.067 Q540.9478,523.4186 540.54,523.4186 Q540.1181,523.4186 539.8791,523.0529 Q539.7666,522.8842 539.7666,522.2795 L538.4306,522.2795 Z " fill="#000000"/><text fill="#000000" font-family="sans-serif" font-size="12.6" lengthAdjust="spacing" textLength="65.1287" x="555.3366" y="526.7795">ProjectRole</text><line style="stroke:#181818;stroke-width:0.45;" x1="512.1" x2="637.0225" y1="535.9623" y2="535.9623"/><text fill="#000000" font-family="sans-serif" font-size="12.6" lengthAdjust="spacing" textLength="115.9225" x="516.6" y="553.159">project_manager = 1</text><text fill="#000000" font-family="sans-serif" font-size="12.6" lengthAdjust="spacing" textLength="80.8972" x="516.6" y="569.918">contributor = 2</text><line style="stroke:#181818;stroke-width:0.45;" x1="512.1" x2="637.0225" y1="576.6803" y2="576.6803"/></g><!--class User_Project--><g id="elem_User_Project"><rect codeLine="101" fill="#F1F1F1" height="160.5129" id="User_Project" rx="2.25" ry="2.25" style="stroke:#181818;stroke-width:0.45;" width="193.6169" x="477.9" y="315.0123"/><ellipse cx="534.4708" cy="329.4123" fill="#ADD1B2" rx="9.9" ry="9.9" style="stroke:#181818;stroke-width:0.9;"/><path d="M536.9599,325.6998 Q537.1005,325.5029 537.2692,325.4045 Q537.438,325.3061 537.6349,325.3061 Q537.9724,325.3061 538.1833,325.5451 Q538.3942,325.7701 538.3942,326.3186 L538.3942,327.6264 Q538.3942,328.1748 538.1833,328.4139 Q537.9724,328.6529 537.6349,328.6529 Q537.3255,328.6529 537.1427,328.4701 Q536.9599,328.3014 536.8614,327.8373 Q536.8192,327.5139 536.6505,327.3451 Q536.3552,327.0076 535.8067,326.8107 Q535.2583,326.6139 534.6958,326.6139 Q534.0067,326.6139 533.4302,326.9092 Q532.8677,327.2045 532.4177,327.8795 Q531.9817,328.5545 531.9817,329.4826 L531.9817,330.467 Q531.9817,331.5779 532.7833,332.3232 Q533.5849,333.0545 535.0192,333.0545 Q535.863,333.0545 536.4536,332.8295 Q536.8052,332.6889 537.1849,332.2951 Q537.4239,332.0561 537.5505,331.9857 Q537.6911,331.9154 537.8739,331.9154 Q538.1692,331.9154 538.3942,332.1545 Q538.6333,332.3795 538.6333,332.6889 Q538.6333,332.9982 538.3239,333.3639 Q537.8739,333.8842 537.1567,334.1795 Q536.1864,334.5873 535.0192,334.5873 Q533.6552,334.5873 532.5724,334.0248 Q531.6864,333.5748 531.0677,332.6186 Q530.4489,331.6482 530.4489,330.4951 L530.4489,329.4545 Q530.4489,328.2592 530.9974,327.2326 Q531.5599,326.192 532.5442,325.6436 Q533.5286,325.0811 534.6396,325.0811 Q535.3005,325.0811 535.8771,325.2357 Q536.4677,325.3764 536.9599,325.6998 Z " fill="#000000"/><text fill="#000000" font-family="sans-serif" font-size="12.6" lengthAdjust="spacing" textLength="72.8253" x="552.9208" y="334.6295">User_Project</text><line style="stroke:#181818;stroke-width:0.45;" x1="478.8" x2="670.6169" y1="343.8123" y2="343.8123"/><ellipse cx="487.8" cy="357.1418" fill="none" rx="2.7" ry="2.7" style="stroke:#038048;stroke-width:0.9;"/><text fill="#000000" font-family="sans-serif" font-size="12.6" lengthAdjust="spacing" textLength="30.1157" x="495.9" y="361.009">id: int</text><ellipse cx="487.8" cy="373.9008" fill="none" rx="2.7" ry="2.7" style="stroke:#038048;stroke-width:0.9;"/><text fill="#000000" font-family="sans-serif" font-size="12.6" lengthAdjust="spacing" textLength="58.115" x="495.9" y="377.768">user: User</text><ellipse cx="487.8" cy="390.6598" fill="none" rx="2.7" ry="2.7" style="stroke:#038048;stroke-width:0.9;"/><text fill="#000000" font-family="sans-serif" font-size="12.6" lengthAdjust="spacing" textLength="84.0349" x="495.9" y="394.527">project: Project</text><ellipse cx="487.8" cy="407.4188" fill="none" rx="2.7" ry="2.7" style="stroke:#038048;stroke-width:0.9;"/><text fill="#000000" font-family="sans-serif" font-size="12.6" lengthAdjust="spacing" textLength="93.1403" x="495.9" y="411.2859">role: ProjectRole</text><ellipse cx="487.8" cy="424.1777" fill="none" rx="2.7" ry="2.7" style="stroke:#038048;stroke-width:0.9;"/><text fill="#000000" font-family="sans-serif" font-size="12.6" lengthAdjust="spacing" textLength="166.6978" x="495.9" y="428.0449">created_at: datetime.datetime</text><ellipse cx="487.8" cy="440.9367" fill="none" rx="2.7" ry="2.7" style="stroke:#038048;stroke-width:0.9;"/><text fill="#000000" font-family="sans-serif" font-size="12.6" lengthAdjust="spacing" textLength="170.2169" x="495.9" y="444.8039">updated_at: datetime.datetime</text><ellipse cx="487.8" cy="457.6957" fill="none" rx="2.7" ry="2.7" style="stroke:#038048;stroke-width:0.9;"/><text fill="#000000" font-family="sans-serif" font-size="12.6" lengthAdjust="spacing" textLength="88.2677" x="495.9" y="461.5629">is_deleted: bool</text><line style="stroke:#181818;stroke-width:0.45;" x1="478.8" x2="670.6169" y1="468.3252" y2="468.3252"/></g><!--class CustomList--><g id="elem_CustomList"><rect codeLine="114" fill="#F1F1F1" height="244.3078" id="CustomList" rx="2.25" ry="2.25" style="stroke:#181818;stroke-width:0.45;" width="270.6258" x="439.2" y="39.1623"/><ellipse cx="539.1787" cy="53.5623" fill="#ADD1B2" rx="9.9" ry="9.9" style="stroke:#181818;stroke-width:0.9;"/><path d="M541.6677,49.8498 Q541.8083,49.6529 541.9771,49.5545 Q542.1458,49.4561 542.3427,49.4561 Q542.6802,49.4561 542.8912,49.6951 Q543.1021,49.9201 543.1021,50.4686 L543.1021,51.7764 Q543.1021,52.3248 542.8912,52.5639 Q542.6802,52.8029 542.3427,52.8029 Q542.0333,52.8029 541.8505,52.6201 Q541.6677,52.4514 541.5693,51.9873 Q541.5271,51.6639 541.3583,51.4951 Q541.063,51.1576 540.5146,50.9607 Q539.9662,50.7639 539.4037,50.7639 Q538.7146,50.7639 538.138,51.0592 Q537.5755,51.3545 537.1255,52.0295 Q536.6896,52.7045 536.6896,53.6326 L536.6896,54.617 Q536.6896,55.7279 537.4912,56.4732 Q538.2927,57.2045 539.7271,57.2045 Q540.5708,57.2045 541.1615,56.9795 Q541.513,56.8389 541.8927,56.4451 Q542.1318,56.2061 542.2583,56.1357 Q542.399,56.0654 542.5818,56.0654 Q542.8771,56.0654 543.1021,56.3045 Q543.3412,56.5295 543.3412,56.8389 Q543.3412,57.1482 543.0318,57.5139 Q542.5818,58.0342 541.8646,58.3295 Q540.8943,58.7373 539.7271,58.7373 Q538.363,58.7373 537.2802,58.1748 Q536.3943,57.7248 535.7755,56.7686 Q535.1568,55.7982 535.1568,54.6451 L535.1568,53.6045 Q535.1568,52.4092 535.7052,51.3826 Q536.2677,50.342 537.2521,49.7936 Q538.2365,49.2311 539.3474,49.2311 Q540.0083,49.2311 540.5849,49.3857 Q541.1755,49.5264 541.6677,49.8498 Z " fill="#000000"/><text fill="#000000" font-family="sans-serif" font-size="12.6" lengthAdjust="spacing" textLength="63.0185" x="557.6287" y="58.7795">CustomList</text><line style="stroke:#181818;stroke-width:0.45;" x1="440.1" x2="708.9258" y1="67.9623" y2="67.9623"/><ellipse cx="449.1" cy="81.2918" fill="none" rx="2.7" ry="2.7" style="stroke:#038048;stroke-width:0.9;"/><text fill="#000000" font-family="sans-serif" font-size="12.6" lengthAdjust="spacing" textLength="30.1157" x="457.2" y="85.159">id: int</text><ellipse cx="449.1" cy="98.0508" fill="none" rx="2.7" ry="2.7" style="stroke:#038048;stroke-width:0.9;"/><text fill="#000000" font-family="sans-serif" font-size="12.6" lengthAdjust="spacing" textLength="125.3971" x="457.2" y="101.918">household: Household</text><ellipse cx="449.1" cy="114.8098" fill="none" rx="2.7" ry="2.7" style="stroke:#038048;stroke-width:0.9;"/><text fill="#000000" font-family="sans-serif" font-size="12.6" lengthAdjust="spacing" textLength="95.9458" x="457.2" y="118.677">created_by: User</text><ellipse cx="449.1" cy="131.5688" fill="none" rx="2.7" ry="2.7" style="stroke:#038048;stroke-width:0.9;"/><text fill="#000000" font-family="sans-serif" font-size="12.6" lengthAdjust="spacing" textLength="247.2258" x="457.2" y="135.4359">area_of_responsibility: AreaOfResponsibility</text><ellipse cx="449.1" cy="148.3277" fill="none" rx="2.7" ry="2.7" style="stroke:#038048;stroke-width:0.9;"/><text fill="#000000" font-family="sans-serif" font-size="12.6" lengthAdjust="spacing" textLength="84.0349" x="457.2" y="152.1949">project: Project</text><ellipse cx="449.1" cy="165.0867" fill="none" rx="2.7" ry="2.7" style="stroke:#038048;stroke-width:0.9;"/><text fill="#000000" font-family="sans-serif" font-size="12.6" lengthAdjust="spacing" textLength="40.6055" x="457.2" y="168.9539">title: str</text><ellipse cx="449.1" cy="181.8457" fill="none" rx="2.7" ry="2.7" style="stroke:#038048;stroke-width:0.9;"/><text fill="#000000" font-family="sans-serif" font-size="12.6" lengthAdjust="spacing" textLength="81.9308" x="457.2" y="185.7129">description: str</text><ellipse cx="449.1" cy="198.6047" fill="none" rx="2.7" ry="2.7" style="stroke:#038048;stroke-width:0.9;"/><text fill="#000000" font-family="sans-serif" font-size="12.6" lengthAdjust="spacing" textLength="95.2444" x="457.2" y="202.4719">is_checklist: bool</text><ellipse cx="449.1" cy="215.3637" fill="none" rx="2.7" ry="2.7" style="stroke:#038048;stroke-width:0.9;"/><text fill="#000000" font-family="sans-serif" font-size="12.6" lengthAdjust="spacing" textLength="79.8451" x="457.2" y="219.2309">is_active: bool</text><ellipse cx="449.1" cy="232.1227" fill="none" rx="2.7" ry="2.7" style="stroke:#038048;stroke-width:0.9;"/><text fill="#000000" font-family="sans-serif" font-size="12.6" lengthAdjust="spacing" textLength="166.6978" x="457.2" y="235.9898">created_at: datetime.datetime</text><ellipse cx="449.1" cy="248.8816" fill="none" rx="2.7" ry="2.7" style="stroke:#038048;stroke-width:0.9;"/><text fill="#000000" font-family="sans-serif" font-size="12.6" lengthAdjust="spacing" textLength="170.2169" x="457.2" y="252.7488">updated_at: datetime.datetime</text><ellipse cx="449.1" cy="265.6406" fill="none" rx="2.7" ry="2.7" style="stroke:#038048;stroke-width:0.9;"/><text fill="#000000" font-family="sans-serif" font-size="12.6" lengthAdjust="spacing" textLength="88.2677" x="457.2" y="269.5078">is_deleted: bool</text><line style="stroke:#181818;stroke-width:0.45;" x1="440.1" x2="708.9258" y1="276.2701" y2="276.2701"/></g><!--class CustomListItem--><g id="elem_CustomListItem"><rect codeLine="129" fill="#F1F1F1" height="143.7539" id="CustomListItem" rx="2.25" ry="2.25" style="stroke:#181818;stroke-width:0.45;" width="193.6169" x="802.8" y="891.0123"/><ellipse cx="852.0218" cy="905.4123" fill="#ADD1B2" rx="9.9" ry="9.9" style="stroke:#181818;stroke-width:0.9;"/><path d="M854.5109,901.6998 Q854.6515,901.5029 854.8203,901.4045 Q854.989,901.3061 855.1859,901.3061 Q855.5234,901.3061 855.7343,901.5451 Q855.9453,901.7701 855.9453,902.3186 L855.9453,903.6264 Q855.9453,904.1748 855.7343,904.4139 Q855.5234,904.6529 855.1859,904.6529 Q854.8765,904.6529 854.6937,904.4701 Q854.5109,904.3014 854.4125,903.8373 Q854.3703,903.5139 854.2015,903.3451 Q853.9062,903.0076 853.3578,902.8107 Q852.8093,902.6139 852.2468,902.6139 Q851.5578,902.6139 850.9812,902.9092 Q850.4187,903.2045 849.9687,903.8795 Q849.5328,904.5545 849.5328,905.4826 L849.5328,906.467 Q849.5328,907.5779 850.3343,908.3232 Q851.1359,909.0545 852.5703,909.0545 Q853.414,909.0545 854.0046,908.8295 Q854.3562,908.6889 854.7359,908.2951 Q854.975,908.0561 855.1015,907.9857 Q855.2421,907.9154 855.425,907.9154 Q855.7203,907.9154 855.9453,908.1545 Q856.1843,908.3795 856.1843,908.6889 Q856.1843,908.9982 855.875,909.3639 Q855.425,909.8842 854.7078,910.1795 Q853.7375,910.5873 852.5703,910.5873 Q851.2062,910.5873 850.1234,910.0248 Q849.2375,909.5748 848.6187,908.6186 Q848,907.6482 848,906.4951 L848,905.4545 Q848,904.2592 848.5484,903.2326 Q849.1109,902.192 850.0953,901.6436 Q851.0796,901.0811 852.1906,901.0811 Q852.8515,901.0811 853.4281,901.2357 Q854.0187,901.3764 854.5109,901.6998 Z " fill="#000000"/><text fill="#000000" font-family="sans-serif" font-size="12.6" lengthAdjust="spacing" textLength="87.5232" x="870.4718" y="910.6295">CustomListItem</text><line style="stroke:#181818;stroke-width:0.45;" x1="803.7" x2="995.5169" y1="919.8123" y2="919.8123"/><ellipse cx="812.7" cy="933.1418" fill="none" rx="2.7" ry="2.7" style="stroke:#038048;stroke-width:0.9;"/><text fill="#000000" font-family="sans-serif" font-size="12.6" lengthAdjust="spacing" textLength="30.1157" x="820.8" y="937.009">id: int</text><ellipse cx="812.7" cy="949.9008" fill="none" rx="2.7" ry="2.7" style="stroke:#038048;stroke-width:0.9;"/><text fill="#000000" font-family="sans-serif" font-size="12.6" lengthAdjust="spacing" textLength="125.3971" x="820.8" y="953.768">household: Household</text><ellipse cx="812.7" cy="966.6598" fill="none" rx="2.7" ry="2.7" style="stroke:#038048;stroke-width:0.9;"/><text fill="#000000" font-family="sans-serif" font-size="12.6" lengthAdjust="spacing" textLength="52.5164" x="820.8" y="970.527">name: str</text><ellipse cx="812.7" cy="983.4188" fill="none" rx="2.7" ry="2.7" style="stroke:#038048;stroke-width:0.9;"/><text fill="#000000" font-family="sans-serif" font-size="12.6" lengthAdjust="spacing" textLength="166.6978" x="820.8" y="987.2859">created_at: datetime.datetime</text><ellipse cx="812.7" cy="1000.1777" fill="none" rx="2.7" ry="2.7" style="stroke:#038048;stroke-width:0.9;"/><text fill="#000000" font-family="sans-serif" font-size="12.6" lengthAdjust="spacing" textLength="170.2169" x="820.8" y="1004.0449">updated_at: datetime.datetime</text><ellipse cx="812.7" cy="1016.9367" fill="none" rx="2.7" ry="2.7" style="stroke:#038048;stroke-width:0.9;"/><text fill="#000000" font-family="sans-serif" font-size="12.6" lengthAdjust="spacing" textLength="88.2677" x="820.8" y="1020.8039">is_deleted: bool</text><line style="stroke:#181818;stroke-width:0.45;" x1="803.7" x2="995.5169" y1="1027.5662" y2="1027.5662"/></g><!--class CustomList_CustomListItem--><g id="elem_CustomList_CustomListItem"><rect codeLine="138" fill="#F1F1F1" height="227.5488" id="CustomList_CustomListItem" rx="2.25" ry="2.25" style="stroke:#181818;stroke-width:0.45;" width="223.6772" x="787.5" y="631.3623"/><ellipse cx="817.7976" cy="645.7623" fill="#ADD1B2" rx="9.9" ry="9.9" style="stroke:#181818;stroke-width:0.9;"/><path d="M820.2867,642.0498 Q820.4273,641.8529 820.596,641.7545 Q820.7648,641.6561 820.9617,641.6561 Q821.2992,641.6561 821.5101,641.8951 Q821.721,642.1201 821.721,642.6686 L821.721,643.9764 Q821.721,644.5248 821.5101,644.7639 Q821.2992,645.0029 820.9617,645.0029 Q820.6523,645.0029 820.4695,644.8201 Q820.2867,644.6514 820.1882,644.1873 Q820.146,643.8639 819.9773,643.6951 Q819.682,643.3576 819.1335,643.1607 Q818.5851,642.9639 818.0226,642.9639 Q817.3335,642.9639 816.757,643.2592 Q816.1945,643.5545 815.7445,644.2295 Q815.3085,644.9045 815.3085,645.8326 L815.3085,646.817 Q815.3085,647.9279 816.1101,648.6732 Q816.9117,649.4045 818.346,649.4045 Q819.1898,649.4045 819.7804,649.1795 Q820.132,649.0389 820.5117,648.6451 Q820.7507,648.4061 820.8773,648.3357 Q821.0179,648.2654 821.2007,648.2654 Q821.496,648.2654 821.721,648.5045 Q821.9601,648.7295 821.9601,649.0389 Q821.9601,649.3482 821.6507,649.7139 Q821.2007,650.2342 820.4835,650.5295 Q819.5132,650.9373 818.346,650.9373 Q816.982,650.9373 815.8992,650.3748 Q815.0132,649.9248 814.3945,648.9686 Q813.7757,647.9982 813.7757,646.8451 L813.7757,645.8045 Q813.7757,644.6092 814.3242,643.5826 Q814.8867,642.542 815.871,641.9936 Q816.8554,641.4311 817.9664,641.4311 Q818.6273,641.4311 819.2039,641.5857 Q819.7945,641.7264 820.2867,642.0498 Z " fill="#000000"/><text fill="#000000" font-family="sans-serif" font-size="12.6" lengthAdjust="spacing" textLength="157.5492" x="834.1304" y="650.9795">CustomList_CustomListItem</text><line style="stroke:#181818;stroke-width:0.45;" x1="788.4" x2="1010.2772" y1="660.1623" y2="660.1623"/><ellipse cx="797.4" cy="673.4918" fill="none" rx="2.7" ry="2.7" style="stroke:#038048;stroke-width:0.9;"/><text fill="#000000" font-family="sans-serif" font-size="12.6" lengthAdjust="spacing" textLength="30.1157" x="805.5" y="677.359">id: int</text><ellipse cx="797.4" cy="690.2508" fill="none" rx="2.7" ry="2.7" style="stroke:#038048;stroke-width:0.9;"/><text fill="#000000" font-family="sans-serif" font-size="12.6" lengthAdjust="spacing" textLength="85.4191" x="805.5" y="694.118">list: CustomList</text><ellipse cx="797.4" cy="707.0098" fill="none" rx="2.7" ry="2.7" style="stroke:#038048;stroke-width:0.9;"/><text fill="#000000" font-family="sans-serif" font-size="12.6" lengthAdjust="spacing" textLength="118.328" x="805.5" y="710.877">item: CustomListItem</text><ellipse cx="797.4" cy="723.7688" fill="none" rx="2.7" ry="2.7" style="stroke:#038048;stroke-width:0.9;"/><text fill="#000000" font-family="sans-serif" font-size="12.6" lengthAdjust="spacing" textLength="200.2772" x="805.5" y="727.6359">parent: CustomList_CustomListItem</text><ellipse cx="797.4" cy="740.5277" fill="none" rx="2.7" ry="2.7" style="stroke:#038048;stroke-width:0.9;"/><text fill="#000000" font-family="sans-serif" font-size="12.6" lengthAdjust="spacing" textLength="74.9479" x="805.5" y="744.3949">quantity: float</text><ellipse cx="797.4" cy="757.2867" fill="none" rx="2.7" ry="2.7" style="stroke:#038048;stroke-width:0.9;"/><text fill="#000000" font-family="sans-serif" font-size="12.6" lengthAdjust="spacing" textLength="41.313" x="805.5" y="761.1539">unit: str</text><ellipse cx="797.4" cy="774.0457" fill="none" rx="2.7" ry="2.7" style="stroke:#038048;stroke-width:0.9;"/><text fill="#000000" font-family="sans-serif" font-size="12.6" lengthAdjust="spacing" textLength="45.5212" x="805.5" y="777.9129">note: str</text><ellipse cx="797.4" cy="790.8047" fill="none" rx="2.7" ry="2.7" style="stroke:#038048;stroke-width:0.9;"/><text fill="#000000" font-family="sans-serif" font-size="12.6" lengthAdjust="spacing" textLength="74.9602" x="805.5" y="794.6719">is_done: bool</text><ellipse cx="797.4" cy="807.5637" fill="none" rx="2.7" ry="2.7" style="stroke:#038048;stroke-width:0.9;"/><text fill="#000000" font-family="sans-serif" font-size="12.6" lengthAdjust="spacing" textLength="166.6978" x="805.5" y="811.4309">created_at: datetime.datetime</text><ellipse cx="797.4" cy="824.3227" fill="none" rx="2.7" ry="2.7" style="stroke:#038048;stroke-width:0.9;"/><text fill="#000000" font-family="sans-serif" font-size="12.6" lengthAdjust="spacing" textLength="170.2169" x="805.5" y="828.1898">updated_at: datetime.datetime</text><ellipse cx="797.4" cy="841.0816" fill="none" rx="2.7" ry="2.7" style="stroke:#038048;stroke-width:0.9;"/><text fill="#000000" font-family="sans-serif" font-size="12.6" lengthAdjust="spacing" textLength="88.2677" x="805.5" y="844.9488">is_deleted: bool</text><line style="stroke:#181818;stroke-width:0.45;" x1="788.4" x2="1010.2772" y1="851.7111" y2="851.7111"/></g><!--class Task--><g id="elem_Task"><rect codeLine="155" fill="#F1F1F1" height="277.8258" id="Task" rx="2.25" ry="2.25" style="stroke:#181818;stroke-width:0.45;" width="270.6258" x="764.1" y="321.7623"/><ellipse cx="881.9358" cy="336.1623" fill="#ADD1B2" rx="9.9" ry="9.9" style="stroke:#181818;stroke-width:0.9;"/><path d="M884.4249,332.4498 Q884.5655,332.2529 884.7343,332.1545 Q884.903,332.0561 885.0999,332.0561 Q885.4374,332.0561 885.6483,332.2951 Q885.8593,332.5201 885.8593,333.0686 L885.8593,334.3764 Q885.8593,334.9248 885.6483,335.1639 Q885.4374,335.4029 885.0999,335.4029 Q884.7905,335.4029 884.6077,335.2201 Q884.4249,335.0514 884.3265,334.5873 Q884.2843,334.2639 884.1155,334.0951 Q883.8202,333.7576 883.2718,333.5607 Q882.7233,333.3639 882.1608,333.3639 Q881.4718,333.3639 880.8952,333.6592 Q880.3327,333.9545 879.8827,334.6295 Q879.4468,335.3045 879.4468,336.2326 L879.4468,337.217 Q879.4468,338.3279 880.2483,339.0732 Q881.0499,339.8045 882.4843,339.8045 Q883.328,339.8045 883.9187,339.5795 Q884.2702,339.4389 884.6499,339.0451 Q884.889,338.8061 885.0155,338.7357 Q885.1562,338.6654 885.339,338.6654 Q885.6343,338.6654 885.8593,338.9045 Q886.0983,339.1295 886.0983,339.4389 Q886.0983,339.7482 885.789,340.1139 Q885.339,340.6342 884.6218,340.9295 Q883.6515,341.3373 882.4843,341.3373 Q881.1202,341.3373 880.0374,340.7748 Q879.1515,340.3248 878.5327,339.3686 Q877.914,338.3982 877.914,337.2451 L877.914,336.2045 Q877.914,335.0092 878.4624,333.9826 Q879.0249,332.942 880.0093,332.3936 Q880.9937,331.8311 882.1046,331.8311 Q882.7655,331.8311 883.3421,331.9857 Q883.9327,332.1264 884.4249,332.4498 Z " fill="#000000"/><text fill="#000000" font-family="sans-serif" font-size="12.6" lengthAdjust="spacing" textLength="27.3041" x="900.3858" y="341.3795">Task</text><line style="stroke:#181818;stroke-width:0.45;" x1="765" x2="1033.8258" y1="350.5623" y2="350.5623"/><ellipse cx="774" cy="363.8918" fill="none" rx="2.7" ry="2.7" style="stroke:#038048;stroke-width:0.9;"/><text fill="#000000" font-family="sans-serif" font-size="12.6" lengthAdjust="spacing" textLength="30.1157" x="782.1" y="367.759">id: int</text><ellipse cx="774" cy="380.6508" fill="none" rx="2.7" ry="2.7" style="stroke:#038048;stroke-width:0.9;"/><text fill="#000000" font-family="sans-serif" font-size="12.6" lengthAdjust="spacing" textLength="125.3971" x="782.1" y="384.518">household: Household</text><ellipse cx="774" cy="397.4098" fill="none" rx="2.7" ry="2.7" style="stroke:#038048;stroke-width:0.9;"/><text fill="#000000" font-family="sans-serif" font-size="12.6" lengthAdjust="spacing" textLength="247.2258" x="782.1" y="401.277">area_of_responsibility: AreaOfResponsibility</text><ellipse cx="774" cy="414.1688" fill="none" rx="2.7" ry="2.7" style="stroke:#038048;stroke-width:0.9;"/><text fill="#000000" font-family="sans-serif" font-size="12.6" lengthAdjust="spacing" textLength="95.9458" x="782.1" y="418.0359">created_by: User</text><ellipse cx="774" cy="430.9277" fill="none" rx="2.7" ry="2.7" style="stroke:#038048;stroke-width:0.9;"/><text fill="#000000" font-family="sans-serif" font-size="12.6" lengthAdjust="spacing" textLength="101.5567" x="782.1" y="434.7949">assigned_to: User</text><ellipse cx="774" cy="447.6867" fill="none" rx="2.7" ry="2.7" style="stroke:#038048;stroke-width:0.9;"/><text fill="#000000" font-family="sans-serif" font-size="12.6" lengthAdjust="spacing" textLength="84.0103" x="782.1" y="451.5539">priority: Priority</text><ellipse cx="774" cy="464.4457" fill="none" rx="2.7" ry="2.7" style="stroke:#038048;stroke-width:0.9;"/><text fill="#000000" font-family="sans-serif" font-size="12.6" lengthAdjust="spacing" textLength="76.3383" x="782.1" y="468.3129">status: Status</text><ellipse cx="774" cy="481.2047" fill="none" rx="2.7" ry="2.7" style="stroke:#038048;stroke-width:0.9;"/><text fill="#000000" font-family="sans-serif" font-size="12.6" lengthAdjust="spacing" textLength="96.6472" x="782.1" y="485.0719">is_recurring: bool</text><ellipse cx="774" cy="497.9637" fill="none" rx="2.7" ry="2.7" style="stroke:#038048;stroke-width:0.9;"/><text fill="#000000" font-family="sans-serif" font-size="12.6" lengthAdjust="spacing" textLength="40.6055" x="782.1" y="501.8309">title: str</text><ellipse cx="774" cy="514.7227" fill="none" rx="2.7" ry="2.7" style="stroke:#038048;stroke-width:0.9;"/><text fill="#000000" font-family="sans-serif" font-size="12.6" lengthAdjust="spacing" textLength="81.9308" x="782.1" y="518.5898">description: str</text><ellipse cx="774" cy="531.4816" fill="none" rx="2.7" ry="2.7" style="stroke:#038048;stroke-width:0.9;"/><text fill="#000000" font-family="sans-serif" font-size="12.6" lengthAdjust="spacing" textLength="152.7012" x="782.1" y="535.3488">done_at: datetime.datetime</text><ellipse cx="774" cy="548.2406" fill="none" rx="2.7" ry="2.7" style="stroke:#038048;stroke-width:0.9;"/><text fill="#000000" font-family="sans-serif" font-size="12.6" lengthAdjust="spacing" textLength="166.6978" x="782.1" y="552.1078">created_at: datetime.datetime</text><ellipse cx="774" cy="564.9996" fill="none" rx="2.7" ry="2.7" style="stroke:#038048;stroke-width:0.9;"/><text fill="#000000" font-family="sans-serif" font-size="12.6" lengthAdjust="spacing" textLength="170.2169" x="782.1" y="568.8668">updated_at: datetime.datetime</text><ellipse cx="774" cy="581.7586" fill="none" rx="2.7" ry="2.7" style="stroke:#038048;stroke-width:0.9;"/><text fill="#000000" font-family="sans-serif" font-size="12.6" lengthAdjust="spacing" textLength="88.2677" x="782.1" y="585.6258">is_deleted: bool</text><line style="stroke:#181818;stroke-width:0.45;" x1="765" x2="1033.8258" y1="592.3881" y2="592.3881"/></g><!--class Priority--><g id="elem_Priority"><rect codeLine="172" fill="#F1F1F1" height="110.2359" id="Priority" rx="2.25" ry="2.25" style="stroke:#181818;stroke-width:0.45;" width="76.9808" x="860.85" y="180.0123"/><ellipse cx="878.3901" cy="194.4123" fill="#EB937F" rx="9.9" ry="9.9" style="stroke:#181818;stroke-width:0.9;"/><path d="M877.3635,195.1295 L877.3635,197.3795 L881.2589,197.3795 L881.2589,196.5498 Q881.2589,196.0014 881.4698,195.7623 Q881.6948,195.5232 882.0323,195.5232 Q882.3698,195.5232 882.5807,195.7623 Q882.7917,196.0014 882.7917,196.5498 L882.7917,198.9123 L875.5917,198.9123 Q875.0292,198.9123 874.7901,198.7014 Q874.5651,198.4904 874.5651,198.1389 Q874.5651,197.8014 874.8042,197.5904 Q875.0432,197.3795 875.5917,197.3795 L875.8307,197.3795 L875.8307,191.3889 L875.5917,191.3889 Q875.0292,191.3889 874.7901,191.1779 Q874.5651,190.967 874.5651,190.6154 Q874.5651,190.2779 874.7901,190.067 Q875.0292,189.8561 875.5917,189.8561 L882.4542,189.8561 L882.4542,192.1904 Q882.4542,192.7389 882.2432,192.9779 Q882.0464,193.2029 881.6948,193.2029 Q881.3573,193.2029 881.1464,192.9779 Q880.9354,192.7389 880.9354,192.1904 L880.9354,191.3889 L877.3635,191.3889 L877.3635,193.5967 L878.6995,193.5967 Q878.6995,193.0061 878.812,192.8373 Q879.051,192.4717 879.4729,192.4717 Q879.8104,192.4717 880.0214,192.7107 Q880.2323,192.9357 880.2323,193.4842 L880.2323,195.2561 Q880.2323,195.7482 880.1198,195.917 Q879.8807,196.2686 879.4729,196.2686 Q879.051,196.2686 878.812,195.9029 Q878.6995,195.7342 878.6995,195.1295 L877.3635,195.1295 Z " fill="#000000"/><text fill="#000000" font-family="sans-serif" font-size="12.6" lengthAdjust="spacing" textLength="39.2027" x="891.8879" y="199.6295">Priority</text><line style="stroke:#181818;stroke-width:0.45;" x1="861.75" x2="936.9308" y1="208.8123" y2="208.8123"/><text fill="#000000" font-family="sans-serif" font-size="12.6" lengthAdjust="spacing" textLength="57.0938" x="866.25" y="226.009">urgent = 1</text><text fill="#000000" font-family="sans-serif" font-size="12.6" lengthAdjust="spacing" textLength="45.189" x="866.25" y="242.768">high = 2</text><text fill="#000000" font-family="sans-serif" font-size="12.6" lengthAdjust="spacing" textLength="66.1808" x="866.25" y="259.527">medium = 3</text><text fill="#000000" font-family="sans-serif" font-size="12.6" lengthAdjust="spacing" textLength="40.2732" x="866.25" y="276.2859">low = 4</text><line style="stroke:#181818;stroke-width:0.45;" x1="861.75" x2="936.9308" y1="283.0482" y2="283.0482"/></g><!--class Status--><g id="elem_Status"><rect codeLine="179" fill="#F1F1F1" height="110.2359" id="Status" rx="2.25" ry="2.25" style="stroke:#181818;stroke-width:0.45;" width="98.0033" x="850.5" y="38.7123"/><ellipse cx="879.0673" cy="53.1123" fill="#EB937F" rx="9.9" ry="9.9" style="stroke:#181818;stroke-width:0.9;"/><path d="M878.0407,53.8295 L878.0407,56.0795 L881.936,56.0795 L881.936,55.2498 Q881.936,54.7014 882.147,54.4623 Q882.372,54.2232 882.7095,54.2232 Q883.047,54.2232 883.2579,54.4623 Q883.4688,54.7014 883.4688,55.2498 L883.4688,57.6123 L876.2688,57.6123 Q875.7063,57.6123 875.4673,57.4014 Q875.2423,57.1904 875.2423,56.8389 Q875.2423,56.5014 875.4813,56.2904 Q875.7204,56.0795 876.2688,56.0795 L876.5079,56.0795 L876.5079,50.0889 L876.2688,50.0889 Q875.7063,50.0889 875.4673,49.8779 Q875.2423,49.667 875.2423,49.3154 Q875.2423,48.9779 875.4673,48.767 Q875.7063,48.5561 876.2688,48.5561 L883.1313,48.5561 L883.1313,50.8904 Q883.1313,51.4389 882.9204,51.6779 Q882.7235,51.9029 882.372,51.9029 Q882.0345,51.9029 881.8235,51.6779 Q881.6126,51.4389 881.6126,50.8904 L881.6126,50.0889 L878.0407,50.0889 L878.0407,52.2967 L879.3766,52.2967 Q879.3766,51.7061 879.4891,51.5373 Q879.7282,51.1717 880.1501,51.1717 Q880.4876,51.1717 880.6985,51.4107 Q880.9095,51.6357 880.9095,52.1842 L880.9095,53.9561 Q880.9095,54.4482 880.797,54.617 Q880.5579,54.9686 880.1501,54.9686 Q879.7282,54.9686 879.4891,54.6029 Q879.3766,54.4342 879.3766,53.8295 L878.0407,53.8295 Z " fill="#000000"/><text fill="#000000" font-family="sans-serif" font-size="12.6" lengthAdjust="spacing" textLength="35.7205" x="895.0155" y="58.3295">Status</text><line style="stroke:#181818;stroke-width:0.45;" x1="851.4" x2="947.6033" y1="67.5123" y2="67.5123"/><text fill="#000000" font-family="sans-serif" font-size="12.6" lengthAdjust="spacing" textLength="64.7965" x="855.9" y="84.709">backlog = 1</text><text fill="#000000" font-family="sans-serif" font-size="12.6" lengthAdjust="spacing" textLength="52.8979" x="855.9" y="101.468">to_do = 2</text><text fill="#000000" font-family="sans-serif" font-size="12.6" lengthAdjust="spacing" textLength="87.2033" x="855.9" y="118.227">in_progress = 3</text><text fill="#000000" font-family="sans-serif" font-size="12.6" lengthAdjust="spacing" textLength="49.3972" x="855.9" y="134.9859">done = 4</text><line style="stroke:#181818;stroke-width:0.45;" x1="851.4" x2="947.6033" y1="141.7482" y2="141.7482"/></g><!--class Task_TaskHelper--><g id="elem_Task_TaskHelper"><rect codeLine="186" fill="#F1F1F1" height="143.7539" id="Task_TaskHelper" rx="2.25" ry="2.25" style="stroke:#181818;stroke-width:0.45;" width="193.6169" x="1127.7" y="891.0123"/><ellipse cx="1171.317" cy="905.4123" fill="#ADD1B2" rx="9.9" ry="9.9" style="stroke:#181818;stroke-width:0.9;"/><path d="M1173.8061,901.6998 Q1173.9467,901.5029 1174.1155,901.4045 Q1174.2842,901.3061 1174.4811,901.3061 Q1174.8186,901.3061 1175.0295,901.5451 Q1175.2405,901.7701 1175.2405,902.3186 L1175.2405,903.6264 Q1175.2405,904.1748 1175.0295,904.4139 Q1174.8186,904.6529 1174.4811,904.6529 Q1174.1717,904.6529 1173.9889,904.4701 Q1173.8061,904.3014 1173.7077,903.8373 Q1173.6655,903.5139 1173.4967,903.3451 Q1173.2014,903.0076 1172.653,902.8107 Q1172.1045,902.6139 1171.542,902.6139 Q1170.853,902.6139 1170.2764,902.9092 Q1169.7139,903.2045 1169.2639,903.8795 Q1168.828,904.5545 1168.828,905.4826 L1168.828,906.467 Q1168.828,907.5779 1169.6295,908.3232 Q1170.4311,909.0545 1171.8655,909.0545 Q1172.7092,909.0545 1173.2999,908.8295 Q1173.6514,908.6889 1174.0311,908.2951 Q1174.2702,908.0561 1174.3967,907.9857 Q1174.5374,907.9154 1174.7202,907.9154 Q1175.0155,907.9154 1175.2405,908.1545 Q1175.4795,908.3795 1175.4795,908.6889 Q1175.4795,908.9982 1175.1702,909.3639 Q1174.7202,909.8842 1174.003,910.1795 Q1173.0327,910.5873 1171.8655,910.5873 Q1170.5014,910.5873 1169.4186,910.0248 Q1168.5327,909.5748 1167.9139,908.6186 Q1167.2952,907.6482 1167.2952,906.4951 L1167.2952,905.4545 Q1167.2952,904.2592 1167.8436,903.2326 Q1168.4061,902.192 1169.3905,901.6436 Q1170.3749,901.0811 1171.4858,901.0811 Q1172.1467,901.0811 1172.7233,901.2357 Q1173.3139,901.3764 1173.8061,901.6998 Z " fill="#000000"/><text fill="#000000" font-family="sans-serif" font-size="12.6" lengthAdjust="spacing" textLength="98.7328" x="1189.767" y="910.6295">Task_TaskHelper</text><line style="stroke:#181818;stroke-width:0.45;" x1="1128.6" x2="1320.4169" y1="919.8123" y2="919.8123"/><ellipse cx="1137.6" cy="933.1418" fill="none" rx="2.7" ry="2.7" style="stroke:#038048;stroke-width:0.9;"/><text fill="#000000" font-family="sans-serif" font-size="12.6" lengthAdjust="spacing" textLength="30.1157" x="1145.7" y="937.009">id: int</text><ellipse cx="1137.6" cy="949.9008" fill="none" rx="2.7" ry="2.7" style="stroke:#038048;stroke-width:0.9;"/><text fill="#000000" font-family="sans-serif" font-size="12.6" lengthAdjust="spacing" textLength="58.115" x="1145.7" y="953.768">user: User</text><ellipse cx="1137.6" cy="966.6598" fill="none" rx="2.7" ry="2.7" style="stroke:#038048;stroke-width:0.9;"/><text fill="#000000" font-family="sans-serif" font-size="12.6" lengthAdjust="spacing" textLength="57.4137" x="1145.7" y="970.527">task: Task</text><ellipse cx="1137.6" cy="983.4188" fill="none" rx="2.7" ry="2.7" style="stroke:#038048;stroke-width:0.9;"/><text fill="#000000" font-family="sans-serif" font-size="12.6" lengthAdjust="spacing" textLength="166.6978" x="1145.7" y="987.2859">created_at: datetime.datetime</text><ellipse cx="1137.6" cy="1000.1777" fill="none" rx="2.7" ry="2.7" style="stroke:#038048;stroke-width:0.9;"/><text fill="#000000" font-family="sans-serif" font-size="12.6" lengthAdjust="spacing" textLength="170.2169" x="1145.7" y="1004.0449">updated_at: datetime.datetime</text><ellipse cx="1137.6" cy="1016.9367" fill="none" rx="2.7" ry="2.7" style="stroke:#038048;stroke-width:0.9;"/><text fill="#000000" font-family="sans-serif" font-size="12.6" lengthAdjust="spacing" textLength="88.2677" x="1145.7" y="1020.8039">is_deleted: bool</text><line style="stroke:#181818;stroke-width:0.45;" x1="1128.6" x2="1320.4169" y1="1027.5662" y2="1027.5662"/></g><!--class RecurrenceCycle--><g id="elem_RecurrenceCycle"><rect codeLine="195" fill="#F1F1F1" height="110.2359" id="RecurrenceCycle" rx="2.25" ry="2.25" style="stroke:#181818;stroke-width:0.45;" width="125.4349" x="1161.9" y="749.7123"/><ellipse cx="1175.4" cy="764.1123" fill="#EB937F" rx="9.9" ry="9.9" style="stroke:#181818;stroke-width:0.9;"/><path d="M1174.3734,764.8295 L1174.3734,767.0795 L1178.2688,767.0795 L1178.2688,766.2498 Q1178.2688,765.7014 1178.4797,765.4623 Q1178.7047,765.2232 1179.0422,765.2232 Q1179.3797,765.2232 1179.5906,765.4623 Q1179.8016,765.7014 1179.8016,766.2498 L1179.8016,768.6123 L1172.6016,768.6123 Q1172.0391,768.6123 1171.8,768.4014 Q1171.575,768.1904 1171.575,767.8389 Q1171.575,767.5014 1171.8141,767.2904 Q1172.0531,767.0795 1172.6016,767.0795 L1172.8406,767.0795 L1172.8406,761.0889 L1172.6016,761.0889 Q1172.0391,761.0889 1171.8,760.8779 Q1171.575,760.667 1171.575,760.3154 Q1171.575,759.9779 1171.8,759.767 Q1172.0391,759.5561 1172.6016,759.5561 L1179.4641,759.5561 L1179.4641,761.8904 Q1179.4641,762.4389 1179.2531,762.6779 Q1179.0563,762.9029 1178.7047,762.9029 Q1178.3672,762.9029 1178.1563,762.6779 Q1177.9453,762.4389 1177.9453,761.8904 L1177.9453,761.0889 L1174.3734,761.0889 L1174.3734,763.2967 L1175.7094,763.2967 Q1175.7094,762.7061 1175.8219,762.5373 Q1176.0609,762.1717 1176.4828,762.1717 Q1176.8203,762.1717 1177.0313,762.4107 Q1177.2422,762.6357 1177.2422,763.1842 L1177.2422,764.9561 Q1177.2422,765.4482 1177.1297,765.617 Q1176.8906,765.9686 1176.4828,765.9686 Q1176.0609,765.9686 1175.8219,765.6029 Q1175.7094,765.4342 1175.7094,764.8295 L1174.3734,764.8295 Z " fill="#000000"/><text fill="#000000" font-family="sans-serif" font-size="12.6" lengthAdjust="spacing" textLength="96.6349" x="1188" y="769.3295">RecurrenceCycle</text><line style="stroke:#181818;stroke-width:0.45;" x1="1162.8" x2="1286.4349" y1="778.5123" y2="778.5123"/><text fill="#000000" font-family="sans-serif" font-size="12.6" lengthAdjust="spacing" textLength="47.2808" x="1167.3" y="795.709">daily = 1</text><text fill="#000000" font-family="sans-serif" font-size="12.6" lengthAdjust="spacing" textLength="59.8808" x="1167.3" y="812.468">weekly = 2</text><text fill="#000000" font-family="sans-serif" font-size="12.6" lengthAdjust="spacing" textLength="65.4855" x="1167.3" y="829.227">monthly = 3</text><text fill="#000000" font-family="sans-serif" font-size="12.6" lengthAdjust="spacing" textLength="54.9773" x="1167.3" y="845.9859">yearly = 4</text><line style="stroke:#181818;stroke-width:0.45;" x1="1162.8" x2="1286.4349" y1="852.7482" y2="852.7482"/></g><!--class RecurringTask--><g id="elem_RecurringTask"><rect codeLine="202" fill="#F1F1F1" height="160.5129" id="RecurringTask" rx="2.25" ry="2.25" style="stroke:#181818;stroke-width:0.45;" width="222.9759" x="1112.85" y="558.0123"/><ellipse cx="1179.5506" cy="572.4123" fill="#ADD1B2" rx="9.9" ry="9.9" style="stroke:#181818;stroke-width:0.9;"/><path d="M1182.0397,568.6998 Q1182.1803,568.5029 1182.3491,568.4045 Q1182.5178,568.3061 1182.7147,568.3061 Q1183.0522,568.3061 1183.2631,568.5451 Q1183.4741,568.7701 1183.4741,569.3186 L1183.4741,570.6264 Q1183.4741,571.1748 1183.2631,571.4139 Q1183.0522,571.6529 1182.7147,571.6529 Q1182.4053,571.6529 1182.2225,571.4701 Q1182.0397,571.3014 1181.9413,570.8373 Q1181.8991,570.5139 1181.7303,570.3451 Q1181.435,570.0076 1180.8866,569.8107 Q1180.3381,569.6139 1179.7756,569.6139 Q1179.0866,569.6139 1178.51,569.9092 Q1177.9475,570.2045 1177.4975,570.8795 Q1177.0616,571.5545 1177.0616,572.4826 L1177.0616,573.467 Q1177.0616,574.5779 1177.8631,575.3232 Q1178.6647,576.0545 1180.0991,576.0545 Q1180.9428,576.0545 1181.5334,575.8295 Q1181.885,575.6889 1182.2647,575.2951 Q1182.5038,575.0561 1182.6303,574.9857 Q1182.7709,574.9154 1182.9538,574.9154 Q1183.2491,574.9154 1183.4741,575.1545 Q1183.7131,575.3795 1183.7131,575.6889 Q1183.7131,575.9982 1183.4038,576.3639 Q1182.9538,576.8842 1182.2366,577.1795 Q1181.2663,577.5873 1180.0991,577.5873 Q1178.735,577.5873 1177.6522,577.0248 Q1176.7663,576.5748 1176.1475,575.6186 Q1175.5288,574.6482 1175.5288,573.4951 L1175.5288,572.4545 Q1175.5288,571.2592 1176.0772,570.2326 Q1176.6397,569.192 1177.6241,568.6436 Q1178.6084,568.0811 1179.7194,568.0811 Q1180.3803,568.0811 1180.9569,568.2357 Q1181.5475,568.3764 1182.0397,568.6998 Z " fill="#000000"/><text fill="#000000" font-family="sans-serif" font-size="12.6" lengthAdjust="spacing" textLength="81.9246" x="1198.0006" y="577.6295">RecurringTask</text><line style="stroke:#181818;stroke-width:0.45;" x1="1113.75" x2="1334.9259" y1="586.8123" y2="586.8123"/><ellipse cx="1122.75" cy="600.1418" fill="none" rx="2.7" ry="2.7" style="stroke:#038048;stroke-width:0.9;"/><text fill="#000000" font-family="sans-serif" font-size="12.6" lengthAdjust="spacing" textLength="199.5759" x="1130.85" y="604.009">recurrence_cycle: RecurrenceCycle</text><ellipse cx="1122.75" cy="616.9008" fill="none" rx="2.7" ry="2.7" style="stroke:#038048;stroke-width:0.9;"/><text fill="#000000" font-family="sans-serif" font-size="12.6" lengthAdjust="spacing" textLength="128.1595" x="1130.85" y="620.768">recurrence_interval: int</text><ellipse cx="1122.75" cy="633.6598" fill="none" rx="2.7" ry="2.7" style="stroke:#038048;stroke-width:0.9;"/><text fill="#000000" font-family="sans-serif" font-size="12.6" lengthAdjust="spacing" textLength="183.506" x="1130.85" y="637.527">next_reset_at: datetime.datetime</text><ellipse cx="1122.75" cy="650.4188" fill="none" rx="2.7" ry="2.7" style="stroke:#038048;stroke-width:0.9;"/><text fill="#000000" font-family="sans-serif" font-size="12.6" lengthAdjust="spacing" textLength="79.8451" x="1130.85" y="654.2859">is_active: bool</text><ellipse cx="1122.75" cy="667.1777" fill="none" rx="2.7" ry="2.7" style="stroke:#038048;stroke-width:0.9;"/><text fill="#000000" font-family="sans-serif" font-size="12.6" lengthAdjust="spacing" textLength="166.6978" x="1130.85" y="671.0449">created_at: datetime.datetime</text><ellipse cx="1122.75" cy="683.9367" fill="none" rx="2.7" ry="2.7" style="stroke:#038048;stroke-width:0.9;"/><text fill="#000000" font-family="sans-serif" font-size="12.6" lengthAdjust="spacing" textLength="170.2169" x="1130.85" y="687.8039">updated_at: datetime.datetime</text><ellipse cx="1122.75" cy="700.6957" fill="none" rx="2.7" ry="2.7" style="stroke:#038048;stroke-width:0.9;"/><text fill="#000000" font-family="sans-serif" font-size="12.6" lengthAdjust="spacing" textLength="88.2677" x="1130.85" y="704.5629">is_deleted: bool</text><line style="stroke:#181818;stroke-width:0.45;" x1="1113.75" x2="1334.9259" y1="711.3252" y2="711.3252"/></g><!--class NonRecurringTask--><g id="elem_NonRecurringTask"><rect codeLine="212" fill="#F1F1F1" height="126.9949" id="NonRecurringTask" rx="2.25" ry="2.25" style="stroke:#181818;stroke-width:0.45;" width="193.6169" x="1127.7" y="399.1623"/><ellipse cx="1168.164" cy="413.5623" fill="#ADD1B2" rx="9.9" ry="9.9" style="stroke:#181818;stroke-width:0.9;"/><path d="M1170.653,409.8498 Q1170.7937,409.6529 1170.9624,409.5545 Q1171.1312,409.4561 1171.328,409.4561 Q1171.6655,409.4561 1171.8765,409.6951 Q1172.0874,409.9201 1172.0874,410.4686 L1172.0874,411.7764 Q1172.0874,412.3248 1171.8765,412.5639 Q1171.6655,412.8029 1171.328,412.8029 Q1171.0187,412.8029 1170.8358,412.6201 Q1170.653,412.4514 1170.5546,411.9873 Q1170.5124,411.6639 1170.3437,411.4951 Q1170.0483,411.1576 1169.4999,410.9607 Q1168.9515,410.7639 1168.389,410.7639 Q1167.6999,410.7639 1167.1233,411.0592 Q1166.5608,411.3545 1166.1108,412.0295 Q1165.6749,412.7045 1165.6749,413.6326 L1165.6749,414.617 Q1165.6749,415.7279 1166.4765,416.4732 Q1167.278,417.2045 1168.7124,417.2045 Q1169.5562,417.2045 1170.1468,416.9795 Q1170.4983,416.8389 1170.878,416.4451 Q1171.1171,416.2061 1171.2437,416.1357 Q1171.3843,416.0654 1171.5671,416.0654 Q1171.8624,416.0654 1172.0874,416.3045 Q1172.3265,416.5295 1172.3265,416.8389 Q1172.3265,417.1482 1172.0171,417.5139 Q1171.5671,418.0342 1170.8499,418.3295 Q1169.8796,418.7373 1168.7124,418.7373 Q1167.3483,418.7373 1166.2655,418.1748 Q1165.3796,417.7248 1164.7608,416.7686 Q1164.1421,415.7982 1164.1421,414.6451 L1164.1421,413.6045 Q1164.1421,412.4092 1164.6905,411.3826 Q1165.253,410.342 1166.2374,409.7936 Q1167.2218,409.2311 1168.3327,409.2311 Q1168.9937,409.2311 1169.5702,409.3857 Q1170.1608,409.5264 1170.653,409.8498 Z " fill="#000000"/><text fill="#000000" font-family="sans-serif" font-size="12.6" lengthAdjust="spacing" textLength="105.039" x="1186.614" y="418.7795">NonRecurringTask</text><line style="stroke:#181818;stroke-width:0.45;" x1="1128.6" x2="1320.4169" y1="427.9623" y2="427.9623"/><ellipse cx="1137.6" cy="441.2918" fill="none" rx="2.7" ry="2.7" style="stroke:#038048;stroke-width:0.9;"/><text fill="#000000" font-family="sans-serif" font-size="12.6" lengthAdjust="spacing" textLength="84.0349" x="1145.7" y="445.159">project: Project</text><ellipse cx="1137.6" cy="458.0508" fill="none" rx="2.7" ry="2.7" style="stroke:#038048;stroke-width:0.9;"/><text fill="#000000" font-family="sans-serif" font-size="12.6" lengthAdjust="spacing" textLength="154.7991" x="1145.7" y="461.918">deadline: datetime.datetime</text><ellipse cx="1137.6" cy="474.8098" fill="none" rx="2.7" ry="2.7" style="stroke:#038048;stroke-width:0.9;"/><text fill="#000000" font-family="sans-serif" font-size="12.6" lengthAdjust="spacing" textLength="166.6978" x="1145.7" y="478.677">created_at: datetime.datetime</text><ellipse cx="1137.6" cy="491.5688" fill="none" rx="2.7" ry="2.7" style="stroke:#038048;stroke-width:0.9;"/><text fill="#000000" font-family="sans-serif" font-size="12.6" lengthAdjust="spacing" textLength="170.2169" x="1145.7" y="495.4359">updated_at: datetime.datetime</text><ellipse cx="1137.6" cy="508.3277" fill="none" rx="2.7" ry="2.7" style="stroke:#038048;stroke-width:0.9;"/><text fill="#000000" font-family="sans-serif" font-size="12.6" lengthAdjust="spacing" textLength="88.2677" x="1145.7" y="512.1949">is_deleted: bool</text><line style="stroke:#181818;stroke-width:0.45;" x1="1128.6" x2="1320.4169" y1="518.9572" y2="518.9572"/></g><!--class ShoppingList--><g id="elem_ShoppingList"><rect codeLine="223" fill="#F1F1F1" height="194.0309" id="ShoppingList" rx="2.25" ry="2.25" style="stroke:#181818;stroke-width:0.45;" width="270.6258" x="1089" y="172.8123"/><ellipse cx="1184.0599" cy="187.2123" fill="#ADD1B2" rx="9.9" ry="9.9" style="stroke:#181818;stroke-width:0.9;"/><path d="M1186.5489,183.4998 Q1186.6896,183.3029 1186.8583,183.2045 Q1187.0271,183.1061 1187.2239,183.1061 Q1187.5614,183.1061 1187.7724,183.3451 Q1187.9833,183.5701 1187.9833,184.1186 L1187.9833,185.4264 Q1187.9833,185.9748 1187.7724,186.2139 Q1187.5614,186.4529 1187.2239,186.4529 Q1186.9146,186.4529 1186.7317,186.2701 Q1186.5489,186.1014 1186.4505,185.6373 Q1186.4083,185.3139 1186.2396,185.1451 Q1185.9442,184.8076 1185.3958,184.6107 Q1184.8474,184.4139 1184.2849,184.4139 Q1183.5958,184.4139 1183.0192,184.7092 Q1182.4567,185.0045 1182.0067,185.6795 Q1181.5708,186.3545 1181.5708,187.2826 L1181.5708,188.267 Q1181.5708,189.3779 1182.3724,190.1232 Q1183.1739,190.8545 1184.6083,190.8545 Q1185.4521,190.8545 1186.0427,190.6295 Q1186.3942,190.4889 1186.7739,190.0951 Q1187.013,189.8561 1187.1396,189.7857 Q1187.2802,189.7154 1187.463,189.7154 Q1187.7583,189.7154 1187.9833,189.9545 Q1188.2224,190.1795 1188.2224,190.4889 Q1188.2224,190.7982 1187.913,191.1639 Q1187.463,191.6842 1186.7458,191.9795 Q1185.7755,192.3873 1184.6083,192.3873 Q1183.2442,192.3873 1182.1614,191.8248 Q1181.2755,191.3748 1180.6567,190.4186 Q1180.038,189.4482 1180.038,188.2951 L1180.038,187.2545 Q1180.038,186.0592 1180.5864,185.0326 Q1181.1489,183.992 1182.1333,183.4436 Q1183.1177,182.8811 1184.2286,182.8811 Q1184.8896,182.8811 1185.4661,183.0357 Q1186.0567,183.1764 1186.5489,183.4998 Z " fill="#000000"/><text fill="#000000" font-family="sans-serif" font-size="12.6" lengthAdjust="spacing" textLength="72.8561" x="1202.5099" y="192.4295">ShoppingList</text><line style="stroke:#181818;stroke-width:0.45;" x1="1089.9" x2="1358.7258" y1="201.6123" y2="201.6123"/><ellipse cx="1098.9" cy="214.9418" fill="none" rx="2.7" ry="2.7" style="stroke:#038048;stroke-width:0.9;"/><text fill="#000000" font-family="sans-serif" font-size="12.6" lengthAdjust="spacing" textLength="30.1157" x="1107" y="218.809">id: int</text><ellipse cx="1098.9" cy="231.7008" fill="none" rx="2.7" ry="2.7" style="stroke:#038048;stroke-width:0.9;"/><text fill="#000000" font-family="sans-serif" font-size="12.6" lengthAdjust="spacing" textLength="125.3971" x="1107" y="235.568">household: Household</text><ellipse cx="1098.9" cy="248.4598" fill="none" rx="2.7" ry="2.7" style="stroke:#038048;stroke-width:0.9;"/><text fill="#000000" font-family="sans-serif" font-size="12.6" lengthAdjust="spacing" textLength="95.9458" x="1107" y="252.327">created_by: User</text><ellipse cx="1098.9" cy="265.2188" fill="none" rx="2.7" ry="2.7" style="stroke:#038048;stroke-width:0.9;"/><text fill="#000000" font-family="sans-serif" font-size="12.6" lengthAdjust="spacing" textLength="84.0349" x="1107" y="269.0859">project: Project</text><ellipse cx="1098.9" cy="281.9777" fill="none" rx="2.7" ry="2.7" style="stroke:#038048;stroke-width:0.9;"/><text fill="#000000" font-family="sans-serif" font-size="12.6" lengthAdjust="spacing" textLength="247.2258" x="1107" y="285.8449">area_of_responsibility: AreaOfResponsibility</text><ellipse cx="1098.9" cy="298.7367" fill="none" rx="2.7" ry="2.7" style="stroke:#038048;stroke-width:0.9;"/><text fill="#000000" font-family="sans-serif" font-size="12.6" lengthAdjust="spacing" textLength="40.6055" x="1107" y="302.6039">title: str</text><ellipse cx="1098.9" cy="315.4957" fill="none" rx="2.7" ry="2.7" style="stroke:#038048;stroke-width:0.9;"/><text fill="#000000" font-family="sans-serif" font-size="12.6" lengthAdjust="spacing" textLength="166.6978" x="1107" y="319.3629">created_at: datetime.datetime</text><ellipse cx="1098.9" cy="332.2547" fill="none" rx="2.7" ry="2.7" style="stroke:#038048;stroke-width:0.9;"/><text fill="#000000" font-family="sans-serif" font-size="12.6" lengthAdjust="spacing" textLength="170.2169" x="1107" y="336.1219">updated_at: datetime.datetime</text><ellipse cx="1098.9" cy="349.0137" fill="none" rx="2.7" ry="2.7" style="stroke:#038048;stroke-width:0.9;"/><text fill="#000000" font-family="sans-serif" font-size="12.6" lengthAdjust="spacing" textLength="88.2677" x="1107" y="352.8809">is_deleted: bool</text><line style="stroke:#181818;stroke-width:0.45;" x1="1089.9" x2="1358.7258" y1="359.6432" y2="359.6432"/></g><!--class ShoppingListItemCategory--><g id="elem_ShoppingListItemCategory"><rect codeLine="235" fill="#F1F1F1" height="143.7539" id="ShoppingListItemCategory" rx="2.25" ry="2.25" style="stroke:#181818;stroke-width:0.45;" width="193.6169" x="1430.55" y="891.0123"/><ellipse cx="1451.3985" cy="905.4123" fill="#ADD1B2" rx="9.9" ry="9.9" style="stroke:#181818;stroke-width:0.9;"/><path d="M1453.8876,901.6998 Q1454.0282,901.5029 1454.197,901.4045 Q1454.3657,901.3061 1454.5626,901.3061 Q1454.9001,901.3061 1455.111,901.5451 Q1455.322,901.7701 1455.322,902.3186 L1455.322,903.6264 Q1455.322,904.1748 1455.111,904.4139 Q1454.9001,904.6529 1454.5626,904.6529 Q1454.2532,904.6529 1454.0704,904.4701 Q1453.8876,904.3014 1453.7892,903.8373 Q1453.747,903.5139 1453.5782,903.3451 Q1453.2829,903.0076 1452.7345,902.8107 Q1452.186,902.6139 1451.6235,902.6139 Q1450.9345,902.6139 1450.3579,902.9092 Q1449.7954,903.2045 1449.3454,903.8795 Q1448.9095,904.5545 1448.9095,905.4826 L1448.9095,906.467 Q1448.9095,907.5779 1449.711,908.3232 Q1450.5126,909.0545 1451.947,909.0545 Q1452.7907,909.0545 1453.3813,908.8295 Q1453.7329,908.6889 1454.1126,908.2951 Q1454.3517,908.0561 1454.4782,907.9857 Q1454.6188,907.9154 1454.8017,907.9154 Q1455.097,907.9154 1455.322,908.1545 Q1455.561,908.3795 1455.561,908.6889 Q1455.561,908.9982 1455.2517,909.3639 Q1454.8017,909.8842 1454.0845,910.1795 Q1453.1142,910.5873 1451.947,910.5873 Q1450.5829,910.5873 1449.5001,910.0248 Q1448.6142,909.5748 1447.9954,908.6186 Q1447.3767,907.6482 1447.3767,906.4951 L1447.3767,905.4545 Q1447.3767,904.2592 1447.9251,903.2326 Q1448.4876,902.192 1449.472,901.6436 Q1450.4563,901.0811 1451.5673,901.0811 Q1452.2282,901.0811 1452.8048,901.2357 Q1453.3954,901.3764 1453.8876,901.6998 Z " fill="#000000"/><text fill="#000000" font-family="sans-serif" font-size="12.6" lengthAdjust="spacing" textLength="148.4868" x="1465.6315" y="910.6295">ShoppingListItemCategory</text><line style="stroke:#181818;stroke-width:0.45;" x1="1431.45" x2="1623.2669" y1="919.8123" y2="919.8123"/><ellipse cx="1440.45" cy="933.1418" fill="none" rx="2.7" ry="2.7" style="stroke:#038048;stroke-width:0.9;"/><text fill="#000000" font-family="sans-serif" font-size="12.6" lengthAdjust="spacing" textLength="30.1157" x="1448.55" y="937.009">id: int</text><ellipse cx="1440.45" cy="949.9008" fill="none" rx="2.7" ry="2.7" style="stroke:#038048;stroke-width:0.9;"/><text fill="#000000" font-family="sans-serif" font-size="12.6" lengthAdjust="spacing" textLength="125.3971" x="1448.55" y="953.768">household: Household</text><ellipse cx="1440.45" cy="966.6598" fill="none" rx="2.7" ry="2.7" style="stroke:#038048;stroke-width:0.9;"/><text fill="#000000" font-family="sans-serif" font-size="12.6" lengthAdjust="spacing" textLength="52.5164" x="1448.55" y="970.527">name: str</text><ellipse cx="1440.45" cy="983.4188" fill="none" rx="2.7" ry="2.7" style="stroke:#038048;stroke-width:0.9;"/><text fill="#000000" font-family="sans-serif" font-size="12.6" lengthAdjust="spacing" textLength="166.6978" x="1448.55" y="987.2859">created_at: datetime.datetime</text><ellipse cx="1440.45" cy="1000.1777" fill="none" rx="2.7" ry="2.7" style="stroke:#038048;stroke-width:0.9;"/><text fill="#000000" font-family="sans-serif" font-size="12.6" lengthAdjust="spacing" textLength="170.2169" x="1448.55" y="1004.0449">updated_at: datetime.datetime</text><ellipse cx="1440.45" cy="1016.9367" fill="none" rx="2.7" ry="2.7" style="stroke:#038048;stroke-width:0.9;"/><text fill="#000000" font-family="sans-serif" font-size="12.6" lengthAdjust="spacing" textLength="88.2677" x="1448.55" y="1020.8039">is_deleted: bool</text><line style="stroke:#181818;stroke-width:0.45;" x1="1431.45" x2="1623.2669" y1="1027.5662" y2="1027.5662"/></g><!--class ShoppingListItem--><g id="elem_ShoppingListItem"><rect codeLine="244" fill="#F1F1F1" height="160.5129" id="ShoppingListItem" rx="2.25" ry="2.25" style="stroke:#181818;stroke-width:0.45;" width="227.2148" x="1413.9" y="699.3123"/><ellipse cx="1475.002" cy="713.7123" fill="#ADD1B2" rx="9.9" ry="9.9" style="stroke:#181818;stroke-width:0.9;"/><path d="M1477.4911,709.9998 Q1477.6317,709.8029 1477.8004,709.7045 Q1477.9692,709.6061 1478.1661,709.6061 Q1478.5036,709.6061 1478.7145,709.8451 Q1478.9254,710.0701 1478.9254,710.6186 L1478.9254,711.9264 Q1478.9254,712.4748 1478.7145,712.7139 Q1478.5036,712.9529 1478.1661,712.9529 Q1477.8567,712.9529 1477.6739,712.7701 Q1477.4911,712.6014 1477.3926,712.1373 Q1477.3504,711.8139 1477.1817,711.6451 Q1476.8864,711.3076 1476.3379,711.1107 Q1475.7895,710.9139 1475.227,710.9139 Q1474.5379,710.9139 1473.9614,711.2092 Q1473.3989,711.5045 1472.9489,712.1795 Q1472.5129,712.8545 1472.5129,713.7826 L1472.5129,714.767 Q1472.5129,715.8779 1473.3145,716.6232 Q1474.1161,717.3545 1475.5504,717.3545 Q1476.3942,717.3545 1476.9848,717.1295 Q1477.3364,716.9889 1477.7161,716.5951 Q1477.9551,716.3561 1478.0817,716.2857 Q1478.2223,716.2154 1478.4051,716.2154 Q1478.7004,716.2154 1478.9254,716.4545 Q1479.1645,716.6795 1479.1645,716.9889 Q1479.1645,717.2982 1478.8551,717.6639 Q1478.4051,718.1842 1477.6879,718.4795 Q1476.7176,718.8873 1475.5504,718.8873 Q1474.1864,718.8873 1473.1036,718.3248 Q1472.2176,717.8748 1471.5989,716.9186 Q1470.9801,715.9482 1470.9801,714.7951 L1470.9801,713.7545 Q1470.9801,712.5592 1471.5286,711.5326 Q1472.0911,710.492 1473.0754,709.9436 Q1474.0598,709.3811 1475.1708,709.3811 Q1475.8317,709.3811 1476.4083,709.5357 Q1476.9989,709.6764 1477.4911,709.9998 Z " fill="#000000"/><text fill="#000000" font-family="sans-serif" font-size="12.6" lengthAdjust="spacing" textLength="97.3608" x="1493.452" y="718.9295">ShoppingListItem</text><line style="stroke:#181818;stroke-width:0.45;" x1="1414.8" x2="1640.2148" y1="728.1123" y2="728.1123"/><ellipse cx="1423.8" cy="741.4418" fill="none" rx="2.7" ry="2.7" style="stroke:#038048;stroke-width:0.9;"/><text fill="#000000" font-family="sans-serif" font-size="12.6" lengthAdjust="spacing" textLength="30.1157" x="1431.9" y="745.309">id: int</text><ellipse cx="1423.8" cy="758.2008" fill="none" rx="2.7" ry="2.7" style="stroke:#038048;stroke-width:0.9;"/><text fill="#000000" font-family="sans-serif" font-size="12.6" lengthAdjust="spacing" textLength="125.3971" x="1431.9" y="762.068">household: Household</text><ellipse cx="1423.8" cy="774.9598" fill="none" rx="2.7" ry="2.7" style="stroke:#038048;stroke-width:0.9;"/><text fill="#000000" font-family="sans-serif" font-size="12.6" lengthAdjust="spacing" textLength="203.8148" x="1431.9" y="778.827">category: ShoppingListItemCategory</text><ellipse cx="1423.8" cy="791.7188" fill="none" rx="2.7" ry="2.7" style="stroke:#038048;stroke-width:0.9;"/><text fill="#000000" font-family="sans-serif" font-size="12.6" lengthAdjust="spacing" textLength="40.6055" x="1431.9" y="795.5859">title: str</text><ellipse cx="1423.8" cy="808.4777" fill="none" rx="2.7" ry="2.7" style="stroke:#038048;stroke-width:0.9;"/><text fill="#000000" font-family="sans-serif" font-size="12.6" lengthAdjust="spacing" textLength="166.6978" x="1431.9" y="812.3449">created_at: datetime.datetime</text><ellipse cx="1423.8" cy="825.2367" fill="none" rx="2.7" ry="2.7" style="stroke:#038048;stroke-width:0.9;"/><text fill="#000000" font-family="sans-serif" font-size="12.6" lengthAdjust="spacing" textLength="170.2169" x="1431.9" y="829.1039">updated_at: datetime.datetime</text><ellipse cx="1423.8" cy="841.9957" fill="none" rx="2.7" ry="2.7" style="stroke:#038048;stroke-width:0.9;"/><text fill="#000000" font-family="sans-serif" font-size="12.6" lengthAdjust="spacing" textLength="88.2677" x="1431.9" y="845.8629">is_deleted: bool</text><line style="stroke:#181818;stroke-width:0.45;" x1="1414.8" x2="1640.2148" y1="852.6252" y2="852.6252"/></g><!--class ShoppingList_ShoppingListItem--><g id="elem_ShoppingList_ShoppingListItem"><rect codeLine="254" fill="#F1F1F1" height="210.7898" id="ShoppingList_ShoppingListItem" rx="2.25" ry="2.25" style="stroke:#181818;stroke-width:0.45;" width="206.0244" x="1424.25" y="457.2123"/><ellipse cx="1437.75" cy="471.6123" fill="#ADD1B2" rx="9.9" ry="9.9" style="stroke:#181818;stroke-width:0.9;"/><path d="M1440.2391,467.8998 Q1440.3797,467.7029 1440.5484,467.6045 Q1440.7172,467.5061 1440.9141,467.5061 Q1441.2516,467.5061 1441.4625,467.7451 Q1441.6734,467.9701 1441.6734,468.5186 L1441.6734,469.8264 Q1441.6734,470.3748 1441.4625,470.6139 Q1441.2516,470.8529 1440.9141,470.8529 Q1440.6047,470.8529 1440.4219,470.6701 Q1440.2391,470.5014 1440.1406,470.0373 Q1440.0984,469.7139 1439.9297,469.5451 Q1439.6344,469.2076 1439.0859,469.0107 Q1438.5375,468.8139 1437.975,468.8139 Q1437.2859,468.8139 1436.7094,469.1092 Q1436.1469,469.4045 1435.6969,470.0795 Q1435.2609,470.7545 1435.2609,471.6826 L1435.2609,472.667 Q1435.2609,473.7779 1436.0625,474.5232 Q1436.8641,475.2545 1438.2984,475.2545 Q1439.1422,475.2545 1439.7328,475.0295 Q1440.0844,474.8889 1440.4641,474.4951 Q1440.7031,474.2561 1440.8297,474.1857 Q1440.9703,474.1154 1441.1531,474.1154 Q1441.4484,474.1154 1441.6734,474.3545 Q1441.9125,474.5795 1441.9125,474.8889 Q1441.9125,475.1982 1441.6031,475.5639 Q1441.1531,476.0842 1440.4359,476.3795 Q1439.4656,476.7873 1438.2984,476.7873 Q1436.9344,476.7873 1435.8516,476.2248 Q1434.9656,475.7748 1434.3469,474.8186 Q1433.7281,473.8482 1433.7281,472.6951 L1433.7281,471.6545 Q1433.7281,470.4592 1434.2766,469.4326 Q1434.8391,468.392 1435.8234,467.8436 Q1436.8078,467.2811 1437.9188,467.2811 Q1438.5797,467.2811 1439.1563,467.4357 Q1439.7469,467.5764 1440.2391,467.8998 Z " fill="#000000"/><text fill="#000000" font-family="sans-serif" font-size="12.6" lengthAdjust="spacing" textLength="177.2244" x="1450.35" y="476.8295">ShoppingList_ShoppingListItem</text><line style="stroke:#181818;stroke-width:0.45;" x1="1425.15" x2="1629.3744" y1="486.0123" y2="486.0123"/><ellipse cx="1434.15" cy="499.3418" fill="none" rx="2.7" ry="2.7" style="stroke:#038048;stroke-width:0.9;"/><text fill="#000000" font-family="sans-serif" font-size="12.6" lengthAdjust="spacing" textLength="30.1157" x="1442.25" y="503.209">id: int</text><ellipse cx="1434.15" cy="516.1008" fill="none" rx="2.7" ry="2.7" style="stroke:#038048;stroke-width:0.9;"/><text fill="#000000" font-family="sans-serif" font-size="12.6" lengthAdjust="spacing" textLength="95.2567" x="1442.25" y="519.968">list: ShoppingList</text><ellipse cx="1434.15" cy="532.8598" fill="none" rx="2.7" ry="2.7" style="stroke:#038048;stroke-width:0.9;"/><text fill="#000000" font-family="sans-serif" font-size="12.6" lengthAdjust="spacing" textLength="128.1656" x="1442.25" y="536.727">item: ShoppingListItem</text><ellipse cx="1434.15" cy="549.6188" fill="none" rx="2.7" ry="2.7" style="stroke:#038048;stroke-width:0.9;"/><text fill="#000000" font-family="sans-serif" font-size="12.6" lengthAdjust="spacing" textLength="74.9479" x="1442.25" y="553.4859">quantity: float</text><ellipse cx="1434.15" cy="566.3777" fill="none" rx="2.7" ry="2.7" style="stroke:#038048;stroke-width:0.9;"/><text fill="#000000" font-family="sans-serif" font-size="12.6" lengthAdjust="spacing" textLength="41.313" x="1442.25" y="570.2449">unit: str</text><ellipse cx="1434.15" cy="583.1367" fill="none" rx="2.7" ry="2.7" style="stroke:#038048;stroke-width:0.9;"/><text fill="#000000" font-family="sans-serif" font-size="12.6" lengthAdjust="spacing" textLength="45.5212" x="1442.25" y="587.0039">note: str</text><ellipse cx="1434.15" cy="599.8957" fill="none" rx="2.7" ry="2.7" style="stroke:#038048;stroke-width:0.9;"/><text fill="#000000" font-family="sans-serif" font-size="12.6" lengthAdjust="spacing" textLength="74.9602" x="1442.25" y="603.7629">is_done: bool</text><ellipse cx="1434.15" cy="616.6547" fill="none" rx="2.7" ry="2.7" style="stroke:#038048;stroke-width:0.9;"/><text fill="#000000" font-family="sans-serif" font-size="12.6" lengthAdjust="spacing" textLength="166.6978" x="1442.25" y="620.5219">created_at: datetime.datetime</text><ellipse cx="1434.15" cy="633.4137" fill="none" rx="2.7" ry="2.7" style="stroke:#038048;stroke-width:0.9;"/><text fill="#000000" font-family="sans-serif" font-size="12.6" lengthAdjust="spacing" textLength="170.2169" x="1442.25" y="637.2809">updated_at: datetime.datetime</text><ellipse cx="1434.15" cy="650.1727" fill="none" rx="2.7" ry="2.7" style="stroke:#038048;stroke-width:0.9;"/><text fill="#000000" font-family="sans-serif" font-size="12.6" lengthAdjust="spacing" textLength="88.2677" x="1442.25" y="654.0398">is_deleted: bool</text><line style="stroke:#181818;stroke-width:0.45;" x1="1425.15" x2="1629.3744" y1="660.8021" y2="660.8021"/></g><!--SRC=[tLfVRzis47_tfo2yXpXTN2phzYAW0ufWM0kiNP2iUna6WPPeYujCgXJjrDlotNUaP8d_95bErtWra4GHxux7tntlZlITeVUtw2LwNnA1RYKNkyaa9qk994U2hZA9KYf88Ybdam8dTtX5qFGjJqcEhd9SbgISehyd23vdyu5FHOLUyqr9Cfwd8xZqL2rdFQFwV8re6Y7AfF66uJM9K2c5yIuH14kInbX6A8KdITVa-Vx1eDiKwK5qj8m10mAa4LfmdkkXXyae91Jceq7GXkfVFrbZcji0p54SPxZCO6K5IBdd8dKHsh0j4NH9WQHVG4MMOEKJiUHtXBcY01omb8Zt0Ws8AW9B1FbO3CBzMSnNMMLDPCRJ4WrOmmGbBWaeA6VL7ut6kGUlrgn1VyR8VLpac3BR8C3tZZFYOhLh6SDC3i3rRBwfQlOE6tREVeGWTrVyo3RhTWlVy9mORepJDMKK636480X7bys8SYHuyQqfoWa7iRSdicP8-w6_HTJhgDs03bVa12bNg03b8tijjc_X926533Z-AOQXLw3JByiRKXQSbNH1SofteyDIICX0c1g06wJI5GCC9FSi9QdClH2VaZ8Hj52U-7-8_jU2_mc9TJJIDT_ZmDq3ijXvs68OYlao5fOjesutESuaAS5fJXbnW7P0veh0sKFgvMaa32iSrNRvYUDym3P5HHbPBd3wZgq3UAso4xxh5SLhpA10j0DumfaKTB6f0diWZYl_Ym_pwc3Oxe6p2jI6pYSU4wusfUJhdo4HZWuBBUkfHOPFwEw0SPAHv2w7PNfnGUTTIRVaIREkQuqtagmVPv6dFiwuAuf7BQuobUFODJ5mHmvKfj-0lp6BD-wa_R31J6fdNEOSMo63KUcYnxWa0TSAPfjJ31E_ul9kT81GJ8-io8xR_tqHfQV6AmJbGik_hf-CmL9YkIaZTAl_sl0Aaco4e6pbsN9qZN9gbKQTWYiu36Dkn0gsYfLsCxhAcdohFckIKk1-YLuqht9-3_z_vyrGeMh8Ns28kNnbJI0vR1Xh1dKi5Nm5xb5QqoWOtNbQdupLhzSaBmRlDOBPNm9trEw89xB9ZVOvmX9ojKkiqYZ5DDzPmDqJSgTV6RQ16YdJxrhKTWGB_Ig0sytUnRrDBHf5uaHf4hcgXMa1Q2AsEFUkqiX7gVOxaOTWT3BfznrdtH3rr2CTXv8dtF67feJRZ1S5hFQesj5a_i-gnnxOF-MHy_CxcucUAakkGCYAYzsNKFMvQtkaTzJ8H9sOdRPruv5mLBMljpNDwjUL-2NLj0yJHkuBl28JzwkZ6vBh6-FcooF_SZXuvU0NGMxHqfcIHqNJHhyHNFeIUdevHS_cSpJzvldpPrFtYZf2qmN9ELkLK3rDDPT3KVFDvy-qgFORh-DPzLKDi6UuH7XQkNRmjhOHSCZa-_kQJgO0Zt55SHoRtdAZrDJ9VnI7bGkFvXolQMSMELYARHVR4StBoSeNfetJnfujDVV-BP1JjkNvbgGGtWvbstjTmwfczBp0LhBxYW449SfJIraYldJT8kxo43s1BwhU2GSBWQVB0UreYPACWasKTW7Fgw6f3sws3W7A-W3cqvc79Pj5Ir4CCBY7sgw16mPDxvvOzbvHHy0tB2EWAuPngvgU8ypILh2UjaHBmTVj6SohlkVpVtve5AJDWWQ90XlIzfZ-v1pocduEnme1WOOzHd8t6rgfLJtJls1ZB7RrGfi4CcyNkCT3PsmkfeE4zOqAwQSqtQZrcIuE8n8Cwc551cF_TtCOyU2G2IntE8GXcEiifBgJqtxlTybmxHX8ESU8y9FhCL8wCjbOKTteyBqemzvkMlDYmJZsZZKCiK85xvUUjqHiQKBAOnkN6lwtlrqZplBTKRqxjHJhvF1XGyHEjogKS7AELVVDhEt1EVUEqWwzqRcZc6A8q34S1rHZ3HLEmyuisERZJm4blHwEbroiiOotEAUfhLJmKA6rCkWkKBXVnPfEzT7Kx856atE_4ob4d5Dsrz-KSe4i_LsX9M5ESvCsX3T9VwUCdcBMNbLUeCDRP9o-5jzLpbIptbUNtyBF2n_wvlGzQouFBb0T7ojbpaFdybhezvw3jGqlwY2hFArzenjsPix_pIHgk_xUpFI7EzKBxok0s6wkiV0BTDkOw5lOlTh8p8RDks_k6ROYLG-T6zI2f6VecaFGWc0H3VJ9DEmFVZj1SAoDnWF3gku8afXnTP30h5uE8gw99W__0W00]--></g></svg>