<svg xmlns="http://www.w3.org/2000/svg" xmlns:xlink="http://www.w3.org/1999/xlink" contentStyleType="text/css" height="1044px" preserveAspectRatio="none" style="width:1781px;height:1044px;background:#FFFFFF;" version="1.1" viewBox="0 0 1781 1044" width="1781px" zoomAndPan="magnify"><defs/><g><!--cluster Model Classes--><g id="cluster_Model Classes"><path d="M8.5,6.0137 L106.7617,6.0137 A3.75,3.75 0 0 1 109.2617,8.5137 L116.2617,30.6348 L1771.5,30.6348 A2.5,2.5 0 0 1 1774,33.1348 L1774,1034.5137 A2.5,2.5 0 0 1 1771.5,1037.0137 L8.5,1037.0137 A2.5,2.5 0 0 1 6,1034.5137 L6,8.5137 A2.5,2.5 0 0 1 8.5,6.0137 " fill="none" style="stroke:#000000;stroke-width:1.5;"/><line style="stroke:#000000;stroke-width:1.5;" x1="6" x2="116.2617" y1="30.6348" y2="30.6348"/><text fill="#000000" font-family="sans-serif" font-size="14" font-weight="bold" lengthAdjust="spacing" textLength="97.2617" x="10" y="23.1211">Model Classes</text></g><!--class Household--><g id="elem_Household"><rect codeLine="6" fill="#F1F1F1" height="122.4844" id="Household" rx="2.5" ry="2.5" style="stroke:#181818;stroke-width:0.5;" width="285.1777" x="50" y="833.0137"/><ellipse cx="154.8701" cy="849.0137" fill="#ADD1B2" rx="11" ry="11" style="stroke:#181818;stroke-width:1.0;"/><path d="M157.6357,844.8887 Q157.792,844.6699 157.9795,844.5605 Q158.167,844.4512 158.3857,844.4512 Q158.7607,844.4512 158.9951,844.7168 Q159.2295,844.9668 159.2295,845.5762 L159.2295,847.0293 Q159.2295,847.6387 158.9951,847.9043 Q158.7607,848.1699 158.3857,848.1699 Q158.042,848.1699 157.8389,847.9668 Q157.6357,847.7793 157.5264,847.2637 Q157.4795,846.9043 157.292,846.7168 Q156.9639,846.3418 156.3545,846.123 Q155.7451,845.9043 155.1201,845.9043 Q154.3545,845.9043 153.7139,846.2324 Q153.0889,846.5605 152.5889,847.3105 Q152.1045,848.0605 152.1045,849.0918 L152.1045,850.1855 Q152.1045,851.4199 152.9951,852.248 Q153.8857,853.0605 155.4795,853.0605 Q156.417,853.0605 157.0732,852.8105 Q157.4639,852.6543 157.8857,852.2168 Q158.1514,851.9512 158.292,851.873 Q158.4482,851.7949 158.6514,851.7949 Q158.9795,851.7949 159.2295,852.0605 Q159.4951,852.3105 159.4951,852.6543 Q159.4951,852.998 159.1514,853.4043 Q158.6514,853.9824 157.8545,854.3105 Q156.7764,854.7637 155.4795,854.7637 Q153.9639,854.7637 152.7607,854.1387 Q151.7764,853.6387 151.0889,852.5762 Q150.4014,851.498 150.4014,850.2168 L150.4014,849.0605 Q150.4014,847.7324 151.0107,846.5918 Q151.6357,845.4355 152.7295,844.8262 Q153.8232,844.2012 155.0576,844.2012 Q155.792,844.2012 156.4326,844.373 Q157.0889,844.5293 157.6357,844.8887 Z " fill="#000000"/><text fill="#000000" font-family="sans-serif" font-size="14" lengthAdjust="spacing" textLength="66.9375" x="175.3701" y="854.8105">Household</text><line style="stroke:#181818;stroke-width:0.5;" x1="51" x2="334.1777" y1="865.0137" y2="865.0137"/><ellipse cx="61" cy="879.8242" fill="none" rx="3" ry="3" style="stroke:#038048;stroke-width:1.0;"/><text fill="#000000" font-family="sans-serif" font-size="14" lengthAdjust="spacing" textLength="103.5098" x="70" y="884.1211">id: int {readOnly}</text><ellipse cx="61" cy="898.4453" fill="none" rx="3" ry="3" style="stroke:#038048;stroke-width:1.0;"/><text fill="#000000" font-family="sans-serif" font-size="14" lengthAdjust="spacing" textLength="58.3516" x="70" y="902.7422">name: str</text><ellipse cx="61" cy="917.0664" fill="none" rx="3" ry="3" style="stroke:#038048;stroke-width:1.0;"/><text fill="#000000" font-family="sans-serif" font-size="14" lengthAdjust="spacing" textLength="255.2676" x="70" y="921.3633">created_at: datetime.datetime {readOnly}</text><ellipse cx="61" cy="935.6875" fill="none" rx="3" ry="3" style="stroke:#038048;stroke-width:1.0;"/><text fill="#000000" font-family="sans-serif" font-size="14" lengthAdjust="spacing" textLength="259.1777" x="70" y="939.9844">updated_at: datetime.datetime {readOnly}</text><line style="stroke:#181818;stroke-width:0.5;" x1="51" x2="334.1777" y1="947.498" y2="947.498"/></g><!--class User--><g id="elem_User"><rect codeLine="16" fill="#F1F1F1" height="215.5898" id="User" rx="2.5" ry="2.5" style="stroke:#181818;stroke-width:0.5;" width="341.1777" x="22" y="582.0137"/><ellipse cx="173.5596" cy="598.0137" fill="#ADD1B2" rx="11" ry="11" style="stroke:#181818;stroke-width:1.0;"/><path d="M176.3252,593.8887 Q176.4814,593.6699 176.6689,593.5605 Q176.8564,593.4512 177.0752,593.4512 Q177.4502,593.4512 177.6846,593.7168 Q177.9189,593.9668 177.9189,594.5762 L177.9189,596.0293 Q177.9189,596.6387 177.6846,596.9043 Q177.4502,597.1699 177.0752,597.1699 Q176.7314,597.1699 176.5283,596.9668 Q176.3252,596.7793 176.2158,596.2637 Q176.1689,595.9043 175.9814,595.7168 Q175.6533,595.3418 175.0439,595.123 Q174.4346,594.9043 173.8096,594.9043 Q173.0439,594.9043 172.4033,595.2324 Q171.7783,595.5605 171.2783,596.3105 Q170.7939,597.0605 170.7939,598.0918 L170.7939,599.1855 Q170.7939,600.4199 171.6846,601.248 Q172.5752,602.0605 174.1689,602.0605 Q175.1064,602.0605 175.7627,601.8105 Q176.1533,601.6543 176.5752,601.2168 Q176.8408,600.9512 176.9814,600.873 Q177.1377,600.7949 177.3408,600.7949 Q177.6689,600.7949 177.9189,601.0605 Q178.1846,601.3105 178.1846,601.6543 Q178.1846,601.998 177.8408,602.4043 Q177.3408,602.9824 176.5439,603.3105 Q175.4658,603.7637 174.1689,603.7637 Q172.6533,603.7637 171.4502,603.1387 Q170.4658,602.6387 169.7783,601.5762 Q169.0908,600.498 169.0908,599.2168 L169.0908,598.0605 Q169.0908,596.7324 169.7002,595.5918 Q170.3252,594.4355 171.4189,593.8262 Q172.5127,593.2012 173.7471,593.2012 Q174.4814,593.2012 175.1221,593.373 Q175.7783,593.5293 176.3252,593.8887 Z " fill="#000000"/><text fill="#000000" font-family="sans-serif" font-size="14" lengthAdjust="spacing" textLength="29.5586" x="194.0596" y="603.8105">User</text><line style="stroke:#181818;stroke-width:0.5;" x1="23" x2="362.1777" y1="614.0137" y2="614.0137"/><ellipse cx="33" cy="628.8242" fill="none" rx="3" ry="3" style="stroke:#038048;stroke-width:1.0;"/><text fill="#000000" font-family="sans-serif" font-size="14" lengthAdjust="spacing" textLength="103.5098" x="42" y="633.1211">id: int {readOnly}</text><ellipse cx="33" cy="647.4453" fill="none" rx="3" ry="3" style="stroke:#038048;stroke-width:1.0;"/><text fill="#000000" font-family="sans-serif" font-size="14" lengthAdjust="spacing" textLength="126.834" x="42" y="651.7422">email: str {readOnly}</text><rect fill="none" height="6" style="stroke:#C82930;stroke-width:1.0;" width="6" x="30" y="663.0664"/><text fill="#000000" font-family="sans-serif" font-size="14" lengthAdjust="spacing" textLength="152.5371" x="42" y="670.3633">__hashed_password: str</text><ellipse cx="33" cy="684.6875" fill="none" rx="3" ry="3" style="stroke:#038048;stroke-width:1.0;"/><text fill="#000000" font-family="sans-serif" font-size="14" lengthAdjust="spacing" textLength="88.7168" x="42" y="688.9844">is_active: bool</text><ellipse cx="33" cy="703.3086" fill="none" rx="3" ry="3" style="stroke:#038048;stroke-width:1.0;"/><text fill="#000000" font-family="sans-serif" font-size="14" lengthAdjust="spacing" textLength="255.2676" x="42" y="707.6055">created_at: datetime.datetime {readOnly}</text><ellipse cx="33" cy="721.9297" fill="none" rx="3" ry="3" style="stroke:#038048;stroke-width:1.0;"/><text fill="#000000" font-family="sans-serif" font-size="14" lengthAdjust="spacing" textLength="259.1777" x="42" y="726.2266">updated_at: datetime.datetime {readOnly}</text><line style="stroke:#181818;stroke-width:0.5;" x1="23" x2="362.1777" y1="733.7402" y2="733.7402"/><rect fill="#F24D5C" height="6" style="stroke:#C82930;stroke-width:1.0;" width="6" x="30" y="745.5508"/><text fill="#000000" font-family="sans-serif" font-size="14" lengthAdjust="spacing" textLength="243.5713" x="42" y="752.8477">__hash_password(plain_password): str</text><ellipse cx="33" cy="767.1719" fill="#84BE84" rx="3" ry="3" style="stroke:#038048;stroke-width:1.0;"/><text fill="#000000" font-family="sans-serif" font-size="14" lengthAdjust="spacing" textLength="315.1777" x="42" y="771.4688">update_password(new_plain_password: str): None</text><ellipse cx="33" cy="785.793" fill="#84BE84" rx="3" ry="3" style="stroke:#038048;stroke-width:1.0;"/><text fill="#000000" font-family="sans-serif" font-size="14" lengthAdjust="spacing" textLength="265.3369" x="42" y="790.0898">verify_password(plain_password: str): bool</text></g><!--class HouseholdRole--><g id="elem_HouseholdRole"><rect codeLine="29" fill="#F1F1F1" height="85.2422" id="HouseholdRole" rx="2.5" ry="2.5" style="stroke:#181818;stroke-width:0.5;" width="127.7305" x="128.5" y="461.5137"/><ellipse cx="143.5" cy="477.5137" fill="#EB937F" rx="11" ry="11" style="stroke:#181818;stroke-width:1.0;"/><path d="M142.3594,478.3105 L142.3594,480.8105 L146.6875,480.8105 L146.6875,479.8887 Q146.6875,479.2793 146.9219,479.0137 Q147.1719,478.748 147.5469,478.748 Q147.9219,478.748 148.1563,479.0137 Q148.3906,479.2793 148.3906,479.8887 L148.3906,482.5137 L140.3906,482.5137 Q139.7656,482.5137 139.5,482.2793 Q139.25,482.0449 139.25,481.6543 Q139.25,481.2793 139.5156,481.0449 Q139.7813,480.8105 140.3906,480.8105 L140.6563,480.8105 L140.6563,474.1543 L140.3906,474.1543 Q139.7656,474.1543 139.5,473.9199 Q139.25,473.6855 139.25,473.2949 Q139.25,472.9199 139.5,472.6855 Q139.7656,472.4512 140.3906,472.4512 L148.0156,472.4512 L148.0156,475.0449 Q148.0156,475.6543 147.7813,475.9199 Q147.5625,476.1699 147.1719,476.1699 Q146.7969,476.1699 146.5625,475.9199 Q146.3281,475.6543 146.3281,475.0449 L146.3281,474.1543 L142.3594,474.1543 L142.3594,476.6074 L143.8438,476.6074 Q143.8438,475.9512 143.9688,475.7637 Q144.2344,475.3574 144.7031,475.3574 Q145.0781,475.3574 145.3125,475.623 Q145.5469,475.873 145.5469,476.4824 L145.5469,478.4512 Q145.5469,478.998 145.4219,479.1855 Q145.1563,479.5762 144.7031,479.5762 Q144.2344,479.5762 143.9688,479.1699 Q143.8438,478.9824 143.8438,478.3105 L142.3594,478.3105 Z " fill="#000000"/><text fill="#000000" font-family="sans-serif" font-size="14" lengthAdjust="spacing" textLength="95.7305" x="157.5" y="483.3105">HouseholdRole</text><line style="stroke:#181818;stroke-width:0.5;" x1="129.5" x2="255.2305" y1="493.5137" y2="493.5137"/><text fill="#000000" font-family="sans-serif" font-size="14" lengthAdjust="spacing" textLength="104.6582" x="134.5" y="512.6211">administrator = 1</text><text fill="#000000" font-family="sans-serif" font-size="14" lengthAdjust="spacing" textLength="50.9756" x="134.5" y="531.2422">user = 2</text><line style="stroke:#181818;stroke-width:0.5;" x1="129.5" x2="255.2305" y1="538.7559" y2="538.7559"/></g><!--class Household_User--><g id="elem_Household_User"><rect codeLine="34" fill="#F1F1F1" height="159.7266" id="Household_User" rx="2.5" ry="2.5" style="stroke:#181818;stroke-width:0.5;" width="236.9297" x="74" y="266.0137"/><ellipse cx="136.0737" cy="282.0137" fill="#ADD1B2" rx="11" ry="11" style="stroke:#181818;stroke-width:1.0;"/><path d="M138.8394,277.8887 Q138.9956,277.6699 139.1831,277.5605 Q139.3706,277.4512 139.5894,277.4512 Q139.9644,277.4512 140.1987,277.7168 Q140.4331,277.9668 140.4331,278.5762 L140.4331,280.0293 Q140.4331,280.6387 140.1987,280.9043 Q139.9644,281.1699 139.5894,281.1699 Q139.2456,281.1699 139.0425,280.9668 Q138.8394,280.7793 138.73,280.2637 Q138.6831,279.9043 138.4956,279.7168 Q138.1675,279.3418 137.5581,279.123 Q136.9487,278.9043 136.3237,278.9043 Q135.5581,278.9043 134.9175,279.2324 Q134.2925,279.5605 133.7925,280.3105 Q133.3081,281.0605 133.3081,282.0918 L133.3081,283.1855 Q133.3081,284.4199 134.1987,285.248 Q135.0894,286.0605 136.6831,286.0605 Q137.6206,286.0605 138.2769,285.8105 Q138.6675,285.6543 139.0894,285.2168 Q139.355,284.9512 139.4956,284.873 Q139.6519,284.7949 139.855,284.7949 Q140.1831,284.7949 140.4331,285.0605 Q140.6987,285.3105 140.6987,285.6543 Q140.6987,285.998 140.355,286.4043 Q139.855,286.9824 139.0581,287.3105 Q137.98,287.7637 136.6831,287.7637 Q135.1675,287.7637 133.9644,287.1387 Q132.98,286.6387 132.2925,285.5762 Q131.605,284.498 131.605,283.2168 L131.605,282.0605 Q131.605,280.7324 132.2144,279.5918 Q132.8394,278.4355 133.9331,277.8262 Q135.0269,277.2012 136.2612,277.2012 Q136.9956,277.2012 137.6362,277.373 Q138.2925,277.5293 138.8394,277.8887 Z " fill="#000000"/><text fill="#000000" font-family="sans-serif" font-size="14" lengthAdjust="spacing" textLength="104.2822" x="156.5737" y="287.8105">Household_User</text><line style="stroke:#181818;stroke-width:0.5;" x1="75" x2="309.9297" y1="298.0137" y2="298.0137"/><ellipse cx="85" cy="312.8242" fill="none" rx="3" ry="3" style="stroke:#038048;stroke-width:1.0;"/><text fill="#000000" font-family="sans-serif" font-size="14" lengthAdjust="spacing" textLength="210.9297" x="94" y="317.1211">household_user_id: int {readOnly}</text><ellipse cx="85" cy="331.4453" fill="none" rx="3" ry="3" style="stroke:#038048;stroke-width:1.0;"/><text fill="#000000" font-family="sans-serif" font-size="14" lengthAdjust="spacing" textLength="64.5723" x="94" y="335.7422">user: User</text><ellipse cx="85" cy="350.0664" fill="none" rx="3" ry="3" style="stroke:#038048;stroke-width:1.0;"/><text fill="#000000" font-family="sans-serif" font-size="14" lengthAdjust="spacing" textLength="139.3301" x="94" y="354.3633">household: Household</text><ellipse cx="85" cy="368.6875" fill="none" rx="3" ry="3" style="stroke:#038048;stroke-width:1.0;"/><text fill="#000000" font-family="sans-serif" font-size="14" lengthAdjust="spacing" textLength="199.2539" x="94" y="372.9844">household_role: HouseholdRole</text><ellipse cx="85" cy="387.3086" fill="none" rx="3" ry="3" style="stroke:#038048;stroke-width:1.0;"/><text fill="#000000" font-family="sans-serif" font-size="14" lengthAdjust="spacing" textLength="108.9648" x="94" y="391.6055">is_accepted: bool</text><ellipse cx="85" cy="405.9297" fill="none" rx="3" ry="3" style="stroke:#038048;stroke-width:1.0;"/><text fill="#000000" font-family="sans-serif" font-size="14" lengthAdjust="spacing" textLength="98.0752" x="94" y="410.2266">is_deleted: bool</text><line style="stroke:#181818;stroke-width:0.5;" x1="75" x2="309.9297" y1="417.7402" y2="417.7402"/></g><!--class AreaOfResponsibility--><g id="elem_AreaOfResponsibility"><rect codeLine="46" fill="#F1F1F1" height="178.3477" id="AreaOfResponsibility" rx="2.5" ry="2.5" style="stroke:#181818;stroke-width:0.5;" width="285.1777" x="50" y="53.0137"/><ellipse cx="122.9771" cy="69.0137" fill="#ADD1B2" rx="11" ry="11" style="stroke:#181818;stroke-width:1.0;"/><path d="M125.7427,64.8887 Q125.8989,64.6699 126.0864,64.5605 Q126.2739,64.4512 126.4927,64.4512 Q126.8677,64.4512 127.1021,64.7168 Q127.3364,64.9668 127.3364,65.5762 L127.3364,67.0293 Q127.3364,67.6387 127.1021,67.9043 Q126.8677,68.1699 126.4927,68.1699 Q126.1489,68.1699 125.9458,67.9668 Q125.7427,67.7793 125.6333,67.2637 Q125.5864,66.9043 125.3989,66.7168 Q125.0708,66.3418 124.4614,66.123 Q123.8521,65.9043 123.2271,65.9043 Q122.4614,65.9043 121.8208,66.2324 Q121.1958,66.5605 120.6958,67.3105 Q120.2114,68.0605 120.2114,69.0918 L120.2114,70.1855 Q120.2114,71.4199 121.1021,72.248 Q121.9927,73.0605 123.5864,73.0605 Q124.5239,73.0605 125.1802,72.8105 Q125.5708,72.6543 125.9927,72.2168 Q126.2583,71.9512 126.3989,71.873 Q126.5552,71.7949 126.7583,71.7949 Q127.0864,71.7949 127.3364,72.0605 Q127.6021,72.3105 127.6021,72.6543 Q127.6021,72.998 127.2583,73.4043 Q126.7583,73.9824 125.9614,74.3105 Q124.8833,74.7637 123.5864,74.7637 Q122.0708,74.7637 120.8677,74.1387 Q119.8833,73.6387 119.1958,72.5762 Q118.5083,71.498 118.5083,70.2168 L118.5083,69.0605 Q118.5083,67.7324 119.1177,66.5918 Q119.7427,65.4355 120.8364,64.8262 Q121.9302,64.2012 123.1646,64.2012 Q123.8989,64.2012 124.5396,64.373 Q125.1958,64.5293 125.7427,64.8887 Z " fill="#000000"/><text fill="#000000" font-family="sans-serif" font-size="14" lengthAdjust="spacing" textLength="130.7236" x="143.4771" y="74.8105">AreaOfResponsibility</text><line style="stroke:#181818;stroke-width:0.5;" x1="51" x2="334.1777" y1="85.0137" y2="85.0137"/><ellipse cx="61" cy="99.8242" fill="none" rx="3" ry="3" style="stroke:#038048;stroke-width:1.0;"/><text fill="#000000" font-family="sans-serif" font-size="14" lengthAdjust="spacing" textLength="103.5098" x="70" y="104.1211">id: int {readOnly}</text><ellipse cx="61" cy="118.4453" fill="none" rx="3" ry="3" style="stroke:#038048;stroke-width:1.0;"/><text fill="#000000" font-family="sans-serif" font-size="14" lengthAdjust="spacing" textLength="209.3779" x="70" y="122.7422">household: Household {readOnly}</text><ellipse cx="61" cy="137.0664" fill="none" rx="3" ry="3" style="stroke:#038048;stroke-width:1.0;"/><text fill="#000000" font-family="sans-serif" font-size="14" lengthAdjust="spacing" textLength="112.8408" x="70" y="141.3633">assigned_to: User</text><ellipse cx="61" cy="155.6875" fill="none" rx="3" ry="3" style="stroke:#038048;stroke-width:1.0;"/><text fill="#000000" font-family="sans-serif" font-size="14" lengthAdjust="spacing" textLength="45.1172" x="70" y="159.9844">title: str</text><ellipse cx="61" cy="174.3086" fill="none" rx="3" ry="3" style="stroke:#038048;stroke-width:1.0;"/><text fill="#000000" font-family="sans-serif" font-size="14" lengthAdjust="spacing" textLength="91.0342" x="70" y="178.6055">description: str</text><ellipse cx="61" cy="192.9297" fill="none" rx="3" ry="3" style="stroke:#038048;stroke-width:1.0;"/><text fill="#000000" font-family="sans-serif" font-size="14" lengthAdjust="spacing" textLength="255.2676" x="70" y="197.2266">created_at: datetime.datetime {readOnly}</text><ellipse cx="61" cy="211.5508" fill="none" rx="3" ry="3" style="stroke:#038048;stroke-width:1.0;"/><text fill="#000000" font-family="sans-serif" font-size="14" lengthAdjust="spacing" textLength="259.1777" x="70" y="215.8477">updated_at: datetime.datetime {readOnly}</text><line style="stroke:#181818;stroke-width:0.5;" x1="51" x2="334.1777" y1="223.3613" y2="223.3613"/></g><!--class Project--><g id="elem_Project"><rect codeLine="59" fill="#F1F1F1" height="252.832" id="Project" rx="2.5" ry="2.5" style="stroke:#181818;stroke-width:0.5;" width="300.6953" x="423" y="767.5137"/><ellipse cx="547.3115" cy="783.5137" fill="#ADD1B2" rx="11" ry="11" style="stroke:#181818;stroke-width:1.0;"/><path d="M550.0771,779.3887 Q550.2334,779.1699 550.4209,779.0605 Q550.6084,778.9512 550.8271,778.9512 Q551.2021,778.9512 551.4365,779.2168 Q551.6709,779.4668 551.6709,780.0762 L551.6709,781.5293 Q551.6709,782.1387 551.4365,782.4043 Q551.2021,782.6699 550.8271,782.6699 Q550.4834,782.6699 550.2803,782.4668 Q550.0771,782.2793 549.9678,781.7637 Q549.9209,781.4043 549.7334,781.2168 Q549.4053,780.8418 548.7959,780.623 Q548.1865,780.4043 547.5615,780.4043 Q546.7959,780.4043 546.1553,780.7324 Q545.5303,781.0605 545.0303,781.8105 Q544.5459,782.5605 544.5459,783.5918 L544.5459,784.6855 Q544.5459,785.9199 545.4365,786.748 Q546.3271,787.5605 547.9209,787.5605 Q548.8584,787.5605 549.5146,787.3105 Q549.9053,787.1543 550.3271,786.7168 Q550.5928,786.4512 550.7334,786.373 Q550.8896,786.2949 551.0928,786.2949 Q551.4209,786.2949 551.6709,786.5605 Q551.9365,786.8105 551.9365,787.1543 Q551.9365,787.498 551.5928,787.9043 Q551.0928,788.4824 550.2959,788.8105 Q549.2178,789.2637 547.9209,789.2637 Q546.4053,789.2637 545.2021,788.6387 Q544.2178,788.1387 543.5303,787.0762 Q542.8428,785.998 542.8428,784.7168 L542.8428,783.5605 Q542.8428,782.2324 543.4521,781.0918 Q544.0771,779.9355 545.1709,779.3262 Q546.2646,778.7012 547.499,778.7012 Q548.2334,778.7012 548.874,778.873 Q549.5303,779.0293 550.0771,779.3887 Z " fill="#000000"/><text fill="#000000" font-family="sans-serif" font-size="14" lengthAdjust="spacing" textLength="43.5723" x="567.8115" y="789.3105">Project</text><line style="stroke:#181818;stroke-width:0.5;" x1="424" x2="722.6953" y1="799.5137" y2="799.5137"/><ellipse cx="434" cy="814.3242" fill="none" rx="3" ry="3" style="stroke:#038048;stroke-width:1.0;"/><text fill="#000000" font-family="sans-serif" font-size="14" lengthAdjust="spacing" textLength="103.5098" x="443" y="818.6211">id: int {readOnly}</text><ellipse cx="434" cy="832.9453" fill="none" rx="3" ry="3" style="stroke:#038048;stroke-width:1.0;"/><text fill="#000000" font-family="sans-serif" font-size="14" lengthAdjust="spacing" textLength="209.3779" x="443" y="837.2422">household: Household {readOnly}</text><ellipse cx="434" cy="851.5664" fill="none" rx="3" ry="3" style="stroke:#038048;stroke-width:1.0;"/><text fill="#000000" font-family="sans-serif" font-size="14" lengthAdjust="spacing" textLength="176.6543" x="443" y="855.8633">created_by: User {readOnly}</text><ellipse cx="434" cy="870.1875" fill="none" rx="3" ry="3" style="stroke:#038048;stroke-width:1.0;"/><text fill="#000000" font-family="sans-serif" font-size="14" lengthAdjust="spacing" textLength="274.6953" x="443" y="874.4844">area_of_responsibility: AreaOfResponsibility</text><ellipse cx="434" cy="888.8086" fill="none" rx="3" ry="3" style="stroke:#038048;stroke-width:1.0;"/><text fill="#000000" font-family="sans-serif" font-size="14" lengthAdjust="spacing" textLength="45.1172" x="443" y="893.1055">title: str</text><ellipse cx="434" cy="907.4297" fill="none" rx="3" ry="3" style="stroke:#038048;stroke-width:1.0;"/><text fill="#000000" font-family="sans-serif" font-size="14" lengthAdjust="spacing" textLength="91.0342" x="443" y="911.7266">description: str</text><ellipse cx="434" cy="926.0508" fill="none" rx="3" ry="3" style="stroke:#038048;stroke-width:1.0;"/><text fill="#000000" font-family="sans-serif" font-size="14" lengthAdjust="spacing" textLength="145.5508" x="443" y="930.3477">deadline: datetime.date</text><ellipse cx="434" cy="944.6719" fill="none" rx="3" ry="3" style="stroke:#038048;stroke-width:1.0;"/><text fill="#000000" font-family="sans-serif" font-size="14" lengthAdjust="spacing" textLength="83.2891" x="443" y="948.9688">is_done: bool</text><ellipse cx="434" cy="963.293" fill="none" rx="3" ry="3" style="stroke:#038048;stroke-width:1.0;"/><text fill="#000000" font-family="sans-serif" font-size="14" lengthAdjust="spacing" textLength="255.2676" x="443" y="967.5898">created_at: datetime.datetime {readOnly}</text><ellipse cx="434" cy="981.9141" fill="none" rx="3" ry="3" style="stroke:#038048;stroke-width:1.0;"/><text fill="#000000" font-family="sans-serif" font-size="14" lengthAdjust="spacing" textLength="259.1777" x="443" y="986.2109">updated_at: datetime.datetime {readOnly}</text><ellipse cx="434" cy="1000.5352" fill="none" rx="3" ry="3" style="stroke:#038048;stroke-width:1.0;"/><text fill="#000000" font-family="sans-serif" font-size="14" lengthAdjust="spacing" textLength="239.7158" x="443" y="1004.832">done_at: datetime.datetime {readOnly}</text><line style="stroke:#181818;stroke-width:0.5;" x1="424" x2="722.6953" y1="1012.3457" y2="1012.3457"/></g><!--class ProjectGoal--><g id="elem_ProjectGoal"><rect codeLine="73" fill="#F1F1F1" height="122.4844" id="ProjectGoal" rx="2.5" ry="2.5" style="stroke:#181818;stroke-width:0.5;" width="129.5098" x="508.5" y="610.0137"/><ellipse cx="534.4644" cy="626.0137" fill="#ADD1B2" rx="11" ry="11" style="stroke:#181818;stroke-width:1.0;"/><path d="M537.23,621.8887 Q537.3862,621.6699 537.5737,621.5605 Q537.7612,621.4512 537.98,621.4512 Q538.355,621.4512 538.5894,621.7168 Q538.8237,621.9668 538.8237,622.5762 L538.8237,624.0293 Q538.8237,624.6387 538.5894,624.9043 Q538.355,625.1699 537.98,625.1699 Q537.6362,625.1699 537.4331,624.9668 Q537.23,624.7793 537.1206,624.2637 Q537.0737,623.9043 536.8862,623.7168 Q536.5581,623.3418 535.9487,623.123 Q535.3394,622.9043 534.7144,622.9043 Q533.9487,622.9043 533.3081,623.2324 Q532.6831,623.5605 532.1831,624.3105 Q531.6987,625.0605 531.6987,626.0918 L531.6987,627.1855 Q531.6987,628.4199 532.5894,629.248 Q533.48,630.0605 535.0737,630.0605 Q536.0112,630.0605 536.6675,629.8105 Q537.0581,629.6543 537.48,629.2168 Q537.7456,628.9512 537.8862,628.873 Q538.0425,628.7949 538.2456,628.7949 Q538.5737,628.7949 538.8237,629.0605 Q539.0894,629.3105 539.0894,629.6543 Q539.0894,629.998 538.7456,630.4043 Q538.2456,630.9824 537.4487,631.3105 Q536.3706,631.7637 535.0737,631.7637 Q533.5581,631.7637 532.355,631.1387 Q531.3706,630.6387 530.6831,629.5762 Q529.9956,628.498 529.9956,627.2168 L529.9956,626.0605 Q529.9956,624.7324 530.605,623.5918 Q531.23,622.4355 532.3237,621.8262 Q533.4175,621.2012 534.6519,621.2012 Q535.3862,621.2012 536.0269,621.373 Q536.6831,621.5293 537.23,621.8887 Z " fill="#000000"/><text fill="#000000" font-family="sans-serif" font-size="14" lengthAdjust="spacing" textLength="73.1445" x="550.9009" y="631.8105">ProjectGoal</text><line style="stroke:#181818;stroke-width:0.5;" x1="509.5" x2="637.0098" y1="642.0137" y2="642.0137"/><ellipse cx="519.5" cy="656.8242" fill="none" rx="3" ry="3" style="stroke:#038048;stroke-width:1.0;"/><text fill="#000000" font-family="sans-serif" font-size="14" lengthAdjust="spacing" textLength="103.5098" x="528.5" y="661.1211">id: int {readOnly}</text><ellipse cx="519.5" cy="675.4453" fill="none" rx="3" ry="3" style="stroke:#038048;stroke-width:1.0;"/><text fill="#000000" font-family="sans-serif" font-size="14" lengthAdjust="spacing" textLength="93.3721" x="528.5" y="679.7422">project: Project</text><ellipse cx="519.5" cy="694.0664" fill="none" rx="3" ry="3" style="stroke:#038048;stroke-width:1.0;"/><text fill="#000000" font-family="sans-serif" font-size="14" lengthAdjust="spacing" textLength="45.1172" x="528.5" y="698.3633">title: str</text><ellipse cx="519.5" cy="712.6875" fill="none" rx="3" ry="3" style="stroke:#038048;stroke-width:1.0;"/><text fill="#000000" font-family="sans-serif" font-size="14" lengthAdjust="spacing" textLength="91.0342" x="528.5" y="716.9844">description: str</text><line style="stroke:#181818;stroke-width:0.5;" x1="509.5" x2="637.0098" y1="724.498" y2="724.498"/></g><!--class ProjectRole--><g id="elem_ProjectRole"><rect codeLine="80" fill="#F1F1F1" height="85.2422" id="ProjectRole" rx="2.5" ry="2.5" style="stroke:#181818;stroke-width:0.5;" width="140.8027" x="503" y="489.5137"/><ellipse cx="534.3969" cy="505.5137" fill="#EB937F" rx="11" ry="11" style="stroke:#181818;stroke-width:1.0;"/><path d="M533.2563,506.3105 L533.2563,508.8105 L537.5844,508.8105 L537.5844,507.8887 Q537.5844,507.2793 537.8188,507.0137 Q538.0688,506.748 538.4438,506.748 Q538.8188,506.748 539.0531,507.0137 Q539.2875,507.2793 539.2875,507.8887 L539.2875,510.5137 L531.2875,510.5137 Q530.6625,510.5137 530.3969,510.2793 Q530.1469,510.0449 530.1469,509.6543 Q530.1469,509.2793 530.4125,509.0449 Q530.6781,508.8105 531.2875,508.8105 L531.5531,508.8105 L531.5531,502.1543 L531.2875,502.1543 Q530.6625,502.1543 530.3969,501.9199 Q530.1469,501.6855 530.1469,501.2949 Q530.1469,500.9199 530.3969,500.6855 Q530.6625,500.4512 531.2875,500.4512 L538.9125,500.4512 L538.9125,503.0449 Q538.9125,503.6543 538.6781,503.9199 Q538.4594,504.1699 538.0688,504.1699 Q537.6938,504.1699 537.4594,503.9199 Q537.225,503.6543 537.225,503.0449 L537.225,502.1543 L533.2563,502.1543 L533.2563,504.6074 L534.7406,504.6074 Q534.7406,503.9512 534.8656,503.7637 Q535.1313,503.3574 535.6,503.3574 Q535.975,503.3574 536.2094,503.623 Q536.4438,503.873 536.4438,504.4824 L536.4438,506.4512 Q536.4438,506.998 536.3188,507.1855 Q536.0531,507.5762 535.6,507.5762 Q535.1313,507.5762 534.8656,507.1699 Q534.7406,506.9824 534.7406,506.3105 L533.2563,506.3105 Z " fill="#000000"/><text fill="#000000" font-family="sans-serif" font-size="14" lengthAdjust="spacing" textLength="72.3652" x="552.0406" y="511.3105">ProjectRole</text><line style="stroke:#181818;stroke-width:0.5;" x1="504" x2="642.8027" y1="521.5137" y2="521.5137"/><text fill="#000000" font-family="sans-serif" font-size="14" lengthAdjust="spacing" textLength="128.8027" x="509" y="540.6211">project_manager = 1</text><text fill="#000000" font-family="sans-serif" font-size="14" lengthAdjust="spacing" textLength="89.8857" x="509" y="559.2422">contributor = 2</text><line style="stroke:#181818;stroke-width:0.5;" x1="504" x2="642.8027" y1="566.7559" y2="566.7559"/></g><!--class User_Project--><g id="elem_User_Project"><rect codeLine="85" fill="#F1F1F1" height="122.4844" id="User_Project" rx="2.5" ry="2.5" style="stroke:#181818;stroke-width:0.5;" width="129.5098" x="508.5" y="332.0137"/><ellipse cx="530.9667" cy="348.0137" fill="#ADD1B2" rx="11" ry="11" style="stroke:#181818;stroke-width:1.0;"/><path d="M533.7324,343.8887 Q533.8886,343.6699 534.0761,343.5605 Q534.2636,343.4512 534.4824,343.4512 Q534.8574,343.4512 535.0917,343.7168 Q535.3261,343.9668 535.3261,344.5762 L535.3261,346.0293 Q535.3261,346.6387 535.0917,346.9043 Q534.8574,347.1699 534.4824,347.1699 Q534.1386,347.1699 533.9355,346.9668 Q533.7324,346.7793 533.623,346.2637 Q533.5761,345.9043 533.3886,345.7168 Q533.0605,345.3418 532.4511,345.123 Q531.8417,344.9043 531.2167,344.9043 Q530.4511,344.9043 529.8105,345.2324 Q529.1855,345.5605 528.6855,346.3105 Q528.2011,347.0605 528.2011,348.0918 L528.2011,349.1855 Q528.2011,350.4199 529.0917,351.248 Q529.9824,352.0605 531.5761,352.0605 Q532.5136,352.0605 533.1699,351.8105 Q533.5605,351.6543 533.9824,351.2168 Q534.248,350.9512 534.3886,350.873 Q534.5449,350.7949 534.748,350.7949 Q535.0761,350.7949 535.3261,351.0605 Q535.5917,351.3105 535.5917,351.6543 Q535.5917,351.998 535.248,352.4043 Q534.748,352.9824 533.9511,353.3105 Q532.873,353.7637 531.5761,353.7637 Q530.0605,353.7637 528.8574,353.1387 Q527.873,352.6387 527.1855,351.5762 Q526.498,350.498 526.498,349.2168 L526.498,348.0605 Q526.498,346.7324 527.1074,345.5918 Q527.7324,344.4355 528.8261,343.8262 Q529.9199,343.2012 531.1542,343.2012 Q531.8886,343.2012 532.5292,343.373 Q533.1855,343.5293 533.7324,343.8887 Z " fill="#000000"/><text fill="#000000" font-family="sans-serif" font-size="14" lengthAdjust="spacing" textLength="80.917" x="546.626" y="353.8105">User_Project</text><line style="stroke:#181818;stroke-width:0.5;" x1="509.5" x2="637.0098" y1="364.0137" y2="364.0137"/><ellipse cx="519.5" cy="378.8242" fill="none" rx="3" ry="3" style="stroke:#038048;stroke-width:1.0;"/><text fill="#000000" font-family="sans-serif" font-size="14" lengthAdjust="spacing" textLength="103.5098" x="528.5" y="383.1211">id: int {readOnly}</text><ellipse cx="519.5" cy="397.4453" fill="none" rx="3" ry="3" style="stroke:#038048;stroke-width:1.0;"/><text fill="#000000" font-family="sans-serif" font-size="14" lengthAdjust="spacing" textLength="64.5723" x="528.5" y="401.7422">user: User</text><ellipse cx="519.5" cy="416.0664" fill="none" rx="3" ry="3" style="stroke:#038048;stroke-width:1.0;"/><text fill="#000000" font-family="sans-serif" font-size="14" lengthAdjust="spacing" textLength="93.3721" x="528.5" y="420.3633">project: Project</text><ellipse cx="519.5" cy="434.6875" fill="none" rx="3" ry="3" style="stroke:#038048;stroke-width:1.0;"/><text fill="#000000" font-family="sans-serif" font-size="14" lengthAdjust="spacing" textLength="103.4893" x="528.5" y="438.9844">role: ProjectRole</text><line style="stroke:#181818;stroke-width:0.5;" x1="509.5" x2="637.0098" y1="446.498" y2="446.498"/></g><!--class CustomList--><g id="elem_CustomList"><rect codeLine="95" fill="#F1F1F1" height="252.832" id="CustomList" rx="2.5" ry="2.5" style="stroke:#181818;stroke-width:0.5;" width="300.6953" x="423" y="43.5137"/><ellipse cx="534.0874" cy="59.5137" fill="#ADD1B2" rx="11" ry="11" style="stroke:#181818;stroke-width:1.0;"/><path d="M536.853,55.3887 Q537.0093,55.1699 537.1968,55.0605 Q537.3843,54.9512 537.603,54.9512 Q537.978,54.9512 538.2124,55.2168 Q538.4468,55.4668 538.4468,56.0762 L538.4468,57.5293 Q538.4468,58.1387 538.2124,58.4043 Q537.978,58.6699 537.603,58.6699 Q537.2593,58.6699 537.0562,58.4668 Q536.853,58.2793 536.7437,57.7637 Q536.6968,57.4043 536.5093,57.2168 Q536.1812,56.8418 535.5718,56.623 Q534.9624,56.4043 534.3374,56.4043 Q533.5718,56.4043 532.9312,56.7324 Q532.3062,57.0605 531.8062,57.8105 Q531.3218,58.5605 531.3218,59.5918 L531.3218,60.6855 Q531.3218,61.9199 532.2124,62.748 Q533.103,63.5605 534.6968,63.5605 Q535.6343,63.5605 536.2905,63.3105 Q536.6812,63.1543 537.103,62.7168 Q537.3687,62.4512 537.5093,62.373 Q537.6655,62.2949 537.8687,62.2949 Q538.1968,62.2949 538.4468,62.5605 Q538.7124,62.8105 538.7124,63.1543 Q538.7124,63.498 538.3687,63.9043 Q537.8687,64.4824 537.0718,64.8105 Q535.9937,65.2637 534.6968,65.2637 Q533.1812,65.2637 531.978,64.6387 Q530.9937,64.1387 530.3062,63.0762 Q529.6187,61.998 529.6187,60.7168 L529.6187,59.5605 Q529.6187,58.2324 530.228,57.0918 Q530.853,55.9355 531.9468,55.3262 Q533.0405,54.7012 534.2749,54.7012 Q535.0093,54.7012 535.6499,54.873 Q536.3062,55.0293 536.853,55.3887 Z " fill="#000000"/><text fill="#000000" font-family="sans-serif" font-size="14" lengthAdjust="spacing" textLength="70.0205" x="554.5874" y="65.3105">CustomList</text><line style="stroke:#181818;stroke-width:0.5;" x1="424" x2="722.6953" y1="75.5137" y2="75.5137"/><ellipse cx="434" cy="90.3242" fill="none" rx="3" ry="3" style="stroke:#038048;stroke-width:1.0;"/><text fill="#000000" font-family="sans-serif" font-size="14" lengthAdjust="spacing" textLength="103.5098" x="443" y="94.6211">id: int {readOnly}</text><ellipse cx="434" cy="108.9453" fill="none" rx="3" ry="3" style="stroke:#038048;stroke-width:1.0;"/><text fill="#000000" font-family="sans-serif" font-size="14" lengthAdjust="spacing" textLength="209.3779" x="443" y="113.2422">household: Household {readOnly}</text><ellipse cx="434" cy="127.5664" fill="none" rx="3" ry="3" style="stroke:#038048;stroke-width:1.0;"/><text fill="#000000" font-family="sans-serif" font-size="14" lengthAdjust="spacing" textLength="176.6543" x="443" y="131.8633">created_by: User {readOnly}</text><ellipse cx="434" cy="146.1875" fill="none" rx="3" ry="3" style="stroke:#038048;stroke-width:1.0;"/><text fill="#000000" font-family="sans-serif" font-size="14" lengthAdjust="spacing" textLength="274.6953" x="443" y="150.4844">area_of_responsibility: AreaOfResponsibility</text><ellipse cx="434" cy="164.8086" fill="none" rx="3" ry="3" style="stroke:#038048;stroke-width:1.0;"/><text fill="#000000" font-family="sans-serif" font-size="14" lengthAdjust="spacing" textLength="93.3721" x="443" y="169.1055">project: Project</text><ellipse cx="434" cy="183.4297" fill="none" rx="3" ry="3" style="stroke:#038048;stroke-width:1.0;"/><text fill="#000000" font-family="sans-serif" font-size="14" lengthAdjust="spacing" textLength="45.1172" x="443" y="187.7266">title: str</text><ellipse cx="434" cy="202.0508" fill="none" rx="3" ry="3" style="stroke:#038048;stroke-width:1.0;"/><text fill="#000000" font-family="sans-serif" font-size="14" lengthAdjust="spacing" textLength="91.0342" x="443" y="206.3477">description: str</text><ellipse cx="434" cy="220.6719" fill="none" rx="3" ry="3" style="stroke:#038048;stroke-width:1.0;"/><text fill="#000000" font-family="sans-serif" font-size="14" lengthAdjust="spacing" textLength="105.8271" x="443" y="224.9688">is_checklist: bool</text><ellipse cx="434" cy="239.293" fill="none" rx="3" ry="3" style="stroke:#038048;stroke-width:1.0;"/><text fill="#000000" font-family="sans-serif" font-size="14" lengthAdjust="spacing" textLength="88.7168" x="443" y="243.5898">is_active: bool</text><ellipse cx="434" cy="257.9141" fill="none" rx="3" ry="3" style="stroke:#038048;stroke-width:1.0;"/><text fill="#000000" font-family="sans-serif" font-size="14" lengthAdjust="spacing" textLength="255.2676" x="443" y="262.2109">created_at: datetime.datetime {readOnly}</text><ellipse cx="434" cy="276.5352" fill="none" rx="3" ry="3" style="stroke:#038048;stroke-width:1.0;"/><text fill="#000000" font-family="sans-serif" font-size="14" lengthAdjust="spacing" textLength="259.1777" x="443" y="280.832">updated_at: datetime.datetime {readOnly}</text><line style="stroke:#181818;stroke-width:0.5;" x1="424" x2="722.6953" y1="288.3457" y2="288.3457"/></g><!--class CustomListItem--><g id="elem_CustomListItem"><rect codeLine="109" fill="#F1F1F1" height="103.8633" id="CustomListItem" rx="2.5" ry="2.5" style="stroke:#181818;stroke-width:0.5;" width="235.3779" x="817" y="915.0137"/><ellipse cx="881.8149" cy="931.0137" fill="#ADD1B2" rx="11" ry="11" style="stroke:#181818;stroke-width:1.0;"/><path d="M884.5806,926.8887 Q884.7368,926.6699 884.9243,926.5605 Q885.1118,926.4512 885.3306,926.4512 Q885.7056,926.4512 885.9399,926.7168 Q886.1743,926.9668 886.1743,927.5762 L886.1743,929.0293 Q886.1743,929.6387 885.9399,929.9043 Q885.7056,930.1699 885.3306,930.1699 Q884.9868,930.1699 884.7837,929.9668 Q884.5806,929.7793 884.4712,929.2637 Q884.4243,928.9043 884.2368,928.7168 Q883.9087,928.3418 883.2993,928.123 Q882.6899,927.9043 882.0649,927.9043 Q881.2993,927.9043 880.6587,928.2324 Q880.0337,928.5605 879.5337,929.3105 Q879.0493,930.0605 879.0493,931.0918 L879.0493,932.1855 Q879.0493,933.4199 879.9399,934.248 Q880.8306,935.0605 882.4243,935.0605 Q883.3618,935.0605 884.0181,934.8105 Q884.4087,934.6543 884.8306,934.2168 Q885.0962,933.9512 885.2368,933.873 Q885.3931,933.7949 885.5962,933.7949 Q885.9243,933.7949 886.1743,934.0605 Q886.4399,934.3105 886.4399,934.6543 Q886.4399,934.998 886.0962,935.4043 Q885.5962,935.9824 884.7993,936.3105 Q883.7212,936.7637 882.4243,936.7637 Q880.9087,936.7637 879.7056,936.1387 Q878.7212,935.6387 878.0337,934.5762 Q877.3462,933.498 877.3462,932.2168 L877.3462,931.0605 Q877.3462,929.7324 877.9556,928.5918 Q878.5806,927.4355 879.6743,926.8262 Q880.7681,926.2012 882.0024,926.2012 Q882.7368,926.2012 883.3774,926.373 Q884.0337,926.5293 884.5806,926.8887 Z " fill="#000000"/><text fill="#000000" font-family="sans-serif" font-size="14" lengthAdjust="spacing" textLength="97.248" x="902.3149" y="936.8105">CustomListItem</text><line style="stroke:#181818;stroke-width:0.5;" x1="818" x2="1051.3779" y1="947.0137" y2="947.0137"/><ellipse cx="828" cy="961.8242" fill="none" rx="3" ry="3" style="stroke:#038048;stroke-width:1.0;"/><text fill="#000000" font-family="sans-serif" font-size="14" lengthAdjust="spacing" textLength="103.5098" x="837" y="966.1211">id: int {readOnly}</text><ellipse cx="828" cy="980.4453" fill="none" rx="3" ry="3" style="stroke:#038048;stroke-width:1.0;"/><text fill="#000000" font-family="sans-serif" font-size="14" lengthAdjust="spacing" textLength="209.3779" x="837" y="984.7422">household: Household {readOnly}</text><ellipse cx="828" cy="999.0664" fill="none" rx="3" ry="3" style="stroke:#038048;stroke-width:1.0;"/><text fill="#000000" font-family="sans-serif" font-size="14" lengthAdjust="spacing" textLength="58.3516" x="837" y="1003.3633">name: str</text><line style="stroke:#181818;stroke-width:0.5;" x1="818" x2="1051.3779" y1="1010.877" y2="1010.877"/></g><!--class CustomList_CustomListItem--><g id="elem_CustomList_CustomListItem"><rect codeLine="115" fill="#F1F1F1" height="196.9688" id="CustomList_CustomListItem" rx="2.5" ry="2.5" style="stroke:#181818;stroke-width:0.5;" width="248.5303" x="810" y="682.5137"/><ellipse cx="843.664" cy="698.5137" fill="#ADD1B2" rx="11" ry="11" style="stroke:#181818;stroke-width:1.0;"/><path d="M846.4296,694.3887 Q846.5859,694.1699 846.7734,694.0605 Q846.9609,693.9512 847.1796,693.9512 Q847.5546,693.9512 847.789,694.2168 Q848.0234,694.4668 848.0234,695.0762 L848.0234,696.5293 Q848.0234,697.1387 847.789,697.4043 Q847.5546,697.6699 847.1796,697.6699 Q846.8359,697.6699 846.6328,697.4668 Q846.4296,697.2793 846.3203,696.7637 Q846.2734,696.4043 846.0859,696.2168 Q845.7578,695.8418 845.1484,695.623 Q844.539,695.4043 843.914,695.4043 Q843.1484,695.4043 842.5078,695.7324 Q841.8828,696.0605 841.3828,696.8105 Q840.8984,697.5605 840.8984,698.5918 L840.8984,699.6855 Q840.8984,700.9199 841.789,701.748 Q842.6796,702.5605 844.2734,702.5605 Q845.2109,702.5605 845.8671,702.3105 Q846.2578,702.1543 846.6796,701.7168 Q846.9453,701.4512 847.0859,701.373 Q847.2421,701.2949 847.4453,701.2949 Q847.7734,701.2949 848.0234,701.5605 Q848.289,701.8105 848.289,702.1543 Q848.289,702.498 847.9453,702.9043 Q847.4453,703.4824 846.6484,703.8105 Q845.5703,704.2637 844.2734,704.2637 Q842.7578,704.2637 841.5546,703.6387 Q840.5703,703.1387 839.8828,702.0762 Q839.1953,700.998 839.1953,699.7168 L839.1953,698.5605 Q839.1953,697.2324 839.8046,696.0918 Q840.4296,694.9355 841.5234,694.3262 Q842.6171,693.7012 843.8515,693.7012 Q844.5859,693.7012 845.2265,693.873 Q845.8828,694.0293 846.4296,694.3887 Z " fill="#000000"/><text fill="#000000" font-family="sans-serif" font-size="14" lengthAdjust="spacing" textLength="175.0547" x="861.8116" y="704.3105">CustomList_CustomListItem</text><line style="stroke:#181818;stroke-width:0.5;" x1="811" x2="1057.5303" y1="714.5137" y2="714.5137"/><ellipse cx="821" cy="729.3242" fill="none" rx="3" ry="3" style="stroke:#038048;stroke-width:1.0;"/><text fill="#000000" font-family="sans-serif" font-size="14" lengthAdjust="spacing" textLength="103.5098" x="830" y="733.6211">id: int {readOnly}</text><ellipse cx="821" cy="747.9453" fill="none" rx="3" ry="3" style="stroke:#038048;stroke-width:1.0;"/><text fill="#000000" font-family="sans-serif" font-size="14" lengthAdjust="spacing" textLength="94.9102" x="830" y="752.2422">list: CustomList</text><ellipse cx="821" cy="766.5664" fill="none" rx="3" ry="3" style="stroke:#038048;stroke-width:1.0;"/><text fill="#000000" font-family="sans-serif" font-size="14" lengthAdjust="spacing" textLength="131.4756" x="830" y="770.8633">item: CustomListItem</text><ellipse cx="821" cy="785.1875" fill="none" rx="3" ry="3" style="stroke:#038048;stroke-width:1.0;"/><text fill="#000000" font-family="sans-serif" font-size="14" lengthAdjust="spacing" textLength="222.5303" x="830" y="789.4844">parent: CustomList_CustomListItem</text><ellipse cx="821" cy="803.8086" fill="none" rx="3" ry="3" style="stroke:#038048;stroke-width:1.0;"/><text fill="#000000" font-family="sans-serif" font-size="14" lengthAdjust="spacing" textLength="83.2754" x="830" y="808.1055">quantity: float</text><ellipse cx="821" cy="822.4297" fill="none" rx="3" ry="3" style="stroke:#038048;stroke-width:1.0;"/><text fill="#000000" font-family="sans-serif" font-size="14" lengthAdjust="spacing" textLength="45.9033" x="830" y="826.7266">unit: str</text><ellipse cx="821" cy="841.0508" fill="none" rx="3" ry="3" style="stroke:#038048;stroke-width:1.0;"/><text fill="#000000" font-family="sans-serif" font-size="14" lengthAdjust="spacing" textLength="50.5791" x="830" y="845.3477">note: str</text><ellipse cx="821" cy="859.6719" fill="none" rx="3" ry="3" style="stroke:#038048;stroke-width:1.0;"/><text fill="#000000" font-family="sans-serif" font-size="14" lengthAdjust="spacing" textLength="83.2891" x="830" y="863.9688">is_done: bool</text><line style="stroke:#181818;stroke-width:0.5;" x1="811" x2="1057.5303" y1="871.4824" y2="871.4824"/></g><!--class Task--><g id="elem_Task"><rect codeLine="129" fill="#F1F1F1" height="290.0742" id="Task" rx="2.5" ry="2.5" style="stroke:#181818;stroke-width:0.5;" width="300.6953" x="784" y="357.0137"/><ellipse cx="914.9287" cy="373.0137" fill="#ADD1B2" rx="11" ry="11" style="stroke:#181818;stroke-width:1.0;"/><path d="M917.6943,368.8887 Q917.8506,368.6699 918.0381,368.5605 Q918.2256,368.4512 918.4443,368.4512 Q918.8193,368.4512 919.0537,368.7168 Q919.2881,368.9668 919.2881,369.5762 L919.2881,371.0293 Q919.2881,371.6387 919.0537,371.9043 Q918.8193,372.1699 918.4443,372.1699 Q918.1006,372.1699 917.8975,371.9668 Q917.6943,371.7793 917.585,371.2637 Q917.5381,370.9043 917.3506,370.7168 Q917.0225,370.3418 916.4131,370.123 Q915.8037,369.9043 915.1787,369.9043 Q914.4131,369.9043 913.7725,370.2324 Q913.1475,370.5605 912.6475,371.3105 Q912.1631,372.0605 912.1631,373.0918 L912.1631,374.1855 Q912.1631,375.4199 913.0537,376.248 Q913.9443,377.0605 915.5381,377.0605 Q916.4756,377.0605 917.1318,376.8105 Q917.5225,376.6543 917.9443,376.2168 Q918.21,375.9512 918.3506,375.873 Q918.5068,375.7949 918.71,375.7949 Q919.0381,375.7949 919.2881,376.0605 Q919.5537,376.3105 919.5537,376.6543 Q919.5537,376.998 919.21,377.4043 Q918.71,377.9824 917.9131,378.3105 Q916.835,378.7637 915.5381,378.7637 Q914.0225,378.7637 912.8193,378.1387 Q911.835,377.6387 911.1475,376.5762 Q910.46,375.498 910.46,374.2168 L910.46,373.0605 Q910.46,371.7324 911.0693,370.5918 Q911.6943,369.4355 912.7881,368.8262 Q913.8818,368.2012 915.1162,368.2012 Q915.8506,368.2012 916.4912,368.373 Q917.1475,368.5293 917.6943,368.8887 Z " fill="#000000"/><text fill="#000000" font-family="sans-serif" font-size="14" lengthAdjust="spacing" textLength="30.3379" x="935.4287" y="378.8105">Task</text><line style="stroke:#181818;stroke-width:0.5;" x1="785" x2="1083.6953" y1="389.0137" y2="389.0137"/><ellipse cx="795" cy="403.8242" fill="none" rx="3" ry="3" style="stroke:#038048;stroke-width:1.0;"/><text fill="#000000" font-family="sans-serif" font-size="14" lengthAdjust="spacing" textLength="103.5098" x="804" y="408.1211">id: int {readOnly}</text><ellipse cx="795" cy="422.4453" fill="none" rx="3" ry="3" style="stroke:#038048;stroke-width:1.0;"/><text fill="#000000" font-family="sans-serif" font-size="14" lengthAdjust="spacing" textLength="209.3779" x="804" y="426.7422">household: Household {readOnly}</text><ellipse cx="795" cy="441.0664" fill="none" rx="3" ry="3" style="stroke:#038048;stroke-width:1.0;"/><text fill="#000000" font-family="sans-serif" font-size="14" lengthAdjust="spacing" textLength="274.6953" x="804" y="445.3633">area_of_responsibility: AreaOfResponsibility</text><ellipse cx="795" cy="459.6875" fill="none" rx="3" ry="3" style="stroke:#038048;stroke-width:1.0;"/><text fill="#000000" font-family="sans-serif" font-size="14" lengthAdjust="spacing" textLength="176.6543" x="804" y="463.9844">created_by: User {readOnly}</text><ellipse cx="795" cy="478.3086" fill="none" rx="3" ry="3" style="stroke:#038048;stroke-width:1.0;"/><text fill="#000000" font-family="sans-serif" font-size="14" lengthAdjust="spacing" textLength="112.8408" x="804" y="482.6055">assigned_to: User</text><ellipse cx="795" cy="496.9297" fill="none" rx="3" ry="3" style="stroke:#038048;stroke-width:1.0;"/><text fill="#000000" font-family="sans-serif" font-size="14" lengthAdjust="spacing" textLength="93.3447" x="804" y="501.2266">priority: Priority</text><ellipse cx="795" cy="515.5508" fill="none" rx="3" ry="3" style="stroke:#038048;stroke-width:1.0;"/><text fill="#000000" font-family="sans-serif" font-size="14" lengthAdjust="spacing" textLength="84.8203" x="804" y="519.8477">status: Status</text><ellipse cx="795" cy="534.1719" fill="none" rx="3" ry="3" style="stroke:#038048;stroke-width:1.0;"/><text fill="#000000" font-family="sans-serif" font-size="14" lengthAdjust="spacing" textLength="107.3857" x="804" y="538.4688">is_recurring: bool</text><ellipse cx="795" cy="552.793" fill="none" rx="3" ry="3" style="stroke:#038048;stroke-width:1.0;"/><text fill="#000000" font-family="sans-serif" font-size="14" lengthAdjust="spacing" textLength="45.1172" x="804" y="557.0898">title: str</text><ellipse cx="795" cy="571.4141" fill="none" rx="3" ry="3" style="stroke:#038048;stroke-width:1.0;"/><text fill="#000000" font-family="sans-serif" font-size="14" lengthAdjust="spacing" textLength="91.0342" x="804" y="575.7109">description: str</text><ellipse cx="795" cy="590.0352" fill="none" rx="3" ry="3" style="stroke:#038048;stroke-width:1.0;"/><text fill="#000000" font-family="sans-serif" font-size="14" lengthAdjust="spacing" textLength="255.2676" x="804" y="594.332">created_at: datetime.datetime {readOnly}</text><ellipse cx="795" cy="608.6563" fill="none" rx="3" ry="3" style="stroke:#038048;stroke-width:1.0;"/><text fill="#000000" font-family="sans-serif" font-size="14" lengthAdjust="spacing" textLength="259.1777" x="804" y="612.9531">updated_at: datetime.datetime {readOnly}</text><ellipse cx="795" cy="627.2773" fill="none" rx="3" ry="3" style="stroke:#038048;stroke-width:1.0;"/><text fill="#000000" font-family="sans-serif" font-size="14" lengthAdjust="spacing" textLength="239.7158" x="804" y="631.5742">done_at: datetime.datetime {readOnly}</text><line style="stroke:#181818;stroke-width:0.5;" x1="785" x2="1083.6953" y1="639.0879" y2="639.0879"/></g><!--class Priority--><g id="elem_Priority"><rect codeLine="145" fill="#F1F1F1" height="122.4844" id="Priority" rx="2.5" ry="2.5" style="stroke:#181818;stroke-width:0.5;" width="85.5342" x="891.5" y="200.0137"/><ellipse cx="910.989" cy="216.0137" fill="#EB937F" rx="11" ry="11" style="stroke:#181818;stroke-width:1.0;"/><path d="M909.8484,216.8105 L909.8484,219.3105 L914.1765,219.3105 L914.1765,218.3887 Q914.1765,217.7793 914.4109,217.5137 Q914.6609,217.248 915.0359,217.248 Q915.4109,217.248 915.6453,217.5137 Q915.8796,217.7793 915.8796,218.3887 L915.8796,221.0137 L907.8796,221.0137 Q907.2546,221.0137 906.989,220.7793 Q906.739,220.5449 906.739,220.1543 Q906.739,219.7793 907.0046,219.5449 Q907.2703,219.3105 907.8796,219.3105 L908.1453,219.3105 L908.1453,212.6543 L907.8796,212.6543 Q907.2546,212.6543 906.989,212.4199 Q906.739,212.1855 906.739,211.7949 Q906.739,211.4199 906.989,211.1855 Q907.2546,210.9512 907.8796,210.9512 L915.5046,210.9512 L915.5046,213.5449 Q915.5046,214.1543 915.2703,214.4199 Q915.0515,214.6699 914.6609,214.6699 Q914.2859,214.6699 914.0515,214.4199 Q913.8171,214.1543 913.8171,213.5449 L913.8171,212.6543 L909.8484,212.6543 L909.8484,215.1074 L911.3328,215.1074 Q911.3328,214.4512 911.4578,214.2637 Q911.7234,213.8574 912.1921,213.8574 Q912.5671,213.8574 912.8015,214.123 Q913.0359,214.373 913.0359,214.9824 L913.0359,216.9512 Q913.0359,217.498 912.9109,217.6855 Q912.6453,218.0762 912.1921,218.0762 Q911.7234,218.0762 911.4578,217.6699 Q911.3328,217.4824 911.3328,216.8105 L909.8484,216.8105 Z " fill="#000000"/><text fill="#000000" font-family="sans-serif" font-size="14" lengthAdjust="spacing" textLength="43.5586" x="925.9866" y="221.8105">Priority</text><line style="stroke:#181818;stroke-width:0.5;" x1="892.5" x2="976.0342" y1="232.0137" y2="232.0137"/><text fill="#000000" font-family="sans-serif" font-size="14" lengthAdjust="spacing" textLength="63.4375" x="897.5" y="251.1211">urgent = 1</text><text fill="#000000" font-family="sans-serif" font-size="14" lengthAdjust="spacing" textLength="50.21" x="897.5" y="269.7422">high = 2</text><text fill="#000000" font-family="sans-serif" font-size="14" lengthAdjust="spacing" textLength="73.5342" x="897.5" y="288.3633">medium = 3</text><text fill="#000000" font-family="sans-serif" font-size="14" lengthAdjust="spacing" textLength="44.748" x="897.5" y="306.9844">low = 4</text><line style="stroke:#181818;stroke-width:0.5;" x1="892.5" x2="976.0342" y1="314.498" y2="314.498"/></g><!--class Status--><g id="elem_Status"><rect codeLine="152" fill="#F1F1F1" height="122.4844" id="Status" rx="2.5" ry="2.5" style="stroke:#181818;stroke-width:0.5;" width="108.8926" x="880" y="43.0137"/><ellipse cx="911.7414" cy="59.0137" fill="#EB937F" rx="11" ry="11" style="stroke:#181818;stroke-width:1.0;"/><path d="M910.6008,59.8105 L910.6008,62.3105 L914.9289,62.3105 L914.9289,61.3887 Q914.9289,60.7793 915.1633,60.5137 Q915.4133,60.248 915.7883,60.248 Q916.1633,60.248 916.3977,60.5137 Q916.632,60.7793 916.632,61.3887 L916.632,64.0137 L908.632,64.0137 Q908.007,64.0137 907.7414,63.7793 Q907.4914,63.5449 907.4914,63.1543 Q907.4914,62.7793 907.757,62.5449 Q908.0227,62.3105 908.632,62.3105 L908.8977,62.3105 L908.8977,55.6543 L908.632,55.6543 Q908.007,55.6543 907.7414,55.4199 Q907.4914,55.1855 907.4914,54.7949 Q907.4914,54.4199 907.7414,54.1855 Q908.007,53.9512 908.632,53.9512 L916.257,53.9512 L916.257,56.5449 Q916.257,57.1543 916.0227,57.4199 Q915.8039,57.6699 915.4133,57.6699 Q915.0383,57.6699 914.8039,57.4199 Q914.5695,57.1543 914.5695,56.5449 L914.5695,55.6543 L910.6008,55.6543 L910.6008,58.1074 L912.0852,58.1074 Q912.0852,57.4512 912.2102,57.2637 Q912.4758,56.8574 912.9445,56.8574 Q913.3195,56.8574 913.5539,57.123 Q913.7883,57.373 913.7883,57.9824 L913.7883,59.9512 Q913.7883,60.498 913.6633,60.6855 Q913.3977,61.0762 912.9445,61.0762 Q912.4758,61.0762 912.2102,60.6699 Q912.0852,60.4824 912.0852,59.8105 L910.6008,59.8105 Z " fill="#000000"/><text fill="#000000" font-family="sans-serif" font-size="14" lengthAdjust="spacing" textLength="39.6895" x="929.4617" y="64.8105">Status</text><line style="stroke:#181818;stroke-width:0.5;" x1="881" x2="987.8926" y1="75.0137" y2="75.0137"/><text fill="#000000" font-family="sans-serif" font-size="14" lengthAdjust="spacing" textLength="71.9961" x="886" y="94.1211">backlog = 1</text><text fill="#000000" font-family="sans-serif" font-size="14" lengthAdjust="spacing" textLength="58.7754" x="886" y="112.7422">to_do = 2</text><text fill="#000000" font-family="sans-serif" font-size="14" lengthAdjust="spacing" textLength="96.8926" x="886" y="131.3633">in_progress = 3</text><text fill="#000000" font-family="sans-serif" font-size="14" lengthAdjust="spacing" textLength="54.8857" x="886" y="149.9844">done = 4</text><line style="stroke:#181818;stroke-width:0.5;" x1="881" x2="987.8926" y1="157.498" y2="157.498"/></g><!--class Task_TaskHelper--><g id="elem_Task_TaskHelper"><rect codeLine="159" fill="#F1F1F1" height="103.8633" id="Task_TaskHelper" rx="2.5" ry="2.5" style="stroke:#181818;stroke-width:0.5;" width="141.7031" x="1224.5" y="915.0137"/><ellipse cx="1239.5" cy="931.0137" fill="#ADD1B2" rx="11" ry="11" style="stroke:#181818;stroke-width:1.0;"/><path d="M1242.2656,926.8887 Q1242.4219,926.6699 1242.6094,926.5605 Q1242.7969,926.4512 1243.0156,926.4512 Q1243.3906,926.4512 1243.625,926.7168 Q1243.8594,926.9668 1243.8594,927.5762 L1243.8594,929.0293 Q1243.8594,929.6387 1243.625,929.9043 Q1243.3906,930.1699 1243.0156,930.1699 Q1242.6719,930.1699 1242.4688,929.9668 Q1242.2656,929.7793 1242.1563,929.2637 Q1242.1094,928.9043 1241.9219,928.7168 Q1241.5938,928.3418 1240.9844,928.123 Q1240.375,927.9043 1239.75,927.9043 Q1238.9844,927.9043 1238.3438,928.2324 Q1237.7188,928.5605 1237.2188,929.3105 Q1236.7344,930.0605 1236.7344,931.0918 L1236.7344,932.1855 Q1236.7344,933.4199 1237.625,934.248 Q1238.5156,935.0605 1240.1094,935.0605 Q1241.0469,935.0605 1241.7031,934.8105 Q1242.0938,934.6543 1242.5156,934.2168 Q1242.7813,933.9512 1242.9219,933.873 Q1243.0781,933.7949 1243.2813,933.7949 Q1243.6094,933.7949 1243.8594,934.0605 Q1244.125,934.3105 1244.125,934.6543 Q1244.125,934.998 1243.7813,935.4043 Q1243.2813,935.9824 1242.4844,936.3105 Q1241.4063,936.7637 1240.1094,936.7637 Q1238.5938,936.7637 1237.3906,936.1387 Q1236.4063,935.6387 1235.7188,934.5762 Q1235.0313,933.498 1235.0313,932.2168 L1235.0313,931.0605 Q1235.0313,929.7324 1235.6406,928.5918 Q1236.2656,927.4355 1237.3594,926.8262 Q1238.4531,926.2012 1239.6875,926.2012 Q1240.4219,926.2012 1241.0625,926.373 Q1241.7188,926.5293 1242.2656,926.8887 Z " fill="#000000"/><text fill="#000000" font-family="sans-serif" font-size="14" lengthAdjust="spacing" textLength="109.7031" x="1253.5" y="936.8105">Task_TaskHelper</text><line style="stroke:#181818;stroke-width:0.5;" x1="1225.5" x2="1365.2031" y1="947.0137" y2="947.0137"/><ellipse cx="1235.5" cy="961.8242" fill="none" rx="3" ry="3" style="stroke:#038048;stroke-width:1.0;"/><text fill="#000000" font-family="sans-serif" font-size="14" lengthAdjust="spacing" textLength="103.5098" x="1244.5" y="966.1211">id: int {readOnly}</text><ellipse cx="1235.5" cy="980.4453" fill="none" rx="3" ry="3" style="stroke:#038048;stroke-width:1.0;"/><text fill="#000000" font-family="sans-serif" font-size="14" lengthAdjust="spacing" textLength="64.5723" x="1244.5" y="984.7422">user: User</text><ellipse cx="1235.5" cy="999.0664" fill="none" rx="3" ry="3" style="stroke:#038048;stroke-width:1.0;"/><text fill="#000000" font-family="sans-serif" font-size="14" lengthAdjust="spacing" textLength="63.793" x="1244.5" y="1003.3633">task: Task</text><line style="stroke:#181818;stroke-width:0.5;" x1="1225.5" x2="1365.2031" y1="1010.877" y2="1010.877"/></g><!--class RecurrenceCycle--><g id="elem_RecurrenceCycle"><rect codeLine="165" fill="#F1F1F1" height="122.4844" id="RecurrenceCycle" rx="2.5" ry="2.5" style="stroke:#181818;stroke-width:0.5;" width="139.3721" x="1226" y="758.0137"/><ellipse cx="1241" cy="774.0137" fill="#EB937F" rx="11" ry="11" style="stroke:#181818;stroke-width:1.0;"/><path d="M1239.8594,774.8105 L1239.8594,777.3105 L1244.1875,777.3105 L1244.1875,776.3887 Q1244.1875,775.7793 1244.4219,775.5137 Q1244.6719,775.248 1245.0469,775.248 Q1245.4219,775.248 1245.6563,775.5137 Q1245.8906,775.7793 1245.8906,776.3887 L1245.8906,779.0137 L1237.8906,779.0137 Q1237.2656,779.0137 1237,778.7793 Q1236.75,778.5449 1236.75,778.1543 Q1236.75,777.7793 1237.0156,777.5449 Q1237.2813,777.3105 1237.8906,777.3105 L1238.1563,777.3105 L1238.1563,770.6543 L1237.8906,770.6543 Q1237.2656,770.6543 1237,770.4199 Q1236.75,770.1855 1236.75,769.7949 Q1236.75,769.4199 1237,769.1855 Q1237.2656,768.9512 1237.8906,768.9512 L1245.5156,768.9512 L1245.5156,771.5449 Q1245.5156,772.1543 1245.2813,772.4199 Q1245.0625,772.6699 1244.6719,772.6699 Q1244.2969,772.6699 1244.0625,772.4199 Q1243.8281,772.1543 1243.8281,771.5449 L1243.8281,770.6543 L1239.8594,770.6543 L1239.8594,773.1074 L1241.3438,773.1074 Q1241.3438,772.4512 1241.4688,772.2637 Q1241.7344,771.8574 1242.2031,771.8574 Q1242.5781,771.8574 1242.8125,772.123 Q1243.0469,772.373 1243.0469,772.9824 L1243.0469,774.9512 Q1243.0469,775.498 1242.9219,775.6855 Q1242.6563,776.0762 1242.2031,776.0762 Q1241.7344,776.0762 1241.4688,775.6699 Q1241.3438,775.4824 1241.3438,774.8105 L1239.8594,774.8105 Z " fill="#000000"/><text fill="#000000" font-family="sans-serif" font-size="14" lengthAdjust="spacing" textLength="107.3721" x="1255" y="779.8105">RecurrenceCycle</text><line style="stroke:#181818;stroke-width:0.5;" x1="1227" x2="1364.3721" y1="790.0137" y2="790.0137"/><text fill="#000000" font-family="sans-serif" font-size="14" lengthAdjust="spacing" textLength="52.5342" x="1232" y="809.1211">daily = 1</text><text fill="#000000" font-family="sans-serif" font-size="14" lengthAdjust="spacing" textLength="66.5342" x="1232" y="827.7422">weekly = 2</text><text fill="#000000" font-family="sans-serif" font-size="14" lengthAdjust="spacing" textLength="72.7617" x="1232" y="846.3633">monthly = 3</text><text fill="#000000" font-family="sans-serif" font-size="14" lengthAdjust="spacing" textLength="61.0859" x="1232" y="864.9844">yearly = 4</text><line style="stroke:#181818;stroke-width:0.5;" x1="1227" x2="1364.3721" y1="872.498" y2="872.498"/></g><!--class RecurringTask--><g id="elem_RecurringTask"><rect codeLine="172" fill="#F1F1F1" height="122.4844" id="RecurringTask" rx="2.5" ry="2.5" style="stroke:#181818;stroke-width:0.5;" width="247.751" x="1171.5" y="601.0137"/><ellipse cx="1245.6118" cy="617.0137" fill="#ADD1B2" rx="11" ry="11" style="stroke:#181818;stroke-width:1.0;"/><path d="M1248.3774,612.8887 Q1248.5337,612.6699 1248.7212,612.5605 Q1248.9087,612.4512 1249.1274,612.4512 Q1249.5024,612.4512 1249.7368,612.7168 Q1249.9712,612.9668 1249.9712,613.5762 L1249.9712,615.0293 Q1249.9712,615.6387 1249.7368,615.9043 Q1249.5024,616.1699 1249.1274,616.1699 Q1248.7837,616.1699 1248.5806,615.9668 Q1248.3774,615.7793 1248.2681,615.2637 Q1248.2212,614.9043 1248.0337,614.7168 Q1247.7056,614.3418 1247.0962,614.123 Q1246.4868,613.9043 1245.8618,613.9043 Q1245.0962,613.9043 1244.4556,614.2324 Q1243.8306,614.5605 1243.3306,615.3105 Q1242.8462,616.0605 1242.8462,617.0918 L1242.8462,618.1855 Q1242.8462,619.4199 1243.7368,620.248 Q1244.6274,621.0605 1246.2212,621.0605 Q1247.1587,621.0605 1247.8149,620.8105 Q1248.2056,620.6543 1248.6274,620.2168 Q1248.8931,619.9512 1249.0337,619.873 Q1249.1899,619.7949 1249.3931,619.7949 Q1249.7212,619.7949 1249.9712,620.0605 Q1250.2368,620.3105 1250.2368,620.6543 Q1250.2368,620.998 1249.8931,621.4043 Q1249.3931,621.9824 1248.5962,622.3105 Q1247.5181,622.7637 1246.2212,622.7637 Q1244.7056,622.7637 1243.5024,622.1387 Q1242.5181,621.6387 1241.8306,620.5762 Q1241.1431,619.498 1241.1431,618.2168 L1241.1431,617.0605 Q1241.1431,615.7324 1241.7524,614.5918 Q1242.3774,613.4355 1243.4712,612.8262 Q1244.5649,612.2012 1245.7993,612.2012 Q1246.5337,612.2012 1247.1743,612.373 Q1247.8306,612.5293 1248.3774,612.8887 Z " fill="#000000"/><text fill="#000000" font-family="sans-serif" font-size="14" lengthAdjust="spacing" textLength="91.0273" x="1266.1118" y="622.8105">RecurringTask</text><line style="stroke:#181818;stroke-width:0.5;" x1="1172.5" x2="1418.251" y1="633.0137" y2="633.0137"/><ellipse cx="1182.5" cy="647.8242" fill="none" rx="3" ry="3" style="stroke:#038048;stroke-width:1.0;"/><text fill="#000000" font-family="sans-serif" font-size="14" lengthAdjust="spacing" textLength="221.751" x="1191.5" y="652.1211">recurrence_cycle: RecurrenceCycle</text><ellipse cx="1182.5" cy="666.4453" fill="none" rx="3" ry="3" style="stroke:#038048;stroke-width:1.0;"/><text fill="#000000" font-family="sans-serif" font-size="14" lengthAdjust="spacing" textLength="142.3994" x="1191.5" y="670.7422">recurrence_interval: int</text><ellipse cx="1182.5" cy="685.0664" fill="none" rx="3" ry="3" style="stroke:#038048;stroke-width:1.0;"/><text fill="#000000" font-family="sans-serif" font-size="14" lengthAdjust="spacing" textLength="203.8955" x="1191.5" y="689.3633">next_reset_at: datetime.datetime</text><ellipse cx="1182.5" cy="703.6875" fill="none" rx="3" ry="3" style="stroke:#038048;stroke-width:1.0;"/><text fill="#000000" font-family="sans-serif" font-size="14" lengthAdjust="spacing" textLength="88.7168" x="1191.5" y="707.9844">is_active: bool</text><line style="stroke:#181818;stroke-width:0.5;" x1="1172.5" x2="1418.251" y1="715.498" y2="715.498"/></g><!--class NonRecurringTask--><g id="elem_NonRecurringTask"><rect codeLine="179" fill="#F1F1F1" height="85.2422" id="NonRecurringTask" rx="2.5" ry="2.5" style="stroke:#181818;stroke-width:0.5;" width="197.999" x="1196.5" y="480.5137"/><ellipse cx="1233.6801" cy="496.5137" fill="#ADD1B2" rx="11" ry="11" style="stroke:#181818;stroke-width:1.0;"/><path d="M1236.4457,492.3887 Q1236.602,492.1699 1236.7895,492.0605 Q1236.977,491.9512 1237.1957,491.9512 Q1237.5707,491.9512 1237.8051,492.2168 Q1238.0395,492.4668 1238.0395,493.0762 L1238.0395,494.5293 Q1238.0395,495.1387 1237.8051,495.4043 Q1237.5707,495.6699 1237.1957,495.6699 Q1236.852,495.6699 1236.6488,495.4668 Q1236.4457,495.2793 1236.3363,494.7637 Q1236.2895,494.4043 1236.102,494.2168 Q1235.7738,493.8418 1235.1645,493.623 Q1234.5551,493.4043 1233.9301,493.4043 Q1233.1645,493.4043 1232.5238,493.7324 Q1231.8988,494.0605 1231.3988,494.8105 Q1230.9145,495.5605 1230.9145,496.5918 L1230.9145,497.6855 Q1230.9145,498.9199 1231.8051,499.748 Q1232.6957,500.5605 1234.2895,500.5605 Q1235.227,500.5605 1235.8832,500.3105 Q1236.2738,500.1543 1236.6957,499.7168 Q1236.9613,499.4512 1237.102,499.373 Q1237.2582,499.2949 1237.4613,499.2949 Q1237.7895,499.2949 1238.0395,499.5605 Q1238.3051,499.8105 1238.3051,500.1543 Q1238.3051,500.498 1237.9613,500.9043 Q1237.4613,501.4824 1236.6645,501.8105 Q1235.5863,502.2637 1234.2895,502.2637 Q1232.7738,502.2637 1231.5707,501.6387 Q1230.5863,501.1387 1229.8988,500.0762 Q1229.2113,498.998 1229.2113,497.7168 L1229.2113,496.5605 Q1229.2113,495.2324 1229.8207,494.0918 Q1230.4457,492.9355 1231.5395,492.3262 Q1232.6332,491.7012 1233.8676,491.7012 Q1234.602,491.7012 1235.2426,491.873 Q1235.8988,492.0293 1236.4457,492.3887 Z " fill="#000000"/><text fill="#000000" font-family="sans-serif" font-size="14" lengthAdjust="spacing" textLength="116.71" x="1252.609" y="502.3105">NonRecurringTask</text><line style="stroke:#181818;stroke-width:0.5;" x1="1197.5" x2="1393.499" y1="512.5137" y2="512.5137"/><ellipse cx="1207.5" cy="527.3242" fill="none" rx="3" ry="3" style="stroke:#038048;stroke-width:1.0;"/><text fill="#000000" font-family="sans-serif" font-size="14" lengthAdjust="spacing" textLength="93.3721" x="1216.5" y="531.6211">project: Project</text><ellipse cx="1207.5" cy="545.9453" fill="none" rx="3" ry="3" style="stroke:#038048;stroke-width:1.0;"/><text fill="#000000" font-family="sans-serif" font-size="14" lengthAdjust="spacing" textLength="171.999" x="1216.5" y="550.2422">deadline: datetime.datetime</text><line style="stroke:#181818;stroke-width:0.5;" x1="1197.5" x2="1393.499" y1="557.7559" y2="557.7559"/></g><!--class ShoppingList--><g id="elem_ShoppingList"><rect codeLine="187" fill="#F1F1F1" height="196.9688" id="ShoppingList" rx="2.5" ry="2.5" style="stroke:#181818;stroke-width:0.5;" width="300.6953" x="1145" y="248.5137"/><ellipse cx="1250.6221" cy="264.5137" fill="#ADD1B2" rx="11" ry="11" style="stroke:#181818;stroke-width:1.0;"/><path d="M1253.3877,260.3887 Q1253.5439,260.1699 1253.7314,260.0605 Q1253.9189,259.9512 1254.1377,259.9512 Q1254.5127,259.9512 1254.7471,260.2168 Q1254.9814,260.4668 1254.9814,261.0762 L1254.9814,262.5293 Q1254.9814,263.1387 1254.7471,263.4043 Q1254.5127,263.6699 1254.1377,263.6699 Q1253.7939,263.6699 1253.5908,263.4668 Q1253.3877,263.2793 1253.2783,262.7637 Q1253.2314,262.4043 1253.0439,262.2168 Q1252.7158,261.8418 1252.1064,261.623 Q1251.4971,261.4043 1250.8721,261.4043 Q1250.1064,261.4043 1249.4658,261.7324 Q1248.8408,262.0605 1248.3408,262.8105 Q1247.8564,263.5605 1247.8564,264.5918 L1247.8564,265.6855 Q1247.8564,266.9199 1248.7471,267.748 Q1249.6377,268.5605 1251.2314,268.5605 Q1252.1689,268.5605 1252.8252,268.3105 Q1253.2158,268.1543 1253.6377,267.7168 Q1253.9033,267.4512 1254.0439,267.373 Q1254.2002,267.2949 1254.4033,267.2949 Q1254.7314,267.2949 1254.9814,267.5605 Q1255.2471,267.8105 1255.2471,268.1543 Q1255.2471,268.498 1254.9033,268.9043 Q1254.4033,269.4824 1253.6064,269.8105 Q1252.5283,270.2637 1251.2314,270.2637 Q1249.7158,270.2637 1248.5127,269.6387 Q1247.5283,269.1387 1246.8408,268.0762 Q1246.1533,266.998 1246.1533,265.7168 L1246.1533,264.5605 Q1246.1533,263.2324 1246.7627,262.0918 Q1247.3877,260.9355 1248.4814,260.3262 Q1249.5752,259.7012 1250.8096,259.7012 Q1251.5439,259.7012 1252.1846,259.873 Q1252.8408,260.0293 1253.3877,260.3887 Z " fill="#000000"/><text fill="#000000" font-family="sans-serif" font-size="14" lengthAdjust="spacing" textLength="80.9512" x="1271.1221" y="270.3105">ShoppingList</text><line style="stroke:#181818;stroke-width:0.5;" x1="1146" x2="1444.6953" y1="280.5137" y2="280.5137"/><ellipse cx="1156" cy="295.3242" fill="none" rx="3" ry="3" style="stroke:#038048;stroke-width:1.0;"/><text fill="#000000" font-family="sans-serif" font-size="14" lengthAdjust="spacing" textLength="103.5098" x="1165" y="299.6211">id: int {readOnly}</text><ellipse cx="1156" cy="313.9453" fill="none" rx="3" ry="3" style="stroke:#038048;stroke-width:1.0;"/><text fill="#000000" font-family="sans-serif" font-size="14" lengthAdjust="spacing" textLength="209.3779" x="1165" y="318.2422">household: Household {readOnly}</text><ellipse cx="1156" cy="332.5664" fill="none" rx="3" ry="3" style="stroke:#038048;stroke-width:1.0;"/><text fill="#000000" font-family="sans-serif" font-size="14" lengthAdjust="spacing" textLength="176.6543" x="1165" y="336.8633">created_by: User {readOnly}</text><ellipse cx="1156" cy="351.1875" fill="none" rx="3" ry="3" style="stroke:#038048;stroke-width:1.0;"/><text fill="#000000" font-family="sans-serif" font-size="14" lengthAdjust="spacing" textLength="93.3721" x="1165" y="355.4844">project: Project</text><ellipse cx="1156" cy="369.8086" fill="none" rx="3" ry="3" style="stroke:#038048;stroke-width:1.0;"/><text fill="#000000" font-family="sans-serif" font-size="14" lengthAdjust="spacing" textLength="274.6953" x="1165" y="374.1055">area_of_responsibility: AreaOfResponsibility</text><ellipse cx="1156" cy="388.4297" fill="none" rx="3" ry="3" style="stroke:#038048;stroke-width:1.0;"/><text fill="#000000" font-family="sans-serif" font-size="14" lengthAdjust="spacing" textLength="45.1172" x="1165" y="392.7266">title: str</text><ellipse cx="1156" cy="407.0508" fill="none" rx="3" ry="3" style="stroke:#038048;stroke-width:1.0;"/><text fill="#000000" font-family="sans-serif" font-size="14" lengthAdjust="spacing" textLength="255.2676" x="1165" y="411.3477">created_at: datetime.datetime {readOnly}</text><ellipse cx="1156" cy="425.6719" fill="none" rx="3" ry="3" style="stroke:#038048;stroke-width:1.0;"/><text fill="#000000" font-family="sans-serif" font-size="14" lengthAdjust="spacing" textLength="259.1777" x="1165" y="429.9688">updated_at: datetime.datetime {readOnly}</text><line style="stroke:#181818;stroke-width:0.5;" x1="1146" x2="1444.6953" y1="437.4824" y2="437.4824"/></g><!--class ShoppingListItemCategory--><g id="elem_ShoppingListItemCategory"><rect codeLine="198" fill="#F1F1F1" height="103.8633" id="ShoppingListItemCategory" rx="2.5" ry="2.5" style="stroke:#181818;stroke-width:0.5;" width="235.3779" x="1514.5" y="915.0137"/><ellipse cx="1546.7767" cy="931.0137" fill="#ADD1B2" rx="11" ry="11" style="stroke:#181818;stroke-width:1.0;"/><path d="M1549.5423,926.8887 Q1549.6985,926.6699 1549.886,926.5605 Q1550.0735,926.4512 1550.2923,926.4512 Q1550.6673,926.4512 1550.9017,926.7168 Q1551.136,926.9668 1551.136,927.5762 L1551.136,929.0293 Q1551.136,929.6387 1550.9017,929.9043 Q1550.6673,930.1699 1550.2923,930.1699 Q1549.9485,930.1699 1549.7454,929.9668 Q1549.5423,929.7793 1549.4329,929.2637 Q1549.386,928.9043 1549.1985,928.7168 Q1548.8704,928.3418 1548.261,928.123 Q1547.6517,927.9043 1547.0267,927.9043 Q1546.261,927.9043 1545.6204,928.2324 Q1544.9954,928.5605 1544.4954,929.3105 Q1544.011,930.0605 1544.011,931.0918 L1544.011,932.1855 Q1544.011,933.4199 1544.9017,934.248 Q1545.7923,935.0605 1547.386,935.0605 Q1548.3235,935.0605 1548.9798,934.8105 Q1549.3704,934.6543 1549.7923,934.2168 Q1550.0579,933.9512 1550.1985,933.873 Q1550.3548,933.7949 1550.5579,933.7949 Q1550.886,933.7949 1551.136,934.0605 Q1551.4017,934.3105 1551.4017,934.6543 Q1551.4017,934.998 1551.0579,935.4043 Q1550.5579,935.9824 1549.761,936.3105 Q1548.6829,936.7637 1547.386,936.7637 Q1545.8704,936.7637 1544.6673,936.1387 Q1543.6829,935.6387 1542.9954,934.5762 Q1542.3079,933.498 1542.3079,932.2168 L1542.3079,931.0605 Q1542.3079,929.7324 1542.9173,928.5918 Q1543.5423,927.4355 1544.636,926.8262 Q1545.7298,926.2012 1546.9642,926.2012 Q1547.6985,926.2012 1548.3392,926.373 Q1548.9954,926.5293 1549.5423,926.8887 Z " fill="#000000"/><text fill="#000000" font-family="sans-serif" font-size="14" lengthAdjust="spacing" textLength="164.9854" x="1564.6159" y="936.8105">ShoppingListItemCategory</text><line style="stroke:#181818;stroke-width:0.5;" x1="1515.5" x2="1748.8779" y1="947.0137" y2="947.0137"/><ellipse cx="1525.5" cy="961.8242" fill="none" rx="3" ry="3" style="stroke:#038048;stroke-width:1.0;"/><text fill="#000000" font-family="sans-serif" font-size="14" lengthAdjust="spacing" textLength="103.5098" x="1534.5" y="966.1211">id: int {readOnly}</text><ellipse cx="1525.5" cy="980.4453" fill="none" rx="3" ry="3" style="stroke:#038048;stroke-width:1.0;"/><text fill="#000000" font-family="sans-serif" font-size="14" lengthAdjust="spacing" textLength="209.3779" x="1534.5" y="984.7422">household: Household {readOnly}</text><ellipse cx="1525.5" cy="999.0664" fill="none" rx="3" ry="3" style="stroke:#038048;stroke-width:1.0;"/><text fill="#000000" font-family="sans-serif" font-size="14" lengthAdjust="spacing" textLength="58.3516" x="1534.5" y="1003.3633">name: str</text><line style="stroke:#181818;stroke-width:0.5;" x1="1515.5" x2="1748.8779" y1="1010.877" y2="1010.877"/></g><!--class ShoppingListItem--><g id="elem_ShoppingListItem"><rect codeLine="204" fill="#F1F1F1" height="122.4844" id="ShoppingListItem" rx="2.5" ry="2.5" style="stroke:#181818;stroke-width:0.5;" width="252.4609" x="1506" y="758.0137"/><ellipse cx="1573.8911" cy="774.0137" fill="#ADD1B2" rx="11" ry="11" style="stroke:#181818;stroke-width:1.0;"/><path d="M1576.6567,769.8887 Q1576.813,769.6699 1577.0005,769.5605 Q1577.188,769.4512 1577.4067,769.4512 Q1577.7817,769.4512 1578.0161,769.7168 Q1578.2505,769.9668 1578.2505,770.5762 L1578.2505,772.0293 Q1578.2505,772.6387 1578.0161,772.9043 Q1577.7817,773.1699 1577.4067,773.1699 Q1577.063,773.1699 1576.8599,772.9668 Q1576.6567,772.7793 1576.5474,772.2637 Q1576.5005,771.9043 1576.313,771.7168 Q1575.9849,771.3418 1575.3755,771.123 Q1574.7661,770.9043 1574.1411,770.9043 Q1573.3755,770.9043 1572.7349,771.2324 Q1572.1099,771.5605 1571.6099,772.3105 Q1571.1255,773.0605 1571.1255,774.0918 L1571.1255,775.1855 Q1571.1255,776.4199 1572.0161,777.248 Q1572.9067,778.0605 1574.5005,778.0605 Q1575.438,778.0605 1576.0942,777.8105 Q1576.4849,777.6543 1576.9067,777.2168 Q1577.1724,776.9512 1577.313,776.873 Q1577.4692,776.7949 1577.6724,776.7949 Q1578.0005,776.7949 1578.2505,777.0605 Q1578.5161,777.3105 1578.5161,777.6543 Q1578.5161,777.998 1578.1724,778.4043 Q1577.6724,778.9824 1576.8755,779.3105 Q1575.7974,779.7637 1574.5005,779.7637 Q1572.9849,779.7637 1571.7817,779.1387 Q1570.7974,778.6387 1570.1099,777.5762 Q1569.4224,776.498 1569.4224,775.2168 L1569.4224,774.0605 Q1569.4224,772.7324 1570.0317,771.5918 Q1570.6567,770.4355 1571.7505,769.8262 Q1572.8442,769.2012 1574.0786,769.2012 Q1574.813,769.2012 1575.4536,769.373 Q1576.1099,769.5293 1576.6567,769.8887 Z " fill="#000000"/><text fill="#000000" font-family="sans-serif" font-size="14" lengthAdjust="spacing" textLength="108.1787" x="1594.3911" y="779.8105">ShoppingListItem</text><line style="stroke:#181818;stroke-width:0.5;" x1="1507" x2="1757.4609" y1="790.0137" y2="790.0137"/><ellipse cx="1517" cy="804.8242" fill="none" rx="3" ry="3" style="stroke:#038048;stroke-width:1.0;"/><text fill="#000000" font-family="sans-serif" font-size="14" lengthAdjust="spacing" textLength="103.5098" x="1526" y="809.1211">id: int {readOnly}</text><ellipse cx="1517" cy="823.4453" fill="none" rx="3" ry="3" style="stroke:#038048;stroke-width:1.0;"/><text fill="#000000" font-family="sans-serif" font-size="14" lengthAdjust="spacing" textLength="209.3779" x="1526" y="827.7422">household: Household {readOnly}</text><ellipse cx="1517" cy="842.0664" fill="none" rx="3" ry="3" style="stroke:#038048;stroke-width:1.0;"/><text fill="#000000" font-family="sans-serif" font-size="14" lengthAdjust="spacing" textLength="226.4609" x="1526" y="846.3633">category: ShoppingListItemCategory</text><ellipse cx="1517" cy="860.6875" fill="none" rx="3" ry="3" style="stroke:#038048;stroke-width:1.0;"/><text fill="#000000" font-family="sans-serif" font-size="14" lengthAdjust="spacing" textLength="45.1172" x="1526" y="864.9844">title: str</text><line style="stroke:#181818;stroke-width:0.5;" x1="1507" x2="1757.4609" y1="872.498" y2="872.498"/></g><!--class ShoppingList_ShoppingListItem--><g id="elem_ShoppingList_ShoppingListItem"><rect codeLine="211" fill="#F1F1F1" height="178.3477" id="ShoppingList_ShoppingListItem" rx="2.5" ry="2.5" style="stroke:#181818;stroke-width:0.5;" width="228.916" x="1517.5" y="545.0137"/><ellipse cx="1532.5" cy="561.0137" fill="#ADD1B2" rx="11" ry="11" style="stroke:#181818;stroke-width:1.0;"/><path d="M1535.2656,556.8887 Q1535.4219,556.6699 1535.6094,556.5605 Q1535.7969,556.4512 1536.0156,556.4512 Q1536.3906,556.4512 1536.625,556.7168 Q1536.8594,556.9668 1536.8594,557.5762 L1536.8594,559.0293 Q1536.8594,559.6387 1536.625,559.9043 Q1536.3906,560.1699 1536.0156,560.1699 Q1535.6719,560.1699 1535.4688,559.9668 Q1535.2656,559.7793 1535.1563,559.2637 Q1535.1094,558.9043 1534.9219,558.7168 Q1534.5938,558.3418 1533.9844,558.123 Q1533.375,557.9043 1532.75,557.9043 Q1531.9844,557.9043 1531.3438,558.2324 Q1530.7188,558.5605 1530.2188,559.3105 Q1529.7344,560.0605 1529.7344,561.0918 L1529.7344,562.1855 Q1529.7344,563.4199 1530.625,564.248 Q1531.5156,565.0605 1533.1094,565.0605 Q1534.0469,565.0605 1534.7031,564.8105 Q1535.0938,564.6543 1535.5156,564.2168 Q1535.7813,563.9512 1535.9219,563.873 Q1536.0781,563.7949 1536.2813,563.7949 Q1536.6094,563.7949 1536.8594,564.0605 Q1537.125,564.3105 1537.125,564.6543 Q1537.125,564.998 1536.7813,565.4043 Q1536.2813,565.9824 1535.4844,566.3105 Q1534.4063,566.7637 1533.1094,566.7637 Q1531.5938,566.7637 1530.3906,566.1387 Q1529.4063,565.6387 1528.7188,564.5762 Q1528.0313,563.498 1528.0313,562.2168 L1528.0313,561.0605 Q1528.0313,559.7324 1528.6406,558.5918 Q1529.2656,557.4355 1530.3594,556.8262 Q1531.4531,556.2012 1532.6875,556.2012 Q1533.4219,556.2012 1534.0625,556.373 Q1534.7188,556.5293 1535.2656,556.8887 Z " fill="#000000"/><text fill="#000000" font-family="sans-serif" font-size="14" lengthAdjust="spacing" textLength="196.916" x="1546.5" y="566.8105">ShoppingList_ShoppingListItem</text><line style="stroke:#181818;stroke-width:0.5;" x1="1518.5" x2="1745.416" y1="577.0137" y2="577.0137"/><ellipse cx="1528.5" cy="591.8242" fill="none" rx="3" ry="3" style="stroke:#038048;stroke-width:1.0;"/><text fill="#000000" font-family="sans-serif" font-size="14" lengthAdjust="spacing" textLength="103.5098" x="1537.5" y="596.1211">id: int {readOnly}</text><ellipse cx="1528.5" cy="610.4453" fill="none" rx="3" ry="3" style="stroke:#038048;stroke-width:1.0;"/><text fill="#000000" font-family="sans-serif" font-size="14" lengthAdjust="spacing" textLength="105.8408" x="1537.5" y="614.7422">list: ShoppingList</text><ellipse cx="1528.5" cy="629.0664" fill="none" rx="3" ry="3" style="stroke:#038048;stroke-width:1.0;"/><text fill="#000000" font-family="sans-serif" font-size="14" lengthAdjust="spacing" textLength="142.4063" x="1537.5" y="633.3633">item: ShoppingListItem</text><ellipse cx="1528.5" cy="647.6875" fill="none" rx="3" ry="3" style="stroke:#038048;stroke-width:1.0;"/><text fill="#000000" font-family="sans-serif" font-size="14" lengthAdjust="spacing" textLength="83.2754" x="1537.5" y="651.9844">quantity: float</text><ellipse cx="1528.5" cy="666.3086" fill="none" rx="3" ry="3" style="stroke:#038048;stroke-width:1.0;"/><text fill="#000000" font-family="sans-serif" font-size="14" lengthAdjust="spacing" textLength="45.9033" x="1537.5" y="670.6055">unit: str</text><ellipse cx="1528.5" cy="684.9297" fill="none" rx="3" ry="3" style="stroke:#038048;stroke-width:1.0;"/><text fill="#000000" font-family="sans-serif" font-size="14" lengthAdjust="spacing" textLength="50.5791" x="1537.5" y="689.2266">note: str</text><ellipse cx="1528.5" cy="703.5508" fill="none" rx="3" ry="3" style="stroke:#038048;stroke-width:1.0;"/><text fill="#000000" font-family="sans-serif" font-size="14" lengthAdjust="spacing" textLength="83.2891" x="1537.5" y="707.8477">is_done: bool</text><line style="stroke:#181818;stroke-width:0.5;" x1="1518.5" x2="1745.416" y1="715.3613" y2="715.3613"/></g><!--SRC=[rLfRRzis57xtho2yXxHP7IpDdWHaG14CQu5r3P9jhm8jqHONcTH8AfdNvh_lK1UAf2XR4fgaCz3KaSxzVET2AJdPAAGu4dIRAPHIGH95ELiKEBd3MuAM7tbASdILOoc9NABF2mIVazMHJqs5tlDIaepdwGIkIbN7sMZKd-yHJID4cKAV1S7f9vRl7wsR3Ez8XAGIrhK421L9OwmYbC8tHNVahFqI5bCMwNYMnyMaUFmXYPWS2iqqFWfaXsbUXI5qVuNYECCo0_yAaFt0HUg7ZCeO0mRk8PPhplDd36OTenrH6KybEX8RsnlZowiYnvIPNr_xljNcTEICFCGkIyK1VBznHYp6UoBePZ-afsKoyMfWyJChTnsIRtXEh3pYT4SP1KQik42NwDpSANN2Bz5RMvHN5N4F59cvfTdZWnZH5547Haz0v9MjBr-07v7hbW-VX1IGzHw0u1uq4-BUcbX2xy2XJviR8WlE95tJdAhzv98A2HbVOg58XIb15zqomB_YlNWhgl9Ulqg9J0GjT0l-nblPjU1_mQoO7Fg6xocYtKPelO-QfXdC2LoC-IOMJlQZOM3DIrSAgdFAY1TvhneuUvas2_Q1wad0SDBt2yVv-1GMDLFaW6PgMEsUsiZnEcgZ9jvX1gkBsrCJpfIWwxBkjO7MgW4JJmPdi9CUSBVkdPRvSqhlgfIAxtw5sJ6v-ZhM_rq1VXKGcSfBCfBSvH27q91weVt7mMENgG-Ax9uYM-w-FA0ydcj77LiFgWqV28ey1-r40q2OmniFqlvTOgOgz6noZcqb9QFApplZYWImu7NXYTNuEvPta-jGCpt9mZ6ljaOMxe5jfX2KYqhLTVFDkYaLLgMCq6trlnjyE72MGb2sxPNRjxOWpPoRpS2gWsBbl1HRWBapf38uX9lff3yxabBWlaGNvbBE7-3t7tiQwjXQyjTmWi_vrb6WE83TqQ1FCO9l0I_IKQFTzFLqq8trZ_SaBwQSJ8EpKe6WgAiXswER2Xc49UHgdpY3FeKZxjvnx86Gk-gI5JkO-5brhVDgJx2eBWNykcc1sAjDOGo94sr9v9iMfeL0476FyoeaTXSY_oXTe4I5SNHa5Zb6mp5rsEu34tDWEpNg9_R0sumN1PWmQoUncLzkApaGhAzvOdZM7SAEh1wSLy2qvMB_pDk4RyQJ9BbnBHfqUZWpWyR6yoslrvzUNTWBa2_yoTUQnmKZ3mKSZHRoZZ9Oix1swAIQAj0BrBuWY0kLSQ3q7m3Va1pheMiU0VUVRGMFP_qHw8-imOO_gGCP-oPmLSrWURv4fwiLMlvmTdQwz9-mHMYv9ZbdMmcpSrbnUHGDtsfrMedgO3gVjJhM0dk69SBB6fp19rP6m1ZbxTbsa2d0OnqNvx5LHJF9p6gAJU9mviTipkcM3dRNqLBSlBX0j1-qr5XO6j36lLnMtErL8AVidkVt98K6DPQjHPrXrHfxA72D73udWg148rKgYVZ6XqKyX91AGLzKKmcZXS2tyoFMKOcIZ49Ej7K1v3MXQTPsruO0PRD-z-diLTbbgQHe1hZPXjfTvWn3HU_lmoqgcWxuWMK4RCLmtraBLmYpj1DSgPLe8_YkMxjxQ-HgzUKdOo0r3Xqb2XIaYvZ3upM4ciCSNXO20gryJEGs1QtDgh_JVw4mrll6KJD0Lfs3RJogHO-BvL72vbHD3bFQCEemCyHXTOAZTZYTmQh_OGwh7unHuC1X34DmrZcH6XvERUqFoV3p61WvSqJqX-iSAGEJRAgeuUZmLfILRt-izNh1DFO17uwnmiRPBgVTwdaBvsUQ43dtpmyC_yS_hn673NtMk_T6IgCx_3xMfMbUzj-YxyxVmh-BtlalDWURL-RSz0OrXL6VKb-7NiCsGYzw3-LYz_Nig-vPoniKU5zhl-1s77fNgko0lneF1suxk3b0vqCiI7g2hZb0258N7NbpQzWV-o-gWlUwsZXoMq-188cDygC4zYmPHTmGBHx_0m00]--></g></svg>