<svg xmlns="http://www.w3.org/2000/svg" xmlns:xlink="http://www.w3.org/1999/xlink" contentStyleType="text/css" height="1026.9px" preserveAspectRatio="none" style="width:1472px;height:1026px;background:#FFFFFF;" version="1.1" viewBox="0 0 1472 1026" width="1472.4px" zoomAndPan="magnify"><defs/><g><!--cluster Model Relations--><g id="cluster_Model Relations"><path d="M7.65,5.4123 L105.1603,5.4123 A3.375,3.375 0 0 1 107.4103,7.6623 L113.7103,27.5713 L1417.05,27.5713 A2.25,2.25 0 0 1 1419.3,29.8213 L1419.3,1018.3623 A2.25,2.25 0 0 1 1417.05,1020.6123 L7.65,1020.6123 A2.25,2.25 0 0 1 5.4,1018.3623 L5.4,7.6623 A2.25,2.25 0 0 1 7.65,5.4123 " fill="none" style="stroke:#000000;stroke-width:1.35;"/><line style="stroke:#000000;stroke-width:1.35;" x1="5.4" x2="113.7103" y1="27.5713" y2="27.5713"/><text fill="#000000" font-family="sans-serif" font-size="12.6" font-weight="bold" lengthAdjust="spacing" textLength="96.6103" x="9" y="20.809">Model Relations</text></g><!--class HouseholdRole--><g id="elem_HouseholdRole"><rect codeLine="270" fill="#F1F1F1" height="43.2" id="HouseholdRole" rx="2.25" ry="2.25" style="stroke:#181818;stroke-width:0.45;" width="114.9574" x="53.1" y="267.3123"/><ellipse cx="66.6" cy="281.7123" fill="#EB937F" rx="9.9" ry="9.9" style="stroke:#181818;stroke-width:0.9;"/><path d="M65.5734,282.4295 L65.5734,284.6795 L69.4688,284.6795 L69.4688,283.8498 Q69.4688,283.3014 69.6797,283.0623 Q69.9047,282.8232 70.2422,282.8232 Q70.5797,282.8232 70.7906,283.0623 Q71.0016,283.3014 71.0016,283.8498 L71.0016,286.2123 L63.8016,286.2123 Q63.2391,286.2123 63,286.0014 Q62.775,285.7904 62.775,285.4389 Q62.775,285.1014 63.0141,284.8904 Q63.2531,284.6795 63.8016,284.6795 L64.0406,284.6795 L64.0406,278.6889 L63.8016,278.6889 Q63.2391,278.6889 63,278.4779 Q62.775,278.267 62.775,277.9154 Q62.775,277.5779 63,277.367 Q63.2391,277.1561 63.8016,277.1561 L70.6641,277.1561 L70.6641,279.4904 Q70.6641,280.0389 70.4531,280.2779 Q70.2563,280.5029 69.9047,280.5029 Q69.5672,280.5029 69.3563,280.2779 Q69.1453,280.0389 69.1453,279.4904 L69.1453,278.6889 L65.5734,278.6889 L65.5734,280.8967 L66.9094,280.8967 Q66.9094,280.3061 67.0219,280.1373 Q67.2609,279.7717 67.6828,279.7717 Q68.0203,279.7717 68.2313,280.0107 Q68.4422,280.2357 68.4422,280.7842 L68.4422,282.5561 Q68.4422,283.0482 68.3297,283.217 Q68.0906,283.5686 67.6828,283.5686 Q67.2609,283.5686 67.0219,283.2029 Q66.9094,283.0342 66.9094,282.4295 L65.5734,282.4295 Z " fill="#000000"/><text fill="#000000" font-family="sans-serif" font-size="12.6" lengthAdjust="spacing" textLength="86.1574" x="79.2" y="286.9295">HouseholdRole</text><line style="stroke:#181818;stroke-width:0.45;" x1="54" x2="167.1574" y1="296.1123" y2="296.1123"/><line style="stroke:#181818;stroke-width:0.45;" x1="54" x2="167.1574" y1="303.3123" y2="303.3123"/></g><!--class ProjectRole--><g id="elem_ProjectRole"><rect codeLine="271" fill="#F1F1F1" height="43.2" id="ProjectRole" rx="2.25" ry="2.25" style="stroke:#181818;stroke-width:0.45;" width="93.9287" x="1093.5" y="381.6123"/><ellipse cx="1107" cy="396.0123" fill="#EB937F" rx="9.9" ry="9.9" style="stroke:#181818;stroke-width:0.9;"/><path d="M1105.9734,396.7295 L1105.9734,398.9795 L1109.8688,398.9795 L1109.8688,398.1498 Q1109.8688,397.6014 1110.0797,397.3623 Q1110.3047,397.1232 1110.6422,397.1232 Q1110.9797,397.1232 1111.1906,397.3623 Q1111.4016,397.6014 1111.4016,398.1498 L1111.4016,400.5123 L1104.2016,400.5123 Q1103.6391,400.5123 1103.4,400.3014 Q1103.175,400.0904 1103.175,399.7389 Q1103.175,399.4014 1103.4141,399.1904 Q1103.6531,398.9795 1104.2016,398.9795 L1104.4406,398.9795 L1104.4406,392.9889 L1104.2016,392.9889 Q1103.6391,392.9889 1103.4,392.7779 Q1103.175,392.567 1103.175,392.2154 Q1103.175,391.8779 1103.4,391.667 Q1103.6391,391.4561 1104.2016,391.4561 L1111.0641,391.4561 L1111.0641,393.7904 Q1111.0641,394.3389 1110.8531,394.5779 Q1110.6563,394.8029 1110.3047,394.8029 Q1109.9672,394.8029 1109.7563,394.5779 Q1109.5453,394.3389 1109.5453,393.7904 L1109.5453,392.9889 L1105.9734,392.9889 L1105.9734,395.1967 L1107.3094,395.1967 Q1107.3094,394.6061 1107.4219,394.4373 Q1107.6609,394.0717 1108.0828,394.0717 Q1108.4203,394.0717 1108.6313,394.3107 Q1108.8422,394.5357 1108.8422,395.0842 L1108.8422,396.8561 Q1108.8422,397.3482 1108.7297,397.517 Q1108.4906,397.8686 1108.0828,397.8686 Q1107.6609,397.8686 1107.4219,397.5029 Q1107.3094,397.3342 1107.3094,396.7295 L1105.9734,396.7295 Z " fill="#000000"/><text fill="#000000" font-family="sans-serif" font-size="12.6" lengthAdjust="spacing" textLength="65.1287" x="1119.6" y="401.2295">ProjectRole</text><line style="stroke:#181818;stroke-width:0.45;" x1="1094.4" x2="1186.5287" y1="410.4123" y2="410.4123"/><line style="stroke:#181818;stroke-width:0.45;" x1="1094.4" x2="1186.5287" y1="417.6123" y2="417.6123"/></g><!--class Priority--><g id="elem_Priority"><rect codeLine="272" fill="#F1F1F1" height="43.2" id="Priority" rx="2.25" ry="2.25" style="stroke:#181818;stroke-width:0.45;" width="68.0027" x="619.2" y="522.0123"/><ellipse cx="632.7" cy="536.4123" fill="#EB937F" rx="9.9" ry="9.9" style="stroke:#181818;stroke-width:0.9;"/><path d="M631.6734,537.1295 L631.6734,539.3795 L635.5688,539.3795 L635.5688,538.5498 Q635.5688,538.0014 635.7797,537.7623 Q636.0047,537.5232 636.3422,537.5232 Q636.6797,537.5232 636.8906,537.7623 Q637.1016,538.0014 637.1016,538.5498 L637.1016,540.9123 L629.9016,540.9123 Q629.3391,540.9123 629.1,540.7014 Q628.875,540.4904 628.875,540.1389 Q628.875,539.8014 629.1141,539.5904 Q629.3531,539.3795 629.9016,539.3795 L630.1406,539.3795 L630.1406,533.3889 L629.9016,533.3889 Q629.3391,533.3889 629.1,533.1779 Q628.875,532.967 628.875,532.6154 Q628.875,532.2779 629.1,532.067 Q629.3391,531.8561 629.9016,531.8561 L636.7641,531.8561 L636.7641,534.1904 Q636.7641,534.7389 636.5531,534.9779 Q636.3563,535.2029 636.0047,535.2029 Q635.6672,535.2029 635.4563,534.9779 Q635.2453,534.7389 635.2453,534.1904 L635.2453,533.3889 L631.6734,533.3889 L631.6734,535.5967 L633.0094,535.5967 Q633.0094,535.0061 633.1219,534.8373 Q633.3609,534.4717 633.7828,534.4717 Q634.1203,534.4717 634.3313,534.7107 Q634.5422,534.9357 634.5422,535.4842 L634.5422,537.2561 Q634.5422,537.7482 634.4297,537.917 Q634.1906,538.2686 633.7828,538.2686 Q633.3609,538.2686 633.1219,537.9029 Q633.0094,537.7342 633.0094,537.1295 L631.6734,537.1295 Z " fill="#000000"/><text fill="#000000" font-family="sans-serif" font-size="12.6" lengthAdjust="spacing" textLength="39.2027" x="645.3" y="541.6295">Priority</text><line style="stroke:#181818;stroke-width:0.45;" x1="620.1" x2="686.3027" y1="550.8123" y2="550.8123"/><line style="stroke:#181818;stroke-width:0.45;" x1="620.1" x2="686.3027" y1="558.0123" y2="558.0123"/></g><!--class Status--><g id="elem_Status"><rect codeLine="273" fill="#F1F1F1" height="43.2" id="Status" rx="2.25" ry="2.25" style="stroke:#181818;stroke-width:0.45;" width="64.5205" x="522.9" y="522.0123"/><ellipse cx="536.4" cy="536.4123" fill="#EB937F" rx="9.9" ry="9.9" style="stroke:#181818;stroke-width:0.9;"/><path d="M535.3734,537.1295 L535.3734,539.3795 L539.2688,539.3795 L539.2688,538.5498 Q539.2688,538.0014 539.4797,537.7623 Q539.7047,537.5232 540.0422,537.5232 Q540.3797,537.5232 540.5906,537.7623 Q540.8016,538.0014 540.8016,538.5498 L540.8016,540.9123 L533.6016,540.9123 Q533.0391,540.9123 532.8,540.7014 Q532.575,540.4904 532.575,540.1389 Q532.575,539.8014 532.8141,539.5904 Q533.0531,539.3795 533.6016,539.3795 L533.8406,539.3795 L533.8406,533.3889 L533.6016,533.3889 Q533.0391,533.3889 532.8,533.1779 Q532.575,532.967 532.575,532.6154 Q532.575,532.2779 532.8,532.067 Q533.0391,531.8561 533.6016,531.8561 L540.4641,531.8561 L540.4641,534.1904 Q540.4641,534.7389 540.2531,534.9779 Q540.0563,535.2029 539.7047,535.2029 Q539.3672,535.2029 539.1563,534.9779 Q538.9453,534.7389 538.9453,534.1904 L538.9453,533.3889 L535.3734,533.3889 L535.3734,535.5967 L536.7094,535.5967 Q536.7094,535.0061 536.8219,534.8373 Q537.0609,534.4717 537.4828,534.4717 Q537.8203,534.4717 538.0313,534.7107 Q538.2422,534.9357 538.2422,535.4842 L538.2422,537.2561 Q538.2422,537.7482 538.1297,537.917 Q537.8906,538.2686 537.4828,538.2686 Q537.0609,538.2686 536.8219,537.9029 Q536.7094,537.7342 536.7094,537.1295 L535.3734,537.1295 Z " fill="#000000"/><text fill="#000000" font-family="sans-serif" font-size="12.6" lengthAdjust="spacing" textLength="35.7205" x="549" y="541.6295">Status</text><line style="stroke:#181818;stroke-width:0.45;" x1="523.8" x2="586.5205" y1="550.8123" y2="550.8123"/><line style="stroke:#181818;stroke-width:0.45;" x1="523.8" x2="586.5205" y1="558.0123" y2="558.0123"/></g><!--class RecurrenceCycle--><g id="elem_RecurrenceCycle"><rect codeLine="274" fill="#F1F1F1" height="43.2" id="RecurrenceCycle" rx="2.25" ry="2.25" style="stroke:#181818;stroke-width:0.45;" width="125.4349" x="644.85" y="267.3123"/><ellipse cx="658.35" cy="281.7123" fill="#EB937F" rx="9.9" ry="9.9" style="stroke:#181818;stroke-width:0.9;"/><path d="M657.3234,282.4295 L657.3234,284.6795 L661.2188,284.6795 L661.2188,283.8498 Q661.2188,283.3014 661.4297,283.0623 Q661.6547,282.8232 661.9922,282.8232 Q662.3297,282.8232 662.5406,283.0623 Q662.7516,283.3014 662.7516,283.8498 L662.7516,286.2123 L655.5516,286.2123 Q654.9891,286.2123 654.75,286.0014 Q654.525,285.7904 654.525,285.4389 Q654.525,285.1014 654.7641,284.8904 Q655.0031,284.6795 655.5516,284.6795 L655.7906,284.6795 L655.7906,278.6889 L655.5516,278.6889 Q654.9891,278.6889 654.75,278.4779 Q654.525,278.267 654.525,277.9154 Q654.525,277.5779 654.75,277.367 Q654.9891,277.1561 655.5516,277.1561 L662.4141,277.1561 L662.4141,279.4904 Q662.4141,280.0389 662.2031,280.2779 Q662.0063,280.5029 661.6547,280.5029 Q661.3172,280.5029 661.1063,280.2779 Q660.8953,280.0389 660.8953,279.4904 L660.8953,278.6889 L657.3234,278.6889 L657.3234,280.8967 L658.6594,280.8967 Q658.6594,280.3061 658.7719,280.1373 Q659.0109,279.7717 659.4328,279.7717 Q659.7703,279.7717 659.9813,280.0107 Q660.1922,280.2357 660.1922,280.7842 L660.1922,282.5561 Q660.1922,283.0482 660.0797,283.217 Q659.8406,283.5686 659.4328,283.5686 Q659.0109,283.5686 658.7719,283.2029 Q658.6594,283.0342 658.6594,282.4295 L657.3234,282.4295 Z " fill="#000000"/><text fill="#000000" font-family="sans-serif" font-size="12.6" lengthAdjust="spacing" textLength="96.6349" x="670.95" y="286.9295">RecurrenceCycle</text><line style="stroke:#181818;stroke-width:0.45;" x1="645.75" x2="769.3849" y1="296.1123" y2="296.1123"/><line style="stroke:#181818;stroke-width:0.45;" x1="645.75" x2="769.3849" y1="303.3123" y2="303.3123"/></g><!--class User--><g id="elem_User"><rect fill="#F1F1F1" height="43.2" id="User" rx="2.25" ry="2.25" style="stroke:#181818;stroke-width:0.45;" width="55.4027" x="848.7" y="38.7123"/><ellipse cx="862.2" cy="53.1123" fill="#ADD1B2" rx="9.9" ry="9.9" style="stroke:#181818;stroke-width:0.9;"/><path d="M864.6891,49.3998 Q864.8297,49.2029 864.9984,49.1045 Q865.1672,49.0061 865.3641,49.0061 Q865.7016,49.0061 865.9125,49.2451 Q866.1234,49.4701 866.1234,50.0186 L866.1234,51.3264 Q866.1234,51.8748 865.9125,52.1139 Q865.7016,52.3529 865.3641,52.3529 Q865.0547,52.3529 864.8719,52.1701 Q864.6891,52.0014 864.5906,51.5373 Q864.5484,51.2139 864.3797,51.0451 Q864.0844,50.7076 863.5359,50.5107 Q862.9875,50.3139 862.425,50.3139 Q861.7359,50.3139 861.1594,50.6092 Q860.5969,50.9045 860.1469,51.5795 Q859.7109,52.2545 859.7109,53.1826 L859.7109,54.167 Q859.7109,55.2779 860.5125,56.0232 Q861.3141,56.7545 862.7484,56.7545 Q863.5922,56.7545 864.1828,56.5295 Q864.5344,56.3889 864.9141,55.9951 Q865.1531,55.7561 865.2797,55.6857 Q865.4203,55.6154 865.6031,55.6154 Q865.8984,55.6154 866.1234,55.8545 Q866.3625,56.0795 866.3625,56.3889 Q866.3625,56.6982 866.0531,57.0639 Q865.6031,57.5842 864.8859,57.8795 Q863.9156,58.2873 862.7484,58.2873 Q861.3844,58.2873 860.3016,57.7248 Q859.4156,57.2748 858.7969,56.3186 Q858.1781,55.3482 858.1781,54.1951 L858.1781,53.1545 Q858.1781,51.9592 858.7266,50.9326 Q859.2891,49.892 860.2734,49.3436 Q861.2578,48.7811 862.3688,48.7811 Q863.0297,48.7811 863.6063,48.9357 Q864.1969,49.0764 864.6891,49.3998 Z " fill="#000000"/><text fill="#000000" font-family="sans-serif" font-size="12.6" lengthAdjust="spacing" textLength="26.6027" x="874.8" y="58.3295">User</text><line style="stroke:#181818;stroke-width:0.45;" x1="849.6" x2="903.2027" y1="67.5123" y2="67.5123"/><line style="stroke:#181818;stroke-width:0.45;" x1="849.6" x2="903.2027" y1="74.7123" y2="74.7123"/></g><!--class Household_User--><g id="elem_Household_User"><rect fill="#F1F1F1" height="43.2" id="Household_User" rx="2.25" ry="2.25" style="stroke:#181818;stroke-width:0.45;" width="122.654" x="49.5" y="153.0123"/><ellipse cx="63" cy="167.4123" fill="#ADD1B2" rx="9.9" ry="9.9" style="stroke:#181818;stroke-width:0.9;"/><path d="M65.4891,163.6998 Q65.6297,163.5029 65.7984,163.4045 Q65.9672,163.3061 66.1641,163.3061 Q66.5016,163.3061 66.7125,163.5451 Q66.9234,163.7701 66.9234,164.3186 L66.9234,165.6264 Q66.9234,166.1748 66.7125,166.4139 Q66.5016,166.6529 66.1641,166.6529 Q65.8547,166.6529 65.6719,166.4701 Q65.4891,166.3014 65.3906,165.8373 Q65.3484,165.5139 65.1797,165.3451 Q64.8844,165.0076 64.3359,164.8107 Q63.7875,164.6139 63.225,164.6139 Q62.5359,164.6139 61.9594,164.9092 Q61.3969,165.2045 60.9469,165.8795 Q60.5109,166.5545 60.5109,167.4826 L60.5109,168.467 Q60.5109,169.5779 61.3125,170.3232 Q62.1141,171.0545 63.5484,171.0545 Q64.3922,171.0545 64.9828,170.8295 Q65.3344,170.6889 65.7141,170.2951 Q65.9531,170.0561 66.0797,169.9857 Q66.2203,169.9154 66.4031,169.9154 Q66.6984,169.9154 66.9234,170.1545 Q67.1625,170.3795 67.1625,170.6889 Q67.1625,170.9982 66.8531,171.3639 Q66.4031,171.8842 65.6859,172.1795 Q64.7156,172.5873 63.5484,172.5873 Q62.1844,172.5873 61.1016,172.0248 Q60.2156,171.5748 59.5969,170.6186 Q58.9781,169.6482 58.9781,168.4951 L58.9781,167.4545 Q58.9781,166.2592 59.5266,165.2326 Q60.0891,164.192 61.0734,163.6436 Q62.0578,163.0811 63.1688,163.0811 Q63.8297,163.0811 64.4063,163.2357 Q64.9969,163.3764 65.4891,163.6998 Z " fill="#000000"/><text fill="#000000" font-family="sans-serif" font-size="12.6" lengthAdjust="spacing" textLength="93.854" x="75.6" y="172.6295">Household_User</text><line style="stroke:#181818;stroke-width:0.45;" x1="50.4" x2="171.254" y1="181.8123" y2="181.8123"/><line style="stroke:#181818;stroke-width:0.45;" x1="50.4" x2="171.254" y1="189.0123" y2="189.0123"/></g><!--class Household--><g id="elem_Household"><rect fill="#F1F1F1" height="43.2" id="Household" rx="2.25" ry="2.25" style="stroke:#181818;stroke-width:0.45;" width="89.0438" x="708.75" y="963.0123"/><ellipse cx="722.25" cy="977.4123" fill="#ADD1B2" rx="9.9" ry="9.9" style="stroke:#181818;stroke-width:0.9;"/><path d="M724.7391,973.6998 Q724.8797,973.5029 725.0484,973.4045 Q725.2172,973.3061 725.4141,973.3061 Q725.7516,973.3061 725.9625,973.5451 Q726.1734,973.7701 726.1734,974.3186 L726.1734,975.6264 Q726.1734,976.1748 725.9625,976.4139 Q725.7516,976.6529 725.4141,976.6529 Q725.1047,976.6529 724.9219,976.4701 Q724.7391,976.3014 724.6406,975.8373 Q724.5984,975.5139 724.4297,975.3451 Q724.1344,975.0076 723.5859,974.8107 Q723.0375,974.6139 722.475,974.6139 Q721.7859,974.6139 721.2094,974.9092 Q720.6469,975.2045 720.1969,975.8795 Q719.7609,976.5545 719.7609,977.4826 L719.7609,978.467 Q719.7609,979.5779 720.5625,980.3232 Q721.3641,981.0545 722.7984,981.0545 Q723.6422,981.0545 724.2328,980.8295 Q724.5844,980.6889 724.9641,980.2951 Q725.2031,980.0561 725.3297,979.9857 Q725.4703,979.9154 725.6531,979.9154 Q725.9484,979.9154 726.1734,980.1545 Q726.4125,980.3795 726.4125,980.6889 Q726.4125,980.9982 726.1031,981.3639 Q725.6531,981.8842 724.9359,982.1795 Q723.9656,982.5873 722.7984,982.5873 Q721.4344,982.5873 720.3516,982.0248 Q719.4656,981.5748 718.8469,980.6186 Q718.2281,979.6482 718.2281,978.4951 L718.2281,977.4545 Q718.2281,976.2592 718.7766,975.2326 Q719.3391,974.192 720.3234,973.6436 Q721.3078,973.0811 722.4188,973.0811 Q723.0797,973.0811 723.6563,973.2357 Q724.2469,973.3764 724.7391,973.6998 Z " fill="#000000"/><text fill="#000000" font-family="sans-serif" font-size="12.6" lengthAdjust="spacing" textLength="60.2438" x="734.85" y="982.6295">Household</text><line style="stroke:#181818;stroke-width:0.45;" x1="709.65" x2="796.8938" y1="991.8123" y2="991.8123"/><line style="stroke:#181818;stroke-width:0.45;" x1="709.65" x2="796.8938" y1="999.0123" y2="999.0123"/></g><!--class AreaOfResponsibility--><g id="elem_AreaOfResponsibility"><rect fill="#F1F1F1" height="43.2" id="AreaOfResponsibility" rx="2.25" ry="2.25" style="stroke:#181818;stroke-width:0.45;" width="146.4513" x="679.95" y="776.7123"/><ellipse cx="693.45" cy="791.1123" fill="#ADD1B2" rx="9.9" ry="9.9" style="stroke:#181818;stroke-width:0.9;"/><path d="M695.9391,787.3998 Q696.0797,787.2029 696.2484,787.1045 Q696.4172,787.0061 696.6141,787.0061 Q696.9516,787.0061 697.1625,787.2451 Q697.3734,787.4701 697.3734,788.0186 L697.3734,789.3264 Q697.3734,789.8748 697.1625,790.1139 Q696.9516,790.3529 696.6141,790.3529 Q696.3047,790.3529 696.1219,790.1701 Q695.9391,790.0014 695.8406,789.5373 Q695.7984,789.2139 695.6297,789.0451 Q695.3344,788.7076 694.7859,788.5107 Q694.2375,788.3139 693.675,788.3139 Q692.9859,788.3139 692.4094,788.6092 Q691.8469,788.9045 691.3969,789.5795 Q690.9609,790.2545 690.9609,791.1826 L690.9609,792.167 Q690.9609,793.2779 691.7625,794.0232 Q692.5641,794.7545 693.9984,794.7545 Q694.8422,794.7545 695.4328,794.5295 Q695.7844,794.3889 696.1641,793.9951 Q696.4031,793.7561 696.5297,793.6857 Q696.6703,793.6154 696.8531,793.6154 Q697.1484,793.6154 697.3734,793.8545 Q697.6125,794.0795 697.6125,794.3889 Q697.6125,794.6982 697.3031,795.0639 Q696.8531,795.5842 696.1359,795.8795 Q695.1656,796.2873 693.9984,796.2873 Q692.6344,796.2873 691.5516,795.7248 Q690.6656,795.2748 690.0469,794.3186 Q689.4281,793.3482 689.4281,792.1951 L689.4281,791.1545 Q689.4281,789.9592 689.9766,788.9326 Q690.5391,787.892 691.5234,787.3436 Q692.5078,786.7811 693.6188,786.7811 Q694.2797,786.7811 694.8563,786.9357 Q695.4469,787.0764 695.9391,787.3998 Z " fill="#000000"/><text fill="#000000" font-family="sans-serif" font-size="12.6" lengthAdjust="spacing" textLength="117.6513" x="706.05" y="796.3295">AreaOfResponsibility</text><line style="stroke:#181818;stroke-width:0.45;" x1="680.85" x2="825.5013" y1="805.5123" y2="805.5123"/><line style="stroke:#181818;stroke-width:0.45;" x1="680.85" x2="825.5013" y1="812.7123" y2="812.7123"/></g><!--class Project--><g id="elem_Project"><rect fill="#F1F1F1" height="43.2" id="Project" rx="2.25" ry="2.25" style="stroke:#181818;stroke-width:0.45;" width="68.015" x="913.5" y="522.0123"/><ellipse cx="927" cy="536.4123" fill="#ADD1B2" rx="9.9" ry="9.9" style="stroke:#181818;stroke-width:0.9;"/><path d="M929.4891,532.6998 Q929.6297,532.5029 929.7984,532.4045 Q929.9672,532.3061 930.1641,532.3061 Q930.5016,532.3061 930.7125,532.5451 Q930.9234,532.7701 930.9234,533.3186 L930.9234,534.6264 Q930.9234,535.1748 930.7125,535.4139 Q930.5016,535.6529 930.1641,535.6529 Q929.8547,535.6529 929.6719,535.4701 Q929.4891,535.3014 929.3906,534.8373 Q929.3484,534.5139 929.1797,534.3451 Q928.8844,534.0076 928.3359,533.8107 Q927.7875,533.6139 927.225,533.6139 Q926.5359,533.6139 925.9594,533.9092 Q925.3969,534.2045 924.9469,534.8795 Q924.5109,535.5545 924.5109,536.4826 L924.5109,537.467 Q924.5109,538.5779 925.3125,539.3232 Q926.1141,540.0545 927.5484,540.0545 Q928.3922,540.0545 928.9828,539.8295 Q929.3344,539.6889 929.7141,539.2951 Q929.9531,539.0561 930.0797,538.9857 Q930.2203,538.9154 930.4031,538.9154 Q930.6984,538.9154 930.9234,539.1545 Q931.1625,539.3795 931.1625,539.6889 Q931.1625,539.9982 930.8531,540.3639 Q930.4031,540.8842 929.6859,541.1795 Q928.7156,541.5873 927.5484,541.5873 Q926.1844,541.5873 925.1016,541.0248 Q924.2156,540.5748 923.5969,539.6186 Q922.9781,538.6482 922.9781,537.4951 L922.9781,536.4545 Q922.9781,535.2592 923.5266,534.2326 Q924.0891,533.192 925.0734,532.6436 Q926.0578,532.0811 927.1688,532.0811 Q927.8297,532.0811 928.4063,532.2357 Q928.9969,532.3764 929.4891,532.6998 Z " fill="#000000"/><text fill="#000000" font-family="sans-serif" font-size="12.6" lengthAdjust="spacing" textLength="39.215" x="939.6" y="541.6295">Project</text><line style="stroke:#181818;stroke-width:0.45;" x1="914.4" x2="980.615" y1="550.8123" y2="550.8123"/><line style="stroke:#181818;stroke-width:0.45;" x1="914.4" x2="980.615" y1="558.0123" y2="558.0123"/></g><!--class CustomList--><g id="elem_CustomList"><rect fill="#F1F1F1" height="43.2" id="CustomList" rx="2.25" ry="2.25" style="stroke:#181818;stroke-width:0.45;" width="91.8185" x="199.8" y="267.3123"/><ellipse cx="213.3" cy="281.7123" fill="#ADD1B2" rx="9.9" ry="9.9" style="stroke:#181818;stroke-width:0.9;"/><path d="M215.7891,277.9998 Q215.9297,277.8029 216.0984,277.7045 Q216.2672,277.6061 216.4641,277.6061 Q216.8016,277.6061 217.0125,277.8451 Q217.2234,278.0701 217.2234,278.6186 L217.2234,279.9264 Q217.2234,280.4748 217.0125,280.7139 Q216.8016,280.9529 216.4641,280.9529 Q216.1547,280.9529 215.9719,280.7701 Q215.7891,280.6014 215.6906,280.1373 Q215.6484,279.8139 215.4797,279.6451 Q215.1844,279.3076 214.6359,279.1107 Q214.0875,278.9139 213.525,278.9139 Q212.8359,278.9139 212.2594,279.2092 Q211.6969,279.5045 211.2469,280.1795 Q210.8109,280.8545 210.8109,281.7826 L210.8109,282.767 Q210.8109,283.8779 211.6125,284.6232 Q212.4141,285.3545 213.8484,285.3545 Q214.6922,285.3545 215.2828,285.1295 Q215.6344,284.9889 216.0141,284.5951 Q216.2531,284.3561 216.3797,284.2857 Q216.5203,284.2154 216.7031,284.2154 Q216.9984,284.2154 217.2234,284.4545 Q217.4625,284.6795 217.4625,284.9889 Q217.4625,285.2982 217.1531,285.6639 Q216.7031,286.1842 215.9859,286.4795 Q215.0156,286.8873 213.8484,286.8873 Q212.4844,286.8873 211.4016,286.3248 Q210.5156,285.8748 209.8969,284.9186 Q209.2781,283.9482 209.2781,282.7951 L209.2781,281.7545 Q209.2781,280.5592 209.8266,279.5326 Q210.3891,278.492 211.3734,277.9436 Q212.3578,277.3811 213.4688,277.3811 Q214.1297,277.3811 214.7063,277.5357 Q215.2969,277.6764 215.7891,277.9998 Z " fill="#000000"/><text fill="#000000" font-family="sans-serif" font-size="12.6" lengthAdjust="spacing" textLength="63.0185" x="225.9" y="286.9295">CustomList</text><line style="stroke:#181818;stroke-width:0.45;" x1="200.7" x2="290.7185" y1="296.1123" y2="296.1123"/><line style="stroke:#181818;stroke-width:0.45;" x1="200.7" x2="290.7185" y1="303.3123" y2="303.3123"/></g><!--class CustomListItem--><g id="elem_CustomListItem"><rect fill="#F1F1F1" height="43.2" id="CustomListItem" rx="2.25" ry="2.25" style="stroke:#181818;stroke-width:0.45;" width="116.3232" x="215.55" y="592.2123"/><ellipse cx="229.05" cy="606.6123" fill="#ADD1B2" rx="9.9" ry="9.9" style="stroke:#181818;stroke-width:0.9;"/><path d="M231.5391,602.8998 Q231.6797,602.7029 231.8484,602.6045 Q232.0172,602.5061 232.2141,602.5061 Q232.5516,602.5061 232.7625,602.7451 Q232.9734,602.9701 232.9734,603.5186 L232.9734,604.8264 Q232.9734,605.3748 232.7625,605.6139 Q232.5516,605.8529 232.2141,605.8529 Q231.9047,605.8529 231.7219,605.6701 Q231.5391,605.5014 231.4406,605.0373 Q231.3984,604.7139 231.2297,604.5451 Q230.9344,604.2076 230.3859,604.0107 Q229.8375,603.8139 229.275,603.8139 Q228.5859,603.8139 228.0094,604.1092 Q227.4469,604.4045 226.9969,605.0795 Q226.5609,605.7545 226.5609,606.6826 L226.5609,607.667 Q226.5609,608.7779 227.3625,609.5232 Q228.1641,610.2545 229.5984,610.2545 Q230.4422,610.2545 231.0328,610.0295 Q231.3844,609.8889 231.7641,609.4951 Q232.0031,609.2561 232.1297,609.1857 Q232.2703,609.1154 232.4531,609.1154 Q232.7484,609.1154 232.9734,609.3545 Q233.2125,609.5795 233.2125,609.8889 Q233.2125,610.1982 232.9031,610.5639 Q232.4531,611.0842 231.7359,611.3795 Q230.7656,611.7873 229.5984,611.7873 Q228.2344,611.7873 227.1516,611.2248 Q226.2656,610.7748 225.6469,609.8186 Q225.0281,608.8482 225.0281,607.6951 L225.0281,606.6545 Q225.0281,605.4592 225.5766,604.4326 Q226.1391,603.392 227.1234,602.8436 Q228.1078,602.2811 229.2188,602.2811 Q229.8797,602.2811 230.4563,602.4357 Q231.0469,602.5764 231.5391,602.8998 Z " fill="#000000"/><text fill="#000000" font-family="sans-serif" font-size="12.6" lengthAdjust="spacing" textLength="87.5232" x="241.65" y="611.8295">CustomListItem</text><line style="stroke:#181818;stroke-width:0.45;" x1="216.45" x2="330.9732" y1="621.0123" y2="621.0123"/><line style="stroke:#181818;stroke-width:0.45;" x1="216.45" x2="330.9732" y1="628.2123" y2="628.2123"/></g><!--class Task--><g id="elem_Task"><rect fill="#F1F1F1" height="43.2" id="Task" rx="2.25" ry="2.25" style="stroke:#181818;stroke-width:0.45;" width="56.1041" x="505.8" y="381.6123"/><ellipse cx="519.3" cy="396.0123" fill="#ADD1B2" rx="9.9" ry="9.9" style="stroke:#181818;stroke-width:0.9;"/><path d="M521.7891,392.2998 Q521.9297,392.1029 522.0984,392.0045 Q522.2672,391.9061 522.4641,391.9061 Q522.8016,391.9061 523.0125,392.1451 Q523.2234,392.3701 523.2234,392.9186 L523.2234,394.2264 Q523.2234,394.7748 523.0125,395.0139 Q522.8016,395.2529 522.4641,395.2529 Q522.1547,395.2529 521.9719,395.0701 Q521.7891,394.9014 521.6906,394.4373 Q521.6484,394.1139 521.4797,393.9451 Q521.1844,393.6076 520.6359,393.4107 Q520.0875,393.2139 519.525,393.2139 Q518.8359,393.2139 518.2594,393.5092 Q517.6969,393.8045 517.2469,394.4795 Q516.8109,395.1545 516.8109,396.0826 L516.8109,397.067 Q516.8109,398.1779 517.6125,398.9232 Q518.4141,399.6545 519.8484,399.6545 Q520.6922,399.6545 521.2828,399.4295 Q521.6344,399.2889 522.0141,398.8951 Q522.2531,398.6561 522.3797,398.5857 Q522.5203,398.5154 522.7031,398.5154 Q522.9984,398.5154 523.2234,398.7545 Q523.4625,398.9795 523.4625,399.2889 Q523.4625,399.5982 523.1531,399.9639 Q522.7031,400.4842 521.9859,400.7795 Q521.0156,401.1873 519.8484,401.1873 Q518.4844,401.1873 517.4016,400.6248 Q516.5156,400.1748 515.8969,399.2186 Q515.2781,398.2482 515.2781,397.0951 L515.2781,396.0545 Q515.2781,394.8592 515.8266,393.8326 Q516.3891,392.792 517.3734,392.2436 Q518.3578,391.6811 519.4688,391.6811 Q520.1297,391.6811 520.7063,391.8357 Q521.2969,391.9764 521.7891,392.2998 Z " fill="#000000"/><text fill="#000000" font-family="sans-serif" font-size="12.6" lengthAdjust="spacing" textLength="27.3041" x="531.9" y="401.2295">Task</text><line style="stroke:#181818;stroke-width:0.45;" x1="506.7" x2="561.0041" y1="410.4123" y2="410.4123"/><line style="stroke:#181818;stroke-width:0.45;" x1="506.7" x2="561.0041" y1="417.6123" y2="417.6123"/></g><!--class ShoppingList--><g id="elem_ShoppingList"><rect fill="#F1F1F1" height="43.2" id="ShoppingList" rx="2.25" ry="2.25" style="stroke:#181818;stroke-width:0.45;" width="101.6561" x="1302.75" y="267.3123"/><ellipse cx="1316.25" cy="281.7123" fill="#ADD1B2" rx="9.9" ry="9.9" style="stroke:#181818;stroke-width:0.9;"/><path d="M1318.7391,277.9998 Q1318.8797,277.8029 1319.0484,277.7045 Q1319.2172,277.6061 1319.4141,277.6061 Q1319.7516,277.6061 1319.9625,277.8451 Q1320.1734,278.0701 1320.1734,278.6186 L1320.1734,279.9264 Q1320.1734,280.4748 1319.9625,280.7139 Q1319.7516,280.9529 1319.4141,280.9529 Q1319.1047,280.9529 1318.9219,280.7701 Q1318.7391,280.6014 1318.6406,280.1373 Q1318.5984,279.8139 1318.4297,279.6451 Q1318.1344,279.3076 1317.5859,279.1107 Q1317.0375,278.9139 1316.475,278.9139 Q1315.7859,278.9139 1315.2094,279.2092 Q1314.6469,279.5045 1314.1969,280.1795 Q1313.7609,280.8545 1313.7609,281.7826 L1313.7609,282.767 Q1313.7609,283.8779 1314.5625,284.6232 Q1315.3641,285.3545 1316.7984,285.3545 Q1317.6422,285.3545 1318.2328,285.1295 Q1318.5844,284.9889 1318.9641,284.5951 Q1319.2031,284.3561 1319.3297,284.2857 Q1319.4703,284.2154 1319.6531,284.2154 Q1319.9484,284.2154 1320.1734,284.4545 Q1320.4125,284.6795 1320.4125,284.9889 Q1320.4125,285.2982 1320.1031,285.6639 Q1319.6531,286.1842 1318.9359,286.4795 Q1317.9656,286.8873 1316.7984,286.8873 Q1315.4344,286.8873 1314.3516,286.3248 Q1313.4656,285.8748 1312.8469,284.9186 Q1312.2281,283.9482 1312.2281,282.7951 L1312.2281,281.7545 Q1312.2281,280.5592 1312.7766,279.5326 Q1313.3391,278.492 1314.3234,277.9436 Q1315.3078,277.3811 1316.4188,277.3811 Q1317.0797,277.3811 1317.6563,277.5357 Q1318.2469,277.6764 1318.7391,277.9998 Z " fill="#000000"/><text fill="#000000" font-family="sans-serif" font-size="12.6" lengthAdjust="spacing" textLength="72.8561" x="1328.85" y="286.9295">ShoppingList</text><line style="stroke:#181818;stroke-width:0.45;" x1="1303.65" x2="1403.5061" y1="296.1123" y2="296.1123"/><line style="stroke:#181818;stroke-width:0.45;" x1="1303.65" x2="1403.5061" y1="303.3123" y2="303.3123"/></g><!--class ShoppingListItem--><g id="elem_ShoppingListItem"><rect fill="#F1F1F1" height="43.2" id="ShoppingListItem" rx="2.25" ry="2.25" style="stroke:#181818;stroke-width:0.45;" width="126.1608" x="1161" y="662.4123"/><ellipse cx="1174.5" cy="676.8123" fill="#ADD1B2" rx="9.9" ry="9.9" style="stroke:#181818;stroke-width:0.9;"/><path d="M1176.9891,673.0998 Q1177.1297,672.9029 1177.2984,672.8045 Q1177.4672,672.7061 1177.6641,672.7061 Q1178.0016,672.7061 1178.2125,672.9451 Q1178.4234,673.1701 1178.4234,673.7186 L1178.4234,675.0264 Q1178.4234,675.5748 1178.2125,675.8139 Q1178.0016,676.0529 1177.6641,676.0529 Q1177.3547,676.0529 1177.1719,675.8701 Q1176.9891,675.7014 1176.8906,675.2373 Q1176.8484,674.9139 1176.6797,674.7451 Q1176.3844,674.4076 1175.8359,674.2107 Q1175.2875,674.0139 1174.725,674.0139 Q1174.0359,674.0139 1173.4594,674.3092 Q1172.8969,674.6045 1172.4469,675.2795 Q1172.0109,675.9545 1172.0109,676.8826 L1172.0109,677.867 Q1172.0109,678.9779 1172.8125,679.7232 Q1173.6141,680.4545 1175.0484,680.4545 Q1175.8922,680.4545 1176.4828,680.2295 Q1176.8344,680.0889 1177.2141,679.6951 Q1177.4531,679.4561 1177.5797,679.3857 Q1177.7203,679.3154 1177.9031,679.3154 Q1178.1984,679.3154 1178.4234,679.5545 Q1178.6625,679.7795 1178.6625,680.0889 Q1178.6625,680.3982 1178.3531,680.7639 Q1177.9031,681.2842 1177.1859,681.5795 Q1176.2156,681.9873 1175.0484,681.9873 Q1173.6844,681.9873 1172.6016,681.4248 Q1171.7156,680.9748 1171.0969,680.0186 Q1170.4781,679.0482 1170.4781,677.8951 L1170.4781,676.8545 Q1170.4781,675.6592 1171.0266,674.6326 Q1171.5891,673.592 1172.5734,673.0436 Q1173.5578,672.4811 1174.6688,672.4811 Q1175.3297,672.4811 1175.9063,672.6357 Q1176.4969,672.7764 1176.9891,673.0998 Z " fill="#000000"/><text fill="#000000" font-family="sans-serif" font-size="12.6" lengthAdjust="spacing" textLength="97.3608" x="1187.1" y="682.0295">ShoppingListItem</text><line style="stroke:#181818;stroke-width:0.45;" x1="1161.9" x2="1286.2608" y1="691.2123" y2="691.2123"/><line style="stroke:#181818;stroke-width:0.45;" x1="1161.9" x2="1286.2608" y1="698.4123" y2="698.4123"/></g><!--class ShoppingListItemCategory--><g id="elem_ShoppingListItemCategory"><rect fill="#F1F1F1" height="43.2" id="ShoppingListItemCategory" rx="2.25" ry="2.25" style="stroke:#181818;stroke-width:0.45;" width="177.2868" x="1079.55" y="776.7123"/><ellipse cx="1093.05" cy="791.1123" fill="#ADD1B2" rx="9.9" ry="9.9" style="stroke:#181818;stroke-width:0.9;"/><path d="M1095.5391,787.3998 Q1095.6797,787.2029 1095.8484,787.1045 Q1096.0172,787.0061 1096.2141,787.0061 Q1096.5516,787.0061 1096.7625,787.2451 Q1096.9734,787.4701 1096.9734,788.0186 L1096.9734,789.3264 Q1096.9734,789.8748 1096.7625,790.1139 Q1096.5516,790.3529 1096.2141,790.3529 Q1095.9047,790.3529 1095.7219,790.1701 Q1095.5391,790.0014 1095.4406,789.5373 Q1095.3984,789.2139 1095.2297,789.0451 Q1094.9344,788.7076 1094.3859,788.5107 Q1093.8375,788.3139 1093.275,788.3139 Q1092.5859,788.3139 1092.0094,788.6092 Q1091.4469,788.9045 1090.9969,789.5795 Q1090.5609,790.2545 1090.5609,791.1826 L1090.5609,792.167 Q1090.5609,793.2779 1091.3625,794.0232 Q1092.1641,794.7545 1093.5984,794.7545 Q1094.4422,794.7545 1095.0328,794.5295 Q1095.3844,794.3889 1095.7641,793.9951 Q1096.0031,793.7561 1096.1297,793.6857 Q1096.2703,793.6154 1096.4531,793.6154 Q1096.7484,793.6154 1096.9734,793.8545 Q1097.2125,794.0795 1097.2125,794.3889 Q1097.2125,794.6982 1096.9031,795.0639 Q1096.4531,795.5842 1095.7359,795.8795 Q1094.7656,796.2873 1093.5984,796.2873 Q1092.2344,796.2873 1091.1516,795.7248 Q1090.2656,795.2748 1089.6469,794.3186 Q1089.0281,793.3482 1089.0281,792.1951 L1089.0281,791.1545 Q1089.0281,789.9592 1089.5766,788.9326 Q1090.1391,787.892 1091.1234,787.3436 Q1092.1078,786.7811 1093.2188,786.7811 Q1093.8797,786.7811 1094.4563,786.9357 Q1095.0469,787.0764 1095.5391,787.3998 Z " fill="#000000"/><text fill="#000000" font-family="sans-serif" font-size="12.6" lengthAdjust="spacing" textLength="148.4868" x="1105.65" y="796.3295">ShoppingListItemCategory</text><line style="stroke:#181818;stroke-width:0.45;" x1="1080.45" x2="1255.9368" y1="805.5123" y2="805.5123"/><line style="stroke:#181818;stroke-width:0.45;" x1="1080.45" x2="1255.9368" y1="812.7123" y2="812.7123"/></g><!--class ProjectGoal--><g id="elem_ProjectGoal"><rect fill="#F1F1F1" height="43.2" id="ProjectGoal" rx="2.25" ry="2.25" style="stroke:#181818;stroke-width:0.45;" width="94.6301" x="926.55" y="662.4123"/><ellipse cx="940.05" cy="676.8123" fill="#ADD1B2" rx="9.9" ry="9.9" style="stroke:#181818;stroke-width:0.9;"/><path d="M942.5391,673.0998 Q942.6797,672.9029 942.8484,672.8045 Q943.0172,672.7061 943.2141,672.7061 Q943.5516,672.7061 943.7625,672.9451 Q943.9734,673.1701 943.9734,673.7186 L943.9734,675.0264 Q943.9734,675.5748 943.7625,675.8139 Q943.5516,676.0529 943.2141,676.0529 Q942.9047,676.0529 942.7219,675.8701 Q942.5391,675.7014 942.4406,675.2373 Q942.3984,674.9139 942.2297,674.7451 Q941.9344,674.4076 941.3859,674.2107 Q940.8375,674.0139 940.275,674.0139 Q939.5859,674.0139 939.0094,674.3092 Q938.4469,674.6045 937.9969,675.2795 Q937.5609,675.9545 937.5609,676.8826 L937.5609,677.867 Q937.5609,678.9779 938.3625,679.7232 Q939.1641,680.4545 940.5984,680.4545 Q941.4422,680.4545 942.0328,680.2295 Q942.3844,680.0889 942.7641,679.6951 Q943.0031,679.4561 943.1297,679.3857 Q943.2703,679.3154 943.4531,679.3154 Q943.7484,679.3154 943.9734,679.5545 Q944.2125,679.7795 944.2125,680.0889 Q944.2125,680.3982 943.9031,680.7639 Q943.4531,681.2842 942.7359,681.5795 Q941.7656,681.9873 940.5984,681.9873 Q939.2344,681.9873 938.1516,681.4248 Q937.2656,680.9748 936.6469,680.0186 Q936.0281,679.0482 936.0281,677.8951 L936.0281,676.8545 Q936.0281,675.6592 936.5766,674.6326 Q937.1391,673.592 938.1234,673.0436 Q939.1078,672.4811 940.2188,672.4811 Q940.8797,672.4811 941.4563,672.6357 Q942.0469,672.7764 942.5391,673.0998 Z " fill="#000000"/><text fill="#000000" font-family="sans-serif" font-size="12.6" lengthAdjust="spacing" textLength="65.8301" x="952.65" y="682.0295">ProjectGoal</text><line style="stroke:#181818;stroke-width:0.45;" x1="927.45" x2="1020.2801" y1="691.2123" y2="691.2123"/><line style="stroke:#181818;stroke-width:0.45;" x1="927.45" x2="1020.2801" y1="698.4123" y2="698.4123"/></g><!--class User_Project--><g id="elem_User_Project"><rect fill="#F1F1F1" height="43.2" id="User_Project" rx="2.25" ry="2.25" style="stroke:#181818;stroke-width:0.45;" width="101.6253" x="1169.55" y="267.3123"/><ellipse cx="1183.05" cy="281.7123" fill="#ADD1B2" rx="9.9" ry="9.9" style="stroke:#181818;stroke-width:0.9;"/><path d="M1185.5391,277.9998 Q1185.6797,277.8029 1185.8484,277.7045 Q1186.0172,277.6061 1186.2141,277.6061 Q1186.5516,277.6061 1186.7625,277.8451 Q1186.9734,278.0701 1186.9734,278.6186 L1186.9734,279.9264 Q1186.9734,280.4748 1186.7625,280.7139 Q1186.5516,280.9529 1186.2141,280.9529 Q1185.9047,280.9529 1185.7219,280.7701 Q1185.5391,280.6014 1185.4406,280.1373 Q1185.3984,279.8139 1185.2297,279.6451 Q1184.9344,279.3076 1184.3859,279.1107 Q1183.8375,278.9139 1183.275,278.9139 Q1182.5859,278.9139 1182.0094,279.2092 Q1181.4469,279.5045 1180.9969,280.1795 Q1180.5609,280.8545 1180.5609,281.7826 L1180.5609,282.767 Q1180.5609,283.8779 1181.3625,284.6232 Q1182.1641,285.3545 1183.5984,285.3545 Q1184.4422,285.3545 1185.0328,285.1295 Q1185.3844,284.9889 1185.7641,284.5951 Q1186.0031,284.3561 1186.1297,284.2857 Q1186.2703,284.2154 1186.4531,284.2154 Q1186.7484,284.2154 1186.9734,284.4545 Q1187.2125,284.6795 1187.2125,284.9889 Q1187.2125,285.2982 1186.9031,285.6639 Q1186.4531,286.1842 1185.7359,286.4795 Q1184.7656,286.8873 1183.5984,286.8873 Q1182.2344,286.8873 1181.1516,286.3248 Q1180.2656,285.8748 1179.6469,284.9186 Q1179.0281,283.9482 1179.0281,282.7951 L1179.0281,281.7545 Q1179.0281,280.5592 1179.5766,279.5326 Q1180.1391,278.492 1181.1234,277.9436 Q1182.1078,277.3811 1183.2188,277.3811 Q1183.8797,277.3811 1184.4563,277.5357 Q1185.0469,277.6764 1185.5391,277.9998 Z " fill="#000000"/><text fill="#000000" font-family="sans-serif" font-size="12.6" lengthAdjust="spacing" textLength="72.8253" x="1195.65" y="286.9295">User_Project</text><line style="stroke:#181818;stroke-width:0.45;" x1="1170.45" x2="1270.2753" y1="296.1123" y2="296.1123"/><line style="stroke:#181818;stroke-width:0.45;" x1="1170.45" x2="1270.2753" y1="303.3123" y2="303.3123"/></g><!--class CustomList_CustomListItem--><g id="elem_CustomList_CustomListItem"><rect fill="#F1F1F1" height="43.2" id="CustomList_CustomListItem" rx="2.25" ry="2.25" style="stroke:#181818;stroke-width:0.45;" width="186.3492" x="140.85" y="381.6123"/><ellipse cx="154.35" cy="396.0123" fill="#ADD1B2" rx="9.9" ry="9.9" style="stroke:#181818;stroke-width:0.9;"/><path d="M156.8391,392.2998 Q156.9797,392.1029 157.1484,392.0045 Q157.3172,391.9061 157.5141,391.9061 Q157.8516,391.9061 158.0625,392.1451 Q158.2734,392.3701 158.2734,392.9186 L158.2734,394.2264 Q158.2734,394.7748 158.0625,395.0139 Q157.8516,395.2529 157.5141,395.2529 Q157.2047,395.2529 157.0219,395.0701 Q156.8391,394.9014 156.7406,394.4373 Q156.6984,394.1139 156.5297,393.9451 Q156.2344,393.6076 155.6859,393.4107 Q155.1375,393.2139 154.575,393.2139 Q153.8859,393.2139 153.3094,393.5092 Q152.7469,393.8045 152.2969,394.4795 Q151.8609,395.1545 151.8609,396.0826 L151.8609,397.067 Q151.8609,398.1779 152.6625,398.9232 Q153.4641,399.6545 154.8984,399.6545 Q155.7422,399.6545 156.3328,399.4295 Q156.6844,399.2889 157.0641,398.8951 Q157.3031,398.6561 157.4297,398.5857 Q157.5703,398.5154 157.7531,398.5154 Q158.0484,398.5154 158.2734,398.7545 Q158.5125,398.9795 158.5125,399.2889 Q158.5125,399.5982 158.2031,399.9639 Q157.7531,400.4842 157.0359,400.7795 Q156.0656,401.1873 154.8984,401.1873 Q153.5344,401.1873 152.4516,400.6248 Q151.5656,400.1748 150.9469,399.2186 Q150.3281,398.2482 150.3281,397.0951 L150.3281,396.0545 Q150.3281,394.8592 150.8766,393.8326 Q151.4391,392.792 152.4234,392.2436 Q153.4078,391.6811 154.5188,391.6811 Q155.1797,391.6811 155.7563,391.8357 Q156.3469,391.9764 156.8391,392.2998 Z " fill="#000000"/><text fill="#000000" font-family="sans-serif" font-size="12.6" lengthAdjust="spacing" textLength="157.5492" x="166.95" y="401.2295">CustomList_CustomListItem</text><line style="stroke:#181818;stroke-width:0.45;" x1="141.75" x2="326.2992" y1="410.4123" y2="410.4123"/><line style="stroke:#181818;stroke-width:0.45;" x1="141.75" x2="326.2992" y1="417.6123" y2="417.6123"/></g><!--class Task_TaskHelper--><g id="elem_Task_TaskHelper"><rect fill="#F1F1F1" height="43.2" id="Task_TaskHelper" rx="2.25" ry="2.25" style="stroke:#181818;stroke-width:0.45;" width="127.5328" x="323.1" y="267.3123"/><ellipse cx="336.6" cy="281.7123" fill="#ADD1B2" rx="9.9" ry="9.9" style="stroke:#181818;stroke-width:0.9;"/><path d="M339.0891,277.9998 Q339.2297,277.8029 339.3984,277.7045 Q339.5672,277.6061 339.7641,277.6061 Q340.1016,277.6061 340.3125,277.8451 Q340.5234,278.0701 340.5234,278.6186 L340.5234,279.9264 Q340.5234,280.4748 340.3125,280.7139 Q340.1016,280.9529 339.7641,280.9529 Q339.4547,280.9529 339.2719,280.7701 Q339.0891,280.6014 338.9906,280.1373 Q338.9484,279.8139 338.7797,279.6451 Q338.4844,279.3076 337.9359,279.1107 Q337.3875,278.9139 336.825,278.9139 Q336.1359,278.9139 335.5594,279.2092 Q334.9969,279.5045 334.5469,280.1795 Q334.1109,280.8545 334.1109,281.7826 L334.1109,282.767 Q334.1109,283.8779 334.9125,284.6232 Q335.7141,285.3545 337.1484,285.3545 Q337.9922,285.3545 338.5828,285.1295 Q338.9344,284.9889 339.3141,284.5951 Q339.5531,284.3561 339.6797,284.2857 Q339.8203,284.2154 340.0031,284.2154 Q340.2984,284.2154 340.5234,284.4545 Q340.7625,284.6795 340.7625,284.9889 Q340.7625,285.2982 340.4531,285.6639 Q340.0031,286.1842 339.2859,286.4795 Q338.3156,286.8873 337.1484,286.8873 Q335.7844,286.8873 334.7016,286.3248 Q333.8156,285.8748 333.1969,284.9186 Q332.5781,283.9482 332.5781,282.7951 L332.5781,281.7545 Q332.5781,280.5592 333.1266,279.5326 Q333.6891,278.492 334.6734,277.9436 Q335.6578,277.3811 336.7688,277.3811 Q337.4297,277.3811 338.0063,277.5357 Q338.5969,277.6764 339.0891,277.9998 Z " fill="#000000"/><text fill="#000000" font-family="sans-serif" font-size="12.6" lengthAdjust="spacing" textLength="98.7328" x="349.2" y="286.9295">Task_TaskHelper</text><line style="stroke:#181818;stroke-width:0.45;" x1="324" x2="449.7328" y1="296.1123" y2="296.1123"/><line style="stroke:#181818;stroke-width:0.45;" x1="324" x2="449.7328" y1="303.3123" y2="303.3123"/></g><!--class RecurringTask--><g id="elem_RecurringTask"><rect fill="#F1F1F1" height="43.2" id="RecurringTask" rx="2.25" ry="2.25" style="stroke:#181818;stroke-width:0.45;" width="110.7246" x="482.85" y="267.3123"/><ellipse cx="496.35" cy="281.7123" fill="#ADD1B2" rx="9.9" ry="9.9" style="stroke:#181818;stroke-width:0.9;"/><path d="M498.8391,277.9998 Q498.9797,277.8029 499.1484,277.7045 Q499.3172,277.6061 499.5141,277.6061 Q499.8516,277.6061 500.0625,277.8451 Q500.2734,278.0701 500.2734,278.6186 L500.2734,279.9264 Q500.2734,280.4748 500.0625,280.7139 Q499.8516,280.9529 499.5141,280.9529 Q499.2047,280.9529 499.0219,280.7701 Q498.8391,280.6014 498.7406,280.1373 Q498.6984,279.8139 498.5297,279.6451 Q498.2344,279.3076 497.6859,279.1107 Q497.1375,278.9139 496.575,278.9139 Q495.8859,278.9139 495.3094,279.2092 Q494.7469,279.5045 494.2969,280.1795 Q493.8609,280.8545 493.8609,281.7826 L493.8609,282.767 Q493.8609,283.8779 494.6625,284.6232 Q495.4641,285.3545 496.8984,285.3545 Q497.7422,285.3545 498.3328,285.1295 Q498.6844,284.9889 499.0641,284.5951 Q499.3031,284.3561 499.4297,284.2857 Q499.5703,284.2154 499.7531,284.2154 Q500.0484,284.2154 500.2734,284.4545 Q500.5125,284.6795 500.5125,284.9889 Q500.5125,285.2982 500.2031,285.6639 Q499.7531,286.1842 499.0359,286.4795 Q498.0656,286.8873 496.8984,286.8873 Q495.5344,286.8873 494.4516,286.3248 Q493.5656,285.8748 492.9469,284.9186 Q492.3281,283.9482 492.3281,282.7951 L492.3281,281.7545 Q492.3281,280.5592 492.8766,279.5326 Q493.4391,278.492 494.4234,277.9436 Q495.4078,277.3811 496.5188,277.3811 Q497.1797,277.3811 497.7563,277.5357 Q498.3469,277.6764 498.8391,277.9998 Z " fill="#000000"/><text fill="#000000" font-family="sans-serif" font-size="12.6" lengthAdjust="spacing" textLength="81.9246" x="508.95" y="286.9295">RecurringTask</text><line style="stroke:#181818;stroke-width:0.45;" x1="483.75" x2="592.6746" y1="296.1123" y2="296.1123"/><line style="stroke:#181818;stroke-width:0.45;" x1="483.75" x2="592.6746" y1="303.3123" y2="303.3123"/></g><!--class NonRecurringTask--><g id="elem_NonRecurringTask"><rect fill="#F1F1F1" height="43.2" id="NonRecurringTask" rx="2.25" ry="2.25" style="stroke:#181818;stroke-width:0.45;" width="133.839" x="868.95" y="267.3123"/><ellipse cx="882.45" cy="281.7123" fill="#ADD1B2" rx="9.9" ry="9.9" style="stroke:#181818;stroke-width:0.9;"/><path d="M884.9391,277.9998 Q885.0797,277.8029 885.2484,277.7045 Q885.4172,277.6061 885.6141,277.6061 Q885.9516,277.6061 886.1625,277.8451 Q886.3734,278.0701 886.3734,278.6186 L886.3734,279.9264 Q886.3734,280.4748 886.1625,280.7139 Q885.9516,280.9529 885.6141,280.9529 Q885.3047,280.9529 885.1219,280.7701 Q884.9391,280.6014 884.8406,280.1373 Q884.7984,279.8139 884.6297,279.6451 Q884.3344,279.3076 883.7859,279.1107 Q883.2375,278.9139 882.675,278.9139 Q881.9859,278.9139 881.4094,279.2092 Q880.8469,279.5045 880.3969,280.1795 Q879.9609,280.8545 879.9609,281.7826 L879.9609,282.767 Q879.9609,283.8779 880.7625,284.6232 Q881.5641,285.3545 882.9984,285.3545 Q883.8422,285.3545 884.4328,285.1295 Q884.7844,284.9889 885.1641,284.5951 Q885.4031,284.3561 885.5297,284.2857 Q885.6703,284.2154 885.8531,284.2154 Q886.1484,284.2154 886.3734,284.4545 Q886.6125,284.6795 886.6125,284.9889 Q886.6125,285.2982 886.3031,285.6639 Q885.8531,286.1842 885.1359,286.4795 Q884.1656,286.8873 882.9984,286.8873 Q881.6344,286.8873 880.5516,286.3248 Q879.6656,285.8748 879.0469,284.9186 Q878.4281,283.9482 878.4281,282.7951 L878.4281,281.7545 Q878.4281,280.5592 878.9766,279.5326 Q879.5391,278.492 880.5234,277.9436 Q881.5078,277.3811 882.6188,277.3811 Q883.2797,277.3811 883.8563,277.5357 Q884.4469,277.6764 884.9391,277.9998 Z " fill="#000000"/><text fill="#000000" font-family="sans-serif" font-size="12.6" lengthAdjust="spacing" textLength="105.039" x="895.05" y="286.9295">NonRecurringTask</text><line style="stroke:#181818;stroke-width:0.45;" x1="869.85" x2="1001.889" y1="296.1123" y2="296.1123"/><line style="stroke:#181818;stroke-width:0.45;" x1="869.85" x2="1001.889" y1="303.3123" y2="303.3123"/></g><!--class ShoppingList_ShoppingListItem--><g id="elem_ShoppingList_ShoppingListItem"><rect fill="#F1F1F1" height="43.2" id="ShoppingList_ShoppingListItem" rx="2.25" ry="2.25" style="stroke:#181818;stroke-width:0.45;" width="206.0244" x="1192.05" y="451.8123"/><ellipse cx="1205.55" cy="466.2123" fill="#ADD1B2" rx="9.9" ry="9.9" style="stroke:#181818;stroke-width:0.9;"/><path d="M1208.0391,462.4998 Q1208.1797,462.3029 1208.3484,462.2045 Q1208.5172,462.1061 1208.7141,462.1061 Q1209.0516,462.1061 1209.2625,462.3451 Q1209.4734,462.5701 1209.4734,463.1186 L1209.4734,464.4264 Q1209.4734,464.9748 1209.2625,465.2139 Q1209.0516,465.4529 1208.7141,465.4529 Q1208.4047,465.4529 1208.2219,465.2701 Q1208.0391,465.1014 1207.9406,464.6373 Q1207.8984,464.3139 1207.7297,464.1451 Q1207.4344,463.8076 1206.8859,463.6107 Q1206.3375,463.4139 1205.775,463.4139 Q1205.0859,463.4139 1204.5094,463.7092 Q1203.9469,464.0045 1203.4969,464.6795 Q1203.0609,465.3545 1203.0609,466.2826 L1203.0609,467.267 Q1203.0609,468.3779 1203.8625,469.1232 Q1204.6641,469.8545 1206.0984,469.8545 Q1206.9422,469.8545 1207.5328,469.6295 Q1207.8844,469.4889 1208.2641,469.0951 Q1208.5031,468.8561 1208.6297,468.7857 Q1208.7703,468.7154 1208.9531,468.7154 Q1209.2484,468.7154 1209.4734,468.9545 Q1209.7125,469.1795 1209.7125,469.4889 Q1209.7125,469.7982 1209.4031,470.1639 Q1208.9531,470.6842 1208.2359,470.9795 Q1207.2656,471.3873 1206.0984,471.3873 Q1204.7344,471.3873 1203.6516,470.8248 Q1202.7656,470.3748 1202.1469,469.4186 Q1201.5281,468.4482 1201.5281,467.2951 L1201.5281,466.2545 Q1201.5281,465.0592 1202.0766,464.0326 Q1202.6391,462.992 1203.6234,462.4436 Q1204.6078,461.8811 1205.7188,461.8811 Q1206.3797,461.8811 1206.9563,462.0357 Q1207.5469,462.1764 1208.0391,462.4998 Z " fill="#000000"/><text fill="#000000" font-family="sans-serif" font-size="12.6" lengthAdjust="spacing" textLength="177.2244" x="1218.15" y="471.4295">ShoppingList_ShoppingListItem</text><line style="stroke:#181818;stroke-width:0.45;" x1="1192.95" x2="1397.1744" y1="480.6123" y2="480.6123"/><line style="stroke:#181818;stroke-width:0.45;" x1="1192.95" x2="1397.1744" y1="487.8123" y2="487.8123"/></g><!--reverse link User to Household_User--><g id="link_User_Household_User"><path codeLine="278" d="M837.7111,60.8606 C752.7151,60.5006 502.011,63.4803 291.6,108.9123 C244.971,118.9833 193.986,138.0183 158.067,152.8683 " fill="none" id="User-backto-Household_User" style="stroke:#181818;stroke-width:0.9;"/><polygon fill="#181818" points="848.511,60.9063,843.1263,57.2835,837.7111,60.8606,843.0958,64.4834,848.511,60.9063" style="stroke:#181818;stroke-width:0.9;"/><text fill="#000000" font-family="sans-serif" font-size="11.7" lengthAdjust="spacing" textLength="53.9925" x="292.5" y="122.4378">belongs to</text><text fill="#000000" font-family="sans-serif" font-size="11.7" lengthAdjust="spacing" textLength="6.507" x="835.0568" y="56.6304">1</text><text fill="#000000" font-family="sans-serif" font-size="11.7" lengthAdjust="spacing" textLength="17.5614" x="150.9404" y="142.6951">0..*</text></g><!--link Household_User to Household--><g id="link_Household_User_Household"><path codeLine="279" d="M86.661,196.5453 C69.12,213.6093 46.746,239.3403 36.9,267.3123 C30.519,285.4203 36.531,291.3153 36.9,310.5123 C37.701,351.9393 51.3,641.6853 51.3,683.1123 C51.3,683.1123 51.3,683.1123 51.3,900.4623 C51.3,966.9273 543.1605,980.335 697.7895,982.945 " fill="none" id="Household_User-to-Household" style="stroke:#181818;stroke-width:0.9;"/><polygon fill="#181818" points="708.588,983.1273,703.2495,979.4367,697.7895,982.945,703.128,986.6357,708.588,983.1273" style="stroke:#181818;stroke-width:0.9;"/><text fill="#000000" font-family="sans-serif" font-size="11.7" lengthAdjust="spacing" textLength="53.9925" x="50.4" y="618.7878">belongs to</text><text fill="#000000" font-family="sans-serif" font-size="11.7" lengthAdjust="spacing" textLength="17.5614" x="62.0488" y="216.0421">0..*</text><text fill="#000000" font-family="sans-serif" font-size="11.7" lengthAdjust="spacing" textLength="6.507" x="694.9793" y="979.074">1</text></g><!--link Household_User to HouseholdRole--><g id="link_Household_User_HouseholdRole"><path codeLine="280" d="M110.7,196.4103 C110.7,216.6153 110.7,236.2623 110.7,256.4313 " fill="none" id="Household_User-to-HouseholdRole" style="stroke:#181818;stroke-width:0.9;"/><polygon fill="#181818" points="110.7,267.2313,114.3,261.8313,110.7,256.4313,107.1,261.8313,110.7,267.2313" style="stroke:#181818;stroke-width:0.9;"/><text fill="#000000" font-family="sans-serif" font-size="11.7" lengthAdjust="spacing" textLength="28.6216" x="111.6" y="236.7378">has a</text><text fill="#000000" font-family="sans-serif" font-size="11.7" lengthAdjust="spacing" textLength="17.5614" x="91.6468" y="215.8759">0..*</text><text fill="#000000" font-family="sans-serif" font-size="11.7" lengthAdjust="spacing" textLength="6.507" x="103.6504" y="257.0743">1</text></g><!--link AreaOfResponsibility to Household--><g id="link_AreaOfResponsibility_Household"><path codeLine="282" d="M753.3,820.0203 C753.3,855.5433 753.3,916.7073 753.3,952.1853 " fill="none" id="AreaOfResponsibility-to-Household" style="stroke:#181818;stroke-width:0.9;"/><polygon fill="#181818" points="753.3,962.9853,756.9,957.5853,753.3,952.1853,749.7,957.5853,753.3,962.9853" style="stroke:#181818;stroke-width:0.9;"/><text fill="#000000" font-family="sans-serif" font-size="11.7" lengthAdjust="spacing" textLength="53.9925" x="754.2" y="904.5378">belongs to</text><text fill="#000000" font-family="sans-serif" font-size="11.7" lengthAdjust="spacing" textLength="17.5614" x="734.2025" y="839.8337">0..*</text><text fill="#000000" font-family="sans-serif" font-size="11.7" lengthAdjust="spacing" textLength="6.507" x="746.2265" y="952.8421">1</text></g><!--link Project to Household--><g id="link_Project_Household"><path codeLine="283" d="M973.323,565.4013 C1006.857,595.4433 1058.886,653.0073 1036.8,705.6123 C985.617,827.5083 861.1973,917.0655 797.3783,957.2325 " fill="none" id="Project-to-Household" style="stroke:#181818;stroke-width:0.9;"/><polygon fill="#181818" points="788.238,962.9853,794.7258,963.1557,797.3783,957.2325,790.8905,957.0621,788.238,962.9853" style="stroke:#181818;stroke-width:0.9;"/><text fill="#000000" font-family="sans-serif" font-size="11.7" lengthAdjust="spacing" textLength="53.9925" x="997.2" y="803.2878">belongs to</text><text fill="#000000" font-family="sans-serif" font-size="11.7" lengthAdjust="spacing" textLength="17.5614" x="960.269" y="584.8648">0..*</text><text fill="#000000" font-family="sans-serif" font-size="11.7" lengthAdjust="spacing" textLength="6.507" x="790.1174" y="952.8421">1</text></g><!--link CustomList to Household--><g id="link_CustomList_Household"><path codeLine="284" d="M201.51,310.5933 C174.204,326.0283 141.372,349.8873 125.1,381.6123 C106.911,417.0813 115.2,700.4013 115.2,740.2623 C115.2,740.2623 115.2,740.2623 115.2,900.4623 C115.2,960.4113 552.9106,978.0423 697.8916,982.2723 " fill="none" id="CustomList-to-Household" style="stroke:#181818;stroke-width:0.9;"/><polygon fill="#181818" points="708.687,982.5873,703.3943,978.8314,697.8916,982.2723,703.1843,986.0283,708.687,982.5873" style="stroke:#181818;stroke-width:0.9;"/><text fill="#000000" font-family="sans-serif" font-size="11.7" lengthAdjust="spacing" textLength="53.9925" x="115.2" y="688.9878">belongs to</text><text fill="#000000" font-family="sans-serif" font-size="11.7" lengthAdjust="spacing" textLength="17.5614" x="175.0551" y="328.4667">0..*</text><text fill="#000000" font-family="sans-serif" font-size="11.7" lengthAdjust="spacing" textLength="6.507" x="695.0934" y="996.0942">1</text></g><!--link CustomListItem to Household--><g id="link_CustomListItem_Household"><path codeLine="285" d="M288.423,635.8263 C303.849,659.9193 325.8,701.0763 325.8,740.2623 C325.8,740.2623 325.8,740.2623 325.8,900.4623 C325.8,977.7723 587.7991,984.727 697.5541,984.385 " fill="none" id="CustomListItem-to-Household" style="stroke:#181818;stroke-width:0.9;"/><polygon fill="#181818" points="708.354,984.3513,702.9428,980.7681,697.5541,984.385,702.9652,987.9681,708.354,984.3513" style="stroke:#181818;stroke-width:0.9;"/><text fill="#000000" font-family="sans-serif" font-size="11.7" lengthAdjust="spacing" textLength="53.9925" x="326.7" y="803.2878">belongs to</text><text fill="#000000" font-family="sans-serif" font-size="11.7" lengthAdjust="spacing" textLength="17.5614" x="272.8012" y="655.3419">0..*</text><text fill="#000000" font-family="sans-serif" font-size="11.7" lengthAdjust="spacing" textLength="6.507" x="695.0092" y="998.0813">1</text></g><!--link Task to Household--><g id="link_Task_Household"><path codeLine="286" d="M522.909,424.8573 C510.111,451.4163 490.5,499.2333 490.5,542.7123 C490.5,542.7123 490.5,542.7123 490.5,900.4623 C490.5,945.6873 623.0275,968.1699 698.0065,977.5479 " fill="none" id="Task-to-Household" style="stroke:#181818;stroke-width:0.9;"/><polygon fill="#181818" points="708.723,978.8883,703.8115,974.646,698.0065,977.5479,702.918,981.7903,708.723,978.8883" style="stroke:#181818;stroke-width:0.9;"/><text fill="#000000" font-family="sans-serif" font-size="11.7" lengthAdjust="spacing" textLength="53.9925" x="491.4" y="746.1378">belongs to</text><text fill="#000000" font-family="sans-serif" font-size="11.7" lengthAdjust="spacing" textLength="17.5614" x="501.1138" y="444.6554">0..*</text><text fill="#000000" font-family="sans-serif" font-size="11.7" lengthAdjust="spacing" textLength="6.507" x="695.135" y="974.186">1</text></g><!--link ShoppingList to Household--><g id="link_ShoppingList_Household"><path codeLine="287" d="M1380.384,310.6653 C1388.043,318.2073 1395.423,327.3873 1399.5,337.5123 C1466.91,504.7863 1350,559.9113 1350,740.2623 C1350,740.2623 1350,740.2623 1350,900.4623 C1350,956.1903 947.2239,976.4101 808.6959,981.7651 " fill="none" id="ShoppingList-to-Household" style="stroke:#181818;stroke-width:0.9;"/><polygon fill="#181818" points="797.904,982.1823,803.439,985.571,808.6959,981.7651,803.1609,978.3764,797.904,982.1823" style="stroke:#181818;stroke-width:0.9;"/><text fill="#000000" font-family="sans-serif" font-size="11.7" lengthAdjust="spacing" textLength="53.9925" x="1357.2" y="688.9878">belongs to</text><text fill="#000000" font-family="sans-serif" font-size="11.7" lengthAdjust="spacing" textLength="17.5614" x="1367.7901" y="330.4897">0..*</text><text fill="#000000" font-family="sans-serif" font-size="11.7" lengthAdjust="spacing" textLength="6.507" x="804.9372" y="995.5937">1</text></g><!--link ShoppingListItem to Household--><g id="link_ShoppingListItem_Household"><path codeLine="288" d="M1260.36,705.7743 C1269.585,713.0013 1278.315,722.0013 1283.4,732.6123 C1293.3,753.2673 1298.178,780.9873 1272.6,819.9123 C1232.136,881.4993 1200.312,879.9783 1132.2,908.1123 C1017.504,955.4883 881.4613,972.9046 808.8583,979.4566 " fill="none" id="ShoppingListItem-to-Household" style="stroke:#181818;stroke-width:0.9;"/><polygon fill="#181818" points="798.102,980.4273,803.8037,983.5274,808.8583,979.4566,803.1566,976.3565,798.102,980.4273" style="stroke:#181818;stroke-width:0.9;"/><text fill="#000000" font-family="sans-serif" font-size="11.7" lengthAdjust="spacing" textLength="53.9925" x="1251.9" y="860.4378">belongs to</text><text fill="#000000" font-family="sans-serif" font-size="11.7" lengthAdjust="spacing" textLength="17.5614" x="1250.0753" y="725.6009">0..*</text><text fill="#000000" font-family="sans-serif" font-size="11.7" lengthAdjust="spacing" textLength="6.507" x="804.8638" y="976.1069">1</text></g><!--link ShoppingListItemCategory to Household--><g id="link_ShoppingListItemCategory_Household"><path codeLine="289" d="M1149.354,820.1463 C1120.536,850.7553 1062.324,907.2123 1000.8,936.0123 C934.515,967.0353 859.9744,977.0812 808.7824,980.8792 " fill="none" id="ShoppingListItemCategory-to-Household" style="stroke:#181818;stroke-width:0.9;"/><polygon fill="#181818" points="798.012,981.6783,803.6636,984.8689,808.7824,980.8792,803.1308,977.6886,798.012,981.6783" style="stroke:#181818;stroke-width:0.9;"/><text fill="#000000" font-family="sans-serif" font-size="11.7" lengthAdjust="spacing" textLength="53.9925" x="1071" y="904.5378">belongs to</text><text fill="#000000" font-family="sans-serif" font-size="11.7" lengthAdjust="spacing" textLength="17.5614" x="1125.9736" y="839.6203">0..*</text><text fill="#000000" font-family="sans-serif" font-size="11.7" lengthAdjust="spacing" textLength="6.507" x="805.0611" y="977.4685">1</text></g><!--reverse link Project to ProjectGoal--><g id="link_Project_ProjectGoal"><path codeLine="291" d="M953.6058,575.8795 C958.5288,602.0065 964.935,636.0243 969.867,662.2233 " fill="none" id="Project-backto-ProjectGoal" style="stroke:#181818;stroke-width:0.9;"/><polygon fill="#181818" points="951.606,565.2663,949.0682,571.2395,953.6058,575.8795,956.1436,569.9063,951.606,565.2663" style="stroke:#181818;stroke-width:0.9;"/><text fill="#000000" font-family="sans-serif" font-size="11.7" lengthAdjust="spacing" textLength="18.864" x="964.8" y="618.7878">has</text><text fill="#000000" font-family="sans-serif" font-size="11.7" lengthAdjust="spacing" textLength="6.507" x="945.5624" y="585.0666">1</text><text fill="#000000" font-family="sans-serif" font-size="11.7" lengthAdjust="spacing" textLength="17.5614" x="949.7647" y="652.405">0..*</text></g><!--link User_Project to Project--><g id="link_User_Project_Project"><path codeLine="292" d="M1169.235,302.5563 C1125.198,315.8313 1062.45,340.5453 1021.5,381.6123 C981.207,422.0223 960.561,488.4603 952.236,521.9853 " fill="none" id="User_Project-Project" style="stroke:#181818;stroke-width:0.9;"/><text fill="#000000" font-family="sans-serif" font-size="11.7" lengthAdjust="spacing" textLength="55.2836" x="1022.4" y="408.1878">involved in</text><text fill="#000000" font-family="sans-serif" font-size="11.7" lengthAdjust="spacing" textLength="17.5614" x="1144.8899" y="300.6283">0..*</text><text fill="#000000" font-family="sans-serif" font-size="11.7" lengthAdjust="spacing" textLength="6.507" x="954.2814" y="511.8421">1</text></g><!--link User_Project to ProjectRole--><g id="link_User_Project_ProjectRole"><path codeLine="293" d="M1202.733,310.5483 C1195.938,318.7743 1188.252,328.4313 1181.7,337.5123 C1171.386,351.8043 1160.703,368.5803 1152.774,381.4863 " fill="none" id="User_Project-ProjectRole" style="stroke:#181818;stroke-width:0.9;"/><text fill="#000000" font-family="sans-serif" font-size="11.7" lengthAdjust="spacing" textLength="58.5343" x="1182.6" y="351.0378">involved as</text><text fill="#000000" font-family="sans-serif" font-size="11.7" lengthAdjust="spacing" textLength="17.5614" x="1179.3079" y="330.3442">0..*</text><text fill="#000000" font-family="sans-serif" font-size="11.7" lengthAdjust="spacing" textLength="6.507" x="1148.8477" y="371.3178">1</text></g><!--reverse link CustomList to CustomList_CustomListItem--><g id="link_CustomList_CustomList_CustomListItem"><path codeLine="295" d="M242.4114,321.4521 C240.3054,341.6571 238.257,361.3623 236.16,381.5313 " fill="none" id="CustomList-backto-CustomList_CustomListItem" style="stroke:#181818;stroke-width:0.9;"/><polygon fill="#181818" points="243.531,310.7103,239.3906,315.708,242.4114,321.4521,246.5518,316.4544,243.531,310.7103" style="stroke:#181818;stroke-width:0.9;"/><text fill="#000000" font-family="sans-serif" font-size="11.7" lengthAdjust="spacing" textLength="55.2722" x="241.2" y="351.0378">consists of</text><text fill="#000000" font-family="sans-serif" font-size="11.7" lengthAdjust="spacing" textLength="6.507" x="236.0228" y="330.1759">1</text><text fill="#000000" font-family="sans-serif" font-size="11.7" lengthAdjust="spacing" textLength="17.5614" x="217.4754" y="371.3743">0..*</text></g><!--link CustomList_CustomListItem to CustomListItem--><g id="link_CustomList_CustomListItem_CustomListItem"><path codeLine="296" d="M237.942,424.8933 C245.511,464.8173 262.008,551.8023 269.613,591.9063 " fill="none" id="CustomList_CustomListItem-CustomListItem" style="stroke:#181818;stroke-width:0.9;"/><text fill="#000000" font-family="sans-serif" font-size="11.7" lengthAdjust="spacing" textLength="28.6216" x="251.1" y="478.3878">has a</text><text fill="#000000" font-family="sans-serif" font-size="11.7" lengthAdjust="spacing" textLength="17.5614" x="219.769" y="444.7001">0..*</text><text fill="#000000" font-family="sans-serif" font-size="11.7" lengthAdjust="spacing" textLength="6.507" x="261.5714" y="582.0594">1</text></g><!--link CustomList_CustomListItem to CustomList_CustomListItem--><g id="link_CustomList_CustomListItem_CustomList_CustomListItem"><path codeLine="297" d="M327.231,393.1953 C345.591,394.3473 358.65,397.6773 358.65,403.2123 C358.65,408.7473 345.591,412.0773 327.231,413.2293 " fill="none" id="CustomList_CustomListItem-CustomList_CustomListItem" style="stroke:#181818;stroke-width:0.9;"/><text fill="#000000" font-family="sans-serif" font-size="11.7" lengthAdjust="spacing" textLength="48.7709" x="364.05" y="408.1878">is child of</text><text fill="#000000" font-family="sans-serif" font-size="11.7" lengthAdjust="spacing" textLength="17.5614" x="334.402" y="389.2878">0..*</text><text fill="#000000" font-family="sans-serif" font-size="11.7" lengthAdjust="spacing" textLength="19.5152" x="334.4707" y="410.7304">0..1</text></g><!--link Task to Priority--><g id="link_Task_Priority"><path codeLine="299" d="M557.298,424.9743 C566.028,433.0563 575.802,442.5873 584.1,451.8123 C604.53,474.5373 625.455,502.8153 638.892,521.7423 " fill="none" id="Task-Priority" style="stroke:#181818;stroke-width:0.9;"/><text fill="#000000" font-family="sans-serif" font-size="11.7" lengthAdjust="spacing" textLength="28.6216" x="618.3" y="478.3878">has a</text><text fill="#000000" font-family="sans-serif" font-size="11.7" lengthAdjust="spacing" textLength="17.5614" x="543.8851" y="444.8009">0..*</text><text fill="#000000" font-family="sans-serif" font-size="11.7" lengthAdjust="spacing" textLength="6.507" x="628.3615" y="511.9042">1</text></g><!--link Task to Status--><g id="link_Task_Status"><path codeLine="300" d="M536.931,424.8663 C541.008,450.9933 547.965,495.6243 552.042,521.8233 " fill="none" id="Task-Status" style="stroke:#181818;stroke-width:0.9;"/><text fill="#000000" font-family="sans-serif" font-size="11.7" lengthAdjust="spacing" textLength="28.6216" x="548.1" y="478.3878">has a</text><text fill="#000000" font-family="sans-serif" font-size="11.7" lengthAdjust="spacing" textLength="17.5614" x="518.5537" y="444.6666">0..*</text><text fill="#000000" font-family="sans-serif" font-size="11.7" lengthAdjust="spacing" textLength="6.507" x="544.2393" y="512.005">1</text></g><!--link Task_TaskHelper to Task--><g id="link_Task_TaskHelper_Task"><path codeLine="301" d="M414.252,310.7103 C440.595,330.9153 480.294,361.3623 506.601,381.5313 " fill="none" id="Task_TaskHelper-Task" style="stroke:#181818;stroke-width:0.9;"/><text fill="#000000" font-family="sans-serif" font-size="11.7" lengthAdjust="spacing" textLength="27.9703" x="469.8" y="351.0378">helps</text><text fill="#000000" font-family="sans-serif" font-size="11.7" lengthAdjust="spacing" textLength="17.5614" x="401.5611" y="330.1759">0..*</text><text fill="#000000" font-family="sans-serif" font-size="11.7" lengthAdjust="spacing" textLength="6.507" x="492.5373" y="371.3743">1</text></g><!--link RecurringTask to RecurrenceCycle--><g id="link_RecurringTask_RecurrenceCycle"><path codeLine="303" d="M593.604,288.9123 C609.984,288.9123 628.038,288.9123 644.841,288.9123 " fill="none" id="RecurringTask-RecurrenceCycle" style="stroke:#181818;stroke-width:0.9;"/><text fill="#000000" font-family="sans-serif" font-size="11.7" lengthAdjust="spacing" textLength="18.864" x="610.2" y="282.6378">has</text><text fill="#000000" font-family="sans-serif" font-size="11.7" lengthAdjust="spacing" textLength="17.5614" x="600.6229" y="302.3888">0..*</text><text fill="#000000" font-family="sans-serif" font-size="11.7" lengthAdjust="spacing" textLength="6.507" x="631.3471" y="285.4154">1</text></g><!--link NonRecurringTask to Task--><g id="link_NonRecurringTask_Task"><path codeLine="306" d="M868.842,305.0853 C860.553,306.9393 852.183,308.7843 844.2,310.5123 C786.699,322.9863 770.616,319.5213 714.6,337.5123 C696.699,343.2633 693.54,348.0963 675.9,354.6123 C636.723,369.0753 625.347,367.9053 585.9,381.6123 C577.98,384.3663 584.5523,381.6348 576.7673,384.7218 " fill="none" id="NonRecurringTask-to-Task" style="stroke:#181818;stroke-width:0.9;"/><polygon fill="none" points="561.708,390.6933,578.7578,389.7416,574.7768,379.7021,561.708,390.6933" style="stroke:#181818;stroke-width:0.9;"/><text fill="#000000" font-family="sans-serif" font-size="11.7" lengthAdjust="spacing" textLength="18.207" x="715.5" y="351.0378">is a</text></g><!--link RecurringTask to Task--><g id="link_RecurringTask_Task"><path codeLine="307" d="M537.363,310.7103 C536.553,330.9153 535.9881,345.1754 535.1781,365.3444 " fill="none" id="RecurringTask-to-Task" style="stroke:#181818;stroke-width:0.9;"/><polygon fill="none" points="534.528,381.5313,540.5737,365.561,529.7824,365.1277,534.528,381.5313" style="stroke:#181818;stroke-width:0.9;"/><text fill="#000000" font-family="sans-serif" font-size="11.7" lengthAdjust="spacing" textLength="18.207" x="536.4" y="351.0378">is a</text></g><!--reverse link ShoppingList to ShoppingList_ShoppingListItem--><g id="link_ShoppingList_ShoppingList_ShoppingListItem"><path codeLine="309" d="M1342.5278,320.9175 C1339.8458,329.1615 1340.523,328.5303 1339.2,337.5123 C1333.521,375.9963 1360.881,389.0823 1345.5,424.8123 C1341.072,435.0993 1333.206,444.2163 1324.989,451.6413 " fill="none" id="ShoppingList-backto-ShoppingList_ShoppingListItem" style="stroke:#181818;stroke-width:0.9;"/><polygon fill="#181818" points="1345.869,310.6473,1340.775,314.6687,1342.5278,320.9175,1347.6218,316.8961,1345.869,310.6473" style="stroke:#181818;stroke-width:0.9;"/><text fill="#000000" font-family="sans-serif" font-size="11.7" lengthAdjust="spacing" textLength="55.2722" x="1340.1" y="351.0378">consists of</text><text fill="#000000" font-family="sans-serif" font-size="11.7" lengthAdjust="spacing" textLength="6.507" x="1344.783" y="330.4673">1</text><text fill="#000000" font-family="sans-serif" font-size="11.7" lengthAdjust="spacing" textLength="17.5614" x="1313.1558" y="441.8273">0..*</text></g><!--link ShoppingList_ShoppingListItem to ShoppingListItem--><g id="link_ShoppingList_ShoppingListItem_ShoppingListItem"><path codeLine="310" d="M1288.026,495.0933 C1274.427,535.0173 1244.808,622.0023 1231.155,662.1063 " fill="none" id="ShoppingList_ShoppingListItem-ShoppingListItem" style="stroke:#181818;stroke-width:0.9;"/><text fill="#000000" font-family="sans-serif" font-size="11.7" lengthAdjust="spacing" textLength="28.6216" x="1278.9" y="548.5878">has a</text><text fill="#000000" font-family="sans-serif" font-size="11.7" lengthAdjust="spacing" textLength="17.5614" x="1267.1831" y="514.9001">0..*</text><text fill="#000000" font-family="sans-serif" font-size="11.7" lengthAdjust="spacing" textLength="6.507" x="1225.8368" y="652.2594">1</text></g><!--link ShoppingListItem to ShoppingListItemCategory--><g id="link_ShoppingListItem_ShoppingListItemCategory"><path codeLine="311" d="M1213.632,705.8103 C1203.615,726.0153 1188.513,756.4623 1178.505,776.6313 " fill="none" id="ShoppingListItem-ShoppingListItemCategory" style="stroke:#181818;stroke-width:0.9;"/><text fill="#000000" font-family="sans-serif" font-size="11.7" lengthAdjust="spacing" textLength="76.0957" x="1199.7" y="746.1378">categorized by</text><text fill="#000000" font-family="sans-serif" font-size="11.7" lengthAdjust="spacing" textLength="17.5614" x="1192.192" y="725.2759">0..*</text><text fill="#000000" font-family="sans-serif" font-size="11.7" lengthAdjust="spacing" textLength="6.507" x="1174.0667" y="766.4743">1</text></g><!--link User to Task--><g id="link_User_Task"><path codeLine="313" d="M864.504,81.9393 C847.476,112.0353 816.678,170.0583 800.1,223.2123 C788.391,260.7513 812.511,281.7483 785.7,310.5123 C750.375,348.4113 721.224,320.4483 672.3,337.5123 C632.673,351.3273 589.167,372.7743 561.663,387.1743 " fill="none" id="User-Task" style="stroke:#181818;stroke-width:0.9;"/><text fill="#000000" font-family="sans-serif" font-size="11.7" lengthAdjust="spacing" textLength="36.414" x="801" y="236.7378">creator</text><text fill="#000000" font-family="sans-serif" font-size="11.7" lengthAdjust="spacing" textLength="6.507" x="854.5614" y="101.733">1</text><text fill="#000000" font-family="sans-serif" font-size="11.7" lengthAdjust="spacing" textLength="17.5614" x="569.21" y="379.6412">0..*</text></g><!--link User to Task--><g id="link_User_Task"><path codeLine="314" d="M877.689,82.2633 C878.967,131.9973 874.269,256.6293 800.1,310.5123 C755.343,343.0293 728.028,312.6813 678.6,337.5123 C668.214,342.7323 668.781,348.6543 658.8,354.6123 C627.669,373.2063 588.024,386.8503 561.798,394.6713 " fill="none" id="User-Task-1" style="stroke:#181818;stroke-width:0.9;"/><text fill="#000000" font-family="sans-serif" font-size="11.7" lengthAdjust="spacing" textLength="46.8343" x="859.5" y="236.7378">assignee</text><text fill="#000000" font-family="sans-serif" font-size="11.7" lengthAdjust="spacing" textLength="6.507" x="870.9823" y="101.7643">1</text><text fill="#000000" font-family="sans-serif" font-size="11.7" lengthAdjust="spacing" textLength="17.5614" x="569.0286" y="407.1472">0..*</text></g><!--link User to Task_TaskHelper--><g id="link_User_Task_TaskHelper"><path codeLine="315" d="M848.52,74.2173 C767.241,111.8733 531.27,221.1783 431.928,267.2043 " fill="none" id="User-Task_TaskHelper" style="stroke:#181818;stroke-width:0.9;"/><text fill="#000000" font-family="sans-serif" font-size="11.7" lengthAdjust="spacing" textLength="27.9703" x="673.2" y="179.5878">helps</text><text fill="#000000" font-family="sans-serif" font-size="11.7" lengthAdjust="spacing" textLength="6.507" x="835.2825" y="98.499">1</text><text fill="#000000" font-family="sans-serif" font-size="11.7" lengthAdjust="spacing" textLength="17.5614" x="424.2432" y="257.0404">0..*</text></g><!--link User to Project--><g id="link_User_Project"><path codeLine="316" d="M904.554,65.0913 C947.664,71.7063 1027.206,86.6643 1044,108.9123 C1097.982,180.4263 1075.473,226.6233 1044,310.5123 C1029.258,349.7973 1004.157,346.0443 981.9,381.6123 C963.927,410.3313 959.751,418.7913 952.2,451.8123 C946.809,475.3743 946.251,503.2473 946.683,521.8503 " fill="none" id="User-Project" style="stroke:#181818;stroke-width:0.9;"/><text fill="#000000" font-family="sans-serif" font-size="11.7" lengthAdjust="spacing" textLength="36.414" x="1060.2" y="293.8878">creator</text><text fill="#000000" font-family="sans-serif" font-size="11.7" lengthAdjust="spacing" textLength="6.507" x="911.4241" y="80.4643">1</text><text fill="#000000" font-family="sans-serif" font-size="11.7" lengthAdjust="spacing" textLength="17.5614" x="927.3542" y="512.0385">0..*</text></g><!--link User to User_Project--><g id="link_User_User_Project"><path codeLine="317" d="M904.563,64.2093 C958.644,70.4553 1075.14,86.1783 1107.9,108.9123 C1165.671,148.9983 1199.961,229.3323 1213.578,267.2673 " fill="none" id="User-User_Project" style="stroke:#181818;stroke-width:0.9;"/><text fill="#000000" font-family="sans-serif" font-size="11.7" lengthAdjust="spacing" textLength="42.9267" x="1181.7" y="179.5878">involved</text><text fill="#000000" font-family="sans-serif" font-size="11.7" lengthAdjust="spacing" textLength="6.507" x="911.4351" y="60.7425">1</text><text fill="#000000" font-family="sans-serif" font-size="11.7" lengthAdjust="spacing" textLength="17.5614" x="1192.6076" y="257.1195">0..*</text></g><!--link User to CustomList--><g id="link_User_CustomList"><path codeLine="318" d="M848.673,67.4223 C791.1,80.5713 655.389,113.2593 545.4,153.0123 C450.27,187.3923 343.197,238.8813 286.326,267.3033 " fill="none" id="User-CustomList" style="stroke:#181818;stroke-width:0.9;"/><text fill="#000000" font-family="sans-serif" font-size="11.7" lengthAdjust="spacing" textLength="36.414" x="546.3" y="179.5878">creator</text><text fill="#000000" font-family="sans-serif" font-size="11.7" lengthAdjust="spacing" textLength="6.507" x="834.8716" y="83.6775">1</text><text fill="#000000" font-family="sans-serif" font-size="11.7" lengthAdjust="spacing" textLength="17.5614" x="277.5022" y="257.1647">0..*</text></g><!--link User to ShoppingList--><g id="link_User_ShoppingList"><path codeLine="319" d="M904.518,61.8873 C968.355,64.7223 1127.529,79.2573 1232.1,153.0123 C1278.099,185.4573 1319.022,238.2873 1339.578,267.3033 " fill="none" id="User-ShoppingList" style="stroke:#181818;stroke-width:0.9;"/><text fill="#000000" font-family="sans-serif" font-size="11.7" lengthAdjust="spacing" textLength="36.414" x="1280.7" y="179.5878">creator</text><text fill="#000000" font-family="sans-serif" font-size="11.7" lengthAdjust="spacing" textLength="6.507" x="911.3802" y="57.9125">1</text><text fill="#000000" font-family="sans-serif" font-size="11.7" lengthAdjust="spacing" textLength="17.5614" x="1316.7587" y="257.1647">0..*</text></g><!--link User to AreaOfResponsibility--><g id="link_User_AreaOfResponsibility"><path codeLine="320" d="M904.626,82.1463 C958.302,124.9143 1066.266,225.4443 1018.8,310.5123 C989.487,363.0543 941.913,335.2173 903.6,381.6123 C877.041,413.7783 783.135,692.8953 770.4,732.6123 C765.747,747.1293 761.373,763.7523 758.223,776.5323 " fill="none" id="User-AreaOfResponsibility" style="stroke:#181818;stroke-width:0.9;"/><text fill="#000000" font-family="sans-serif" font-size="11.7" lengthAdjust="spacing" textLength="46.8343" x="904.5" y="408.1878">assignee</text><text fill="#000000" font-family="sans-serif" font-size="11.7" lengthAdjust="spacing" textLength="6.507" x="904.1484" y="101.6203">1</text><text fill="#000000" font-family="sans-serif" font-size="11.7" lengthAdjust="spacing" textLength="17.5614" x="761.5936" y="766.7162">0..*</text></g><!--link CustomList to AreaOfResponsibility--><g id="link_CustomList_AreaOfResponsibility"><path codeLine="322" d="M291.897,307.9563 C338.085,327.1533 404.235,357.8793 418.5,381.6123 C428.868,398.8653 407.907,479.8923 405,522.0123 C397.881,625.0803 375.48,680.0793 451.8,749.7123 C484.29,779.3583 601.416,790.6173 679.761,794.8653 " fill="none" id="CustomList-AreaOfResponsibility" style="stroke:#181818;stroke-width:0.9;"/><text fill="#000000" font-family="sans-serif" font-size="11.7" lengthAdjust="spacing" textLength="76.0957" x="405.9" y="548.5878">categorized by</text><text fill="#000000" font-family="sans-serif" font-size="11.7" lengthAdjust="spacing" textLength="17.5614" x="298.3215" y="306.86">0..*</text><text fill="#000000" font-family="sans-serif" font-size="11.7" lengthAdjust="spacing" textLength="19.5152" x="653.2503" y="791.1799">0..1</text></g><!--link Task to AreaOfResponsibility--><g id="link_Task_AreaOfResponsibility"><path codeLine="323" d="M561.645,410.2503 C587.7,417.0453 626.607,430.0233 654.3,451.8123 C684.306,475.4193 689.436,486.6423 703.8,522.0123 C723.006,569.2893 712.926,585.1563 721.8,635.4123 C730.764,686.1993 742.698,745.6623 748.989,776.4873 " fill="none" id="Task-AreaOfResponsibility" style="stroke:#181818;stroke-width:0.9;"/><text fill="#000000" font-family="sans-serif" font-size="11.7" lengthAdjust="spacing" textLength="76.0957" x="722.7" y="618.7878">categorized by</text><text fill="#000000" font-family="sans-serif" font-size="11.7" lengthAdjust="spacing" textLength="17.5614" x="569.1883" y="425.9322">0..*</text><text fill="#000000" font-family="sans-serif" font-size="11.7" lengthAdjust="spacing" textLength="19.5152" x="726.8401" y="766.6602">0..1</text></g><!--link Project to AreaOfResponsibility--><g id="link_Project_AreaOfResponsibility"><path codeLine="324" d="M924.579,565.2663 C900.243,587.7933 861.624,625.4943 833.4,662.4123 C804.519,700.1943 777.789,749.1903 763.704,776.5683 " fill="none" id="Project-AreaOfResponsibility" style="stroke:#181818;stroke-width:0.9;"/><text fill="#000000" font-family="sans-serif" font-size="11.7" lengthAdjust="spacing" textLength="76.0957" x="834.3" y="688.9878">categorized by</text><text fill="#000000" font-family="sans-serif" font-size="11.7" lengthAdjust="spacing" textLength="17.5614" x="899.8623" y="585.0666">0..*</text><text fill="#000000" font-family="sans-serif" font-size="11.7" lengthAdjust="spacing" textLength="19.5152" x="745.1592" y="766.3951">0..1</text></g><!--link ShoppingList to AreaOfResponsibility--><g id="link_ShoppingList_AreaOfResponsibility"><path codeLine="325" d="M1342.314,310.7103 C1338.282,318.8823 1334.025,328.4493 1331.1,337.5123 C1318.986,375.0693 1342.377,396.4803 1314.9,424.8123 C1275.57,465.3663 1236.681,418.9983 1190.7,451.8123 C1083.321,528.4473 1140.246,623.7483 1036.8,705.6123 C975.744,753.9243 888.498,777.1623 826.947,788.1063 " fill="none" id="ShoppingList-AreaOfResponsibility" style="stroke:#181818;stroke-width:0.9;"/><text fill="#000000" font-family="sans-serif" font-size="11.7" lengthAdjust="spacing" textLength="76.0957" x="1130.4" y="548.5878">categorized by</text><text fill="#000000" font-family="sans-serif" font-size="11.7" lengthAdjust="spacing" textLength="17.5614" x="1320.6854" y="330.1759">0..*</text><text fill="#000000" font-family="sans-serif" font-size="11.7" lengthAdjust="spacing" textLength="19.5152" x="833.6032" y="784.0193">0..1</text></g><!--link CustomList to Project--><g id="link_CustomList_Project"><path codeLine="327" d="M291.807,306.6333 C297.144,308.1453 302.562,309.4863 307.8,310.5123 C354.123,319.5483 699.408,303.0963 731.7,337.5123 C753.417,360.6513 701.262,373.8453 697.5,381.6123 C689.13,398.8923 689.481,407.3703 697.5,424.8123 C735.471,507.3693 843.32,530.9627 902.567,538.3517 " fill="none" id="CustomList-to-Project" style="stroke:#181818;stroke-width:0.9;"/><polygon fill="none" points="913.284,539.6883,908.371,535.4477,902.567,538.3517,907.48,542.5923,913.284,539.6883" style="stroke:#181818;stroke-width:0.9;"/><text fill="#000000" font-family="sans-serif" font-size="11.7" lengthAdjust="spacing" textLength="53.9925" x="698.4" y="408.1878">belongs to</text><text fill="#000000" font-family="sans-serif" font-size="11.7" lengthAdjust="spacing" textLength="17.5614" x="298.2192" y="322.751">0..*</text><text fill="#000000" font-family="sans-serif" font-size="11.7" lengthAdjust="spacing" textLength="19.5152" x="886.6594" y="534.9755">0..1</text></g><!--link NonRecurringTask to Project--><g id="link_NonRecurringTask_Project"><path codeLine="328" d="M869.553,310.5393 C810.72,332.7963 738.288,372.1983 766.8,424.8123 C797.877,482.1603 860.1397,512.3071 903.3307,528.1111 " fill="none" id="NonRecurringTask-to-Project" style="stroke:#181818;stroke-width:0.9;"/><polygon fill="none" points="913.473,531.8223,909.6389,526.5859,903.3307,528.1111,907.1648,533.3475,913.473,531.8223" style="stroke:#181818;stroke-width:0.9;"/><text fill="#000000" font-family="sans-serif" font-size="11.7" lengthAdjust="spacing" textLength="53.9925" x="767.7" y="408.1878">belongs to</text><text fill="#000000" font-family="sans-serif" font-size="11.7" lengthAdjust="spacing" textLength="17.5614" x="844.2897" y="326.3813">0..*</text><text fill="#000000" font-family="sans-serif" font-size="11.7" lengthAdjust="spacing" textLength="19.5152" x="886.8821" y="525.7084">0..1</text></g><!--link ShoppingList to Project--><g id="link_ShoppingList_Project"><path codeLine="329" d="M1328.247,310.6743 C1318.365,318.9183 1307.007,328.5573 1296.9,337.5123 C1254.321,375.2313 1250.523,393.0963 1203.3,424.8123 C1130.076,473.9883 1043.1935,508.7522 992.3345,527.1572 " fill="none" id="ShoppingList-to-Project" style="stroke:#181818;stroke-width:0.9;"/><polygon fill="none" points="982.179,530.8323,988.4818,532.3799,992.3345,527.1572,986.0317,525.6096,982.179,530.8323" style="stroke:#181818;stroke-width:0.9;"/><text fill="#000000" font-family="sans-serif" font-size="11.7" lengthAdjust="spacing" textLength="53.9925" x="1253.7" y="408.1878">belongs to</text><text fill="#000000" font-family="sans-serif" font-size="11.7" lengthAdjust="spacing" textLength="17.5614" x="1302.9447" y="330.5009">0..*</text><text fill="#000000" font-family="sans-serif" font-size="11.7" lengthAdjust="spacing" textLength="19.5152" x="988.7045" y="525.1764">0..1</text></g><!--SRC=[tLfVRzis47_tfo2yXpXTN2phzYAW0ufWM0kiNP2iUna6WPPeYujCgXJjrDlotNUaP8d_95bErtWra4GHxux7tntlZlITeVUtw2LwNnA1RYKNkyaa9qk994U2hZA9KYf88Ybdam8dTtX5qFGjJqcEhd9SbgISehyd23vdyu5FHOLUyqr9Cfwd8xZqL2rdFQFwV8re6Y7AfF66uJM9K2c5yIuH14kInbX6A8KdITVa-Vx1eDiKwK5qj8m10mAa4LfmdkkXXyae91Jceq7GXkfVFrbZcji0p54SPxZCO6K5IBdd8dKHsh0j4NH9WQHVG4MMOEKJiUHtXBcY01omb8Zt0Ws8AW9B1FbO3CBzMSnNMMLDPCRJ4WrOmmGbBWaeA6VL7ut6kGUlrgn1VyR8VLpac3BR8C3tZZFYOhLh6SDC3i3rRBwfQlOE6tREVeGWTrVyo3RhTWlVy9mORepJDMKK636480X7bys8SYHuyQqfoWa7iRSdicP8-w6_HTJhgDs03bVa12bNg03b8tijjc_X926533Z-AOQXLw3JByiRKXQSbNH1SofteyDIICX0c1g06wJI5GCC9FSi9QdClH2VaZ8Hj52U-7-8_jU2_mc9TJJIDT_ZmDq3ijXvs68OYlao5fOjesutESuaAS5fJXbnW7P0veh0sKFgvMaa32iSrNRvYUDym3P5HHbPBd3wZgq3UAso4xxh5SLhpA10j0DumfaKTB6f0diWZYl_Ym_pwc3Oxe6p2jI6pYSU4wusfUJhdo4HZWuBBUkfHOPFwEw0SPAHv2w7PNfnGUTTIRVaIREkQuqtagmVPv6dFiwuAuf7BQuobUFODJ5mHmvKfj-0lp6BD-wa_R31J6fdNEOSMo63KUcYnxWa0TSAPfjJ31E_ul9kT81GJ8-io8xR_tqHfQV6AmJbGik_hf-CmL9YkIaZTAl_sl0Aaco4e6pbsN9qZN9gbKQTWYiu36Dkn0gsYfLsCxhAcdohFckIKk1-YLuqht9-3_z_vyrGeMh8Ns28kNnbJI0vR1Xh1dKi5Nm5xb5QqoWOtNbQdupLhzSaBmRlDOBPNm9trEw89xB9ZVOvmX9ojKkiqYZ5DDzPmDqJSgTV6RQ16YdJxrhKTWGB_Ig0sytUnRrDBHf5uaHf4hcgXMa1Q2AsEFUkqiX7gVOxaOTWT3BfznrdtH3rr2CTXv8dtF67feJRZ1S5hFQesj5a_i-gnnxOF-MHy_CxcucUAakkGCYAYzsNKFMvQtkaTzJ8H9sOdRPruv5mLBMljpNDwjUL-2NLj0yJHkuBl28JzwkZ6vBh6-FcooF_SZXuvU0NGMxHqfcIHqNJHhyHNFeIUdevHS_cSpJzvldpPrFtYZf2qmN9ELkLK3rDDPT3KVFDvy-qgFORh-DPzLKDi6UuH7XQkNRmjhOHSCZa-_kQJgO0Zt55SHoRtdAZrDJ9VnI7bGkFvXolQMSMELYARHVR4StBoSeNfetJnfujDVV-BP1JjkNvbgGGtWvbstjTmwfczBp0LhBxYW449SfJIraYldJT8kxo43s1BwhU2GSBWQVB0UreYPACWasKTW7Fgw6f3sws3W7A-W3cqvc79Pj5Ir4CCBY7sgw16mPDxvvOzbvHHy0tB2EWAuPngvgU8ypILh2UjaHBmTVj6SohlkVpVtve5AJDWWQ90XlIzfZ-v1pocduEnme1WOOzHd8t6rgfLJtJls1ZB7RrGfi4CcyNkCT3PsmkfeE4zOqAwQSqtQZrcIuE8n8Cwc551cF_TtCOyU2G2IntE8GXcEiifBgJqtxlTybmxHX8ESU8y9FhCL8wCjbOKTteyBqemzvkMlDYmJZsZZKCiK85xvUUjqHiQKBAOnkN6lwtlrqZplBTKRqxjHJhvF1XGyHEjogKS7AELVVDhEt1EVUEqWwzqRcZc6A8q34S1rHZ3HLEmyuisERZJm4blHwEbroiiOotEAUfhLJmKA6rCkWkKBXVnPfEzT7Kx856atE_4ob4d5Dsrz-KSe4i_LsX9M5ESvCsX3T9VwUCdcBMNbLUeCDRP9o-5jzLpbIptbUNtyBF2n_wvlGzQouFBb0T7ojbpaFdybhezvw3jGqlwY2hFArzenjsPix_pIHgk_xUpFI7EzKBxok0s6wkiV0BTDkOw5lOlTh8p8RDks_k6ROYLG-T6zI2f6VecaFGWc0H3VJ9DEmFVZj1SAoDnWF3gku8afXnTP30h5uE8gw99W__0W00]--></g></svg>