<svg xmlns="http://www.w3.org/2000/svg" xmlns:xlink="http://www.w3.org/1999/xlink" contentStyleType="text/css" height="285px" preserveAspectRatio="none" style="width:537px;height:285px;background:#FFFFFF;" version="1.1" viewBox="0 0 537 285" width="537px" zoomAndPan="magnify"><defs/><g><!--cluster Services Classes--><g id="cluster_Services Classes"><path d="M5.1,3.6082 L74.3561,3.6082 A2.25,2.25 0 0 1 75.8561,5.1082 L80.0561,18.3809 L531.3,18.3809 A1.5,1.5 0 0 1 532.8,19.8809 L532.8,279.3082 A1.5,1.5 0 0 1 531.3,280.8082 L5.1,280.8082 A1.5,1.5 0 0 1 3.6,279.3082 L3.6,5.1082 A1.5,1.5 0 0 1 5.1,3.6082 " fill="none" style="stroke:#000000;stroke-width:0.8999999999999999;"/><line style="stroke:#000000;stroke-width:0.8999999999999999;" x1="3.6" x2="80.0561" y1="18.3809" y2="18.3809"/><text fill="#000000" font-family="sans-serif" font-size="8.4" font-weight="bold" lengthAdjust="spacing" textLength="68.6561" x="6" y="13.8727">Services Classes</text></g><!--class UserService--><g id="elem_UserService"><rect codeLine="284" fill="#F1F1F1" height="28.8" id="UserService" rx="1.5" ry="1.5" style="stroke:#181818;stroke-width:0.3;" width="64.9447" x="13.2" y="36.9082"/><ellipse cx="22.2" cy="46.5082" fill="#ADD1B2" rx="6.6" ry="6.6" style="stroke:#181818;stroke-width:0.6;"/><path d="M23.8594,44.0332 Q23.9531,43.902 24.0656,43.8363 Q24.1781,43.7707 24.3094,43.7707 Q24.5344,43.7707 24.675,43.9301 Q24.8156,44.0801 24.8156,44.4457 L24.8156,45.3176 Q24.8156,45.6832 24.675,45.8426 Q24.5344,46.002 24.3094,46.002 Q24.1031,46.002 23.9813,45.8801 Q23.8594,45.7676 23.7938,45.4582 Q23.7656,45.2426 23.6531,45.1301 Q23.4563,44.9051 23.0906,44.7738 Q22.725,44.6426 22.35,44.6426 Q21.8906,44.6426 21.5062,44.8395 Q21.1312,45.0363 20.8313,45.4863 Q20.5406,45.9363 20.5406,46.5551 L20.5406,47.2113 Q20.5406,47.952 21.075,48.4488 Q21.6094,48.9363 22.5656,48.9363 Q23.1281,48.9363 23.5219,48.7863 Q23.7562,48.6926 24.0094,48.4301 Q24.1688,48.2707 24.2531,48.2238 Q24.3469,48.177 24.4688,48.177 Q24.6656,48.177 24.8156,48.3363 Q24.975,48.4863 24.975,48.6926 Q24.975,48.8988 24.7688,49.1426 Q24.4688,49.4895 23.9906,49.6863 Q23.3438,49.9582 22.5656,49.9582 Q21.6563,49.9582 20.9344,49.5832 Q20.3438,49.2832 19.9313,48.6457 Q19.5188,47.9988 19.5188,47.2301 L19.5188,46.5363 Q19.5188,45.7395 19.8844,45.0551 Q20.2594,44.3613 20.9156,43.9957 Q21.5719,43.6207 22.3125,43.6207 Q22.7531,43.6207 23.1375,43.7238 Q23.5313,43.8176 23.8594,44.0332 Z " fill="#000000"/><text fill="#000000" font-family="sans-serif" font-size="8.4" lengthAdjust="spacing" textLength="45.7447" x="30.6" y="49.9863">UserService</text><line style="stroke:#181818;stroke-width:0.3;" x1="13.8" x2="77.5447" y1="56.1082" y2="56.1082"/><line style="stroke:#181818;stroke-width:0.3;" x1="13.8" x2="77.5447" y1="60.9082" y2="60.9082"/></g><!--class HouseholdService--><g id="elem_HouseholdService"><rect codeLine="287" fill="#F1F1F1" height="51.1453" id="HouseholdService" rx="1.5" ry="1.5" style="stroke:#181818;stroke-width:0.3;" width="251.8664" x="99" y="25.8082"/><ellipse cx="188.2972" cy="35.4082" fill="#ADD1B2" rx="6.6" ry="6.6" style="stroke:#181818;stroke-width:0.6;"/><path d="M189.9565,32.9332 Q190.0503,32.802 190.1628,32.7363 Q190.2753,32.6707 190.4065,32.6707 Q190.6315,32.6707 190.7722,32.8301 Q190.9128,32.9801 190.9128,33.3457 L190.9128,34.2176 Q190.9128,34.5832 190.7722,34.7426 Q190.6315,34.902 190.4065,34.902 Q190.2003,34.902 190.0784,34.7801 Q189.9565,34.6676 189.8909,34.3582 Q189.8628,34.1426 189.7503,34.0301 Q189.5534,33.8051 189.1878,33.6738 Q188.8222,33.5426 188.4472,33.5426 Q187.9878,33.5426 187.6034,33.7395 Q187.2284,33.9363 186.9284,34.3863 Q186.6378,34.8363 186.6378,35.4551 L186.6378,36.1113 Q186.6378,36.852 187.1722,37.3488 Q187.7065,37.8363 188.6628,37.8363 Q189.2253,37.8363 189.619,37.6863 Q189.8534,37.5926 190.1065,37.3301 Q190.2659,37.1707 190.3503,37.1238 Q190.444,37.077 190.5659,37.077 Q190.7628,37.077 190.9128,37.2363 Q191.0722,37.3863 191.0722,37.5926 Q191.0722,37.7988 190.8659,38.0426 Q190.5659,38.3895 190.0878,38.5863 Q189.4409,38.8582 188.6628,38.8582 Q187.7534,38.8582 187.0315,38.4832 Q186.4409,38.1832 186.0284,37.5457 Q185.6159,36.8988 185.6159,36.1301 L185.6159,35.4363 Q185.6159,34.6395 185.9815,33.9551 Q186.3565,33.2613 187.0128,32.8957 Q187.669,32.5207 188.4097,32.5207 Q188.8503,32.5207 189.2347,32.6238 Q189.6284,32.7176 189.9565,32.9332 Z " fill="#000000"/><text fill="#000000" font-family="sans-serif" font-size="8.4" lengthAdjust="spacing" textLength="68.1721" x="200.5972" y="38.8863">HouseholdService</text><line style="stroke:#181818;stroke-width:0.3;" x1="99.6" x2="350.2664" y1="45.0082" y2="45.0082"/><line style="stroke:#181818;stroke-width:0.3;" x1="99.6" x2="350.2664" y1="49.8082" y2="49.8082"/><ellipse cx="105.6" cy="58.6945" fill="#84BE84" rx="1.8" ry="1.8" style="stroke:#038048;stroke-width:0.6;"/><text fill="#000000" font-family="sans-serif" font-size="8.4" lengthAdjust="spacing" textLength="205.435" x="111" y="61.2727">create_household(name: str, creator: User): Household</text><ellipse cx="105.6" cy="69.8672" fill="#84BE84" rx="1.8" ry="1.8" style="stroke:#038048;stroke-width:0.6;"/><text fill="#000000" font-family="sans-serif" font-size="8.4" lengthAdjust="spacing" textLength="236.2664" x="111" y="72.4453">assign_household_role(user: User, role: HouseholdRole): None</text></g><!--class AuthService--><g id="elem_AuthService"><rect codeLine="294" fill="#F1F1F1" height="28.8" id="AuthService" rx="1.5" ry="1.5" style="stroke:#181818;stroke-width:0.3;" width="64.4895" x="372.3" y="36.9082"/><ellipse cx="381.3" cy="46.5082" fill="#ADD1B2" rx="6.6" ry="6.6" style="stroke:#181818;stroke-width:0.6;"/><path d="M382.9594,44.0332 Q383.0531,43.902 383.1656,43.8363 Q383.2781,43.7707 383.4094,43.7707 Q383.6344,43.7707 383.775,43.9301 Q383.9156,44.0801 383.9156,44.4457 L383.9156,45.3176 Q383.9156,45.6832 383.775,45.8426 Q383.6344,46.002 383.4094,46.002 Q383.2031,46.002 383.0813,45.8801 Q382.9594,45.7676 382.8938,45.4582 Q382.8656,45.2426 382.7531,45.1301 Q382.5563,44.9051 382.1906,44.7738 Q381.825,44.6426 381.45,44.6426 Q380.9906,44.6426 380.6063,44.8395 Q380.2313,45.0363 379.9313,45.4863 Q379.6406,45.9363 379.6406,46.5551 L379.6406,47.2113 Q379.6406,47.952 380.175,48.4488 Q380.7094,48.9363 381.6656,48.9363 Q382.2281,48.9363 382.6219,48.7863 Q382.8563,48.6926 383.1094,48.4301 Q383.2688,48.2707 383.3531,48.2238 Q383.4469,48.177 383.5687,48.177 Q383.7656,48.177 383.9156,48.3363 Q384.075,48.4863 384.075,48.6926 Q384.075,48.8988 383.8688,49.1426 Q383.5687,49.4895 383.0906,49.6863 Q382.4437,49.9582 381.6656,49.9582 Q380.7562,49.9582 380.0344,49.5832 Q379.4437,49.2832 379.0313,48.6457 Q378.6188,47.9988 378.6188,47.2301 L378.6188,46.5363 Q378.6188,45.7395 378.9844,45.0551 Q379.3594,44.3613 380.0156,43.9957 Q380.6719,43.6207 381.4125,43.6207 Q381.8531,43.6207 382.2375,43.7238 Q382.6312,43.8176 382.9594,44.0332 Z " fill="#000000"/><text fill="#000000" font-family="sans-serif" font-size="8.4" lengthAdjust="spacing" textLength="45.2895" x="389.7" y="49.9863">AuthService</text><line style="stroke:#181818;stroke-width:0.3;" x1="372.9" x2="436.1895" y1="56.1082" y2="56.1082"/><line style="stroke:#181818;stroke-width:0.3;" x1="372.9" x2="436.1895" y1="60.9082" y2="60.9082"/></g><!--class TaskService--><g id="elem_TaskService"><rect codeLine="297" fill="#F1F1F1" height="28.8" id="TaskService" rx="1.5" ry="1.5" style="stroke:#181818;stroke-width:0.3;" width="65.4123" x="457.5" y="36.9082"/><ellipse cx="466.5" cy="46.5082" fill="#ADD1B2" rx="6.6" ry="6.6" style="stroke:#181818;stroke-width:0.6;"/><path d="M468.1594,44.0332 Q468.2531,43.902 468.3656,43.8363 Q468.4781,43.7707 468.6094,43.7707 Q468.8344,43.7707 468.975,43.9301 Q469.1156,44.0801 469.1156,44.4457 L469.1156,45.3176 Q469.1156,45.6832 468.975,45.8426 Q468.8344,46.002 468.6094,46.002 Q468.4031,46.002 468.2813,45.8801 Q468.1594,45.7676 468.0938,45.4582 Q468.0656,45.2426 467.9531,45.1301 Q467.7562,44.9051 467.3906,44.7738 Q467.025,44.6426 466.65,44.6426 Q466.1906,44.6426 465.8063,44.8395 Q465.4313,45.0363 465.1312,45.4863 Q464.8406,45.9363 464.8406,46.5551 L464.8406,47.2113 Q464.8406,47.952 465.375,48.4488 Q465.9094,48.9363 466.8656,48.9363 Q467.4281,48.9363 467.8219,48.7863 Q468.0563,48.6926 468.3094,48.4301 Q468.4688,48.2707 468.5531,48.2238 Q468.6469,48.177 468.7687,48.177 Q468.9656,48.177 469.1156,48.3363 Q469.275,48.4863 469.275,48.6926 Q469.275,48.8988 469.0687,49.1426 Q468.7687,49.4895 468.2906,49.6863 Q467.6437,49.9582 466.8656,49.9582 Q465.9562,49.9582 465.2344,49.5832 Q464.6437,49.2832 464.2313,48.6457 Q463.8187,47.9988 463.8187,47.2301 L463.8187,46.5363 Q463.8187,45.7395 464.1844,45.0551 Q464.5594,44.3613 465.2156,43.9957 Q465.8719,43.6207 466.6125,43.6207 Q467.0531,43.6207 467.4375,43.7238 Q467.8312,43.8176 468.1594,44.0332 Z " fill="#000000"/><text fill="#000000" font-family="sans-serif" font-size="8.4" lengthAdjust="spacing" textLength="46.2123" x="474.9" y="49.9863">TaskService</text><line style="stroke:#181818;stroke-width:0.3;" x1="458.1" x2="522.3123" y1="56.1082" y2="56.1082"/><line style="stroke:#181818;stroke-width:0.3;" x1="458.1" x2="522.3123" y1="60.9082" y2="60.9082"/></g><!--class RecurringTaskService--><g id="elem_RecurringTaskService"><rect codeLine="300" fill="#F1F1F1" height="28.8" id="RecurringTaskService" rx="1.5" ry="1.5" style="stroke:#181818;stroke-width:0.3;" width="101.826" x="14.4" y="112.8082"/><ellipse cx="23.4" cy="122.4082" fill="#ADD1B2" rx="6.6" ry="6.6" style="stroke:#181818;stroke-width:0.6;"/><path d="M25.0594,119.9332 Q25.1531,119.802 25.2656,119.7363 Q25.3781,119.6707 25.5094,119.6707 Q25.7344,119.6707 25.875,119.8301 Q26.0156,119.9801 26.0156,120.3457 L26.0156,121.2176 Q26.0156,121.5832 25.875,121.7426 Q25.7344,121.902 25.5094,121.902 Q25.3031,121.902 25.1813,121.7801 Q25.0594,121.6676 24.9938,121.3582 Q24.9656,121.1426 24.8531,121.0301 Q24.6563,120.8051 24.2906,120.6738 Q23.925,120.5426 23.55,120.5426 Q23.0906,120.5426 22.7063,120.7395 Q22.3313,120.9363 22.0313,121.3863 Q21.7406,121.8363 21.7406,122.4551 L21.7406,123.1113 Q21.7406,123.852 22.275,124.3488 Q22.8094,124.8363 23.7656,124.8363 Q24.3281,124.8363 24.7219,124.6863 Q24.9563,124.5926 25.2094,124.3301 Q25.3688,124.1707 25.4531,124.1238 Q25.5469,124.077 25.6688,124.077 Q25.8656,124.077 26.0156,124.2363 Q26.175,124.3863 26.175,124.5926 Q26.175,124.7988 25.9688,125.0426 Q25.6688,125.3895 25.1906,125.5863 Q24.5438,125.8582 23.7656,125.8582 Q22.8563,125.8582 22.1344,125.4832 Q21.5438,125.1832 21.1312,124.5457 Q20.7188,123.8988 20.7188,123.1301 L20.7188,122.4363 Q20.7188,121.6395 21.0844,120.9551 Q21.4594,120.2613 22.1156,119.8957 Q22.7719,119.5207 23.5125,119.5207 Q23.9531,119.5207 24.3375,119.6238 Q24.7313,119.7176 25.0594,119.9332 Z " fill="#000000"/><text fill="#000000" font-family="sans-serif" font-size="8.4" lengthAdjust="spacing" textLength="82.626" x="31.8" y="125.8863">RecurringTaskService</text><line style="stroke:#181818;stroke-width:0.3;" x1="15" x2="115.626" y1="132.0082" y2="132.0082"/><line style="stroke:#181818;stroke-width:0.3;" x1="15" x2="115.626" y1="136.8082" y2="136.8082"/></g><!--class NonRecurringTaskService--><g id="elem_NonRecurringTaskService"><rect codeLine="303" fill="#F1F1F1" height="28.8" id="NonRecurringTaskService" rx="1.5" ry="1.5" style="stroke:#181818;stroke-width:0.3;" width="117.2355" x="137.7" y="112.8082"/><ellipse cx="146.7" cy="122.4082" fill="#ADD1B2" rx="6.6" ry="6.6" style="stroke:#181818;stroke-width:0.6;"/><path d="M148.3594,119.9332 Q148.4531,119.802 148.5656,119.7363 Q148.6781,119.6707 148.8094,119.6707 Q149.0344,119.6707 149.175,119.8301 Q149.3156,119.9801 149.3156,120.3457 L149.3156,121.2176 Q149.3156,121.5832 149.175,121.7426 Q149.0344,121.902 148.8094,121.902 Q148.6031,121.902 148.4813,121.7801 Q148.3594,121.6676 148.2938,121.3582 Q148.2656,121.1426 148.1531,121.0301 Q147.9562,120.8051 147.5906,120.6738 Q147.225,120.5426 146.85,120.5426 Q146.3906,120.5426 146.0063,120.7395 Q145.6313,120.9363 145.3312,121.3863 Q145.0406,121.8363 145.0406,122.4551 L145.0406,123.1113 Q145.0406,123.852 145.575,124.3488 Q146.1094,124.8363 147.0656,124.8363 Q147.6281,124.8363 148.0219,124.6863 Q148.2563,124.5926 148.5094,124.3301 Q148.6688,124.1707 148.7531,124.1238 Q148.8469,124.077 148.9688,124.077 Q149.1656,124.077 149.3156,124.2363 Q149.475,124.3863 149.475,124.5926 Q149.475,124.7988 149.2687,125.0426 Q148.9688,125.3895 148.4906,125.5863 Q147.8438,125.8582 147.0656,125.8582 Q146.1563,125.8582 145.4344,125.4832 Q144.8438,125.1832 144.4313,124.5457 Q144.0187,123.8988 144.0187,123.1301 L144.0187,122.4363 Q144.0187,121.6395 144.3844,120.9551 Q144.7594,120.2613 145.4156,119.8957 Q146.0719,119.5207 146.8125,119.5207 Q147.2531,119.5207 147.6375,119.6238 Q148.0313,119.7176 148.3594,119.9332 Z " fill="#000000"/><text fill="#000000" font-family="sans-serif" font-size="8.4" lengthAdjust="spacing" textLength="98.0355" x="155.1" y="125.8863">NonRecurringTaskService</text><line style="stroke:#181818;stroke-width:0.3;" x1="138.3" x2="254.3355" y1="132.0082" y2="132.0082"/><line style="stroke:#181818;stroke-width:0.3;" x1="138.3" x2="254.3355" y1="136.8082" y2="136.8082"/></g><!--class AreaOfResponsibilityService--><g id="elem_AreaOfResponsibilityService"><rect codeLine="307" fill="#F1F1F1" height="28.8" id="AreaOfResponsibilityService" rx="1.5" ry="1.5" style="stroke:#181818;stroke-width:0.3;" width="125.6438" x="275.7" y="112.8082"/><ellipse cx="284.7" cy="122.4082" fill="#ADD1B2" rx="6.6" ry="6.6" style="stroke:#181818;stroke-width:0.6;"/><path d="M286.3594,119.9332 Q286.4531,119.802 286.5656,119.7363 Q286.6781,119.6707 286.8094,119.6707 Q287.0344,119.6707 287.175,119.8301 Q287.3156,119.9801 287.3156,120.3457 L287.3156,121.2176 Q287.3156,121.5832 287.175,121.7426 Q287.0344,121.902 286.8094,121.902 Q286.6031,121.902 286.4813,121.7801 Q286.3594,121.6676 286.2938,121.3582 Q286.2656,121.1426 286.1531,121.0301 Q285.9563,120.8051 285.5906,120.6738 Q285.225,120.5426 284.85,120.5426 Q284.3906,120.5426 284.0062,120.7395 Q283.6312,120.9363 283.3313,121.3863 Q283.0406,121.8363 283.0406,122.4551 L283.0406,123.1113 Q283.0406,123.852 283.575,124.3488 Q284.1094,124.8363 285.0656,124.8363 Q285.6281,124.8363 286.0219,124.6863 Q286.2562,124.5926 286.5094,124.3301 Q286.6688,124.1707 286.7531,124.1238 Q286.8469,124.077 286.9688,124.077 Q287.1656,124.077 287.3156,124.2363 Q287.475,124.3863 287.475,124.5926 Q287.475,124.7988 287.2688,125.0426 Q286.9688,125.3895 286.4906,125.5863 Q285.8438,125.8582 285.0656,125.8582 Q284.1563,125.8582 283.4344,125.4832 Q282.8438,125.1832 282.4313,124.5457 Q282.0188,123.8988 282.0188,123.1301 L282.0188,122.4363 Q282.0188,121.6395 282.3844,120.9551 Q282.7594,120.2613 283.4156,119.8957 Q284.0719,119.5207 284.8125,119.5207 Q285.2531,119.5207 285.6375,119.6238 Q286.0313,119.7176 286.3594,119.9332 Z " fill="#000000"/><text fill="#000000" font-family="sans-serif" font-size="8.4" lengthAdjust="spacing" textLength="106.4438" x="293.1" y="125.8863">AreaOfResponsibilityService</text><line style="stroke:#181818;stroke-width:0.3;" x1="276.3" x2="400.7438" y1="132.0082" y2="132.0082"/><line style="stroke:#181818;stroke-width:0.3;" x1="276.3" x2="400.7438" y1="136.8082" y2="136.8082"/></g><!--class ProjectService--><g id="elem_ProjectService"><rect codeLine="308" fill="#F1F1F1" height="28.8" id="ProjectService" rx="1.5" ry="1.5" style="stroke:#181818;stroke-width:0.3;" width="73.3529" x="422.4" y="112.8082"/><ellipse cx="431.4" cy="122.4082" fill="#ADD1B2" rx="6.6" ry="6.6" style="stroke:#181818;stroke-width:0.6;"/><path d="M433.0594,119.9332 Q433.1531,119.802 433.2656,119.7363 Q433.3781,119.6707 433.5094,119.6707 Q433.7344,119.6707 433.875,119.8301 Q434.0156,119.9801 434.0156,120.3457 L434.0156,121.2176 Q434.0156,121.5832 433.875,121.7426 Q433.7344,121.902 433.5094,121.902 Q433.3031,121.902 433.1813,121.7801 Q433.0594,121.6676 432.9938,121.3582 Q432.9656,121.1426 432.8531,121.0301 Q432.6563,120.8051 432.2906,120.6738 Q431.925,120.5426 431.55,120.5426 Q431.0906,120.5426 430.7063,120.7395 Q430.3313,120.9363 430.0313,121.3863 Q429.7406,121.8363 429.7406,122.4551 L429.7406,123.1113 Q429.7406,123.852 430.275,124.3488 Q430.8094,124.8363 431.7656,124.8363 Q432.3281,124.8363 432.7219,124.6863 Q432.9563,124.5926 433.2094,124.3301 Q433.3688,124.1707 433.4531,124.1238 Q433.5469,124.077 433.6688,124.077 Q433.8656,124.077 434.0156,124.2363 Q434.175,124.3863 434.175,124.5926 Q434.175,124.7988 433.9688,125.0426 Q433.6688,125.3895 433.1906,125.5863 Q432.5438,125.8582 431.7656,125.8582 Q430.8563,125.8582 430.1344,125.4832 Q429.5438,125.1832 429.1312,124.5457 Q428.7188,123.8988 428.7188,123.1301 L428.7188,122.4363 Q428.7188,121.6395 429.0844,120.9551 Q429.4594,120.2613 430.1156,119.8957 Q430.7719,119.5207 431.5125,119.5207 Q431.9531,119.5207 432.3375,119.6238 Q432.7313,119.7176 433.0594,119.9332 Z " fill="#000000"/><text fill="#000000" font-family="sans-serif" font-size="8.4" lengthAdjust="spacing" textLength="54.1529" x="439.8" y="125.8863">ProjectService</text><line style="stroke:#181818;stroke-width:0.3;" x1="423" x2="495.1529" y1="132.0082" y2="132.0082"/><line style="stroke:#181818;stroke-width:0.3;" x1="423" x2="495.1529" y1="136.8082" y2="136.8082"/></g><!--class CustomListService--><g id="elem_CustomListService"><rect codeLine="309" fill="#F1F1F1" height="28.8" id="CustomListService" rx="1.5" ry="1.5" style="stroke:#181818;stroke-width:0.3;" width="89.2219" x="21.3" y="177.6082"/><ellipse cx="30.3" cy="187.2082" fill="#ADD1B2" rx="6.6" ry="6.6" style="stroke:#181818;stroke-width:0.6;"/><path d="M31.9594,184.7332 Q32.0531,184.602 32.1656,184.5363 Q32.2781,184.4707 32.4094,184.4707 Q32.6344,184.4707 32.775,184.6301 Q32.9156,184.7801 32.9156,185.1457 L32.9156,186.0176 Q32.9156,186.3832 32.775,186.5426 Q32.6344,186.702 32.4094,186.702 Q32.2031,186.702 32.0813,186.5801 Q31.9594,186.4676 31.8937,186.1582 Q31.8656,185.9426 31.7531,185.8301 Q31.5563,185.6051 31.1906,185.4738 Q30.825,185.3426 30.45,185.3426 Q29.9906,185.3426 29.6063,185.5395 Q29.2313,185.7363 28.9313,186.1863 Q28.6406,186.6363 28.6406,187.2551 L28.6406,187.9113 Q28.6406,188.652 29.175,189.1488 Q29.7094,189.6363 30.6656,189.6363 Q31.2281,189.6363 31.6219,189.4863 Q31.8563,189.3926 32.1094,189.1301 Q32.2688,188.9707 32.3531,188.9238 Q32.4469,188.877 32.5688,188.877 Q32.7656,188.877 32.9156,189.0363 Q33.075,189.1863 33.075,189.3926 Q33.075,189.5988 32.8688,189.8426 Q32.5688,190.1895 32.0906,190.3863 Q31.4437,190.6582 30.6656,190.6582 Q29.7562,190.6582 29.0344,190.2832 Q28.4437,189.9832 28.0313,189.3457 Q27.6188,188.6988 27.6188,187.9301 L27.6188,187.2363 Q27.6188,186.4395 27.9844,185.7551 Q28.3594,185.0613 29.0156,184.6957 Q29.6719,184.3207 30.4125,184.3207 Q30.8531,184.3207 31.2375,184.4238 Q31.6312,184.5176 31.9594,184.7332 Z " fill="#000000"/><text fill="#000000" font-family="sans-serif" font-size="8.4" lengthAdjust="spacing" textLength="70.0219" x="38.7" y="190.6863">CustomListService</text><line style="stroke:#181818;stroke-width:0.3;" x1="21.9" x2="109.9219" y1="196.8082" y2="196.8082"/><line style="stroke:#181818;stroke-width:0.3;" x1="21.9" x2="109.9219" y1="201.6082" y2="201.6082"/></g><!--class CustomListItemService--><g id="elem_CustomListItemService"><rect codeLine="310" fill="#F1F1F1" height="28.8" id="CustomListItemService" rx="1.5" ry="1.5" style="stroke:#181818;stroke-width:0.3;" width="105.5584" x="132" y="177.6082"/><ellipse cx="141" cy="187.2082" fill="#ADD1B2" rx="6.6" ry="6.6" style="stroke:#181818;stroke-width:0.6;"/><path d="M142.6594,184.7332 Q142.7531,184.602 142.8656,184.5363 Q142.9781,184.4707 143.1094,184.4707 Q143.3344,184.4707 143.475,184.6301 Q143.6156,184.7801 143.6156,185.1457 L143.6156,186.0176 Q143.6156,186.3832 143.475,186.5426 Q143.3344,186.702 143.1094,186.702 Q142.9031,186.702 142.7813,186.5801 Q142.6594,186.4676 142.5938,186.1582 Q142.5656,185.9426 142.4531,185.8301 Q142.2563,185.6051 141.8906,185.4738 Q141.525,185.3426 141.15,185.3426 Q140.6906,185.3426 140.3063,185.5395 Q139.9313,185.7363 139.6313,186.1863 Q139.3406,186.6363 139.3406,187.2551 L139.3406,187.9113 Q139.3406,188.652 139.875,189.1488 Q140.4094,189.6363 141.3656,189.6363 Q141.9281,189.6363 142.3219,189.4863 Q142.5563,189.3926 142.8094,189.1301 Q142.9688,188.9707 143.0531,188.9238 Q143.1469,188.877 143.2687,188.877 Q143.4656,188.877 143.6156,189.0363 Q143.775,189.1863 143.775,189.3926 Q143.775,189.5988 143.5688,189.8426 Q143.2687,190.1895 142.7906,190.3863 Q142.1437,190.6582 141.3656,190.6582 Q140.4562,190.6582 139.7344,190.2832 Q139.1437,189.9832 138.7313,189.3457 Q138.3188,188.6988 138.3188,187.9301 L138.3188,187.2363 Q138.3188,186.4395 138.6844,185.7551 Q139.0594,185.0613 139.7156,184.6957 Q140.3719,184.3207 141.1125,184.3207 Q141.5531,184.3207 141.9375,184.4238 Q142.3312,184.5176 142.6594,184.7332 Z " fill="#000000"/><text fill="#000000" font-family="sans-serif" font-size="8.4" lengthAdjust="spacing" textLength="86.3584" x="149.4" y="190.6863">CustomListItemService</text><line style="stroke:#181818;stroke-width:0.3;" x1="132.6" x2="236.9584" y1="196.8082" y2="196.8082"/><line style="stroke:#181818;stroke-width:0.3;" x1="132.6" x2="236.9584" y1="201.6082" y2="201.6082"/></g><!--class ShoppingListService--><g id="elem_ShoppingListService"><rect codeLine="311" fill="#F1F1F1" height="28.8" id="ShoppingListService" rx="1.5" ry="1.5" style="stroke:#181818;stroke-width:0.3;" width="95.7803" x="258.6" y="177.6082"/><ellipse cx="267.6" cy="187.2082" fill="#ADD1B2" rx="6.6" ry="6.6" style="stroke:#181818;stroke-width:0.6;"/><path d="M269.2594,184.7332 Q269.3531,184.602 269.4656,184.5363 Q269.5781,184.4707 269.7094,184.4707 Q269.9344,184.4707 270.075,184.6301 Q270.2156,184.7801 270.2156,185.1457 L270.2156,186.0176 Q270.2156,186.3832 270.075,186.5426 Q269.9344,186.702 269.7094,186.702 Q269.5031,186.702 269.3812,186.5801 Q269.2594,186.4676 269.1937,186.1582 Q269.1656,185.9426 269.0531,185.8301 Q268.8563,185.6051 268.4906,185.4738 Q268.125,185.3426 267.75,185.3426 Q267.2906,185.3426 266.9063,185.5395 Q266.5313,185.7363 266.2313,186.1863 Q265.9406,186.6363 265.9406,187.2551 L265.9406,187.9113 Q265.9406,188.652 266.475,189.1488 Q267.0094,189.6363 267.9656,189.6363 Q268.5281,189.6363 268.9219,189.4863 Q269.1563,189.3926 269.4094,189.1301 Q269.5687,188.9707 269.6531,188.9238 Q269.7469,188.877 269.8688,188.877 Q270.0656,188.877 270.2156,189.0363 Q270.375,189.1863 270.375,189.3926 Q270.375,189.5988 270.1688,189.8426 Q269.8688,190.1895 269.3906,190.3863 Q268.7438,190.6582 267.9656,190.6582 Q267.0563,190.6582 266.3344,190.2832 Q265.7438,189.9832 265.3313,189.3457 Q264.9188,188.6988 264.9188,187.9301 L264.9188,187.2363 Q264.9188,186.4395 265.2844,185.7551 Q265.6594,185.0613 266.3156,184.6957 Q266.9719,184.3207 267.7125,184.3207 Q268.1531,184.3207 268.5375,184.4238 Q268.9313,184.5176 269.2594,184.7332 Z " fill="#000000"/><text fill="#000000" font-family="sans-serif" font-size="8.4" lengthAdjust="spacing" textLength="76.5803" x="276" y="190.6863">ShoppingListService</text><line style="stroke:#181818;stroke-width:0.3;" x1="259.2" x2="353.7803" y1="196.8082" y2="196.8082"/><line style="stroke:#181818;stroke-width:0.3;" x1="259.2" x2="353.7803" y1="201.6082" y2="201.6082"/></g><!--class ShoppingListItemCategoryService--><g id="elem_ShoppingListItemCategoryService"><rect codeLine="312" fill="#F1F1F1" height="28.8" id="ShoppingListItemCategoryService" rx="1.5" ry="1.5" style="stroke:#181818;stroke-width:0.3;" width="146.2008" x="375.6" y="177.6082"/><ellipse cx="384.6" cy="187.2082" fill="#ADD1B2" rx="6.6" ry="6.6" style="stroke:#181818;stroke-width:0.6;"/><path d="M386.2594,184.7332 Q386.3531,184.602 386.4656,184.5363 Q386.5781,184.4707 386.7094,184.4707 Q386.9344,184.4707 387.075,184.6301 Q387.2156,184.7801 387.2156,185.1457 L387.2156,186.0176 Q387.2156,186.3832 387.075,186.5426 Q386.9344,186.702 386.7094,186.702 Q386.5031,186.702 386.3812,186.5801 Q386.2594,186.4676 386.1937,186.1582 Q386.1656,185.9426 386.0531,185.8301 Q385.8563,185.6051 385.4906,185.4738 Q385.125,185.3426 384.75,185.3426 Q384.2906,185.3426 383.9063,185.5395 Q383.5313,185.7363 383.2313,186.1863 Q382.9406,186.6363 382.9406,187.2551 L382.9406,187.9113 Q382.9406,188.652 383.475,189.1488 Q384.0094,189.6363 384.9656,189.6363 Q385.5281,189.6363 385.9219,189.4863 Q386.1563,189.3926 386.4094,189.1301 Q386.5687,188.9707 386.6531,188.9238 Q386.7469,188.877 386.8688,188.877 Q387.0656,188.877 387.2156,189.0363 Q387.375,189.1863 387.375,189.3926 Q387.375,189.5988 387.1688,189.8426 Q386.8688,190.1895 386.3906,190.3863 Q385.7438,190.6582 384.9656,190.6582 Q384.0563,190.6582 383.3344,190.2832 Q382.7438,189.9832 382.3313,189.3457 Q381.9188,188.6988 381.9188,187.9301 L381.9188,187.2363 Q381.9188,186.4395 382.2844,185.7551 Q382.6594,185.0613 383.3156,184.6957 Q383.9719,184.3207 384.7125,184.3207 Q385.1531,184.3207 385.5375,184.4238 Q385.9313,184.5176 386.2594,184.7332 Z " fill="#000000"/><text fill="#000000" font-family="sans-serif" font-size="8.4" lengthAdjust="spacing" textLength="127.0008" x="393" y="190.6863">ShoppingListItemCategoryService</text><line style="stroke:#181818;stroke-width:0.3;" x1="376.2" x2="521.2008" y1="196.8082" y2="196.8082"/><line style="stroke:#181818;stroke-width:0.3;" x1="376.2" x2="521.2008" y1="201.6082" y2="201.6082"/></g><!--class ShoppingListItemService--><g id="elem_ShoppingListItemService"><rect codeLine="313" fill="#F1F1F1" height="28.8" id="ShoppingListItemService" rx="1.5" ry="1.5" style="stroke:#181818;stroke-width:0.3;" width="112.1168" x="13.5" y="242.4082"/><ellipse cx="22.5" cy="252.0082" fill="#ADD1B2" rx="6.6" ry="6.6" style="stroke:#181818;stroke-width:0.6;"/><path d="M24.1594,249.5332 Q24.2531,249.402 24.3656,249.3363 Q24.4781,249.2707 24.6094,249.2707 Q24.8344,249.2707 24.975,249.4301 Q25.1156,249.5801 25.1156,249.9457 L25.1156,250.8176 Q25.1156,251.1832 24.975,251.3426 Q24.8344,251.502 24.6094,251.502 Q24.4031,251.502 24.2813,251.3801 Q24.1594,251.2676 24.0938,250.9582 Q24.0656,250.7426 23.9531,250.6301 Q23.7562,250.4051 23.3906,250.2738 Q23.025,250.1426 22.65,250.1426 Q22.1906,250.1426 21.8063,250.3395 Q21.4313,250.5363 21.1312,250.9863 Q20.8406,251.4363 20.8406,252.0551 L20.8406,252.7113 Q20.8406,253.452 21.375,253.9488 Q21.9094,254.4363 22.8656,254.4363 Q23.4281,254.4363 23.8219,254.2863 Q24.0563,254.1926 24.3094,253.9301 Q24.4688,253.7707 24.5531,253.7238 Q24.6469,253.677 24.7688,253.677 Q24.9656,253.677 25.1156,253.8363 Q25.275,253.9863 25.275,254.1926 Q25.275,254.3988 25.0687,254.6426 Q24.7688,254.9895 24.2906,255.1863 Q23.6438,255.4582 22.8656,255.4582 Q21.9563,255.4582 21.2344,255.0832 Q20.6438,254.7832 20.2313,254.1457 Q19.8187,253.4988 19.8187,252.7301 L19.8187,252.0363 Q19.8187,251.2395 20.1844,250.5551 Q20.5594,249.8613 21.2156,249.4957 Q21.8719,249.1207 22.6125,249.1207 Q23.0531,249.1207 23.4375,249.2238 Q23.8313,249.3176 24.1594,249.5332 Z " fill="#000000"/><text fill="#000000" font-family="sans-serif" font-size="8.4" lengthAdjust="spacing" textLength="92.9168" x="30.9" y="255.4863">ShoppingListItemService</text><line style="stroke:#181818;stroke-width:0.3;" x1="14.1" x2="125.0168" y1="261.6082" y2="261.6082"/><line style="stroke:#181818;stroke-width:0.3;" x1="14.1" x2="125.0168" y1="266.4082" y2="266.4082"/></g><!--SRC=[rLfBSzis4BxhLs3OWnqtyjJDZOVEP7neCjCq7hljbGEHa8YQ0bW0igkc_kzPlW4GV82rx5GpYHLZlzt5xhVO1PcCR1LI70cwInLAg22nefojSXpVunr1mIUUa0nTPrXA8WFqPONWSxQU-5HIw0C_I9BoBF50bQOwP6sn-7oFQ18YoXJw8WXEFhFi-AGjChmd8P9AQB-BGL2H9C8gH0byKtHFBfilRZM7F9aFULfvnUDtIOHtA0hG_2YGFQPP6GRN-Xf5KOfb2llBGVSZ5uaTCYeZ31nuW5XkECzUC9XLZFP4fJoHQ28s-cxQlPpd6QQi_USRUs-LEvqu8u-H2IaHWFkLCw817uYWs-EGdGRKngkcXKNbMvwH1NGUu9obFEhH96sNuAU8HeqL4c57Jqj1Q1MohL_0na9pdpQXOf833tgKWZKuNeYvv5bKxs53dxUtHEQSIRgX6LL7xo9pAPcVArUat99WY-uOL8JYlNWhghBU2POG6GkQ5uVoDtwutGZ-9tGFxz3Nk5D4kudGvXZMnwWp9_3BY6yZOMG_72RMidGbO3gZZ5YHjwg1izSvUC4_CEr532DzFtESpKzXNe52WpI-ONMvSOepjc1EvCrIvv4wik_g4DMsiQG6hmzIyVqlLFgNOGVztrNYix2fBS4u9V5z1d5mTQjN6eqCFdQP-gZ8_XJPCaVf0UFHKZ-gs5fKhN6WABGsg2SQ2C8CR3Ge-zS1CrMoPvjnh1ivCAhil3EkY8CBrd7iMOs_ONdlNOS5w2IJnxBQcbcu8sDDBYWNfQcR-fksA1LM1ncYk_Ad6NouYnw4e6pNAxTlRLBwZmsqYifpjwqgfC-jjQ1dLFprWMIvpyNKsGyLA0gxEZ4itPRf9omcryVu-RlwRSEkNi69rd0K5vP3snMtBFX3n0FEIizqTyZVggWwejpac6WmXjDmBHtsUwGD3ioUhNdFW-qkvNaEBYmQD7JmwuqQ8y5wpll0Ymu6UcIBRdWDe1qNnnSU4MmtJfBaUclXuAQ7CpFeRBJSysgcwTM5FjNOoay-gpoj67dCyOwiv3rbC3lXOaDdnM9n5gXZJX0NAkKWQJ_mlIKPBZgfzoFV5kY1Agiqk0hGnNgDWXykBoy2-y5MY88DoJZRIQHuKA8iYHgtNb-KgZh-B8UMbqc0frWY75IiSJueQXNCCTxS90T13ensELi6AzdivMRPNhmGni6-6EdlwU2nDrkBcHUJYFhpZOeBGKlQg9VB4jty5iGfU-3P0qdWv9WBQrZNGWkBFHQOJWxVoa1HN31LAedurgP5DCIGqa1VLLq9ivN0jwi9xwX4SKeX9uLt3kRLeQbdPDC7XsGzzVRbzA7LX9HQ2W0iDg4sfwmMKChRWsd3Yle4_CXI0hvYM3VcjJN2BEaKbsObsWg-xmRWtdotNl_xK-iWRJSqAUGeI9CnuttFnPfnX9K5Xq8j7vxejg0Bjwhlz1yeZCsntcZRGDRT1fjub1CO5y6aO7s79UEIEeqwpWmXj9DWqW_ZPD3gVnYXdGTp31Xqc0DmzZeZKiFDgQdz8Hrs7XqjPucAVdDTecMWa_cg6euERrHf-RRRMkyiy8CFx64A2gDWCpLsC-4TN6nfJEJI_mVGuZ_zSOCuZCwBNeBNMchRxjUWfapzrlqEVNVr8_nvrxkOHUsDuxozqBn5TM5KrySthhUVjT9tlKTWaVbMzBnxwl4MELwJwc-QZGszFwXqPBy57qQM3TwCoDaKSugUeHiE58BKXHClJ5luK__5Z7Ejgus9vQ8BE4LqbayAwBrabd0jj7hw2W00]--></g></svg>