<svg xmlns="http://www.w3.org/2000/svg" xmlns:xlink="http://www.w3.org/1999/xlink" contentStyleType="text/css" height="864px" preserveAspectRatio="none" style="width:893px;height:864px;background:#FFFFFF;" version="1.1" viewBox="0 0 893 864" width="893.4px" zoomAndPan="magnify"><defs/><g><!--cluster Model Classes--><g id="cluster_Model Classes"><path d="M5.1,3.6082 L64.057,3.6082 A2.25,2.25 0 0 1 65.557,5.1082 L69.757,18.3809 L887.7,18.3809 A1.5,1.5 0 0 1 889.2,19.8809 L889.2,858.3082 A1.5,1.5 0 0 1 887.7,859.8082 L5.1,859.8082 A1.5,1.5 0 0 1 3.6,858.3082 L3.6,5.1082 A1.5,1.5 0 0 1 5.1,3.6082 " fill="none" style="stroke:#000000;stroke-width:0.8999999999999999;"/><line style="stroke:#000000;stroke-width:0.8999999999999999;" x1="3.6" x2="69.757" y1="18.3809" y2="18.3809"/><text fill="#000000" font-family="sans-serif" font-size="8.4" font-weight="bold" lengthAdjust="spacing" textLength="58.357" x="6" y="13.8727">Model Classes</text></g><!--class Household--><g id="elem_Household"><rect codeLine="6" fill="#F1F1F1" height="73.4906" id="Household" rx="1.5" ry="1.5" style="stroke:#181818;stroke-width:0.3;" width="171.1066" x="13.5" y="54.0082"/><ellipse cx="76.4221" cy="63.6082" fill="#ADD1B2" rx="6.6" ry="6.6" style="stroke:#181818;stroke-width:0.6;"/><path d="M78.0814,61.1332 Q78.1752,61.002 78.2877,60.9363 Q78.4002,60.8707 78.5314,60.8707 Q78.7564,60.8707 78.8971,61.0301 Q79.0377,61.1801 79.0377,61.5457 L79.0377,62.4176 Q79.0377,62.7832 78.8971,62.9426 Q78.7564,63.102 78.5314,63.102 Q78.3252,63.102 78.2033,62.9801 Q78.0814,62.8676 78.0158,62.5582 Q77.9877,62.3426 77.8752,62.2301 Q77.6783,62.0051 77.3127,61.8738 Q76.9471,61.7426 76.5721,61.7426 Q76.1127,61.7426 75.7283,61.9395 Q75.3533,62.1363 75.0533,62.5863 Q74.7627,63.0363 74.7627,63.6551 L74.7627,64.3113 Q74.7627,65.052 75.2971,65.5488 Q75.8314,66.0363 76.7877,66.0363 Q77.3502,66.0363 77.7439,65.8863 Q77.9783,65.7926 78.2314,65.5301 Q78.3908,65.3707 78.4752,65.3238 Q78.5689,65.277 78.6908,65.277 Q78.8877,65.277 79.0377,65.4363 Q79.1971,65.5863 79.1971,65.7926 Q79.1971,65.9988 78.9908,66.2426 Q78.6908,66.5895 78.2127,66.7863 Q77.5658,67.0582 76.7877,67.0582 Q75.8783,67.0582 75.1564,66.6832 Q74.5658,66.3832 74.1533,65.7457 Q73.7408,65.0988 73.7408,64.3301 L73.7408,63.6363 Q73.7408,62.8395 74.1064,62.1551 Q74.4814,61.4613 75.1377,61.0957 Q75.7939,60.7207 76.5346,60.7207 Q76.9752,60.7207 77.3596,60.8238 Q77.7533,60.9176 78.0814,61.1332 Z " fill="#000000"/><text fill="#000000" font-family="sans-serif" font-size="8.4" lengthAdjust="spacing" textLength="40.1625" x="88.7221" y="67.0863">Household</text><line style="stroke:#181818;stroke-width:0.3;" x1="14.1" x2="184.0066" y1="73.2082" y2="73.2082"/><ellipse cx="20.1" cy="82.0945" fill="none" rx="1.8" ry="1.8" style="stroke:#038048;stroke-width:0.6;"/><text fill="#000000" font-family="sans-serif" font-size="8.4" lengthAdjust="spacing" textLength="62.1059" x="25.5" y="84.6727">id: int {readOnly}</text><ellipse cx="20.1" cy="93.2672" fill="none" rx="1.8" ry="1.8" style="stroke:#038048;stroke-width:0.6;"/><text fill="#000000" font-family="sans-serif" font-size="8.4" lengthAdjust="spacing" textLength="35.0109" x="25.5" y="95.8453">name: str</text><ellipse cx="20.1" cy="104.4398" fill="none" rx="1.8" ry="1.8" style="stroke:#038048;stroke-width:0.6;"/><text fill="#000000" font-family="sans-serif" font-size="8.4" lengthAdjust="spacing" textLength="153.1605" x="25.5" y="107.018">created_at: datetime.datetime {readOnly}</text><ellipse cx="20.1" cy="115.6125" fill="none" rx="1.8" ry="1.8" style="stroke:#038048;stroke-width:0.6;"/><text fill="#000000" font-family="sans-serif" font-size="8.4" lengthAdjust="spacing" textLength="155.5066" x="25.5" y="118.1906">updated_at: datetime.datetime {readOnly}</text><line style="stroke:#181818;stroke-width:0.3;" x1="14.1" x2="184.0066" y1="122.6988" y2="122.6988"/></g><!--class User--><g id="elem_User"><rect codeLine="16" fill="#F1F1F1" height="129.3539" id="User" rx="1.5" ry="1.5" style="stroke:#181818;stroke-width:0.3;" width="204.7066" x="205.5" y="25.8082"/><ellipse cx="296.4357" cy="35.4082" fill="#ADD1B2" rx="6.6" ry="6.6" style="stroke:#181818;stroke-width:0.6;"/><path d="M298.0951,32.9332 Q298.1889,32.802 298.3014,32.7363 Q298.4139,32.6707 298.5451,32.6707 Q298.7701,32.6707 298.9107,32.8301 Q299.0514,32.9801 299.0514,33.3457 L299.0514,34.2176 Q299.0514,34.5832 298.9107,34.7426 Q298.7701,34.902 298.5451,34.902 Q298.3389,34.902 298.217,34.7801 Q298.0951,34.6676 298.0295,34.3582 Q298.0014,34.1426 297.8889,34.0301 Q297.692,33.8051 297.3264,33.6738 Q296.9607,33.5426 296.5857,33.5426 Q296.1264,33.5426 295.742,33.7395 Q295.367,33.9363 295.067,34.3863 Q294.7764,34.8363 294.7764,35.4551 L294.7764,36.1113 Q294.7764,36.852 295.3107,37.3488 Q295.8451,37.8363 296.8014,37.8363 Q297.3639,37.8363 297.7576,37.6863 Q297.992,37.5926 298.2451,37.3301 Q298.4045,37.1707 298.4889,37.1238 Q298.5826,37.077 298.7045,37.077 Q298.9014,37.077 299.0514,37.2363 Q299.2107,37.3863 299.2107,37.5926 Q299.2107,37.7988 299.0045,38.0426 Q298.7045,38.3895 298.2264,38.5863 Q297.5795,38.8582 296.8014,38.8582 Q295.892,38.8582 295.1701,38.4832 Q294.5795,38.1832 294.167,37.5457 Q293.7545,36.8988 293.7545,36.1301 L293.7545,35.4363 Q293.7545,34.6395 294.1201,33.9551 Q294.4951,33.2613 295.1514,32.8957 Q295.8076,32.5207 296.5482,32.5207 Q296.9889,32.5207 297.3732,32.6238 Q297.767,32.7176 298.0951,32.9332 Z " fill="#000000"/><text fill="#000000" font-family="sans-serif" font-size="8.4" lengthAdjust="spacing" textLength="17.7352" x="308.7357" y="38.8863">User</text><line style="stroke:#181818;stroke-width:0.3;" x1="206.1" x2="409.6066" y1="45.0082" y2="45.0082"/><ellipse cx="212.1" cy="53.8945" fill="none" rx="1.8" ry="1.8" style="stroke:#038048;stroke-width:0.6;"/><text fill="#000000" font-family="sans-serif" font-size="8.4" lengthAdjust="spacing" textLength="62.1059" x="217.5" y="56.4727">id: int {readOnly}</text><ellipse cx="212.1" cy="65.0672" fill="none" rx="1.8" ry="1.8" style="stroke:#038048;stroke-width:0.6;"/><text fill="#000000" font-family="sans-serif" font-size="8.4" lengthAdjust="spacing" textLength="76.1004" x="217.5" y="67.6453">email: str {readOnly}</text><rect fill="none" height="3.6" style="stroke:#C82930;stroke-width:0.6;" width="3.6" x="210.3" y="74.4398"/><text fill="#000000" font-family="sans-serif" font-size="8.4" lengthAdjust="spacing" textLength="91.5223" x="217.5" y="78.818">__hashed_password: str</text><ellipse cx="212.1" cy="87.4125" fill="none" rx="1.8" ry="1.8" style="stroke:#038048;stroke-width:0.6;"/><text fill="#000000" font-family="sans-serif" font-size="8.4" lengthAdjust="spacing" textLength="53.2301" x="217.5" y="89.9906">is_active: bool</text><ellipse cx="212.1" cy="98.5852" fill="none" rx="1.8" ry="1.8" style="stroke:#038048;stroke-width:0.6;"/><text fill="#000000" font-family="sans-serif" font-size="8.4" lengthAdjust="spacing" textLength="153.1605" x="217.5" y="101.1633">created_at: datetime.datetime {readOnly}</text><ellipse cx="212.1" cy="109.7578" fill="none" rx="1.8" ry="1.8" style="stroke:#038048;stroke-width:0.6;"/><text fill="#000000" font-family="sans-serif" font-size="8.4" lengthAdjust="spacing" textLength="155.5066" x="217.5" y="112.3359">updated_at: datetime.datetime {readOnly}</text><line style="stroke:#181818;stroke-width:0.3;" x1="206.1" x2="409.6066" y1="116.8441" y2="116.8441"/><rect fill="#F24D5C" height="3.6" style="stroke:#C82930;stroke-width:0.6;" width="3.6" x="210.3" y="123.9305"/><text fill="#000000" font-family="sans-serif" font-size="8.4" lengthAdjust="spacing" textLength="146.1428" x="217.5" y="128.3086">__hash_password(plain_password): str</text><ellipse cx="212.1" cy="136.9031" fill="#84BE84" rx="1.8" ry="1.8" style="stroke:#038048;stroke-width:0.6;"/><text fill="#000000" font-family="sans-serif" font-size="8.4" lengthAdjust="spacing" textLength="189.1066" x="217.5" y="139.4813">update_password(new_plain_password: str): None</text><ellipse cx="212.1" cy="148.0758" fill="#84BE84" rx="1.8" ry="1.8" style="stroke:#038048;stroke-width:0.6;"/><text fill="#000000" font-family="sans-serif" font-size="8.4" lengthAdjust="spacing" textLength="159.2021" x="217.5" y="150.6539">verify_password(plain_password: str): bool</text></g><!--class HouseholdRole--><g id="elem_HouseholdRole"><rect codeLine="29" fill="#F1F1F1" height="51.1453" id="HouseholdRole" rx="1.5" ry="1.5" style="stroke:#181818;stroke-width:0.3;" width="92.6396" x="431.4" y="65.1082"/><ellipse cx="447.6006" cy="74.7082" fill="#ADD1B2" rx="6.6" ry="6.6" style="stroke:#181818;stroke-width:0.6;"/><path d="M449.26,72.2332 Q449.3537,72.102 449.4662,72.0363 Q449.5787,71.9707 449.71,71.9707 Q449.935,71.9707 450.0756,72.1301 Q450.2162,72.2801 450.2162,72.6457 L450.2162,73.5176 Q450.2162,73.8832 450.0756,74.0426 Q449.935,74.202 449.71,74.202 Q449.5037,74.202 449.3819,74.0801 Q449.26,73.9676 449.1944,73.6582 Q449.1662,73.4426 449.0537,73.3301 Q448.8569,73.1051 448.4912,72.9738 Q448.1256,72.8426 447.7506,72.8426 Q447.2912,72.8426 446.9069,73.0395 Q446.5319,73.2363 446.2319,73.6863 Q445.9412,74.1363 445.9412,74.7551 L445.9412,75.4113 Q445.9412,76.152 446.4756,76.6488 Q447.01,77.1363 447.9662,77.1363 Q448.5287,77.1363 448.9225,76.9863 Q449.1569,76.8926 449.41,76.6301 Q449.5694,76.4707 449.6537,76.4238 Q449.7475,76.377 449.8694,76.377 Q450.0662,76.377 450.2162,76.5363 Q450.3756,76.6863 450.3756,76.8926 Q450.3756,77.0988 450.1694,77.3426 Q449.8694,77.6895 449.3912,77.8863 Q448.7444,78.1582 447.9662,78.1582 Q447.0569,78.1582 446.335,77.7832 Q445.7444,77.4832 445.3319,76.8457 Q444.9194,76.1988 444.9194,75.4301 L444.9194,74.7363 Q444.9194,73.9395 445.285,73.2551 Q445.66,72.5613 446.3162,72.1957 Q446.9725,71.8207 447.7131,71.8207 Q448.1537,71.8207 448.5381,71.9238 Q448.9319,72.0176 449.26,72.2332 Z " fill="#000000"/><text fill="#000000" font-family="sans-serif" font-size="8.4" lengthAdjust="spacing" textLength="57.4383" x="457.6008" y="78.1863">HouseholdRole</text><line style="stroke:#181818;stroke-width:0.3;" x1="432" x2="523.4396" y1="84.3082" y2="84.3082"/><ellipse cx="438" cy="93.1945" fill="none" rx="1.8" ry="1.8" style="stroke:#038048;stroke-width:0.6;"/><text fill="#000000" font-family="sans-serif" font-size="8.4" lengthAdjust="spacing" textLength="62.1059" x="443.4" y="95.7727">id: int {readOnly}</text><ellipse cx="438" cy="104.3672" fill="none" rx="1.8" ry="1.8" style="stroke:#038048;stroke-width:0.6;"/><text fill="#000000" font-family="sans-serif" font-size="8.4" lengthAdjust="spacing" textLength="77.0396" x="443.4" y="106.9453">name: str {readOnly}</text><line style="stroke:#181818;stroke-width:0.3;" x1="432" x2="523.4396" y1="111.4535" y2="111.4535"/></g><!--class Household_User--><g id="elem_Household_User"><rect codeLine="34" fill="#F1F1F1" height="95.8359" id="Household_User" rx="1.5" ry="1.5" style="stroke:#181818;stroke-width:0.3;" width="142.1578" x="545.1" y="42.6082"/><ellipse cx="582.3442" cy="52.2082" fill="#ADD1B2" rx="6.6" ry="6.6" style="stroke:#181818;stroke-width:0.6;"/><path d="M584.0036,49.7332 Q584.0974,49.602 584.2099,49.5363 Q584.3224,49.4707 584.4536,49.4707 Q584.6786,49.4707 584.8192,49.6301 Q584.9599,49.7801 584.9599,50.1457 L584.9599,51.0176 Q584.9599,51.3832 584.8192,51.5426 Q584.6786,51.702 584.4536,51.702 Q584.2474,51.702 584.1255,51.5801 Q584.0036,51.4676 583.938,51.1582 Q583.9099,50.9426 583.7974,50.8301 Q583.6005,50.6051 583.2349,50.4738 Q582.8692,50.3426 582.4942,50.3426 Q582.0349,50.3426 581.6505,50.5395 Q581.2755,50.7363 580.9755,51.1863 Q580.6849,51.6363 580.6849,52.2551 L580.6849,52.9113 Q580.6849,53.652 581.2192,54.1488 Q581.7536,54.6363 582.7099,54.6363 Q583.2724,54.6363 583.6661,54.4863 Q583.9005,54.3926 584.1536,54.1301 Q584.313,53.9707 584.3974,53.9238 Q584.4911,53.877 584.613,53.877 Q584.8099,53.877 584.9599,54.0363 Q585.1192,54.1863 585.1192,54.3926 Q585.1192,54.5988 584.913,54.8426 Q584.613,55.1895 584.1349,55.3863 Q583.488,55.6582 582.7099,55.6582 Q581.8005,55.6582 581.0786,55.2832 Q580.488,54.9832 580.0755,54.3457 Q579.663,53.6988 579.663,52.9301 L579.663,52.2363 Q579.663,51.4395 580.0286,50.7551 Q580.4036,50.0613 581.0599,49.6957 Q581.7161,49.3207 582.4567,49.3207 Q582.8974,49.3207 583.2817,49.4238 Q583.6755,49.5176 584.0036,49.7332 Z " fill="#000000"/><text fill="#000000" font-family="sans-serif" font-size="8.4" lengthAdjust="spacing" textLength="62.5693" x="594.6442" y="55.6863">Household_User</text><line style="stroke:#181818;stroke-width:0.3;" x1="545.7" x2="686.6578" y1="61.8082" y2="61.8082"/><ellipse cx="551.7" cy="70.6945" fill="none" rx="1.8" ry="1.8" style="stroke:#038048;stroke-width:0.6;"/><text fill="#000000" font-family="sans-serif" font-size="8.4" lengthAdjust="spacing" textLength="126.5578" x="557.1" y="73.2727">household_user_id: int {readOnly}</text><ellipse cx="551.7" cy="81.8672" fill="none" rx="1.8" ry="1.8" style="stroke:#038048;stroke-width:0.6;"/><text fill="#000000" font-family="sans-serif" font-size="8.4" lengthAdjust="spacing" textLength="38.7434" x="557.1" y="84.4453">user: User</text><ellipse cx="551.7" cy="93.0398" fill="none" rx="1.8" ry="1.8" style="stroke:#038048;stroke-width:0.6;"/><text fill="#000000" font-family="sans-serif" font-size="8.4" lengthAdjust="spacing" textLength="83.598" x="557.1" y="95.618">household: Household</text><ellipse cx="551.7" cy="104.2125" fill="none" rx="1.8" ry="1.8" style="stroke:#038048;stroke-width:0.6;"/><text fill="#000000" font-family="sans-serif" font-size="8.4" lengthAdjust="spacing" textLength="119.5523" x="557.1" y="106.7906">household_role: HouseholdRole</text><ellipse cx="551.7" cy="115.3852" fill="none" rx="1.8" ry="1.8" style="stroke:#038048;stroke-width:0.6;"/><text fill="#000000" font-family="sans-serif" font-size="8.4" lengthAdjust="spacing" textLength="65.3789" x="557.1" y="117.9633">is_accepted: bool</text><ellipse cx="551.7" cy="126.5578" fill="none" rx="1.8" ry="1.8" style="stroke:#038048;stroke-width:0.6;"/><text fill="#000000" font-family="sans-serif" font-size="8.4" lengthAdjust="spacing" textLength="58.8451" x="557.1" y="129.1359">is_deleted: bool</text><line style="stroke:#181818;stroke-width:0.3;" x1="545.7" x2="686.6578" y1="133.6441" y2="133.6441"/></g><!--class AreaOfResponsibility--><g id="elem_AreaOfResponsibility"><rect codeLine="46" fill="#F1F1F1" height="107.0086" id="AreaOfResponsibility" rx="1.5" ry="1.5" style="stroke:#181818;stroke-width:0.3;" width="171.1066" x="708.3" y="37.2082"/><ellipse cx="752.0862" cy="46.8082" fill="#ADD1B2" rx="6.6" ry="6.6" style="stroke:#181818;stroke-width:0.6;"/><path d="M753.7456,44.3332 Q753.8394,44.202 753.9519,44.1363 Q754.0644,44.0707 754.1956,44.0707 Q754.4206,44.0707 754.5612,44.2301 Q754.7019,44.3801 754.7019,44.7457 L754.7019,45.6176 Q754.7019,45.9832 754.5612,46.1426 Q754.4206,46.302 754.1956,46.302 Q753.9894,46.302 753.8675,46.1801 Q753.7456,46.0676 753.68,45.7582 Q753.6519,45.5426 753.5394,45.4301 Q753.3425,45.2051 752.9769,45.0738 Q752.6112,44.9426 752.2362,44.9426 Q751.7769,44.9426 751.3925,45.1395 Q751.0175,45.3363 750.7175,45.7863 Q750.4269,46.2363 750.4269,46.8551 L750.4269,47.5113 Q750.4269,48.252 750.9612,48.7488 Q751.4956,49.2363 752.4519,49.2363 Q753.0144,49.2363 753.4081,49.0863 Q753.6425,48.9926 753.8956,48.7301 Q754.055,48.5707 754.1394,48.5238 Q754.2331,48.477 754.355,48.477 Q754.5519,48.477 754.7019,48.6363 Q754.8612,48.7863 754.8612,48.9926 Q754.8612,49.1988 754.655,49.4426 Q754.355,49.7895 753.8769,49.9863 Q753.23,50.2582 752.4519,50.2582 Q751.5425,50.2582 750.8206,49.8832 Q750.23,49.5832 749.8175,48.9457 Q749.405,48.2988 749.405,47.5301 L749.405,46.8363 Q749.405,46.0395 749.7706,45.3551 Q750.1456,44.6613 750.8019,44.2957 Q751.4581,43.9207 752.1987,43.9207 Q752.6394,43.9207 753.0237,44.0238 Q753.4175,44.1176 753.7456,44.3332 Z " fill="#000000"/><text fill="#000000" font-family="sans-serif" font-size="8.4" lengthAdjust="spacing" textLength="78.4342" x="764.3862" y="50.2863">AreaOfResponsibility</text><line style="stroke:#181818;stroke-width:0.3;" x1="708.9" x2="878.8066" y1="56.4082" y2="56.4082"/><ellipse cx="714.9" cy="65.2945" fill="none" rx="1.8" ry="1.8" style="stroke:#038048;stroke-width:0.6;"/><text fill="#000000" font-family="sans-serif" font-size="8.4" lengthAdjust="spacing" textLength="62.1059" x="720.3" y="67.8727">id: int {readOnly}</text><ellipse cx="714.9" cy="76.4672" fill="none" rx="1.8" ry="1.8" style="stroke:#038048;stroke-width:0.6;"/><text fill="#000000" font-family="sans-serif" font-size="8.4" lengthAdjust="spacing" textLength="125.6268" x="720.3" y="79.0453">household: Household {readOnly}</text><ellipse cx="714.9" cy="87.6398" fill="none" rx="1.8" ry="1.8" style="stroke:#038048;stroke-width:0.6;"/><text fill="#000000" font-family="sans-serif" font-size="8.4" lengthAdjust="spacing" textLength="67.7045" x="720.3" y="90.218">assigned_to: User</text><ellipse cx="714.9" cy="98.8125" fill="none" rx="1.8" ry="1.8" style="stroke:#038048;stroke-width:0.6;"/><text fill="#000000" font-family="sans-serif" font-size="8.4" lengthAdjust="spacing" textLength="27.0703" x="720.3" y="101.3906">title: str</text><ellipse cx="714.9" cy="109.9852" fill="none" rx="1.8" ry="1.8" style="stroke:#038048;stroke-width:0.6;"/><text fill="#000000" font-family="sans-serif" font-size="8.4" lengthAdjust="spacing" textLength="54.6205" x="720.3" y="112.5633">description: str</text><ellipse cx="714.9" cy="121.1578" fill="none" rx="1.8" ry="1.8" style="stroke:#038048;stroke-width:0.6;"/><text fill="#000000" font-family="sans-serif" font-size="8.4" lengthAdjust="spacing" textLength="153.1605" x="720.3" y="123.7359">created_at: datetime.datetime {readOnly}</text><ellipse cx="714.9" cy="132.3305" fill="none" rx="1.8" ry="1.8" style="stroke:#038048;stroke-width:0.6;"/><text fill="#000000" font-family="sans-serif" font-size="8.4" lengthAdjust="spacing" textLength="155.5066" x="720.3" y="134.9086">updated_at: datetime.datetime {readOnly}</text><line style="stroke:#181818;stroke-width:0.3;" x1="708.9" x2="878.8066" y1="139.4168" y2="139.4168"/></g><!--class Project--><g id="elem_Project"><rect codeLine="59" fill="#F1F1F1" height="151.6992" id="Project" rx="1.5" ry="1.5" style="stroke:#181818;stroke-width:0.3;" width="180.4172" x="13.5" y="191.4082"/><ellipse cx="88.0869" cy="201.0082" fill="#ADD1B2" rx="6.6" ry="6.6" style="stroke:#181818;stroke-width:0.6;"/><path d="M89.7463,198.5332 Q89.84,198.402 89.9525,198.3363 Q90.065,198.2707 90.1963,198.2707 Q90.4213,198.2707 90.5619,198.4301 Q90.7025,198.5801 90.7025,198.9457 L90.7025,199.8176 Q90.7025,200.1832 90.5619,200.3426 Q90.4213,200.502 90.1963,200.502 Q89.99,200.502 89.8682,200.3801 Q89.7463,200.2676 89.6807,199.9582 Q89.6525,199.7426 89.54,199.6301 Q89.3432,199.4051 88.9775,199.2738 Q88.6119,199.1426 88.2369,199.1426 Q87.7775,199.1426 87.3932,199.3395 Q87.0182,199.5363 86.7182,199.9863 Q86.4275,200.4363 86.4275,201.0551 L86.4275,201.7113 Q86.4275,202.452 86.9619,202.9488 Q87.4963,203.4363 88.4525,203.4363 Q89.015,203.4363 89.4088,203.2863 Q89.6432,203.1926 89.8963,202.9301 Q90.0557,202.7707 90.14,202.7238 Q90.2338,202.677 90.3557,202.677 Q90.5525,202.677 90.7025,202.8363 Q90.8619,202.9863 90.8619,203.1926 Q90.8619,203.3988 90.6557,203.6426 Q90.3557,203.9895 89.8775,204.1863 Q89.2307,204.4582 88.4525,204.4582 Q87.5432,204.4582 86.8213,204.0832 Q86.2307,203.7832 85.8182,203.1457 Q85.4057,202.4988 85.4057,201.7301 L85.4057,201.0363 Q85.4057,200.2395 85.7713,199.5551 Q86.1463,198.8613 86.8025,198.4957 Q87.4588,198.1207 88.1994,198.1207 Q88.64,198.1207 89.0244,198.2238 Q89.4182,198.3176 89.7463,198.5332 Z " fill="#000000"/><text fill="#000000" font-family="sans-serif" font-size="8.4" lengthAdjust="spacing" textLength="26.1434" x="100.3869" y="204.4863">Project</text><line style="stroke:#181818;stroke-width:0.3;" x1="14.1" x2="193.3172" y1="210.6082" y2="210.6082"/><ellipse cx="20.1" cy="219.4945" fill="none" rx="1.8" ry="1.8" style="stroke:#038048;stroke-width:0.6;"/><text fill="#000000" font-family="sans-serif" font-size="8.4" lengthAdjust="spacing" textLength="62.1059" x="25.5" y="222.0727">id: int {readOnly}</text><ellipse cx="20.1" cy="230.6672" fill="none" rx="1.8" ry="1.8" style="stroke:#038048;stroke-width:0.6;"/><text fill="#000000" font-family="sans-serif" font-size="8.4" lengthAdjust="spacing" textLength="125.6268" x="25.5" y="233.2453">household: Household {readOnly}</text><ellipse cx="20.1" cy="241.8398" fill="none" rx="1.8" ry="1.8" style="stroke:#038048;stroke-width:0.6;"/><text fill="#000000" font-family="sans-serif" font-size="8.4" lengthAdjust="spacing" textLength="105.9926" x="25.5" y="244.418">created_by: User {readOnly}</text><ellipse cx="20.1" cy="253.0125" fill="none" rx="1.8" ry="1.8" style="stroke:#038048;stroke-width:0.6;"/><text fill="#000000" font-family="sans-serif" font-size="8.4" lengthAdjust="spacing" textLength="164.8172" x="25.5" y="255.5906">area_of_responsibility: AreaOfResponsibility</text><ellipse cx="20.1" cy="264.1852" fill="none" rx="1.8" ry="1.8" style="stroke:#038048;stroke-width:0.6;"/><text fill="#000000" font-family="sans-serif" font-size="8.4" lengthAdjust="spacing" textLength="27.0703" x="25.5" y="266.7633">title: str</text><ellipse cx="20.1" cy="275.3578" fill="none" rx="1.8" ry="1.8" style="stroke:#038048;stroke-width:0.6;"/><text fill="#000000" font-family="sans-serif" font-size="8.4" lengthAdjust="spacing" textLength="54.6205" x="25.5" y="277.9359">description: str</text><ellipse cx="20.1" cy="286.5305" fill="none" rx="1.8" ry="1.8" style="stroke:#038048;stroke-width:0.6;"/><text fill="#000000" font-family="sans-serif" font-size="8.4" lengthAdjust="spacing" textLength="87.3305" x="25.5" y="289.1086">deadline: datetime.date</text><ellipse cx="20.1" cy="297.7031" fill="none" rx="1.8" ry="1.8" style="stroke:#038048;stroke-width:0.6;"/><text fill="#000000" font-family="sans-serif" font-size="8.4" lengthAdjust="spacing" textLength="49.9734" x="25.5" y="300.2813">is_done: bool</text><ellipse cx="20.1" cy="308.8758" fill="none" rx="1.8" ry="1.8" style="stroke:#038048;stroke-width:0.6;"/><text fill="#000000" font-family="sans-serif" font-size="8.4" lengthAdjust="spacing" textLength="153.1605" x="25.5" y="311.4539">created_at: datetime.datetime {readOnly}</text><ellipse cx="20.1" cy="320.0484" fill="none" rx="1.8" ry="1.8" style="stroke:#038048;stroke-width:0.6;"/><text fill="#000000" font-family="sans-serif" font-size="8.4" lengthAdjust="spacing" textLength="155.5066" x="25.5" y="322.6266">updated_at: datetime.datetime {readOnly}</text><ellipse cx="20.1" cy="331.2211" fill="none" rx="1.8" ry="1.8" style="stroke:#038048;stroke-width:0.6;"/><text fill="#000000" font-family="sans-serif" font-size="8.4" lengthAdjust="spacing" textLength="143.8295" x="25.5" y="333.7992">done_at: datetime.datetime {readOnly}</text><line style="stroke:#181818;stroke-width:0.3;" x1="14.1" x2="193.3172" y1="338.3074" y2="338.3074"/></g><!--class ProjectGoal--><g id="elem_ProjectGoal"><rect codeLine="73" fill="#F1F1F1" height="73.4906" id="ProjectGoal" rx="1.5" ry="1.5" style="stroke:#181818;stroke-width:0.3;" width="77.7059" x="215.4" y="230.7082"/><ellipse cx="230.9786" cy="240.3082" fill="#ADD1B2" rx="6.6" ry="6.6" style="stroke:#181818;stroke-width:0.6;"/><path d="M232.638,237.8332 Q232.7317,237.702 232.8442,237.6363 Q232.9567,237.5707 233.088,237.5707 Q233.313,237.5707 233.4536,237.7301 Q233.5942,237.8801 233.5942,238.2457 L233.5942,239.1176 Q233.5942,239.4832 233.4536,239.6426 Q233.313,239.802 233.088,239.802 Q232.8817,239.802 232.7599,239.6801 Q232.638,239.5676 232.5724,239.2582 Q232.5442,239.0426 232.4317,238.9301 Q232.2349,238.7051 231.8692,238.5738 Q231.5036,238.4426 231.1286,238.4426 Q230.6692,238.4426 230.2849,238.6395 Q229.9099,238.8363 229.6099,239.2863 Q229.3192,239.7363 229.3192,240.3551 L229.3192,241.0113 Q229.3192,241.752 229.8536,242.2488 Q230.388,242.7363 231.3442,242.7363 Q231.9067,242.7363 232.3005,242.5863 Q232.5349,242.4926 232.788,242.2301 Q232.9474,242.0707 233.0317,242.0238 Q233.1255,241.977 233.2474,241.977 Q233.4442,241.977 233.5942,242.1363 Q233.7536,242.2863 233.7536,242.4926 Q233.7536,242.6988 233.5474,242.9426 Q233.2474,243.2895 232.7692,243.4863 Q232.1224,243.7582 231.3442,243.7582 Q230.4349,243.7582 229.713,243.3832 Q229.1224,243.0832 228.7099,242.4457 Q228.2974,241.7988 228.2974,241.0301 L228.2974,240.3363 Q228.2974,239.5395 228.663,238.8551 Q229.038,238.1613 229.6942,237.7957 Q230.3505,237.4207 231.0911,237.4207 Q231.5317,237.4207 231.9161,237.5238 Q232.3099,237.6176 232.638,237.8332 Z " fill="#000000"/><text fill="#000000" font-family="sans-serif" font-size="8.4" lengthAdjust="spacing" textLength="43.8867" x="240.8405" y="243.7863">ProjectGoal</text><line style="stroke:#181818;stroke-width:0.3;" x1="216" x2="292.5059" y1="249.9082" y2="249.9082"/><ellipse cx="222" cy="258.7945" fill="none" rx="1.8" ry="1.8" style="stroke:#038048;stroke-width:0.6;"/><text fill="#000000" font-family="sans-serif" font-size="8.4" lengthAdjust="spacing" textLength="62.1059" x="227.4" y="261.3727">id: int {readOnly}</text><ellipse cx="222" cy="269.9672" fill="none" rx="1.8" ry="1.8" style="stroke:#038048;stroke-width:0.6;"/><text fill="#000000" font-family="sans-serif" font-size="8.4" lengthAdjust="spacing" textLength="56.0232" x="227.4" y="272.5453">project: Project</text><ellipse cx="222" cy="281.1398" fill="none" rx="1.8" ry="1.8" style="stroke:#038048;stroke-width:0.6;"/><text fill="#000000" font-family="sans-serif" font-size="8.4" lengthAdjust="spacing" textLength="27.0703" x="227.4" y="283.718">title: str</text><ellipse cx="222" cy="292.3125" fill="none" rx="1.8" ry="1.8" style="stroke:#038048;stroke-width:0.6;"/><text fill="#000000" font-family="sans-serif" font-size="8.4" lengthAdjust="spacing" textLength="54.6205" x="227.4" y="294.8906">description: str</text><line style="stroke:#181818;stroke-width:0.3;" x1="216" x2="292.5059" y1="299.3988" y2="299.3988"/></g><!--class ProjectRole--><g id="elem_ProjectRole"><rect codeLine="80" fill="#F1F1F1" height="51.1453" id="ProjectRole" rx="1.5" ry="1.5" style="stroke:#181818;stroke-width:0.3;" width="92.6396" x="314.4" y="241.8082"/><ellipse cx="336.9092" cy="251.4082" fill="#ADD1B2" rx="6.6" ry="6.6" style="stroke:#181818;stroke-width:0.6;"/><path d="M338.5686,248.9332 Q338.6624,248.802 338.7749,248.7363 Q338.8874,248.6707 339.0186,248.6707 Q339.2436,248.6707 339.3842,248.8301 Q339.5249,248.9801 339.5249,249.3457 L339.5249,250.2176 Q339.5249,250.5832 339.3842,250.7426 Q339.2436,250.902 339.0186,250.902 Q338.8124,250.902 338.6905,250.7801 Q338.5686,250.6676 338.503,250.3582 Q338.4749,250.1426 338.3624,250.0301 Q338.1655,249.8051 337.7999,249.6738 Q337.4342,249.5426 337.0592,249.5426 Q336.5999,249.5426 336.2155,249.7395 Q335.8405,249.9363 335.5405,250.3863 Q335.2499,250.8363 335.2499,251.4551 L335.2499,252.1113 Q335.2499,252.852 335.7842,253.3488 Q336.3186,253.8363 337.2749,253.8363 Q337.8374,253.8363 338.2311,253.6863 Q338.4655,253.5926 338.7186,253.3301 Q338.878,253.1707 338.9624,253.1238 Q339.0561,253.077 339.178,253.077 Q339.3749,253.077 339.5249,253.2363 Q339.6842,253.3863 339.6842,253.5926 Q339.6842,253.7988 339.478,254.0426 Q339.178,254.3895 338.6999,254.5863 Q338.053,254.8582 337.2749,254.8582 Q336.3655,254.8582 335.6436,254.4832 Q335.053,254.1832 334.6405,253.5457 Q334.228,252.8988 334.228,252.1301 L334.228,251.4363 Q334.228,250.6395 334.5936,249.9551 Q334.9686,249.2613 335.6249,248.8957 Q336.2811,248.5207 337.0217,248.5207 Q337.4624,248.5207 337.8467,248.6238 Q338.2405,248.7176 338.5686,248.9332 Z " fill="#000000"/><text fill="#000000" font-family="sans-serif" font-size="8.4" lengthAdjust="spacing" textLength="43.4191" x="348.3113" y="254.8863">ProjectRole</text><line style="stroke:#181818;stroke-width:0.3;" x1="315" x2="406.4396" y1="261.0082" y2="261.0082"/><ellipse cx="321" cy="269.8945" fill="none" rx="1.8" ry="1.8" style="stroke:#038048;stroke-width:0.6;"/><text fill="#000000" font-family="sans-serif" font-size="8.4" lengthAdjust="spacing" textLength="62.1059" x="326.4" y="272.4727">id: int {readOnly}</text><ellipse cx="321" cy="281.0672" fill="none" rx="1.8" ry="1.8" style="stroke:#038048;stroke-width:0.6;"/><text fill="#000000" font-family="sans-serif" font-size="8.4" lengthAdjust="spacing" textLength="77.0396" x="326.4" y="283.6453">name: str {readOnly}</text><line style="stroke:#181818;stroke-width:0.3;" x1="315" x2="406.4396" y1="288.1535" y2="288.1535"/></g><!--class User_Project--><g id="elem_User_Project"><rect codeLine="85" fill="#F1F1F1" height="73.4906" id="User_Project" rx="1.5" ry="1.5" style="stroke:#181818;stroke-width:0.3;" width="77.7059" x="427.8" y="230.7082"/><ellipse cx="441.28" cy="240.3082" fill="#ADD1B2" rx="6.6" ry="6.6" style="stroke:#181818;stroke-width:0.6;"/><path d="M442.9394,237.8332 Q443.0332,237.702 443.1457,237.6363 Q443.2582,237.5707 443.3894,237.5707 Q443.6144,237.5707 443.755,237.7301 Q443.8957,237.8801 443.8957,238.2457 L443.8957,239.1176 Q443.8957,239.4832 443.755,239.6426 Q443.6144,239.802 443.3894,239.802 Q443.1832,239.802 443.0613,239.6801 Q442.9394,239.5676 442.8738,239.2582 Q442.8457,239.0426 442.7332,238.9301 Q442.5363,238.7051 442.1707,238.5738 Q441.805,238.4426 441.43,238.4426 Q440.9707,238.4426 440.5863,238.6395 Q440.2113,238.8363 439.9113,239.2863 Q439.6207,239.7363 439.6207,240.3551 L439.6207,241.0113 Q439.6207,241.752 440.155,242.2488 Q440.6894,242.7363 441.6457,242.7363 Q442.2082,242.7363 442.6019,242.5863 Q442.8363,242.4926 443.0894,242.2301 Q443.2488,242.0707 443.3332,242.0238 Q443.4269,241.977 443.5488,241.977 Q443.7457,241.977 443.8957,242.1363 Q444.055,242.2863 444.055,242.4926 Q444.055,242.6988 443.8488,242.9426 Q443.5488,243.2895 443.0707,243.4863 Q442.4238,243.7582 441.6457,243.7582 Q440.7363,243.7582 440.0144,243.3832 Q439.4238,243.0832 439.0113,242.4457 Q438.5988,241.7988 438.5988,241.0301 L438.5988,240.3363 Q438.5988,239.5395 438.9644,238.8551 Q439.3394,238.1613 439.9957,237.7957 Q440.6519,237.4207 441.3925,237.4207 Q441.8332,237.4207 442.2175,237.5238 Q442.6113,237.6176 442.9394,237.8332 Z " fill="#000000"/><text fill="#000000" font-family="sans-serif" font-size="8.4" lengthAdjust="spacing" textLength="48.5502" x="450.6756" y="243.7863">User_Project</text><line style="stroke:#181818;stroke-width:0.3;" x1="428.4" x2="504.9059" y1="249.9082" y2="249.9082"/><ellipse cx="434.4" cy="258.7945" fill="none" rx="1.8" ry="1.8" style="stroke:#038048;stroke-width:0.6;"/><text fill="#000000" font-family="sans-serif" font-size="8.4" lengthAdjust="spacing" textLength="62.1059" x="439.8" y="261.3727">id: int {readOnly}</text><ellipse cx="434.4" cy="269.9672" fill="none" rx="1.8" ry="1.8" style="stroke:#038048;stroke-width:0.6;"/><text fill="#000000" font-family="sans-serif" font-size="8.4" lengthAdjust="spacing" textLength="38.7434" x="439.8" y="272.5453">user: User</text><ellipse cx="434.4" cy="281.1398" fill="none" rx="1.8" ry="1.8" style="stroke:#038048;stroke-width:0.6;"/><text fill="#000000" font-family="sans-serif" font-size="8.4" lengthAdjust="spacing" textLength="56.0232" x="439.8" y="283.718">project: Project</text><ellipse cx="434.4" cy="292.3125" fill="none" rx="1.8" ry="1.8" style="stroke:#038048;stroke-width:0.6;"/><text fill="#000000" font-family="sans-serif" font-size="8.4" lengthAdjust="spacing" textLength="62.0936" x="439.8" y="294.8906">role: ProjectRole</text><line style="stroke:#181818;stroke-width:0.3;" x1="428.4" x2="504.9059" y1="299.3988" y2="299.3988"/></g><!--class CustomList--><g id="elem_CustomList"><rect codeLine="95" fill="#F1F1F1" height="151.6992" id="CustomList" rx="1.5" ry="1.5" style="stroke:#181818;stroke-width:0.3;" width="180.4172" x="527.1" y="191.4082"/><ellipse cx="593.7524" cy="201.0082" fill="#ADD1B2" rx="6.6" ry="6.6" style="stroke:#181818;stroke-width:0.6;"/><path d="M595.4118,198.5332 Q595.5056,198.402 595.6181,198.3363 Q595.7306,198.2707 595.8618,198.2707 Q596.0868,198.2707 596.2274,198.4301 Q596.3681,198.5801 596.3681,198.9457 L596.3681,199.8176 Q596.3681,200.1832 596.2274,200.3426 Q596.0868,200.502 595.8618,200.502 Q595.6556,200.502 595.5337,200.3801 Q595.4118,200.2676 595.3462,199.9582 Q595.3181,199.7426 595.2056,199.6301 Q595.0087,199.4051 594.6431,199.2738 Q594.2774,199.1426 593.9024,199.1426 Q593.4431,199.1426 593.0587,199.3395 Q592.6837,199.5363 592.3837,199.9863 Q592.0931,200.4363 592.0931,201.0551 L592.0931,201.7113 Q592.0931,202.452 592.6274,202.9488 Q593.1618,203.4363 594.1181,203.4363 Q594.6806,203.4363 595.0743,203.2863 Q595.3087,203.1926 595.5618,202.9301 Q595.7212,202.7707 595.8056,202.7238 Q595.8993,202.677 596.0212,202.677 Q596.2181,202.677 596.3681,202.8363 Q596.5274,202.9863 596.5274,203.1926 Q596.5274,203.3988 596.3212,203.6426 Q596.0212,203.9895 595.5431,204.1863 Q594.8962,204.4582 594.1181,204.4582 Q593.2087,204.4582 592.4868,204.0832 Q591.8962,203.7832 591.4837,203.1457 Q591.0712,202.4988 591.0712,201.7301 L591.0712,201.0363 Q591.0712,200.2395 591.4368,199.5551 Q591.8118,198.8613 592.4681,198.4957 Q593.1243,198.1207 593.8649,198.1207 Q594.3056,198.1207 594.6899,198.2238 Q595.0837,198.3176 595.4118,198.5332 Z " fill="#000000"/><text fill="#000000" font-family="sans-serif" font-size="8.4" lengthAdjust="spacing" textLength="42.0123" x="606.0524" y="204.4863">CustomList</text><line style="stroke:#181818;stroke-width:0.3;" x1="527.7" x2="706.9172" y1="210.6082" y2="210.6082"/><ellipse cx="533.7" cy="219.4945" fill="none" rx="1.8" ry="1.8" style="stroke:#038048;stroke-width:0.6;"/><text fill="#000000" font-family="sans-serif" font-size="8.4" lengthAdjust="spacing" textLength="62.1059" x="539.1" y="222.0727">id: int {readOnly}</text><ellipse cx="533.7" cy="230.6672" fill="none" rx="1.8" ry="1.8" style="stroke:#038048;stroke-width:0.6;"/><text fill="#000000" font-family="sans-serif" font-size="8.4" lengthAdjust="spacing" textLength="125.6268" x="539.1" y="233.2453">household: Household {readOnly}</text><ellipse cx="533.7" cy="241.8398" fill="none" rx="1.8" ry="1.8" style="stroke:#038048;stroke-width:0.6;"/><text fill="#000000" font-family="sans-serif" font-size="8.4" lengthAdjust="spacing" textLength="105.9926" x="539.1" y="244.418">created_by: User {readOnly}</text><ellipse cx="533.7" cy="253.0125" fill="none" rx="1.8" ry="1.8" style="stroke:#038048;stroke-width:0.6;"/><text fill="#000000" font-family="sans-serif" font-size="8.4" lengthAdjust="spacing" textLength="164.8172" x="539.1" y="255.5906">area_of_responsibility: AreaOfResponsibility</text><ellipse cx="533.7" cy="264.1852" fill="none" rx="1.8" ry="1.8" style="stroke:#038048;stroke-width:0.6;"/><text fill="#000000" font-family="sans-serif" font-size="8.4" lengthAdjust="spacing" textLength="56.0232" x="539.1" y="266.7633">project: Project</text><ellipse cx="533.7" cy="275.3578" fill="none" rx="1.8" ry="1.8" style="stroke:#038048;stroke-width:0.6;"/><text fill="#000000" font-family="sans-serif" font-size="8.4" lengthAdjust="spacing" textLength="27.0703" x="539.1" y="277.9359">title: str</text><ellipse cx="533.7" cy="286.5305" fill="none" rx="1.8" ry="1.8" style="stroke:#038048;stroke-width:0.6;"/><text fill="#000000" font-family="sans-serif" font-size="8.4" lengthAdjust="spacing" textLength="54.6205" x="539.1" y="289.1086">description: str</text><ellipse cx="533.7" cy="297.7031" fill="none" rx="1.8" ry="1.8" style="stroke:#038048;stroke-width:0.6;"/><text fill="#000000" font-family="sans-serif" font-size="8.4" lengthAdjust="spacing" textLength="63.4963" x="539.1" y="300.2813">is_checklist: bool</text><ellipse cx="533.7" cy="308.8758" fill="none" rx="1.8" ry="1.8" style="stroke:#038048;stroke-width:0.6;"/><text fill="#000000" font-family="sans-serif" font-size="8.4" lengthAdjust="spacing" textLength="53.2301" x="539.1" y="311.4539">is_active: bool</text><ellipse cx="533.7" cy="320.0484" fill="none" rx="1.8" ry="1.8" style="stroke:#038048;stroke-width:0.6;"/><text fill="#000000" font-family="sans-serif" font-size="8.4" lengthAdjust="spacing" textLength="153.1605" x="539.1" y="322.6266">created_at: datetime.datetime {readOnly}</text><ellipse cx="533.7" cy="331.2211" fill="none" rx="1.8" ry="1.8" style="stroke:#038048;stroke-width:0.6;"/><text fill="#000000" font-family="sans-serif" font-size="8.4" lengthAdjust="spacing" textLength="155.5066" x="539.1" y="333.7992">updated_at: datetime.datetime {readOnly}</text><line style="stroke:#181818;stroke-width:0.3;" x1="527.7" x2="706.9172" y1="338.3074" y2="338.3074"/></g><!--class CustomListItem--><g id="elem_CustomListItem"><rect codeLine="109" fill="#F1F1F1" height="62.318" id="CustomListItem" rx="1.5" ry="1.5" style="stroke:#181818;stroke-width:0.3;" width="141.2268" x="33.3" y="435.0082"/><ellipse cx="72.189" cy="444.6082" fill="#ADD1B2" rx="6.6" ry="6.6" style="stroke:#181818;stroke-width:0.6;"/><path d="M73.8483,442.1332 Q73.9421,442.002 74.0546,441.9363 Q74.1671,441.8707 74.2983,441.8707 Q74.5233,441.8707 74.664,442.0301 Q74.8046,442.1801 74.8046,442.5457 L74.8046,443.4176 Q74.8046,443.7832 74.664,443.9426 Q74.5233,444.102 74.2983,444.102 Q74.0921,444.102 73.9702,443.9801 Q73.8483,443.8676 73.7827,443.5582 Q73.7546,443.3426 73.6421,443.2301 Q73.4452,443.0051 73.0796,442.8738 Q72.714,442.7426 72.339,442.7426 Q71.8796,442.7426 71.4952,442.9395 Q71.1202,443.1363 70.8202,443.5863 Q70.5296,444.0363 70.5296,444.6551 L70.5296,445.3113 Q70.5296,446.052 71.064,446.5488 Q71.5983,447.0363 72.5546,447.0363 Q73.1171,447.0363 73.5108,446.8863 Q73.7452,446.7926 73.9983,446.5301 Q74.1577,446.3707 74.2421,446.3238 Q74.3358,446.277 74.4577,446.277 Q74.6546,446.277 74.8046,446.4363 Q74.964,446.5863 74.964,446.7926 Q74.964,446.9988 74.7577,447.2426 Q74.4577,447.5895 73.9796,447.7863 Q73.3327,448.0582 72.5546,448.0582 Q71.6452,448.0582 70.9233,447.6832 Q70.3327,447.3832 69.9202,446.7457 Q69.5077,446.0988 69.5077,445.3301 L69.5077,444.6363 Q69.5077,443.8395 69.8733,443.1551 Q70.2483,442.4613 70.9046,442.0957 Q71.5608,441.7207 72.3015,441.7207 Q72.7421,441.7207 73.1265,441.8238 Q73.5202,441.9176 73.8483,442.1332 Z " fill="#000000"/><text fill="#000000" font-family="sans-serif" font-size="8.4" lengthAdjust="spacing" textLength="58.3488" x="84.489" y="448.0863">CustomListItem</text><line style="stroke:#181818;stroke-width:0.3;" x1="33.9" x2="173.9268" y1="454.2082" y2="454.2082"/><ellipse cx="39.9" cy="463.0945" fill="none" rx="1.8" ry="1.8" style="stroke:#038048;stroke-width:0.6;"/><text fill="#000000" font-family="sans-serif" font-size="8.4" lengthAdjust="spacing" textLength="62.1059" x="45.3" y="465.6727">id: int {readOnly}</text><ellipse cx="39.9" cy="474.2672" fill="none" rx="1.8" ry="1.8" style="stroke:#038048;stroke-width:0.6;"/><text fill="#000000" font-family="sans-serif" font-size="8.4" lengthAdjust="spacing" textLength="125.6268" x="45.3" y="476.8453">household: Household {readOnly}</text><ellipse cx="39.9" cy="485.4398" fill="none" rx="1.8" ry="1.8" style="stroke:#038048;stroke-width:0.6;"/><text fill="#000000" font-family="sans-serif" font-size="8.4" lengthAdjust="spacing" textLength="35.0109" x="45.3" y="488.018">name: str</text><line style="stroke:#181818;stroke-width:0.3;" x1="33.9" x2="173.9268" y1="492.5262" y2="492.5262"/></g><!--class CustomList_CustomListItem--><g id="elem_CustomList_CustomListItem"><rect codeLine="115" fill="#F1F1F1" height="118.1812" id="CustomList_CustomListItem" rx="1.5" ry="1.5" style="stroke:#181818;stroke-width:0.3;" width="149.1182" x="195.3" y="407.1082"/><ellipse cx="215.4984" cy="416.7082" fill="#ADD1B2" rx="6.6" ry="6.6" style="stroke:#181818;stroke-width:0.6;"/><path d="M217.1578,414.2332 Q217.2515,414.102 217.364,414.0363 Q217.4765,413.9707 217.6078,413.9707 Q217.8328,413.9707 217.9734,414.1301 Q218.114,414.2801 218.114,414.6457 L218.114,415.5176 Q218.114,415.8832 217.9734,416.0426 Q217.8328,416.202 217.6078,416.202 Q217.4015,416.202 217.2797,416.0801 Q217.1578,415.9676 217.0922,415.6582 Q217.064,415.4426 216.9515,415.3301 Q216.7547,415.1051 216.389,414.9738 Q216.0234,414.8426 215.6484,414.8426 Q215.189,414.8426 214.8047,415.0395 Q214.4297,415.2363 214.1297,415.6863 Q213.839,416.1363 213.839,416.7551 L213.839,417.4113 Q213.839,418.152 214.3734,418.6488 Q214.9078,419.1363 215.864,419.1363 Q216.4265,419.1363 216.8203,418.9863 Q217.0547,418.8926 217.3078,418.6301 Q217.4672,418.4707 217.5515,418.4238 Q217.6453,418.377 217.7672,418.377 Q217.964,418.377 218.114,418.5363 Q218.2734,418.6863 218.2734,418.8926 Q218.2734,419.0988 218.0672,419.3426 Q217.7672,419.6895 217.289,419.8863 Q216.6422,420.1582 215.864,420.1582 Q214.9547,420.1582 214.2328,419.7832 Q213.6422,419.4832 213.2297,418.8457 Q212.8172,418.1988 212.8172,417.4301 L212.8172,416.7363 Q212.8172,415.9395 213.1828,415.2551 Q213.5578,414.5613 214.214,414.1957 Q214.8703,413.8207 215.6109,413.8207 Q216.0515,413.8207 216.4359,413.9238 Q216.8297,414.0176 217.1578,414.2332 Z " fill="#000000"/><text fill="#000000" font-family="sans-serif" font-size="8.4" lengthAdjust="spacing" textLength="105.0328" x="226.3869" y="420.1863">CustomList_CustomListItem</text><line style="stroke:#181818;stroke-width:0.3;" x1="195.9" x2="343.8182" y1="426.3082" y2="426.3082"/><ellipse cx="201.9" cy="435.1945" fill="none" rx="1.8" ry="1.8" style="stroke:#038048;stroke-width:0.6;"/><text fill="#000000" font-family="sans-serif" font-size="8.4" lengthAdjust="spacing" textLength="62.1059" x="207.3" y="437.7727">id: int {readOnly}</text><ellipse cx="201.9" cy="446.3672" fill="none" rx="1.8" ry="1.8" style="stroke:#038048;stroke-width:0.6;"/><text fill="#000000" font-family="sans-serif" font-size="8.4" lengthAdjust="spacing" textLength="56.9461" x="207.3" y="448.9453">list: CustomList</text><ellipse cx="201.9" cy="457.5398" fill="none" rx="1.8" ry="1.8" style="stroke:#038048;stroke-width:0.6;"/><text fill="#000000" font-family="sans-serif" font-size="8.4" lengthAdjust="spacing" textLength="78.8854" x="207.3" y="460.118">item: CustomListItem</text><ellipse cx="201.9" cy="468.7125" fill="none" rx="1.8" ry="1.8" style="stroke:#038048;stroke-width:0.6;"/><text fill="#000000" font-family="sans-serif" font-size="8.4" lengthAdjust="spacing" textLength="133.5182" x="207.3" y="471.2906">parent: CustomList_CustomListItem</text><ellipse cx="201.9" cy="479.8852" fill="none" rx="1.8" ry="1.8" style="stroke:#038048;stroke-width:0.6;"/><text fill="#000000" font-family="sans-serif" font-size="8.4" lengthAdjust="spacing" textLength="49.9652" x="207.3" y="482.4633">quantity: float</text><ellipse cx="201.9" cy="491.0578" fill="none" rx="1.8" ry="1.8" style="stroke:#038048;stroke-width:0.6;"/><text fill="#000000" font-family="sans-serif" font-size="8.4" lengthAdjust="spacing" textLength="27.542" x="207.3" y="493.6359">unit: str</text><ellipse cx="201.9" cy="502.2305" fill="none" rx="1.8" ry="1.8" style="stroke:#038048;stroke-width:0.6;"/><text fill="#000000" font-family="sans-serif" font-size="8.4" lengthAdjust="spacing" textLength="30.3475" x="207.3" y="504.8086">note: str</text><ellipse cx="201.9" cy="513.4031" fill="none" rx="1.8" ry="1.8" style="stroke:#038048;stroke-width:0.6;"/><text fill="#000000" font-family="sans-serif" font-size="8.4" lengthAdjust="spacing" textLength="49.9734" x="207.3" y="515.9812">is_done: bool</text><line style="stroke:#181818;stroke-width:0.3;" x1="195.9" x2="343.8182" y1="520.4895" y2="520.4895"/></g><!--class Task--><g id="elem_Task"><rect codeLine="129" fill="#F1F1F1" height="174.0445" id="Task" rx="1.5" ry="1.5" style="stroke:#181818;stroke-width:0.3;" width="180.4172" x="365.7" y="379.2082"/><ellipse cx="444.2572" cy="388.8082" fill="#ADD1B2" rx="6.6" ry="6.6" style="stroke:#181818;stroke-width:0.6;"/><path d="M445.9166,386.3332 Q446.0104,386.202 446.1229,386.1363 Q446.2354,386.0707 446.3666,386.0707 Q446.5916,386.0707 446.7322,386.2301 Q446.8729,386.3801 446.8729,386.7457 L446.8729,387.6176 Q446.8729,387.9832 446.7322,388.1426 Q446.5916,388.302 446.3666,388.302 Q446.1604,388.302 446.0385,388.1801 Q445.9166,388.0676 445.851,387.7582 Q445.8229,387.5426 445.7104,387.4301 Q445.5135,387.2051 445.1479,387.0738 Q444.7822,386.9426 444.4072,386.9426 Q443.9479,386.9426 443.5635,387.1395 Q443.1885,387.3363 442.8885,387.7863 Q442.5979,388.2363 442.5979,388.8551 L442.5979,389.5113 Q442.5979,390.252 443.1322,390.7488 Q443.6666,391.2363 444.6229,391.2363 Q445.1854,391.2363 445.5791,391.0863 Q445.8135,390.9926 446.0666,390.7301 Q446.226,390.5707 446.3104,390.5238 Q446.4041,390.477 446.526,390.477 Q446.7229,390.477 446.8729,390.6363 Q447.0322,390.7863 447.0322,390.9926 Q447.0322,391.1988 446.826,391.4426 Q446.526,391.7895 446.0479,391.9863 Q445.401,392.2582 444.6229,392.2582 Q443.7135,392.2582 442.9916,391.8832 Q442.401,391.5832 441.9885,390.9457 Q441.576,390.2988 441.576,389.5301 L441.576,388.8363 Q441.576,388.0395 441.9416,387.3551 Q442.3166,386.6613 442.9729,386.2957 Q443.6291,385.9207 444.3697,385.9207 Q444.8104,385.9207 445.1947,386.0238 Q445.5885,386.1176 445.9166,386.3332 Z " fill="#000000"/><text fill="#000000" font-family="sans-serif" font-size="8.4" lengthAdjust="spacing" textLength="18.2027" x="456.5572" y="392.2863">Task</text><line style="stroke:#181818;stroke-width:0.3;" x1="366.3" x2="545.5172" y1="398.4082" y2="398.4082"/><ellipse cx="372.3" cy="407.2945" fill="none" rx="1.8" ry="1.8" style="stroke:#038048;stroke-width:0.6;"/><text fill="#000000" font-family="sans-serif" font-size="8.4" lengthAdjust="spacing" textLength="62.1059" x="377.7" y="409.8727">id: int {readOnly}</text><ellipse cx="372.3" cy="418.4672" fill="none" rx="1.8" ry="1.8" style="stroke:#038048;stroke-width:0.6;"/><text fill="#000000" font-family="sans-serif" font-size="8.4" lengthAdjust="spacing" textLength="125.6268" x="377.7" y="421.0453">household: Household {readOnly}</text><ellipse cx="372.3" cy="429.6398" fill="none" rx="1.8" ry="1.8" style="stroke:#038048;stroke-width:0.6;"/><text fill="#000000" font-family="sans-serif" font-size="8.4" lengthAdjust="spacing" textLength="164.8172" x="377.7" y="432.218">area_of_responsibility: AreaOfResponsibility</text><ellipse cx="372.3" cy="440.8125" fill="none" rx="1.8" ry="1.8" style="stroke:#038048;stroke-width:0.6;"/><text fill="#000000" font-family="sans-serif" font-size="8.4" lengthAdjust="spacing" textLength="105.9926" x="377.7" y="443.3906">created_by: User {readOnly}</text><ellipse cx="372.3" cy="451.9852" fill="none" rx="1.8" ry="1.8" style="stroke:#038048;stroke-width:0.6;"/><text fill="#000000" font-family="sans-serif" font-size="8.4" lengthAdjust="spacing" textLength="67.7045" x="377.7" y="454.5633">assigned_to: User</text><ellipse cx="372.3" cy="463.1578" fill="none" rx="1.8" ry="1.8" style="stroke:#038048;stroke-width:0.6;"/><text fill="#000000" font-family="sans-serif" font-size="8.4" lengthAdjust="spacing" textLength="56.0068" x="377.7" y="465.7359">priority: Priority</text><ellipse cx="372.3" cy="474.3305" fill="none" rx="1.8" ry="1.8" style="stroke:#038048;stroke-width:0.6;"/><text fill="#000000" font-family="sans-serif" font-size="8.4" lengthAdjust="spacing" textLength="50.8922" x="377.7" y="476.9086">status: Status</text><ellipse cx="372.3" cy="485.5031" fill="none" rx="1.8" ry="1.8" style="stroke:#038048;stroke-width:0.6;"/><text fill="#000000" font-family="sans-serif" font-size="8.4" lengthAdjust="spacing" textLength="64.4314" x="377.7" y="488.0812">is_recurring: bool</text><ellipse cx="372.3" cy="496.6758" fill="none" rx="1.8" ry="1.8" style="stroke:#038048;stroke-width:0.6;"/><text fill="#000000" font-family="sans-serif" font-size="8.4" lengthAdjust="spacing" textLength="27.0703" x="377.7" y="499.2539">title: str</text><ellipse cx="372.3" cy="507.8484" fill="none" rx="1.8" ry="1.8" style="stroke:#038048;stroke-width:0.6;"/><text fill="#000000" font-family="sans-serif" font-size="8.4" lengthAdjust="spacing" textLength="54.6205" x="377.7" y="510.4266">description: str</text><ellipse cx="372.3" cy="519.0211" fill="none" rx="1.8" ry="1.8" style="stroke:#038048;stroke-width:0.6;"/><text fill="#000000" font-family="sans-serif" font-size="8.4" lengthAdjust="spacing" textLength="153.1605" x="377.7" y="521.5992">created_at: datetime.datetime {readOnly}</text><ellipse cx="372.3" cy="530.1938" fill="none" rx="1.8" ry="1.8" style="stroke:#038048;stroke-width:0.6;"/><text fill="#000000" font-family="sans-serif" font-size="8.4" lengthAdjust="spacing" textLength="155.5066" x="377.7" y="532.7719">updated_at: datetime.datetime {readOnly}</text><ellipse cx="372.3" cy="541.3664" fill="none" rx="1.8" ry="1.8" style="stroke:#038048;stroke-width:0.6;"/><text fill="#000000" font-family="sans-serif" font-size="8.4" lengthAdjust="spacing" textLength="143.8295" x="377.7" y="543.9445">done_at: datetime.datetime {readOnly}</text><line style="stroke:#181818;stroke-width:0.3;" x1="366.3" x2="545.5172" y1="548.4527" y2="548.4527"/></g><!--class Priority--><g id="elem_Priority"><rect codeLine="145" fill="#F1F1F1" height="51.1453" id="Priority" rx="1.5" ry="1.5" style="stroke:#181818;stroke-width:0.3;" width="92.6396" x="567.6" y="440.7082"/><ellipse cx="598.3022" cy="450.3082" fill="#ADD1B2" rx="6.6" ry="6.6" style="stroke:#181818;stroke-width:0.6;"/><path d="M599.9616,447.8332 Q600.0554,447.702 600.1679,447.6363 Q600.2804,447.5707 600.4116,447.5707 Q600.6366,447.5707 600.7772,447.7301 Q600.9179,447.8801 600.9179,448.2457 L600.9179,449.1176 Q600.9179,449.4832 600.7772,449.6426 Q600.6366,449.802 600.4116,449.802 Q600.2054,449.802 600.0835,449.6801 Q599.9616,449.5676 599.896,449.2582 Q599.8679,449.0426 599.7554,448.9301 Q599.5585,448.7051 599.1929,448.5738 Q598.8272,448.4426 598.4522,448.4426 Q597.9929,448.4426 597.6085,448.6395 Q597.2335,448.8363 596.9335,449.2863 Q596.6429,449.7363 596.6429,450.3551 L596.6429,451.0113 Q596.6429,451.752 597.1772,452.2488 Q597.7116,452.7363 598.6679,452.7363 Q599.2304,452.7363 599.6241,452.5863 Q599.8585,452.4926 600.1116,452.2301 Q600.271,452.0707 600.3554,452.0238 Q600.4491,451.977 600.571,451.977 Q600.7679,451.977 600.9179,452.1363 Q601.0772,452.2863 601.0772,452.4926 Q601.0772,452.6988 600.871,452.9426 Q600.571,453.2895 600.0929,453.4863 Q599.446,453.7582 598.6679,453.7582 Q597.7585,453.7582 597.0366,453.3832 Q596.446,453.0832 596.0335,452.4457 Q595.621,451.7988 595.621,451.0301 L595.621,450.3363 Q595.621,449.5395 595.9866,448.8551 Q596.3616,448.1613 597.0179,447.7957 Q597.6741,447.4207 598.4147,447.4207 Q598.8554,447.4207 599.2397,447.5238 Q599.6335,447.6176 599.9616,447.8332 Z " fill="#000000"/><text fill="#000000" font-family="sans-serif" font-size="8.4" lengthAdjust="spacing" textLength="26.1352" x="610.6022" y="453.7863">Priority</text><line style="stroke:#181818;stroke-width:0.3;" x1="568.2" x2="659.6396" y1="459.9082" y2="459.9082"/><ellipse cx="574.2" cy="468.7945" fill="none" rx="1.8" ry="1.8" style="stroke:#038048;stroke-width:0.6;"/><text fill="#000000" font-family="sans-serif" font-size="8.4" lengthAdjust="spacing" textLength="62.1059" x="579.6" y="471.3727">id: int {readOnly}</text><ellipse cx="574.2" cy="479.9672" fill="none" rx="1.8" ry="1.8" style="stroke:#038048;stroke-width:0.6;"/><text fill="#000000" font-family="sans-serif" font-size="8.4" lengthAdjust="spacing" textLength="77.0396" x="579.6" y="482.5453">name: str {readOnly}</text><line style="stroke:#181818;stroke-width:0.3;" x1="568.2" x2="659.6396" y1="487.0535" y2="487.0535"/></g><!--class Status--><g id="elem_Status"><rect codeLine="150" fill="#F1F1F1" height="51.1453" id="Status" rx="1.5" ry="1.5" style="stroke:#181818;stroke-width:0.3;" width="92.6396" x="681" y="440.7082"/><ellipse cx="712.863" cy="450.3082" fill="#ADD1B2" rx="6.6" ry="6.6" style="stroke:#181818;stroke-width:0.6;"/><path d="M714.5224,447.8332 Q714.6161,447.702 714.7286,447.6363 Q714.8411,447.5707 714.9724,447.5707 Q715.1974,447.5707 715.338,447.7301 Q715.4786,447.8801 715.4786,448.2457 L715.4786,449.1176 Q715.4786,449.4832 715.338,449.6426 Q715.1974,449.802 714.9724,449.802 Q714.7661,449.802 714.6442,449.6801 Q714.5224,449.5676 714.4567,449.2582 Q714.4286,449.0426 714.3161,448.9301 Q714.1192,448.7051 713.7536,448.5738 Q713.388,448.4426 713.013,448.4426 Q712.5536,448.4426 712.1692,448.6395 Q711.7942,448.8363 711.4942,449.2863 Q711.2036,449.7363 711.2036,450.3551 L711.2036,451.0113 Q711.2036,451.752 711.738,452.2488 Q712.2724,452.7363 713.2286,452.7363 Q713.7911,452.7363 714.1849,452.5863 Q714.4192,452.4926 714.6724,452.2301 Q714.8317,452.0707 714.9161,452.0238 Q715.0099,451.977 715.1317,451.977 Q715.3286,451.977 715.4786,452.1363 Q715.638,452.2863 715.638,452.4926 Q715.638,452.6988 715.4317,452.9426 Q715.1317,453.2895 714.6536,453.4863 Q714.0067,453.7582 713.2286,453.7582 Q712.3192,453.7582 711.5974,453.3832 Q711.0067,453.0832 710.5942,452.4457 Q710.1817,451.7988 710.1817,451.0301 L710.1817,450.3363 Q710.1817,449.5395 710.5474,448.8551 Q710.9224,448.1613 711.5786,447.7957 Q712.2349,447.4207 712.9755,447.4207 Q713.4161,447.4207 713.8005,447.5238 Q714.1942,447.6176 714.5224,447.8332 Z " fill="#000000"/><text fill="#000000" font-family="sans-serif" font-size="8.4" lengthAdjust="spacing" textLength="23.8137" x="725.163" y="453.7863">Status</text><line style="stroke:#181818;stroke-width:0.3;" x1="681.6" x2="773.0396" y1="459.9082" y2="459.9082"/><ellipse cx="687.6" cy="468.7945" fill="none" rx="1.8" ry="1.8" style="stroke:#038048;stroke-width:0.6;"/><text fill="#000000" font-family="sans-serif" font-size="8.4" lengthAdjust="spacing" textLength="62.1059" x="693" y="471.3727">id: int {readOnly}</text><ellipse cx="687.6" cy="479.9672" fill="none" rx="1.8" ry="1.8" style="stroke:#038048;stroke-width:0.6;"/><text fill="#000000" font-family="sans-serif" font-size="8.4" lengthAdjust="spacing" textLength="77.0396" x="693" y="482.5453">name: str {readOnly}</text><line style="stroke:#181818;stroke-width:0.3;" x1="681.6" x2="773.0396" y1="487.0535" y2="487.0535"/></g><!--class Task_TaskHelper--><g id="elem_Task_TaskHelper"><rect codeLine="155" fill="#F1F1F1" height="62.318" id="Task_TaskHelper" rx="1.5" ry="1.5" style="stroke:#181818;stroke-width:0.3;" width="85.0219" x="61.2" y="617.1082"/><ellipse cx="70.2" cy="626.7082" fill="#ADD1B2" rx="6.6" ry="6.6" style="stroke:#181818;stroke-width:0.6;"/><path d="M71.8594,624.2332 Q71.9531,624.102 72.0656,624.0363 Q72.1781,623.9707 72.3094,623.9707 Q72.5344,623.9707 72.675,624.1301 Q72.8156,624.2801 72.8156,624.6457 L72.8156,625.5176 Q72.8156,625.8832 72.675,626.0426 Q72.5344,626.202 72.3094,626.202 Q72.1031,626.202 71.9813,626.0801 Q71.8594,625.9676 71.7938,625.6582 Q71.7656,625.4426 71.6531,625.3301 Q71.4563,625.1051 71.0906,624.9738 Q70.725,624.8426 70.35,624.8426 Q69.8906,624.8426 69.5063,625.0395 Q69.1313,625.2363 68.8313,625.6863 Q68.5406,626.1363 68.5406,626.7551 L68.5406,627.4113 Q68.5406,628.152 69.075,628.6488 Q69.6094,629.1363 70.5656,629.1363 Q71.1281,629.1363 71.5219,628.9863 Q71.7563,628.8926 72.0094,628.6301 Q72.1688,628.4707 72.2531,628.4238 Q72.3469,628.377 72.4688,628.377 Q72.6656,628.377 72.8156,628.5363 Q72.975,628.6863 72.975,628.8926 Q72.975,629.0988 72.7688,629.3426 Q72.4688,629.6895 71.9906,629.8863 Q71.3438,630.1582 70.5656,630.1582 Q69.6563,630.1582 68.9344,629.7832 Q68.3438,629.4832 67.9312,628.8457 Q67.5188,628.1988 67.5188,627.4301 L67.5188,626.7363 Q67.5188,625.9395 67.8844,625.2551 Q68.2594,624.5613 68.9156,624.1957 Q69.5719,623.8207 70.3125,623.8207 Q70.7531,623.8207 71.1375,623.9238 Q71.5313,624.0176 71.8594,624.2332 Z " fill="#000000"/><text fill="#000000" font-family="sans-serif" font-size="8.4" lengthAdjust="spacing" textLength="65.8219" x="78.6" y="630.1863">Task_TaskHelper</text><line style="stroke:#181818;stroke-width:0.3;" x1="61.8" x2="145.6219" y1="636.3082" y2="636.3082"/><ellipse cx="67.8" cy="645.1945" fill="none" rx="1.8" ry="1.8" style="stroke:#038048;stroke-width:0.6;"/><text fill="#000000" font-family="sans-serif" font-size="8.4" lengthAdjust="spacing" textLength="62.1059" x="73.2" y="647.7727">id: int {readOnly}</text><ellipse cx="67.8" cy="656.3672" fill="none" rx="1.8" ry="1.8" style="stroke:#038048;stroke-width:0.6;"/><text fill="#000000" font-family="sans-serif" font-size="8.4" lengthAdjust="spacing" textLength="38.7434" x="73.2" y="658.9453">user: User</text><ellipse cx="67.8" cy="667.5398" fill="none" rx="1.8" ry="1.8" style="stroke:#038048;stroke-width:0.6;"/><text fill="#000000" font-family="sans-serif" font-size="8.4" lengthAdjust="spacing" textLength="38.2758" x="73.2" y="670.118">task: Task</text><line style="stroke:#181818;stroke-width:0.3;" x1="61.8" x2="145.6219" y1="674.6262" y2="674.6262"/></g><!--class RecurrenceCycle--><g id="elem_RecurrenceCycle"><rect codeLine="161" fill="#F1F1F1" height="51.1453" id="RecurrenceCycle" rx="1.5" ry="1.5" style="stroke:#181818;stroke-width:0.3;" width="92.6396" x="167.4" y="622.8082"/><ellipse cx="180.4574" cy="632.4082" fill="#ADD1B2" rx="6.6" ry="6.6" style="stroke:#181818;stroke-width:0.6;"/><path d="M182.1168,629.9332 Q182.2105,629.802 182.323,629.7363 Q182.4355,629.6707 182.5668,629.6707 Q182.7918,629.6707 182.9324,629.8301 Q183.073,629.9801 183.073,630.3457 L183.073,631.2176 Q183.073,631.5832 182.9324,631.7426 Q182.7918,631.902 182.5668,631.902 Q182.3605,631.902 182.2386,631.7801 Q182.1168,631.6676 182.0511,631.3582 Q182.023,631.1426 181.9105,631.0301 Q181.7136,630.8051 181.348,630.6738 Q180.9824,630.5426 180.6074,630.5426 Q180.148,630.5426 179.7636,630.7395 Q179.3886,630.9363 179.0886,631.3863 Q178.798,631.8363 178.798,632.4551 L178.798,633.1113 Q178.798,633.852 179.3324,634.3488 Q179.8668,634.8363 180.823,634.8363 Q181.3855,634.8363 181.7793,634.6863 Q182.0136,634.5926 182.2668,634.3301 Q182.4261,634.1707 182.5105,634.1238 Q182.6043,634.077 182.7261,634.077 Q182.923,634.077 183.073,634.2363 Q183.2324,634.3863 183.2324,634.5926 Q183.2324,634.7988 183.0261,635.0426 Q182.7261,635.3895 182.248,635.5863 Q181.6011,635.8582 180.823,635.8582 Q179.9136,635.8582 179.1918,635.4832 Q178.6011,635.1832 178.1886,634.5457 Q177.7761,633.8988 177.7761,633.1301 L177.7761,632.4363 Q177.7761,631.6395 178.1418,630.9551 Q178.5168,630.2613 179.173,629.8957 Q179.8293,629.5207 180.5699,629.5207 Q181.0105,629.5207 181.3949,629.6238 Q181.7886,629.7176 182.1168,629.9332 Z " fill="#000000"/><text fill="#000000" font-family="sans-serif" font-size="8.4" lengthAdjust="spacing" textLength="64.4232" x="189.759" y="635.8863">RecurrenceCycle</text><line style="stroke:#181818;stroke-width:0.3;" x1="168" x2="259.4396" y1="642.0082" y2="642.0082"/><ellipse cx="174" cy="650.8945" fill="none" rx="1.8" ry="1.8" style="stroke:#038048;stroke-width:0.6;"/><text fill="#000000" font-family="sans-serif" font-size="8.4" lengthAdjust="spacing" textLength="62.1059" x="179.4" y="653.4727">id: int {readOnly}</text><ellipse cx="174" cy="662.0672" fill="none" rx="1.8" ry="1.8" style="stroke:#038048;stroke-width:0.6;"/><text fill="#000000" font-family="sans-serif" font-size="8.4" lengthAdjust="spacing" textLength="77.0396" x="179.4" y="664.6453">name: str {readOnly}</text><line style="stroke:#181818;stroke-width:0.3;" x1="168" x2="259.4396" y1="669.1535" y2="669.1535"/></g><!--class RecurringTask--><g id="elem_RecurringTask"><rect codeLine="166" fill="#F1F1F1" height="73.4906" id="RecurringTask" rx="1.5" ry="1.5" style="stroke:#181818;stroke-width:0.3;" width="148.6506" x="280.8" y="611.7082"/><ellipse cx="325.2671" cy="621.3082" fill="#ADD1B2" rx="6.6" ry="6.6" style="stroke:#181818;stroke-width:0.6;"/><path d="M326.9265,618.8332 Q327.0202,618.702 327.1327,618.6363 Q327.2452,618.5707 327.3765,618.5707 Q327.6015,618.5707 327.7421,618.7301 Q327.8827,618.8801 327.8827,619.2457 L327.8827,620.1176 Q327.8827,620.4832 327.7421,620.6426 Q327.6015,620.802 327.3765,620.802 Q327.1702,620.802 327.0483,620.6801 Q326.9265,620.5676 326.8608,620.2582 Q326.8327,620.0426 326.7202,619.9301 Q326.5233,619.7051 326.1577,619.5738 Q325.7921,619.4426 325.4171,619.4426 Q324.9577,619.4426 324.5733,619.6395 Q324.1983,619.8363 323.8983,620.2863 Q323.6077,620.7363 323.6077,621.3551 L323.6077,622.0113 Q323.6077,622.752 324.1421,623.2488 Q324.6765,623.7363 325.6327,623.7363 Q326.1952,623.7363 326.589,623.5863 Q326.8233,623.4926 327.0765,623.2301 Q327.2358,623.0707 327.3202,623.0238 Q327.414,622.977 327.5358,622.977 Q327.7327,622.977 327.8827,623.1363 Q328.0421,623.2863 328.0421,623.4926 Q328.0421,623.6988 327.8358,623.9426 Q327.5358,624.2895 327.0577,624.4863 Q326.4108,624.7582 325.6327,624.7582 Q324.7233,624.7582 324.0015,624.3832 Q323.4108,624.0832 322.9983,623.4457 Q322.5858,622.7988 322.5858,622.0301 L322.5858,621.3363 Q322.5858,620.5395 322.9515,619.8551 Q323.3265,619.1613 323.9827,618.7957 Q324.639,618.4207 325.3796,618.4207 Q325.8202,618.4207 326.2046,618.5238 Q326.5983,618.6176 326.9265,618.8332 Z " fill="#000000"/><text fill="#000000" font-family="sans-serif" font-size="8.4" lengthAdjust="spacing" textLength="54.6164" x="337.5671" y="624.7863">RecurringTask</text><line style="stroke:#181818;stroke-width:0.3;" x1="281.4" x2="428.8506" y1="630.9082" y2="630.9082"/><ellipse cx="287.4" cy="639.7945" fill="none" rx="1.8" ry="1.8" style="stroke:#038048;stroke-width:0.6;"/><text fill="#000000" font-family="sans-serif" font-size="8.4" lengthAdjust="spacing" textLength="133.0506" x="292.8" y="642.3727">recurrence_cycle: RecurrenceCycle</text><ellipse cx="287.4" cy="650.9672" fill="none" rx="1.8" ry="1.8" style="stroke:#038048;stroke-width:0.6;"/><text fill="#000000" font-family="sans-serif" font-size="8.4" lengthAdjust="spacing" textLength="85.4396" x="292.8" y="653.5453">recurrence_interval: int</text><ellipse cx="287.4" cy="662.1398" fill="none" rx="1.8" ry="1.8" style="stroke:#038048;stroke-width:0.6;"/><text fill="#000000" font-family="sans-serif" font-size="8.4" lengthAdjust="spacing" textLength="122.3373" x="292.8" y="664.718">next_reset_at: datetime.datetime</text><ellipse cx="287.4" cy="673.3125" fill="none" rx="1.8" ry="1.8" style="stroke:#038048;stroke-width:0.6;"/><text fill="#000000" font-family="sans-serif" font-size="8.4" lengthAdjust="spacing" textLength="53.2301" x="292.8" y="675.8906">is_active: bool</text><line style="stroke:#181818;stroke-width:0.3;" x1="281.4" x2="428.8506" y1="680.3988" y2="680.3988"/></g><!--class NonRecurringTask--><g id="elem_NonRecurringTask"><rect codeLine="173" fill="#F1F1F1" height="51.1453" id="NonRecurringTask" rx="1.5" ry="1.5" style="stroke:#181818;stroke-width:0.3;" width="118.7994" x="450.6" y="622.8082"/><ellipse cx="472.908" cy="632.4082" fill="#ADD1B2" rx="6.6" ry="6.6" style="stroke:#181818;stroke-width:0.6;"/><path d="M474.5674,629.9332 Q474.6612,629.802 474.7737,629.7363 Q474.8862,629.6707 475.0174,629.6707 Q475.2424,629.6707 475.383,629.8301 Q475.5237,629.9801 475.5237,630.3457 L475.5237,631.2176 Q475.5237,631.5832 475.383,631.7426 Q475.2424,631.902 475.0174,631.902 Q474.8112,631.902 474.6893,631.7801 Q474.5674,631.6676 474.5018,631.3582 Q474.4737,631.1426 474.3612,631.0301 Q474.1643,630.8051 473.7987,630.6738 Q473.433,630.5426 473.058,630.5426 Q472.5987,630.5426 472.2143,630.7395 Q471.8393,630.9363 471.5393,631.3863 Q471.2487,631.8363 471.2487,632.4551 L471.2487,633.1113 Q471.2487,633.852 471.783,634.3488 Q472.3174,634.8363 473.2737,634.8363 Q473.8362,634.8363 474.2299,634.6863 Q474.4643,634.5926 474.7174,634.3301 Q474.8768,634.1707 474.9612,634.1238 Q475.0549,634.077 475.1768,634.077 Q475.3737,634.077 475.5237,634.2363 Q475.683,634.3863 475.683,634.5926 Q475.683,634.7988 475.4768,635.0426 Q475.1768,635.3895 474.6987,635.5863 Q474.0518,635.8582 473.2737,635.8582 Q472.3643,635.8582 471.6424,635.4832 Q471.0518,635.1832 470.6393,634.5457 Q470.2268,633.8988 470.2268,633.1301 L470.2268,632.4363 Q470.2268,631.6395 470.5924,630.9551 Q470.9674,630.2613 471.6237,629.8957 Q472.2799,629.5207 473.0205,629.5207 Q473.4612,629.5207 473.8455,629.6238 Q474.2393,629.7176 474.5674,629.9332 Z " fill="#000000"/><text fill="#000000" font-family="sans-serif" font-size="8.4" lengthAdjust="spacing" textLength="70.026" x="484.2654" y="635.8863">NonRecurringTask</text><line style="stroke:#181818;stroke-width:0.3;" x1="451.2" x2="568.7994" y1="642.0082" y2="642.0082"/><ellipse cx="457.2" cy="650.8945" fill="none" rx="1.8" ry="1.8" style="stroke:#038048;stroke-width:0.6;"/><text fill="#000000" font-family="sans-serif" font-size="8.4" lengthAdjust="spacing" textLength="56.0232" x="462.6" y="653.4727">project: Project</text><ellipse cx="457.2" cy="662.0672" fill="none" rx="1.8" ry="1.8" style="stroke:#038048;stroke-width:0.6;"/><text fill="#000000" font-family="sans-serif" font-size="8.4" lengthAdjust="spacing" textLength="103.1994" x="462.6" y="664.6453">deadline: datetime.datetime</text><line style="stroke:#181818;stroke-width:0.3;" x1="451.2" x2="568.7994" y1="669.1535" y2="669.1535"/></g><!--class ShoppingList--><g id="elem_ShoppingList"><rect codeLine="181" fill="#F1F1F1" height="118.1812" id="ShoppingList" rx="1.5" ry="1.5" style="stroke:#181818;stroke-width:0.3;" width="180.4172" x="590.7" y="589.2082"/><ellipse cx="654.0732" cy="598.8082" fill="#ADD1B2" rx="6.6" ry="6.6" style="stroke:#181818;stroke-width:0.6;"/><path d="M655.7326,596.3332 Q655.8264,596.202 655.9389,596.1363 Q656.0514,596.0707 656.1826,596.0707 Q656.4076,596.0707 656.5482,596.2301 Q656.6889,596.3801 656.6889,596.7457 L656.6889,597.6176 Q656.6889,597.9832 656.5482,598.1426 Q656.4076,598.302 656.1826,598.302 Q655.9764,598.302 655.8545,598.1801 Q655.7326,598.0676 655.667,597.7582 Q655.6389,597.5426 655.5264,597.4301 Q655.3295,597.2051 654.9639,597.0738 Q654.5982,596.9426 654.2232,596.9426 Q653.7639,596.9426 653.3795,597.1395 Q653.0045,597.3363 652.7045,597.7863 Q652.4139,598.2363 652.4139,598.8551 L652.4139,599.5113 Q652.4139,600.252 652.9482,600.7488 Q653.4826,601.2363 654.4389,601.2363 Q655.0014,601.2363 655.3951,601.0863 Q655.6295,600.9926 655.8826,600.7301 Q656.042,600.5707 656.1264,600.5238 Q656.2201,600.477 656.342,600.477 Q656.5389,600.477 656.6889,600.6363 Q656.8482,600.7863 656.8482,600.9926 Q656.8482,601.1988 656.642,601.4426 Q656.342,601.7895 655.8639,601.9863 Q655.217,602.2582 654.4389,602.2582 Q653.5295,602.2582 652.8076,601.8832 Q652.217,601.5832 651.8045,600.9457 Q651.392,600.2988 651.392,599.5301 L651.392,598.8363 Q651.392,598.0395 651.7576,597.3551 Q652.1326,596.6613 652.7889,596.2957 Q653.4451,595.9207 654.1857,595.9207 Q654.6264,595.9207 655.0107,596.0238 Q655.4045,596.1176 655.7326,596.3332 Z " fill="#000000"/><text fill="#000000" font-family="sans-serif" font-size="8.4" lengthAdjust="spacing" textLength="48.5707" x="666.3732" y="602.2863">ShoppingList</text><line style="stroke:#181818;stroke-width:0.3;" x1="591.3" x2="770.5172" y1="608.4082" y2="608.4082"/><ellipse cx="597.3" cy="617.2945" fill="none" rx="1.8" ry="1.8" style="stroke:#038048;stroke-width:0.6;"/><text fill="#000000" font-family="sans-serif" font-size="8.4" lengthAdjust="spacing" textLength="62.1059" x="602.7" y="619.8727">id: int {readOnly}</text><ellipse cx="597.3" cy="628.4672" fill="none" rx="1.8" ry="1.8" style="stroke:#038048;stroke-width:0.6;"/><text fill="#000000" font-family="sans-serif" font-size="8.4" lengthAdjust="spacing" textLength="125.6268" x="602.7" y="631.0453">household: Household {readOnly}</text><ellipse cx="597.3" cy="639.6398" fill="none" rx="1.8" ry="1.8" style="stroke:#038048;stroke-width:0.6;"/><text fill="#000000" font-family="sans-serif" font-size="8.4" lengthAdjust="spacing" textLength="105.9926" x="602.7" y="642.218">created_by: User {readOnly}</text><ellipse cx="597.3" cy="650.8125" fill="none" rx="1.8" ry="1.8" style="stroke:#038048;stroke-width:0.6;"/><text fill="#000000" font-family="sans-serif" font-size="8.4" lengthAdjust="spacing" textLength="56.0232" x="602.7" y="653.3906">project: Project</text><ellipse cx="597.3" cy="661.9852" fill="none" rx="1.8" ry="1.8" style="stroke:#038048;stroke-width:0.6;"/><text fill="#000000" font-family="sans-serif" font-size="8.4" lengthAdjust="spacing" textLength="164.8172" x="602.7" y="664.5633">area_of_responsibility: AreaOfResponsibility</text><ellipse cx="597.3" cy="673.1578" fill="none" rx="1.8" ry="1.8" style="stroke:#038048;stroke-width:0.6;"/><text fill="#000000" font-family="sans-serif" font-size="8.4" lengthAdjust="spacing" textLength="27.0703" x="602.7" y="675.7359">title: str</text><ellipse cx="597.3" cy="684.3305" fill="none" rx="1.8" ry="1.8" style="stroke:#038048;stroke-width:0.6;"/><text fill="#000000" font-family="sans-serif" font-size="8.4" lengthAdjust="spacing" textLength="153.1605" x="602.7" y="686.9086">created_at: datetime.datetime {readOnly}</text><ellipse cx="597.3" cy="695.5031" fill="none" rx="1.8" ry="1.8" style="stroke:#038048;stroke-width:0.6;"/><text fill="#000000" font-family="sans-serif" font-size="8.4" lengthAdjust="spacing" textLength="155.5066" x="602.7" y="698.0813">updated_at: datetime.datetime {readOnly}</text><line style="stroke:#181818;stroke-width:0.3;" x1="591.3" x2="770.5172" y1="702.5895" y2="702.5895"/></g><!--class ShoppingListItemCategory--><g id="elem_ShoppingListItemCategory"><rect codeLine="192" fill="#F1F1F1" height="62.318" id="ShoppingListItemCategory" rx="1.5" ry="1.5" style="stroke:#181818;stroke-width:0.3;" width="141.2268" x="33.3" y="765.6082"/><ellipse cx="52.666" cy="775.2082" fill="#ADD1B2" rx="6.6" ry="6.6" style="stroke:#181818;stroke-width:0.6;"/><path d="M54.3254,772.7332 Q54.4191,772.602 54.5316,772.5363 Q54.6441,772.4707 54.7754,772.4707 Q55.0004,772.4707 55.141,772.6301 Q55.2816,772.7801 55.2816,773.1457 L55.2816,774.0176 Q55.2816,774.3832 55.141,774.5426 Q55.0004,774.702 54.7754,774.702 Q54.5691,774.702 54.4472,774.5801 Q54.3254,774.4676 54.2597,774.1582 Q54.2316,773.9426 54.1191,773.8301 Q53.9222,773.6051 53.5566,773.4738 Q53.191,773.3426 52.816,773.3426 Q52.3566,773.3426 51.9722,773.5395 Q51.5972,773.7363 51.2972,774.1863 Q51.0066,774.6363 51.0066,775.2551 L51.0066,775.9113 Q51.0066,776.652 51.541,777.1488 Q52.0754,777.6363 53.0316,777.6363 Q53.5941,777.6363 53.9879,777.4863 Q54.2222,777.3926 54.4754,777.1301 Q54.6347,776.9707 54.7191,776.9238 Q54.8129,776.877 54.9347,776.877 Q55.1316,776.877 55.2816,777.0363 Q55.441,777.1863 55.441,777.3926 Q55.441,777.5988 55.2347,777.8426 Q54.9347,778.1895 54.4566,778.3863 Q53.8097,778.6582 53.0316,778.6582 Q52.1222,778.6582 51.4004,778.2832 Q50.8097,777.9832 50.3972,777.3457 Q49.9847,776.6988 49.9847,775.9301 L49.9847,775.2363 Q49.9847,774.4395 50.3504,773.7551 Q50.7254,773.0613 51.3816,772.6957 Q52.0379,772.3207 52.7785,772.3207 Q53.2191,772.3207 53.6035,772.4238 Q53.9972,772.5176 54.3254,772.7332 Z " fill="#000000"/><text fill="#000000" font-family="sans-serif" font-size="8.4" lengthAdjust="spacing" textLength="98.9912" x="63.3696" y="778.6863">ShoppingListItemCategory</text><line style="stroke:#181818;stroke-width:0.3;" x1="33.9" x2="173.9268" y1="784.8082" y2="784.8082"/><ellipse cx="39.9" cy="793.6945" fill="none" rx="1.8" ry="1.8" style="stroke:#038048;stroke-width:0.6;"/><text fill="#000000" font-family="sans-serif" font-size="8.4" lengthAdjust="spacing" textLength="62.1059" x="45.3" y="796.2727">id: int {readOnly}</text><ellipse cx="39.9" cy="804.8672" fill="none" rx="1.8" ry="1.8" style="stroke:#038048;stroke-width:0.6;"/><text fill="#000000" font-family="sans-serif" font-size="8.4" lengthAdjust="spacing" textLength="125.6268" x="45.3" y="807.4453">household: Household {readOnly}</text><ellipse cx="39.9" cy="816.0398" fill="none" rx="1.8" ry="1.8" style="stroke:#038048;stroke-width:0.6;"/><text fill="#000000" font-family="sans-serif" font-size="8.4" lengthAdjust="spacing" textLength="35.0109" x="45.3" y="818.618">name: str</text><line style="stroke:#181818;stroke-width:0.3;" x1="33.9" x2="173.9268" y1="823.1262" y2="823.1262"/></g><!--class ShoppingListItem--><g id="elem_ShoppingListItem"><rect codeLine="198" fill="#F1F1F1" height="73.4906" id="ShoppingListItem" rx="1.5" ry="1.5" style="stroke:#181818;stroke-width:0.3;" width="151.4766" x="195.6" y="760.2082"/><ellipse cx="236.3347" cy="769.8082" fill="#ADD1B2" rx="6.6" ry="6.6" style="stroke:#181818;stroke-width:0.6;"/><path d="M237.994,767.3332 Q238.0878,767.202 238.2003,767.1363 Q238.3128,767.0707 238.444,767.0707 Q238.669,767.0707 238.8097,767.2301 Q238.9503,767.3801 238.9503,767.7457 L238.9503,768.6176 Q238.9503,768.9832 238.8097,769.1426 Q238.669,769.302 238.444,769.302 Q238.2378,769.302 238.1159,769.1801 Q237.994,769.0676 237.9284,768.7582 Q237.9003,768.5426 237.7878,768.4301 Q237.5909,768.2051 237.2253,768.0738 Q236.8597,767.9426 236.4847,767.9426 Q236.0253,767.9426 235.6409,768.1395 Q235.2659,768.3363 234.9659,768.7863 Q234.6753,769.2363 234.6753,769.8551 L234.6753,770.5113 Q234.6753,771.252 235.2097,771.7488 Q235.744,772.2363 236.7003,772.2363 Q237.2628,772.2363 237.6565,772.0863 Q237.8909,771.9926 238.144,771.7301 Q238.3034,771.5707 238.3878,771.5238 Q238.4815,771.477 238.6034,771.477 Q238.8003,771.477 238.9503,771.6363 Q239.1097,771.7863 239.1097,771.9926 Q239.1097,772.1988 238.9034,772.4426 Q238.6034,772.7895 238.1253,772.9863 Q237.4784,773.2582 236.7003,773.2582 Q235.7909,773.2582 235.069,772.8832 Q234.4784,772.5832 234.0659,771.9457 Q233.6534,771.2988 233.6534,770.5301 L233.6534,769.8363 Q233.6534,769.0395 234.019,768.3551 Q234.394,767.6613 235.0503,767.2957 Q235.7065,766.9207 236.4472,766.9207 Q236.8878,766.9207 237.2722,767.0238 Q237.6659,767.1176 237.994,767.3332 Z " fill="#000000"/><text fill="#000000" font-family="sans-serif" font-size="8.4" lengthAdjust="spacing" textLength="64.9072" x="248.6347" y="773.2863">ShoppingListItem</text><line style="stroke:#181818;stroke-width:0.3;" x1="196.2" x2="346.4766" y1="779.4082" y2="779.4082"/><ellipse cx="202.2" cy="788.2945" fill="none" rx="1.8" ry="1.8" style="stroke:#038048;stroke-width:0.6;"/><text fill="#000000" font-family="sans-serif" font-size="8.4" lengthAdjust="spacing" textLength="62.1059" x="207.6" y="790.8727">id: int {readOnly}</text><ellipse cx="202.2" cy="799.4672" fill="none" rx="1.8" ry="1.8" style="stroke:#038048;stroke-width:0.6;"/><text fill="#000000" font-family="sans-serif" font-size="8.4" lengthAdjust="spacing" textLength="125.6268" x="207.6" y="802.0453">household: Household {readOnly}</text><ellipse cx="202.2" cy="810.6398" fill="none" rx="1.8" ry="1.8" style="stroke:#038048;stroke-width:0.6;"/><text fill="#000000" font-family="sans-serif" font-size="8.4" lengthAdjust="spacing" textLength="135.8766" x="207.6" y="813.218">category: ShoppingListItemCategory</text><ellipse cx="202.2" cy="821.8125" fill="none" rx="1.8" ry="1.8" style="stroke:#038048;stroke-width:0.6;"/><text fill="#000000" font-family="sans-serif" font-size="8.4" lengthAdjust="spacing" textLength="27.0703" x="207.6" y="824.3906">title: str</text><line style="stroke:#181818;stroke-width:0.3;" x1="196.2" x2="346.4766" y1="828.8988" y2="828.8988"/></g><!--class ShoppingList_ShoppingListItem--><g id="elem_ShoppingList_ShoppingListItem"><rect codeLine="205" fill="#F1F1F1" height="107.0086" id="ShoppingList_ShoppingListItem" rx="1.5" ry="1.5" style="stroke:#181818;stroke-width:0.3;" width="137.3496" x="368.1" y="743.4082"/><ellipse cx="377.1" cy="753.0082" fill="#ADD1B2" rx="6.6" ry="6.6" style="stroke:#181818;stroke-width:0.6;"/><path d="M378.7594,750.5332 Q378.8531,750.402 378.9656,750.3363 Q379.0781,750.2707 379.2094,750.2707 Q379.4344,750.2707 379.575,750.4301 Q379.7156,750.5801 379.7156,750.9457 L379.7156,751.8176 Q379.7156,752.1832 379.575,752.3426 Q379.4344,752.502 379.2094,752.502 Q379.0031,752.502 378.8812,752.3801 Q378.7594,752.2676 378.6937,751.9582 Q378.6656,751.7426 378.5531,751.6301 Q378.3563,751.4051 377.9906,751.2738 Q377.625,751.1426 377.25,751.1426 Q376.7906,751.1426 376.4063,751.3395 Q376.0313,751.5363 375.7313,751.9863 Q375.4406,752.4363 375.4406,753.0551 L375.4406,753.7113 Q375.4406,754.452 375.975,754.9488 Q376.5094,755.4363 377.4656,755.4363 Q378.0281,755.4363 378.4219,755.2863 Q378.6563,755.1926 378.9094,754.9301 Q379.0687,754.7707 379.1531,754.7238 Q379.2469,754.677 379.3688,754.677 Q379.5656,754.677 379.7156,754.8363 Q379.875,754.9863 379.875,755.1926 Q379.875,755.3988 379.6688,755.6426 Q379.3688,755.9895 378.8906,756.1863 Q378.2438,756.4582 377.4656,756.4582 Q376.5563,756.4582 375.8344,756.0832 Q375.2438,755.7832 374.8313,755.1457 Q374.4188,754.4988 374.4188,753.7301 L374.4188,753.0363 Q374.4188,752.2395 374.7844,751.5551 Q375.1594,750.8613 375.8156,750.4957 Q376.4719,750.1207 377.2125,750.1207 Q377.6531,750.1207 378.0375,750.2238 Q378.4313,750.3176 378.7594,750.5332 Z " fill="#000000"/><text fill="#000000" font-family="sans-serif" font-size="8.4" lengthAdjust="spacing" textLength="118.1496" x="385.5" y="756.4863">ShoppingList_ShoppingListItem</text><line style="stroke:#181818;stroke-width:0.3;" x1="368.7" x2="504.8496" y1="762.6082" y2="762.6082"/><ellipse cx="374.7" cy="771.4945" fill="none" rx="1.8" ry="1.8" style="stroke:#038048;stroke-width:0.6;"/><text fill="#000000" font-family="sans-serif" font-size="8.4" lengthAdjust="spacing" textLength="62.1059" x="380.1" y="774.0727">id: int {readOnly}</text><ellipse cx="374.7" cy="782.6672" fill="none" rx="1.8" ry="1.8" style="stroke:#038048;stroke-width:0.6;"/><text fill="#000000" font-family="sans-serif" font-size="8.4" lengthAdjust="spacing" textLength="63.5045" x="380.1" y="785.2453">list: ShoppingList</text><ellipse cx="374.7" cy="793.8398" fill="none" rx="1.8" ry="1.8" style="stroke:#038048;stroke-width:0.6;"/><text fill="#000000" font-family="sans-serif" font-size="8.4" lengthAdjust="spacing" textLength="85.4438" x="380.1" y="796.418">item: ShoppingListItem</text><ellipse cx="374.7" cy="805.0125" fill="none" rx="1.8" ry="1.8" style="stroke:#038048;stroke-width:0.6;"/><text fill="#000000" font-family="sans-serif" font-size="8.4" lengthAdjust="spacing" textLength="49.9652" x="380.1" y="807.5906">quantity: float</text><ellipse cx="374.7" cy="816.1852" fill="none" rx="1.8" ry="1.8" style="stroke:#038048;stroke-width:0.6;"/><text fill="#000000" font-family="sans-serif" font-size="8.4" lengthAdjust="spacing" textLength="27.542" x="380.1" y="818.7633">unit: str</text><ellipse cx="374.7" cy="827.3578" fill="none" rx="1.8" ry="1.8" style="stroke:#038048;stroke-width:0.6;"/><text fill="#000000" font-family="sans-serif" font-size="8.4" lengthAdjust="spacing" textLength="30.3475" x="380.1" y="829.9359">note: str</text><ellipse cx="374.7" cy="838.5305" fill="none" rx="1.8" ry="1.8" style="stroke:#038048;stroke-width:0.6;"/><text fill="#000000" font-family="sans-serif" font-size="8.4" lengthAdjust="spacing" textLength="49.9734" x="380.1" y="841.1086">is_done: bool</text><line style="stroke:#181818;stroke-width:0.3;" x1="368.7" x2="504.8496" y1="845.6168" y2="845.6168"/></g><!--SRC=[rLfHRzis47xtho2qXwPP7Iphcr04AFAm5bZN8DdsAZ0IRN6HIKsadNbT_ljE4YMH52bBgfsq1jguuNrtnxllZaUfEOuVy9gWu1DFI8QkCom44G7wia3mURKyyAcbq0U-5IJbMJ81LPdgaCfY-VaHqIH4b4dqfI0u-Soo_PEsoF26X4Z8GljT38AI916M8KhWcwGRSj5ySQlPvibuoDDYKZp-4AIO78eID3uAP8DfLeN1jRv4KPHYaSB-Sj3zo8l43XaL4OubtK4ixpdFdZ6OTOmsHAOy4UX0RFJTj7ivopDCMVlFr_RUQdSwSKOU8nDI8G3t6sT40-v8GLTxdvq6rCPBqSAYyYtFo0mwUpXdAOzwD4dR9VXPH8F6IecmewUb8BGAsTPVmCP2SvyseMAI0mzwb88rQ2_4N9fOLEzXGvzNjqJad0bwJpCgzvEBpALaVAvSaN9BWYswPb0HalVYBQdCUXqi8I8kQ2ufPzzuSxif-5yabfD3ht2dY7OJeVjzgDgeCoVmouYleiB8VkWdrhnq9M0weunOaRUgWRENQRpW7vYUH0mZVRzmd8rFOLw3GeCqKyFgSkCKFRPaJZIPfSwMEh3lkebgsvXJWzTR8VdcLogcbs47_UugyIXiQaimJadya44SNAVL2ur61X-xJ7sKP7EAR9cZjCTuDDUFEhOMLHKE58NM1lL40q6OWOsyidzlCPCLUrOPnxgHBQFIpZlZaZYuOBNZYTNuEnOFa-km19rayfXNMoCBTs2ioGlAYyhKZVgcBGg9vLQ4wAxwQGQ_8F6sA2XRzyhjMvkKll80hQDox6Eh3kcnjPRqZCg_Ff0idt8nTPw74XI5NPqObcwhz1CMa-jzVFnJ_RPXLw_WYjPm59UMGziLjopuGueTpYhFT7V8FxAiEYBTv3Xmm1XEmxNKx_V0CUYPFLlp4nlRNShp75oODMZeu9SRDGQ2TSpxmBCE1dfaozFm6a1hNkoVUKImtJX9ajNMGk-c_PdnEXlDzxoUQNfreKyrjlAJpofF2qOUSxmc2_506SnEkDbGsGhaFYU85pBb8BZ8pUUzjoJ3vK4w-Obl2vo0geeqk0pG-NA9WfykBiu3-xbMY89xad6s5aZoe49P4WgtN9vNgZhwp8TMTqc0frWW7DIaSJudQXMCCTvS9BqW1qQxcys3LMIUv6Prkan267rzDdAwfzwkDrgBcHUJYFhZZPeBGKlQg9VB2jty5iGfs_5iHn9e76DX3UjQQ6cnnmBJIV-b31J59LE558YlR5f4FePK1lggL2MCLWBVBWzuHmMAKmevARrpC4-5Het8fWyEIJNqzkNqcTM4L5fA02mseJQ7h1PGoTjpQSCArG4_ifI0hnZMZN5jYJ1BEiMLMO5M1TzqyszllAiZk5p-TsMuIikjeNVlH0gpIXBHvEhAuROA_oYqeu9DYWsVaowQ3IEij3aKQWcSY6uxGEbM_Pt-2vLqlrTPQa-SPRV19ZhLnCQBuA2WklEIOKcTTnt9V0YjTHpqmsWbMiFm8xG6CiQ0GOSn0EVXQ4JAVverRFNfiFFeEAFcgEYVndEqU8w-gQhyqU6DAYtVzZdeR1xZuPuz78B2xDXCcTqGUGSNOHeJCVV_3RJuJt_U80wZzgoNvagBikr-RMhAgBVqT-Y7ov_XpzlUHIvgRoXdxGNe3LA5KLytNxlUbYgbRtkFp2BpBUfPzvJa3NAyLjNVJ1iRUh-LwS1-IpuCB1ky6P2pAUOKVOLkE508KXSUUC7Qmf_wBtASQrrj75WkJm6dYCxoWmBwMJ9AM0ajdlu7]--></g></svg>