<svg xmlns="http://www.w3.org/2000/svg" xmlns:xlink="http://www.w3.org/1999/xlink" contentStyleType="text/css" height="1141px" preserveAspectRatio="none" style="width:1636px;height:1141px;background:#FFFFFF;" version="1.1" viewBox="0 0 1636 1141" width="1636px" zoomAndPan="magnify"><defs/><g><!--cluster Model Relations--><g id="cluster_Model Relations"><path d="M8.5,6.0137 L116.8447,6.0137 A3.75,3.75 0 0 1 119.3447,8.5137 L126.3447,30.6348 L1574.5,30.6348 A2.5,2.5 0 0 1 1577,33.1348 L1577,1131.5137 A2.5,2.5 0 0 1 1574.5,1134.0137 L8.5,1134.0137 A2.5,2.5 0 0 1 6,1131.5137 L6,8.5137 A2.5,2.5 0 0 1 8.5,6.0137 " fill="none" style="stroke:#000000;stroke-width:1.5;"/><line style="stroke:#000000;stroke-width:1.5;" x1="6" x2="126.3447" y1="30.6348" y2="30.6348"/><text fill="#000000" font-family="sans-serif" font-size="14" font-weight="bold" lengthAdjust="spacing" textLength="107.3447" x="10" y="23.1211">Model Relations</text></g><!--class HouseholdRole--><g id="elem_HouseholdRole"><rect codeLine="227" fill="#F1F1F1" height="48" id="HouseholdRole" rx="2.5" ry="2.5" style="stroke:#181818;stroke-width:0.5;" width="127.7305" x="59" y="297.0137"/><ellipse cx="74" cy="313.0137" fill="#EB937F" rx="11" ry="11" style="stroke:#181818;stroke-width:1.0;"/><path d="M72.8594,313.8105 L72.8594,316.3105 L77.1875,316.3105 L77.1875,315.3887 Q77.1875,314.7793 77.4219,314.5137 Q77.6719,314.248 78.0469,314.248 Q78.4219,314.248 78.6563,314.5137 Q78.8906,314.7793 78.8906,315.3887 L78.8906,318.0137 L70.8906,318.0137 Q70.2656,318.0137 70,317.7793 Q69.75,317.5449 69.75,317.1543 Q69.75,316.7793 70.0156,316.5449 Q70.2813,316.3105 70.8906,316.3105 L71.1563,316.3105 L71.1563,309.6543 L70.8906,309.6543 Q70.2656,309.6543 70,309.4199 Q69.75,309.1855 69.75,308.7949 Q69.75,308.4199 70,308.1855 Q70.2656,307.9512 70.8906,307.9512 L78.5156,307.9512 L78.5156,310.5449 Q78.5156,311.1543 78.2813,311.4199 Q78.0625,311.6699 77.6719,311.6699 Q77.2969,311.6699 77.0625,311.4199 Q76.8281,311.1543 76.8281,310.5449 L76.8281,309.6543 L72.8594,309.6543 L72.8594,312.1074 L74.3438,312.1074 Q74.3438,311.4512 74.4688,311.2637 Q74.7344,310.8574 75.2031,310.8574 Q75.5781,310.8574 75.8125,311.123 Q76.0469,311.373 76.0469,311.9824 L76.0469,313.9512 Q76.0469,314.498 75.9219,314.6855 Q75.6563,315.0762 75.2031,315.0762 Q74.7344,315.0762 74.4688,314.6699 Q74.3438,314.4824 74.3438,313.8105 L72.8594,313.8105 Z " fill="#000000"/><text fill="#000000" font-family="sans-serif" font-size="14" lengthAdjust="spacing" textLength="95.7305" x="88" y="318.8105">HouseholdRole</text><line style="stroke:#181818;stroke-width:0.5;" x1="60" x2="185.7305" y1="329.0137" y2="329.0137"/><line style="stroke:#181818;stroke-width:0.5;" x1="60" x2="185.7305" y1="337.0137" y2="337.0137"/></g><!--class ProjectRole--><g id="elem_ProjectRole"><rect codeLine="228" fill="#F1F1F1" height="48" id="ProjectRole" rx="2.5" ry="2.5" style="stroke:#181818;stroke-width:0.5;" width="104.3652" x="1215" y="424.0137"/><ellipse cx="1230" cy="440.0137" fill="#EB937F" rx="11" ry="11" style="stroke:#181818;stroke-width:1.0;"/><path d="M1228.8594,440.8105 L1228.8594,443.3105 L1233.1875,443.3105 L1233.1875,442.3887 Q1233.1875,441.7793 1233.4219,441.5137 Q1233.6719,441.248 1234.0469,441.248 Q1234.4219,441.248 1234.6563,441.5137 Q1234.8906,441.7793 1234.8906,442.3887 L1234.8906,445.0137 L1226.8906,445.0137 Q1226.2656,445.0137 1226,444.7793 Q1225.75,444.5449 1225.75,444.1543 Q1225.75,443.7793 1226.0156,443.5449 Q1226.2813,443.3105 1226.8906,443.3105 L1227.1563,443.3105 L1227.1563,436.6543 L1226.8906,436.6543 Q1226.2656,436.6543 1226,436.4199 Q1225.75,436.1855 1225.75,435.7949 Q1225.75,435.4199 1226,435.1855 Q1226.2656,434.9512 1226.8906,434.9512 L1234.5156,434.9512 L1234.5156,437.5449 Q1234.5156,438.1543 1234.2813,438.4199 Q1234.0625,438.6699 1233.6719,438.6699 Q1233.2969,438.6699 1233.0625,438.4199 Q1232.8281,438.1543 1232.8281,437.5449 L1232.8281,436.6543 L1228.8594,436.6543 L1228.8594,439.1074 L1230.3438,439.1074 Q1230.3438,438.4512 1230.4688,438.2637 Q1230.7344,437.8574 1231.2031,437.8574 Q1231.5781,437.8574 1231.8125,438.123 Q1232.0469,438.373 1232.0469,438.9824 L1232.0469,440.9512 Q1232.0469,441.498 1231.9219,441.6855 Q1231.6563,442.0762 1231.2031,442.0762 Q1230.7344,442.0762 1230.4688,441.6699 Q1230.3438,441.4824 1230.3438,440.8105 L1228.8594,440.8105 Z " fill="#000000"/><text fill="#000000" font-family="sans-serif" font-size="14" lengthAdjust="spacing" textLength="72.3652" x="1244" y="445.8105">ProjectRole</text><line style="stroke:#181818;stroke-width:0.5;" x1="1216" x2="1318.3652" y1="456.0137" y2="456.0137"/><line style="stroke:#181818;stroke-width:0.5;" x1="1216" x2="1318.3652" y1="464.0137" y2="464.0137"/></g><!--class Priority--><g id="elem_Priority"><rect codeLine="229" fill="#F1F1F1" height="48" id="Priority" rx="2.5" ry="2.5" style="stroke:#181818;stroke-width:0.5;" width="75.5586" x="688" y="580.0137"/><ellipse cx="703" cy="596.0137" fill="#EB937F" rx="11" ry="11" style="stroke:#181818;stroke-width:1.0;"/><path d="M701.8594,596.8105 L701.8594,599.3105 L706.1875,599.3105 L706.1875,598.3887 Q706.1875,597.7793 706.4219,597.5137 Q706.6719,597.248 707.0469,597.248 Q707.4219,597.248 707.6563,597.5137 Q707.8906,597.7793 707.8906,598.3887 L707.8906,601.0137 L699.8906,601.0137 Q699.2656,601.0137 699,600.7793 Q698.75,600.5449 698.75,600.1543 Q698.75,599.7793 699.0156,599.5449 Q699.2813,599.3105 699.8906,599.3105 L700.1563,599.3105 L700.1563,592.6543 L699.8906,592.6543 Q699.2656,592.6543 699,592.4199 Q698.75,592.1855 698.75,591.7949 Q698.75,591.4199 699,591.1855 Q699.2656,590.9512 699.8906,590.9512 L707.5156,590.9512 L707.5156,593.5449 Q707.5156,594.1543 707.2813,594.4199 Q707.0625,594.6699 706.6719,594.6699 Q706.2969,594.6699 706.0625,594.4199 Q705.8281,594.1543 705.8281,593.5449 L705.8281,592.6543 L701.8594,592.6543 L701.8594,595.1074 L703.3438,595.1074 Q703.3438,594.4512 703.4688,594.2637 Q703.7344,593.8574 704.2031,593.8574 Q704.5781,593.8574 704.8125,594.123 Q705.0469,594.373 705.0469,594.9824 L705.0469,596.9512 Q705.0469,597.498 704.9219,597.6855 Q704.6563,598.0762 704.2031,598.0762 Q703.7344,598.0762 703.4688,597.6699 Q703.3438,597.4824 703.3438,596.8105 L701.8594,596.8105 Z " fill="#000000"/><text fill="#000000" font-family="sans-serif" font-size="14" lengthAdjust="spacing" textLength="43.5586" x="717" y="601.8105">Priority</text><line style="stroke:#181818;stroke-width:0.5;" x1="689" x2="762.5586" y1="612.0137" y2="612.0137"/><line style="stroke:#181818;stroke-width:0.5;" x1="689" x2="762.5586" y1="620.0137" y2="620.0137"/></g><!--class Status--><g id="elem_Status"><rect codeLine="230" fill="#F1F1F1" height="48" id="Status" rx="2.5" ry="2.5" style="stroke:#181818;stroke-width:0.5;" width="71.6895" x="581" y="580.0137"/><ellipse cx="596" cy="596.0137" fill="#EB937F" rx="11" ry="11" style="stroke:#181818;stroke-width:1.0;"/><path d="M594.8594,596.8105 L594.8594,599.3105 L599.1875,599.3105 L599.1875,598.3887 Q599.1875,597.7793 599.4219,597.5137 Q599.6719,597.248 600.0469,597.248 Q600.4219,597.248 600.6563,597.5137 Q600.8906,597.7793 600.8906,598.3887 L600.8906,601.0137 L592.8906,601.0137 Q592.2656,601.0137 592,600.7793 Q591.75,600.5449 591.75,600.1543 Q591.75,599.7793 592.0156,599.5449 Q592.2813,599.3105 592.8906,599.3105 L593.1563,599.3105 L593.1563,592.6543 L592.8906,592.6543 Q592.2656,592.6543 592,592.4199 Q591.75,592.1855 591.75,591.7949 Q591.75,591.4199 592,591.1855 Q592.2656,590.9512 592.8906,590.9512 L600.5156,590.9512 L600.5156,593.5449 Q600.5156,594.1543 600.2813,594.4199 Q600.0625,594.6699 599.6719,594.6699 Q599.2969,594.6699 599.0625,594.4199 Q598.8281,594.1543 598.8281,593.5449 L598.8281,592.6543 L594.8594,592.6543 L594.8594,595.1074 L596.3438,595.1074 Q596.3438,594.4512 596.4688,594.2637 Q596.7344,593.8574 597.2031,593.8574 Q597.5781,593.8574 597.8125,594.123 Q598.0469,594.373 598.0469,594.9824 L598.0469,596.9512 Q598.0469,597.498 597.9219,597.6855 Q597.6563,598.0762 597.2031,598.0762 Q596.7344,598.0762 596.4688,597.6699 Q596.3438,597.4824 596.3438,596.8105 L594.8594,596.8105 Z " fill="#000000"/><text fill="#000000" font-family="sans-serif" font-size="14" lengthAdjust="spacing" textLength="39.6895" x="610" y="601.8105">Status</text><line style="stroke:#181818;stroke-width:0.5;" x1="582" x2="651.6895" y1="612.0137" y2="612.0137"/><line style="stroke:#181818;stroke-width:0.5;" x1="582" x2="651.6895" y1="620.0137" y2="620.0137"/></g><!--class RecurrenceCycle--><g id="elem_RecurrenceCycle"><rect codeLine="231" fill="#F1F1F1" height="48" id="RecurrenceCycle" rx="2.5" ry="2.5" style="stroke:#181818;stroke-width:0.5;" width="139.3721" x="716.5" y="297.0137"/><ellipse cx="731.5" cy="313.0137" fill="#EB937F" rx="11" ry="11" style="stroke:#181818;stroke-width:1.0;"/><path d="M730.3594,313.8105 L730.3594,316.3105 L734.6875,316.3105 L734.6875,315.3887 Q734.6875,314.7793 734.9219,314.5137 Q735.1719,314.248 735.5469,314.248 Q735.9219,314.248 736.1563,314.5137 Q736.3906,314.7793 736.3906,315.3887 L736.3906,318.0137 L728.3906,318.0137 Q727.7656,318.0137 727.5,317.7793 Q727.25,317.5449 727.25,317.1543 Q727.25,316.7793 727.5156,316.5449 Q727.7813,316.3105 728.3906,316.3105 L728.6563,316.3105 L728.6563,309.6543 L728.3906,309.6543 Q727.7656,309.6543 727.5,309.4199 Q727.25,309.1855 727.25,308.7949 Q727.25,308.4199 727.5,308.1855 Q727.7656,307.9512 728.3906,307.9512 L736.0156,307.9512 L736.0156,310.5449 Q736.0156,311.1543 735.7813,311.4199 Q735.5625,311.6699 735.1719,311.6699 Q734.7969,311.6699 734.5625,311.4199 Q734.3281,311.1543 734.3281,310.5449 L734.3281,309.6543 L730.3594,309.6543 L730.3594,312.1074 L731.8438,312.1074 Q731.8438,311.4512 731.9688,311.2637 Q732.2344,310.8574 732.7031,310.8574 Q733.0781,310.8574 733.3125,311.123 Q733.5469,311.373 733.5469,311.9824 L733.5469,313.9512 Q733.5469,314.498 733.4219,314.6855 Q733.1563,315.0762 732.7031,315.0762 Q732.2344,315.0762 731.9688,314.6699 Q731.8438,314.4824 731.8438,313.8105 L730.3594,313.8105 Z " fill="#000000"/><text fill="#000000" font-family="sans-serif" font-size="14" lengthAdjust="spacing" textLength="107.3721" x="745.5" y="318.8105">RecurrenceCycle</text><line style="stroke:#181818;stroke-width:0.5;" x1="717.5" x2="854.8721" y1="329.0137" y2="329.0137"/><line style="stroke:#181818;stroke-width:0.5;" x1="717.5" x2="854.8721" y1="337.0137" y2="337.0137"/></g><!--class User--><g id="elem_User"><rect fill="#F1F1F1" height="48" id="User" rx="2.5" ry="2.5" style="stroke:#181818;stroke-width:0.5;" width="61.5586" x="943" y="43.0137"/><ellipse cx="958" cy="59.0137" fill="#ADD1B2" rx="11" ry="11" style="stroke:#181818;stroke-width:1.0;"/><path d="M960.7656,54.8887 Q960.9219,54.6699 961.1094,54.5605 Q961.2969,54.4512 961.5156,54.4512 Q961.8906,54.4512 962.125,54.7168 Q962.3594,54.9668 962.3594,55.5762 L962.3594,57.0293 Q962.3594,57.6387 962.125,57.9043 Q961.8906,58.1699 961.5156,58.1699 Q961.1719,58.1699 960.9688,57.9668 Q960.7656,57.7793 960.6563,57.2637 Q960.6094,56.9043 960.4219,56.7168 Q960.0938,56.3418 959.4844,56.123 Q958.875,55.9043 958.25,55.9043 Q957.4844,55.9043 956.8438,56.2324 Q956.2188,56.5605 955.7188,57.3105 Q955.2344,58.0605 955.2344,59.0918 L955.2344,60.1855 Q955.2344,61.4199 956.125,62.248 Q957.0156,63.0605 958.6094,63.0605 Q959.5469,63.0605 960.2031,62.8105 Q960.5938,62.6543 961.0156,62.2168 Q961.2813,61.9512 961.4219,61.873 Q961.5781,61.7949 961.7813,61.7949 Q962.1094,61.7949 962.3594,62.0605 Q962.625,62.3105 962.625,62.6543 Q962.625,62.998 962.2813,63.4043 Q961.7813,63.9824 960.9844,64.3105 Q959.9063,64.7637 958.6094,64.7637 Q957.0938,64.7637 955.8906,64.1387 Q954.9063,63.6387 954.2188,62.5762 Q953.5313,61.498 953.5313,60.2168 L953.5313,59.0605 Q953.5313,57.7324 954.1406,56.5918 Q954.7656,55.4355 955.8594,54.8262 Q956.9531,54.2012 958.1875,54.2012 Q958.9219,54.2012 959.5625,54.373 Q960.2188,54.5293 960.7656,54.8887 Z " fill="#000000"/><text fill="#000000" font-family="sans-serif" font-size="14" lengthAdjust="spacing" textLength="29.5586" x="972" y="64.8105">User</text><line style="stroke:#181818;stroke-width:0.5;" x1="944" x2="1003.5586" y1="75.0137" y2="75.0137"/><line style="stroke:#181818;stroke-width:0.5;" x1="944" x2="1003.5586" y1="83.0137" y2="83.0137"/></g><!--class Household_User--><g id="elem_Household_User"><rect fill="#F1F1F1" height="48" id="Household_User" rx="2.5" ry="2.5" style="stroke:#181818;stroke-width:0.5;" width="136.2822" x="55" y="170.0137"/><ellipse cx="70" cy="186.0137" fill="#ADD1B2" rx="11" ry="11" style="stroke:#181818;stroke-width:1.0;"/><path d="M72.7656,181.8887 Q72.9219,181.6699 73.1094,181.5605 Q73.2969,181.4512 73.5156,181.4512 Q73.8906,181.4512 74.125,181.7168 Q74.3594,181.9668 74.3594,182.5762 L74.3594,184.0293 Q74.3594,184.6387 74.125,184.9043 Q73.8906,185.1699 73.5156,185.1699 Q73.1719,185.1699 72.9688,184.9668 Q72.7656,184.7793 72.6563,184.2637 Q72.6094,183.9043 72.4219,183.7168 Q72.0938,183.3418 71.4844,183.123 Q70.875,182.9043 70.25,182.9043 Q69.4844,182.9043 68.8438,183.2324 Q68.2188,183.5605 67.7188,184.3105 Q67.2344,185.0605 67.2344,186.0918 L67.2344,187.1855 Q67.2344,188.4199 68.125,189.248 Q69.0156,190.0605 70.6094,190.0605 Q71.5469,190.0605 72.2031,189.8105 Q72.5938,189.6543 73.0156,189.2168 Q73.2813,188.9512 73.4219,188.873 Q73.5781,188.7949 73.7813,188.7949 Q74.1094,188.7949 74.3594,189.0605 Q74.625,189.3105 74.625,189.6543 Q74.625,189.998 74.2813,190.4043 Q73.7813,190.9824 72.9844,191.3105 Q71.9063,191.7637 70.6094,191.7637 Q69.0938,191.7637 67.8906,191.1387 Q66.9063,190.6387 66.2188,189.5762 Q65.5313,188.498 65.5313,187.2168 L65.5313,186.0605 Q65.5313,184.7324 66.1406,183.5918 Q66.7656,182.4355 67.8594,181.8262 Q68.9531,181.2012 70.1875,181.2012 Q70.9219,181.2012 71.5625,181.373 Q72.2188,181.5293 72.7656,181.8887 Z " fill="#000000"/><text fill="#000000" font-family="sans-serif" font-size="14" lengthAdjust="spacing" textLength="104.2822" x="84" y="191.8105">Household_User</text><line style="stroke:#181818;stroke-width:0.5;" x1="56" x2="190.2822" y1="202.0137" y2="202.0137"/><line style="stroke:#181818;stroke-width:0.5;" x1="56" x2="190.2822" y1="210.0137" y2="210.0137"/></g><!--class Household--><g id="elem_Household"><rect fill="#F1F1F1" height="48" id="Household" rx="2.5" ry="2.5" style="stroke:#181818;stroke-width:0.5;" width="98.9375" x="787.5" y="1070.0137"/><ellipse cx="802.5" cy="1086.0137" fill="#ADD1B2" rx="11" ry="11" style="stroke:#181818;stroke-width:1.0;"/><path d="M805.2656,1081.8887 Q805.4219,1081.6699 805.6094,1081.5605 Q805.7969,1081.4512 806.0156,1081.4512 Q806.3906,1081.4512 806.625,1081.7168 Q806.8594,1081.9668 806.8594,1082.5762 L806.8594,1084.0293 Q806.8594,1084.6387 806.625,1084.9043 Q806.3906,1085.1699 806.0156,1085.1699 Q805.6719,1085.1699 805.4688,1084.9668 Q805.2656,1084.7793 805.1563,1084.2637 Q805.1094,1083.9043 804.9219,1083.7168 Q804.5938,1083.3418 803.9844,1083.123 Q803.375,1082.9043 802.75,1082.9043 Q801.9844,1082.9043 801.3438,1083.2324 Q800.7188,1083.5605 800.2188,1084.3105 Q799.7344,1085.0605 799.7344,1086.0918 L799.7344,1087.1855 Q799.7344,1088.4199 800.625,1089.248 Q801.5156,1090.0605 803.1094,1090.0605 Q804.0469,1090.0605 804.7031,1089.8105 Q805.0938,1089.6543 805.5156,1089.2168 Q805.7813,1088.9512 805.9219,1088.873 Q806.0781,1088.7949 806.2813,1088.7949 Q806.6094,1088.7949 806.8594,1089.0605 Q807.125,1089.3105 807.125,1089.6543 Q807.125,1089.998 806.7813,1090.4043 Q806.2813,1090.9824 805.4844,1091.3105 Q804.4063,1091.7637 803.1094,1091.7637 Q801.5938,1091.7637 800.3906,1091.1387 Q799.4063,1090.6387 798.7188,1089.5762 Q798.0313,1088.498 798.0313,1087.2168 L798.0313,1086.0605 Q798.0313,1084.7324 798.6406,1083.5918 Q799.2656,1082.4355 800.3594,1081.8262 Q801.4531,1081.2012 802.6875,1081.2012 Q803.4219,1081.2012 804.0625,1081.373 Q804.7188,1081.5293 805.2656,1081.8887 Z " fill="#000000"/><text fill="#000000" font-family="sans-serif" font-size="14" lengthAdjust="spacing" textLength="66.9375" x="816.5" y="1091.8105">Household</text><line style="stroke:#181818;stroke-width:0.5;" x1="788.5" x2="885.4375" y1="1102.0137" y2="1102.0137"/><line style="stroke:#181818;stroke-width:0.5;" x1="788.5" x2="885.4375" y1="1110.0137" y2="1110.0137"/></g><!--class AreaOfResponsibility--><g id="elem_AreaOfResponsibility"><rect fill="#F1F1F1" height="48" id="AreaOfResponsibility" rx="2.5" ry="2.5" style="stroke:#181818;stroke-width:0.5;" width="162.7236" x="755.5" y="863.0137"/><ellipse cx="770.5" cy="879.0137" fill="#ADD1B2" rx="11" ry="11" style="stroke:#181818;stroke-width:1.0;"/><path d="M773.2656,874.8887 Q773.4219,874.6699 773.6094,874.5605 Q773.7969,874.4512 774.0156,874.4512 Q774.3906,874.4512 774.625,874.7168 Q774.8594,874.9668 774.8594,875.5762 L774.8594,877.0293 Q774.8594,877.6387 774.625,877.9043 Q774.3906,878.1699 774.0156,878.1699 Q773.6719,878.1699 773.4688,877.9668 Q773.2656,877.7793 773.1563,877.2637 Q773.1094,876.9043 772.9219,876.7168 Q772.5938,876.3418 771.9844,876.123 Q771.375,875.9043 770.75,875.9043 Q769.9844,875.9043 769.3438,876.2324 Q768.7188,876.5605 768.2188,877.3105 Q767.7344,878.0605 767.7344,879.0918 L767.7344,880.1855 Q767.7344,881.4199 768.625,882.248 Q769.5156,883.0605 771.1094,883.0605 Q772.0469,883.0605 772.7031,882.8105 Q773.0938,882.6543 773.5156,882.2168 Q773.7813,881.9512 773.9219,881.873 Q774.0781,881.7949 774.2813,881.7949 Q774.6094,881.7949 774.8594,882.0605 Q775.125,882.3105 775.125,882.6543 Q775.125,882.998 774.7813,883.4043 Q774.2813,883.9824 773.4844,884.3105 Q772.4063,884.7637 771.1094,884.7637 Q769.5938,884.7637 768.3906,884.1387 Q767.4063,883.6387 766.7188,882.5762 Q766.0313,881.498 766.0313,880.2168 L766.0313,879.0605 Q766.0313,877.7324 766.6406,876.5918 Q767.2656,875.4355 768.3594,874.8262 Q769.4531,874.2012 770.6875,874.2012 Q771.4219,874.2012 772.0625,874.373 Q772.7188,874.5293 773.2656,874.8887 Z " fill="#000000"/><text fill="#000000" font-family="sans-serif" font-size="14" lengthAdjust="spacing" textLength="130.7236" x="784.5" y="884.8105">AreaOfResponsibility</text><line style="stroke:#181818;stroke-width:0.5;" x1="756.5" x2="917.2236" y1="895.0137" y2="895.0137"/><line style="stroke:#181818;stroke-width:0.5;" x1="756.5" x2="917.2236" y1="903.0137" y2="903.0137"/></g><!--class Project--><g id="elem_Project"><rect fill="#F1F1F1" height="48" id="Project" rx="2.5" ry="2.5" style="stroke:#181818;stroke-width:0.5;" width="75.5723" x="1015" y="580.0137"/><ellipse cx="1030" cy="596.0137" fill="#ADD1B2" rx="11" ry="11" style="stroke:#181818;stroke-width:1.0;"/><path d="M1032.7656,591.8887 Q1032.9219,591.6699 1033.1094,591.5605 Q1033.2969,591.4512 1033.5156,591.4512 Q1033.8906,591.4512 1034.125,591.7168 Q1034.3594,591.9668 1034.3594,592.5762 L1034.3594,594.0293 Q1034.3594,594.6387 1034.125,594.9043 Q1033.8906,595.1699 1033.5156,595.1699 Q1033.1719,595.1699 1032.9688,594.9668 Q1032.7656,594.7793 1032.6563,594.2637 Q1032.6094,593.9043 1032.4219,593.7168 Q1032.0938,593.3418 1031.4844,593.123 Q1030.875,592.9043 1030.25,592.9043 Q1029.4844,592.9043 1028.8438,593.2324 Q1028.2188,593.5605 1027.7188,594.3105 Q1027.2344,595.0605 1027.2344,596.0918 L1027.2344,597.1855 Q1027.2344,598.4199 1028.125,599.248 Q1029.0156,600.0605 1030.6094,600.0605 Q1031.5469,600.0605 1032.2031,599.8105 Q1032.5938,599.6543 1033.0156,599.2168 Q1033.2813,598.9512 1033.4219,598.873 Q1033.5781,598.7949 1033.7813,598.7949 Q1034.1094,598.7949 1034.3594,599.0605 Q1034.625,599.3105 1034.625,599.6543 Q1034.625,599.998 1034.2813,600.4043 Q1033.7813,600.9824 1032.9844,601.3105 Q1031.9063,601.7637 1030.6094,601.7637 Q1029.0938,601.7637 1027.8906,601.1387 Q1026.9063,600.6387 1026.2188,599.5762 Q1025.5313,598.498 1025.5313,597.2168 L1025.5313,596.0605 Q1025.5313,594.7324 1026.1406,593.5918 Q1026.7656,592.4355 1027.8594,591.8262 Q1028.9531,591.2012 1030.1875,591.2012 Q1030.9219,591.2012 1031.5625,591.373 Q1032.2188,591.5293 1032.7656,591.8887 Z " fill="#000000"/><text fill="#000000" font-family="sans-serif" font-size="14" lengthAdjust="spacing" textLength="43.5723" x="1044" y="601.8105">Project</text><line style="stroke:#181818;stroke-width:0.5;" x1="1016" x2="1089.5723" y1="612.0137" y2="612.0137"/><line style="stroke:#181818;stroke-width:0.5;" x1="1016" x2="1089.5723" y1="620.0137" y2="620.0137"/></g><!--class CustomList--><g id="elem_CustomList"><rect fill="#F1F1F1" height="48" id="CustomList" rx="2.5" ry="2.5" style="stroke:#181818;stroke-width:0.5;" width="102.0205" x="222" y="297.0137"/><ellipse cx="237" cy="313.0137" fill="#ADD1B2" rx="11" ry="11" style="stroke:#181818;stroke-width:1.0;"/><path d="M239.7656,308.8887 Q239.9219,308.6699 240.1094,308.5605 Q240.2969,308.4512 240.5156,308.4512 Q240.8906,308.4512 241.125,308.7168 Q241.3594,308.9668 241.3594,309.5762 L241.3594,311.0293 Q241.3594,311.6387 241.125,311.9043 Q240.8906,312.1699 240.5156,312.1699 Q240.1719,312.1699 239.9688,311.9668 Q239.7656,311.7793 239.6563,311.2637 Q239.6094,310.9043 239.4219,310.7168 Q239.0938,310.3418 238.4844,310.123 Q237.875,309.9043 237.25,309.9043 Q236.4844,309.9043 235.8438,310.2324 Q235.2188,310.5605 234.7188,311.3105 Q234.2344,312.0605 234.2344,313.0918 L234.2344,314.1855 Q234.2344,315.4199 235.125,316.248 Q236.0156,317.0605 237.6094,317.0605 Q238.5469,317.0605 239.2031,316.8105 Q239.5938,316.6543 240.0156,316.2168 Q240.2813,315.9512 240.4219,315.873 Q240.5781,315.7949 240.7813,315.7949 Q241.1094,315.7949 241.3594,316.0605 Q241.625,316.3105 241.625,316.6543 Q241.625,316.998 241.2813,317.4043 Q240.7813,317.9824 239.9844,318.3105 Q238.9063,318.7637 237.6094,318.7637 Q236.0938,318.7637 234.8906,318.1387 Q233.9063,317.6387 233.2188,316.5762 Q232.5313,315.498 232.5313,314.2168 L232.5313,313.0605 Q232.5313,311.7324 233.1406,310.5918 Q233.7656,309.4355 234.8594,308.8262 Q235.9531,308.2012 237.1875,308.2012 Q237.9219,308.2012 238.5625,308.373 Q239.2188,308.5293 239.7656,308.8887 Z " fill="#000000"/><text fill="#000000" font-family="sans-serif" font-size="14" lengthAdjust="spacing" textLength="70.0205" x="251" y="318.8105">CustomList</text><line style="stroke:#181818;stroke-width:0.5;" x1="223" x2="323.0205" y1="329.0137" y2="329.0137"/><line style="stroke:#181818;stroke-width:0.5;" x1="223" x2="323.0205" y1="337.0137" y2="337.0137"/></g><!--class CustomListItem--><g id="elem_CustomListItem"><rect fill="#F1F1F1" height="48" id="CustomListItem" rx="2.5" ry="2.5" style="stroke:#181818;stroke-width:0.5;" width="129.248" x="239.5" y="658.0137"/><ellipse cx="254.5" cy="674.0137" fill="#ADD1B2" rx="11" ry="11" style="stroke:#181818;stroke-width:1.0;"/><path d="M257.2656,669.8887 Q257.4219,669.6699 257.6094,669.5605 Q257.7969,669.4512 258.0156,669.4512 Q258.3906,669.4512 258.625,669.7168 Q258.8594,669.9668 258.8594,670.5762 L258.8594,672.0293 Q258.8594,672.6387 258.625,672.9043 Q258.3906,673.1699 258.0156,673.1699 Q257.6719,673.1699 257.4688,672.9668 Q257.2656,672.7793 257.1563,672.2637 Q257.1094,671.9043 256.9219,671.7168 Q256.5938,671.3418 255.9844,671.123 Q255.375,670.9043 254.75,670.9043 Q253.9844,670.9043 253.3438,671.2324 Q252.7188,671.5605 252.2188,672.3105 Q251.7344,673.0605 251.7344,674.0918 L251.7344,675.1855 Q251.7344,676.4199 252.625,677.248 Q253.5156,678.0605 255.1094,678.0605 Q256.0469,678.0605 256.7031,677.8105 Q257.0938,677.6543 257.5156,677.2168 Q257.7813,676.9512 257.9219,676.873 Q258.0781,676.7949 258.2813,676.7949 Q258.6094,676.7949 258.8594,677.0605 Q259.125,677.3105 259.125,677.6543 Q259.125,677.998 258.7813,678.4043 Q258.2813,678.9824 257.4844,679.3105 Q256.4063,679.7637 255.1094,679.7637 Q253.5938,679.7637 252.3906,679.1387 Q251.4063,678.6387 250.7188,677.5762 Q250.0313,676.498 250.0313,675.2168 L250.0313,674.0605 Q250.0313,672.7324 250.6406,671.5918 Q251.2656,670.4355 252.3594,669.8262 Q253.4531,669.2012 254.6875,669.2012 Q255.4219,669.2012 256.0625,669.373 Q256.7188,669.5293 257.2656,669.8887 Z " fill="#000000"/><text fill="#000000" font-family="sans-serif" font-size="14" lengthAdjust="spacing" textLength="97.248" x="268.5" y="679.8105">CustomListItem</text><line style="stroke:#181818;stroke-width:0.5;" x1="240.5" x2="367.748" y1="690.0137" y2="690.0137"/><line style="stroke:#181818;stroke-width:0.5;" x1="240.5" x2="367.748" y1="698.0137" y2="698.0137"/></g><!--class Task--><g id="elem_Task"><rect fill="#F1F1F1" height="48" id="Task" rx="2.5" ry="2.5" style="stroke:#181818;stroke-width:0.5;" width="62.3379" x="562" y="424.0137"/><ellipse cx="577" cy="440.0137" fill="#ADD1B2" rx="11" ry="11" style="stroke:#181818;stroke-width:1.0;"/><path d="M579.7656,435.8887 Q579.9219,435.6699 580.1094,435.5605 Q580.2969,435.4512 580.5156,435.4512 Q580.8906,435.4512 581.125,435.7168 Q581.3594,435.9668 581.3594,436.5762 L581.3594,438.0293 Q581.3594,438.6387 581.125,438.9043 Q580.8906,439.1699 580.5156,439.1699 Q580.1719,439.1699 579.9688,438.9668 Q579.7656,438.7793 579.6563,438.2637 Q579.6094,437.9043 579.4219,437.7168 Q579.0938,437.3418 578.4844,437.123 Q577.875,436.9043 577.25,436.9043 Q576.4844,436.9043 575.8438,437.2324 Q575.2188,437.5605 574.7188,438.3105 Q574.2344,439.0605 574.2344,440.0918 L574.2344,441.1855 Q574.2344,442.4199 575.125,443.248 Q576.0156,444.0605 577.6094,444.0605 Q578.5469,444.0605 579.2031,443.8105 Q579.5938,443.6543 580.0156,443.2168 Q580.2813,442.9512 580.4219,442.873 Q580.5781,442.7949 580.7813,442.7949 Q581.1094,442.7949 581.3594,443.0605 Q581.625,443.3105 581.625,443.6543 Q581.625,443.998 581.2813,444.4043 Q580.7813,444.9824 579.9844,445.3105 Q578.9063,445.7637 577.6094,445.7637 Q576.0938,445.7637 574.8906,445.1387 Q573.9063,444.6387 573.2188,443.5762 Q572.5313,442.498 572.5313,441.2168 L572.5313,440.0605 Q572.5313,438.7324 573.1406,437.5918 Q573.7656,436.4355 574.8594,435.8262 Q575.9531,435.2012 577.1875,435.2012 Q577.9219,435.2012 578.5625,435.373 Q579.2188,435.5293 579.7656,435.8887 Z " fill="#000000"/><text fill="#000000" font-family="sans-serif" font-size="14" lengthAdjust="spacing" textLength="30.3379" x="591" y="445.8105">Task</text><line style="stroke:#181818;stroke-width:0.5;" x1="563" x2="623.3379" y1="456.0137" y2="456.0137"/><line style="stroke:#181818;stroke-width:0.5;" x1="563" x2="623.3379" y1="464.0137" y2="464.0137"/></g><!--class ShoppingList--><g id="elem_ShoppingList"><rect fill="#F1F1F1" height="48" id="ShoppingList" rx="2.5" ry="2.5" style="stroke:#181818;stroke-width:0.5;" width="112.9512" x="1447.5" y="297.0137"/><ellipse cx="1462.5" cy="313.0137" fill="#ADD1B2" rx="11" ry="11" style="stroke:#181818;stroke-width:1.0;"/><path d="M1465.2656,308.8887 Q1465.4219,308.6699 1465.6094,308.5605 Q1465.7969,308.4512 1466.0156,308.4512 Q1466.3906,308.4512 1466.625,308.7168 Q1466.8594,308.9668 1466.8594,309.5762 L1466.8594,311.0293 Q1466.8594,311.6387 1466.625,311.9043 Q1466.3906,312.1699 1466.0156,312.1699 Q1465.6719,312.1699 1465.4688,311.9668 Q1465.2656,311.7793 1465.1563,311.2637 Q1465.1094,310.9043 1464.9219,310.7168 Q1464.5938,310.3418 1463.9844,310.123 Q1463.375,309.9043 1462.75,309.9043 Q1461.9844,309.9043 1461.3438,310.2324 Q1460.7188,310.5605 1460.2188,311.3105 Q1459.7344,312.0605 1459.7344,313.0918 L1459.7344,314.1855 Q1459.7344,315.4199 1460.625,316.248 Q1461.5156,317.0605 1463.1094,317.0605 Q1464.0469,317.0605 1464.7031,316.8105 Q1465.0938,316.6543 1465.5156,316.2168 Q1465.7813,315.9512 1465.9219,315.873 Q1466.0781,315.7949 1466.2813,315.7949 Q1466.6094,315.7949 1466.8594,316.0605 Q1467.125,316.3105 1467.125,316.6543 Q1467.125,316.998 1466.7813,317.4043 Q1466.2813,317.9824 1465.4844,318.3105 Q1464.4063,318.7637 1463.1094,318.7637 Q1461.5938,318.7637 1460.3906,318.1387 Q1459.4063,317.6387 1458.7188,316.5762 Q1458.0313,315.498 1458.0313,314.2168 L1458.0313,313.0605 Q1458.0313,311.7324 1458.6406,310.5918 Q1459.2656,309.4355 1460.3594,308.8262 Q1461.4531,308.2012 1462.6875,308.2012 Q1463.4219,308.2012 1464.0625,308.373 Q1464.7188,308.5293 1465.2656,308.8887 Z " fill="#000000"/><text fill="#000000" font-family="sans-serif" font-size="14" lengthAdjust="spacing" textLength="80.9512" x="1476.5" y="318.8105">ShoppingList</text><line style="stroke:#181818;stroke-width:0.5;" x1="1448.5" x2="1559.4512" y1="329.0137" y2="329.0137"/><line style="stroke:#181818;stroke-width:0.5;" x1="1448.5" x2="1559.4512" y1="337.0137" y2="337.0137"/></g><!--class ShoppingListItem--><g id="elem_ShoppingListItem"><rect fill="#F1F1F1" height="48" id="ShoppingListItem" rx="2.5" ry="2.5" style="stroke:#181818;stroke-width:0.5;" width="140.1787" x="1290" y="736.0137"/><ellipse cx="1305" cy="752.0137" fill="#ADD1B2" rx="11" ry="11" style="stroke:#181818;stroke-width:1.0;"/><path d="M1307.7656,747.8887 Q1307.9219,747.6699 1308.1094,747.5605 Q1308.2969,747.4512 1308.5156,747.4512 Q1308.8906,747.4512 1309.125,747.7168 Q1309.3594,747.9668 1309.3594,748.5762 L1309.3594,750.0293 Q1309.3594,750.6387 1309.125,750.9043 Q1308.8906,751.1699 1308.5156,751.1699 Q1308.1719,751.1699 1307.9688,750.9668 Q1307.7656,750.7793 1307.6563,750.2637 Q1307.6094,749.9043 1307.4219,749.7168 Q1307.0938,749.3418 1306.4844,749.123 Q1305.875,748.9043 1305.25,748.9043 Q1304.4844,748.9043 1303.8438,749.2324 Q1303.2188,749.5605 1302.7188,750.3105 Q1302.2344,751.0605 1302.2344,752.0918 L1302.2344,753.1855 Q1302.2344,754.4199 1303.125,755.248 Q1304.0156,756.0605 1305.6094,756.0605 Q1306.5469,756.0605 1307.2031,755.8105 Q1307.5938,755.6543 1308.0156,755.2168 Q1308.2813,754.9512 1308.4219,754.873 Q1308.5781,754.7949 1308.7813,754.7949 Q1309.1094,754.7949 1309.3594,755.0605 Q1309.625,755.3105 1309.625,755.6543 Q1309.625,755.998 1309.2813,756.4043 Q1308.7813,756.9824 1307.9844,757.3105 Q1306.9063,757.7637 1305.6094,757.7637 Q1304.0938,757.7637 1302.8906,757.1387 Q1301.9063,756.6387 1301.2188,755.5762 Q1300.5313,754.498 1300.5313,753.2168 L1300.5313,752.0605 Q1300.5313,750.7324 1301.1406,749.5918 Q1301.7656,748.4355 1302.8594,747.8262 Q1303.9531,747.2012 1305.1875,747.2012 Q1305.9219,747.2012 1306.5625,747.373 Q1307.2188,747.5293 1307.7656,747.8887 Z " fill="#000000"/><text fill="#000000" font-family="sans-serif" font-size="14" lengthAdjust="spacing" textLength="108.1787" x="1319" y="757.8105">ShoppingListItem</text><line style="stroke:#181818;stroke-width:0.5;" x1="1291" x2="1429.1787" y1="768.0137" y2="768.0137"/><line style="stroke:#181818;stroke-width:0.5;" x1="1291" x2="1429.1787" y1="776.0137" y2="776.0137"/></g><!--class ShoppingListItemCategory--><g id="elem_ShoppingListItemCategory"><rect fill="#F1F1F1" height="48" id="ShoppingListItemCategory" rx="2.5" ry="2.5" style="stroke:#181818;stroke-width:0.5;" width="196.9854" x="1199.5" y="863.0137"/><ellipse cx="1214.5" cy="879.0137" fill="#ADD1B2" rx="11" ry="11" style="stroke:#181818;stroke-width:1.0;"/><path d="M1217.2656,874.8887 Q1217.4219,874.6699 1217.6094,874.5605 Q1217.7969,874.4512 1218.0156,874.4512 Q1218.3906,874.4512 1218.625,874.7168 Q1218.8594,874.9668 1218.8594,875.5762 L1218.8594,877.0293 Q1218.8594,877.6387 1218.625,877.9043 Q1218.3906,878.1699 1218.0156,878.1699 Q1217.6719,878.1699 1217.4688,877.9668 Q1217.2656,877.7793 1217.1563,877.2637 Q1217.1094,876.9043 1216.9219,876.7168 Q1216.5938,876.3418 1215.9844,876.123 Q1215.375,875.9043 1214.75,875.9043 Q1213.9844,875.9043 1213.3438,876.2324 Q1212.7188,876.5605 1212.2188,877.3105 Q1211.7344,878.0605 1211.7344,879.0918 L1211.7344,880.1855 Q1211.7344,881.4199 1212.625,882.248 Q1213.5156,883.0605 1215.1094,883.0605 Q1216.0469,883.0605 1216.7031,882.8105 Q1217.0938,882.6543 1217.5156,882.2168 Q1217.7813,881.9512 1217.9219,881.873 Q1218.0781,881.7949 1218.2813,881.7949 Q1218.6094,881.7949 1218.8594,882.0605 Q1219.125,882.3105 1219.125,882.6543 Q1219.125,882.998 1218.7813,883.4043 Q1218.2813,883.9824 1217.4844,884.3105 Q1216.4063,884.7637 1215.1094,884.7637 Q1213.5938,884.7637 1212.3906,884.1387 Q1211.4063,883.6387 1210.7188,882.5762 Q1210.0313,881.498 1210.0313,880.2168 L1210.0313,879.0605 Q1210.0313,877.7324 1210.6406,876.5918 Q1211.2656,875.4355 1212.3594,874.8262 Q1213.4531,874.2012 1214.6875,874.2012 Q1215.4219,874.2012 1216.0625,874.373 Q1216.7188,874.5293 1217.2656,874.8887 Z " fill="#000000"/><text fill="#000000" font-family="sans-serif" font-size="14" lengthAdjust="spacing" textLength="164.9854" x="1228.5" y="884.8105">ShoppingListItemCategory</text><line style="stroke:#181818;stroke-width:0.5;" x1="1200.5" x2="1395.4854" y1="895.0137" y2="895.0137"/><line style="stroke:#181818;stroke-width:0.5;" x1="1200.5" x2="1395.4854" y1="903.0137" y2="903.0137"/></g><!--class ProjectGoal--><g id="elem_ProjectGoal"><rect fill="#F1F1F1" height="48" id="ProjectGoal" rx="2.5" ry="2.5" style="stroke:#181818;stroke-width:0.5;" width="105.1445" x="1029.5" y="736.0137"/><ellipse cx="1044.5" cy="752.0137" fill="#ADD1B2" rx="11" ry="11" style="stroke:#181818;stroke-width:1.0;"/><path d="M1047.2656,747.8887 Q1047.4219,747.6699 1047.6094,747.5605 Q1047.7969,747.4512 1048.0156,747.4512 Q1048.3906,747.4512 1048.625,747.7168 Q1048.8594,747.9668 1048.8594,748.5762 L1048.8594,750.0293 Q1048.8594,750.6387 1048.625,750.9043 Q1048.3906,751.1699 1048.0156,751.1699 Q1047.6719,751.1699 1047.4688,750.9668 Q1047.2656,750.7793 1047.1563,750.2637 Q1047.1094,749.9043 1046.9219,749.7168 Q1046.5938,749.3418 1045.9844,749.123 Q1045.375,748.9043 1044.75,748.9043 Q1043.9844,748.9043 1043.3438,749.2324 Q1042.7188,749.5605 1042.2188,750.3105 Q1041.7344,751.0605 1041.7344,752.0918 L1041.7344,753.1855 Q1041.7344,754.4199 1042.625,755.248 Q1043.5156,756.0605 1045.1094,756.0605 Q1046.0469,756.0605 1046.7031,755.8105 Q1047.0938,755.6543 1047.5156,755.2168 Q1047.7813,754.9512 1047.9219,754.873 Q1048.0781,754.7949 1048.2813,754.7949 Q1048.6094,754.7949 1048.8594,755.0605 Q1049.125,755.3105 1049.125,755.6543 Q1049.125,755.998 1048.7813,756.4043 Q1048.2813,756.9824 1047.4844,757.3105 Q1046.4063,757.7637 1045.1094,757.7637 Q1043.5938,757.7637 1042.3906,757.1387 Q1041.4063,756.6387 1040.7188,755.5762 Q1040.0313,754.498 1040.0313,753.2168 L1040.0313,752.0605 Q1040.0313,750.7324 1040.6406,749.5918 Q1041.2656,748.4355 1042.3594,747.8262 Q1043.4531,747.2012 1044.6875,747.2012 Q1045.4219,747.2012 1046.0625,747.373 Q1046.7188,747.5293 1047.2656,747.8887 Z " fill="#000000"/><text fill="#000000" font-family="sans-serif" font-size="14" lengthAdjust="spacing" textLength="73.1445" x="1058.5" y="757.8105">ProjectGoal</text><line style="stroke:#181818;stroke-width:0.5;" x1="1030.5" x2="1133.6445" y1="768.0137" y2="768.0137"/><line style="stroke:#181818;stroke-width:0.5;" x1="1030.5" x2="1133.6445" y1="776.0137" y2="776.0137"/></g><!--class User_Project--><g id="elem_User_Project"><rect fill="#F1F1F1" height="48" id="User_Project" rx="2.5" ry="2.5" style="stroke:#181818;stroke-width:0.5;" width="112.917" x="1299.5" y="297.0137"/><ellipse cx="1314.5" cy="313.0137" fill="#ADD1B2" rx="11" ry="11" style="stroke:#181818;stroke-width:1.0;"/><path d="M1317.2656,308.8887 Q1317.4219,308.6699 1317.6094,308.5605 Q1317.7969,308.4512 1318.0156,308.4512 Q1318.3906,308.4512 1318.625,308.7168 Q1318.8594,308.9668 1318.8594,309.5762 L1318.8594,311.0293 Q1318.8594,311.6387 1318.625,311.9043 Q1318.3906,312.1699 1318.0156,312.1699 Q1317.6719,312.1699 1317.4688,311.9668 Q1317.2656,311.7793 1317.1563,311.2637 Q1317.1094,310.9043 1316.9219,310.7168 Q1316.5938,310.3418 1315.9844,310.123 Q1315.375,309.9043 1314.75,309.9043 Q1313.9844,309.9043 1313.3438,310.2324 Q1312.7188,310.5605 1312.2188,311.3105 Q1311.7344,312.0605 1311.7344,313.0918 L1311.7344,314.1855 Q1311.7344,315.4199 1312.625,316.248 Q1313.5156,317.0605 1315.1094,317.0605 Q1316.0469,317.0605 1316.7031,316.8105 Q1317.0938,316.6543 1317.5156,316.2168 Q1317.7813,315.9512 1317.9219,315.873 Q1318.0781,315.7949 1318.2813,315.7949 Q1318.6094,315.7949 1318.8594,316.0605 Q1319.125,316.3105 1319.125,316.6543 Q1319.125,316.998 1318.7813,317.4043 Q1318.2813,317.9824 1317.4844,318.3105 Q1316.4063,318.7637 1315.1094,318.7637 Q1313.5938,318.7637 1312.3906,318.1387 Q1311.4063,317.6387 1310.7188,316.5762 Q1310.0313,315.498 1310.0313,314.2168 L1310.0313,313.0605 Q1310.0313,311.7324 1310.6406,310.5918 Q1311.2656,309.4355 1312.3594,308.8262 Q1313.4531,308.2012 1314.6875,308.2012 Q1315.4219,308.2012 1316.0625,308.373 Q1316.7188,308.5293 1317.2656,308.8887 Z " fill="#000000"/><text fill="#000000" font-family="sans-serif" font-size="14" lengthAdjust="spacing" textLength="80.917" x="1328.5" y="318.8105">User_Project</text><line style="stroke:#181818;stroke-width:0.5;" x1="1300.5" x2="1411.417" y1="329.0137" y2="329.0137"/><line style="stroke:#181818;stroke-width:0.5;" x1="1300.5" x2="1411.417" y1="337.0137" y2="337.0137"/></g><!--class CustomList_CustomListItem--><g id="elem_CustomList_CustomListItem"><rect fill="#F1F1F1" height="48" id="CustomList_CustomListItem" rx="2.5" ry="2.5" style="stroke:#181818;stroke-width:0.5;" width="207.0547" x="156.5" y="424.0137"/><ellipse cx="171.5" cy="440.0137" fill="#ADD1B2" rx="11" ry="11" style="stroke:#181818;stroke-width:1.0;"/><path d="M174.2656,435.8887 Q174.4219,435.6699 174.6094,435.5605 Q174.7969,435.4512 175.0156,435.4512 Q175.3906,435.4512 175.625,435.7168 Q175.8594,435.9668 175.8594,436.5762 L175.8594,438.0293 Q175.8594,438.6387 175.625,438.9043 Q175.3906,439.1699 175.0156,439.1699 Q174.6719,439.1699 174.4688,438.9668 Q174.2656,438.7793 174.1563,438.2637 Q174.1094,437.9043 173.9219,437.7168 Q173.5938,437.3418 172.9844,437.123 Q172.375,436.9043 171.75,436.9043 Q170.9844,436.9043 170.3438,437.2324 Q169.7188,437.5605 169.2188,438.3105 Q168.7344,439.0605 168.7344,440.0918 L168.7344,441.1855 Q168.7344,442.4199 169.625,443.248 Q170.5156,444.0605 172.1094,444.0605 Q173.0469,444.0605 173.7031,443.8105 Q174.0938,443.6543 174.5156,443.2168 Q174.7813,442.9512 174.9219,442.873 Q175.0781,442.7949 175.2813,442.7949 Q175.6094,442.7949 175.8594,443.0605 Q176.125,443.3105 176.125,443.6543 Q176.125,443.998 175.7813,444.4043 Q175.2813,444.9824 174.4844,445.3105 Q173.4063,445.7637 172.1094,445.7637 Q170.5938,445.7637 169.3906,445.1387 Q168.4063,444.6387 167.7188,443.5762 Q167.0313,442.498 167.0313,441.2168 L167.0313,440.0605 Q167.0313,438.7324 167.6406,437.5918 Q168.2656,436.4355 169.3594,435.8262 Q170.4531,435.2012 171.6875,435.2012 Q172.4219,435.2012 173.0625,435.373 Q173.7188,435.5293 174.2656,435.8887 Z " fill="#000000"/><text fill="#000000" font-family="sans-serif" font-size="14" lengthAdjust="spacing" textLength="175.0547" x="185.5" y="445.8105">CustomList_CustomListItem</text><line style="stroke:#181818;stroke-width:0.5;" x1="157.5" x2="362.5547" y1="456.0137" y2="456.0137"/><line style="stroke:#181818;stroke-width:0.5;" x1="157.5" x2="362.5547" y1="464.0137" y2="464.0137"/></g><!--class Task_TaskHelper--><g id="elem_Task_TaskHelper"><rect fill="#F1F1F1" height="48" id="Task_TaskHelper" rx="2.5" ry="2.5" style="stroke:#181818;stroke-width:0.5;" width="141.7031" x="359" y="297.0137"/><ellipse cx="374" cy="313.0137" fill="#ADD1B2" rx="11" ry="11" style="stroke:#181818;stroke-width:1.0;"/><path d="M376.7656,308.8887 Q376.9219,308.6699 377.1094,308.5605 Q377.2969,308.4512 377.5156,308.4512 Q377.8906,308.4512 378.125,308.7168 Q378.3594,308.9668 378.3594,309.5762 L378.3594,311.0293 Q378.3594,311.6387 378.125,311.9043 Q377.8906,312.1699 377.5156,312.1699 Q377.1719,312.1699 376.9688,311.9668 Q376.7656,311.7793 376.6563,311.2637 Q376.6094,310.9043 376.4219,310.7168 Q376.0938,310.3418 375.4844,310.123 Q374.875,309.9043 374.25,309.9043 Q373.4844,309.9043 372.8438,310.2324 Q372.2188,310.5605 371.7188,311.3105 Q371.2344,312.0605 371.2344,313.0918 L371.2344,314.1855 Q371.2344,315.4199 372.125,316.248 Q373.0156,317.0605 374.6094,317.0605 Q375.5469,317.0605 376.2031,316.8105 Q376.5938,316.6543 377.0156,316.2168 Q377.2813,315.9512 377.4219,315.873 Q377.5781,315.7949 377.7813,315.7949 Q378.1094,315.7949 378.3594,316.0605 Q378.625,316.3105 378.625,316.6543 Q378.625,316.998 378.2813,317.4043 Q377.7813,317.9824 376.9844,318.3105 Q375.9063,318.7637 374.6094,318.7637 Q373.0938,318.7637 371.8906,318.1387 Q370.9063,317.6387 370.2188,316.5762 Q369.5313,315.498 369.5313,314.2168 L369.5313,313.0605 Q369.5313,311.7324 370.1406,310.5918 Q370.7656,309.4355 371.8594,308.8262 Q372.9531,308.2012 374.1875,308.2012 Q374.9219,308.2012 375.5625,308.373 Q376.2188,308.5293 376.7656,308.8887 Z " fill="#000000"/><text fill="#000000" font-family="sans-serif" font-size="14" lengthAdjust="spacing" textLength="109.7031" x="388" y="318.8105">Task_TaskHelper</text><line style="stroke:#181818;stroke-width:0.5;" x1="360" x2="499.7031" y1="329.0137" y2="329.0137"/><line style="stroke:#181818;stroke-width:0.5;" x1="360" x2="499.7031" y1="337.0137" y2="337.0137"/></g><!--class RecurringTask--><g id="elem_RecurringTask"><rect fill="#F1F1F1" height="48" id="RecurringTask" rx="2.5" ry="2.5" style="stroke:#181818;stroke-width:0.5;" width="123.0273" x="536.5" y="297.0137"/><ellipse cx="551.5" cy="313.0137" fill="#ADD1B2" rx="11" ry="11" style="stroke:#181818;stroke-width:1.0;"/><path d="M554.2656,308.8887 Q554.4219,308.6699 554.6094,308.5605 Q554.7969,308.4512 555.0156,308.4512 Q555.3906,308.4512 555.625,308.7168 Q555.8594,308.9668 555.8594,309.5762 L555.8594,311.0293 Q555.8594,311.6387 555.625,311.9043 Q555.3906,312.1699 555.0156,312.1699 Q554.6719,312.1699 554.4688,311.9668 Q554.2656,311.7793 554.1563,311.2637 Q554.1094,310.9043 553.9219,310.7168 Q553.5938,310.3418 552.9844,310.123 Q552.375,309.9043 551.75,309.9043 Q550.9844,309.9043 550.3438,310.2324 Q549.7188,310.5605 549.2188,311.3105 Q548.7344,312.0605 548.7344,313.0918 L548.7344,314.1855 Q548.7344,315.4199 549.625,316.248 Q550.5156,317.0605 552.1094,317.0605 Q553.0469,317.0605 553.7031,316.8105 Q554.0938,316.6543 554.5156,316.2168 Q554.7813,315.9512 554.9219,315.873 Q555.0781,315.7949 555.2813,315.7949 Q555.6094,315.7949 555.8594,316.0605 Q556.125,316.3105 556.125,316.6543 Q556.125,316.998 555.7813,317.4043 Q555.2813,317.9824 554.4844,318.3105 Q553.4063,318.7637 552.1094,318.7637 Q550.5938,318.7637 549.3906,318.1387 Q548.4063,317.6387 547.7188,316.5762 Q547.0313,315.498 547.0313,314.2168 L547.0313,313.0605 Q547.0313,311.7324 547.6406,310.5918 Q548.2656,309.4355 549.3594,308.8262 Q550.4531,308.2012 551.6875,308.2012 Q552.4219,308.2012 553.0625,308.373 Q553.7188,308.5293 554.2656,308.8887 Z " fill="#000000"/><text fill="#000000" font-family="sans-serif" font-size="14" lengthAdjust="spacing" textLength="91.0273" x="565.5" y="318.8105">RecurringTask</text><line style="stroke:#181818;stroke-width:0.5;" x1="537.5" x2="658.5273" y1="329.0137" y2="329.0137"/><line style="stroke:#181818;stroke-width:0.5;" x1="537.5" x2="658.5273" y1="337.0137" y2="337.0137"/></g><!--class NonRecurringTask--><g id="elem_NonRecurringTask"><rect fill="#F1F1F1" height="48" id="NonRecurringTask" rx="2.5" ry="2.5" style="stroke:#181818;stroke-width:0.5;" width="148.71" x="965.5" y="297.0137"/><ellipse cx="980.5" cy="313.0137" fill="#ADD1B2" rx="11" ry="11" style="stroke:#181818;stroke-width:1.0;"/><path d="M983.2656,308.8887 Q983.4219,308.6699 983.6094,308.5605 Q983.7969,308.4512 984.0156,308.4512 Q984.3906,308.4512 984.625,308.7168 Q984.8594,308.9668 984.8594,309.5762 L984.8594,311.0293 Q984.8594,311.6387 984.625,311.9043 Q984.3906,312.1699 984.0156,312.1699 Q983.6719,312.1699 983.4688,311.9668 Q983.2656,311.7793 983.1563,311.2637 Q983.1094,310.9043 982.9219,310.7168 Q982.5938,310.3418 981.9844,310.123 Q981.375,309.9043 980.75,309.9043 Q979.9844,309.9043 979.3438,310.2324 Q978.7188,310.5605 978.2188,311.3105 Q977.7344,312.0605 977.7344,313.0918 L977.7344,314.1855 Q977.7344,315.4199 978.625,316.248 Q979.5156,317.0605 981.1094,317.0605 Q982.0469,317.0605 982.7031,316.8105 Q983.0938,316.6543 983.5156,316.2168 Q983.7813,315.9512 983.9219,315.873 Q984.0781,315.7949 984.2813,315.7949 Q984.6094,315.7949 984.8594,316.0605 Q985.125,316.3105 985.125,316.6543 Q985.125,316.998 984.7813,317.4043 Q984.2813,317.9824 983.4844,318.3105 Q982.4063,318.7637 981.1094,318.7637 Q979.5938,318.7637 978.3906,318.1387 Q977.4063,317.6387 976.7188,316.5762 Q976.0313,315.498 976.0313,314.2168 L976.0313,313.0605 Q976.0313,311.7324 976.6406,310.5918 Q977.2656,309.4355 978.3594,308.8262 Q979.4531,308.2012 980.6875,308.2012 Q981.4219,308.2012 982.0625,308.373 Q982.7188,308.5293 983.2656,308.8887 Z " fill="#000000"/><text fill="#000000" font-family="sans-serif" font-size="14" lengthAdjust="spacing" textLength="116.71" x="994.5" y="318.8105">NonRecurringTask</text><line style="stroke:#181818;stroke-width:0.5;" x1="966.5" x2="1113.21" y1="329.0137" y2="329.0137"/><line style="stroke:#181818;stroke-width:0.5;" x1="966.5" x2="1113.21" y1="337.0137" y2="337.0137"/></g><!--class ShoppingList_ShoppingListItem--><g id="elem_ShoppingList_ShoppingListItem"><rect fill="#F1F1F1" height="48" id="ShoppingList_ShoppingListItem" rx="2.5" ry="2.5" style="stroke:#181818;stroke-width:0.5;" width="228.916" x="1324.5" y="502.0137"/><ellipse cx="1339.5" cy="518.0137" fill="#ADD1B2" rx="11" ry="11" style="stroke:#181818;stroke-width:1.0;"/><path d="M1342.2656,513.8887 Q1342.4219,513.6699 1342.6094,513.5605 Q1342.7969,513.4512 1343.0156,513.4512 Q1343.3906,513.4512 1343.625,513.7168 Q1343.8594,513.9668 1343.8594,514.5762 L1343.8594,516.0293 Q1343.8594,516.6387 1343.625,516.9043 Q1343.3906,517.1699 1343.0156,517.1699 Q1342.6719,517.1699 1342.4688,516.9668 Q1342.2656,516.7793 1342.1563,516.2637 Q1342.1094,515.9043 1341.9219,515.7168 Q1341.5938,515.3418 1340.9844,515.123 Q1340.375,514.9043 1339.75,514.9043 Q1338.9844,514.9043 1338.3438,515.2324 Q1337.7188,515.5605 1337.2188,516.3105 Q1336.7344,517.0605 1336.7344,518.0918 L1336.7344,519.1855 Q1336.7344,520.4199 1337.625,521.248 Q1338.5156,522.0605 1340.1094,522.0605 Q1341.0469,522.0605 1341.7031,521.8105 Q1342.0938,521.6543 1342.5156,521.2168 Q1342.7813,520.9512 1342.9219,520.873 Q1343.0781,520.7949 1343.2813,520.7949 Q1343.6094,520.7949 1343.8594,521.0605 Q1344.125,521.3105 1344.125,521.6543 Q1344.125,521.998 1343.7813,522.4043 Q1343.2813,522.9824 1342.4844,523.3105 Q1341.4063,523.7637 1340.1094,523.7637 Q1338.5938,523.7637 1337.3906,523.1387 Q1336.4063,522.6387 1335.7188,521.5762 Q1335.0313,520.498 1335.0313,519.2168 L1335.0313,518.0605 Q1335.0313,516.7324 1335.6406,515.5918 Q1336.2656,514.4355 1337.3594,513.8262 Q1338.4531,513.2012 1339.6875,513.2012 Q1340.4219,513.2012 1341.0625,513.373 Q1341.7188,513.5293 1342.2656,513.8887 Z " fill="#000000"/><text fill="#000000" font-family="sans-serif" font-size="14" lengthAdjust="spacing" textLength="196.916" x="1353.5" y="523.8105">ShoppingList_ShoppingListItem</text><line style="stroke:#181818;stroke-width:0.5;" x1="1325.5" x2="1552.416" y1="534.0137" y2="534.0137"/><line style="stroke:#181818;stroke-width:0.5;" x1="1325.5" x2="1552.416" y1="542.0137" y2="542.0137"/></g><!--reverse link User to Household_User--><g id="link_User_Household_User"><path codeLine="235" d="M930.7901,67.6228 C836.3501,67.2228 557.79,70.5337 324,121.0137 C272.19,132.2037 215.54,153.3537 175.63,169.8537 " fill="none" id="User-backto-Household_User" style="stroke:#181818;stroke-width:1.0;"/><polygon fill="#181818" points="942.79,67.6737,936.807,63.6483,930.7901,67.6228,936.7731,71.6482,942.79,67.6737" style="stroke:#181818;stroke-width:1.0;"/><text fill="#000000" font-family="sans-serif" font-size="13" lengthAdjust="spacing" textLength="59.9917" x="325" y="136.042">belongs to</text><text fill="#000000" font-family="sans-serif" font-size="13" lengthAdjust="spacing" textLength="7.23" x="927.8409" y="62.9226">1</text><text fill="#000000" font-family="sans-serif" font-size="13" lengthAdjust="spacing" textLength="19.5127" x="167.7116" y="158.5502">0..*</text></g><!--link Household_User to Household--><g id="link_Household_User_Household"><path codeLine="236" d="M96.29,218.3837 C76.8,237.3437 51.94,265.9337 41,297.0137 C33.91,317.1337 40.59,323.6837 41,345.0137 C41.89,391.0437 57,712.9837 57,759.0137 C57,759.0137 57,759.0137 57,1000.5137 C57,1074.3637 603.5117,1089.2612 775.3217,1092.1612 " fill="none" id="Household_User-to-Household" style="stroke:#181818;stroke-width:1.0;"/><polygon fill="#181818" points="787.32,1092.3637,781.3884,1088.263,775.3217,1092.1612,781.2533,1096.2618,787.32,1092.3637" style="stroke:#181818;stroke-width:1.0;"/><text fill="#000000" font-family="sans-serif" font-size="13" lengthAdjust="spacing" textLength="59.9917" x="56" y="687.542">belongs to</text><text fill="#000000" font-family="sans-serif" font-size="13" lengthAdjust="spacing" textLength="19.5127" x="68.9431" y="240.0468">0..*</text><text fill="#000000" font-family="sans-serif" font-size="13" lengthAdjust="spacing" textLength="7.23" x="772.1992" y="1087.8601">1</text></g><!--link Household_User to HouseholdRole--><g id="link_Household_User_HouseholdRole"><path codeLine="237" d="M123,218.2337 C123,240.6837 123,262.5137 123,284.9237 " fill="none" id="Household_User-to-HouseholdRole" style="stroke:#181818;stroke-width:1.0;"/><polygon fill="#181818" points="123,296.9237,127,290.9237,123,284.9237,119,290.9237,123,296.9237" style="stroke:#181818;stroke-width:1.0;"/><text fill="#000000" font-family="sans-serif" font-size="13" lengthAdjust="spacing" textLength="31.8018" x="124" y="263.042">has a</text><text fill="#000000" font-family="sans-serif" font-size="13" lengthAdjust="spacing" textLength="19.5127" x="101.8298" y="239.8621">0..*</text><text fill="#000000" font-family="sans-serif" font-size="13" lengthAdjust="spacing" textLength="7.23" x="115.1671" y="285.6381">1</text></g><!--link AreaOfResponsibility to Household--><g id="link_AreaOfResponsibility_Household"><path codeLine="239" d="M837,911.1337 C837,950.6037 837,1018.5637 837,1057.9837 " fill="none" id="AreaOfResponsibility-to-Household" style="stroke:#181818;stroke-width:1.0;"/><polygon fill="#181818" points="837,1069.9837,841,1063.9837,837,1057.9837,833,1063.9837,837,1069.9837" style="stroke:#181818;stroke-width:1.0;"/><text fill="#000000" font-family="sans-serif" font-size="13" lengthAdjust="spacing" textLength="59.9917" x="838" y="1005.042">belongs to</text><text fill="#000000" font-family="sans-serif" font-size="13" lengthAdjust="spacing" textLength="19.5127" x="815.7805" y="933.1486">0..*</text><text fill="#000000" font-family="sans-serif" font-size="13" lengthAdjust="spacing" textLength="7.23" x="829.1406" y="1058.7135">1</text></g><!--link Project to Household--><g id="link_Project_Household"><path codeLine="240" d="M1081.47,628.2237 C1118.73,661.6037 1176.54,725.5637 1152,784.0137 C1095.13,919.4537 956.8859,1018.9617 885.9759,1063.5917 " fill="none" id="Project-to-Household" style="stroke:#181818;stroke-width:1.0;"/><polygon fill="#181818" points="875.82,1069.9837,883.0286,1070.173,885.9759,1063.5917,878.7673,1063.4024,875.82,1069.9837" style="stroke:#181818;stroke-width:1.0;"/><text fill="#000000" font-family="sans-serif" font-size="13" lengthAdjust="spacing" textLength="59.9917" x="1108" y="892.542">belongs to</text><text fill="#000000" font-family="sans-serif" font-size="13" lengthAdjust="spacing" textLength="19.5127" x="1066.9655" y="649.8498">0..*</text><text fill="#000000" font-family="sans-serif" font-size="13" lengthAdjust="spacing" textLength="7.23" x="877.9082" y="1058.7135">1</text></g><!--link CustomList to Household--><g id="link_CustomList_Household"><path codeLine="241" d="M223.9,345.1037 C193.56,362.2537 157.08,388.7637 139,424.0137 C118.79,463.4237 128,778.2237 128,822.5137 C128,822.5137 128,822.5137 128,1000.5137 C128,1067.1237 614.3451,1086.7137 775.4351,1091.4137 " fill="none" id="CustomList-to-Household" style="stroke:#181818;stroke-width:1.0;"/><polygon fill="#181818" points="787.43,1091.7637,781.5492,1087.5904,775.4351,1091.4137,781.3159,1095.587,787.43,1091.7637" style="stroke:#181818;stroke-width:1.0;"/><text fill="#000000" font-family="sans-serif" font-size="13" lengthAdjust="spacing" textLength="59.9917" x="128" y="765.542">belongs to</text><text fill="#000000" font-family="sans-serif" font-size="13" lengthAdjust="spacing" textLength="19.5127" x="194.5057" y="364.963">0..*</text><text fill="#000000" font-family="sans-serif" font-size="13" lengthAdjust="spacing" textLength="7.23" x="772.326" y="1106.7713">1</text></g><!--link CustomListItem to Household--><g id="link_CustomListItem_Household"><path codeLine="242" d="M320.47,706.4737 C337.61,733.2437 362,778.9737 362,822.5137 C362,822.5137 362,822.5137 362,1000.5137 C362,1086.4137 653.1101,1094.1411 775.0601,1093.7611 " fill="none" id="CustomListItem-to-Household" style="stroke:#181818;stroke-width:1.0;"/><polygon fill="#181818" points="787.06,1093.7237,781.0476,1089.7424,775.0601,1093.7611,781.0725,1097.7423,787.06,1093.7237" style="stroke:#181818;stroke-width:1.0;"/><text fill="#000000" font-family="sans-serif" font-size="13" lengthAdjust="spacing" textLength="59.9917" x="363" y="892.542">belongs to</text><text fill="#000000" font-family="sans-serif" font-size="13" lengthAdjust="spacing" textLength="19.5127" x="303.1124" y="728.1576">0..*</text><text fill="#000000" font-family="sans-serif" font-size="13" lengthAdjust="spacing" textLength="7.23" x="772.2325" y="1108.9792">1</text></g><!--link Task to Household--><g id="link_Task_Household"><path codeLine="243" d="M581.01,472.0637 C566.79,501.5737 545,554.7037 545,603.0137 C545,603.0137 545,603.0137 545,1000.5137 C545,1050.7637 692.2528,1075.7444 775.5628,1086.1644 " fill="none" id="Task-to-Household" style="stroke:#181818;stroke-width:1.0;"/><polygon fill="#181818" points="787.47,1087.6537,782.0128,1082.9399,775.5628,1086.1644,781.02,1090.8781,787.47,1087.6537" style="stroke:#181818;stroke-width:1.0;"/><text fill="#000000" font-family="sans-serif" font-size="13" lengthAdjust="spacing" textLength="59.9917" x="546" y="829.042">belongs to</text><text fill="#000000" font-family="sans-serif" font-size="13" lengthAdjust="spacing" textLength="19.5127" x="556.7931" y="494.0615">0..*</text><text fill="#000000" font-family="sans-serif" font-size="13" lengthAdjust="spacing" textLength="7.23" x="772.3722" y="1082.4288">1</text></g><!--link ShoppingList to Household--><g id="link_ShoppingList_Household"><path codeLine="244" d="M1533.76,345.1837 C1542.27,353.5637 1550.47,363.7637 1555,375.0137 C1629.9,560.8737 1500,622.1237 1500,822.5137 C1500,822.5137 1500,822.5137 1500,1000.5137 C1500,1062.4337 1052.471,1084.9001 898.551,1090.8501 " fill="none" id="ShoppingList-to-Household" style="stroke:#181818;stroke-width:1.0;"/><polygon fill="#181818" points="886.56,1091.3137,892.71,1095.0789,898.551,1090.8501,892.401,1087.0849,886.56,1091.3137" style="stroke:#181818;stroke-width:1.0;"/><text fill="#000000" font-family="sans-serif" font-size="13" lengthAdjust="spacing" textLength="59.9917" x="1508" y="765.542">belongs to</text><text fill="#000000" font-family="sans-serif" font-size="13" lengthAdjust="spacing" textLength="19.5127" x="1519.7668" y="367.2108">0..*</text><text fill="#000000" font-family="sans-serif" font-size="13" lengthAdjust="spacing" textLength="7.23" x="894.3747" y="1106.2152">1</text></g><!--link ShoppingListItem to Household--><g id="link_ShoppingListItem_Household"><path codeLine="245" d="M1400.4,784.1937 C1410.65,792.2237 1420.35,802.2237 1426,814.0137 C1437,836.9637 1442.42,867.7637 1414,911.0137 C1369.04,979.4437 1333.68,977.7537 1258,1009.0137 C1130.56,1061.6537 979.4014,1081.0051 898.7314,1088.2851 " fill="none" id="ShoppingListItem-to-Household" style="stroke:#181818;stroke-width:1.0;"/><polygon fill="#181818" points="886.78,1089.3637,893.1152,1092.8082,898.7314,1088.2851,892.3962,1084.8406,886.78,1089.3637" style="stroke:#181818;stroke-width:1.0;"/><text fill="#000000" font-family="sans-serif" font-size="13" lengthAdjust="spacing" textLength="59.9917" x="1391" y="956.042">belongs to</text><text fill="#000000" font-family="sans-serif" font-size="13" lengthAdjust="spacing" textLength="19.5127" x="1388.9726" y="806.2232">0..*</text><text fill="#000000" font-family="sans-serif" font-size="13" lengthAdjust="spacing" textLength="7.23" x="894.2931" y="1084.5632">1</text></g><!--link ShoppingListItemCategory to Household--><g id="link_ShoppingListItemCategory_Household"><path codeLine="246" d="M1277.06,911.2737 C1245.04,945.2837 1180.36,1008.0137 1112,1040.0137 C1038.35,1074.4837 955.5271,1085.6458 898.6471,1089.8658 " fill="none" id="ShoppingListItemCategory-to-Household" style="stroke:#181818;stroke-width:1.0;"/><polygon fill="#181818" points="886.68,1090.7537,892.9595,1094.2988,898.6471,1089.8658,892.3676,1086.3207,886.68,1090.7537" style="stroke:#181818;stroke-width:1.0;"/><text fill="#000000" font-family="sans-serif" font-size="13" lengthAdjust="spacing" textLength="59.9917" x="1190" y="1005.042">belongs to</text><text fill="#000000" font-family="sans-serif" font-size="13" lengthAdjust="spacing" textLength="19.5127" x="1251.0817" y="932.9114">0..*</text><text fill="#000000" font-family="sans-serif" font-size="13" lengthAdjust="spacing" textLength="7.23" x="894.5123" y="1086.0761">1</text></g><!--reverse link Project to ProjectGoal--><g id="link_Project_ProjectGoal"><path codeLine="248" d="M1059.562,639.8662 C1065.032,668.8962 1072.15,706.6937 1077.63,735.8037 " fill="none" id="Project-backto-ProjectGoal" style="stroke:#181818;stroke-width:1.0;"/><polygon fill="#181818" points="1057.34,628.0737,1054.5202,634.7106,1059.562,639.8662,1062.3818,633.2292,1057.34,628.0737" style="stroke:#181818;stroke-width:1.0;"/><text fill="#000000" font-family="sans-serif" font-size="13" lengthAdjust="spacing" textLength="20.96" x="1072" y="687.542">has</text><text fill="#000000" font-family="sans-serif" font-size="13" lengthAdjust="spacing" textLength="7.23" x="1050.6249" y="650.074">1</text><text fill="#000000" font-family="sans-serif" font-size="13" lengthAdjust="spacing" textLength="19.5127" x="1055.2941" y="724.8944">0..*</text></g><!--link User_Project to Project--><g id="link_User_Project_Project"><path codeLine="249" d="M1299.15,336.1737 C1250.22,350.9237 1180.5,378.3837 1135,424.0137 C1090.23,468.9137 1067.29,542.7337 1058.04,579.9837 " fill="none" id="User_Project-Project" style="stroke:#181818;stroke-width:1.0;"/><text fill="#000000" font-family="sans-serif" font-size="13" lengthAdjust="spacing" textLength="61.4263" x="1136" y="453.542">involved in</text><text fill="#000000" font-family="sans-serif" font-size="13" lengthAdjust="spacing" textLength="19.5127" x="1272.0999" y="334.0314">0..*</text><text fill="#000000" font-family="sans-serif" font-size="13" lengthAdjust="spacing" textLength="7.23" x="1060.3126" y="568.7135">1</text></g><!--link User_Project to ProjectRole--><g id="link_User_Project_ProjectRole"><path codeLine="250" d="M1336.37,345.0537 C1328.82,354.1937 1320.28,364.9237 1313,375.0137 C1301.54,390.8937 1289.67,409.5337 1280.86,423.8737 " fill="none" id="User_Project-ProjectRole" style="stroke:#181818;stroke-width:1.0;"/><text fill="#000000" font-family="sans-serif" font-size="13" lengthAdjust="spacing" textLength="65.0381" x="1314" y="390.042">involved as</text><text fill="#000000" font-family="sans-serif" font-size="13" lengthAdjust="spacing" textLength="19.5127" x="1310.3422" y="367.0491">0..*</text><text fill="#000000" font-family="sans-serif" font-size="13" lengthAdjust="spacing" textLength="7.23" x="1276.4974" y="412.5753">1</text></g><!--reverse link CustomList to CustomList_CustomListItem--><g id="link_CustomList_CustomList_CustomListItem"><path codeLine="252" d="M269.346,357.169 C267.006,379.619 264.73,401.5137 262.4,423.9237 " fill="none" id="CustomList-backto-CustomList_CustomListItem" style="stroke:#181818;stroke-width:1.0;"/><polygon fill="#181818" points="270.59,345.2337,265.9895,350.7867,269.346,357.169,273.9464,351.616,270.59,345.2337" style="stroke:#181818;stroke-width:1.0;"/><text fill="#000000" font-family="sans-serif" font-size="13" lengthAdjust="spacing" textLength="61.4136" x="268" y="390.042">consists of</text><text fill="#000000" font-family="sans-serif" font-size="13" lengthAdjust="spacing" textLength="7.23" x="262.2475" y="366.8621">1</text><text fill="#000000" font-family="sans-serif" font-size="13" lengthAdjust="spacing" textLength="19.5127" x="241.6393" y="412.6381">0..*</text></g><!--link CustomList_CustomListItem to CustomListItem--><g id="link_CustomList_CustomListItem_CustomListItem"><path codeLine="253" d="M264.38,472.1037 C272.79,516.4637 291.12,613.1137 299.57,657.6737 " fill="none" id="CustomList_CustomListItem-CustomListItem" style="stroke:#181818;stroke-width:1.0;"/><text fill="#000000" font-family="sans-serif" font-size="13" lengthAdjust="spacing" textLength="31.8018" x="279" y="531.542">has a</text><text fill="#000000" font-family="sans-serif" font-size="13" lengthAdjust="spacing" textLength="19.5127" x="244.1878" y="494.1113">0..*</text><text fill="#000000" font-family="sans-serif" font-size="13" lengthAdjust="spacing" textLength="7.23" x="290.6349" y="646.7327">1</text></g><!--link CustomList_CustomListItem to CustomList_CustomListItem--><g id="link_CustomList_CustomListItem_CustomList_CustomListItem"><path codeLine="254" d="M363.59,436.8837 C383.99,438.1637 398.5,441.8637 398.5,448.0137 C398.5,454.1637 383.99,457.8637 363.59,459.1437 " fill="none" id="CustomList_CustomListItem-CustomList_CustomListItem" style="stroke:#181818;stroke-width:1.0;"/><text fill="#000000" font-family="sans-serif" font-size="13" lengthAdjust="spacing" textLength="54.1899" x="404.5" y="453.542">is child of</text><text fill="#000000" font-family="sans-serif" font-size="13" lengthAdjust="spacing" textLength="19.5127" x="371.5577" y="432.542">0..*</text><text fill="#000000" font-family="sans-serif" font-size="13" lengthAdjust="spacing" textLength="21.6836" x="371.6341" y="456.3671">0..1</text></g><!--link Task to Priority--><g id="link_Task_Priority"><path codeLine="256" d="M619.22,472.1937 C628.92,481.1737 639.78,491.7637 649,502.0137 C671.7,527.2637 694.95,558.6837 709.88,579.7137 " fill="none" id="Task-Priority" style="stroke:#181818;stroke-width:1.0;"/><text fill="#000000" font-family="sans-serif" font-size="13" lengthAdjust="spacing" textLength="31.8018" x="687" y="531.542">has a</text><text fill="#000000" font-family="sans-serif" font-size="13" lengthAdjust="spacing" textLength="19.5127" x="604.3168" y="494.2232">0..*</text><text fill="#000000" font-family="sans-serif" font-size="13" lengthAdjust="spacing" textLength="7.23" x="698.1795" y="568.7825">1</text></g><!--link Task to Status--><g id="link_Task_Status"><path codeLine="257" d="M596.59,472.0737 C601.12,501.1037 608.85,550.6937 613.38,579.8037 " fill="none" id="Task-Status" style="stroke:#181818;stroke-width:1.0;"/><text fill="#000000" font-family="sans-serif" font-size="13" lengthAdjust="spacing" textLength="31.8018" x="609" y="531.542">has a</text><text fill="#000000" font-family="sans-serif" font-size="13" lengthAdjust="spacing" textLength="19.5127" x="576.1707" y="494.074">0..*</text><text fill="#000000" font-family="sans-serif" font-size="13" lengthAdjust="spacing" textLength="7.23" x="604.7104" y="568.8944">1</text></g><!--link Task_TaskHelper to Task--><g id="link_Task_TaskHelper_Task"><path codeLine="258" d="M460.28,345.2337 C489.55,367.6837 533.66,401.5137 562.89,423.9237 " fill="none" id="Task_TaskHelper-Task" style="stroke:#181818;stroke-width:1.0;"/><text fill="#000000" font-family="sans-serif" font-size="13" lengthAdjust="spacing" textLength="31.0781" x="522" y="390.042">helps</text><text fill="#000000" font-family="sans-serif" font-size="13" lengthAdjust="spacing" textLength="19.5127" x="446.179" y="366.8621">0..*</text><text fill="#000000" font-family="sans-serif" font-size="13" lengthAdjust="spacing" textLength="7.23" x="547.2636" y="412.6381">1</text></g><!--link RecurringTask to RecurrenceCycle--><g id="link_RecurringTask_RecurrenceCycle"><path codeLine="260" d="M659.56,321.0137 C677.76,321.0137 697.82,321.0137 716.49,321.0137 " fill="none" id="RecurringTask-RecurrenceCycle" style="stroke:#181818;stroke-width:1.0;"/><text fill="#000000" font-family="sans-serif" font-size="13" lengthAdjust="spacing" textLength="20.96" x="678" y="314.042">has</text><text fill="#000000" font-family="sans-serif" font-size="13" lengthAdjust="spacing" textLength="19.5127" x="667.3587" y="335.9876">0..*</text><text fill="#000000" font-family="sans-serif" font-size="13" lengthAdjust="spacing" textLength="7.23" x="701.4968" y="317.1282">1</text></g><!--link NonRecurringTask to Task--><g id="link_NonRecurringTask_Task"><path codeLine="263" d="M965.38,338.9837 C956.17,341.0437 946.87,343.0937 938,345.0137 C874.11,358.8737 856.24,355.0237 794,375.0137 C774.11,381.4037 770.6,386.7737 751,394.0137 C707.47,410.0837 694.83,408.7837 651,424.0137 C642.2,427.0737 649.5025,424.0387 640.8525,427.4687 " fill="none" id="NonRecurringTask-to-Task" style="stroke:#181818;stroke-width:1.0;"/><polygon fill="none" points="624.12,434.1037,643.0642,433.0462,638.6409,421.8912,624.12,434.1037" style="stroke:#181818;stroke-width:1.0;"/><text fill="#000000" font-family="sans-serif" font-size="13" lengthAdjust="spacing" textLength="20.23" x="795" y="390.042">is a</text></g><!--link RecurringTask to Task--><g id="link_RecurringTask_Task"><path codeLine="264" d="M597.07,345.2337 C596.17,367.6837 595.5423,383.5282 594.6423,405.9382 " fill="none" id="RecurringTask-to-Task" style="stroke:#181818;stroke-width:1.0;"/><polygon fill="none" points="593.92,423.9237,600.6375,406.1789,588.6471,405.6974,593.92,423.9237" style="stroke:#181818;stroke-width:1.0;"/><text fill="#000000" font-family="sans-serif" font-size="13" lengthAdjust="spacing" textLength="20.23" x="596" y="390.042">is a</text></g><!--reverse link ShoppingList to ShoppingList_ShoppingListItem--><g id="link_ShoppingList_ShoppingList_ShoppingListItem"><path codeLine="266" d="M1491.6976,356.575 C1488.7176,365.735 1489.47,365.0337 1488,375.0137 C1481.69,417.7737 1512.09,432.3137 1495,472.0137 C1490.08,483.4437 1481.34,493.5737 1472.21,501.8237 " fill="none" id="ShoppingList-backto-ShoppingList_ShoppingListItem" style="stroke:#181818;stroke-width:1.0;"/><polygon fill="#181818" points="1495.41,345.1637,1489.75,349.6319,1491.6976,356.575,1497.3576,352.1068,1495.41,345.1637" style="stroke:#181818;stroke-width:1.0;"/><text fill="#000000" font-family="sans-serif" font-size="13" lengthAdjust="spacing" textLength="61.4136" x="1489" y="390.042">consists of</text><text fill="#000000" font-family="sans-serif" font-size="13" lengthAdjust="spacing" textLength="7.23" x="1494.2033" y="367.1859">1</text><text fill="#000000" font-family="sans-serif" font-size="13" lengthAdjust="spacing" textLength="19.5127" x="1459.062" y="490.9193">0..*</text></g><!--link ShoppingList_ShoppingListItem to ShoppingListItem--><g id="link_ShoppingList_ShoppingListItem_ShoppingListItem"><path codeLine="267" d="M1431.14,550.1037 C1416.03,594.4637 1383.12,691.1137 1367.95,735.6737 " fill="none" id="ShoppingList_ShoppingListItem-ShoppingListItem" style="stroke:#181818;stroke-width:1.0;"/><text fill="#000000" font-family="sans-serif" font-size="13" lengthAdjust="spacing" textLength="31.8018" x="1421" y="609.542">has a</text><text fill="#000000" font-family="sans-serif" font-size="13" lengthAdjust="spacing" textLength="19.5127" x="1407.9812" y="572.1113">0..*</text><text fill="#000000" font-family="sans-serif" font-size="13" lengthAdjust="spacing" textLength="7.23" x="1362.0409" y="724.7327">1</text></g><!--link ShoppingListItem to ShoppingListItemCategory--><g id="link_ShoppingListItem_ShoppingListItemCategory"><path codeLine="268" d="M1348.48,784.2337 C1337.35,806.6837 1320.57,840.5137 1309.45,862.9237 " fill="none" id="ShoppingListItem-ShoppingListItemCategory" style="stroke:#181818;stroke-width:1.0;"/><text fill="#000000" font-family="sans-serif" font-size="13" lengthAdjust="spacing" textLength="84.5508" x="1333" y="829.042">categorized by</text><text fill="#000000" font-family="sans-serif" font-size="13" lengthAdjust="spacing" textLength="19.5127" x="1324.6577" y="805.8621">0..*</text><text fill="#000000" font-family="sans-serif" font-size="13" lengthAdjust="spacing" textLength="7.23" x="1304.5185" y="851.6381">1</text></g><!--link User to Task--><g id="link_User_Task"><path codeLine="270" d="M960.56,91.0437 C941.64,124.4837 907.42,188.9537 889,248.0137 C875.99,289.7237 902.79,313.0537 873,345.0137 C833.75,387.1237 801.36,356.0537 747,375.0137 C702.97,390.3637 654.63,414.1937 624.07,430.1937 " fill="none" id="User-Task" style="stroke:#181818;stroke-width:1.0;"/><text fill="#000000" font-family="sans-serif" font-size="13" lengthAdjust="spacing" textLength="40.46" x="890" y="263.042">creator</text><text fill="#000000" font-family="sans-serif" font-size="13" lengthAdjust="spacing" textLength="7.23" x="949.5127" y="113.0366">1</text><text fill="#000000" font-family="sans-serif" font-size="13" lengthAdjust="spacing" textLength="19.5127" x="632.4556" y="421.8235">0..*</text></g><!--link User to Task--><g id="link_User_Task"><path codeLine="271" d="M975.21,91.4037 C976.63,146.6637 971.41,285.1437 889,345.0137 C839.27,381.1437 808.92,347.4237 754,375.0137 C742.46,380.8137 743.09,387.3937 732,394.0137 C697.41,414.6737 653.36,429.8337 624.22,438.5237 " fill="none" id="User-Task-1" style="stroke:#181818;stroke-width:1.0;"/><text fill="#000000" font-family="sans-serif" font-size="13" lengthAdjust="spacing" textLength="52.0381" x="955" y="263.042">assignee</text><text fill="#000000" font-family="sans-serif" font-size="13" lengthAdjust="spacing" textLength="7.23" x="967.7581" y="113.0715">1</text><text fill="#000000" font-family="sans-serif" font-size="13" lengthAdjust="spacing" textLength="19.5127" x="632.254" y="452.3857">0..*</text></g><!--link User to Task_TaskHelper--><g id="link_User_Task_TaskHelper"><path codeLine="272" d="M942.8,82.4637 C852.49,124.3037 590.3,245.7537 479.92,296.8937 " fill="none" id="User-Task_TaskHelper" style="stroke:#181818;stroke-width:1.0;"/><text fill="#000000" font-family="sans-serif" font-size="13" lengthAdjust="spacing" textLength="31.0781" x="748" y="199.542">helps</text><text fill="#000000" font-family="sans-serif" font-size="13" lengthAdjust="spacing" textLength="7.23" x="928.0917" y="109.4433">1</text><text fill="#000000" font-family="sans-serif" font-size="13" lengthAdjust="spacing" textLength="19.5127" x="471.3814" y="285.6004">0..*</text></g><!--link User to Project--><g id="link_User_Project"><path codeLine="273" d="M1005.06,72.3237 C1052.96,79.6737 1141.34,96.2937 1160,121.0137 C1219.98,200.4737 1194.97,251.8037 1160,345.0137 C1143.62,388.6637 1115.73,384.4937 1091,424.0137 C1071.03,455.9237 1066.39,465.3237 1058,502.0137 C1052.01,528.1937 1051.39,559.1637 1051.87,579.8337 " fill="none" id="User-Project" style="stroke:#181818;stroke-width:1.0;"/><text fill="#000000" font-family="sans-serif" font-size="13" lengthAdjust="spacing" textLength="40.46" x="1178" y="326.542">creator</text><text fill="#000000" font-family="sans-serif" font-size="13" lengthAdjust="spacing" textLength="7.23" x="1012.6934" y="89.4048">1</text><text fill="#000000" font-family="sans-serif" font-size="13" lengthAdjust="spacing" textLength="19.5127" x="1030.3936" y="568.9317">0..*</text></g><!--link User to User_Project--><g id="link_User_User_Project"><path codeLine="274" d="M1005.07,71.3437 C1065.16,78.2837 1194.6,95.7537 1231,121.0137 C1295.19,165.5537 1333.29,254.8137 1348.42,296.9637 " fill="none" id="User-User_Project" style="stroke:#181818;stroke-width:1.0;"/><text fill="#000000" font-family="sans-serif" font-size="13" lengthAdjust="spacing" textLength="47.6963" x="1313" y="199.542">involved</text><text fill="#000000" font-family="sans-serif" font-size="13" lengthAdjust="spacing" textLength="7.23" x="1012.7056" y="67.4916">1</text><text fill="#000000" font-family="sans-serif" font-size="13" lengthAdjust="spacing" textLength="19.5127" x="1325.1196" y="285.6883">0..*</text></g><!--link User to CustomList--><g id="link_User_CustomList"><path codeLine="275" d="M942.97,74.9137 C879,89.5237 728.21,125.8437 606,170.0137 C500.3,208.2137 381.33,265.4237 318.14,297.0037 " fill="none" id="User-CustomList" style="stroke:#181818;stroke-width:1.0;"/><text fill="#000000" font-family="sans-serif" font-size="13" lengthAdjust="spacing" textLength="40.46" x="607" y="199.542">creator</text><text fill="#000000" font-family="sans-serif" font-size="13" lengthAdjust="spacing" textLength="7.23" x="927.6351" y="92.975">1</text><text fill="#000000" font-family="sans-serif" font-size="13" lengthAdjust="spacing" textLength="19.5127" x="308.3358" y="285.7386">0..*</text></g><!--link User to ShoppingList--><g id="link_User_ShoppingList"><path codeLine="276" d="M1005.02,68.7637 C1075.95,71.9137 1252.81,88.0637 1369,170.0137 C1420.11,206.0637 1465.58,264.7637 1488.42,297.0037 " fill="none" id="User-ShoppingList" style="stroke:#181818;stroke-width:1.0;"/><text fill="#000000" font-family="sans-serif" font-size="13" lengthAdjust="spacing" textLength="40.46" x="1423" y="199.542">creator</text><text fill="#000000" font-family="sans-serif" font-size="13" lengthAdjust="spacing" textLength="7.23" x="1012.6447" y="64.3473">1</text><text fill="#000000" font-family="sans-serif" font-size="13" lengthAdjust="spacing" textLength="19.5127" x="1463.0652" y="285.7386">0..*</text></g><!--link User to AreaOfResponsibility--><g id="link_User_AreaOfResponsibility"><path codeLine="277" d="M1005.14,91.2737 C1064.78,138.7937 1184.74,250.4937 1132,345.0137 C1099.43,403.3937 1046.57,372.4637 1004,424.0137 C974.49,459.7537 870.15,769.8837 856,814.0137 C850.83,830.1437 845.97,848.6137 842.47,862.8137 " fill="none" id="User-AreaOfResponsibility" style="stroke:#181818;stroke-width:1.0;"/><text fill="#000000" font-family="sans-serif" font-size="13" lengthAdjust="spacing" textLength="52.0381" x="1005" y="453.542">assignee</text><text fill="#000000" font-family="sans-serif" font-size="13" lengthAdjust="spacing" textLength="7.23" x="1004.6094" y="112.9114">1</text><text fill="#000000" font-family="sans-serif" font-size="13" lengthAdjust="spacing" textLength="19.5127" x="846.2151" y="851.9068">0..*</text></g><!--link CustomList to AreaOfResponsibility--><g id="link_CustomList_AreaOfResponsibility"><path codeLine="279" d="M324.33,342.1737 C375.65,363.5037 449.15,397.6437 465,424.0137 C476.52,443.1837 453.23,533.2137 450,580.0137 C442.09,694.5337 417.2,755.6437 502,833.0137 C538.1,865.9537 668.24,878.4637 755.29,883.1837 " fill="none" id="CustomList-AreaOfResponsibility" style="stroke:#181818;stroke-width:1.0;"/><text fill="#000000" font-family="sans-serif" font-size="13" lengthAdjust="spacing" textLength="84.5508" x="451" y="609.542">categorized by</text><text fill="#000000" font-family="sans-serif" font-size="13" lengthAdjust="spacing" textLength="19.5127" x="331.4683" y="340.9556">0..*</text><text fill="#000000" font-family="sans-serif" font-size="13" lengthAdjust="spacing" textLength="21.6836" x="725.8336" y="879.0887">0..1</text></g><!--link Task to AreaOfResponsibility--><g id="link_Task_AreaOfResponsibility"><path codeLine="280" d="M624.05,455.8337 C653,463.3837 696.23,477.8037 727,502.0137 C760.34,528.2437 766.04,540.7137 782,580.0137 C803.34,632.5437 792.14,650.1737 802,706.0137 C811.96,762.4437 825.22,828.5137 832.21,862.7637 " fill="none" id="Task-AreaOfResponsibility" style="stroke:#181818;stroke-width:1.0;"/><text fill="#000000" font-family="sans-serif" font-size="13" lengthAdjust="spacing" textLength="84.5508" x="803" y="687.542">categorized by</text><text fill="#000000" font-family="sans-serif" font-size="13" lengthAdjust="spacing" textLength="19.5127" x="632.4315" y="473.258">0..*</text><text fill="#000000" font-family="sans-serif" font-size="13" lengthAdjust="spacing" textLength="21.6836" x="807.6001" y="851.8446">0..1</text></g><!--link Project to AreaOfResponsibility--><g id="link_Project_AreaOfResponsibility"><path codeLine="281" d="M1027.31,628.0737 C1000.27,653.1037 957.36,694.9937 926,736.0137 C893.91,777.9937 864.21,832.4337 848.56,862.8537 " fill="none" id="Project-AreaOfResponsibility" style="stroke:#181818;stroke-width:1.0;"/><text fill="#000000" font-family="sans-serif" font-size="13" lengthAdjust="spacing" textLength="84.5508" x="927" y="765.542">categorized by</text><text fill="#000000" font-family="sans-serif" font-size="13" lengthAdjust="spacing" textLength="19.5127" x="999.8471" y="650.074">0..*</text><text fill="#000000" font-family="sans-serif" font-size="13" lengthAdjust="spacing" textLength="21.6836" x="827.9546" y="851.5502">0..1</text></g><!--link ShoppingList to AreaOfResponsibility--><g id="link_ShoppingList_AreaOfResponsibility"><path codeLine="282" d="M1491.46,345.2337 C1486.98,354.3137 1482.25,364.9437 1479,375.0137 C1465.54,416.7437 1491.53,440.5337 1461,472.0137 C1417.3,517.0737 1374.09,465.5537 1323,502.0137 C1203.69,587.1637 1266.94,693.0537 1152,784.0137 C1084.16,837.6937 987.22,863.5137 918.83,875.6737 " fill="none" id="ShoppingList-AreaOfResponsibility" style="stroke:#181818;stroke-width:1.0;"/><text fill="#000000" font-family="sans-serif" font-size="13" lengthAdjust="spacing" textLength="84.5508" x="1256" y="609.542">categorized by</text><text fill="#000000" font-family="sans-serif" font-size="13" lengthAdjust="spacing" textLength="19.5127" x="1467.4282" y="366.8621">0..*</text><text fill="#000000" font-family="sans-serif" font-size="13" lengthAdjust="spacing" textLength="21.6836" x="926.2258" y="871.1326">0..1</text></g><!--link CustomList to Project--><g id="link_CustomList_Project"><path codeLine="284" d="M324.23,340.7037 C330.16,342.3837 336.18,343.8737 342,345.0137 C393.47,355.0537 777.12,336.7737 813,375.0137 C837.13,400.7237 779.18,415.3837 775,424.0137 C765.7,443.2137 766.09,452.6337 775,472.0137 C817.19,563.7437 937.0222,589.9586 1002.8522,598.1686 " fill="none" id="CustomList-to-Project" style="stroke:#181818;stroke-width:1.0;"/><polygon fill="none" points="1014.76,599.6537,1009.3012,594.9419,1002.8522,598.1686,1008.3111,602.8804,1014.76,599.6537" style="stroke:#181818;stroke-width:1.0;"/><text fill="#000000" font-family="sans-serif" font-size="13" lengthAdjust="spacing" textLength="59.9917" x="776" y="453.542">belongs to</text><text fill="#000000" font-family="sans-serif" font-size="13" lengthAdjust="spacing" textLength="19.5127" x="331.3547" y="358.6122">0..*</text><text fill="#000000" font-family="sans-serif" font-size="13" lengthAdjust="spacing" textLength="21.6836" x="985.1772" y="594.4172">0..1</text></g><!--link NonRecurringTask to Project--><g id="link_NonRecurringTask_Project"><path codeLine="285" d="M966.17,345.0437 C900.8,369.7737 820.32,413.5537 852,472.0137 C886.53,535.7337 955.7107,569.2301 1003.7007,586.7901 " fill="none" id="NonRecurringTask-to-Project" style="stroke:#181818;stroke-width:1.0;"/><polygon fill="none" points="1014.97,590.9137,1010.7099,585.0955,1003.7007,586.7901,1007.9609,592.6083,1014.97,590.9137" style="stroke:#181818;stroke-width:1.0;"/><text fill="#000000" font-family="sans-serif" font-size="13" lengthAdjust="spacing" textLength="59.9917" x="853" y="453.542">belongs to</text><text fill="#000000" font-family="sans-serif" font-size="13" lengthAdjust="spacing" textLength="19.5127" x="938.0997" y="362.6459">0..*</text><text fill="#000000" font-family="sans-serif" font-size="13" lengthAdjust="spacing" textLength="21.6836" x="985.4246" y="584.1204">0..1</text></g><!--link ShoppingList to Project--><g id="link_ShoppingList_Project"><path codeLine="286" d="M1475.83,345.1937 C1464.85,354.3537 1452.23,365.0637 1441,375.0137 C1393.69,416.9237 1389.47,436.7737 1337,472.0137 C1255.64,526.6537 1159.1039,565.2802 1102.5939,585.7302 " fill="none" id="ShoppingList-to-Project" style="stroke:#181818;stroke-width:1.0;"/><polygon fill="none" points="1091.31,589.8137,1098.3131,591.5332,1102.5939,585.7302,1095.5908,584.0107,1091.31,589.8137" style="stroke:#181818;stroke-width:1.0;"/><text fill="#000000" font-family="sans-serif" font-size="13" lengthAdjust="spacing" textLength="59.9917" x="1393" y="453.542">belongs to</text><text fill="#000000" font-family="sans-serif" font-size="13" lengthAdjust="spacing" textLength="19.5127" x="1447.7164" y="367.2232">0..*</text><text fill="#000000" font-family="sans-serif" font-size="13" lengthAdjust="spacing" textLength="21.6836" x="1098.5606" y="583.5293">0..1</text></g><!--SRC=[rLfRRzis57xtho2yXxHP7IpDdWHaG14CQu5r3P9jhm8jqHONcTH8AfdNvh_lK1UAf2XR4fgaCz3KaSxzVET2AJdPAAGu4dIRAPHIGH95ELiKEBd3MuAM7tbASdILOoc9NABF2mIVazMHJqs5tlDIaepdwGIkIbN7sMZKd-yHJID4cKAV1S7f9vRl7wsR3Ez8XAGIrhK421L9OwmYbC8tHNVahFqI5bCMwNYMnyMaUFmXYPWS2iqqFWfaXsbUXI5qVuNYECCo0_yAaFt0HUg7ZCeO0mRk8PPhplDd36OTenrH6KybEX8RsnlZowiYnvIPNr_xljNcTEICFCGkIyK1VBznHYp6UoBePZ-afsKoyMfWyJChTnsIRtXEh3pYT4SP1KQik42NwDpSANN2Bz5RMvHN5N4F59cvfTdZWnZH5547Haz0v9MjBr-07v7hbW-VX1IGzHw0u1uq4-BUcbX2xy2XJviR8WlE95tJdAhzv98A2HbVOg58XIb15zqomB_YlNWhgl9Ulqg9J0GjT0l-nblPjU1_mQoO7Fg6xocYtKPelO-QfXdC2LoC-IOMJlQZOM3DIrSAgdFAY1TvhneuUvas2_Q1wad0SDBt2yVv-1GMDLFaW6PgMEsUsiZnEcgZ9jvX1gkBsrCJpfIWwxBkjO7MgW4JJmPdi9CUSBVkdPRvSqhlgfIAxtw5sJ6v-ZhM_rq1VXKGcSfBCfBSvH27q91weVt7mMENgG-Ax9uYM-w-FA0ydcj77LiFgWqV28ey1-r40q2OmniFqlvTOgOgz6noZcqb9QFApplZYWImu7NXYTNuEvPta-jGCpt9mZ6ljaOMxe5jfX2KYqhLTVFDkYaLLgMCq6trlnjyE72MGb2sxPNRjxOWpPoRpS2gWsBbl1HRWBapf38uX9lff3yxabBWlaGNvbBE7-3t7tiQwjXQyjTmWi_vrb6WE83TqQ1FCO9l0I_IKQFTzFLqq8trZ_SaBwQSJ8EpKe6WgAiXswER2Xc49UHgdpY3FeKZxjvnx86Gk-gI5JkO-5brhVDgJx2eBWNykcc1sAjDOGo94sr9v9iMfeL0476FyoeaTXSY_oXTe4I5SNHa5Zb6mp5rsEu34tDWEpNg9_R0sumN1PWmQoUncLzkApaGhAzvOdZM7SAEh1wSLy2qvMB_pDk4RyQJ9BbnBHfqUZWpWyR6yoslrvzUNTWBa2_yoTUQnmKZ3mKSZHRoZZ9Oix1swAIQAj0BrBuWY0kLSQ3q7m3Va1pheMiU0VUVRGMFP_qHw8-imOO_gGCP-oPmLSrWURv4fwiLMlvmTdQwz9-mHMYv9ZbdMmcpSrbnUHGDtsfrMedgO3gVjJhM0dk69SBB6fp19rP6m1ZbxTbsa2d0OnqNvx5LHJF9p6gAJU9mviTipkcM3dRNqLBSlBX0j1-qr5XO6j36lLnMtErL8AVidkVt98K6DPQjHPrXrHfxA72D73udWg148rKgYVZ6XqKyX91AGLzKKmcZXS2tyoFMKOcIZ49Ej7K1v3MXQTPsruO0PRD-z-diLTbbgQHe1hZPXjfTvWn3HU_lmoqgcWxuWMK4RCLmtraBLmYpj1DSgPLe8_YkMxjxQ-HgzUKdOo0r3Xqb2XIaYvZ3upM4ciCSNXO20gryJEGs1QtDgh_JVw4mrll6KJD0Lfs3RJogHO-BvL72vbHD3bFQCEemCyHXTOAZTZYTmQh_OGwh7unHuC1X34DmrZcH6XvERUqFoV3p61WvSqJqX-iSAGEJRAgeuUZmLfILRt-izNh1DFO17uwnmiRPBgVTwdaBvsUQ43dtpmyC_yS_hn673NtMk_T6IgCx_3xMfMbUzj-YxyxVmh-BtlalDWURL-RSz0OrXL6VKb-7NiCsGYzw3-LYz_Nig-vPoniKU5zhl-1s77fNgko0lneF1suxk3b0vqCiI7g2hZb0258N7NbpQzWV-o-gWlUwsZXoMq-188cDygC4zYmPHTmGBHx_0m00]--></g></svg>