<svg xmlns="http://www.w3.org/2000/svg" xmlns:xlink="http://www.w3.org/1999/xlink" contentStyleType="text/css" height="684.6px" preserveAspectRatio="none" style="width:975px;height:684px;background:#FFFFFF;" version="1.1" viewBox="0 0 975 684" width="975px" zoomAndPan="magnify"><defs/><g><!--cluster Model Relations--><g id="cluster_Model Relations"><path d="M25.044,3.6082 L90.0508,3.6082 A2.25,2.25 0 0 1 91.5508,5.1082 L95.7508,18.3809 L964.644,18.3809 A1.5,1.5 0 0 1 966.144,19.8809 L966.144,678.9082 A1.5,1.5 0 0 1 964.644,680.4082 L25.044,680.4082 A1.5,1.5 0 0 1 23.544,678.9082 L23.544,5.1082 A1.5,1.5 0 0 1 25.044,3.6082 " fill="none" style="stroke:#000000;stroke-width:0.8999999999999999;"/><line style="stroke:#000000;stroke-width:0.8999999999999999;" x1="23.544" x2="95.7508" y1="18.3809" y2="18.3809"/><text fill="#000000" font-family="sans-serif" font-size="8.4" font-weight="bold" lengthAdjust="spacing" textLength="64.4068" x="25.944" y="13.8727">Model Relations</text></g><!--class User--><g id="elem_User"><rect fill="#F1F1F1" height="28.8" id="User" rx="1.5" ry="1.5" style="stroke:#181818;stroke-width:0.3;" width="36.9352" x="526.344" y="25.8082"/><ellipse cx="535.344" cy="35.4082" fill="#ADD1B2" rx="6.6" ry="6.6" style="stroke:#181818;stroke-width:0.6;"/><path d="M537.0034,32.9332 Q537.0971,32.802 537.2096,32.7363 Q537.3221,32.6707 537.4534,32.6707 Q537.6784,32.6707 537.819,32.8301 Q537.9596,32.9801 537.9596,33.3457 L537.9596,34.2176 Q537.9596,34.5832 537.819,34.7426 Q537.6784,34.902 537.4534,34.902 Q537.2471,34.902 537.1252,34.7801 Q537.0034,34.6676 536.9377,34.3582 Q536.9096,34.1426 536.7971,34.0301 Q536.6003,33.8051 536.2346,33.6738 Q535.869,33.5426 535.494,33.5426 Q535.0346,33.5426 534.6503,33.7395 Q534.2753,33.9363 533.9753,34.3863 Q533.6846,34.8363 533.6846,35.4551 L533.6846,36.1113 Q533.6846,36.852 534.219,37.3488 Q534.7534,37.8363 535.7096,37.8363 Q536.2721,37.8363 536.6659,37.6863 Q536.9003,37.5926 537.1534,37.3301 Q537.3127,37.1707 537.3971,37.1238 Q537.4909,37.077 537.6128,37.077 Q537.8096,37.077 537.9596,37.2363 Q538.119,37.3863 538.119,37.5926 Q538.119,37.7988 537.9128,38.0426 Q537.6128,38.3895 537.1346,38.5863 Q536.4878,38.8582 535.7096,38.8582 Q534.8003,38.8582 534.0784,38.4832 Q533.4878,38.1832 533.0753,37.5457 Q532.6628,36.8988 532.6628,36.1301 L532.6628,35.4363 Q532.6628,34.6395 533.0284,33.9551 Q533.4034,33.2613 534.0596,32.8957 Q534.7159,32.5207 535.4565,32.5207 Q535.8971,32.5207 536.2815,32.6238 Q536.6753,32.7176 537.0034,32.9332 Z " fill="#000000"/><text fill="#000000" font-family="sans-serif" font-size="8.4" lengthAdjust="spacing" textLength="17.7352" x="543.744" y="38.8863">User</text><line style="stroke:#181818;stroke-width:0.3;" x1="526.944" x2="562.6792" y1="45.0082" y2="45.0082"/><line style="stroke:#181818;stroke-width:0.3;" x1="526.944" x2="562.6792" y1="49.8082" y2="49.8082"/></g><!--class Household_User--><g id="elem_Household_User"><rect fill="#F1F1F1" height="28.8" id="Household_User" rx="1.5" ry="1.5" style="stroke:#181818;stroke-width:0.3;" width="81.7693" x="52.944" y="102.0082"/><ellipse cx="61.944" cy="111.6082" fill="#ADD1B2" rx="6.6" ry="6.6" style="stroke:#181818;stroke-width:0.6;"/><path d="M63.6034,109.1332 Q63.6971,109.002 63.8096,108.9363 Q63.9221,108.8707 64.0534,108.8707 Q64.2784,108.8707 64.419,109.0301 Q64.5596,109.1801 64.5596,109.5457 L64.5596,110.4176 Q64.5596,110.7832 64.419,110.9426 Q64.2784,111.102 64.0534,111.102 Q63.8471,111.102 63.7252,110.9801 Q63.6034,110.8676 63.5377,110.5582 Q63.5096,110.3426 63.3971,110.2301 Q63.2003,110.0051 62.8346,109.8738 Q62.469,109.7426 62.094,109.7426 Q61.6346,109.7426 61.2502,109.9395 Q60.8752,110.1363 60.5753,110.5863 Q60.2846,111.0363 60.2846,111.6551 L60.2846,112.3113 Q60.2846,113.052 60.819,113.5488 Q61.3534,114.0363 62.3096,114.0363 Q62.8721,114.0363 63.2659,113.8863 Q63.5002,113.7926 63.7534,113.5301 Q63.9127,113.3707 63.9971,113.3238 Q64.0909,113.277 64.2128,113.277 Q64.4096,113.277 64.5596,113.4363 Q64.719,113.5863 64.719,113.7926 Q64.719,113.9988 64.5128,114.2426 Q64.2128,114.5895 63.7346,114.7863 Q63.0877,115.0582 62.3096,115.0582 Q61.4002,115.0582 60.6784,114.6832 Q60.0877,114.3832 59.6752,113.7457 Q59.2628,113.0988 59.2628,112.3301 L59.2628,111.6363 Q59.2628,110.8395 59.6284,110.1551 Q60.0034,109.4613 60.6596,109.0957 Q61.3159,108.7207 62.0565,108.7207 Q62.4971,108.7207 62.8815,108.8238 Q63.2752,108.9176 63.6034,109.1332 Z " fill="#000000"/><text fill="#000000" font-family="sans-serif" font-size="8.4" lengthAdjust="spacing" textLength="62.5693" x="70.344" y="115.0863">Household_User</text><line style="stroke:#181818;stroke-width:0.3;" x1="53.544" x2="134.1133" y1="121.2082" y2="121.2082"/><line style="stroke:#181818;stroke-width:0.3;" x1="53.544" x2="134.1133" y1="126.0082" y2="126.0082"/></g><!--class Household--><g id="elem_Household"><rect fill="#F1F1F1" height="28.8" id="Household" rx="1.5" ry="1.5" style="stroke:#181818;stroke-width:0.3;" width="59.3625" x="539.844" y="642.0082"/><ellipse cx="548.844" cy="651.6082" fill="#ADD1B2" rx="6.6" ry="6.6" style="stroke:#181818;stroke-width:0.6;"/><path d="M550.5034,649.1332 Q550.5971,649.002 550.7096,648.9363 Q550.8221,648.8707 550.9534,648.8707 Q551.1784,648.8707 551.319,649.0301 Q551.4596,649.1801 551.4596,649.5457 L551.4596,650.4176 Q551.4596,650.7832 551.319,650.9426 Q551.1784,651.102 550.9534,651.102 Q550.7471,651.102 550.6252,650.9801 Q550.5034,650.8676 550.4377,650.5582 Q550.4096,650.3426 550.2971,650.2301 Q550.1003,650.0051 549.7346,649.8738 Q549.369,649.7426 548.994,649.7426 Q548.5346,649.7426 548.1503,649.9395 Q547.7753,650.1363 547.4753,650.5863 Q547.1846,651.0363 547.1846,651.6551 L547.1846,652.3113 Q547.1846,653.052 547.719,653.5488 Q548.2534,654.0363 549.2096,654.0363 Q549.7721,654.0363 550.1659,653.8863 Q550.4003,653.7926 550.6534,653.5301 Q550.8127,653.3707 550.8971,653.3238 Q550.9909,653.277 551.1128,653.277 Q551.3096,653.277 551.4596,653.4363 Q551.619,653.5863 551.619,653.7926 Q551.619,653.9988 551.4128,654.2426 Q551.1128,654.5895 550.6346,654.7863 Q549.9878,655.0582 549.2096,655.0582 Q548.3003,655.0582 547.5784,654.6832 Q546.9878,654.3832 546.5753,653.7457 Q546.1628,653.0988 546.1628,652.3301 L546.1628,651.6363 Q546.1628,650.8395 546.5284,650.1551 Q546.9034,649.4613 547.5596,649.0957 Q548.2159,648.7207 548.9565,648.7207 Q549.3971,648.7207 549.7815,648.8238 Q550.1753,648.9176 550.5034,649.1332 Z " fill="#000000"/><text fill="#000000" font-family="sans-serif" font-size="8.4" lengthAdjust="spacing" textLength="40.1625" x="557.244" y="655.0863">Household</text><line style="stroke:#181818;stroke-width:0.3;" x1="540.444" x2="598.6065" y1="661.2082" y2="661.2082"/><line style="stroke:#181818;stroke-width:0.3;" x1="540.444" x2="598.6065" y1="666.0082" y2="666.0082"/></g><!--class HouseholdRole--><g id="elem_HouseholdRole"><rect fill="#F1F1F1" height="28.8" id="HouseholdRole" rx="1.5" ry="1.5" style="stroke:#181818;stroke-width:0.3;" width="76.6383" x="55.344" y="178.2082"/><ellipse cx="64.344" cy="187.8082" fill="#ADD1B2" rx="6.6" ry="6.6" style="stroke:#181818;stroke-width:0.6;"/><path d="M66.0034,185.3332 Q66.0971,185.202 66.2096,185.1363 Q66.3221,185.0707 66.4534,185.0707 Q66.6784,185.0707 66.819,185.2301 Q66.9596,185.3801 66.9596,185.7457 L66.9596,186.6176 Q66.9596,186.9832 66.819,187.1426 Q66.6784,187.302 66.4534,187.302 Q66.2471,187.302 66.1253,187.1801 Q66.0034,187.0676 65.9378,186.7582 Q65.9096,186.5426 65.7971,186.4301 Q65.6002,186.2051 65.2346,186.0738 Q64.869,185.9426 64.494,185.9426 Q64.0346,185.9426 63.6502,186.1395 Q63.2752,186.3363 62.9752,186.7863 Q62.6846,187.2363 62.6846,187.8551 L62.6846,188.5113 Q62.6846,189.252 63.219,189.7488 Q63.7534,190.2363 64.7096,190.2363 Q65.2721,190.2363 65.6659,190.0863 Q65.9003,189.9926 66.1534,189.7301 Q66.3128,189.5707 66.3971,189.5238 Q66.4909,189.477 66.6127,189.477 Q66.8096,189.477 66.9596,189.6363 Q67.119,189.7863 67.119,189.9926 Q67.119,190.1988 66.9127,190.4426 Q66.6127,190.7895 66.1346,190.9863 Q65.4877,191.2582 64.7096,191.2582 Q63.8002,191.2582 63.0784,190.8832 Q62.4877,190.5832 62.0753,189.9457 Q61.6627,189.2988 61.6627,188.5301 L61.6627,187.8363 Q61.6627,187.0395 62.0284,186.3551 Q62.4034,185.6613 63.0596,185.2957 Q63.7159,184.9207 64.4565,184.9207 Q64.8971,184.9207 65.2815,185.0238 Q65.6752,185.1176 66.0034,185.3332 Z " fill="#000000"/><text fill="#000000" font-family="sans-serif" font-size="8.4" lengthAdjust="spacing" textLength="57.4383" x="72.744" y="191.2863">HouseholdRole</text><line style="stroke:#181818;stroke-width:0.3;" x1="55.944" x2="131.3823" y1="197.4082" y2="197.4082"/><line style="stroke:#181818;stroke-width:0.3;" x1="55.944" x2="131.3823" y1="202.2082" y2="202.2082"/></g><!--class AreaOfResponsibility--><g id="elem_AreaOfResponsibility"><rect fill="#F1F1F1" height="28.8" id="AreaOfResponsibility" rx="1.5" ry="1.5" style="stroke:#181818;stroke-width:0.3;" width="97.6342" x="520.644" y="517.8082"/><ellipse cx="529.644" cy="527.4082" fill="#ADD1B2" rx="6.6" ry="6.6" style="stroke:#181818;stroke-width:0.6;"/><path d="M531.3034,524.9332 Q531.3971,524.802 531.5096,524.7363 Q531.6221,524.6707 531.7534,524.6707 Q531.9784,524.6707 532.119,524.8301 Q532.2596,524.9801 532.2596,525.3457 L532.2596,526.2176 Q532.2596,526.5832 532.119,526.7426 Q531.9784,526.902 531.7534,526.902 Q531.5471,526.902 531.4253,526.7801 Q531.3034,526.6676 531.2378,526.3582 Q531.2096,526.1426 531.0971,526.0301 Q530.9003,525.8051 530.5346,525.6738 Q530.169,525.5426 529.794,525.5426 Q529.3346,525.5426 528.9503,525.7395 Q528.5753,525.9363 528.2753,526.3863 Q527.9846,526.8363 527.9846,527.4551 L527.9846,528.1113 Q527.9846,528.852 528.519,529.3488 Q529.0534,529.8363 530.0096,529.8363 Q530.5721,529.8363 530.9659,529.6863 Q531.2003,529.5926 531.4534,529.3301 Q531.6128,529.1707 531.6971,529.1238 Q531.7909,529.077 531.9128,529.077 Q532.1096,529.077 532.2596,529.2363 Q532.419,529.3863 532.419,529.5926 Q532.419,529.7988 532.2128,530.0426 Q531.9128,530.3895 531.4346,530.5863 Q530.7878,530.8582 530.0096,530.8582 Q529.1003,530.8582 528.3784,530.4832 Q527.7878,530.1832 527.3752,529.5457 Q526.9628,528.8988 526.9628,528.1301 L526.9628,527.4363 Q526.9628,526.6395 527.3284,525.9551 Q527.7034,525.2613 528.3596,524.8957 Q529.0159,524.5207 529.7565,524.5207 Q530.1971,524.5207 530.5815,524.6238 Q530.9753,524.7176 531.3034,524.9332 Z " fill="#000000"/><text fill="#000000" font-family="sans-serif" font-size="8.4" lengthAdjust="spacing" textLength="78.4342" x="538.044" y="530.8863">AreaOfResponsibility</text><line style="stroke:#181818;stroke-width:0.3;" x1="521.244" x2="617.6782" y1="537.0082" y2="537.0082"/><line style="stroke:#181818;stroke-width:0.3;" x1="521.244" x2="617.6782" y1="541.8082" y2="541.8082"/></g><!--class Project--><g id="elem_Project"><rect fill="#F1F1F1" height="28.8" id="Project" rx="1.5" ry="1.5" style="stroke:#181818;stroke-width:0.3;" width="45.3434" x="451.344" y="348.0082"/><ellipse cx="460.344" cy="357.6082" fill="#ADD1B2" rx="6.6" ry="6.6" style="stroke:#181818;stroke-width:0.6;"/><path d="M462.0034,355.1332 Q462.0971,355.002 462.2096,354.9363 Q462.3221,354.8707 462.4534,354.8707 Q462.6784,354.8707 462.819,355.0301 Q462.9596,355.1801 462.9596,355.5457 L462.9596,356.4176 Q462.9596,356.7832 462.819,356.9426 Q462.6784,357.102 462.4534,357.102 Q462.2471,357.102 462.1253,356.9801 Q462.0034,356.8676 461.9378,356.5582 Q461.9096,356.3426 461.7971,356.2301 Q461.6002,356.0051 461.2346,355.8738 Q460.869,355.7426 460.494,355.7426 Q460.0346,355.7426 459.6502,355.9395 Q459.2752,356.1363 458.9753,356.5863 Q458.6846,357.0363 458.6846,357.6551 L458.6846,358.3113 Q458.6846,359.052 459.219,359.5488 Q459.7534,360.0363 460.7096,360.0363 Q461.2721,360.0363 461.6659,359.8863 Q461.9002,359.7926 462.1534,359.5301 Q462.3128,359.3707 462.3971,359.3238 Q462.4909,359.277 462.6128,359.277 Q462.8096,359.277 462.9596,359.4363 Q463.119,359.5863 463.119,359.7926 Q463.119,359.9988 462.9127,360.2426 Q462.6128,360.5895 462.1346,360.7863 Q461.4878,361.0582 460.7096,361.0582 Q459.8003,361.0582 459.0784,360.6832 Q458.4878,360.3832 458.0753,359.7457 Q457.6628,359.0988 457.6628,358.3301 L457.6628,357.6363 Q457.6628,356.8395 458.0284,356.1551 Q458.4034,355.4613 459.0596,355.0957 Q459.7159,354.7207 460.4565,354.7207 Q460.8971,354.7207 461.2815,354.8238 Q461.6753,354.9176 462.0034,355.1332 Z " fill="#000000"/><text fill="#000000" font-family="sans-serif" font-size="8.4" lengthAdjust="spacing" textLength="26.1434" x="468.744" y="361.0863">Project</text><line style="stroke:#181818;stroke-width:0.3;" x1="451.944" x2="496.0874" y1="367.2082" y2="367.2082"/><line style="stroke:#181818;stroke-width:0.3;" x1="451.944" x2="496.0874" y1="372.0082" y2="372.0082"/></g><!--class CustomList--><g id="elem_CustomList"><rect fill="#F1F1F1" height="28.8" id="CustomList" rx="1.5" ry="1.5" style="stroke:#181818;stroke-width:0.3;" width="61.2123" x="153.144" y="178.2082"/><ellipse cx="162.144" cy="187.8082" fill="#ADD1B2" rx="6.6" ry="6.6" style="stroke:#181818;stroke-width:0.6;"/><path d="M163.8034,185.3332 Q163.8971,185.202 164.0096,185.1363 Q164.1221,185.0707 164.2534,185.0707 Q164.4784,185.0707 164.619,185.2301 Q164.7596,185.3801 164.7596,185.7457 L164.7596,186.6176 Q164.7596,186.9832 164.619,187.1426 Q164.4784,187.302 164.2534,187.302 Q164.0471,187.302 163.9253,187.1801 Q163.8034,187.0676 163.7378,186.7582 Q163.7096,186.5426 163.5971,186.4301 Q163.4003,186.2051 163.0346,186.0738 Q162.669,185.9426 162.294,185.9426 Q161.8346,185.9426 161.4503,186.1395 Q161.0753,186.3363 160.7753,186.7863 Q160.4846,187.2363 160.4846,187.8551 L160.4846,188.5113 Q160.4846,189.252 161.019,189.7488 Q161.5534,190.2363 162.5096,190.2363 Q163.0721,190.2363 163.4659,190.0863 Q163.7003,189.9926 163.9534,189.7301 Q164.1128,189.5707 164.1971,189.5238 Q164.2909,189.477 164.4128,189.477 Q164.6096,189.477 164.7596,189.6363 Q164.919,189.7863 164.919,189.9926 Q164.919,190.1988 164.7128,190.4426 Q164.4128,190.7895 163.9346,190.9863 Q163.2878,191.2582 162.5096,191.2582 Q161.6003,191.2582 160.8784,190.8832 Q160.2878,190.5832 159.8753,189.9457 Q159.4628,189.2988 159.4628,188.5301 L159.4628,187.8363 Q159.4628,187.0395 159.8284,186.3551 Q160.2034,185.6613 160.8596,185.2957 Q161.5159,184.9207 162.2565,184.9207 Q162.6971,184.9207 163.0815,185.0238 Q163.4753,185.1176 163.8034,185.3332 Z " fill="#000000"/><text fill="#000000" font-family="sans-serif" font-size="8.4" lengthAdjust="spacing" textLength="42.0123" x="170.544" y="191.2863">CustomList</text><line style="stroke:#181818;stroke-width:0.3;" x1="153.744" x2="213.7563" y1="197.4082" y2="197.4082"/><line style="stroke:#181818;stroke-width:0.3;" x1="153.744" x2="213.7563" y1="202.2082" y2="202.2082"/></g><!--class CustomListItem--><g id="elem_CustomListItem"><rect fill="#F1F1F1" height="28.8" id="CustomListItem" rx="1.5" ry="1.5" style="stroke:#181818;stroke-width:0.3;" width="77.5488" x="109.644" y="394.8082"/><ellipse cx="118.644" cy="404.4082" fill="#ADD1B2" rx="6.6" ry="6.6" style="stroke:#181818;stroke-width:0.6;"/><path d="M120.3034,401.9332 Q120.3971,401.802 120.5096,401.7363 Q120.6221,401.6707 120.7534,401.6707 Q120.9784,401.6707 121.119,401.8301 Q121.2596,401.9801 121.2596,402.3457 L121.2596,403.2176 Q121.2596,403.5832 121.119,403.7426 Q120.9784,403.902 120.7534,403.902 Q120.5471,403.902 120.4253,403.7801 Q120.3034,403.6676 120.2378,403.3582 Q120.2096,403.1426 120.0971,403.0301 Q119.9003,402.8051 119.5346,402.6738 Q119.169,402.5426 118.794,402.5426 Q118.3346,402.5426 117.9503,402.7395 Q117.5753,402.9363 117.2753,403.3863 Q116.9846,403.8363 116.9846,404.4551 L116.9846,405.1113 Q116.9846,405.852 117.519,406.3488 Q118.0534,406.8363 119.0096,406.8363 Q119.5721,406.8363 119.9659,406.6863 Q120.2003,406.5926 120.4534,406.3301 Q120.6128,406.1707 120.6971,406.1238 Q120.7909,406.077 120.9128,406.077 Q121.1096,406.077 121.2596,406.2363 Q121.419,406.3863 121.419,406.5926 Q121.419,406.7988 121.2128,407.0426 Q120.9128,407.3895 120.4346,407.5863 Q119.7878,407.8582 119.0096,407.8582 Q118.1003,407.8582 117.3784,407.4832 Q116.7878,407.1832 116.3753,406.5457 Q115.9628,405.8988 115.9628,405.1301 L115.9628,404.4363 Q115.9628,403.6395 116.3284,402.9551 Q116.7034,402.2613 117.3596,401.8957 Q118.0159,401.5207 118.7565,401.5207 Q119.1971,401.5207 119.5815,401.6238 Q119.9753,401.7176 120.3034,401.9332 Z " fill="#000000"/><text fill="#000000" font-family="sans-serif" font-size="8.4" lengthAdjust="spacing" textLength="58.3488" x="127.044" y="407.8863">CustomListItem</text><line style="stroke:#181818;stroke-width:0.3;" x1="110.244" x2="186.5928" y1="414.0082" y2="414.0082"/><line style="stroke:#181818;stroke-width:0.3;" x1="110.244" x2="186.5928" y1="418.8082" y2="418.8082"/></g><!--class Task--><g id="elem_Task"><rect fill="#F1F1F1" height="28.8" id="Task" rx="1.5" ry="1.5" style="stroke:#181818;stroke-width:0.3;" width="37.4027" x="660.744" y="254.4082"/><ellipse cx="669.744" cy="264.0082" fill="#ADD1B2" rx="6.6" ry="6.6" style="stroke:#181818;stroke-width:0.6;"/><path d="M671.4034,261.5332 Q671.4971,261.402 671.6096,261.3363 Q671.7221,261.2707 671.8534,261.2707 Q672.0784,261.2707 672.219,261.4301 Q672.3596,261.5801 672.3596,261.9457 L672.3596,262.8176 Q672.3596,263.1832 672.219,263.3426 Q672.0784,263.502 671.8534,263.502 Q671.6471,263.502 671.5253,263.3801 Q671.4034,263.2676 671.3378,262.9582 Q671.3096,262.7426 671.1971,262.6301 Q671.0002,262.4051 670.6346,262.2738 Q670.269,262.1426 669.894,262.1426 Q669.4346,262.1426 669.0503,262.3395 Q668.6753,262.5363 668.3752,262.9863 Q668.0846,263.4363 668.0846,264.0551 L668.0846,264.7113 Q668.0846,265.452 668.619,265.9488 Q669.1534,266.4363 670.1096,266.4363 Q670.6721,266.4363 671.0659,266.2863 Q671.3003,266.1926 671.5534,265.9301 Q671.7128,265.7707 671.7971,265.7238 Q671.8909,265.677 672.0128,265.677 Q672.2096,265.677 672.3596,265.8363 Q672.519,265.9863 672.519,266.1926 Q672.519,266.3988 672.3127,266.6426 Q672.0128,266.9895 671.5346,267.1863 Q670.8878,267.4582 670.1096,267.4582 Q669.2003,267.4582 668.4784,267.0832 Q667.8878,266.7832 667.4753,266.1457 Q667.0627,265.4988 667.0627,264.7301 L667.0627,264.0363 Q667.0627,263.2395 667.4284,262.5551 Q667.8034,261.8613 668.4596,261.4957 Q669.1159,261.1207 669.8565,261.1207 Q670.2971,261.1207 670.6815,261.2238 Q671.0753,261.3176 671.4034,261.5332 Z " fill="#000000"/><text fill="#000000" font-family="sans-serif" font-size="8.4" lengthAdjust="spacing" textLength="18.2027" x="678.144" y="267.4863">Task</text><line style="stroke:#181818;stroke-width:0.3;" x1="661.344" x2="697.5467" y1="273.6082" y2="273.6082"/><line style="stroke:#181818;stroke-width:0.3;" x1="661.344" x2="697.5467" y1="278.4082" y2="278.4082"/></g><!--class ShoppingList--><g id="elem_ShoppingList"><rect fill="#F1F1F1" height="28.8" id="ShoppingList" rx="1.5" ry="1.5" style="stroke:#181818;stroke-width:0.3;" width="67.7707" x="888.444" y="178.2082"/><ellipse cx="897.444" cy="187.8082" fill="#ADD1B2" rx="6.6" ry="6.6" style="stroke:#181818;stroke-width:0.6;"/><path d="M899.1034,185.3332 Q899.1971,185.202 899.3096,185.1363 Q899.4221,185.0707 899.5534,185.0707 Q899.7784,185.0707 899.919,185.2301 Q900.0596,185.3801 900.0596,185.7457 L900.0596,186.6176 Q900.0596,186.9832 899.919,187.1426 Q899.7784,187.302 899.5534,187.302 Q899.3471,187.302 899.2253,187.1801 Q899.1034,187.0676 899.0378,186.7582 Q899.0096,186.5426 898.8971,186.4301 Q898.7003,186.2051 898.3346,186.0738 Q897.969,185.9426 897.594,185.9426 Q897.1346,185.9426 896.7502,186.1395 Q896.3752,186.3363 896.0753,186.7863 Q895.7846,187.2363 895.7846,187.8551 L895.7846,188.5113 Q895.7846,189.252 896.319,189.7488 Q896.8534,190.2363 897.8096,190.2363 Q898.3721,190.2363 898.7659,190.0863 Q899.0002,189.9926 899.2534,189.7301 Q899.4128,189.5707 899.4971,189.5238 Q899.5909,189.477 899.7128,189.477 Q899.9096,189.477 900.0596,189.6363 Q900.219,189.7863 900.219,189.9926 Q900.219,190.1988 900.0128,190.4426 Q899.7128,190.7895 899.2346,190.9863 Q898.5878,191.2582 897.8096,191.2582 Q896.9003,191.2582 896.1784,190.8832 Q895.5878,190.5832 895.1753,189.9457 Q894.7628,189.2988 894.7628,188.5301 L894.7628,187.8363 Q894.7628,187.0395 895.1284,186.3551 Q895.5034,185.6613 896.1596,185.2957 Q896.8159,184.9207 897.5565,184.9207 Q897.9971,184.9207 898.3815,185.0238 Q898.7753,185.1176 899.1034,185.3332 Z " fill="#000000"/><text fill="#000000" font-family="sans-serif" font-size="8.4" lengthAdjust="spacing" textLength="48.5707" x="905.844" y="191.2863">ShoppingList</text><line style="stroke:#181818;stroke-width:0.3;" x1="889.044" x2="955.6147" y1="197.4082" y2="197.4082"/><line style="stroke:#181818;stroke-width:0.3;" x1="889.044" x2="955.6147" y1="202.2082" y2="202.2082"/></g><!--class ShoppingListItem--><g id="elem_ShoppingListItem"><rect fill="#F1F1F1" height="28.8" id="ShoppingListItem" rx="1.5" ry="1.5" style="stroke:#181818;stroke-width:0.3;" width="84.1072" x="793.944" y="441.6082"/><ellipse cx="802.944" cy="451.2082" fill="#ADD1B2" rx="6.6" ry="6.6" style="stroke:#181818;stroke-width:0.6;"/><path d="M804.6034,448.7332 Q804.6971,448.602 804.8096,448.5363 Q804.9221,448.4707 805.0534,448.4707 Q805.2784,448.4707 805.419,448.6301 Q805.5596,448.7801 805.5596,449.1457 L805.5596,450.0176 Q805.5596,450.3832 805.419,450.5426 Q805.2784,450.702 805.0534,450.702 Q804.8471,450.702 804.7253,450.5801 Q804.6034,450.4676 804.5378,450.1582 Q804.5096,449.9426 804.3971,449.8301 Q804.2003,449.6051 803.8346,449.4738 Q803.469,449.3426 803.094,449.3426 Q802.6346,449.3426 802.2502,449.5395 Q801.8752,449.7363 801.5753,450.1863 Q801.2846,450.6363 801.2846,451.2551 L801.2846,451.9113 Q801.2846,452.652 801.819,453.1488 Q802.3534,453.6363 803.3096,453.6363 Q803.8721,453.6363 804.2659,453.4863 Q804.5002,453.3926 804.7534,453.1301 Q804.9128,452.9707 804.9971,452.9238 Q805.0909,452.877 805.2128,452.877 Q805.4096,452.877 805.5596,453.0363 Q805.719,453.1863 805.719,453.3926 Q805.719,453.5988 805.5128,453.8426 Q805.2128,454.1895 804.7346,454.3863 Q804.0878,454.6582 803.3096,454.6582 Q802.4003,454.6582 801.6784,454.2832 Q801.0878,453.9832 800.6753,453.3457 Q800.2628,452.6988 800.2628,451.9301 L800.2628,451.2363 Q800.2628,450.4395 800.6284,449.7551 Q801.0034,449.0613 801.6596,448.6957 Q802.3159,448.3207 803.0565,448.3207 Q803.4971,448.3207 803.8815,448.4238 Q804.2753,448.5176 804.6034,448.7332 Z " fill="#000000"/><text fill="#000000" font-family="sans-serif" font-size="8.4" lengthAdjust="spacing" textLength="64.9072" x="811.344" y="454.6863">ShoppingListItem</text><line style="stroke:#181818;stroke-width:0.3;" x1="794.544" x2="877.4512" y1="460.8082" y2="460.8082"/><line style="stroke:#181818;stroke-width:0.3;" x1="794.544" x2="877.4512" y1="465.6082" y2="465.6082"/></g><!--class ShoppingListItemCategory--><g id="elem_ShoppingListItemCategory"><rect fill="#F1F1F1" height="28.8" id="ShoppingListItemCategory" rx="1.5" ry="1.5" style="stroke:#181818;stroke-width:0.3;" width="118.1912" x="726.444" y="517.8082"/><ellipse cx="735.444" cy="527.4082" fill="#ADD1B2" rx="6.6" ry="6.6" style="stroke:#181818;stroke-width:0.6;"/><path d="M737.1034,524.9332 Q737.1971,524.802 737.3096,524.7363 Q737.4221,524.6707 737.5534,524.6707 Q737.7784,524.6707 737.919,524.8301 Q738.0596,524.9801 738.0596,525.3457 L738.0596,526.2176 Q738.0596,526.5832 737.919,526.7426 Q737.7784,526.902 737.5534,526.902 Q737.3471,526.902 737.2253,526.7801 Q737.1034,526.6676 737.0378,526.3582 Q737.0096,526.1426 736.8971,526.0301 Q736.7003,525.8051 736.3346,525.6738 Q735.969,525.5426 735.594,525.5426 Q735.1346,525.5426 734.7502,525.7395 Q734.3752,525.9363 734.0753,526.3863 Q733.7846,526.8363 733.7846,527.4551 L733.7846,528.1113 Q733.7846,528.852 734.319,529.3488 Q734.8534,529.8363 735.8096,529.8363 Q736.3721,529.8363 736.7659,529.6863 Q737.0002,529.5926 737.2534,529.3301 Q737.4128,529.1707 737.4971,529.1238 Q737.5909,529.077 737.7128,529.077 Q737.9096,529.077 738.0596,529.2363 Q738.219,529.3863 738.219,529.5926 Q738.219,529.7988 738.0128,530.0426 Q737.7128,530.3895 737.2346,530.5863 Q736.5878,530.8582 735.8096,530.8582 Q734.9003,530.8582 734.1784,530.4832 Q733.5878,530.1832 733.1753,529.5457 Q732.7628,528.8988 732.7628,528.1301 L732.7628,527.4363 Q732.7628,526.6395 733.1284,525.9551 Q733.5034,525.2613 734.1596,524.8957 Q734.8159,524.5207 735.5565,524.5207 Q735.9971,524.5207 736.3815,524.6238 Q736.7753,524.7176 737.1034,524.9332 Z " fill="#000000"/><text fill="#000000" font-family="sans-serif" font-size="8.4" lengthAdjust="spacing" textLength="98.9912" x="743.844" y="530.8863">ShoppingListItemCategory</text><line style="stroke:#181818;stroke-width:0.3;" x1="727.044" x2="844.0352" y1="537.0082" y2="537.0082"/><line style="stroke:#181818;stroke-width:0.3;" x1="727.044" x2="844.0352" y1="541.8082" y2="541.8082"/></g><!--class ProjectGoal--><g id="elem_ProjectGoal"><rect fill="#F1F1F1" height="28.8" id="ProjectGoal" rx="1.5" ry="1.5" style="stroke:#181818;stroke-width:0.3;" width="63.0867" x="391.044" y="441.6082"/><ellipse cx="400.044" cy="451.2082" fill="#ADD1B2" rx="6.6" ry="6.6" style="stroke:#181818;stroke-width:0.6;"/><path d="M401.7034,448.7332 Q401.7971,448.602 401.9096,448.5363 Q402.0221,448.4707 402.1534,448.4707 Q402.3784,448.4707 402.519,448.6301 Q402.6596,448.7801 402.6596,449.1457 L402.6596,450.0176 Q402.6596,450.3832 402.519,450.5426 Q402.3784,450.702 402.1534,450.702 Q401.9471,450.702 401.8253,450.5801 Q401.7034,450.4676 401.6378,450.1582 Q401.6096,449.9426 401.4971,449.8301 Q401.3003,449.6051 400.9346,449.4738 Q400.569,449.3426 400.194,449.3426 Q399.7346,449.3426 399.3503,449.5395 Q398.9753,449.7363 398.6753,450.1863 Q398.3846,450.6363 398.3846,451.2551 L398.3846,451.9113 Q398.3846,452.652 398.919,453.1488 Q399.4534,453.6363 400.4096,453.6363 Q400.9721,453.6363 401.3659,453.4863 Q401.6003,453.3926 401.8534,453.1301 Q402.0128,452.9707 402.0971,452.9238 Q402.1909,452.877 402.3128,452.877 Q402.5096,452.877 402.6596,453.0363 Q402.819,453.1863 402.819,453.3926 Q402.819,453.5988 402.6128,453.8426 Q402.3128,454.1895 401.8346,454.3863 Q401.1878,454.6582 400.4096,454.6582 Q399.5003,454.6582 398.7784,454.2832 Q398.1878,453.9832 397.7752,453.3457 Q397.3628,452.6988 397.3628,451.9301 L397.3628,451.2363 Q397.3628,450.4395 397.7284,449.7551 Q398.1034,449.0613 398.7596,448.6957 Q399.4159,448.3207 400.1565,448.3207 Q400.5971,448.3207 400.9815,448.4238 Q401.3753,448.5176 401.7034,448.7332 Z " fill="#000000"/><text fill="#000000" font-family="sans-serif" font-size="8.4" lengthAdjust="spacing" textLength="43.8867" x="408.444" y="454.6863">ProjectGoal</text><line style="stroke:#181818;stroke-width:0.3;" x1="391.644" x2="453.5307" y1="460.8082" y2="460.8082"/><line style="stroke:#181818;stroke-width:0.3;" x1="391.644" x2="453.5307" y1="465.6082" y2="465.6082"/></g><!--class User_Project--><g id="elem_User_Project"><rect fill="#F1F1F1" height="28.8" id="User_Project" rx="1.5" ry="1.5" style="stroke:#181818;stroke-width:0.3;" width="67.7502" x="302.844" y="178.2082"/><ellipse cx="311.844" cy="187.8082" fill="#ADD1B2" rx="6.6" ry="6.6" style="stroke:#181818;stroke-width:0.6;"/><path d="M313.5034,185.3332 Q313.5971,185.202 313.7096,185.1363 Q313.8221,185.0707 313.9534,185.0707 Q314.1784,185.0707 314.319,185.2301 Q314.4596,185.3801 314.4596,185.7457 L314.4596,186.6176 Q314.4596,186.9832 314.319,187.1426 Q314.1784,187.302 313.9534,187.302 Q313.7471,187.302 313.6253,187.1801 Q313.5034,187.0676 313.4378,186.7582 Q313.4096,186.5426 313.2971,186.4301 Q313.1003,186.2051 312.7346,186.0738 Q312.369,185.9426 311.994,185.9426 Q311.5346,185.9426 311.1502,186.1395 Q310.7752,186.3363 310.4753,186.7863 Q310.1846,187.2363 310.1846,187.8551 L310.1846,188.5113 Q310.1846,189.252 310.719,189.7488 Q311.2534,190.2363 312.2096,190.2363 Q312.7721,190.2363 313.1659,190.0863 Q313.4002,189.9926 313.6534,189.7301 Q313.8128,189.5707 313.8971,189.5238 Q313.9909,189.477 314.1128,189.477 Q314.3096,189.477 314.4596,189.6363 Q314.619,189.7863 314.619,189.9926 Q314.619,190.1988 314.4128,190.4426 Q314.1128,190.7895 313.6346,190.9863 Q312.9878,191.2582 312.2096,191.2582 Q311.3003,191.2582 310.5784,190.8832 Q309.9878,190.5832 309.5753,189.9457 Q309.1628,189.2988 309.1628,188.5301 L309.1628,187.8363 Q309.1628,187.0395 309.5284,186.3551 Q309.9034,185.6613 310.5596,185.2957 Q311.2159,184.9207 311.9565,184.9207 Q312.3971,184.9207 312.7815,185.0238 Q313.1753,185.1176 313.5034,185.3332 Z " fill="#000000"/><text fill="#000000" font-family="sans-serif" font-size="8.4" lengthAdjust="spacing" textLength="48.5502" x="320.244" y="191.2863">User_Project</text><line style="stroke:#181818;stroke-width:0.3;" x1="303.444" x2="369.9942" y1="197.4082" y2="197.4082"/><line style="stroke:#181818;stroke-width:0.3;" x1="303.444" x2="369.9942" y1="202.2082" y2="202.2082"/></g><!--class ProjectRole--><g id="elem_ProjectRole"><rect fill="#F1F1F1" height="28.8" id="ProjectRole" rx="1.5" ry="1.5" style="stroke:#181818;stroke-width:0.3;" width="62.6191" x="396.744" y="254.4082"/><ellipse cx="405.744" cy="264.0082" fill="#ADD1B2" rx="6.6" ry="6.6" style="stroke:#181818;stroke-width:0.6;"/><path d="M407.4034,261.5332 Q407.4971,261.402 407.6096,261.3363 Q407.7221,261.2707 407.8534,261.2707 Q408.0784,261.2707 408.219,261.4301 Q408.3596,261.5801 408.3596,261.9457 L408.3596,262.8176 Q408.3596,263.1832 408.219,263.3426 Q408.0784,263.502 407.8534,263.502 Q407.6471,263.502 407.5252,263.3801 Q407.4034,263.2676 407.3377,262.9582 Q407.3096,262.7426 407.1971,262.6301 Q407.0003,262.4051 406.6346,262.2738 Q406.269,262.1426 405.894,262.1426 Q405.4346,262.1426 405.0503,262.3395 Q404.6753,262.5363 404.3753,262.9863 Q404.0846,263.4363 404.0846,264.0551 L404.0846,264.7113 Q404.0846,265.452 404.619,265.9488 Q405.1534,266.4363 406.1096,266.4363 Q406.6721,266.4363 407.0659,266.2863 Q407.3003,266.1926 407.5534,265.9301 Q407.7127,265.7707 407.7971,265.7238 Q407.8909,265.677 408.0128,265.677 Q408.2096,265.677 408.3596,265.8363 Q408.519,265.9863 408.519,266.1926 Q408.519,266.3988 408.3128,266.6426 Q408.0128,266.9895 407.5346,267.1863 Q406.8878,267.4582 406.1096,267.4582 Q405.2003,267.4582 404.4784,267.0832 Q403.8878,266.7832 403.4753,266.1457 Q403.0628,265.4988 403.0628,264.7301 L403.0628,264.0363 Q403.0628,263.2395 403.4284,262.5551 Q403.8034,261.8613 404.4596,261.4957 Q405.1159,261.1207 405.8565,261.1207 Q406.2971,261.1207 406.6815,261.2238 Q407.0753,261.3176 407.4034,261.5332 Z " fill="#000000"/><text fill="#000000" font-family="sans-serif" font-size="8.4" lengthAdjust="spacing" textLength="43.4191" x="414.144" y="267.4863">ProjectRole</text><line style="stroke:#181818;stroke-width:0.3;" x1="397.344" x2="458.7631" y1="273.6082" y2="273.6082"/><line style="stroke:#181818;stroke-width:0.3;" x1="397.344" x2="458.7631" y1="278.4082" y2="278.4082"/></g><!--class CustomList_CustomListItem--><g id="elem_CustomList_CustomListItem"><rect fill="#F1F1F1" height="28.8" id="CustomList_CustomListItem" rx="1.5" ry="1.5" style="stroke:#181818;stroke-width:0.3;" width="124.2328" x="55.644" y="254.4082"/><ellipse cx="64.644" cy="264.0082" fill="#ADD1B2" rx="6.6" ry="6.6" style="stroke:#181818;stroke-width:0.6;"/><path d="M66.3034,261.5332 Q66.3971,261.402 66.5096,261.3363 Q66.6221,261.2707 66.7534,261.2707 Q66.9784,261.2707 67.119,261.4301 Q67.2596,261.5801 67.2596,261.9457 L67.2596,262.8176 Q67.2596,263.1832 67.119,263.3426 Q66.9784,263.502 66.7534,263.502 Q66.5471,263.502 66.4252,263.3801 Q66.3034,263.2676 66.2377,262.9582 Q66.2096,262.7426 66.0971,262.6301 Q65.9003,262.4051 65.5346,262.2738 Q65.169,262.1426 64.794,262.1426 Q64.3346,262.1426 63.9503,262.3395 Q63.5753,262.5363 63.2752,262.9863 Q62.9846,263.4363 62.9846,264.0551 L62.9846,264.7113 Q62.9846,265.452 63.519,265.9488 Q64.0534,266.4363 65.0096,266.4363 Q65.5721,266.4363 65.9659,266.2863 Q66.2003,266.1926 66.4534,265.9301 Q66.6127,265.7707 66.6971,265.7238 Q66.7909,265.677 66.9127,265.677 Q67.1096,265.677 67.2596,265.8363 Q67.419,265.9863 67.419,266.1926 Q67.419,266.3988 67.2128,266.6426 Q66.9127,266.9895 66.4346,267.1863 Q65.7877,267.4582 65.0096,267.4582 Q64.1002,267.4582 63.3784,267.0832 Q62.7877,266.7832 62.3752,266.1457 Q61.9627,265.4988 61.9627,264.7301 L61.9627,264.0363 Q61.9627,263.2395 62.3284,262.5551 Q62.7034,261.8613 63.3596,261.4957 Q64.0159,261.1207 64.7565,261.1207 Q65.1971,261.1207 65.5815,261.2238 Q65.9752,261.3176 66.3034,261.5332 Z " fill="#000000"/><text fill="#000000" font-family="sans-serif" font-size="8.4" lengthAdjust="spacing" textLength="105.0328" x="73.044" y="267.4863">CustomList_CustomListItem</text><line style="stroke:#181818;stroke-width:0.3;" x1="56.244" x2="179.2768" y1="273.6082" y2="273.6082"/><line style="stroke:#181818;stroke-width:0.3;" x1="56.244" x2="179.2768" y1="278.4082" y2="278.4082"/></g><!--class Priority--><g id="elem_Priority"><rect fill="#F1F1F1" height="28.8" id="Priority" rx="1.5" ry="1.5" style="stroke:#181818;stroke-width:0.3;" width="45.3352" x="591.144" y="348.0082"/><ellipse cx="600.144" cy="357.6082" fill="#ADD1B2" rx="6.6" ry="6.6" style="stroke:#181818;stroke-width:0.6;"/><path d="M601.8034,355.1332 Q601.8971,355.002 602.0096,354.9363 Q602.1221,354.8707 602.2534,354.8707 Q602.4784,354.8707 602.619,355.0301 Q602.7596,355.1801 602.7596,355.5457 L602.7596,356.4176 Q602.7596,356.7832 602.619,356.9426 Q602.4784,357.102 602.2534,357.102 Q602.0471,357.102 601.9253,356.9801 Q601.8034,356.8676 601.7378,356.5582 Q601.7096,356.3426 601.5971,356.2301 Q601.4003,356.0051 601.0346,355.8738 Q600.669,355.7426 600.294,355.7426 Q599.8346,355.7426 599.4503,355.9395 Q599.0753,356.1363 598.7753,356.5863 Q598.4846,357.0363 598.4846,357.6551 L598.4846,358.3113 Q598.4846,359.052 599.019,359.5488 Q599.5534,360.0363 600.5096,360.0363 Q601.0721,360.0363 601.4659,359.8863 Q601.7003,359.7926 601.9534,359.5301 Q602.1128,359.3707 602.1971,359.3238 Q602.2909,359.277 602.4128,359.277 Q602.6096,359.277 602.7596,359.4363 Q602.919,359.5863 602.919,359.7926 Q602.919,359.9988 602.7128,360.2426 Q602.4128,360.5895 601.9346,360.7863 Q601.2878,361.0582 600.5096,361.0582 Q599.6003,361.0582 598.8784,360.6832 Q598.2878,360.3832 597.8752,359.7457 Q597.4628,359.0988 597.4628,358.3301 L597.4628,357.6363 Q597.4628,356.8395 597.8284,356.1551 Q598.2034,355.4613 598.8596,355.0957 Q599.5159,354.7207 600.2565,354.7207 Q600.6971,354.7207 601.0815,354.8238 Q601.4753,354.9176 601.8034,355.1332 Z " fill="#000000"/><text fill="#000000" font-family="sans-serif" font-size="8.4" lengthAdjust="spacing" textLength="26.1352" x="608.544" y="361.0863">Priority</text><line style="stroke:#181818;stroke-width:0.3;" x1="591.744" x2="635.8792" y1="367.2082" y2="367.2082"/><line style="stroke:#181818;stroke-width:0.3;" x1="591.744" x2="635.8792" y1="372.0082" y2="372.0082"/></g><!--class Status--><g id="elem_Status"><rect fill="#F1F1F1" height="28.8" id="Status" rx="1.5" ry="1.5" style="stroke:#181818;stroke-width:0.3;" width="43.0137" x="657.744" y="348.0082"/><ellipse cx="666.744" cy="357.6082" fill="#ADD1B2" rx="6.6" ry="6.6" style="stroke:#181818;stroke-width:0.6;"/><path d="M668.4034,355.1332 Q668.4971,355.002 668.6096,354.9363 Q668.7221,354.8707 668.8534,354.8707 Q669.0784,354.8707 669.219,355.0301 Q669.3596,355.1801 669.3596,355.5457 L669.3596,356.4176 Q669.3596,356.7832 669.219,356.9426 Q669.0784,357.102 668.8534,357.102 Q668.6471,357.102 668.5253,356.9801 Q668.4034,356.8676 668.3378,356.5582 Q668.3096,356.3426 668.1971,356.2301 Q668.0002,356.0051 667.6346,355.8738 Q667.269,355.7426 666.894,355.7426 Q666.4346,355.7426 666.0503,355.9395 Q665.6753,356.1363 665.3752,356.5863 Q665.0846,357.0363 665.0846,357.6551 L665.0846,358.3113 Q665.0846,359.052 665.619,359.5488 Q666.1534,360.0363 667.1096,360.0363 Q667.6721,360.0363 668.0659,359.8863 Q668.3003,359.7926 668.5534,359.5301 Q668.7128,359.3707 668.7971,359.3238 Q668.8909,359.277 669.0128,359.277 Q669.2096,359.277 669.3596,359.4363 Q669.519,359.5863 669.519,359.7926 Q669.519,359.9988 669.3127,360.2426 Q669.0128,360.5895 668.5346,360.7863 Q667.8878,361.0582 667.1096,361.0582 Q666.2003,361.0582 665.4784,360.6832 Q664.8878,360.3832 664.4753,359.7457 Q664.0627,359.0988 664.0627,358.3301 L664.0627,357.6363 Q664.0627,356.8395 664.4284,356.1551 Q664.8034,355.4613 665.4596,355.0957 Q666.1159,354.7207 666.8565,354.7207 Q667.2971,354.7207 667.6815,354.8238 Q668.0753,354.9176 668.4034,355.1332 Z " fill="#000000"/><text fill="#000000" font-family="sans-serif" font-size="8.4" lengthAdjust="spacing" textLength="23.8137" x="675.144" y="361.0863">Status</text><line style="stroke:#181818;stroke-width:0.3;" x1="658.344" x2="700.1577" y1="367.2082" y2="367.2082"/><line style="stroke:#181818;stroke-width:0.3;" x1="658.344" x2="700.1577" y1="372.0082" y2="372.0082"/></g><!--class Task_TaskHelper--><g id="elem_Task_TaskHelper"><rect fill="#F1F1F1" height="28.8" id="Task_TaskHelper" rx="1.5" ry="1.5" style="stroke:#181818;stroke-width:0.3;" width="85.0219" x="502.344" y="178.2082"/><ellipse cx="511.344" cy="187.8082" fill="#ADD1B2" rx="6.6" ry="6.6" style="stroke:#181818;stroke-width:0.6;"/><path d="M513.0034,185.3332 Q513.0971,185.202 513.2096,185.1363 Q513.3221,185.0707 513.4534,185.0707 Q513.6784,185.0707 513.819,185.2301 Q513.9596,185.3801 513.9596,185.7457 L513.9596,186.6176 Q513.9596,186.9832 513.819,187.1426 Q513.6784,187.302 513.4534,187.302 Q513.2471,187.302 513.1252,187.1801 Q513.0034,187.0676 512.9377,186.7582 Q512.9096,186.5426 512.7971,186.4301 Q512.6003,186.2051 512.2346,186.0738 Q511.869,185.9426 511.494,185.9426 Q511.0346,185.9426 510.6502,186.1395 Q510.2752,186.3363 509.9752,186.7863 Q509.6846,187.2363 509.6846,187.8551 L509.6846,188.5113 Q509.6846,189.252 510.219,189.7488 Q510.7534,190.2363 511.7096,190.2363 Q512.2721,190.2363 512.6659,190.0863 Q512.9003,189.9926 513.1534,189.7301 Q513.3127,189.5707 513.3971,189.5238 Q513.4909,189.477 513.6128,189.477 Q513.8096,189.477 513.9596,189.6363 Q514.119,189.7863 514.119,189.9926 Q514.119,190.1988 513.9128,190.4426 Q513.6128,190.7895 513.1346,190.9863 Q512.4878,191.2582 511.7096,191.2582 Q510.8003,191.2582 510.0784,190.8832 Q509.4878,190.5832 509.0753,189.9457 Q508.6627,189.2988 508.6627,188.5301 L508.6627,187.8363 Q508.6627,187.0395 509.0284,186.3551 Q509.4034,185.6613 510.0596,185.2957 Q510.7159,184.9207 511.4565,184.9207 Q511.8971,184.9207 512.2815,185.0238 Q512.6753,185.1176 513.0034,185.3332 Z " fill="#000000"/><text fill="#000000" font-family="sans-serif" font-size="8.4" lengthAdjust="spacing" textLength="65.8219" x="519.744" y="191.2863">Task_TaskHelper</text><line style="stroke:#181818;stroke-width:0.3;" x1="502.944" x2="586.7659" y1="197.4082" y2="197.4082"/><line style="stroke:#181818;stroke-width:0.3;" x1="502.944" x2="586.7659" y1="202.2082" y2="202.2082"/></g><!--class RecurringTask--><g id="elem_RecurringTask"><rect fill="#F1F1F1" height="28.8" id="RecurringTask" rx="1.5" ry="1.5" style="stroke:#181818;stroke-width:0.3;" width="73.8164" x="608.844" y="178.2082"/><ellipse cx="617.844" cy="187.8082" fill="#ADD1B2" rx="6.6" ry="6.6" style="stroke:#181818;stroke-width:0.6;"/><path d="M619.5034,185.3332 Q619.5971,185.202 619.7096,185.1363 Q619.8221,185.0707 619.9534,185.0707 Q620.1784,185.0707 620.319,185.2301 Q620.4596,185.3801 620.4596,185.7457 L620.4596,186.6176 Q620.4596,186.9832 620.319,187.1426 Q620.1784,187.302 619.9534,187.302 Q619.7471,187.302 619.6252,187.1801 Q619.5034,187.0676 619.4377,186.7582 Q619.4096,186.5426 619.2971,186.4301 Q619.1003,186.2051 618.7346,186.0738 Q618.369,185.9426 617.994,185.9426 Q617.5346,185.9426 617.1503,186.1395 Q616.7753,186.3363 616.4753,186.7863 Q616.1846,187.2363 616.1846,187.8551 L616.1846,188.5113 Q616.1846,189.252 616.719,189.7488 Q617.2534,190.2363 618.2096,190.2363 Q618.7721,190.2363 619.1659,190.0863 Q619.4003,189.9926 619.6534,189.7301 Q619.8127,189.5707 619.8971,189.5238 Q619.9909,189.477 620.1128,189.477 Q620.3096,189.477 620.4596,189.6363 Q620.619,189.7863 620.619,189.9926 Q620.619,190.1988 620.4128,190.4426 Q620.1128,190.7895 619.6346,190.9863 Q618.9878,191.2582 618.2096,191.2582 Q617.3003,191.2582 616.5784,190.8832 Q615.9878,190.5832 615.5753,189.9457 Q615.1628,189.2988 615.1628,188.5301 L615.1628,187.8363 Q615.1628,187.0395 615.5284,186.3551 Q615.9034,185.6613 616.5596,185.2957 Q617.2159,184.9207 617.9565,184.9207 Q618.3971,184.9207 618.7815,185.0238 Q619.1753,185.1176 619.5034,185.3332 Z " fill="#000000"/><text fill="#000000" font-family="sans-serif" font-size="8.4" lengthAdjust="spacing" textLength="54.6164" x="626.244" y="191.2863">RecurringTask</text><line style="stroke:#181818;stroke-width:0.3;" x1="609.444" x2="682.0604" y1="197.4082" y2="197.4082"/><line style="stroke:#181818;stroke-width:0.3;" x1="609.444" x2="682.0604" y1="202.2082" y2="202.2082"/></g><!--class RecurrenceCycle--><g id="elem_RecurrenceCycle"><rect fill="#F1F1F1" height="28.8" id="RecurrenceCycle" rx="1.5" ry="1.5" style="stroke:#181818;stroke-width:0.3;" width="83.6232" x="716.844" y="178.2082"/><ellipse cx="725.844" cy="187.8082" fill="#ADD1B2" rx="6.6" ry="6.6" style="stroke:#181818;stroke-width:0.6;"/><path d="M727.5034,185.3332 Q727.5971,185.202 727.7096,185.1363 Q727.8221,185.0707 727.9534,185.0707 Q728.1784,185.0707 728.319,185.2301 Q728.4596,185.3801 728.4596,185.7457 L728.4596,186.6176 Q728.4596,186.9832 728.319,187.1426 Q728.1784,187.302 727.9534,187.302 Q727.7471,187.302 727.6252,187.1801 Q727.5034,187.0676 727.4377,186.7582 Q727.4096,186.5426 727.2971,186.4301 Q727.1003,186.2051 726.7346,186.0738 Q726.369,185.9426 725.994,185.9426 Q725.5346,185.9426 725.1503,186.1395 Q724.7753,186.3363 724.4753,186.7863 Q724.1846,187.2363 724.1846,187.8551 L724.1846,188.5113 Q724.1846,189.252 724.719,189.7488 Q725.2534,190.2363 726.2096,190.2363 Q726.7721,190.2363 727.1659,190.0863 Q727.4003,189.9926 727.6534,189.7301 Q727.8127,189.5707 727.8971,189.5238 Q727.9909,189.477 728.1128,189.477 Q728.3096,189.477 728.4596,189.6363 Q728.619,189.7863 728.619,189.9926 Q728.619,190.1988 728.4128,190.4426 Q728.1128,190.7895 727.6346,190.9863 Q726.9878,191.2582 726.2096,191.2582 Q725.3003,191.2582 724.5784,190.8832 Q723.9878,190.5832 723.5753,189.9457 Q723.1628,189.2988 723.1628,188.5301 L723.1628,187.8363 Q723.1628,187.0395 723.5284,186.3551 Q723.9034,185.6613 724.5596,185.2957 Q725.2159,184.9207 725.9565,184.9207 Q726.3971,184.9207 726.7815,185.0238 Q727.1753,185.1176 727.5034,185.3332 Z " fill="#000000"/><text fill="#000000" font-family="sans-serif" font-size="8.4" lengthAdjust="spacing" textLength="64.4232" x="734.244" y="191.2863">RecurrenceCycle</text><line style="stroke:#181818;stroke-width:0.3;" x1="717.444" x2="799.8672" y1="197.4082" y2="197.4082"/><line style="stroke:#181818;stroke-width:0.3;" x1="717.444" x2="799.8672" y1="202.2082" y2="202.2082"/></g><!--class NonRecurringTask--><g id="elem_NonRecurringTask"><rect fill="#F1F1F1" height="28.8" id="NonRecurringTask" rx="1.5" ry="1.5" style="stroke:#181818;stroke-width:0.3;" width="89.226" x="391.644" y="178.2082"/><ellipse cx="400.644" cy="187.8082" fill="#ADD1B2" rx="6.6" ry="6.6" style="stroke:#181818;stroke-width:0.6;"/><path d="M402.3034,185.3332 Q402.3971,185.202 402.5096,185.1363 Q402.6221,185.0707 402.7534,185.0707 Q402.9784,185.0707 403.119,185.2301 Q403.2596,185.3801 403.2596,185.7457 L403.2596,186.6176 Q403.2596,186.9832 403.119,187.1426 Q402.9784,187.302 402.7534,187.302 Q402.5471,187.302 402.4253,187.1801 Q402.3034,187.0676 402.2378,186.7582 Q402.2096,186.5426 402.0971,186.4301 Q401.9002,186.2051 401.5346,186.0738 Q401.169,185.9426 400.794,185.9426 Q400.3346,185.9426 399.9503,186.1395 Q399.5753,186.3363 399.2752,186.7863 Q398.9846,187.2363 398.9846,187.8551 L398.9846,188.5113 Q398.9846,189.252 399.519,189.7488 Q400.0534,190.2363 401.0096,190.2363 Q401.5721,190.2363 401.9659,190.0863 Q402.2003,189.9926 402.4534,189.7301 Q402.6128,189.5707 402.6971,189.5238 Q402.7909,189.477 402.9128,189.477 Q403.1096,189.477 403.2596,189.6363 Q403.419,189.7863 403.419,189.9926 Q403.419,190.1988 403.2127,190.4426 Q402.9128,190.7895 402.4346,190.9863 Q401.7878,191.2582 401.0096,191.2582 Q400.1003,191.2582 399.3784,190.8832 Q398.7878,190.5832 398.3753,189.9457 Q397.9627,189.2988 397.9627,188.5301 L397.9627,187.8363 Q397.9627,187.0395 398.3284,186.3551 Q398.7034,185.6613 399.3596,185.2957 Q400.0159,184.9207 400.7565,184.9207 Q401.1971,184.9207 401.5815,185.0238 Q401.9753,185.1176 402.3034,185.3332 Z " fill="#000000"/><text fill="#000000" font-family="sans-serif" font-size="8.4" lengthAdjust="spacing" textLength="70.026" x="409.044" y="191.2863">NonRecurringTask</text><line style="stroke:#181818;stroke-width:0.3;" x1="392.244" x2="480.27" y1="197.4082" y2="197.4082"/><line style="stroke:#181818;stroke-width:0.3;" x1="392.244" x2="480.27" y1="202.2082" y2="202.2082"/></g><!--class ShoppingList_ShoppingListItem--><g id="elem_ShoppingList_ShoppingListItem"><rect fill="#F1F1F1" height="28.8" id="ShoppingList_ShoppingListItem" rx="1.5" ry="1.5" style="stroke:#181818;stroke-width:0.3;" width="137.3496" x="802.044" y="301.2082"/><ellipse cx="811.044" cy="310.8082" fill="#ADD1B2" rx="6.6" ry="6.6" style="stroke:#181818;stroke-width:0.6;"/><path d="M812.7034,308.3332 Q812.7971,308.202 812.9096,308.1363 Q813.0221,308.0707 813.1534,308.0707 Q813.3784,308.0707 813.519,308.2301 Q813.6596,308.3801 813.6596,308.7457 L813.6596,309.6176 Q813.6596,309.9832 813.519,310.1426 Q813.3784,310.302 813.1534,310.302 Q812.9471,310.302 812.8253,310.1801 Q812.7034,310.0676 812.6378,309.7582 Q812.6096,309.5426 812.4971,309.4301 Q812.3003,309.2051 811.9346,309.0738 Q811.569,308.9426 811.194,308.9426 Q810.7346,308.9426 810.3503,309.1395 Q809.9753,309.3363 809.6753,309.7863 Q809.3846,310.2363 809.3846,310.8551 L809.3846,311.5113 Q809.3846,312.252 809.919,312.7488 Q810.4534,313.2363 811.4096,313.2363 Q811.9721,313.2363 812.3659,313.0863 Q812.6003,312.9926 812.8534,312.7301 Q813.0128,312.5707 813.0971,312.5238 Q813.1909,312.477 813.3127,312.477 Q813.5096,312.477 813.6596,312.6363 Q813.819,312.7863 813.819,312.9926 Q813.819,313.1988 813.6128,313.4426 Q813.3127,313.7895 812.8346,313.9863 Q812.1877,314.2582 811.4096,314.2582 Q810.5002,314.2582 809.7784,313.8832 Q809.1877,313.5832 808.7753,312.9457 Q808.3628,312.2988 808.3628,311.5301 L808.3628,310.8363 Q808.3628,310.0395 808.7284,309.3551 Q809.1034,308.6613 809.7596,308.2957 Q810.4159,307.9207 811.1565,307.9207 Q811.5971,307.9207 811.9815,308.0238 Q812.3752,308.1176 812.7034,308.3332 Z " fill="#000000"/><text fill="#000000" font-family="sans-serif" font-size="8.4" lengthAdjust="spacing" textLength="118.1496" x="819.444" y="314.2863">ShoppingList_ShoppingListItem</text><line style="stroke:#181818;stroke-width:0.3;" x1="802.644" x2="938.7936" y1="320.4082" y2="320.4082"/><line style="stroke:#181818;stroke-width:0.3;" x1="802.644" x2="938.7936" y1="325.2082" y2="325.2082"/></g><!--reverse link User to Household_User--><g id="link_User_Household_User"><path codeLine="224" d="M519.1148,41.1384 C451.2188,42.1584 224.55,47.3542 154.944,72.6082 C137.34,78.9922 120.174,91.8682 108.528,101.9062 " fill="none" id="User-backto-Household_User" style="stroke:#181818;stroke-width:0.6;"/><polygon fill="#181818" points="526.314,41.0302,522.6784,38.6846,519.1148,41.1384,522.7505,43.484,526.314,41.0302" style="stroke:#181818;stroke-width:0.6;"/><text fill="#000000" font-family="sans-serif" font-size="7.8" lengthAdjust="spacing" textLength="35.995" x="155.544" y="81.6252">belongs to</text><text fill="#000000" font-family="sans-serif" font-size="7.8" lengthAdjust="spacing" textLength="4.338" x="517.1102" y="38.2257">1</text><text fill="#000000" font-family="sans-serif" font-size="7.8" lengthAdjust="spacing" textLength="11.7076" x="99.3591" y="95.3665">0..*</text></g><!--link Household_User to Household--><g id="link_Household_User_Household"><path codeLine="225" d="M77.718,131.0302 C66.024,142.4062 51.108,159.5602 44.544,178.2082 C3.6,294.4822 54.144,332.1322 54.144,455.4082 C54.144,455.4082 54.144,455.4082 54.144,600.3082 C54.144,649.4962 422.8381,655.1088 532.5961,655.7088 " fill="none" id="Household_User-to-Household" style="stroke:#181818;stroke-width:0.6;"/><polygon fill="#181818" points="539.796,655.7482,536.2092,653.3286,532.5961,655.7088,536.1829,658.1285,539.796,655.7482" style="stroke:#181818;stroke-width:0.6;"/><text fill="#000000" font-family="sans-serif" font-size="7.8" lengthAdjust="spacing" textLength="35.995" x="52.944" y="412.5252">belongs to</text><text fill="#000000" font-family="sans-serif" font-size="7.8" lengthAdjust="spacing" textLength="11.7076" x="61.3099" y="144.0281">0..*</text><text fill="#000000" font-family="sans-serif" font-size="7.8" lengthAdjust="spacing" textLength="4.338" x="530.7327" y="664.8584">1</text></g><!--link Household_User to HouseholdRole--><g id="link_Household_User_HouseholdRole"><path codeLine="226" d="M93.744,130.9402 C93.744,144.4102 93.744,157.5082 93.744,170.9542 " fill="none" id="Household_User-to-HouseholdRole" style="stroke:#181818;stroke-width:0.6;"/><polygon fill="#181818" points="93.744,178.1542,96.144,174.5542,93.744,170.9542,91.344,174.5542,93.744,178.1542" style="stroke:#181818;stroke-width:0.6;"/><text fill="#000000" font-family="sans-serif" font-size="7.8" lengthAdjust="spacing" textLength="19.0811" x="94.344" y="157.8252">has a</text><text fill="#000000" font-family="sans-serif" font-size="7.8" lengthAdjust="spacing" textLength="11.7076" x="81.0419" y="143.9173">0..*</text><text fill="#000000" font-family="sans-serif" font-size="7.8" lengthAdjust="spacing" textLength="4.338" x="89.0443" y="171.3829">1</text></g><!--link AreaOfResponsibility to Household--><g id="link_AreaOfResponsibility_Household"><path codeLine="228" d="M569.544,546.6802 C569.544,570.3622 569.544,611.1382 569.544,634.7902 " fill="none" id="AreaOfResponsibility-to-Household" style="stroke:#181818;stroke-width:0.6;"/><polygon fill="#181818" points="569.544,641.9902,571.944,638.3902,569.544,634.7902,567.144,638.3902,569.544,641.9902" style="stroke:#181818;stroke-width:0.6;"/><text fill="#000000" font-family="sans-serif" font-size="7.8" lengthAdjust="spacing" textLength="35.995" x="570.144" y="603.0252">belongs to</text><text fill="#000000" font-family="sans-serif" font-size="7.8" lengthAdjust="spacing" textLength="11.7076" x="556.8123" y="559.8892">0..*</text><text fill="#000000" font-family="sans-serif" font-size="7.8" lengthAdjust="spacing" textLength="4.338" x="564.8284" y="635.2281">1</text></g><!--link Project to Household--><g id="link_Project_Household"><path codeLine="229" d="M451.236,367.0462 C411.162,375.5662 332.544,399.4162 332.544,455.4082 C332.544,455.4082 332.544,455.4082 332.544,600.3082 C332.544,642.4102 468.9173,652.3155 532.5713,654.7635 " fill="none" id="Project-to-Household" style="stroke:#181818;stroke-width:0.6;"/><polygon fill="#181818" points="539.766,655.0402,536.2609,652.5036,532.5713,654.7635,536.0764,657.3001,539.766,655.0402" style="stroke:#181818;stroke-width:0.6;"/><text fill="#000000" font-family="sans-serif" font-size="7.8" lengthAdjust="spacing" textLength="35.995" x="333.144" y="535.5252">belongs to</text><text fill="#000000" font-family="sans-serif" font-size="7.8" lengthAdjust="spacing" textLength="11.7076" x="434.7905" y="377.2133">0..*</text><text fill="#000000" font-family="sans-serif" font-size="7.8" lengthAdjust="spacing" textLength="4.338" x="530.6981" y="652.2802">1</text></g><!--link CustomList to Household--><g id="link_CustomList_Household"><path codeLine="230" d="M208.44,207.0202 C228.03,220.0042 252.144,241.4242 252.144,268.2082 C252.144,268.2082 252.144,268.2082 252.144,600.3082 C252.144,629.3242 453.4943,647.2279 532.5023,653.1739 " fill="none" id="CustomList-to-Household" style="stroke:#181818;stroke-width:0.6;"/><polygon fill="#181818" points="539.682,653.7142,536.2723,651.0508,532.5023,653.1739,535.912,655.8373,539.682,653.7142" style="stroke:#181818;stroke-width:0.6;"/><text fill="#000000" font-family="sans-serif" font-size="7.8" lengthAdjust="spacing" textLength="35.995" x="252.744" y="459.3252">belongs to</text><text fill="#000000" font-family="sans-serif" font-size="7.8" lengthAdjust="spacing" textLength="11.7076" x="201.7063" y="220.2145">0..*</text><text fill="#000000" font-family="sans-serif" font-size="7.8" lengthAdjust="spacing" textLength="4.338" x="530.8005" y="650.7993">1</text></g><!--link CustomListItem to Household--><g id="link_CustomListItem_Household"><path codeLine="231" d="M152.442,423.8902 C156.882,440.4082 163.344,468.7042 163.344,493.5082 C163.344,493.5082 163.344,493.5082 163.344,600.3082 C163.344,638.3182 439.0065,651.2863 532.6425,654.6163 " fill="none" id="CustomListItem-to-Household" style="stroke:#181818;stroke-width:0.6;"/><polygon fill="#181818" points="539.838,654.8722,536.3256,652.3458,532.6425,654.6163,536.155,657.1427,539.838,654.8722" style="stroke:#181818;stroke-width:0.6;"/><text fill="#000000" font-family="sans-serif" font-size="7.8" lengthAdjust="spacing" textLength="35.995" x="163.944" y="535.5252">belongs to</text><text fill="#000000" font-family="sans-serif" font-size="7.8" lengthAdjust="spacing" textLength="11.7076" x="140.6899" y="436.902">0..*</text><text fill="#000000" font-family="sans-serif" font-size="7.8" lengthAdjust="spacing" textLength="4.338" x="530.7811" y="663.8483">1</text></g><!--link Task to Household--><g id="link_Task_Household"><path codeLine="232" d="M692.502,283.3162 C696.786,288.5602 701.148,294.8122 703.944,301.2082 C717.462,332.1622 718.71,343.7542 711.744,376.8082 C688.854,485.4622 669.126,510.8302 610.944,605.4082 C602.814,618.6202 596.344,626.774 587.614,636.476 " fill="none" id="Task-to-Household" style="stroke:#181818;stroke-width:0.6;"/><polygon fill="#181818" points="582.798,641.8282,586.9901,640.7574,587.614,636.476,583.4219,637.5468,582.798,641.8282" style="stroke:#181818;stroke-width:0.6;"/><text fill="#000000" font-family="sans-serif" font-size="7.8" lengthAdjust="spacing" textLength="35.995" x="678.144" y="497.4252">belongs to</text><text fill="#000000" font-family="sans-serif" font-size="7.8" lengthAdjust="spacing" textLength="11.7076" x="682.9327" y="296.5339">0..*</text><text fill="#000000" font-family="sans-serif" font-size="7.8" lengthAdjust="spacing" textLength="4.338" x="581.3382" y="635.2695">1</text></g><!--link ShoppingList to Household--><g id="link_ShoppingList_Household"><path codeLine="233" d="M932.262,207.0922 C935.502,212.4322 938.694,218.7502 940.344,225.0082 C970.824,340.7362 919.944,373.8322 919.944,493.5082 C919.944,493.5082 919.944,493.5082 919.944,600.3082 C919.944,632.6602 691.0619,648.8802 606.4559,653.8002 " fill="none" id="ShoppingList-to-Household" style="stroke:#181818;stroke-width:0.6;"/><polygon fill="#181818" points="599.268,654.2182,603.0013,656.4052,606.4559,653.8002,602.7226,651.6133,599.268,654.2182" style="stroke:#181818;stroke-width:0.6;"/><text fill="#000000" font-family="sans-serif" font-size="7.8" lengthAdjust="spacing" textLength="35.995" x="923.544" y="459.3252">belongs to</text><text fill="#000000" font-family="sans-serif" font-size="7.8" lengthAdjust="spacing" textLength="11.7076" x="921.9312" y="220.3041">0..*</text><text fill="#000000" font-family="sans-serif" font-size="7.8" lengthAdjust="spacing" textLength="4.338" x="603.955" y="651.3773">1</text></g><!--link ShoppingListItem to Household--><g id="link_ShoppingListItem_Household"><path codeLine="234" d="M851.79,470.4862 C856.5,475.5922 861.066,481.7662 863.544,488.4082 C869.262,503.7202 866.904,526.3342 855.144,546.6082 C834.726,581.8162 821.058,586.6462 784.944,605.4082 C723.768,637.1962 649.65,648.4655 606.528,652.7915 " fill="none" id="ShoppingListItem-to-Household" style="stroke:#181818;stroke-width:0.6;"/><polygon fill="#181818" points="599.364,653.5102,603.1856,655.5389,606.528,652.7915,602.7065,650.7628,599.364,653.5102" style="stroke:#181818;stroke-width:0.6;"/><text fill="#000000" font-family="sans-serif" font-size="7.8" lengthAdjust="spacing" textLength="35.995" x="843.144" y="573.6252">belongs to</text><text fill="#000000" font-family="sans-serif" font-size="7.8" lengthAdjust="spacing" textLength="11.7076" x="842.8875" y="483.6966">0..*</text><text fill="#000000" font-family="sans-serif" font-size="7.8" lengthAdjust="spacing" textLength="4.338" x="604.0651" y="662.2634">1</text></g><!--link ShoppingListItemCategory to Household--><g id="link_ShoppingListItemCategory_Household"><path codeLine="235" d="M778.05,546.6922 C766.32,567.0022 741.666,604.5322 709.944,624.0082 C675.762,644.9962 636.4324,651.5839 606.4864,654.0139 " fill="none" id="ShoppingListItemCategory-to-Household" style="stroke:#181818;stroke-width:0.6;"/><polygon fill="#181818" points="599.31,654.5962,603.0923,656.6972,606.4864,654.0139,602.7041,651.9129,599.31,654.5962" style="stroke:#181818;stroke-width:0.6;"/><text fill="#000000" font-family="sans-serif" font-size="7.8" lengthAdjust="spacing" textLength="35.995" x="744.144" y="603.0252">belongs to</text><text fill="#000000" font-family="sans-serif" font-size="7.8" lengthAdjust="spacing" textLength="11.7076" x="763.4725" y="559.9041">0..*</text><text fill="#000000" font-family="sans-serif" font-size="7.8" lengthAdjust="spacing" textLength="4.338" x="604.0032" y="663.5089">1</text></g><!--reverse link Project to ProjectGoal--><g id="link_Project_ProjectGoal"><path codeLine="237" d="M462.9058,383.1306 C453.1798,400.5486 440.076,424.0162 430.32,441.4822 " fill="none" id="Project-backto-ProjectGoal" style="stroke:#181818;stroke-width:0.6;"/><polygon fill="#181818" points="466.416,376.8442,462.5654,378.8173,462.9058,383.1306,466.7563,381.1575,466.416,376.8442" style="stroke:#181818;stroke-width:0.6;"/><text fill="#000000" font-family="sans-serif" font-size="7.8" lengthAdjust="spacing" textLength="12.576" x="456.144" y="412.5252">has</text><text fill="#000000" font-family="sans-serif" font-size="7.8" lengthAdjust="spacing" textLength="4.338" x="459.8685" y="390.0444">1</text><text fill="#000000" font-family="sans-serif" font-size="7.8" lengthAdjust="spacing" textLength="11.7076" x="419.4529" y="434.9366">0..*</text></g><!--link User_Project to Project--><g id="link_User_Project_Project"><path codeLine="238" d="M370.788,203.8462 C396.042,211.8502 427.044,221.9362 432.744,225.0082 C451.296,235.0042 460.392,235.6222 469.944,254.4082 C485.382,284.7622 480.942,326.4202 477.12,347.8402 " fill="none" id="User_Project-Project" style="stroke:#181818;stroke-width:0.6;"/><text fill="#000000" font-family="sans-serif" font-size="7.8" lengthAdjust="spacing" textLength="36.8558" x="478.944" y="272.1252">involved in</text><text fill="#000000" font-family="sans-serif" font-size="7.8" lengthAdjust="spacing" textLength="11.7076" x="375.1463" y="202.8156">0..*</text><text fill="#000000" font-family="sans-serif" font-size="7.8" lengthAdjust="spacing" textLength="4.338" x="473.1816" y="341.2844">1</text></g><!--link User_Project to ProjectRole--><g id="link_User_Project_ProjectRole"><path codeLine="239" d="M353.682,207.1402 C370.068,220.6102 394.746,240.9082 411.096,254.3542 " fill="none" id="User_Project-ProjectRole" style="stroke:#181818;stroke-width:0.6;"/><text fill="#000000" font-family="sans-serif" font-size="7.8" lengthAdjust="spacing" textLength="39.0229" x="388.344" y="234.0252">involved as</text><text fill="#000000" font-family="sans-serif" font-size="7.8" lengthAdjust="spacing" textLength="11.7076" x="344.9221" y="220.1173">0..*</text><text fill="#000000" font-family="sans-serif" font-size="7.8" lengthAdjust="spacing" textLength="4.338" x="402.0302" y="247.5829">1</text></g><!--reverse link CustomList to CustomList_CustomListItem--><g id="link_CustomList_CustomList_CustomListItem"><path codeLine="241" d="M166.7289,212.5449 C154.8729,226.0149 141.768,240.9082 129.936,254.3542 " fill="none" id="CustomList-backto-CustomList_CustomListItem" style="stroke:#181818;stroke-width:0.6;"/><polygon fill="#181818" points="171.486,207.1402,167.3059,208.2568,166.7289,212.5449,170.909,211.4282,171.486,207.1402" style="stroke:#181818;stroke-width:0.6;"/><text fill="#000000" font-family="sans-serif" font-size="7.8" lengthAdjust="spacing" textLength="36.8481" x="154.944" y="234.0252">consists of</text><text fill="#000000" font-family="sans-serif" font-size="7.8" lengthAdjust="spacing" textLength="4.338" x="163.9802" y="220.1173">1</text><text fill="#000000" font-family="sans-serif" font-size="7.8" lengthAdjust="spacing" textLength="11.7076" x="120.2348" y="247.5829">0..*</text></g><!--link CustomList_CustomListItem to CustomListItem--><g id="link_CustomList_CustomListItem_CustomListItem"><path codeLine="242" d="M120.792,283.2622 C126.642,309.8782 139.386,367.8682 145.266,394.6042 " fill="none" id="CustomList_CustomListItem-CustomListItem" style="stroke:#181818;stroke-width:0.6;"/><text fill="#000000" font-family="sans-serif" font-size="7.8" lengthAdjust="spacing" textLength="19.0811" x="130.944" y="318.9252">has a</text><text fill="#000000" font-family="sans-serif" font-size="7.8" lengthAdjust="spacing" textLength="11.7076" x="108.7791" y="296.4668">0..*</text><text fill="#000000" font-family="sans-serif" font-size="7.8" lengthAdjust="spacing" textLength="4.338" x="139.8025" y="388.0396">1</text></g><!--link CustomList_CustomListItem to CustomList_CustomListItem--><g id="link_CustomList_CustomListItem_CustomList_CustomListItem"><path codeLine="243" d="M179.898,262.1302 C192.138,262.8982 200.844,265.1182 200.844,268.8082 C200.844,272.4982 192.138,274.7182 179.898,275.4862 " fill="none" id="CustomList_CustomListItem-CustomList_CustomListItem" style="stroke:#181818;stroke-width:0.6;"/><text fill="#000000" font-family="sans-serif" font-size="7.8" lengthAdjust="spacing" textLength="32.514" x="204.444" y="272.1252">is child of</text><text fill="#000000" font-family="sans-serif" font-size="7.8" lengthAdjust="spacing" textLength="11.7076" x="184.6786" y="259.5252">0..*</text><text fill="#000000" font-family="sans-serif" font-size="7.8" lengthAdjust="spacing" textLength="13.0102" x="184.7244" y="273.8203">0..1</text></g><!--link Task to Priority--><g id="link_Task_Priority"><path codeLine="245" d="M668.244,283.3462 C663.942,288.8482 659.034,295.2682 654.744,301.2082 C643.38,316.9402 631.026,335.5102 622.926,347.9122 " fill="none" id="Task-Priority" style="stroke:#181818;stroke-width:0.6;"/><text fill="#000000" font-family="sans-serif" font-size="7.8" lengthAdjust="spacing" textLength="19.0811" x="655.344" y="318.9252">has a</text><text fill="#000000" font-family="sans-serif" font-size="7.8" lengthAdjust="spacing" textLength="11.7076" x="652.9711" y="296.3247">0..*</text><text fill="#000000" font-family="sans-serif" font-size="7.8" lengthAdjust="spacing" textLength="4.338" x="620.5411" y="341.1301">1</text></g><!--link Task to Status--><g id="link_Task_Status"><path codeLine="246" d="M679.344,283.2442 C679.344,300.6622 679.344,330.4162 679.344,347.8822 " fill="none" id="Task-Status" style="stroke:#181818;stroke-width:0.6;"/><text fill="#000000" font-family="sans-serif" font-size="7.8" lengthAdjust="spacing" textLength="19.0811" x="679.944" y="318.9252">has a</text><text fill="#000000" font-family="sans-serif" font-size="7.8" lengthAdjust="spacing" textLength="11.7076" x="666.5674" y="296.4444">0..*</text><text fill="#000000" font-family="sans-serif" font-size="7.8" lengthAdjust="spacing" textLength="4.338" x="674.6717" y="341.3366">1</text></g><!--link Task_TaskHelper to Task--><g id="link_Task_TaskHelper_Task"><path codeLine="247" d="M581.664,207.0202 C593.922,212.1202 607.476,218.3122 619.344,225.0082 C634.548,233.5882 650.526,245.2462 662.172,254.2882 " fill="none" id="Task_TaskHelper-Task" style="stroke:#181818;stroke-width:0.6;"/><text fill="#000000" font-family="sans-serif" font-size="7.8" lengthAdjust="spacing" textLength="18.6469" x="636.744" y="234.0252">helps</text><text fill="#000000" font-family="sans-serif" font-size="7.8" lengthAdjust="spacing" textLength="11.7076" x="577.8843" y="220.2145">0..*</text><text fill="#000000" font-family="sans-serif" font-size="7.8" lengthAdjust="spacing" textLength="4.338" x="653.2666" y="247.7441">1</text></g><!--link RecurringTask to RecurrenceCycle--><g id="link_RecurringTask_RecurrenceCycle"><path codeLine="249" d="M682.68,192.6082 C693.6,192.6082 705.636,192.6082 716.838,192.6082 " fill="none" id="RecurringTask-RecurrenceCycle" style="stroke:#181818;stroke-width:0.6;"/><text fill="#000000" font-family="sans-serif" font-size="7.8" lengthAdjust="spacing" textLength="12.576" x="693.744" y="188.4252">has</text><text fill="#000000" font-family="sans-serif" font-size="7.8" lengthAdjust="spacing" textLength="11.7076" x="687.3592" y="201.5926">0..*</text><text fill="#000000" font-family="sans-serif" font-size="7.8" lengthAdjust="spacing" textLength="4.338" x="707.8421" y="190.2769">1</text></g><!--link NonRecurringTask to Task--><g id="link_NonRecurringTask_Task"><path codeLine="252" d="M481.074,204.4582 C484.812,205.3402 488.538,206.2042 492.144,207.0082 C531.954,215.9062 544.062,210.3862 582.144,225.0082 C591.408,228.5662 592.458,231.9922 601.344,236.4082 C621.114,246.2422 634.5811,251.7615 650.6011,257.7375 " fill="none" id="NonRecurringTask-to-Task" style="stroke:#181818;stroke-width:0.6;"/><polygon fill="none" points="660.72,261.5122,651.8593,254.3646,649.3429,261.1105,660.72,261.5122" style="stroke:#181818;stroke-width:0.6;"/><text fill="#000000" font-family="sans-serif" font-size="7.8" lengthAdjust="spacing" textLength="12.138" x="601.944" y="234.0252">is a</text></g><!--link RecurringTask to Task--><g id="link_RecurringTask_Task"><path codeLine="253" d="M653.892,207.0802 C656.97,212.5702 660.39,219.0022 663.144,225.0082 C667.548,234.6202 668.147,235.6116 671.153,244.1916 " fill="none" id="RecurringTask-to-Task" style="stroke:#181818;stroke-width:0.6;"/><polygon fill="none" points="674.724,254.3842,674.5506,243.0013,667.7555,245.382,674.724,254.3842" style="stroke:#181818;stroke-width:0.6;"/><text fill="#000000" font-family="sans-serif" font-size="7.8" lengthAdjust="spacing" textLength="12.138" x="667.944" y="234.0252">is a</text></g><!--reverse link ShoppingList to ShoppingList_ShoppingListItem--><g id="link_ShoppingList_ShoppingList_ShoppingListItem"><path codeLine="255" d="M907.0262,212.8321 C903.1022,218.2141 903.162,218.7622 900.144,225.0082 C888.402,249.3202 891.384,257.6302 882.744,283.2082 C880.74,289.1362 878.34,295.6042 876.216,301.1542 " fill="none" id="ShoppingList-backto-ShoppingList_ShoppingListItem" style="stroke:#181818;stroke-width:0.6;"/><polygon fill="#181818" points="911.268,207.0142,907.2078,208.5092,907.0262,212.8321,911.0864,211.3371,911.268,207.0142" style="stroke:#181818;stroke-width:0.6;"/><text fill="#000000" font-family="sans-serif" font-size="7.8" lengthAdjust="spacing" textLength="36.8481" x="900.744" y="234.0252">consists of</text><text fill="#000000" font-family="sans-serif" font-size="7.8" lengthAdjust="spacing" textLength="4.338" x="909.1005" y="220.2071">1</text><text fill="#000000" font-family="sans-serif" font-size="7.8" lengthAdjust="spacing" textLength="11.7076" x="864.8034" y="294.3829">0..*</text></g><!--link ShoppingList_ShoppingListItem to ShoppingListItem--><g id="link_ShoppingList_ShoppingListItem_ShoppingListItem"><path codeLine="256" d="M867.282,330.0622 C860.628,356.6782 846.126,414.6682 839.448,441.4042 " fill="none" id="ShoppingList_ShoppingListItem-ShoppingListItem" style="stroke:#181818;stroke-width:0.6;"/><text fill="#000000" font-family="sans-serif" font-size="7.8" lengthAdjust="spacing" textLength="19.0811" x="862.944" y="365.7252">has a</text><text fill="#000000" font-family="sans-serif" font-size="7.8" lengthAdjust="spacing" textLength="11.7076" x="853.6924" y="343.2668">0..*</text><text fill="#000000" font-family="sans-serif" font-size="7.8" lengthAdjust="spacing" textLength="4.338" x="835.594" y="434.8396">1</text></g><!--link ShoppingListItem to ShoppingListItemCategory--><g id="link_ShoppingListItem_ShoppingListItemCategory"><path codeLine="257" d="M823.53,470.4142 C818.904,475.8442 813.756,482.2462 809.544,488.4082 C803.1,497.8282 796.872,509.1202 792.378,517.7962 " fill="none" id="ShoppingListItem-ShoppingListItemCategory" style="stroke:#181818;stroke-width:0.6;"/><text fill="#000000" font-family="sans-serif" font-size="7.8" lengthAdjust="spacing" textLength="50.7305" x="810.144" y="497.4252">categorized by</text><text fill="#000000" font-family="sans-serif" font-size="7.8" lengthAdjust="spacing" textLength="11.7076" x="807.7391" y="483.6071">0..*</text><text fill="#000000" font-family="sans-serif" font-size="7.8" lengthAdjust="spacing" textLength="4.338" x="789.4099" y="511.0356">1</text></g><!--link User to Task--><g id="link_User_Task"><path codeLine="259" d="M563.706,49.1362 C621.906,75.1522 796.362,154.5802 810.744,178.2082 C817.398,189.1402 817.626,196.2142 810.744,207.0082 C804.216,217.2502 732.846,246.8302 698.118,260.7742 " fill="none" id="User-Task" style="stroke:#181818;stroke-width:0.6;"/><text fill="#000000" font-family="sans-serif" font-size="7.8" lengthAdjust="spacing" textLength="24.276" x="788.544" y="157.8252">creator</text><text fill="#000000" font-family="sans-serif" font-size="7.8" lengthAdjust="spacing" textLength="4.338" x="568.0503" y="60.4645">1</text><text fill="#000000" font-family="sans-serif" font-size="7.8" lengthAdjust="spacing" textLength="11.7076" x="702.9466" y="256.4226">0..*</text></g><!--link User to Task--><g id="link_User_Task"><path codeLine="260" d="M563.58,41.4382 C615.048,44.3122 759.174,60.2662 817.944,148.8082 C832.248,170.3602 830.922,184.2982 818.544,207.0082 C795.078,250.0522 765.348,238.5922 718.944,254.4082 C712.122,256.7362 704.652,259.3222 698.058,261.6262 " fill="none" id="User-Task-1" style="stroke:#181818;stroke-width:0.6;"/><text fill="#000000" font-family="sans-serif" font-size="7.8" lengthAdjust="spacing" textLength="31.2229" x="824.544" y="157.8252">assignee</text><text fill="#000000" font-family="sans-serif" font-size="7.8" lengthAdjust="spacing" textLength="4.338" x="568.1601" y="51.259">1</text><text fill="#000000" font-family="sans-serif" font-size="7.8" lengthAdjust="spacing" textLength="11.7076" x="702.8748" y="269.6505">0..*</text></g><!--link User to Task_TaskHelper--><g id="link_User_Task_TaskHelper"><path codeLine="261" d="M544.944,54.7642 C544.944,83.5642 544.944,149.3122 544.944,178.0882 " fill="none" id="User-Task_TaskHelper" style="stroke:#181818;stroke-width:0.6;"/><text fill="#000000" font-family="sans-serif" font-size="7.8" lengthAdjust="spacing" textLength="18.6469" x="545.544" y="119.7252">helps</text><text fill="#000000" font-family="sans-serif" font-size="7.8" lengthAdjust="spacing" textLength="4.338" x="540.305" y="67.7468">1</text><text fill="#000000" font-family="sans-serif" font-size="7.8" lengthAdjust="spacing" textLength="11.7076" x="532.2138" y="171.5441">0..*</text></g><!--link User to Project--><g id="link_User_Project"><path codeLine="262" d="M526.254,43.3162 C473.958,51.4702 326.112,82.4542 267.144,178.2082 C260.43,189.1042 260.274,196.2082 267.144,207.0082 C280.5,227.9902 349.92,237.9202 368.544,254.4082 C379.842,264.4162 376.83,271.6522 386.544,283.2082 C407.778,308.4682 437.082,333.1402 455.826,347.9122 " fill="none" id="User-Project" style="stroke:#181818;stroke-width:0.6;"/><text fill="#000000" font-family="sans-serif" font-size="7.8" lengthAdjust="spacing" textLength="24.276" x="267.744" y="195.9252">creator</text><text fill="#000000" font-family="sans-serif" font-size="7.8" lengthAdjust="spacing" textLength="4.338" x="517.2929" y="53.6515">1</text><text fill="#000000" font-family="sans-serif" font-size="7.8" lengthAdjust="spacing" textLength="11.7076" x="438.3437" y="341.1301">0..*</text></g><!--link User to User_Project--><g id="link_User_User_Project"><path codeLine="263" d="M526.284,54.3622 C486.912,82.9522 395.688,149.2042 355.89,178.1062 " fill="none" id="User-User_Project" style="stroke:#181818;stroke-width:0.6;"/><text fill="#000000" font-family="sans-serif" font-size="7.8" lengthAdjust="spacing" textLength="28.6178" x="458.544" y="119.7252">involved</text><text fill="#000000" font-family="sans-serif" font-size="7.8" lengthAdjust="spacing" textLength="4.338" x="517.3298" y="67.2519">1</text><text fill="#000000" font-family="sans-serif" font-size="7.8" lengthAdjust="spacing" textLength="11.7076" x="347.811" y="171.5665">0..*</text></g><!--link User to CustomList--><g id="link_User_CustomList"><path codeLine="264" d="M526.344,41.0542 C469.518,42.0682 299.148,47.2102 250.944,72.6082 C210.12,94.1182 192.576,151.5982 186.474,178.1782 " fill="none" id="User-CustomList" style="stroke:#181818;stroke-width:0.6;"/><text fill="#000000" font-family="sans-serif" font-size="7.8" lengthAdjust="spacing" textLength="24.276" x="218.544" y="119.7252">creator</text><text fill="#000000" font-family="sans-serif" font-size="7.8" lengthAdjust="spacing" textLength="4.338" x="517.2379" y="51.3189">1</text><text fill="#000000" font-family="sans-serif" font-size="7.8" lengthAdjust="spacing" textLength="11.7076" x="174.3508" y="171.413">0..*</text></g><!--link User to ShoppingList--><g id="link_User_ShoppingList"><path codeLine="265" d="M563.544,41.3542 C630.99,43.5082 860.028,52.2562 885.144,72.6082 C917.448,98.7862 922.236,152.6122 922.602,178.0762 " fill="none" id="User-ShoppingList" style="stroke:#181818;stroke-width:0.6;"/><text fill="#000000" font-family="sans-serif" font-size="7.8" lengthAdjust="spacing" textLength="24.276" x="916.944" y="119.7252">creator</text><text fill="#000000" font-family="sans-serif" font-size="7.8" lengthAdjust="spacing" textLength="4.338" x="568.1162" y="38.7254">1</text><text fill="#000000" font-family="sans-serif" font-size="7.8" lengthAdjust="spacing" textLength="11.7076" x="909.9166" y="171.5292">0..*</text></g><!--link User to AreaOfResponsibility--><g id="link_User_AreaOfResponsibility"><path codeLine="266" d="M563.556,42.1402 C597.864,44.9902 673.074,53.0782 733.344,72.6082 C761.364,81.6922 767.328,87.1222 792.744,102.0082 C824.526,120.6262 843.96,116.2282 861.144,148.8082 C882.954,190.1542 841.344,209.7562 802.944,236.4082 C784.434,249.2542 769.926,237.0562 755.544,254.4082 C738.084,275.4682 744.744,287.6482 744.744,315.0082 C744.744,315.0082 744.744,315.0082 744.744,456.6082 C744.744,511.7782 670.41,526.8982 618.582,530.7322 " fill="none" id="User-AreaOfResponsibility" style="stroke:#181818;stroke-width:0.6;"/><text fill="#000000" font-family="sans-serif" font-size="7.8" lengthAdjust="spacing" textLength="31.2229" x="756.144" y="272.1252">assignee</text><text fill="#000000" font-family="sans-serif" font-size="7.8" lengthAdjust="spacing" textLength="4.338" x="568.1308" y="39.6833">1</text><text fill="#000000" font-family="sans-serif" font-size="7.8" lengthAdjust="spacing" textLength="11.7076" x="623.1346" y="528.4119">0..*</text></g><!--link CustomList to AreaOfResponsibility--><g id="link_CustomList_AreaOfResponsibility"><path codeLine="268" d="M214.524,201.1162 C228.954,206.0722 245.574,213.7102 257.544,225.0082 C346.266,308.7502 288,390.9142 380.544,470.4082 C420.18,504.4522 479.094,519.6382 520.59,526.3582 " fill="none" id="CustomList-AreaOfResponsibility" style="stroke:#181818;stroke-width:0.6;"/><text fill="#000000" font-family="sans-serif" font-size="7.8" lengthAdjust="spacing" textLength="50.7305" x="323.544" y="365.7252">categorized by</text><text fill="#000000" font-family="sans-serif" font-size="7.8" lengthAdjust="spacing" textLength="11.7076" x="219.2169" y="199.781">0..*</text><text fill="#000000" font-family="sans-serif" font-size="7.8" lengthAdjust="spacing" textLength="13.0102" x="502.7511" y="523.5398">0..1</text></g><!--link Task to AreaOfResponsibility--><g id="link_Task_AreaOfResponsibility"><path codeLine="269" d="M660.678,277.7182 C636.93,289.4722 597.066,313.4302 580.944,348.0082 C566.946,378.0382 568.152,480.0082 569.112,517.5682 " fill="none" id="Task-AreaOfResponsibility" style="stroke:#181818;stroke-width:0.6;"/><text fill="#000000" font-family="sans-serif" font-size="7.8" lengthAdjust="spacing" textLength="50.7305" x="571.944" y="412.5252">categorized by</text><text fill="#000000" font-family="sans-serif" font-size="7.8" lengthAdjust="spacing" textLength="11.7076" x="644.2633" y="276.739">0..*</text><text fill="#000000" font-family="sans-serif" font-size="7.8" lengthAdjust="spacing" textLength="13.0102" x="554.9413" y="510.9949">0..1</text></g><!--link Project to AreaOfResponsibility--><g id="link_Project_AreaOfResponsibility"><path codeLine="270" d="M477.18,376.8502 C482.244,398.0962 493.758,439.5382 512.544,470.4082 C523.638,488.6422 540.786,506.1142 553.38,517.6882 " fill="none" id="Project-AreaOfResponsibility" style="stroke:#181818;stroke-width:0.6;"/><text fill="#000000" font-family="sans-serif" font-size="7.8" lengthAdjust="spacing" textLength="50.7305" x="513.144" y="459.3252">categorized by</text><text fill="#000000" font-family="sans-serif" font-size="7.8" lengthAdjust="spacing" textLength="11.7076" x="465.1994" y="390.0518">0..*</text><text fill="#000000" font-family="sans-serif" font-size="7.8" lengthAdjust="spacing" textLength="13.0102" x="535.3746" y="511.1441">0..1</text></g><!--link ShoppingList to AreaOfResponsibility--><g id="link_ShoppingList_AreaOfResponsibility"><path codeLine="271" d="M905.286,207.1462 C899.802,212.3002 894.084,218.4862 889.944,225.0082 C886.272,230.7922 874.62,278.6062 869.544,283.2082 C844.53,305.8822 819.456,277.1722 795.744,301.2082 C732.138,365.6782 815.808,437.4382 750.144,499.8082 C731.622,517.4062 665.334,525.4342 618.456,528.9802 " fill="none" id="ShoppingList-AreaOfResponsibility" style="stroke:#181818;stroke-width:0.6;"/><text fill="#000000" font-family="sans-serif" font-size="7.8" lengthAdjust="spacing" textLength="50.7305" x="771.744" y="365.7252">categorized by</text><text fill="#000000" font-family="sans-serif" font-size="7.8" lengthAdjust="spacing" textLength="11.7076" x="888.6622" y="220.1247">0..*</text><text fill="#000000" font-family="sans-serif" font-size="7.8" lengthAdjust="spacing" textLength="13.0102" x="623.0521" y="537.5595">0..1</text></g><!--link CustomList to Project--><g id="link_CustomList_Project"><path codeLine="273" d="M214.398,202.4602 C240.312,210.4282 274.11,221.2282 279.744,225.0082 C330.78,259.2562 318.294,296.3782 369.744,330.0082 C394.884,346.4362 421.8188,353.4691 444.0968,357.3871 " fill="none" id="CustomList-to-Project" style="stroke:#181818;stroke-width:0.6;"/><polygon fill="none" points="451.188,358.6342,448.0581,355.6469,444.0968,357.3871,447.2267,360.3744,451.188,358.6342" style="stroke:#181818;stroke-width:0.6;"/><text fill="#000000" font-family="sans-serif" font-size="7.8" lengthAdjust="spacing" textLength="35.995" x="327.744" y="272.1252">belongs to</text><text fill="#000000" font-family="sans-serif" font-size="7.8" lengthAdjust="spacing" textLength="11.7076" x="219.0748" y="212.8041">0..*</text><text fill="#000000" font-family="sans-serif" font-size="7.8" lengthAdjust="spacing" textLength="13.0102" x="433.6169" y="355.341">0..1</text></g><!--link NonRecurringTask to Project--><g id="link_NonRecurringTask_Project"><path codeLine="274" d="M481.062,205.2682 C504.924,214.3822 531.774,229.6822 543.744,254.4082 C560.982,290.0062 526.3399,323.6728 500.1319,343.5388 " fill="none" id="NonRecurringTask-to-Project" style="stroke:#181818;stroke-width:0.6;"/><polygon fill="none" points="494.394,347.8882,498.7127,347.6261,500.1319,343.5388,495.8131,343.8009,494.394,347.8882" style="stroke:#181818;stroke-width:0.6;"/><text fill="#000000" font-family="sans-serif" font-size="7.8" lengthAdjust="spacing" textLength="35.995" x="547.944" y="272.1252">belongs to</text><text fill="#000000" font-family="sans-serif" font-size="7.8" lengthAdjust="spacing" textLength="11.7076" x="485.7321" y="204.1902">0..*</text><text fill="#000000" font-family="sans-serif" font-size="7.8" lengthAdjust="spacing" textLength="13.0102" x="485.2756" y="341.3441">0..1</text></g><!--link ShoppingList to Project--><g id="link_ShoppingList_Project"><path codeLine="275" d="M900.228,207.0862 C891.414,212.6362 881.184,219.1042 871.944,225.0082 C797.742,272.4082 786.984,300.7282 703.944,330.0082 C694.236,333.4342 560.5398,350.7664 504.2658,357.9664 " fill="none" id="ShoppingList-to-Project" style="stroke:#181818;stroke-width:0.6;"/><polygon fill="none" points="497.124,358.8802,500.9995,360.8039,504.2658,357.9664,500.3903,356.0427,497.124,358.8802" style="stroke:#181818;stroke-width:0.6;"/><text fill="#000000" font-family="sans-serif" font-size="7.8" lengthAdjust="spacing" textLength="35.995" x="828.744" y="272.1252">belongs to</text><text fill="#000000" font-family="sans-serif" font-size="7.8" lengthAdjust="spacing" textLength="11.7076" x="896.2677" y="220.2966">0..*</text><text fill="#000000" font-family="sans-serif" font-size="7.8" lengthAdjust="spacing" textLength="13.0102" x="501.4735" y="355.8428">0..1</text></g><!--SRC=[rLfBSzis4BxhLs3OWnqtyjJDZOVEP7neCjCq7hljbGEHa8YQ0bW0igkc_kzPlW4GV82rx5GpYHLZlzt5xhVO1PcCR1LI70cwInLAg22nefojSXpVunr1mIUUa0nTPrXA8WFqPONWSxQU-5HIw0C_I9BoBF50bQOwP6sn-7oFQ18YoXJw8WXEFhFi-AGjChmd8P9AQB-BGL2H9C8gH0byKtHFBfilRZM7F9aFULfvnUDtIOHtA0hG_2YGFQPP6GRN-Xf5KOfb2llBGVSZ5uaTCYeZ31nuW5XkECzUC9XLZFP4fJoHQ28s-cxQlPpd6QQi_USRUs-LEvqu8u-H2IaHWFkLCw817uYWs-EGdGRKngkcXKNbMvwH1NGUu9obFEhH96sNuAU8HeqL4c57Jqj1Q1MohL_0na9pdpQXOf833tgKWZKuNeYvv5bKxs53dxUtHEQSIRgX6LL7xo9pAPcVArUat99WY-uOL8JYlNWhghBU2POG6GkQ5uVoDtwutGZ-9tGFxz3Nk5D4kudGvXZMnwWp9_3BY6yZOMG_72RMidGbO3gZZ5YHjwg1izSvUC4_CEr532DzFtESpKzXNe52WpI-ONMvSOepjc1EvCrIvv4wik_g4DMsiQG6hmzIyVqlLFgNOGVztrNYix2fBS4u9V5z1d5mTQjN6eqCFdQP-gZ8_XJPCaVf0UFHKZ-gs5fKhN6WABGsg2SQ2C8CR3Ge-zS1CrMoPvjnh1ivCAhil3EkY8CBrd7iMOs_ONdlNOS5w2IJnxBQcbcu8sDDBYWNfQcR-fksA1LM1ncYk_Ad6NouYnw4e6pNAxTlRLBwZmsqYifpjwqgfC-jjQ1dLFprWMIvpyNKsGyLA0gxEZ4itPRf9omcryVu-RlwRSEkNi69rd0K5vP3snMtBFX3n0FEIizqTyZVggWwejpac6WmXjDmBHtsUwGD3ioUhNdFW-qkvNaEBYmQD7JmwuqQ8y5wpll0Ymu6UcIBRdWDe1qNnnSU4MmtJfBaUclXuAQ7CpFeRBJSysgcwTM5FjNOoay-gpoj67dCyOwiv3rbC3lXOaDdnM9n5gXZJX0NAkKWQJ_mlIKPBZgfzoFV5kY1Agiqk0hGnNgDWXykBoy2-y5MY88DoJZRIQHuKA8iYHgtNb-KgZh-B8UMbqc0frWY75IiSJueQXNCCTxS90T13ensELi6AzdivMRPNhmGni6-6EdlwU2nDrkBcHUJYFhpZOeBGKlQg9VB4jty5iGfU-3P0qdWv9WBQrZNGWkBFHQOJWxVoa1HN31LAedurgP5DCIGqa1VLLq9ivN0jwi9xwX4SKeX9uLt3kRLeQbdPDC7XsGzzVRbzA7LX9HQ2W0iDg4sfwmMKChRWsd3Yle4_CXI0hvYM3VcjJN2BEaKbsObsWg-xmRWtdotNl_xK-iWRJSqAUGeI9CnuttFnPfnX9K5Xq8j7vxejg0Bjwhlz1yeZCsntcZRGDRT1fjub1CO5y6aO7s79UEIEeqwpWmXj9DWqW_ZPD3gVnYXdGTp31Xqc0DmzZeZKiFDgQdz8Hrs7XqjPucAVdDTecMWa_cg6euERrHf-RRRMkyiy8CFx64A2gDWCpLsC-4TN6nfJEJI_mVGuZ_zSOCuZCwBNeBNMchRxjUWfapzrlqEVNVr8_nvrxkOHUsDuxozqBn5TM5KrySthhUVjT9tlKTWaVbMzBnxwl4MELwJwc-QZGszFwXqPBy57qQM3TwCoDaKSugUeHiE58BKXHClJ5luK__5Z7Ejgus9vQ8BE4LqbayAwBrabd0jj7hw2W00]--></g></svg>