<svg xmlns="http://www.w3.org/2000/svg" xmlns:xlink="http://www.w3.org/1999/xlink" contentStyleType="text/css" height="528.3px" preserveAspectRatio="none" style="width:1362px;height:528px;background:#FFFFFF;" version="1.1" viewBox="0 0 1362 528" width="1362.6px" zoomAndPan="magnify"><defs/><g><!--cluster Services Classes--><g id="cluster_Services Classes"><path d="M7.65,5.4123 L111.5341,5.4123 A3.375,3.375 0 0 1 113.7841,7.6623 L120.0841,27.5713 L1354.05,27.5713 A2.25,2.25 0 0 1 1356.3,29.8213 L1356.3,519.7623 A2.25,2.25 0 0 1 1354.05,522.0123 L7.65,522.0123 A2.25,2.25 0 0 1 5.4,519.7623 L5.4,7.6623 A2.25,2.25 0 0 1 7.65,5.4123 " fill="none" style="stroke:#000000;stroke-width:1.35;"/><line style="stroke:#000000;stroke-width:1.35;" x1="5.4" x2="120.0841" y1="27.5713" y2="27.5713"/><text fill="#000000" font-family="sans-serif" font-size="12.6" font-weight="bold" lengthAdjust="spacing" textLength="102.9841" x="9" y="20.809">Services Classes</text></g><!--class UserService--><g id="elem_UserService"><rect codeLine="338" fill="#F1F1F1" height="177.2719" id="UserService" rx="2.25" ry="2.25" style="stroke:#181818;stroke-width:0.45;" width="527.6646" x="19.8" y="38.7123"/><ellipse cx="245.4987" cy="53.1123" fill="#ADD1B2" rx="9.9" ry="9.9" style="stroke:#181818;stroke-width:0.9;"/><path d="M247.9878,49.3998 Q248.1284,49.2029 248.2972,49.1045 Q248.4659,49.0061 248.6628,49.0061 Q249.0003,49.0061 249.2112,49.2451 Q249.4222,49.4701 249.4222,50.0186 L249.4222,51.3264 Q249.4222,51.8748 249.2112,52.1139 Q249.0003,52.3529 248.6628,52.3529 Q248.3534,52.3529 248.1706,52.1701 Q247.9878,52.0014 247.8894,51.5373 Q247.8472,51.2139 247.6784,51.0451 Q247.3831,50.7076 246.8347,50.5107 Q246.2862,50.3139 245.7237,50.3139 Q245.0347,50.3139 244.4581,50.6092 Q243.8956,50.9045 243.4456,51.5795 Q243.0097,52.2545 243.0097,53.1826 L243.0097,54.167 Q243.0097,55.2779 243.8112,56.0232 Q244.6128,56.7545 246.0472,56.7545 Q246.8909,56.7545 247.4815,56.5295 Q247.8331,56.3889 248.2128,55.9951 Q248.4519,55.7561 248.5784,55.6857 Q248.719,55.6154 248.9019,55.6154 Q249.1972,55.6154 249.4222,55.8545 Q249.6612,56.0795 249.6612,56.3889 Q249.6612,56.6982 249.3519,57.0639 Q248.9019,57.5842 248.1847,57.8795 Q247.2144,58.2873 246.0472,58.2873 Q244.6831,58.2873 243.6003,57.7248 Q242.7144,57.2748 242.0956,56.3186 Q241.4769,55.3482 241.4769,54.1951 L241.4769,53.1545 Q241.4769,51.9592 242.0253,50.9326 Q242.5878,49.892 243.5722,49.3436 Q244.5565,48.7811 245.6675,48.7811 Q246.3284,48.7811 246.905,48.9357 Q247.4956,49.0764 247.9878,49.3998 Z " fill="#000000"/><text fill="#000000" font-family="sans-serif" font-size="12.6" lengthAdjust="spacing" textLength="68.6171" x="263.9487" y="58.3295">UserService</text><line style="stroke:#181818;stroke-width:0.45;" x1="20.7" x2="546.5646" y1="67.5123" y2="67.5123"/><line style="stroke:#181818;stroke-width:0.45;" x1="20.7" x2="546.5646" y1="74.7123" y2="74.7123"/><ellipse cx="29.7" cy="88.0418" fill="#84BE84" rx="2.7" ry="2.7" style="stroke:#038048;stroke-width:0.9;"/><text fill="#000000" font-family="sans-serif" font-size="12.6" lengthAdjust="spacing" textLength="212.8649" x="37.8" y="91.909">query_users_by_mail(email: str): User</text><ellipse cx="29.7" cy="104.8008" fill="#84BE84" rx="2.7" ry="2.7" style="stroke:#038048;stroke-width:0.9;"/><text fill="#000000" font-family="sans-serif" font-size="12.6" lengthAdjust="spacing" textLength="504.2646" x="37.8" y="108.668">query_users_by_unverified_mail_and_not_expired_verification(unverified_email: str): User</text><ellipse cx="29.7" cy="121.5598" fill="#84BE84" rx="2.7" ry="2.7" style="stroke:#038048;stroke-width:0.9;"/><text fill="#000000" font-family="sans-serif" font-size="12.6" lengthAdjust="spacing" textLength="212.1759" x="37.8" y="125.427">is_email_format_valid(email: str): bool</text><ellipse cx="29.7" cy="138.3188" fill="#84BE84" rx="2.7" ry="2.7" style="stroke:#038048;stroke-width:0.9;"/><text fill="#000000" font-family="sans-serif" font-size="12.6" lengthAdjust="spacing" textLength="275.1943" x="37.8" y="142.1859">create_user(email: str, plain_password: str): User</text><rect fill="#F24D5C" height="5.4" style="stroke:#C82930;stroke-width:0.9;" width="5.4" x="27" y="152.3777"/><text fill="#000000" font-family="sans-serif" font-size="12.6" lengthAdjust="spacing" textLength="183.4875" x="37.8" y="158.9449">__create_verification_token(): str</text><rect fill="#F24D5C" height="5.4" style="stroke:#C82930;stroke-width:0.9;" width="5.4" x="27" y="169.1367"/><text fill="#000000" font-family="sans-serif" font-size="12.6" lengthAdjust="spacing" textLength="382.362" x="37.8" y="175.7039">__create_verification_link(plain_verification_token: str, email: str): str</text><rect fill="#F24D5C" height="5.4" style="stroke:#C82930;stroke-width:0.9;" width="5.4" x="27" y="185.8957"/><text fill="#000000" font-family="sans-serif" font-size="12.6" lengthAdjust="spacing" textLength="291.3319" x="37.8" y="192.4629">__send_verification_mail(verification_link: str): None</text><ellipse cx="29.7" cy="205.3547" fill="#84BE84" rx="2.7" ry="2.7" style="stroke:#038048;stroke-width:0.9;"/><text fill="#000000" font-family="sans-serif" font-size="12.6" lengthAdjust="spacing" textLength="290.606" x="37.8" y="209.2219">verify_email(user: User, verification_token: str): bool</text></g><!--class HouseholdService--><g id="elem_HouseholdService"><rect codeLine="349" fill="#F1F1F1" height="93.477" id="HouseholdService" rx="2.25" ry="2.25" style="stroke:#181818;stroke-width:0.45;" width="504.6117" x="579.15" y="80.5623"/><ellipse cx="776.5018" cy="94.9623" fill="#ADD1B2" rx="9.9" ry="9.9" style="stroke:#181818;stroke-width:0.9;"/><path d="M778.9909,91.2498 Q779.1315,91.0529 779.3002,90.9545 Q779.469,90.8561 779.6659,90.8561 Q780.0034,90.8561 780.2143,91.0951 Q780.4252,91.3201 780.4252,91.8686 L780.4252,93.1764 Q780.4252,93.7248 780.2143,93.9639 Q780.0034,94.2029 779.6659,94.2029 Q779.3565,94.2029 779.1737,94.0201 Q778.9909,93.8514 778.8924,93.3873 Q778.8502,93.0639 778.6815,92.8951 Q778.3862,92.5576 777.8377,92.3607 Q777.2893,92.1639 776.7268,92.1639 Q776.0377,92.1639 775.4612,92.4592 Q774.8987,92.7545 774.4487,93.4295 Q774.0127,94.1045 774.0127,95.0326 L774.0127,96.017 Q774.0127,97.1279 774.8143,97.8732 Q775.6159,98.6045 777.0502,98.6045 Q777.894,98.6045 778.4846,98.3795 Q778.8362,98.2389 779.2159,97.8451 Q779.4549,97.6061 779.5815,97.5357 Q779.7221,97.4654 779.9049,97.4654 Q780.2002,97.4654 780.4252,97.7045 Q780.6643,97.9295 780.6643,98.2389 Q780.6643,98.5482 780.3549,98.9139 Q779.9049,99.4342 779.1877,99.7295 Q778.2174,100.1373 777.0502,100.1373 Q775.6862,100.1373 774.6034,99.5748 Q773.7174,99.1248 773.0987,98.1686 Q772.4799,97.1982 772.4799,96.0451 L772.4799,95.0045 Q772.4799,93.8092 773.0284,92.7826 Q773.5909,91.742 774.5752,91.1936 Q775.5596,90.6311 776.6706,90.6311 Q777.3315,90.6311 777.9081,90.7857 Q778.4987,90.9264 778.9909,91.2498 Z " fill="#000000"/><text fill="#000000" font-family="sans-serif" font-size="12.6" lengthAdjust="spacing" textLength="102.2581" x="794.9518" y="100.1795">HouseholdService</text><line style="stroke:#181818;stroke-width:0.45;" x1="580.05" x2="1082.8617" y1="109.3623" y2="109.3623"/><line style="stroke:#181818;stroke-width:0.45;" x1="580.05" x2="1082.8617" y1="116.5623" y2="116.5623"/><ellipse cx="589.05" cy="129.8918" fill="#84BE84" rx="2.7" ry="2.7" style="stroke:#038048;stroke-width:0.9;"/><text fill="#000000" font-family="sans-serif" font-size="12.6" lengthAdjust="spacing" textLength="308.1524" x="597.15" y="133.759">create_household(name: str, creator: User): Household</text><ellipse cx="589.05" cy="146.6508" fill="#84BE84" rx="2.7" ry="2.7" style="stroke:#038048;stroke-width:0.9;"/><text fill="#000000" font-family="sans-serif" font-size="12.6" lengthAdjust="spacing" textLength="481.2117" x="597.15" y="150.518">query_household_list_by_household_admin(household_admin: User): List[Household]</text><ellipse cx="589.05" cy="163.4098" fill="#84BE84" rx="2.7" ry="2.7" style="stroke:#038048;stroke-width:0.9;"/><text fill="#000000" font-family="sans-serif" font-size="12.6" lengthAdjust="spacing" textLength="354.3996" x="597.15" y="167.277">assign_household_role(user: User, role: HouseholdRole): None</text></g><!--class AuthService--><g id="elem_AuthService"><rect codeLine="358" fill="#F1F1F1" height="43.2" id="AuthService" rx="2.25" ry="2.25" style="stroke:#181818;stroke-width:0.45;" width="96.7342" x="1115.55" y="105.7623"/><ellipse cx="1129.05" cy="120.1623" fill="#ADD1B2" rx="9.9" ry="9.9" style="stroke:#181818;stroke-width:0.9;"/><path d="M1131.5391,116.4498 Q1131.6797,116.2529 1131.8484,116.1545 Q1132.0172,116.0561 1132.2141,116.0561 Q1132.5516,116.0561 1132.7625,116.2951 Q1132.9734,116.5201 1132.9734,117.0686 L1132.9734,118.3764 Q1132.9734,118.9248 1132.7625,119.1639 Q1132.5516,119.4029 1132.2141,119.4029 Q1131.9047,119.4029 1131.7219,119.2201 Q1131.5391,119.0514 1131.4406,118.5873 Q1131.3984,118.2639 1131.2297,118.0951 Q1130.9344,117.7576 1130.3859,117.5607 Q1129.8375,117.3639 1129.275,117.3639 Q1128.5859,117.3639 1128.0094,117.6592 Q1127.4469,117.9545 1126.9969,118.6295 Q1126.5609,119.3045 1126.5609,120.2326 L1126.5609,121.217 Q1126.5609,122.3279 1127.3625,123.0732 Q1128.1641,123.8045 1129.5984,123.8045 Q1130.4422,123.8045 1131.0328,123.5795 Q1131.3844,123.4389 1131.7641,123.0451 Q1132.0031,122.8061 1132.1297,122.7357 Q1132.2703,122.6654 1132.4531,122.6654 Q1132.7484,122.6654 1132.9734,122.9045 Q1133.2125,123.1295 1133.2125,123.4389 Q1133.2125,123.7482 1132.9031,124.1139 Q1132.4531,124.6342 1131.7359,124.9295 Q1130.7656,125.3373 1129.5984,125.3373 Q1128.2344,125.3373 1127.1516,124.7748 Q1126.2656,124.3248 1125.6469,123.3686 Q1125.0281,122.3982 1125.0281,121.2451 L1125.0281,120.2045 Q1125.0281,119.0092 1125.5766,117.9826 Q1126.1391,116.942 1127.1234,116.3936 Q1128.1078,115.8311 1129.2188,115.8311 Q1129.8797,115.8311 1130.4563,115.9857 Q1131.0469,116.1264 1131.5391,116.4498 Z " fill="#000000"/><text fill="#000000" font-family="sans-serif" font-size="12.6" lengthAdjust="spacing" textLength="67.9342" x="1141.65" y="125.3795">AuthService</text><line style="stroke:#181818;stroke-width:0.45;" x1="1116.45" x2="1211.3842" y1="134.5623" y2="134.5623"/><line style="stroke:#181818;stroke-width:0.45;" x1="1116.45" x2="1211.3842" y1="141.7623" y2="141.7623"/></g><!--class TaskService--><g id="elem_TaskService"><rect codeLine="361" fill="#F1F1F1" height="43.2" id="TaskService" rx="2.25" ry="2.25" style="stroke:#181818;stroke-width:0.45;" width="98.1185" x="1243.35" y="105.7623"/><ellipse cx="1256.85" cy="120.1623" fill="#ADD1B2" rx="9.9" ry="9.9" style="stroke:#181818;stroke-width:0.9;"/><path d="M1259.3391,116.4498 Q1259.4797,116.2529 1259.6484,116.1545 Q1259.8172,116.0561 1260.0141,116.0561 Q1260.3516,116.0561 1260.5625,116.2951 Q1260.7734,116.5201 1260.7734,117.0686 L1260.7734,118.3764 Q1260.7734,118.9248 1260.5625,119.1639 Q1260.3516,119.4029 1260.0141,119.4029 Q1259.7047,119.4029 1259.5219,119.2201 Q1259.3391,119.0514 1259.2406,118.5873 Q1259.1984,118.2639 1259.0297,118.0951 Q1258.7344,117.7576 1258.1859,117.5607 Q1257.6375,117.3639 1257.075,117.3639 Q1256.3859,117.3639 1255.8094,117.6592 Q1255.2469,117.9545 1254.7969,118.6295 Q1254.3609,119.3045 1254.3609,120.2326 L1254.3609,121.217 Q1254.3609,122.3279 1255.1625,123.0732 Q1255.9641,123.8045 1257.3984,123.8045 Q1258.2422,123.8045 1258.8328,123.5795 Q1259.1844,123.4389 1259.5641,123.0451 Q1259.8031,122.8061 1259.9297,122.7357 Q1260.0703,122.6654 1260.2531,122.6654 Q1260.5484,122.6654 1260.7734,122.9045 Q1261.0125,123.1295 1261.0125,123.4389 Q1261.0125,123.7482 1260.7031,124.1139 Q1260.2531,124.6342 1259.5359,124.9295 Q1258.5656,125.3373 1257.3984,125.3373 Q1256.0344,125.3373 1254.9516,124.7748 Q1254.0656,124.3248 1253.4469,123.3686 Q1252.8281,122.3982 1252.8281,121.2451 L1252.8281,120.2045 Q1252.8281,119.0092 1253.3766,117.9826 Q1253.9391,116.942 1254.9234,116.3936 Q1255.9078,115.8311 1257.0188,115.8311 Q1257.6797,115.8311 1258.2563,115.9857 Q1258.8469,116.1264 1259.3391,116.4498 Z " fill="#000000"/><text fill="#000000" font-family="sans-serif" font-size="12.6" lengthAdjust="spacing" textLength="69.3185" x="1269.45" y="125.3795">TaskService</text><line style="stroke:#181818;stroke-width:0.45;" x1="1244.25" x2="1340.5685" y1="134.5623" y2="134.5623"/><line style="stroke:#181818;stroke-width:0.45;" x1="1244.25" x2="1340.5685" y1="141.7623" y2="141.7623"/></g><!--class RecurringTaskService--><g id="elem_RecurringTaskService"><rect codeLine="364" fill="#F1F1F1" height="43.2" id="RecurringTaskService" rx="2.25" ry="2.25" style="stroke:#181818;stroke-width:0.45;" width="152.739" x="207" y="270.0123"/><ellipse cx="220.5" cy="284.4123" fill="#ADD1B2" rx="9.9" ry="9.9" style="stroke:#181818;stroke-width:0.9;"/><path d="M222.9891,280.6998 Q223.1297,280.5029 223.2984,280.4045 Q223.4672,280.3061 223.6641,280.3061 Q224.0016,280.3061 224.2125,280.5451 Q224.4234,280.7701 224.4234,281.3186 L224.4234,282.6264 Q224.4234,283.1748 224.2125,283.4139 Q224.0016,283.6529 223.6641,283.6529 Q223.3547,283.6529 223.1719,283.4701 Q222.9891,283.3014 222.8906,282.8373 Q222.8484,282.5139 222.6797,282.3451 Q222.3844,282.0076 221.8359,281.8107 Q221.2875,281.6139 220.725,281.6139 Q220.0359,281.6139 219.4594,281.9092 Q218.8969,282.2045 218.4469,282.8795 Q218.0109,283.5545 218.0109,284.4826 L218.0109,285.467 Q218.0109,286.5779 218.8125,287.3232 Q219.6141,288.0545 221.0484,288.0545 Q221.8922,288.0545 222.4828,287.8295 Q222.8344,287.6889 223.2141,287.2951 Q223.4531,287.0561 223.5797,286.9857 Q223.7203,286.9154 223.9031,286.9154 Q224.1984,286.9154 224.4234,287.1545 Q224.6625,287.3795 224.6625,287.6889 Q224.6625,287.9982 224.3531,288.3639 Q223.9031,288.8842 223.1859,289.1795 Q222.2156,289.5873 221.0484,289.5873 Q219.6844,289.5873 218.6016,289.0248 Q217.7156,288.5748 217.0969,287.6186 Q216.4781,286.6482 216.4781,285.4951 L216.4781,284.4545 Q216.4781,283.2592 217.0266,282.2326 Q217.5891,281.192 218.5734,280.6436 Q219.5578,280.0811 220.6688,280.0811 Q221.3297,280.0811 221.9063,280.2357 Q222.4969,280.3764 222.9891,280.6998 Z " fill="#000000"/><text fill="#000000" font-family="sans-serif" font-size="12.6" lengthAdjust="spacing" textLength="123.939" x="233.1" y="289.6295">RecurringTaskService</text><line style="stroke:#181818;stroke-width:0.45;" x1="207.9" x2="358.839" y1="298.8123" y2="298.8123"/><line style="stroke:#181818;stroke-width:0.45;" x1="207.9" x2="358.839" y1="306.0123" y2="306.0123"/></g><!--class NonRecurringTaskService--><g id="elem_NonRecurringTaskService"><rect codeLine="367" fill="#F1F1F1" height="43.2" id="NonRecurringTaskService" rx="2.25" ry="2.25" style="stroke:#181818;stroke-width:0.45;" width="175.8533" x="391.95" y="270.0123"/><ellipse cx="405.45" cy="284.4123" fill="#ADD1B2" rx="9.9" ry="9.9" style="stroke:#181818;stroke-width:0.9;"/><path d="M407.9391,280.6998 Q408.0797,280.5029 408.2484,280.4045 Q408.4172,280.3061 408.6141,280.3061 Q408.9516,280.3061 409.1625,280.5451 Q409.3734,280.7701 409.3734,281.3186 L409.3734,282.6264 Q409.3734,283.1748 409.1625,283.4139 Q408.9516,283.6529 408.6141,283.6529 Q408.3047,283.6529 408.1219,283.4701 Q407.9391,283.3014 407.8406,282.8373 Q407.7984,282.5139 407.6297,282.3451 Q407.3344,282.0076 406.7859,281.8107 Q406.2375,281.6139 405.675,281.6139 Q404.9859,281.6139 404.4094,281.9092 Q403.8469,282.2045 403.3969,282.8795 Q402.9609,283.5545 402.9609,284.4826 L402.9609,285.467 Q402.9609,286.5779 403.7625,287.3232 Q404.5641,288.0545 405.9984,288.0545 Q406.8422,288.0545 407.4328,287.8295 Q407.7844,287.6889 408.1641,287.2951 Q408.4031,287.0561 408.5297,286.9857 Q408.6703,286.9154 408.8531,286.9154 Q409.1484,286.9154 409.3734,287.1545 Q409.6125,287.3795 409.6125,287.6889 Q409.6125,287.9982 409.3031,288.3639 Q408.8531,288.8842 408.1359,289.1795 Q407.1656,289.5873 405.9984,289.5873 Q404.6344,289.5873 403.5516,289.0248 Q402.6656,288.5748 402.0469,287.6186 Q401.4281,286.6482 401.4281,285.4951 L401.4281,284.4545 Q401.4281,283.2592 401.9766,282.2326 Q402.5391,281.192 403.5234,280.6436 Q404.5078,280.0811 405.6188,280.0811 Q406.2797,280.0811 406.8563,280.2357 Q407.4469,280.3764 407.9391,280.6998 Z " fill="#000000"/><text fill="#000000" font-family="sans-serif" font-size="12.6" lengthAdjust="spacing" textLength="147.0533" x="418.05" y="289.6295">NonRecurringTaskService</text><line style="stroke:#181818;stroke-width:0.45;" x1="392.85" x2="566.9033" y1="298.8123" y2="298.8123"/><line style="stroke:#181818;stroke-width:0.45;" x1="392.85" x2="566.9033" y1="306.0123" y2="306.0123"/></g><!--class AreaOfResponsibilityService--><g id="elem_AreaOfResponsibilityService"><rect codeLine="371" fill="#F1F1F1" height="43.2" id="AreaOfResponsibilityService" rx="2.25" ry="2.25" style="stroke:#181818;stroke-width:0.45;" width="188.4656" x="598.95" y="270.0123"/><ellipse cx="612.45" cy="284.4123" fill="#ADD1B2" rx="9.9" ry="9.9" style="stroke:#181818;stroke-width:0.9;"/><path d="M614.9391,280.6998 Q615.0797,280.5029 615.2484,280.4045 Q615.4172,280.3061 615.6141,280.3061 Q615.9516,280.3061 616.1625,280.5451 Q616.3734,280.7701 616.3734,281.3186 L616.3734,282.6264 Q616.3734,283.1748 616.1625,283.4139 Q615.9516,283.6529 615.6141,283.6529 Q615.3047,283.6529 615.1219,283.4701 Q614.9391,283.3014 614.8406,282.8373 Q614.7984,282.5139 614.6297,282.3451 Q614.3344,282.0076 613.7859,281.8107 Q613.2375,281.6139 612.675,281.6139 Q611.9859,281.6139 611.4094,281.9092 Q610.8469,282.2045 610.3969,282.8795 Q609.9609,283.5545 609.9609,284.4826 L609.9609,285.467 Q609.9609,286.5779 610.7625,287.3232 Q611.5641,288.0545 612.9984,288.0545 Q613.8422,288.0545 614.4328,287.8295 Q614.7844,287.6889 615.1641,287.2951 Q615.4031,287.0561 615.5297,286.9857 Q615.6703,286.9154 615.8531,286.9154 Q616.1484,286.9154 616.3734,287.1545 Q616.6125,287.3795 616.6125,287.6889 Q616.6125,287.9982 616.3031,288.3639 Q615.8531,288.8842 615.1359,289.1795 Q614.1656,289.5873 612.9984,289.5873 Q611.6344,289.5873 610.5516,289.0248 Q609.6656,288.5748 609.0469,287.6186 Q608.4281,286.6482 608.4281,285.4951 L608.4281,284.4545 Q608.4281,283.2592 608.9766,282.2326 Q609.5391,281.192 610.5234,280.6436 Q611.5078,280.0811 612.6188,280.0811 Q613.2797,280.0811 613.8563,280.2357 Q614.4469,280.3764 614.9391,280.6998 Z " fill="#000000"/><text fill="#000000" font-family="sans-serif" font-size="12.6" lengthAdjust="spacing" textLength="159.6656" x="625.05" y="289.6295">AreaOfResponsibilityService</text><line style="stroke:#181818;stroke-width:0.45;" x1="599.85" x2="786.5156" y1="298.8123" y2="298.8123"/><line style="stroke:#181818;stroke-width:0.45;" x1="599.85" x2="786.5156" y1="306.0123" y2="306.0123"/></g><!--class ProjectService--><g id="elem_ProjectService"><rect codeLine="372" fill="#F1F1F1" height="43.2" id="ProjectService" rx="2.25" ry="2.25" style="stroke:#181818;stroke-width:0.45;" width="110.0294" x="819" y="270.0123"/><ellipse cx="832.5" cy="284.4123" fill="#ADD1B2" rx="9.9" ry="9.9" style="stroke:#181818;stroke-width:0.9;"/><path d="M834.9891,280.6998 Q835.1297,280.5029 835.2984,280.4045 Q835.4672,280.3061 835.6641,280.3061 Q836.0016,280.3061 836.2125,280.5451 Q836.4234,280.7701 836.4234,281.3186 L836.4234,282.6264 Q836.4234,283.1748 836.2125,283.4139 Q836.0016,283.6529 835.6641,283.6529 Q835.3547,283.6529 835.1719,283.4701 Q834.9891,283.3014 834.8906,282.8373 Q834.8484,282.5139 834.6797,282.3451 Q834.3844,282.0076 833.8359,281.8107 Q833.2875,281.6139 832.725,281.6139 Q832.0359,281.6139 831.4594,281.9092 Q830.8969,282.2045 830.4469,282.8795 Q830.0109,283.5545 830.0109,284.4826 L830.0109,285.467 Q830.0109,286.5779 830.8125,287.3232 Q831.6141,288.0545 833.0484,288.0545 Q833.8922,288.0545 834.4828,287.8295 Q834.8344,287.6889 835.2141,287.2951 Q835.4531,287.0561 835.5797,286.9857 Q835.7203,286.9154 835.9031,286.9154 Q836.1984,286.9154 836.4234,287.1545 Q836.6625,287.3795 836.6625,287.6889 Q836.6625,287.9982 836.3531,288.3639 Q835.9031,288.8842 835.1859,289.1795 Q834.2156,289.5873 833.0484,289.5873 Q831.6844,289.5873 830.6016,289.0248 Q829.7156,288.5748 829.0969,287.6186 Q828.4781,286.6482 828.4781,285.4951 L828.4781,284.4545 Q828.4781,283.2592 829.0266,282.2326 Q829.5891,281.192 830.5734,280.6436 Q831.5578,280.0811 832.6688,280.0811 Q833.3297,280.0811 833.9063,280.2357 Q834.4969,280.3764 834.9891,280.6998 Z " fill="#000000"/><text fill="#000000" font-family="sans-serif" font-size="12.6" lengthAdjust="spacing" textLength="81.2294" x="845.1" y="289.6295">ProjectService</text><line style="stroke:#181818;stroke-width:0.45;" x1="819.9" x2="928.1294" y1="298.8123" y2="298.8123"/><line style="stroke:#181818;stroke-width:0.45;" x1="819.9" x2="928.1294" y1="306.0123" y2="306.0123"/></g><!--class CustomListService--><g id="elem_CustomListService"><rect codeLine="373" fill="#F1F1F1" height="43.2" id="CustomListService" rx="2.25" ry="2.25" style="stroke:#181818;stroke-width:0.45;" width="133.8328" x="216.45" y="367.2123"/><ellipse cx="229.95" cy="381.6123" fill="#ADD1B2" rx="9.9" ry="9.9" style="stroke:#181818;stroke-width:0.9;"/><path d="M232.4391,377.8998 Q232.5797,377.7029 232.7484,377.6045 Q232.9172,377.5061 233.1141,377.5061 Q233.4516,377.5061 233.6625,377.7451 Q233.8734,377.9701 233.8734,378.5186 L233.8734,379.8264 Q233.8734,380.3748 233.6625,380.6139 Q233.4516,380.8529 233.1141,380.8529 Q232.8047,380.8529 232.6219,380.6701 Q232.4391,380.5014 232.3406,380.0373 Q232.2984,379.7139 232.1297,379.5451 Q231.8344,379.2076 231.2859,379.0107 Q230.7375,378.8139 230.175,378.8139 Q229.4859,378.8139 228.9094,379.1092 Q228.3469,379.4045 227.8969,380.0795 Q227.4609,380.7545 227.4609,381.6826 L227.4609,382.667 Q227.4609,383.7779 228.2625,384.5232 Q229.0641,385.2545 230.4984,385.2545 Q231.3422,385.2545 231.9328,385.0295 Q232.2844,384.8889 232.6641,384.4951 Q232.9031,384.2561 233.0297,384.1857 Q233.1703,384.1154 233.3531,384.1154 Q233.6484,384.1154 233.8734,384.3545 Q234.1125,384.5795 234.1125,384.8889 Q234.1125,385.1982 233.8031,385.5639 Q233.3531,386.0842 232.6359,386.3795 Q231.6656,386.7873 230.4984,386.7873 Q229.1344,386.7873 228.0516,386.2248 Q227.1656,385.7748 226.5469,384.8186 Q225.9281,383.8482 225.9281,382.6951 L225.9281,381.6545 Q225.9281,380.4592 226.4766,379.4326 Q227.0391,378.392 228.0234,377.8436 Q229.0078,377.2811 230.1188,377.2811 Q230.7797,377.2811 231.3563,377.4357 Q231.9469,377.5764 232.4391,377.8998 Z " fill="#000000"/><text fill="#000000" font-family="sans-serif" font-size="12.6" lengthAdjust="spacing" textLength="105.0328" x="242.55" y="386.8295">CustomListService</text><line style="stroke:#181818;stroke-width:0.45;" x1="217.35" x2="349.3828" y1="396.0123" y2="396.0123"/><line style="stroke:#181818;stroke-width:0.45;" x1="217.35" x2="349.3828" y1="403.2123" y2="403.2123"/></g><!--class CustomListItemService--><g id="elem_CustomListItemService"><rect codeLine="374" fill="#F1F1F1" height="43.2" id="CustomListItemService" rx="2.25" ry="2.25" style="stroke:#181818;stroke-width:0.45;" width="158.3376" x="382.5" y="367.2123"/><ellipse cx="396" cy="381.6123" fill="#ADD1B2" rx="9.9" ry="9.9" style="stroke:#181818;stroke-width:0.9;"/><path d="M398.4891,377.8998 Q398.6297,377.7029 398.7984,377.6045 Q398.9672,377.5061 399.1641,377.5061 Q399.5016,377.5061 399.7125,377.7451 Q399.9234,377.9701 399.9234,378.5186 L399.9234,379.8264 Q399.9234,380.3748 399.7125,380.6139 Q399.5016,380.8529 399.1641,380.8529 Q398.8547,380.8529 398.6719,380.6701 Q398.4891,380.5014 398.3906,380.0373 Q398.3484,379.7139 398.1797,379.5451 Q397.8844,379.2076 397.3359,379.0107 Q396.7875,378.8139 396.225,378.8139 Q395.5359,378.8139 394.9594,379.1092 Q394.3969,379.4045 393.9469,380.0795 Q393.5109,380.7545 393.5109,381.6826 L393.5109,382.667 Q393.5109,383.7779 394.3125,384.5232 Q395.1141,385.2545 396.5484,385.2545 Q397.3922,385.2545 397.9828,385.0295 Q398.3344,384.8889 398.7141,384.4951 Q398.9531,384.2561 399.0797,384.1857 Q399.2203,384.1154 399.4031,384.1154 Q399.6984,384.1154 399.9234,384.3545 Q400.1625,384.5795 400.1625,384.8889 Q400.1625,385.1982 399.8531,385.5639 Q399.4031,386.0842 398.6859,386.3795 Q397.7156,386.7873 396.5484,386.7873 Q395.1844,386.7873 394.1016,386.2248 Q393.2156,385.7748 392.5969,384.8186 Q391.9781,383.8482 391.9781,382.6951 L391.9781,381.6545 Q391.9781,380.4592 392.5266,379.4326 Q393.0891,378.392 394.0734,377.8436 Q395.0578,377.2811 396.1688,377.2811 Q396.8297,377.2811 397.4063,377.4357 Q397.9969,377.5764 398.4891,377.8998 Z " fill="#000000"/><text fill="#000000" font-family="sans-serif" font-size="12.6" lengthAdjust="spacing" textLength="129.5376" x="408.6" y="386.8295">CustomListItemService</text><line style="stroke:#181818;stroke-width:0.45;" x1="383.4" x2="539.9376" y1="396.0123" y2="396.0123"/><line style="stroke:#181818;stroke-width:0.45;" x1="383.4" x2="539.9376" y1="403.2123" y2="403.2123"/></g><!--class ShoppingListService--><g id="elem_ShoppingListService"><rect codeLine="375" fill="#F1F1F1" height="43.2" id="ShoppingListService" rx="2.25" ry="2.25" style="stroke:#181818;stroke-width:0.45;" width="143.6704" x="572.4" y="367.2123"/><ellipse cx="585.9" cy="381.6123" fill="#ADD1B2" rx="9.9" ry="9.9" style="stroke:#181818;stroke-width:0.9;"/><path d="M588.3891,377.8998 Q588.5297,377.7029 588.6984,377.6045 Q588.8672,377.5061 589.0641,377.5061 Q589.4016,377.5061 589.6125,377.7451 Q589.8234,377.9701 589.8234,378.5186 L589.8234,379.8264 Q589.8234,380.3748 589.6125,380.6139 Q589.4016,380.8529 589.0641,380.8529 Q588.7547,380.8529 588.5719,380.6701 Q588.3891,380.5014 588.2906,380.0373 Q588.2484,379.7139 588.0797,379.5451 Q587.7844,379.2076 587.2359,379.0107 Q586.6875,378.8139 586.125,378.8139 Q585.4359,378.8139 584.8594,379.1092 Q584.2969,379.4045 583.8469,380.0795 Q583.4109,380.7545 583.4109,381.6826 L583.4109,382.667 Q583.4109,383.7779 584.2125,384.5232 Q585.0141,385.2545 586.4484,385.2545 Q587.2922,385.2545 587.8828,385.0295 Q588.2344,384.8889 588.6141,384.4951 Q588.8531,384.2561 588.9797,384.1857 Q589.1203,384.1154 589.3031,384.1154 Q589.5984,384.1154 589.8234,384.3545 Q590.0625,384.5795 590.0625,384.8889 Q590.0625,385.1982 589.7531,385.5639 Q589.3031,386.0842 588.5859,386.3795 Q587.6156,386.7873 586.4484,386.7873 Q585.0844,386.7873 584.0016,386.2248 Q583.1156,385.7748 582.4969,384.8186 Q581.8781,383.8482 581.8781,382.6951 L581.8781,381.6545 Q581.8781,380.4592 582.4266,379.4326 Q582.9891,378.392 583.9734,377.8436 Q584.9578,377.2811 586.0688,377.2811 Q586.7297,377.2811 587.3063,377.4357 Q587.8969,377.5764 588.3891,377.8998 Z " fill="#000000"/><text fill="#000000" font-family="sans-serif" font-size="12.6" lengthAdjust="spacing" textLength="114.8704" x="598.5" y="386.8295">ShoppingListService</text><line style="stroke:#181818;stroke-width:0.45;" x1="573.3" x2="715.1704" y1="396.0123" y2="396.0123"/><line style="stroke:#181818;stroke-width:0.45;" x1="573.3" x2="715.1704" y1="403.2123" y2="403.2123"/></g><!--class ShoppingListItemCategoryService--><g id="elem_ShoppingListItemCategoryService"><rect codeLine="376" fill="#F1F1F1" height="43.2" id="ShoppingListItemCategoryService" rx="2.25" ry="2.25" style="stroke:#181818;stroke-width:0.45;" width="219.3012" x="747.9" y="367.2123"/><ellipse cx="761.4" cy="381.6123" fill="#ADD1B2" rx="9.9" ry="9.9" style="stroke:#181818;stroke-width:0.9;"/><path d="M763.8891,377.8998 Q764.0297,377.7029 764.1984,377.6045 Q764.3672,377.5061 764.5641,377.5061 Q764.9016,377.5061 765.1125,377.7451 Q765.3234,377.9701 765.3234,378.5186 L765.3234,379.8264 Q765.3234,380.3748 765.1125,380.6139 Q764.9016,380.8529 764.5641,380.8529 Q764.2547,380.8529 764.0719,380.6701 Q763.8891,380.5014 763.7906,380.0373 Q763.7484,379.7139 763.5797,379.5451 Q763.2844,379.2076 762.7359,379.0107 Q762.1875,378.8139 761.625,378.8139 Q760.9359,378.8139 760.3594,379.1092 Q759.7969,379.4045 759.3469,380.0795 Q758.9109,380.7545 758.9109,381.6826 L758.9109,382.667 Q758.9109,383.7779 759.7125,384.5232 Q760.5141,385.2545 761.9484,385.2545 Q762.7922,385.2545 763.3828,385.0295 Q763.7344,384.8889 764.1141,384.4951 Q764.3531,384.2561 764.4797,384.1857 Q764.6203,384.1154 764.8031,384.1154 Q765.0984,384.1154 765.3234,384.3545 Q765.5625,384.5795 765.5625,384.8889 Q765.5625,385.1982 765.2531,385.5639 Q764.8031,386.0842 764.0859,386.3795 Q763.1156,386.7873 761.9484,386.7873 Q760.5844,386.7873 759.5016,386.2248 Q758.6156,385.7748 757.9969,384.8186 Q757.3781,383.8482 757.3781,382.6951 L757.3781,381.6545 Q757.3781,380.4592 757.9266,379.4326 Q758.4891,378.392 759.4734,377.8436 Q760.4578,377.2811 761.5688,377.2811 Q762.2297,377.2811 762.8063,377.4357 Q763.3969,377.5764 763.8891,377.8998 Z " fill="#000000"/><text fill="#000000" font-family="sans-serif" font-size="12.6" lengthAdjust="spacing" textLength="190.5012" x="774" y="386.8295">ShoppingListItemCategoryService</text><line style="stroke:#181818;stroke-width:0.45;" x1="748.8" x2="966.3012" y1="396.0123" y2="396.0123"/><line style="stroke:#181818;stroke-width:0.45;" x1="748.8" x2="966.3012" y1="403.2123" y2="403.2123"/></g><!--class ShoppingListItemService--><g id="elem_ShoppingListItemService"><rect codeLine="377" fill="#F1F1F1" height="43.2" id="ShoppingListItemService" rx="2.25" ry="2.25" style="stroke:#181818;stroke-width:0.45;" width="168.1752" x="199.35" y="464.4123"/><ellipse cx="212.85" cy="478.8123" fill="#ADD1B2" rx="9.9" ry="9.9" style="stroke:#181818;stroke-width:0.9;"/><path d="M215.3391,475.0998 Q215.4797,474.9029 215.6484,474.8045 Q215.8172,474.7061 216.0141,474.7061 Q216.3516,474.7061 216.5625,474.9451 Q216.7734,475.1701 216.7734,475.7186 L216.7734,477.0264 Q216.7734,477.5748 216.5625,477.8139 Q216.3516,478.0529 216.0141,478.0529 Q215.7047,478.0529 215.5219,477.8701 Q215.3391,477.7014 215.2406,477.2373 Q215.1984,476.9139 215.0297,476.7451 Q214.7344,476.4076 214.1859,476.2107 Q213.6375,476.0139 213.075,476.0139 Q212.3859,476.0139 211.8094,476.3092 Q211.2469,476.6045 210.7969,477.2795 Q210.3609,477.9545 210.3609,478.8826 L210.3609,479.867 Q210.3609,480.9779 211.1625,481.7232 Q211.9641,482.4545 213.3984,482.4545 Q214.2422,482.4545 214.8328,482.2295 Q215.1844,482.0889 215.5641,481.6951 Q215.8031,481.4561 215.9297,481.3857 Q216.0703,481.3154 216.2531,481.3154 Q216.5484,481.3154 216.7734,481.5545 Q217.0125,481.7795 217.0125,482.0889 Q217.0125,482.3982 216.7031,482.7639 Q216.2531,483.2842 215.5359,483.5795 Q214.5656,483.9873 213.3984,483.9873 Q212.0344,483.9873 210.9516,483.4248 Q210.0656,482.9748 209.4469,482.0186 Q208.8281,481.0482 208.8281,479.8951 L208.8281,478.8545 Q208.8281,477.6592 209.3766,476.6326 Q209.9391,475.592 210.9234,475.0436 Q211.9078,474.4811 213.0188,474.4811 Q213.6797,474.4811 214.2563,474.6357 Q214.8469,474.7764 215.3391,475.0998 Z " fill="#000000"/><text fill="#000000" font-family="sans-serif" font-size="12.6" lengthAdjust="spacing" textLength="139.3752" x="225.45" y="484.0295">ShoppingListItemService</text><line style="stroke:#181818;stroke-width:0.45;" x1="200.25" x2="366.6252" y1="493.2123" y2="493.2123"/><line style="stroke:#181818;stroke-width:0.45;" x1="200.25" x2="366.6252" y1="500.4123" y2="500.4123"/></g><!--SRC=[tLfVRzis47_tfo2yXpXTN2phzYAW0ufWM0kiNP2iUna6WPPeYujCgXJjrDlotNUaP8d_95bErtWra4GHxux7tntlZlITeVUtw2LwNnA1RYKNkyaa9qk994U2hZA9KYf88Ybdam8dTtX5qFGjJqcEhd9SbgISehyd23vdyu5FHOLUyqr9Cfwd8xZqL2rdFQFwV8re6Y7AfF66uJM9K2c5yIuH14kInbX6A8KdITVa-Vx1eDiKwK5qj8m10mAa4LfmdkkXXyae91Jceq7GXkfVFrbZcji0p54SPxZCO6K5IBdd8dKHsh0j4NH9WQHVG4MMOEKJiUHtXBcY01omb8Zt0Ws8AW9B1FbO3CBzMSnNMMLDPCRJ4WrOmmGbBWaeA6VL7ut6kGUlrgn1VyR8VLpac3BR8C3tZZFYOhLh6SDC3i3rRBwfQlOE6tREVeGWTrVyo3RhTWlVy9mORepJDMKK636480X7bys8SYHuyQqfoWa7iRSdicP8-w6_HTJhgDs03bVa12bNg03b8tijjc_X926533Z-AOQXLw3JByiRKXQSbNH1SofteyDIICX0c1g06wJI5GCC9FSi9QdClH2VaZ8Hj52U-7-8_jU2_mc9TJJIDT_ZmDq3ijXvs68OYlao5fOjesutESuaAS5fJXbnW7P0veh0sKFgvMaa32iSrNRvYUDym3P5HHbPBd3wZgq3UAso4xxh5SLhpA10j0DumfaKTB6f0diWZYl_Ym_pwc3Oxe6p2jI6pYSU4wusfUJhdo4HZWuBBUkfHOPFwEw0SPAHv2w7PNfnGUTTIRVaIREkQuqtagmVPv6dFiwuAuf7BQuobUFODJ5mHmvKfj-0lp6BD-wa_R31J6fdNEOSMo63KUcYnxWa0TSAPfjJ31E_ul9kT81GJ8-io8xR_tqHfQV6AmJbGik_hf-CmL9YkIaZTAl_sl0Aaco4e6pbsN9qZN9gbKQTWYiu36Dkn0gsYfLsCxhAcdohFckIKk1-YLuqht9-3_z_vyrGeMh8Ns28kNnbJI0vR1Xh1dKi5Nm5xb5QqoWOtNbQdupLhzSaBmRlDOBPNm9trEw89xB9ZVOvmX9ojKkiqYZ5DDzPmDqJSgTV6RQ16YdJxrhKTWGB_Ig0sytUnRrDBHf5uaHf4hcgXMa1Q2AsEFUkqiX7gVOxaOTWT3BfznrdtH3rr2CTXv8dtF67feJRZ1S5hFQesj5a_i-gnnxOF-MHy_CxcucUAakkGCYAYzsNKFMvQtkaTzJ8H9sOdRPruv5mLBMljpNDwjUL-2NLj0yJHkuBl28JzwkZ6vBh6-FcooF_SZXuvU0NGMxHqfcIHqNJHhyHNFeIUdevHS_cSpJzvldpPrFtYZf2qmN9ELkLK3rDDPT3KVFDvy-qgFORh-DPzLKDi6UuH7XQkNRmjhOHSCZa-_kQJgO0Zt55SHoRtdAZrDJ9VnI7bGkFvXolQMSMELYARHVR4StBoSeNfetJnfujDVV-BP1JjkNvbgGGtWvbstjTmwfczBp0LhBxYW449SfJIraYldJT8kxo43s1BwhU2GSBWQVB0UreYPACWasKTW7Fgw6f3sws3W7A-W3cqvc79Pj5Ir4CCBY7sgw16mPDxvvOzbvHHy0tB2EWAuPngvgU8ypILh2UjaHBmTVj6SohlkVpVtve5AJDWWQ90XlIzfZ-v1pocduEnme1WOOzHd8t6rgfLJtJls1ZB7RrGfi4CcyNkCT3PsmkfeE4zOqAwQSqtQZrcIuE8n8Cwc551cF_TtCOyU2G2IntE8GXcEiifBgJqtxlTybmxHX8ESU8y9FhCL8wCjbOKTteyBqemzvkMlDYmJZsZZKCiK85xvUUjqHiQKBAOnkN6lwtlrqZplBTKRqxjHJhvF1XGyHEjogKS7AELVVDhEt1EVUEqWwzqRcZc6A8q34S1rHZ3HLEmyuisERZJm4blHwEbroiiOotEAUfhLJmKA6rCkWkKBXVnPfEzT7Kx856atE_4ob4d5Dsrz-KSe4i_LsX9M5ESvCsX3T9VwUCdcBMNbLUeCDRP9o-5jzLpbIptbUNtyBF2n_wvlGzQouFBb0T7ojbpaFdybhezvw3jGqlwY2hFArzenjsPix_pIHgk_xUpFI7EzKBxok0s6wkiV0BTDkOw5lOlTh8p8RDks_k6ROYLG-T6zI2f6VecaFGWc0H3VJ9DEmFVZj1SAoDnWF3gku8afXnTP30h5uE8gw99W__0W00]--></g></svg>