<svg xmlns="http://www.w3.org/2000/svg" xmlns:xlink="http://www.w3.org/1999/xlink" contentStyleType="text/css" height="558.6px" preserveAspectRatio="none" style="width:870px;height:558px;background:#FFFFFF;" version="1.1" viewBox="0 0 870 558" width="870px" zoomAndPan="magnify"><defs/><g><!--cluster Model Relations--><g id="cluster_Model Relations"><path d="M5.1,3.6082 L70.1068,3.6082 A2.25,2.25 0 0 1 71.6068,5.1082 L75.8068,18.3809 L864.3,18.3809 A1.5,1.5 0 0 1 865.8,19.8809 L865.8,552.9082 A1.5,1.5 0 0 1 864.3,554.4082 L5.1,554.4082 A1.5,1.5 0 0 1 3.6,552.9082 L3.6,5.1082 A1.5,1.5 0 0 1 5.1,3.6082 " fill="none" style="stroke:#000000;stroke-width:0.8999999999999999;"/><line style="stroke:#000000;stroke-width:0.8999999999999999;" x1="3.6" x2="75.8068" y1="18.3809" y2="18.3809"/><text fill="#000000" font-family="sans-serif" font-size="8.4" font-weight="bold" lengthAdjust="spacing" textLength="64.4068" x="6" y="13.8727">Model Relations</text></g><!--class User--><g id="elem_User"><rect fill="#F1F1F1" height="28.8" id="User" rx="1.5" ry="1.5" style="stroke:#181818;stroke-width:0.3;" width="36.9352" x="309" y="25.8082"/><ellipse cx="318" cy="35.4082" fill="#ADD1B2" rx="6.6" ry="6.6" style="stroke:#181818;stroke-width:0.6;"/><path d="M319.6594,32.9332 Q319.7531,32.802 319.8656,32.7363 Q319.9781,32.6707 320.1094,32.6707 Q320.3344,32.6707 320.475,32.8301 Q320.6156,32.9801 320.6156,33.3457 L320.6156,34.2176 Q320.6156,34.5832 320.475,34.7426 Q320.3344,34.902 320.1094,34.902 Q319.9031,34.902 319.7813,34.7801 Q319.6594,34.6676 319.5938,34.3582 Q319.5656,34.1426 319.4531,34.0301 Q319.2562,33.8051 318.8906,33.6738 Q318.525,33.5426 318.15,33.5426 Q317.6906,33.5426 317.3063,33.7395 Q316.9313,33.9363 316.6312,34.3863 Q316.3406,34.8363 316.3406,35.4551 L316.3406,36.1113 Q316.3406,36.852 316.875,37.3488 Q317.4094,37.8363 318.3656,37.8363 Q318.9281,37.8363 319.3219,37.6863 Q319.5563,37.5926 319.8094,37.3301 Q319.9688,37.1707 320.0531,37.1238 Q320.1469,37.077 320.2688,37.077 Q320.4656,37.077 320.6156,37.2363 Q320.775,37.3863 320.775,37.5926 Q320.775,37.7988 320.5687,38.0426 Q320.2688,38.3895 319.7906,38.5863 Q319.1438,38.8582 318.3656,38.8582 Q317.4563,38.8582 316.7344,38.4832 Q316.1438,38.1832 315.7313,37.5457 Q315.3187,36.8988 315.3187,36.1301 L315.3187,35.4363 Q315.3187,34.6395 315.6844,33.9551 Q316.0594,33.2613 316.7156,32.8957 Q317.3719,32.5207 318.1125,32.5207 Q318.5531,32.5207 318.9375,32.6238 Q319.3313,32.7176 319.6594,32.9332 Z " fill="#000000"/><text fill="#000000" font-family="sans-serif" font-size="8.4" lengthAdjust="spacing" textLength="17.7352" x="326.4" y="38.8863">User</text><line style="stroke:#181818;stroke-width:0.3;" x1="309.6" x2="345.3352" y1="45.0082" y2="45.0082"/><line style="stroke:#181818;stroke-width:0.3;" x1="309.6" x2="345.3352" y1="49.8082" y2="49.8082"/></g><!--class Household_User--><g id="elem_Household_User"><rect fill="#F1F1F1" height="28.8" id="Household_User" rx="1.5" ry="1.5" style="stroke:#181818;stroke-width:0.3;" width="81.7693" x="33" y="90.6082"/><ellipse cx="42" cy="100.2082" fill="#ADD1B2" rx="6.6" ry="6.6" style="stroke:#181818;stroke-width:0.6;"/><path d="M43.6594,97.7332 Q43.7531,97.602 43.8656,97.5363 Q43.9781,97.4707 44.1094,97.4707 Q44.3344,97.4707 44.475,97.6301 Q44.6156,97.7801 44.6156,98.1457 L44.6156,99.0176 Q44.6156,99.3832 44.475,99.5426 Q44.3344,99.702 44.1094,99.702 Q43.9031,99.702 43.7813,99.5801 Q43.6594,99.4676 43.5938,99.1582 Q43.5656,98.9426 43.4531,98.8301 Q43.2563,98.6051 42.8906,98.4738 Q42.525,98.3426 42.15,98.3426 Q41.6906,98.3426 41.3063,98.5395 Q40.9313,98.7363 40.6313,99.1863 Q40.3406,99.6363 40.3406,100.2551 L40.3406,100.9113 Q40.3406,101.652 40.875,102.1488 Q41.4094,102.6363 42.3656,102.6363 Q42.9281,102.6363 43.3219,102.4863 Q43.5563,102.3926 43.8094,102.1301 Q43.9688,101.9707 44.0531,101.9238 Q44.1469,101.877 44.2688,101.877 Q44.4656,101.877 44.6156,102.0363 Q44.775,102.1863 44.775,102.3926 Q44.775,102.5988 44.5688,102.8426 Q44.2688,103.1895 43.7906,103.3863 Q43.1438,103.6582 42.3656,103.6582 Q41.4563,103.6582 40.7344,103.2832 Q40.1438,102.9832 39.7312,102.3457 Q39.3188,101.6988 39.3188,100.9301 L39.3188,100.2363 Q39.3188,99.4395 39.6844,98.7551 Q40.0594,98.0613 40.7156,97.6957 Q41.3719,97.3207 42.1125,97.3207 Q42.5531,97.3207 42.9375,97.4238 Q43.3313,97.5176 43.6594,97.7332 Z " fill="#000000"/><text fill="#000000" font-family="sans-serif" font-size="8.4" lengthAdjust="spacing" textLength="62.5693" x="50.4" y="103.6863">Household_User</text><line style="stroke:#181818;stroke-width:0.3;" x1="33.6" x2="114.1693" y1="109.8082" y2="109.8082"/><line style="stroke:#181818;stroke-width:0.3;" x1="33.6" x2="114.1693" y1="114.6082" y2="114.6082"/></g><!--class Household--><g id="elem_Household"><rect fill="#F1F1F1" height="28.8" id="Household" rx="1.5" ry="1.5" style="stroke:#181818;stroke-width:0.3;" width="59.3625" x="353.1" y="516.0082"/><ellipse cx="362.1" cy="525.6082" fill="#ADD1B2" rx="6.6" ry="6.6" style="stroke:#181818;stroke-width:0.6;"/><path d="M363.7594,523.1332 Q363.8531,523.002 363.9656,522.9363 Q364.0781,522.8707 364.2094,522.8707 Q364.4344,522.8707 364.575,523.0301 Q364.7156,523.1801 364.7156,523.5457 L364.7156,524.4176 Q364.7156,524.7832 364.575,524.9426 Q364.4344,525.102 364.2094,525.102 Q364.0031,525.102 363.8812,524.9801 Q363.7594,524.8676 363.6937,524.5582 Q363.6656,524.3426 363.5531,524.2301 Q363.3563,524.0051 362.9906,523.8738 Q362.625,523.7426 362.25,523.7426 Q361.7906,523.7426 361.4063,523.9395 Q361.0313,524.1363 360.7313,524.5863 Q360.4406,525.0363 360.4406,525.6551 L360.4406,526.3113 Q360.4406,527.052 360.975,527.5488 Q361.5094,528.0363 362.4656,528.0363 Q363.0281,528.0363 363.4219,527.8863 Q363.6563,527.7926 363.9094,527.5301 Q364.0687,527.3707 364.1531,527.3238 Q364.2469,527.277 364.3688,527.277 Q364.5656,527.277 364.7156,527.4363 Q364.875,527.5863 364.875,527.7926 Q364.875,527.9988 364.6688,528.2426 Q364.3688,528.5895 363.8906,528.7863 Q363.2438,529.0582 362.4656,529.0582 Q361.5563,529.0582 360.8344,528.6832 Q360.2438,528.3832 359.8313,527.7457 Q359.4188,527.0988 359.4188,526.3301 L359.4188,525.6363 Q359.4188,524.8395 359.7844,524.1551 Q360.1594,523.4613 360.8156,523.0957 Q361.4719,522.7207 362.2125,522.7207 Q362.6531,522.7207 363.0375,522.8238 Q363.4313,522.9176 363.7594,523.1332 Z " fill="#000000"/><text fill="#000000" font-family="sans-serif" font-size="8.4" lengthAdjust="spacing" textLength="40.1625" x="370.5" y="529.0863">Household</text><line style="stroke:#181818;stroke-width:0.3;" x1="353.7" x2="411.8625" y1="535.2082" y2="535.2082"/><line style="stroke:#181818;stroke-width:0.3;" x1="353.7" x2="411.8625" y1="540.0082" y2="540.0082"/></g><!--class HouseholdRole--><g id="elem_HouseholdRole"><rect fill="#F1F1F1" height="28.8" id="HouseholdRole" rx="1.5" ry="1.5" style="stroke:#181818;stroke-width:0.3;" width="76.6383" x="35.4" y="155.4082"/><ellipse cx="44.4" cy="165.0082" fill="#ADD1B2" rx="6.6" ry="6.6" style="stroke:#181818;stroke-width:0.6;"/><path d="M46.0594,162.5332 Q46.1531,162.402 46.2656,162.3363 Q46.3781,162.2707 46.5094,162.2707 Q46.7344,162.2707 46.875,162.4301 Q47.0156,162.5801 47.0156,162.9457 L47.0156,163.8176 Q47.0156,164.1832 46.875,164.3426 Q46.7344,164.502 46.5094,164.502 Q46.3031,164.502 46.1813,164.3801 Q46.0594,164.2676 45.9938,163.9582 Q45.9656,163.7426 45.8531,163.6301 Q45.6563,163.4051 45.2906,163.2738 Q44.925,163.1426 44.55,163.1426 Q44.0906,163.1426 43.7063,163.3395 Q43.3313,163.5363 43.0313,163.9863 Q42.7406,164.4363 42.7406,165.0551 L42.7406,165.7113 Q42.7406,166.452 43.275,166.9488 Q43.8094,167.4363 44.7656,167.4363 Q45.3281,167.4363 45.7219,167.2863 Q45.9563,167.1926 46.2094,166.9301 Q46.3688,166.7707 46.4531,166.7238 Q46.5469,166.677 46.6687,166.677 Q46.8656,166.677 47.0156,166.8363 Q47.175,166.9863 47.175,167.1926 Q47.175,167.3988 46.9688,167.6426 Q46.6687,167.9895 46.1906,168.1863 Q45.5437,168.4582 44.7656,168.4582 Q43.8562,168.4582 43.1344,168.0832 Q42.5437,167.7832 42.1313,167.1457 Q41.7188,166.4988 41.7188,165.7301 L41.7188,165.0363 Q41.7188,164.2395 42.0844,163.5551 Q42.4594,162.8613 43.1156,162.4957 Q43.7719,162.1207 44.5125,162.1207 Q44.9531,162.1207 45.3375,162.2238 Q45.7312,162.3176 46.0594,162.5332 Z " fill="#000000"/><text fill="#000000" font-family="sans-serif" font-size="8.4" lengthAdjust="spacing" textLength="57.4383" x="52.8" y="168.4863">HouseholdRole</text><line style="stroke:#181818;stroke-width:0.3;" x1="36" x2="111.4383" y1="174.6082" y2="174.6082"/><line style="stroke:#181818;stroke-width:0.3;" x1="36" x2="111.4383" y1="179.4082" y2="179.4082"/></g><!--class AreaOfResponsibility--><g id="elem_AreaOfResponsibility"><rect fill="#F1F1F1" height="28.8" id="AreaOfResponsibility" rx="1.5" ry="1.5" style="stroke:#181818;stroke-width:0.3;" width="97.6342" x="333.9" y="414.6082"/><ellipse cx="342.9" cy="424.2082" fill="#ADD1B2" rx="6.6" ry="6.6" style="stroke:#181818;stroke-width:0.6;"/><path d="M344.5594,421.7332 Q344.6531,421.602 344.7656,421.5363 Q344.8781,421.4707 345.0094,421.4707 Q345.2344,421.4707 345.375,421.6301 Q345.5156,421.7801 345.5156,422.1457 L345.5156,423.0176 Q345.5156,423.3832 345.375,423.5426 Q345.2344,423.702 345.0094,423.702 Q344.8031,423.702 344.6813,423.5801 Q344.5594,423.4676 344.4938,423.1582 Q344.4656,422.9426 344.3531,422.8301 Q344.1563,422.6051 343.7906,422.4738 Q343.425,422.3426 343.05,422.3426 Q342.5906,422.3426 342.2063,422.5395 Q341.8313,422.7363 341.5313,423.1863 Q341.2406,423.6363 341.2406,424.2551 L341.2406,424.9113 Q341.2406,425.652 341.775,426.1488 Q342.3094,426.6363 343.2656,426.6363 Q343.8281,426.6363 344.2219,426.4863 Q344.4563,426.3926 344.7094,426.1301 Q344.8688,425.9707 344.9531,425.9238 Q345.0469,425.877 345.1688,425.877 Q345.3656,425.877 345.5156,426.0363 Q345.675,426.1863 345.675,426.3926 Q345.675,426.5988 345.4688,426.8426 Q345.1688,427.1895 344.6906,427.3863 Q344.0438,427.6582 343.2656,427.6582 Q342.3563,427.6582 341.6344,427.2832 Q341.0438,426.9832 340.6312,426.3457 Q340.2188,425.6988 340.2188,424.9301 L340.2188,424.2363 Q340.2188,423.4395 340.5844,422.7551 Q340.9594,422.0613 341.6156,421.6957 Q342.2719,421.3207 343.0125,421.3207 Q343.4531,421.3207 343.8375,421.4238 Q344.2313,421.5176 344.5594,421.7332 Z " fill="#000000"/><text fill="#000000" font-family="sans-serif" font-size="8.4" lengthAdjust="spacing" textLength="78.4342" x="351.3" y="427.6863">AreaOfResponsibility</text><line style="stroke:#181818;stroke-width:0.3;" x1="334.5" x2="430.9342" y1="433.8082" y2="433.8082"/><line style="stroke:#181818;stroke-width:0.3;" x1="334.5" x2="430.9342" y1="438.6082" y2="438.6082"/></g><!--class Project--><g id="elem_Project"><rect fill="#F1F1F1" height="28.8" id="Project" rx="1.5" ry="1.5" style="stroke:#181818;stroke-width:0.3;" width="45.3434" x="258" y="285.0082"/><ellipse cx="267" cy="294.6082" fill="#ADD1B2" rx="6.6" ry="6.6" style="stroke:#181818;stroke-width:0.6;"/><path d="M268.6594,292.1332 Q268.7531,292.002 268.8656,291.9363 Q268.9781,291.8707 269.1094,291.8707 Q269.3344,291.8707 269.475,292.0301 Q269.6156,292.1801 269.6156,292.5457 L269.6156,293.4176 Q269.6156,293.7832 269.475,293.9426 Q269.3344,294.102 269.1094,294.102 Q268.9031,294.102 268.7813,293.9801 Q268.6594,293.8676 268.5938,293.5582 Q268.5656,293.3426 268.4531,293.2301 Q268.2562,293.0051 267.8906,292.8738 Q267.525,292.7426 267.15,292.7426 Q266.6906,292.7426 266.3063,292.9395 Q265.9313,293.1363 265.6312,293.5863 Q265.3406,294.0363 265.3406,294.6551 L265.3406,295.3113 Q265.3406,296.052 265.875,296.5488 Q266.4094,297.0363 267.3656,297.0363 Q267.9281,297.0363 268.3219,296.8863 Q268.5563,296.7926 268.8094,296.5301 Q268.9688,296.3707 269.0531,296.3238 Q269.1469,296.277 269.2688,296.277 Q269.4656,296.277 269.6156,296.4363 Q269.775,296.5863 269.775,296.7926 Q269.775,296.9988 269.5687,297.2426 Q269.2688,297.5895 268.7906,297.7863 Q268.1438,298.0582 267.3656,298.0582 Q266.4563,298.0582 265.7344,297.6832 Q265.1438,297.3832 264.7313,296.7457 Q264.3187,296.0988 264.3187,295.3301 L264.3187,294.6363 Q264.3187,293.8395 264.6844,293.1551 Q265.0594,292.4613 265.7156,292.0957 Q266.3719,291.7207 267.1125,291.7207 Q267.5531,291.7207 267.9375,291.8238 Q268.3313,291.9176 268.6594,292.1332 Z " fill="#000000"/><text fill="#000000" font-family="sans-serif" font-size="8.4" lengthAdjust="spacing" textLength="26.1434" x="275.4" y="298.0863">Project</text><line style="stroke:#181818;stroke-width:0.3;" x1="258.6" x2="302.7434" y1="304.2082" y2="304.2082"/><line style="stroke:#181818;stroke-width:0.3;" x1="258.6" x2="302.7434" y1="309.0082" y2="309.0082"/></g><!--class CustomList--><g id="elem_CustomList"><rect fill="#F1F1F1" height="28.8" id="CustomList" rx="1.5" ry="1.5" style="stroke:#181818;stroke-width:0.3;" width="61.2123" x="133.2" y="155.4082"/><ellipse cx="142.2" cy="165.0082" fill="#ADD1B2" rx="6.6" ry="6.6" style="stroke:#181818;stroke-width:0.6;"/><path d="M143.8594,162.5332 Q143.9531,162.402 144.0656,162.3363 Q144.1781,162.2707 144.3094,162.2707 Q144.5344,162.2707 144.675,162.4301 Q144.8156,162.5801 144.8156,162.9457 L144.8156,163.8176 Q144.8156,164.1832 144.675,164.3426 Q144.5344,164.502 144.3094,164.502 Q144.1031,164.502 143.9813,164.3801 Q143.8594,164.2676 143.7938,163.9582 Q143.7656,163.7426 143.6531,163.6301 Q143.4562,163.4051 143.0906,163.2738 Q142.725,163.1426 142.35,163.1426 Q141.8906,163.1426 141.5063,163.3395 Q141.1313,163.5363 140.8312,163.9863 Q140.5406,164.4363 140.5406,165.0551 L140.5406,165.7113 Q140.5406,166.452 141.075,166.9488 Q141.6094,167.4363 142.5656,167.4363 Q143.1281,167.4363 143.5219,167.2863 Q143.7563,167.1926 144.0094,166.9301 Q144.1688,166.7707 144.2531,166.7238 Q144.3469,166.677 144.4688,166.677 Q144.6656,166.677 144.8156,166.8363 Q144.975,166.9863 144.975,167.1926 Q144.975,167.3988 144.7687,167.6426 Q144.4688,167.9895 143.9906,168.1863 Q143.3438,168.4582 142.5656,168.4582 Q141.6563,168.4582 140.9344,168.0832 Q140.3438,167.7832 139.9313,167.1457 Q139.5187,166.4988 139.5187,165.7301 L139.5187,165.0363 Q139.5187,164.2395 139.8844,163.5551 Q140.2594,162.8613 140.9156,162.4957 Q141.5719,162.1207 142.3125,162.1207 Q142.7531,162.1207 143.1375,162.2238 Q143.5313,162.3176 143.8594,162.5332 Z " fill="#000000"/><text fill="#000000" font-family="sans-serif" font-size="8.4" lengthAdjust="spacing" textLength="42.0123" x="150.6" y="168.4863">CustomList</text><line style="stroke:#181818;stroke-width:0.3;" x1="133.8" x2="193.8123" y1="174.6082" y2="174.6082"/><line style="stroke:#181818;stroke-width:0.3;" x1="133.8" x2="193.8123" y1="179.4082" y2="179.4082"/></g><!--class CustomListItem--><g id="elem_CustomListItem"><rect fill="#F1F1F1" height="28.8" id="CustomListItem" rx="1.5" ry="1.5" style="stroke:#181818;stroke-width:0.3;" width="77.5488" x="84.3" y="349.8082"/><ellipse cx="93.3" cy="359.4082" fill="#ADD1B2" rx="6.6" ry="6.6" style="stroke:#181818;stroke-width:0.6;"/><path d="M94.9594,356.9332 Q95.0531,356.802 95.1656,356.7363 Q95.2781,356.6707 95.4094,356.6707 Q95.6344,356.6707 95.775,356.8301 Q95.9156,356.9801 95.9156,357.3457 L95.9156,358.2176 Q95.9156,358.5832 95.775,358.7426 Q95.6344,358.902 95.4094,358.902 Q95.2031,358.902 95.0813,358.7801 Q94.9594,358.6676 94.8938,358.3582 Q94.8656,358.1426 94.7531,358.0301 Q94.5562,357.8051 94.1906,357.6738 Q93.825,357.5426 93.45,357.5426 Q92.9906,357.5426 92.6063,357.7395 Q92.2313,357.9363 91.9312,358.3863 Q91.6406,358.8363 91.6406,359.4551 L91.6406,360.1113 Q91.6406,360.852 92.175,361.3488 Q92.7094,361.8363 93.6656,361.8363 Q94.2281,361.8363 94.6219,361.6863 Q94.8563,361.5926 95.1094,361.3301 Q95.2688,361.1707 95.3531,361.1238 Q95.4469,361.077 95.5688,361.077 Q95.7656,361.077 95.9156,361.2363 Q96.075,361.3863 96.075,361.5926 Q96.075,361.7988 95.8687,362.0426 Q95.5688,362.3895 95.0906,362.5863 Q94.4438,362.8582 93.6656,362.8582 Q92.7563,362.8582 92.0344,362.4832 Q91.4438,362.1832 91.0313,361.5457 Q90.6187,360.8988 90.6187,360.1301 L90.6187,359.4363 Q90.6187,358.6395 90.9844,357.9551 Q91.3594,357.2613 92.0156,356.8957 Q92.6719,356.5207 93.4125,356.5207 Q93.8531,356.5207 94.2375,356.6238 Q94.6313,356.7176 94.9594,356.9332 Z " fill="#000000"/><text fill="#000000" font-family="sans-serif" font-size="8.4" lengthAdjust="spacing" textLength="58.3488" x="101.7" y="362.8863">CustomListItem</text><line style="stroke:#181818;stroke-width:0.3;" x1="84.9" x2="161.2488" y1="369.0082" y2="369.0082"/><line style="stroke:#181818;stroke-width:0.3;" x1="84.9" x2="161.2488" y1="373.8082" y2="373.8082"/></g><!--class Task--><g id="elem_Task"><rect fill="#F1F1F1" height="28.8" id="Task" rx="1.5" ry="1.5" style="stroke:#181818;stroke-width:0.3;" width="37.4027" x="656.4" y="220.2082"/><ellipse cx="665.4" cy="229.8082" fill="#ADD1B2" rx="6.6" ry="6.6" style="stroke:#181818;stroke-width:0.6;"/><path d="M667.0594,227.3332 Q667.1531,227.202 667.2656,227.1363 Q667.3781,227.0707 667.5094,227.0707 Q667.7344,227.0707 667.875,227.2301 Q668.0156,227.3801 668.0156,227.7457 L668.0156,228.6176 Q668.0156,228.9832 667.875,229.1426 Q667.7344,229.302 667.5094,229.302 Q667.3031,229.302 667.1813,229.1801 Q667.0594,229.0676 666.9938,228.7582 Q666.9656,228.5426 666.8531,228.4301 Q666.6563,228.2051 666.2906,228.0738 Q665.925,227.9426 665.55,227.9426 Q665.0906,227.9426 664.7063,228.1395 Q664.3313,228.3363 664.0313,228.7863 Q663.7406,229.2363 663.7406,229.8551 L663.7406,230.5113 Q663.7406,231.252 664.275,231.7488 Q664.8094,232.2363 665.7656,232.2363 Q666.3281,232.2363 666.7219,232.0863 Q666.9563,231.9926 667.2094,231.7301 Q667.3688,231.5707 667.4531,231.5238 Q667.5469,231.477 667.6687,231.477 Q667.8656,231.477 668.0156,231.6363 Q668.175,231.7863 668.175,231.9926 Q668.175,232.1988 667.9688,232.4426 Q667.6687,232.7895 667.1906,232.9863 Q666.5437,233.2582 665.7656,233.2582 Q664.8562,233.2582 664.1344,232.8832 Q663.5437,232.5832 663.1313,231.9457 Q662.7188,231.2988 662.7188,230.5301 L662.7188,229.8363 Q662.7188,229.0395 663.0844,228.3551 Q663.4594,227.6613 664.1156,227.2957 Q664.7719,226.9207 665.5125,226.9207 Q665.9531,226.9207 666.3375,227.0238 Q666.7312,227.1176 667.0594,227.3332 Z " fill="#000000"/><text fill="#000000" font-family="sans-serif" font-size="8.4" lengthAdjust="spacing" textLength="18.2027" x="673.8" y="233.2863">Task</text><line style="stroke:#181818;stroke-width:0.3;" x1="657" x2="693.2027" y1="239.4082" y2="239.4082"/><line style="stroke:#181818;stroke-width:0.3;" x1="657" x2="693.2027" y1="244.2082" y2="244.2082"/></g><!--class ShoppingList--><g id="elem_ShoppingList"><rect fill="#F1F1F1" height="28.8" id="ShoppingList" rx="1.5" ry="1.5" style="stroke:#181818;stroke-width:0.3;" width="67.7707" x="349.5" y="155.4082"/><ellipse cx="358.5" cy="165.0082" fill="#ADD1B2" rx="6.6" ry="6.6" style="stroke:#181818;stroke-width:0.6;"/><path d="M360.1594,162.5332 Q360.2531,162.402 360.3656,162.3363 Q360.4781,162.2707 360.6094,162.2707 Q360.8344,162.2707 360.975,162.4301 Q361.1156,162.5801 361.1156,162.9457 L361.1156,163.8176 Q361.1156,164.1832 360.975,164.3426 Q360.8344,164.502 360.6094,164.502 Q360.4031,164.502 360.2813,164.3801 Q360.1594,164.2676 360.0938,163.9582 Q360.0656,163.7426 359.9531,163.6301 Q359.7562,163.4051 359.3906,163.2738 Q359.025,163.1426 358.65,163.1426 Q358.1906,163.1426 357.8063,163.3395 Q357.4313,163.5363 357.1312,163.9863 Q356.8406,164.4363 356.8406,165.0551 L356.8406,165.7113 Q356.8406,166.452 357.375,166.9488 Q357.9094,167.4363 358.8656,167.4363 Q359.4281,167.4363 359.8219,167.2863 Q360.0563,167.1926 360.3094,166.9301 Q360.4688,166.7707 360.5531,166.7238 Q360.6469,166.677 360.7688,166.677 Q360.9656,166.677 361.1156,166.8363 Q361.275,166.9863 361.275,167.1926 Q361.275,167.3988 361.0687,167.6426 Q360.7688,167.9895 360.2906,168.1863 Q359.6438,168.4582 358.8656,168.4582 Q357.9563,168.4582 357.2344,168.0832 Q356.6438,167.7832 356.2313,167.1457 Q355.8187,166.4988 355.8187,165.7301 L355.8187,165.0363 Q355.8187,164.2395 356.1844,163.5551 Q356.5594,162.8613 357.2156,162.4957 Q357.8719,162.1207 358.6125,162.1207 Q359.0531,162.1207 359.4375,162.2238 Q359.8313,162.3176 360.1594,162.5332 Z " fill="#000000"/><text fill="#000000" font-family="sans-serif" font-size="8.4" lengthAdjust="spacing" textLength="48.5707" x="366.9" y="168.4863">ShoppingList</text><line style="stroke:#181818;stroke-width:0.3;" x1="350.1" x2="416.6707" y1="174.6082" y2="174.6082"/><line style="stroke:#181818;stroke-width:0.3;" x1="350.1" x2="416.6707" y1="179.4082" y2="179.4082"/></g><!--class ShoppingListItem--><g id="elem_ShoppingListItem"><rect fill="#F1F1F1" height="28.8" id="ShoppingListItem" rx="1.5" ry="1.5" style="stroke:#181818;stroke-width:0.3;" width="84.1072" x="475.2" y="349.8082"/><ellipse cx="484.2" cy="359.4082" fill="#ADD1B2" rx="6.6" ry="6.6" style="stroke:#181818;stroke-width:0.6;"/><path d="M485.8594,356.9332 Q485.9531,356.802 486.0656,356.7363 Q486.1781,356.6707 486.3094,356.6707 Q486.5344,356.6707 486.675,356.8301 Q486.8156,356.9801 486.8156,357.3457 L486.8156,358.2176 Q486.8156,358.5832 486.675,358.7426 Q486.5344,358.902 486.3094,358.902 Q486.1031,358.902 485.9813,358.7801 Q485.8594,358.6676 485.7938,358.3582 Q485.7656,358.1426 485.6531,358.0301 Q485.4562,357.8051 485.0906,357.6738 Q484.725,357.5426 484.35,357.5426 Q483.8906,357.5426 483.5062,357.7395 Q483.1312,357.9363 482.8312,358.3863 Q482.5406,358.8363 482.5406,359.4551 L482.5406,360.1113 Q482.5406,360.852 483.075,361.3488 Q483.6094,361.8363 484.5656,361.8363 Q485.1281,361.8363 485.5219,361.6863 Q485.7562,361.5926 486.0094,361.3301 Q486.1688,361.1707 486.2531,361.1238 Q486.3469,361.077 486.4688,361.077 Q486.6656,361.077 486.8156,361.2363 Q486.975,361.3863 486.975,361.5926 Q486.975,361.7988 486.7687,362.0426 Q486.4688,362.3895 485.9906,362.5863 Q485.3438,362.8582 484.5656,362.8582 Q483.6563,362.8582 482.9344,362.4832 Q482.3438,362.1832 481.9313,361.5457 Q481.5187,360.8988 481.5187,360.1301 L481.5187,359.4363 Q481.5187,358.6395 481.8844,357.9551 Q482.2594,357.2613 482.9156,356.8957 Q483.5719,356.5207 484.3125,356.5207 Q484.7531,356.5207 485.1375,356.6238 Q485.5313,356.7176 485.8594,356.9332 Z " fill="#000000"/><text fill="#000000" font-family="sans-serif" font-size="8.4" lengthAdjust="spacing" textLength="64.9072" x="492.6" y="362.8863">ShoppingListItem</text><line style="stroke:#181818;stroke-width:0.3;" x1="475.8" x2="558.7072" y1="369.0082" y2="369.0082"/><line style="stroke:#181818;stroke-width:0.3;" x1="475.8" x2="558.7072" y1="373.8082" y2="373.8082"/></g><!--class ShoppingListItemCategory--><g id="elem_ShoppingListItemCategory"><rect fill="#F1F1F1" height="28.8" id="ShoppingListItemCategory" rx="1.5" ry="1.5" style="stroke:#181818;stroke-width:0.3;" width="118.1912" x="497.7" y="414.6082"/><ellipse cx="506.7" cy="424.2082" fill="#ADD1B2" rx="6.6" ry="6.6" style="stroke:#181818;stroke-width:0.6;"/><path d="M508.3594,421.7332 Q508.4531,421.602 508.5656,421.5363 Q508.6781,421.4707 508.8094,421.4707 Q509.0344,421.4707 509.175,421.6301 Q509.3156,421.7801 509.3156,422.1457 L509.3156,423.0176 Q509.3156,423.3832 509.175,423.5426 Q509.0344,423.702 508.8094,423.702 Q508.6031,423.702 508.4813,423.5801 Q508.3594,423.4676 508.2938,423.1582 Q508.2656,422.9426 508.1531,422.8301 Q507.9562,422.6051 507.5906,422.4738 Q507.225,422.3426 506.85,422.3426 Q506.3906,422.3426 506.0062,422.5395 Q505.6312,422.7363 505.3312,423.1863 Q505.0406,423.6363 505.0406,424.2551 L505.0406,424.9113 Q505.0406,425.652 505.575,426.1488 Q506.1094,426.6363 507.0656,426.6363 Q507.6281,426.6363 508.0219,426.4863 Q508.2562,426.3926 508.5094,426.1301 Q508.6688,425.9707 508.7531,425.9238 Q508.8469,425.877 508.9688,425.877 Q509.1656,425.877 509.3156,426.0363 Q509.475,426.1863 509.475,426.3926 Q509.475,426.5988 509.2687,426.8426 Q508.9688,427.1895 508.4906,427.3863 Q507.8438,427.6582 507.0656,427.6582 Q506.1563,427.6582 505.4344,427.2832 Q504.8438,426.9832 504.4313,426.3457 Q504.0187,425.6988 504.0187,424.9301 L504.0187,424.2363 Q504.0187,423.4395 504.3844,422.7551 Q504.7594,422.0613 505.4156,421.6957 Q506.0719,421.3207 506.8125,421.3207 Q507.2531,421.3207 507.6375,421.4238 Q508.0313,421.5176 508.3594,421.7332 Z " fill="#000000"/><text fill="#000000" font-family="sans-serif" font-size="8.4" lengthAdjust="spacing" textLength="98.9912" x="515.1" y="427.6863">ShoppingListItemCategory</text><line style="stroke:#181818;stroke-width:0.3;" x1="498.3" x2="615.2912" y1="433.8082" y2="433.8082"/><line style="stroke:#181818;stroke-width:0.3;" x1="498.3" x2="615.2912" y1="438.6082" y2="438.6082"/></g><!--class ProjectGoal--><g id="elem_ProjectGoal"><rect fill="#F1F1F1" height="28.8" id="ProjectGoal" rx="1.5" ry="1.5" style="stroke:#181818;stroke-width:0.3;" width="63.0867" x="302.1" y="349.8082"/><ellipse cx="311.1" cy="359.4082" fill="#ADD1B2" rx="6.6" ry="6.6" style="stroke:#181818;stroke-width:0.6;"/><path d="M312.7594,356.9332 Q312.8531,356.802 312.9656,356.7363 Q313.0781,356.6707 313.2094,356.6707 Q313.4344,356.6707 313.575,356.8301 Q313.7156,356.9801 313.7156,357.3457 L313.7156,358.2176 Q313.7156,358.5832 313.575,358.7426 Q313.4344,358.902 313.2094,358.902 Q313.0031,358.902 312.8812,358.7801 Q312.7594,358.6676 312.6937,358.3582 Q312.6656,358.1426 312.5531,358.0301 Q312.3563,357.8051 311.9906,357.6738 Q311.625,357.5426 311.25,357.5426 Q310.7906,357.5426 310.4063,357.7395 Q310.0313,357.9363 309.7313,358.3863 Q309.4406,358.8363 309.4406,359.4551 L309.4406,360.1113 Q309.4406,360.852 309.975,361.3488 Q310.5094,361.8363 311.4656,361.8363 Q312.0281,361.8363 312.4219,361.6863 Q312.6563,361.5926 312.9094,361.3301 Q313.0687,361.1707 313.1531,361.1238 Q313.2469,361.077 313.3688,361.077 Q313.5656,361.077 313.7156,361.2363 Q313.875,361.3863 313.875,361.5926 Q313.875,361.7988 313.6688,362.0426 Q313.3688,362.3895 312.8906,362.5863 Q312.2438,362.8582 311.4656,362.8582 Q310.5563,362.8582 309.8344,362.4832 Q309.2438,362.1832 308.8313,361.5457 Q308.4188,360.8988 308.4188,360.1301 L308.4188,359.4363 Q308.4188,358.6395 308.7844,357.9551 Q309.1594,357.2613 309.8156,356.8957 Q310.4719,356.5207 311.2125,356.5207 Q311.6531,356.5207 312.0375,356.6238 Q312.4313,356.7176 312.7594,356.9332 Z " fill="#000000"/><text fill="#000000" font-family="sans-serif" font-size="8.4" lengthAdjust="spacing" textLength="43.8867" x="319.5" y="362.8863">ProjectGoal</text><line style="stroke:#181818;stroke-width:0.3;" x1="302.7" x2="364.5867" y1="369.0082" y2="369.0082"/><line style="stroke:#181818;stroke-width:0.3;" x1="302.7" x2="364.5867" y1="373.8082" y2="373.8082"/></g><!--class User_Project--><g id="elem_User_Project"><rect fill="#F1F1F1" height="28.8" id="User_Project" rx="1.5" ry="1.5" style="stroke:#181818;stroke-width:0.3;" width="67.7502" x="237.9" y="155.4082"/><ellipse cx="246.9" cy="165.0082" fill="#ADD1B2" rx="6.6" ry="6.6" style="stroke:#181818;stroke-width:0.6;"/><path d="M248.5594,162.5332 Q248.6531,162.402 248.7656,162.3363 Q248.8781,162.2707 249.0094,162.2707 Q249.2344,162.2707 249.375,162.4301 Q249.5156,162.5801 249.5156,162.9457 L249.5156,163.8176 Q249.5156,164.1832 249.375,164.3426 Q249.2344,164.502 249.0094,164.502 Q248.8031,164.502 248.6812,164.3801 Q248.5594,164.2676 248.4937,163.9582 Q248.4656,163.7426 248.3531,163.6301 Q248.1563,163.4051 247.7906,163.2738 Q247.425,163.1426 247.05,163.1426 Q246.5906,163.1426 246.2062,163.3395 Q245.8312,163.5363 245.5313,163.9863 Q245.2406,164.4363 245.2406,165.0551 L245.2406,165.7113 Q245.2406,166.452 245.775,166.9488 Q246.3094,167.4363 247.2656,167.4363 Q247.8281,167.4363 248.2219,167.2863 Q248.4562,167.1926 248.7094,166.9301 Q248.8687,166.7707 248.9531,166.7238 Q249.0469,166.677 249.1688,166.677 Q249.3656,166.677 249.5156,166.8363 Q249.675,166.9863 249.675,167.1926 Q249.675,167.3988 249.4688,167.6426 Q249.1688,167.9895 248.6906,168.1863 Q248.0438,168.4582 247.2656,168.4582 Q246.3563,168.4582 245.6344,168.0832 Q245.0438,167.7832 244.6313,167.1457 Q244.2188,166.4988 244.2188,165.7301 L244.2188,165.0363 Q244.2188,164.2395 244.5844,163.5551 Q244.9594,162.8613 245.6156,162.4957 Q246.2719,162.1207 247.0125,162.1207 Q247.4531,162.1207 247.8375,162.2238 Q248.2313,162.3176 248.5594,162.5332 Z " fill="#000000"/><text fill="#000000" font-family="sans-serif" font-size="8.4" lengthAdjust="spacing" textLength="48.5502" x="255.3" y="168.4863">User_Project</text><line style="stroke:#181818;stroke-width:0.3;" x1="238.5" x2="305.0502" y1="174.6082" y2="174.6082"/><line style="stroke:#181818;stroke-width:0.3;" x1="238.5" x2="305.0502" y1="179.4082" y2="179.4082"/></g><!--class ProjectRole--><g id="elem_ProjectRole"><rect fill="#F1F1F1" height="28.8" id="ProjectRole" rx="1.5" ry="1.5" style="stroke:#181818;stroke-width:0.3;" width="62.6191" x="303" y="220.2082"/><ellipse cx="312" cy="229.8082" fill="#ADD1B2" rx="6.6" ry="6.6" style="stroke:#181818;stroke-width:0.6;"/><path d="M313.6594,227.3332 Q313.7531,227.202 313.8656,227.1363 Q313.9781,227.0707 314.1094,227.0707 Q314.3344,227.0707 314.475,227.2301 Q314.6156,227.3801 314.6156,227.7457 L314.6156,228.6176 Q314.6156,228.9832 314.475,229.1426 Q314.3344,229.302 314.1094,229.302 Q313.9031,229.302 313.7813,229.1801 Q313.6594,229.0676 313.5938,228.7582 Q313.5656,228.5426 313.4531,228.4301 Q313.2562,228.2051 312.8906,228.0738 Q312.525,227.9426 312.15,227.9426 Q311.6906,227.9426 311.3063,228.1395 Q310.9313,228.3363 310.6312,228.7863 Q310.3406,229.2363 310.3406,229.8551 L310.3406,230.5113 Q310.3406,231.252 310.875,231.7488 Q311.4094,232.2363 312.3656,232.2363 Q312.9281,232.2363 313.3219,232.0863 Q313.5563,231.9926 313.8094,231.7301 Q313.9688,231.5707 314.0531,231.5238 Q314.1469,231.477 314.2688,231.477 Q314.4656,231.477 314.6156,231.6363 Q314.775,231.7863 314.775,231.9926 Q314.775,232.1988 314.5687,232.4426 Q314.2688,232.7895 313.7906,232.9863 Q313.1438,233.2582 312.3656,233.2582 Q311.4563,233.2582 310.7344,232.8832 Q310.1438,232.5832 309.7313,231.9457 Q309.3187,231.2988 309.3187,230.5301 L309.3187,229.8363 Q309.3187,229.0395 309.6844,228.3551 Q310.0594,227.6613 310.7156,227.2957 Q311.3719,226.9207 312.1125,226.9207 Q312.5531,226.9207 312.9375,227.0238 Q313.3313,227.1176 313.6594,227.3332 Z " fill="#000000"/><text fill="#000000" font-family="sans-serif" font-size="8.4" lengthAdjust="spacing" textLength="43.4191" x="320.4" y="233.2863">ProjectRole</text><line style="stroke:#181818;stroke-width:0.3;" x1="303.6" x2="365.0191" y1="239.4082" y2="239.4082"/><line style="stroke:#181818;stroke-width:0.3;" x1="303.6" x2="365.0191" y1="244.2082" y2="244.2082"/></g><!--class CustomList_CustomListItem--><g id="elem_CustomList_CustomListItem"><rect fill="#F1F1F1" height="28.8" id="CustomList_CustomListItem" rx="1.5" ry="1.5" style="stroke:#181818;stroke-width:0.3;" width="124.2328" x="35.7" y="220.2082"/><ellipse cx="44.7" cy="229.8082" fill="#ADD1B2" rx="6.6" ry="6.6" style="stroke:#181818;stroke-width:0.6;"/><path d="M46.3594,227.3332 Q46.4531,227.202 46.5656,227.1363 Q46.6781,227.0707 46.8094,227.0707 Q47.0344,227.0707 47.175,227.2301 Q47.3156,227.3801 47.3156,227.7457 L47.3156,228.6176 Q47.3156,228.9832 47.175,229.1426 Q47.0344,229.302 46.8094,229.302 Q46.6031,229.302 46.4812,229.1801 Q46.3594,229.0676 46.2937,228.7582 Q46.2656,228.5426 46.1531,228.4301 Q45.9563,228.2051 45.5906,228.0738 Q45.225,227.9426 44.85,227.9426 Q44.3906,227.9426 44.0063,228.1395 Q43.6313,228.3363 43.3313,228.7863 Q43.0406,229.2363 43.0406,229.8551 L43.0406,230.5113 Q43.0406,231.252 43.575,231.7488 Q44.1094,232.2363 45.0656,232.2363 Q45.6281,232.2363 46.0219,232.0863 Q46.2563,231.9926 46.5094,231.7301 Q46.6687,231.5707 46.7531,231.5238 Q46.8469,231.477 46.9688,231.477 Q47.1656,231.477 47.3156,231.6363 Q47.475,231.7863 47.475,231.9926 Q47.475,232.1988 47.2688,232.4426 Q46.9688,232.7895 46.4906,232.9863 Q45.8438,233.2582 45.0656,233.2582 Q44.1563,233.2582 43.4344,232.8832 Q42.8438,232.5832 42.4313,231.9457 Q42.0188,231.2988 42.0188,230.5301 L42.0188,229.8363 Q42.0188,229.0395 42.3844,228.3551 Q42.7594,227.6613 43.4156,227.2957 Q44.0719,226.9207 44.8125,226.9207 Q45.2531,226.9207 45.6375,227.0238 Q46.0313,227.1176 46.3594,227.3332 Z " fill="#000000"/><text fill="#000000" font-family="sans-serif" font-size="8.4" lengthAdjust="spacing" textLength="105.0328" x="53.1" y="233.2863">CustomList_CustomListItem</text><line style="stroke:#181818;stroke-width:0.3;" x1="36.3" x2="159.3328" y1="239.4082" y2="239.4082"/><line style="stroke:#181818;stroke-width:0.3;" x1="36.3" x2="159.3328" y1="244.2082" y2="244.2082"/></g><!--class Priority--><g id="elem_Priority"><rect fill="#F1F1F1" height="28.8" id="Priority" rx="1.5" ry="1.5" style="stroke:#181818;stroke-width:0.3;" width="45.3352" x="659.4" y="285.0082"/><ellipse cx="668.4" cy="294.6082" fill="#ADD1B2" rx="6.6" ry="6.6" style="stroke:#181818;stroke-width:0.6;"/><path d="M670.0594,292.1332 Q670.1531,292.002 670.2656,291.9363 Q670.3781,291.8707 670.5094,291.8707 Q670.7344,291.8707 670.875,292.0301 Q671.0156,292.1801 671.0156,292.5457 L671.0156,293.4176 Q671.0156,293.7832 670.875,293.9426 Q670.7344,294.102 670.5094,294.102 Q670.3031,294.102 670.1813,293.9801 Q670.0594,293.8676 669.9938,293.5582 Q669.9656,293.3426 669.8531,293.2301 Q669.6563,293.0051 669.2906,292.8738 Q668.925,292.7426 668.55,292.7426 Q668.0906,292.7426 667.7063,292.9395 Q667.3313,293.1363 667.0313,293.5863 Q666.7406,294.0363 666.7406,294.6551 L666.7406,295.3113 Q666.7406,296.052 667.275,296.5488 Q667.8094,297.0363 668.7656,297.0363 Q669.3281,297.0363 669.7219,296.8863 Q669.9563,296.7926 670.2094,296.5301 Q670.3688,296.3707 670.4531,296.3238 Q670.5469,296.277 670.6687,296.277 Q670.8656,296.277 671.0156,296.4363 Q671.175,296.5863 671.175,296.7926 Q671.175,296.9988 670.9688,297.2426 Q670.6687,297.5895 670.1906,297.7863 Q669.5437,298.0582 668.7656,298.0582 Q667.8562,298.0582 667.1344,297.6832 Q666.5437,297.3832 666.1313,296.7457 Q665.7188,296.0988 665.7188,295.3301 L665.7188,294.6363 Q665.7188,293.8395 666.0844,293.1551 Q666.4594,292.4613 667.1156,292.0957 Q667.7719,291.7207 668.5125,291.7207 Q668.9531,291.7207 669.3375,291.8238 Q669.7312,291.9176 670.0594,292.1332 Z " fill="#000000"/><text fill="#000000" font-family="sans-serif" font-size="8.4" lengthAdjust="spacing" textLength="26.1352" x="676.8" y="298.0863">Priority</text><line style="stroke:#181818;stroke-width:0.3;" x1="660" x2="704.1352" y1="304.2082" y2="304.2082"/><line style="stroke:#181818;stroke-width:0.3;" x1="660" x2="704.1352" y1="309.0082" y2="309.0082"/></g><!--class Status--><g id="elem_Status"><rect fill="#F1F1F1" height="28.8" id="Status" rx="1.5" ry="1.5" style="stroke:#181818;stroke-width:0.3;" width="43.0137" x="518.4" y="285.0082"/><ellipse cx="527.4" cy="294.6082" fill="#ADD1B2" rx="6.6" ry="6.6" style="stroke:#181818;stroke-width:0.6;"/><path d="M529.0594,292.1332 Q529.1531,292.002 529.2656,291.9363 Q529.3781,291.8707 529.5094,291.8707 Q529.7344,291.8707 529.875,292.0301 Q530.0156,292.1801 530.0156,292.5457 L530.0156,293.4176 Q530.0156,293.7832 529.875,293.9426 Q529.7344,294.102 529.5094,294.102 Q529.3031,294.102 529.1813,293.9801 Q529.0594,293.8676 528.9938,293.5582 Q528.9656,293.3426 528.8531,293.2301 Q528.6563,293.0051 528.2906,292.8738 Q527.925,292.7426 527.55,292.7426 Q527.0906,292.7426 526.7063,292.9395 Q526.3313,293.1363 526.0313,293.5863 Q525.7406,294.0363 525.7406,294.6551 L525.7406,295.3113 Q525.7406,296.052 526.275,296.5488 Q526.8094,297.0363 527.7656,297.0363 Q528.3281,297.0363 528.7219,296.8863 Q528.9563,296.7926 529.2094,296.5301 Q529.3688,296.3707 529.4531,296.3238 Q529.5469,296.277 529.6687,296.277 Q529.8656,296.277 530.0156,296.4363 Q530.175,296.5863 530.175,296.7926 Q530.175,296.9988 529.9688,297.2426 Q529.6687,297.5895 529.1906,297.7863 Q528.5437,298.0582 527.7656,298.0582 Q526.8562,298.0582 526.1344,297.6832 Q525.5437,297.3832 525.1313,296.7457 Q524.7188,296.0988 524.7188,295.3301 L524.7188,294.6363 Q524.7188,293.8395 525.0844,293.1551 Q525.4594,292.4613 526.1156,292.0957 Q526.7719,291.7207 527.5125,291.7207 Q527.9531,291.7207 528.3375,291.8238 Q528.7312,291.9176 529.0594,292.1332 Z " fill="#000000"/><text fill="#000000" font-family="sans-serif" font-size="8.4" lengthAdjust="spacing" textLength="23.8137" x="535.8" y="298.0863">Status</text><line style="stroke:#181818;stroke-width:0.3;" x1="519" x2="560.8137" y1="304.2082" y2="304.2082"/><line style="stroke:#181818;stroke-width:0.3;" x1="519" x2="560.8137" y1="309.0082" y2="309.0082"/></g><!--class Task_TaskHelper--><g id="elem_Task_TaskHelper"><rect fill="#F1F1F1" height="28.8" id="Task_TaskHelper" rx="1.5" ry="1.5" style="stroke:#181818;stroke-width:0.3;" width="85.0219" x="571.2" y="155.4082"/><ellipse cx="580.2" cy="165.0082" fill="#ADD1B2" rx="6.6" ry="6.6" style="stroke:#181818;stroke-width:0.6;"/><path d="M581.8594,162.5332 Q581.9531,162.402 582.0656,162.3363 Q582.1781,162.2707 582.3094,162.2707 Q582.5344,162.2707 582.675,162.4301 Q582.8156,162.5801 582.8156,162.9457 L582.8156,163.8176 Q582.8156,164.1832 582.675,164.3426 Q582.5344,164.502 582.3094,164.502 Q582.1031,164.502 581.9812,164.3801 Q581.8594,164.2676 581.7937,163.9582 Q581.7656,163.7426 581.6531,163.6301 Q581.4563,163.4051 581.0906,163.2738 Q580.725,163.1426 580.35,163.1426 Q579.8906,163.1426 579.5063,163.3395 Q579.1313,163.5363 578.8313,163.9863 Q578.5406,164.4363 578.5406,165.0551 L578.5406,165.7113 Q578.5406,166.452 579.075,166.9488 Q579.6094,167.4363 580.5656,167.4363 Q581.1281,167.4363 581.5219,167.2863 Q581.7563,167.1926 582.0094,166.9301 Q582.1687,166.7707 582.2531,166.7238 Q582.3469,166.677 582.4688,166.677 Q582.6656,166.677 582.8156,166.8363 Q582.975,166.9863 582.975,167.1926 Q582.975,167.3988 582.7688,167.6426 Q582.4688,167.9895 581.9906,168.1863 Q581.3438,168.4582 580.5656,168.4582 Q579.6563,168.4582 578.9344,168.0832 Q578.3438,167.7832 577.9313,167.1457 Q577.5188,166.4988 577.5188,165.7301 L577.5188,165.0363 Q577.5188,164.2395 577.8844,163.5551 Q578.2594,162.8613 578.9156,162.4957 Q579.5719,162.1207 580.3125,162.1207 Q580.7531,162.1207 581.1375,162.2238 Q581.5313,162.3176 581.8594,162.5332 Z " fill="#000000"/><text fill="#000000" font-family="sans-serif" font-size="8.4" lengthAdjust="spacing" textLength="65.8219" x="588.6" y="168.4863">Task_TaskHelper</text><line style="stroke:#181818;stroke-width:0.3;" x1="571.8" x2="655.6219" y1="174.6082" y2="174.6082"/><line style="stroke:#181818;stroke-width:0.3;" x1="571.8" x2="655.6219" y1="179.4082" y2="179.4082"/></g><!--class RecurringTask--><g id="elem_RecurringTask"><rect fill="#F1F1F1" height="28.8" id="RecurringTask" rx="1.5" ry="1.5" style="stroke:#181818;stroke-width:0.3;" width="73.8164" x="677.7" y="155.4082"/><ellipse cx="686.7" cy="165.0082" fill="#ADD1B2" rx="6.6" ry="6.6" style="stroke:#181818;stroke-width:0.6;"/><path d="M688.3594,162.5332 Q688.4531,162.402 688.5656,162.3363 Q688.6781,162.2707 688.8094,162.2707 Q689.0344,162.2707 689.175,162.4301 Q689.3156,162.5801 689.3156,162.9457 L689.3156,163.8176 Q689.3156,164.1832 689.175,164.3426 Q689.0344,164.502 688.8094,164.502 Q688.6031,164.502 688.4812,164.3801 Q688.3594,164.2676 688.2937,163.9582 Q688.2656,163.7426 688.1531,163.6301 Q687.9563,163.4051 687.5906,163.2738 Q687.225,163.1426 686.85,163.1426 Q686.3906,163.1426 686.0063,163.3395 Q685.6313,163.5363 685.3313,163.9863 Q685.0406,164.4363 685.0406,165.0551 L685.0406,165.7113 Q685.0406,166.452 685.575,166.9488 Q686.1094,167.4363 687.0656,167.4363 Q687.6281,167.4363 688.0219,167.2863 Q688.2563,167.1926 688.5094,166.9301 Q688.6687,166.7707 688.7531,166.7238 Q688.8469,166.677 688.9688,166.677 Q689.1656,166.677 689.3156,166.8363 Q689.475,166.9863 689.475,167.1926 Q689.475,167.3988 689.2688,167.6426 Q688.9688,167.9895 688.4906,168.1863 Q687.8438,168.4582 687.0656,168.4582 Q686.1563,168.4582 685.4344,168.0832 Q684.8438,167.7832 684.4313,167.1457 Q684.0188,166.4988 684.0188,165.7301 L684.0188,165.0363 Q684.0188,164.2395 684.3844,163.5551 Q684.7594,162.8613 685.4156,162.4957 Q686.0719,162.1207 686.8125,162.1207 Q687.2531,162.1207 687.6375,162.2238 Q688.0313,162.3176 688.3594,162.5332 Z " fill="#000000"/><text fill="#000000" font-family="sans-serif" font-size="8.4" lengthAdjust="spacing" textLength="54.6164" x="695.1" y="168.4863">RecurringTask</text><line style="stroke:#181818;stroke-width:0.3;" x1="678.3" x2="750.9164" y1="174.6082" y2="174.6082"/><line style="stroke:#181818;stroke-width:0.3;" x1="678.3" x2="750.9164" y1="179.4082" y2="179.4082"/></g><!--class RecurrenceCycle--><g id="elem_RecurrenceCycle"><rect fill="#F1F1F1" height="28.8" id="RecurrenceCycle" rx="1.5" ry="1.5" style="stroke:#181818;stroke-width:0.3;" width="83.6232" x="772.5" y="155.4082"/><ellipse cx="781.5" cy="165.0082" fill="#ADD1B2" rx="6.6" ry="6.6" style="stroke:#181818;stroke-width:0.6;"/><path d="M783.1594,162.5332 Q783.2531,162.402 783.3656,162.3363 Q783.4781,162.2707 783.6094,162.2707 Q783.8344,162.2707 783.975,162.4301 Q784.1156,162.5801 784.1156,162.9457 L784.1156,163.8176 Q784.1156,164.1832 783.975,164.3426 Q783.8344,164.502 783.6094,164.502 Q783.4031,164.502 783.2813,164.3801 Q783.1594,164.2676 783.0938,163.9582 Q783.0656,163.7426 782.9531,163.6301 Q782.7563,163.4051 782.3906,163.2738 Q782.025,163.1426 781.65,163.1426 Q781.1906,163.1426 780.8063,163.3395 Q780.4313,163.5363 780.1313,163.9863 Q779.8406,164.4363 779.8406,165.0551 L779.8406,165.7113 Q779.8406,166.452 780.375,166.9488 Q780.9094,167.4363 781.8656,167.4363 Q782.4281,167.4363 782.8219,167.2863 Q783.0563,167.1926 783.3094,166.9301 Q783.4688,166.7707 783.5531,166.7238 Q783.6469,166.677 783.7688,166.677 Q783.9656,166.677 784.1156,166.8363 Q784.275,166.9863 784.275,167.1926 Q784.275,167.3988 784.0688,167.6426 Q783.7688,167.9895 783.2906,168.1863 Q782.6438,168.4582 781.8656,168.4582 Q780.9563,168.4582 780.2344,168.0832 Q779.6438,167.7832 779.2312,167.1457 Q778.8188,166.4988 778.8188,165.7301 L778.8188,165.0363 Q778.8188,164.2395 779.1844,163.5551 Q779.5594,162.8613 780.2156,162.4957 Q780.8719,162.1207 781.6125,162.1207 Q782.0531,162.1207 782.4375,162.2238 Q782.8313,162.3176 783.1594,162.5332 Z " fill="#000000"/><text fill="#000000" font-family="sans-serif" font-size="8.4" lengthAdjust="spacing" textLength="64.4232" x="789.9" y="168.4863">RecurrenceCycle</text><line style="stroke:#181818;stroke-width:0.3;" x1="773.1" x2="855.5232" y1="174.6082" y2="174.6082"/><line style="stroke:#181818;stroke-width:0.3;" x1="773.1" x2="855.5232" y1="179.4082" y2="179.4082"/></g><!--class NonRecurringTask--><g id="elem_NonRecurringTask"><rect fill="#F1F1F1" height="28.8" id="NonRecurringTask" rx="1.5" ry="1.5" style="stroke:#181818;stroke-width:0.3;" width="89.226" x="438.3" y="155.4082"/><ellipse cx="447.3" cy="165.0082" fill="#ADD1B2" rx="6.6" ry="6.6" style="stroke:#181818;stroke-width:0.6;"/><path d="M448.9594,162.5332 Q449.0531,162.402 449.1656,162.3363 Q449.2781,162.2707 449.4094,162.2707 Q449.6344,162.2707 449.775,162.4301 Q449.9156,162.5801 449.9156,162.9457 L449.9156,163.8176 Q449.9156,164.1832 449.775,164.3426 Q449.6344,164.502 449.4094,164.502 Q449.2031,164.502 449.0813,164.3801 Q448.9594,164.2676 448.8938,163.9582 Q448.8656,163.7426 448.7531,163.6301 Q448.5563,163.4051 448.1906,163.2738 Q447.825,163.1426 447.45,163.1426 Q446.9906,163.1426 446.6063,163.3395 Q446.2313,163.5363 445.9313,163.9863 Q445.6406,164.4363 445.6406,165.0551 L445.6406,165.7113 Q445.6406,166.452 446.175,166.9488 Q446.7094,167.4363 447.6656,167.4363 Q448.2281,167.4363 448.6219,167.2863 Q448.8563,167.1926 449.1094,166.9301 Q449.2688,166.7707 449.3531,166.7238 Q449.4469,166.677 449.5687,166.677 Q449.7656,166.677 449.9156,166.8363 Q450.075,166.9863 450.075,167.1926 Q450.075,167.3988 449.8688,167.6426 Q449.5687,167.9895 449.0906,168.1863 Q448.4437,168.4582 447.6656,168.4582 Q446.7562,168.4582 446.0344,168.0832 Q445.4437,167.7832 445.0313,167.1457 Q444.6188,166.4988 444.6188,165.7301 L444.6188,165.0363 Q444.6188,164.2395 444.9844,163.5551 Q445.3594,162.8613 446.0156,162.4957 Q446.6719,162.1207 447.4125,162.1207 Q447.8531,162.1207 448.2375,162.2238 Q448.6312,162.3176 448.9594,162.5332 Z " fill="#000000"/><text fill="#000000" font-family="sans-serif" font-size="8.4" lengthAdjust="spacing" textLength="70.026" x="455.7" y="168.4863">NonRecurringTask</text><line style="stroke:#181818;stroke-width:0.3;" x1="438.9" x2="526.926" y1="174.6082" y2="174.6082"/><line style="stroke:#181818;stroke-width:0.3;" x1="438.9" x2="526.926" y1="179.4082" y2="179.4082"/></g><!--class ShoppingList_ShoppingListItem--><g id="elem_ShoppingList_ShoppingListItem"><rect fill="#F1F1F1" height="28.8" id="ShoppingList_ShoppingListItem" rx="1.5" ry="1.5" style="stroke:#181818;stroke-width:0.3;" width="137.3496" x="475.5" y="220.2082"/><ellipse cx="484.5" cy="229.8082" fill="#ADD1B2" rx="6.6" ry="6.6" style="stroke:#181818;stroke-width:0.6;"/><path d="M486.1594,227.3332 Q486.2531,227.202 486.3656,227.1363 Q486.4781,227.0707 486.6094,227.0707 Q486.8344,227.0707 486.975,227.2301 Q487.1156,227.3801 487.1156,227.7457 L487.1156,228.6176 Q487.1156,228.9832 486.975,229.1426 Q486.8344,229.302 486.6094,229.302 Q486.4031,229.302 486.2813,229.1801 Q486.1594,229.0676 486.0938,228.7582 Q486.0656,228.5426 485.9531,228.4301 Q485.7562,228.2051 485.3906,228.0738 Q485.025,227.9426 484.65,227.9426 Q484.1906,227.9426 483.8063,228.1395 Q483.4313,228.3363 483.1312,228.7863 Q482.8406,229.2363 482.8406,229.8551 L482.8406,230.5113 Q482.8406,231.252 483.375,231.7488 Q483.9094,232.2363 484.8656,232.2363 Q485.4281,232.2363 485.8219,232.0863 Q486.0563,231.9926 486.3094,231.7301 Q486.4688,231.5707 486.5531,231.5238 Q486.6469,231.477 486.7687,231.477 Q486.9656,231.477 487.1156,231.6363 Q487.275,231.7863 487.275,231.9926 Q487.275,232.1988 487.0687,232.4426 Q486.7687,232.7895 486.2906,232.9863 Q485.6437,233.2582 484.8656,233.2582 Q483.9562,233.2582 483.2344,232.8832 Q482.6437,232.5832 482.2313,231.9457 Q481.8187,231.2988 481.8187,230.5301 L481.8187,229.8363 Q481.8187,229.0395 482.1844,228.3551 Q482.5594,227.6613 483.2156,227.2957 Q483.8719,226.9207 484.6125,226.9207 Q485.0531,226.9207 485.4375,227.0238 Q485.8312,227.1176 486.1594,227.3332 Z " fill="#000000"/><text fill="#000000" font-family="sans-serif" font-size="8.4" lengthAdjust="spacing" textLength="118.1496" x="492.9" y="233.2863">ShoppingList_ShoppingListItem</text><line style="stroke:#181818;stroke-width:0.3;" x1="476.1" x2="612.2496" y1="239.4082" y2="239.4082"/><line style="stroke:#181818;stroke-width:0.3;" x1="476.1" x2="612.2496" y1="244.2082" y2="244.2082"/></g><!--reverse link User to Household_User--><g id="link_User_Household_User"><path codeLine="224" d="M315.198,61.9342 C315.198,79.6882 315.198,100.2082 315.198,100.2082 C315.198,100.2082 183.624,100.2082 114.75,100.2082 " fill="none" id="User-backto-Household_User" style="stroke:#181818;stroke-width:0.6;"/><polygon fill="#181818" points="315.198,54.7342,312.798,58.3342,315.198,61.9342,317.598,58.3342,315.198,54.7342" style="stroke:#181818;stroke-width:0.6;"/><text fill="#000000" font-family="sans-serif" font-size="7.8" lengthAdjust="spacing" textLength="35.995" x="201.714" y="97.8252">belongs to</text><text fill="#000000" font-family="sans-serif" font-size="7.8" lengthAdjust="spacing" textLength="4.338" x="307.691" y="67.7099">1</text><text fill="#000000" font-family="sans-serif" font-size="7.8" lengthAdjust="spacing" textLength="11.7076" x="119.5679" y="97.4133">0..*</text></g><!--link Household_User to Household--><g id="link_Household_User_Household"><path codeLine="225" d="M114.78,109.8082 C156.834,109.8082 216.15,109.8082 216.15,109.8082 C216.15,109.8082 216.15,528.0082 216.15,528.0082 C216.15,528.0082 297.87,528.0082 345.804,528.0082 " fill="none" id="Household_User-to-Household" style="stroke:#181818;stroke-width:0.6;"/><polygon fill="#181818" points="353.004,528.0082,349.404,525.6082,345.804,528.0082,349.404,530.4082,353.004,528.0082" style="stroke:#181818;stroke-width:0.6;"/><text fill="#000000" font-family="sans-serif" font-size="7.8" lengthAdjust="spacing" textLength="35.995" x="180.15" y="334.2672">belongs to</text><text fill="#000000" font-family="sans-serif" font-size="7.8" lengthAdjust="spacing" textLength="11.7076" x="119.601" y="119.2551">0..*</text><text fill="#000000" font-family="sans-serif" font-size="7.8" lengthAdjust="spacing" textLength="4.338" x="343.9334" y="525.0901">1</text></g><!--link Household_User to HouseholdRole--><g id="link_Household_User_HouseholdRole"><path codeLine="226" d="M73.8,119.5522 C73.8,130.2202 73.8,137.4562 73.8,148.1122 " fill="none" id="Household_User-to-HouseholdRole" style="stroke:#181818;stroke-width:0.6;"/><polygon fill="#181818" points="73.8,155.3122,76.2,151.7122,73.8,148.1122,71.4,151.7122,73.8,155.3122" style="stroke:#181818;stroke-width:0.6;"/><text fill="#000000" font-family="sans-serif" font-size="7.8" lengthAdjust="spacing" textLength="19.0811" x="74.4" y="135.0492">has a</text><text fill="#000000" font-family="sans-serif" font-size="7.8" lengthAdjust="spacing" textLength="11.7076" x="61.0979" y="132.5321">0..*</text><text fill="#000000" font-family="sans-serif" font-size="7.8" lengthAdjust="spacing" textLength="4.338" x="69.1003" y="148.5301">1</text></g><!--link AreaOfResponsibility to Household--><g id="link_AreaOfResponsibility_Household"><path codeLine="228" d="M382.8,443.5342 C382.8,462.8122 382.8,489.4462 382.8,508.7062 " fill="none" id="AreaOfResponsibility-to-Household" style="stroke:#181818;stroke-width:0.6;"/><polygon fill="#181818" points="382.8,515.9062,385.2,512.3062,382.8,508.7062,380.4,512.3062,382.8,515.9062" style="stroke:#181818;stroke-width:0.6;"/><text fill="#000000" font-family="sans-serif" font-size="7.8" lengthAdjust="spacing" textLength="35.995" x="346.8" y="477.3372">belongs to</text><text fill="#000000" font-family="sans-serif" font-size="7.8" lengthAdjust="spacing" textLength="11.7076" x="370.1366" y="456.5099">0..*</text><text fill="#000000" font-family="sans-serif" font-size="7.8" lengthAdjust="spacing" textLength="4.338" x="378.1095" y="509.3665">1</text></g><!--link Project to Household--><g id="link_Project_Household"><path codeLine="229" d="M269.028,313.8442 C269.028,363.1702 269.028,522.0082 269.028,522.0082 C269.028,522.0082 312,522.0082 345.708,522.0082 " fill="none" id="Project-to-Household" style="stroke:#181818;stroke-width:0.6;"/><polygon fill="#181818" points="352.908,522.0082,349.308,519.6082,345.708,522.0082,349.308,524.4082,352.908,522.0082" style="stroke:#181818;stroke-width:0.6;"/><text fill="#000000" font-family="sans-serif" font-size="7.8" lengthAdjust="spacing" textLength="35.995" x="233.028" y="457.4832">belongs to</text><text fill="#000000" font-family="sans-serif" font-size="7.8" lengthAdjust="spacing" textLength="11.7076" x="253.438" y="327.0444">0..*</text><text fill="#000000" font-family="sans-serif" font-size="7.8" lengthAdjust="spacing" textLength="4.338" x="344.0221" y="518.2552">1</text></g><!--link CustomList to Household--><g id="link_CustomList_Household"><path codeLine="230" d="M174.78,184.2862 C174.78,251.9122 174.78,533.4082 174.78,533.4082 C174.78,533.4082 288.276,533.4082 345.798,533.4082 " fill="none" id="CustomList-to-Household" style="stroke:#181818;stroke-width:0.6;"/><polygon fill="#181818" points="352.998,533.4082,349.398,531.0082,345.798,533.4082,349.398,535.8082,352.998,533.4082" style="stroke:#181818;stroke-width:0.6;"/><text fill="#000000" font-family="sans-serif" font-size="7.8" lengthAdjust="spacing" textLength="35.995" x="138.78" y="445.5732">belongs to</text><text fill="#000000" font-family="sans-serif" font-size="7.8" lengthAdjust="spacing" textLength="11.7076" x="164.703" y="197.4966">0..*</text><text fill="#000000" font-family="sans-serif" font-size="7.8" lengthAdjust="spacing" textLength="4.338" x="343.9264" y="543.0789">1</text></g><!--link CustomListItem to Household--><g id="link_CustomListItem_Household"><path codeLine="231" d="M123,378.8422 C123,420.9502 123,539.4082 123,539.4082 C123,539.4082 277.554,539.4082 345.798,539.4082 " fill="none" id="CustomListItem-to-Household" style="stroke:#181818;stroke-width:0.6;"/><polygon fill="#181818" points="352.998,539.4082,349.398,537.0082,345.798,539.4082,349.398,541.8082,352.998,539.4082" style="stroke:#181818;stroke-width:0.6;"/><text fill="#000000" font-family="sans-serif" font-size="7.8" lengthAdjust="spacing" textLength="35.995" x="121.716" y="537.0252">belongs to</text><text fill="#000000" font-family="sans-serif" font-size="7.8" lengthAdjust="spacing" textLength="11.7076" x="110.3002" y="391.8429">0..*</text><text fill="#000000" font-family="sans-serif" font-size="7.8" lengthAdjust="spacing" textLength="4.338" x="343.9264" y="549.9976">1</text></g><!--link Task to Household--><g id="link_Task_Household"><path codeLine="232" d="M656.328,239.4082 C649.266,239.4082 642.9,239.4082 642.9,239.4082 C642.9,239.4082 642.9,539.4082 642.9,539.4082 C642.9,539.4082 488.154,539.4082 419.838,539.4082 " fill="none" id="Task-to-Household" style="stroke:#181818;stroke-width:0.6;"/><polygon fill="#181818" points="412.638,539.4082,416.238,541.8082,419.838,539.4082,416.238,537.0082,412.638,539.4082" style="stroke:#181818;stroke-width:0.6;"/><text fill="#000000" font-family="sans-serif" font-size="7.8" lengthAdjust="spacing" textLength="35.995" x="606.9" y="495.4452">belongs to</text><text fill="#000000" font-family="sans-serif" font-size="7.8" lengthAdjust="spacing" textLength="11.7076" x="639.9121" y="249.8851">0..*</text><text fill="#000000" font-family="sans-serif" font-size="7.8" lengthAdjust="spacing" textLength="4.338" x="417.3418" y="538.2108">1</text></g><!--link ShoppingList to Household--><g id="link_ShoppingList_Household"><path codeLine="233" d="M417.528,169.8082 C427.128,169.8082 435,169.8082 435,169.8082 C435,169.8082 435,522.0082 435,522.0082 C435,522.0082 431.484,522.0082 419.76,522.0082 " fill="none" id="ShoppingList-to-Household" style="stroke:#181818;stroke-width:0.6;"/><polygon fill="#181818" points="412.56,522.0082,416.16,524.4082,419.76,522.0082,416.16,519.6082,412.56,522.0082" style="stroke:#181818;stroke-width:0.6;"/><text fill="#000000" font-family="sans-serif" font-size="7.8" lengthAdjust="spacing" textLength="35.995" x="399" y="346.0092">belongs to</text><text fill="#000000" font-family="sans-serif" font-size="7.8" lengthAdjust="spacing" textLength="11.7076" x="421.7236" y="167.4019">0..*</text><text fill="#000000" font-family="sans-serif" font-size="7.8" lengthAdjust="spacing" textLength="4.338" x="417.2523" y="518.2552">1</text></g><!--link ShoppingListItem to Household--><g id="link_ShoppingListItem_Household"><path codeLine="234" d="M486.45,378.7462 C486.45,418.8322 486.45,528.0082 486.45,528.0082 C486.45,528.0082 450.33,528.0082 419.7,528.0082 " fill="none" id="ShoppingListItem-to-Household" style="stroke:#181818;stroke-width:0.6;"/><polygon fill="#181818" points="412.5,528.0082,416.1,530.4082,419.7,528.0082,416.1,525.6082,412.5,528.0082" style="stroke:#181818;stroke-width:0.6;"/><text fill="#000000" font-family="sans-serif" font-size="7.8" lengthAdjust="spacing" textLength="35.995" x="450.45" y="487.9692">belongs to</text><text fill="#000000" font-family="sans-serif" font-size="7.8" lengthAdjust="spacing" textLength="11.7076" x="466.6441" y="391.7247">0..*</text><text fill="#000000" font-family="sans-serif" font-size="7.8" lengthAdjust="spacing" textLength="4.338" x="417.1835" y="525.1365">1</text></g><!--link ShoppingListItemCategory to Household--><g id="link_ShoppingListItemCategory_Household"><path codeLine="235" d="M556.8,443.5222 C556.8,472.2082 556.8,533.4082 556.8,533.4082 C556.8,533.4082 469.41,533.4082 419.712,533.4082 " fill="none" id="ShoppingListItemCategory-to-Household" style="stroke:#181818;stroke-width:0.6;"/><polygon fill="#181818" points="412.512,533.4082,416.112,535.8082,419.712,533.4082,416.112,531.0082,412.512,533.4082" style="stroke:#181818;stroke-width:0.6;"/><text fill="#000000" font-family="sans-serif" font-size="7.8" lengthAdjust="spacing" textLength="35.995" x="493.596" y="531.0252">belongs to</text><text fill="#000000" font-family="sans-serif" font-size="7.8" lengthAdjust="spacing" textLength="11.7076" x="544.0492" y="456.7414">0..*</text><text fill="#000000" font-family="sans-serif" font-size="7.8" lengthAdjust="spacing" textLength="4.338" x="417.1973" y="543.0277">1</text></g><!--reverse link Project to ProjectGoal--><g id="link_Project_ProjectGoal"><path codeLine="237" d="M291.072,321.1522 C291.072,340.2562 291.072,364.2082 291.072,364.2082 C291.072,364.2082 295.764,364.2082 302.028,364.2082 " fill="none" id="Project-backto-ProjectGoal" style="stroke:#181818;stroke-width:0.6;"/><polygon fill="#181818" points="291.072,313.9522,288.672,317.5522,291.072,321.1522,293.472,317.5522,291.072,313.9522" style="stroke:#181818;stroke-width:0.6;"/><text fill="#000000" font-family="sans-serif" font-size="7.8" lengthAdjust="spacing" textLength="12.576" x="278.472" y="342.1692">has</text><text fill="#000000" font-family="sans-serif" font-size="7.8" lengthAdjust="spacing" textLength="4.338" x="293.9787" y="326.9321">1</text><text fill="#000000" font-family="sans-serif" font-size="7.8" lengthAdjust="spacing" textLength="11.7076" x="285.6344" y="361.7516">0..*</text></g><!--link User_Project to Project--><g id="link_User_Project_Project"><path codeLine="238" d="M273,184.4242 C273,209.3782 273,259.9282 273,284.8462 " fill="none" id="User_Project-Project" style="stroke:#181818;stroke-width:0.6;"/><text fill="#000000" font-family="sans-serif" font-size="7.8" lengthAdjust="spacing" textLength="36.8558" x="235.8" y="232.2492">involved in</text><text fill="#000000" font-family="sans-serif" font-size="7.8" lengthAdjust="spacing" textLength="11.7076" x="260.6007" y="197.4207">0..*</text><text fill="#000000" font-family="sans-serif" font-size="7.8" lengthAdjust="spacing" textLength="4.338" x="266.435" y="278.2919">1</text></g><!--link User_Project to ProjectRole--><g id="link_User_Project_ProjectRole"><path codeLine="239" d="M305.706,177.0082 C317.394,177.0082 327.6,177.0082 327.6,177.0082 C327.6,177.0082 327.6,203.0122 327.6,220.0762 " fill="none" id="User_Project-ProjectRole" style="stroke:#181818;stroke-width:0.6;"/><text fill="#000000" font-family="sans-serif" font-size="7.8" lengthAdjust="spacing" textLength="39.0229" x="328.2" y="196.6092">involved as</text><text fill="#000000" font-family="sans-serif" font-size="7.8" lengthAdjust="spacing" textLength="11.7076" x="310.5548" y="175.4918">0..*</text><text fill="#000000" font-family="sans-serif" font-size="7.8" lengthAdjust="spacing" textLength="4.338" x="321.2695" y="213.5292">1</text></g><!--reverse link CustomList to CustomList_CustomListItem--><g id="link_CustomList_CustomList_CustomListItem"><path codeLine="241" d="M142.098,191.5522 C142.098,202.2202 142.098,209.4562 142.098,220.1122 " fill="none" id="CustomList-backto-CustomList_CustomListItem" style="stroke:#181818;stroke-width:0.6;"/><polygon fill="#181818" points="142.098,184.3522,139.698,187.9522,142.098,191.5522,144.498,187.9522,142.098,184.3522" style="stroke:#181818;stroke-width:0.6;"/><text fill="#000000" font-family="sans-serif" font-size="7.8" lengthAdjust="spacing" textLength="36.8481" x="142.698" y="211.2492">consists of</text><text fill="#000000" font-family="sans-serif" font-size="7.8" lengthAdjust="spacing" textLength="4.338" x="132.4083" y="197.3321">1</text><text fill="#000000" font-family="sans-serif" font-size="7.8" lengthAdjust="spacing" textLength="11.7076" x="140.6239" y="213.3301">0..*</text></g><!--link CustomList_CustomListItem to CustomListItem--><g id="link_CustomList_CustomListItem_CustomListItem"><path codeLine="242" d="M109.5,249.2242 C109.5,274.1782 109.5,324.7282 109.5,349.6462 " fill="none" id="CustomList_CustomListItem-CustomListItem" style="stroke:#181818;stroke-width:0.6;"/><text fill="#000000" font-family="sans-serif" font-size="7.8" lengthAdjust="spacing" textLength="19.0811" x="90.3" y="297.0492">has a</text><text fill="#000000" font-family="sans-serif" font-size="7.8" lengthAdjust="spacing" textLength="11.7076" x="99.5193" y="262.2207">0..*</text><text fill="#000000" font-family="sans-serif" font-size="7.8" lengthAdjust="spacing" textLength="4.338" x="101.4962" y="343.0919">1</text></g><!--link CustomList_CustomListItem to CustomList_CustomListItem--><g id="link_CustomList_CustomListItem_CustomList_CustomListItem"><path codeLine="243" d="M151.002,220.1902 C151.002,215.3722 151.002,211.2082 151.002,211.2082 C151.002,211.2082 168.24,211.2082 168.24,211.2082 C168.24,211.2082 168.24,273.0082 168.24,273.0082 C168.24,273.0082 134.7,273.0082 134.7,273.0082 C134.7,273.0082 134.7,260.0002 134.7,249.1282 " fill="none" id="CustomList_CustomListItem-CustomList_CustomListItem" style="stroke:#181818;stroke-width:0.6;"/><text fill="#000000" font-family="sans-serif" font-size="7.8" lengthAdjust="spacing" textLength="32.514" x="171.84" y="252.3252">is child of</text><text fill="#000000" font-family="sans-serif" font-size="7.8" lengthAdjust="spacing" textLength="11.7076" x="164.6549" y="213.9138">0..*</text><text fill="#000000" font-family="sans-serif" font-size="7.8" lengthAdjust="spacing" textLength="13.0102" x="129.2199" y="262.1025">0..1</text></g><!--link Task to Priority--><g id="link_Task_Priority"><path codeLine="245" d="M682.2,249.1522 C682.2,259.8202 682.2,274.2562 682.2,284.9122 " fill="none" id="Task-Priority" style="stroke:#181818;stroke-width:0.6;"/><text fill="#000000" font-family="sans-serif" font-size="7.8" lengthAdjust="spacing" textLength="19.0811" x="682.8" y="264.6492">has a</text><text fill="#000000" font-family="sans-serif" font-size="7.8" lengthAdjust="spacing" textLength="11.7076" x="671.159" y="262.1321">0..*</text><text fill="#000000" font-family="sans-serif" font-size="7.8" lengthAdjust="spacing" textLength="4.338" x="677.5135" y="278.1301">1</text></g><!--link Task to Status--><g id="link_Task_Status"><path codeLine="246" d="M656.19,229.8082 C643.626,229.8082 629.4,229.8082 629.4,229.8082 C629.4,229.8082 629.4,299.4082 629.4,299.4082 C629.4,299.4082 588.102,299.4082 561.642,299.4082 " fill="none" id="Task-Status" style="stroke:#181818;stroke-width:0.6;"/><text fill="#000000" font-family="sans-serif" font-size="7.8" lengthAdjust="spacing" textLength="19.0811" x="610.2" y="282.7092">has a</text><text fill="#000000" font-family="sans-serif" font-size="7.8" lengthAdjust="spacing" textLength="11.7076" x="639.7456" y="226.0013">0..*</text><text fill="#000000" font-family="sans-serif" font-size="7.8" lengthAdjust="spacing" textLength="4.338" x="566.1987" y="296.6697">1</text></g><!--link Task_TaskHelper to Task--><g id="link_Task_TaskHelper_Task"><path codeLine="247" d="M656.478,169.8082 C661.524,169.8082 664.92,169.8082 664.92,169.8082 C664.92,169.8082 664.92,200.9602 664.92,220.0642 " fill="none" id="Task_TaskHelper-Task" style="stroke:#181818;stroke-width:0.6;"/><text fill="#000000" font-family="sans-serif" font-size="7.8" lengthAdjust="spacing" textLength="18.6469" x="645.72" y="199.7352">helps</text><text fill="#000000" font-family="sans-serif" font-size="7.8" lengthAdjust="spacing" textLength="11.7076" x="660.9602" y="167.5631">0..*</text><text fill="#000000" font-family="sans-serif" font-size="7.8" lengthAdjust="spacing" textLength="4.338" x="657.7432" y="213.5143">1</text></g><!--link RecurringTask to RecurrenceCycle--><g id="link_RecurringTask_RecurrenceCycle"><path codeLine="249" d="M751.686,169.8082 C758.436,169.8082 765.516,169.8082 772.392,169.8082 " fill="none" id="RecurringTask-RecurrenceCycle" style="stroke:#181818;stroke-width:0.6;"/><text fill="#000000" font-family="sans-serif" font-size="7.8" lengthAdjust="spacing" textLength="12.576" x="759.336" y="178.8252">has</text><text fill="#000000" font-family="sans-serif" font-size="7.8" lengthAdjust="spacing" textLength="11.7076" x="755.9748" y="167.4335">0..*</text><text fill="#000000" font-family="sans-serif" font-size="7.8" lengthAdjust="spacing" textLength="4.338" x="763.3849" y="167.4769">1</text></g><!--link NonRecurringTask to Task--><g id="link_NonRecurringTask_Task"><path codeLine="252" d="M501.6,184.3042 C501.6,192.9262 501.6,202.2082 501.6,202.2082 C501.6,202.2082 660.66,202.2082 660.66,202.2082 C660.66,202.2082 660.66,200.6902 660.66,209.3122 " fill="none" id="NonRecurringTask-to-Task" style="stroke:#181818;stroke-width:0.6;"/><polygon fill="none" points="660.66,220.1122,664.26,209.3122,657.06,209.3122,660.66,220.1122" style="stroke:#181818;stroke-width:0.6;"/><text fill="#000000" font-family="sans-serif" font-size="7.8" lengthAdjust="spacing" textLength="62.7771" x="518.13" y="199.8252">"is a" &#171;shared_id&#187;</text><text fill="#000000" font-family="sans-serif" font-size="7.8" lengthAdjust="spacing" textLength="13.0102" x="492.0693" y="197.519">0..1</text><text fill="#000000" font-family="sans-serif" font-size="7.8" lengthAdjust="spacing" textLength="4.338" x="652.239" y="213.3301">1</text></g><!--link RecurringTask to Task--><g id="link_RecurringTask_Task"><path codeLine="253" d="M685.65,184.3522 C685.65,195.0202 685.65,198.6562 685.65,209.3122 " fill="none" id="RecurringTask-to-Task" style="stroke:#181818;stroke-width:0.6;"/><polygon fill="none" points="685.65,220.1122,689.25,209.3122,682.05,209.3122,685.65,220.1122" style="stroke:#181818;stroke-width:0.6;"/><text fill="#000000" font-family="sans-serif" font-size="7.8" lengthAdjust="spacing" textLength="62.7771" x="686.25" y="199.8492">"is a" &#171;shared_id&#187;</text><text fill="#000000" font-family="sans-serif" font-size="7.8" lengthAdjust="spacing" textLength="13.0102" x="664.944" y="197.3321">0..1</text><text fill="#000000" font-family="sans-serif" font-size="7.8" lengthAdjust="spacing" textLength="4.338" x="683.6326" y="213.3301">1</text></g><!--reverse link ShoppingList to ShoppingList_ShoppingListItem--><g id="link_ShoppingList_ShoppingList_ShoppingListItem"><path codeLine="255" d="M404.328,191.5522 C404.328,210.6562 404.328,234.6082 404.328,234.6082 C404.328,234.6082 440.118,234.6082 475.494,234.6082 " fill="none" id="ShoppingList-backto-ShoppingList_ShoppingListItem" style="stroke:#181818;stroke-width:0.6;"/><polygon fill="#181818" points="404.328,184.3522,401.928,187.9522,404.328,191.5522,406.728,187.9522,404.328,184.3522" style="stroke:#181818;stroke-width:0.6;"/><text fill="#000000" font-family="sans-serif" font-size="7.8" lengthAdjust="spacing" textLength="36.8481" x="377.58" y="232.2252">consists of</text><text fill="#000000" font-family="sans-serif" font-size="7.8" lengthAdjust="spacing" textLength="4.338" x="404.5013" y="197.3321">1</text><text fill="#000000" font-family="sans-serif" font-size="7.8" lengthAdjust="spacing" textLength="11.7076" x="459.1069" y="232.4884">0..*</text></g><!--link ShoppingList_ShoppingListItem to ShoppingListItem--><g id="link_ShoppingList_ShoppingListItem_ShoppingListItem"><path codeLine="256" d="M496.95,249.2242 C496.95,274.1782 496.95,324.7282 496.95,349.6462 " fill="none" id="ShoppingList_ShoppingListItem-ShoppingListItem" style="stroke:#181818;stroke-width:0.6;"/><text fill="#000000" font-family="sans-serif" font-size="7.8" lengthAdjust="spacing" textLength="19.0811" x="477.75" y="297.0492">has a</text><text fill="#000000" font-family="sans-serif" font-size="7.8" lengthAdjust="spacing" textLength="11.7076" x="473.3467" y="262.2207">0..*</text><text fill="#000000" font-family="sans-serif" font-size="7.8" lengthAdjust="spacing" textLength="4.338" x="487.3059" y="343.0919">1</text></g><!--link ShoppingListItem to ShoppingListItemCategory--><g id="link_ShoppingListItem_ShoppingListItemCategory"><path codeLine="257" d="M528.45,378.7522 C528.45,389.4202 528.45,403.8562 528.45,414.5122 " fill="none" id="ShoppingListItem-ShoppingListItemCategory" style="stroke:#181818;stroke-width:0.6;"/><text fill="#000000" font-family="sans-serif" font-size="7.8" lengthAdjust="spacing" textLength="50.7305" x="529.05" y="394.2492">categorized by</text><text fill="#000000" font-family="sans-serif" font-size="7.8" lengthAdjust="spacing" textLength="11.7076" x="518.3566" y="391.7321">0..*</text><text fill="#000000" font-family="sans-serif" font-size="7.8" lengthAdjust="spacing" textLength="4.338" x="516.466" y="407.7301">1</text></g><!--link User to Task--><g id="link_User_Task"><path codeLine="259" d="M346.206,37.8082 C417.486,37.8082 669.18,37.8082 669.18,37.8082 C669.18,37.8082 669.18,174.6862 669.18,220.1362 " fill="none" id="User-Task" style="stroke:#181818;stroke-width:0.6;"/><text fill="#000000" font-family="sans-serif" font-size="7.8" lengthAdjust="spacing" textLength="24.276" x="574.26" y="35.4252">creator</text><text fill="#000000" font-family="sans-serif" font-size="7.8" lengthAdjust="spacing" textLength="4.338" x="350.7795" y="34.4037">1</text><text fill="#000000" font-family="sans-serif" font-size="7.8" lengthAdjust="spacing" textLength="11.7076" x="669.1627" y="213.3602">0..*</text></g><!--link User to Task--><g id="link_User_Task"><path codeLine="260" d="M346.44,31.8082 C418.608,31.8082 673.44,31.8082 673.44,31.8082 C673.44,31.8082 673.44,173.8522 673.44,220.1842 " fill="none" id="User-Task-1" style="stroke:#181818;stroke-width:0.6;"/><text fill="#000000" font-family="sans-serif" font-size="7.8" lengthAdjust="spacing" textLength="31.2229" x="604.728" y="29.4252">assignee</text><text fill="#000000" font-family="sans-serif" font-size="7.8" lengthAdjust="spacing" textLength="4.338" x="350.8004" y="27.2588">1</text><text fill="#000000" font-family="sans-serif" font-size="7.8" lengthAdjust="spacing" textLength="11.7076" x="660.1931" y="213.4205">0..*</text></g><!--link User to Task_TaskHelper--><g id="link_User_Task_TaskHelper"><path codeLine="261" d="M346.38,43.2082 C410.052,43.2082 613.8,43.2082 613.8,43.2082 C613.8,43.2082 613.8,122.0302 613.8,155.2882 " fill="none" id="User-Task_TaskHelper" style="stroke:#181818;stroke-width:0.6;"/><text fill="#000000" font-family="sans-serif" font-size="7.8" lengthAdjust="spacing" textLength="18.6469" x="516.93" y="40.8252">helps</text><text fill="#000000" font-family="sans-serif" font-size="7.8" lengthAdjust="spacing" textLength="4.338" x="350.728" y="53.3138">1</text><text fill="#000000" font-family="sans-serif" font-size="7.8" lengthAdjust="spacing" textLength="11.7076" x="601.0698" y="148.7441">0..*</text></g><!--link User to Project--><g id="link_User_Project"><path codeLine="262" d="M333.798,54.8782 C333.798,93.1702 333.798,193.2082 333.798,193.2082 C333.798,193.2082 288,193.2082 288,193.2082 C288,193.2082 288,255.7762 288,284.8642 " fill="none" id="User-Project" style="stroke:#181818;stroke-width:0.6;"/><text fill="#000000" font-family="sans-serif" font-size="7.8" lengthAdjust="spacing" textLength="24.276" x="309.198" y="201.7872">creator</text><text fill="#000000" font-family="sans-serif" font-size="7.8" lengthAdjust="spacing" textLength="4.338" x="330.5922" y="67.8872">1</text><text fill="#000000" font-family="sans-serif" font-size="7.8" lengthAdjust="spacing" textLength="11.7076" x="277.0344" y="278.3143">0..*</text></g><!--link User to User_Project--><g id="link_User_User_Project"><path codeLine="263" d="M321.402,54.7282 C321.402,87.1522 321.402,162.6082 321.402,162.6082 C321.402,162.6082 314.424,162.6082 305.706,162.6082 " fill="none" id="User-User_Project" style="stroke:#181818;stroke-width:0.6;"/><text fill="#000000" font-family="sans-serif" font-size="7.8" lengthAdjust="spacing" textLength="28.6178" x="292.602" y="114.1332">involved</text><text fill="#000000" font-family="sans-serif" font-size="7.8" lengthAdjust="spacing" textLength="4.338" x="315.3297" y="67.7025">1</text><text fill="#000000" font-family="sans-serif" font-size="7.8" lengthAdjust="spacing" textLength="11.7076" x="310.5548" y="159.3368">0..*</text></g><!--link User to CustomList--><g id="link_User_CustomList"><path codeLine="264" d="M308.97,40.2082 C266.04,40.2082 163.8,40.2082 163.8,40.2082 C163.8,40.2082 163.8,121.2982 163.8,155.1922 " fill="none" id="User-CustomList" style="stroke:#181818;stroke-width:0.6;"/><text fill="#000000" font-family="sans-serif" font-size="7.8" lengthAdjust="spacing" textLength="24.276" x="154.29" y="37.8252">creator</text><text fill="#000000" font-family="sans-serif" font-size="7.8" lengthAdjust="spacing" textLength="4.338" x="299.7662" y="37.2034">1</text><text fill="#000000" font-family="sans-serif" font-size="7.8" lengthAdjust="spacing" textLength="11.7076" x="151.0466" y="148.6247">0..*</text></g><!--link User to ShoppingList--><g id="link_User_ShoppingList"><path codeLine="265" d="M340.002,54.8242 C340.002,88.7182 340.002,169.8082 340.002,169.8082 C340.002,169.8082 343.926,169.8082 349.416,169.8082 " fill="none" id="User-ShoppingList" style="stroke:#181818;stroke-width:0.6;"/><text fill="#000000" font-family="sans-serif" font-size="7.8" lengthAdjust="spacing" textLength="24.276" x="315.402" y="126.0432">creator</text><text fill="#000000" font-family="sans-serif" font-size="7.8" lengthAdjust="spacing" textLength="4.338" x="338.2309" y="67.8207">1</text><text fill="#000000" font-family="sans-serif" font-size="7.8" lengthAdjust="spacing" textLength="11.7076" x="332.9531" y="167.3829">0..*</text></g><!--link User to AreaOfResponsibility--><g id="link_User_AreaOfResponsibility"><path codeLine="266" d="M346.272,49.2082 C373.812,49.2082 422.1,49.2082 422.1,49.2082 C422.1,49.2082 422.1,345.2062 422.1,414.5842 " fill="none" id="User-AreaOfResponsibility" style="stroke:#181818;stroke-width:0.6;"/><text fill="#000000" font-family="sans-serif" font-size="7.8" lengthAdjust="spacing" textLength="31.2229" x="390.3" y="202.9992">assignee</text><text fill="#000000" font-family="sans-serif" font-size="7.8" lengthAdjust="spacing" textLength="4.338" x="350.8599" y="60.7287">1</text><text fill="#000000" font-family="sans-serif" font-size="7.8" lengthAdjust="spacing" textLength="11.7076" x="419.3707" y="407.8205">0..*</text></g><!--link CustomList to AreaOfResponsibility--><g id="link_CustomList_AreaOfResponsibility"><path codeLine="268" d="M181.32,184.3762 C181.32,239.7202 181.32,433.8082 181.32,433.8082 C181.32,433.8082 274.134,433.8082 333.768,433.8082 " fill="none" id="CustomList-AreaOfResponsibility" style="stroke:#181818;stroke-width:0.6;"/><text fill="#000000" font-family="sans-serif" font-size="7.8" lengthAdjust="spacing" textLength="50.7305" x="130.32" y="394.3332">categorized by</text><text fill="#000000" font-family="sans-serif" font-size="7.8" lengthAdjust="spacing" textLength="11.7076" x="179.7056" y="197.3616">0..*</text><text fill="#000000" font-family="sans-serif" font-size="7.8" lengthAdjust="spacing" textLength="13.0102" x="316.0936" y="443.1459">0..1</text></g><!--link Task to AreaOfResponsibility--><g id="link_Task_AreaOfResponsibility"><path codeLine="269" d="M670.8,249.0442 C670.8,255.2062 670.8,261.0082 670.8,261.0082 C670.8,261.0082 426.9,261.0082 426.9,261.0082 C426.9,261.0082 426.9,373.5202 426.9,414.3922 " fill="none" id="Task-AreaOfResponsibility" style="stroke:#181818;stroke-width:0.6;"/><text fill="#000000" font-family="sans-serif" font-size="7.8" lengthAdjust="spacing" textLength="50.7305" x="427.14" y="258.6252">categorized by</text><text fill="#000000" font-family="sans-serif" font-size="7.8" lengthAdjust="spacing" textLength="11.7076" x="656.9997" y="262.2444">0..*</text><text fill="#000000" font-family="sans-serif" font-size="7.8" lengthAdjust="spacing" textLength="13.0102" x="436.2456" y="408.9902">0..1</text></g><!--link Project to AreaOfResponsibility--><g id="link_Project_AreaOfResponsibility"><path codeLine="270" d="M280.05,313.9702 C280.05,346.8922 280.05,424.2082 280.05,424.2082 C280.05,424.2082 307.368,424.2082 333.834,424.2082 " fill="none" id="Project-AreaOfResponsibility" style="stroke:#181818;stroke-width:0.6;"/><text fill="#000000" font-family="sans-serif" font-size="7.8" lengthAdjust="spacing" textLength="50.7305" x="229.05" y="393.5952">categorized by</text><text fill="#000000" font-family="sans-serif" font-size="7.8" lengthAdjust="spacing" textLength="11.7076" x="281.2599" y="326.9542">0..*</text><text fill="#000000" font-family="sans-serif" font-size="7.8" lengthAdjust="spacing" textLength="13.0102" x="316.1657" y="421.5206">0..1</text></g><!--link ShoppingList to AreaOfResponsibility--><g id="link_ShoppingList_AreaOfResponsibility"><path codeLine="271" d="M391.35,184.2982 C391.35,229.7182 391.35,368.9602 391.35,414.4582 " fill="none" id="ShoppingList-AreaOfResponsibility" style="stroke:#181818;stroke-width:0.6;"/><text fill="#000000" font-family="sans-serif" font-size="7.8" lengthAdjust="spacing" textLength="50.7305" x="340.35" y="296.9952">categorized by</text><text fill="#000000" font-family="sans-serif" font-size="7.8" lengthAdjust="spacing" textLength="11.7076" x="380.5395" y="197.5115">0..*</text><text fill="#000000" font-family="sans-serif" font-size="7.8" lengthAdjust="spacing" textLength="13.0102" x="379.3686" y="407.9068">0..1</text></g><!--link CustomList to Project--><g id="link_CustomList_Project"><path codeLine="273" d="M187.86,184.4242 C187.86,218.3182 187.86,299.4082 187.86,299.4082 C187.86,299.4082 223.104,299.4082 250.626,299.4082 " fill="none" id="CustomList-to-Project" style="stroke:#181818;stroke-width:0.6;"/><polygon fill="none" points="257.826,299.4082,254.226,297.0082,250.626,299.4082,254.226,301.8082,257.826,299.4082" style="stroke:#181818;stroke-width:0.6;"/><text fill="#000000" font-family="sans-serif" font-size="7.8" lengthAdjust="spacing" textLength="35.995" x="151.86" y="274.5132">belongs to</text><text fill="#000000" font-family="sans-serif" font-size="7.8" lengthAdjust="spacing" textLength="11.7076" x="194.7761" y="197.4207">0..*</text><text fill="#000000" font-family="sans-serif" font-size="7.8" lengthAdjust="spacing" textLength="13.0102" x="240.2518" y="296.7636">0..1</text></g><!--link NonRecurringTask to Project--><g id="link_NonRecurringTask_Project"><path codeLine="274" d="M456.75,184.4482 C456.75,219.2782 456.75,304.2082 456.75,304.2082 C456.75,304.2082 358.428,304.2082 310.824,304.2082 " fill="none" id="NonRecurringTask-to-Project" style="stroke:#181818;stroke-width:0.6;"/><polygon fill="none" points="303.624,304.2082,307.224,306.6082,310.824,304.2082,307.224,301.8082,303.624,304.2082" style="stroke:#181818;stroke-width:0.6;"/><text fill="#000000" font-family="sans-serif" font-size="7.8" lengthAdjust="spacing" textLength="35.995" x="404.064" y="301.8252">belongs to</text><text fill="#000000" font-family="sans-serif" font-size="7.8" lengthAdjust="spacing" textLength="11.7076" x="438.0173" y="197.4503">0..*</text><text fill="#000000" font-family="sans-serif" font-size="7.8" lengthAdjust="spacing" textLength="13.0102" x="308.1347" y="314.1545">0..1</text></g><!--link ShoppingList to Project--><g id="link_ShoppingList_Project"><path codeLine="275" d="M378.372,184.3702 C378.372,217.2922 378.372,294.6082 378.372,294.6082 C378.372,294.6082 339.72,294.6082 310.878,294.6082 " fill="none" id="ShoppingList-to-Project" style="stroke:#181818;stroke-width:0.6;"/><polygon fill="none" points="303.678,294.6082,307.278,297.0082,310.878,294.6082,307.278,292.2082,303.678,294.6082" style="stroke:#181818;stroke-width:0.6;"/><text fill="#000000" font-family="sans-serif" font-size="7.8" lengthAdjust="spacing" textLength="35.995" x="342.372" y="274.4532">belongs to</text><text fill="#000000" font-family="sans-serif" font-size="7.8" lengthAdjust="spacing" textLength="11.7076" x="364.5301" y="197.3542">0..*</text><text fill="#000000" font-family="sans-serif" font-size="7.8" lengthAdjust="spacing" textLength="13.0102" x="308.1969" y="291.3226">0..1</text></g><!--SRC=[rLfHRzis47xtho2qXwPP7Iphcr04AFAm5bZN8DdsAZ0IRN6HIKsadNbT_ljE4YMH52bBgfsq1jguuNrtnxllZaUfEOuVy9gWu1DFI8QkCom44G7wia3mURKyyAcbq0U-5IJbMJ81LPdgaCfY-VaHqIH4b4dqfI0u-Soo_PEsoF26X4Z8GljT38AI916M8KhWcwGRSj5ySQlPvibuoDDYKZp-4AIO78eID3uAP8DfLeN1jRv4KPHYaSB-Sj3zo8l43XaL4OubtK4ixpdFdZ6OTOmsHAOy4UX0RFJTj7ivopDCMVlFr_RUQdSwSKOU8nDI8G3t6sT40-v8GLTxdvq6rCPBqSAYyYtFo0mwUpXdAOzwD4dR9VXPH8F6IecmewUb8BGAsTPVmCP2SvyseMAI0mzwb88rQ2_4N9fOLEzXGvzNjqJad0bwJpCgzvEBpALaVAvSaN9BWYswPb0HalVYBQdCUXqi8I8kQ2ufPzzuSxif-5yabfD3ht2dY7OJeVjzgDgeCoVmouYleiB8VkWdrhnq9M0weunOaRUgWRENQRpW7vYUH0mZVRzmd8rFOLw3GeCqKyFgSkCKFRPaJZIPfSwMEh3lkebgsvXJWzTR8VdcLogcbs47_UugyIXiQaimJadya44SNAVL2ur61X-xJ7sKP7EAR9cZjCTuDDUFEhOMLHKE58NM1lL40q6OWOsyidzlCPCLUrOPnxgHBQFIpZlZaZYuOBNZYTNuEnOFa-km19rayfXNMoCBTs2ioGlAYyhKZVgcBGg9vLQ4wAxwQGQ_8F6sA2XRzyhjMvkKll80hQDox6Eh3kcnjPRqZCg_Ff0idt8nTPw74XI5NPqObcwhz1CMa-jzVFnJ_RPXLw_WYjPm59UMGziLjopuGueTpYhFT7V8FxAiEYBTv3Xmm1XEmxNKx_V0CUYPFLlp4nlRNShp75oODMZeu9SRDGQ2TSpxmBCE1dfaozFm6a1hNkoVUKImtJX9ajNMGk-c_PdnEXlDzxoUQNfreKyrjlAJpofF2qOUSxmc2_506SnEkDbGsGhaFYU85pBb8BZ8pUUzjoJ3vK4w-Obl2vo0geeqk0pG-NA9WfykBiu3-xbMY89xad6s5aZoe49P4WgtN9vNgZhwp8TMTqc0frWW7DIaSJudQXMCCTvS9BqW1qQxcys3LMIUv6Prkan267rzDdAwfzwkDrgBcHUJYFhZZPeBGKlQg9VB2jty5iGfs_5iHn9e76DX3UjQQ6cnnmBJIV-b31J59LE558YlR5f4FePK1lggL2MCLWBVBWzuHmMAKmevARrpC4-5Het8fWyEIJNqzkNqcTM4L5fA02mseJQ7h1PGoTjpQSCArG4_ifI0hnZMZN5jYJ1BEiMLMO5M1TzqyszllAiZk5p-TsMuIikjeNVlH0gpIXBHvEhAuROA_oYqeu9DYWsVaowQ3IEij3aKQWcSY6uxGEbM_Pt-2vLqlrTPQa-SPRV19ZhLnCQBuA2WklEIOKcTTnt9V0YjTHpqmsWbMiFm8xG6CiQ0GOSn0EVXQ4JAVverRFNfiFFeEAFcgEYVndEqU8w-gQhyqU6DAYtVzZdeR1xZuPuz78B2xDXCcTqGUGSNOHeJCVV_3RJuJt_U80wZzgoNvagBikr-RMhAgBVqT-Y7ov_XpzlUHIvgRoXdxGNe3LA5KLytNxlUbYgbRtkFp2BpBUfPzvJa3NAyLjNVJ1iRUh-LwS1-IpuCB1ky6P2pAUOKVOLkE508KXSUUC7Qmf_wBtASQrrj75WkJm6dYCxoWmBwMJ9AM0ajdlu7]--></g></svg>