<?xml version="1.0" encoding="us-ascii" standalone="no"?><svg xmlns="http://www.w3.org/2000/svg" xmlns:xlink="http://www.w3.org/1999/xlink" contentStyleType="text/css" height="630px" preserveAspectRatio="none" style="width:1088px;height:630px;background:#FFFFFF;" version="1.1" viewBox="0 0 1088 630" width="1088px" zoomAndPan="magnify"><defs/><g><rect fill="#FFFFFF" height="474.3281" style="stroke:#181818;stroke-width:1.0;" width="10" x="62.5" y="78.8906"/><rect fill="#FFFFFF" height="401.0625" style="stroke:#181818;stroke-width:1.0;" width="10" x="387.5" y="143.1563"/><rect fill="#FFFFFF" height="213.5313" style="stroke:#181818;stroke-width:1.0;" width="10" x="392.5" y="180.2891"/><rect fill="#FFFFFF" height="28" style="stroke:#181818;stroke-width:1.0;" width="10" x="397.5" y="222.4219"/><rect fill="#FFFFFF" height="70.1328" style="stroke:#181818;stroke-width:1.0;" width="10" x="392.5" y="437.9531"/><rect fill="#FFFFFF" height="28" style="stroke:#181818;stroke-width:1.0;" width="10" x="397.5" y="480.0859"/><rect fill="#FFFFFF" height="65.1328" style="stroke:#181818;stroke-width:1.0;" width="10" x="881.5" y="286.5547"/><rect fill="#FFFFFF" height="28" style="stroke:#181818;stroke-width:1.0;" width="10" x="886.5" y="323.6875"/><line style="stroke:#181818;stroke-width:0.5;stroke-dasharray:5.0,5.0;" x1="67" x2="67" y1="68.8906" y2="562.2188"/><line style="stroke:#181818;stroke-width:0.5;stroke-dasharray:5.0,5.0;" x1="392.5" x2="392.5" y1="68.8906" y2="562.2188"/><line style="stroke:#181818;stroke-width:0.5;stroke-dasharray:5.0,5.0;" x1="886" x2="886" y1="68.8906" y2="562.2188"/><rect fill="#E2E2F0" height="46.5938" rx="2.5" ry="2.5" style="stroke:#181818;stroke-width:0.5;" width="125" x="5" y="21.2969"/><text fill="#000000" font-family="sans-serif" font-size="14" lengthAdjust="spacing" textLength="80" x="27.5" y="41.292">/[any] route</text><text fill="#000000" font-family="sans-serif" font-size="14" lengthAdjust="spacing" textLength="111" x="12" y="57.5889">(Flask Blueprint)</text><rect fill="#E2E2F0" height="46.5938" rx="2.5" ry="2.5" style="stroke:#181818;stroke-width:0.5;" width="125" x="5" y="561.2188"/><text fill="#000000" font-family="sans-serif" font-size="14" lengthAdjust="spacing" textLength="80" x="27.5" y="581.2139">/[any] route</text><text fill="#000000" font-family="sans-serif" font-size="14" lengthAdjust="spacing" textLength="111" x="12" y="597.5107">(Flask Blueprint)</text><rect fill="#E2E2F0" height="30.2969" rx="2.5" ry="2.5" style="stroke:#181818;stroke-width:0.5;" width="96" x="344.5" y="37.5938"/><text fill="#000000" font-family="sans-serif" font-size="14" lengthAdjust="spacing" textLength="82" x="351.5" y="57.5889">AuthService</text><rect fill="#E2E2F0" height="30.2969" rx="2.5" ry="2.5" style="stroke:#181818;stroke-width:0.5;" width="96" x="344.5" y="561.2188"/><text fill="#000000" font-family="sans-serif" font-size="14" lengthAdjust="spacing" textLength="82" x="351.5" y="581.2139">AuthService</text><rect fill="#E2E2F0" height="62.8906" rx="2.5" ry="2.5" style="stroke:#181818;stroke-width:0.5;" width="213" x="780" y="5"/><text fill="#000000" font-family="sans-serif" font-size="14" lengthAdjust="spacing" textLength="199" x="787" y="24.9951">WhitelistedJWTRefreshToken</text><text fill="#000000" font-family="sans-serif" font-size="14" lengthAdjust="spacing" textLength="91" x="841" y="41.292">Model Object</text><text fill="#000000" font-family="sans-serif" font-size="14" lengthAdjust="spacing" textLength="183" x="795" y="57.5889">(SQLAlchemy to Database)</text><rect fill="#E2E2F0" height="62.8906" rx="2.5" ry="2.5" style="stroke:#181818;stroke-width:0.5;" width="213" x="780" y="561.2188"/><text fill="#000000" font-family="sans-serif" font-size="14" lengthAdjust="spacing" textLength="199" x="787" y="581.2139">WhitelistedJWTRefreshToken</text><text fill="#000000" font-family="sans-serif" font-size="14" lengthAdjust="spacing" textLength="91" x="841" y="597.5107">Model Object</text><text fill="#000000" font-family="sans-serif" font-size="14" lengthAdjust="spacing" textLength="183" x="795" y="613.8076">(SQLAlchemy to Database)</text><rect fill="#FFFFFF" height="474.3281" style="stroke:#181818;stroke-width:1.0;" width="10" x="62.5" y="78.8906"/><rect fill="#FFFFFF" height="401.0625" style="stroke:#181818;stroke-width:1.0;" width="10" x="387.5" y="143.1563"/><rect fill="#FFFFFF" height="213.5313" style="stroke:#181818;stroke-width:1.0;" width="10" x="392.5" y="180.2891"/><rect fill="#FFFFFF" height="28" style="stroke:#181818;stroke-width:1.0;" width="10" x="397.5" y="222.4219"/><rect fill="#FFFFFF" height="70.1328" style="stroke:#181818;stroke-width:1.0;" width="10" x="392.5" y="437.9531"/><rect fill="#FFFFFF" height="28" style="stroke:#181818;stroke-width:1.0;" width="10" x="397.5" y="480.0859"/><rect fill="#FFFFFF" height="65.1328" style="stroke:#181818;stroke-width:1.0;" width="10" x="881.5" y="286.5547"/><rect fill="#FFFFFF" height="28" style="stroke:#181818;stroke-width:1.0;" width="10" x="886.5" y="323.6875"/><rect fill="#EEEEEE" height="3" style="stroke:#EEEEEE;stroke-width:1.0;" width="1081.5" x="0" y="99.457"/><line style="stroke:#000000;stroke-width:1.0;" x1="0" x2="1081.5" y1="99.457" y2="99.457"/><line style="stroke:#000000;stroke-width:1.0;" x1="0" x2="1081.5" y1="102.457" y2="102.457"/><rect fill="#EEEEEE" height="23.1328" style="stroke:#000000;stroke-width:2.0;" width="172" x="454.75" y="88.8906"/><text fill="#000000" font-family="sans-serif" font-size="13" font-weight="bold" lengthAdjust="spacing" textLength="153" x="460.75" y="104.9575">(Generic) Create JWT</text><polygon fill="#181818" points="375.5,139.1563,385.5,143.1563,375.5,147.1563,379.5,143.1563" style="stroke:#181818;stroke-width:1.0;"/><line style="stroke:#181818;stroke-width:1.0;" x1="72.5" x2="381.5" y1="143.1563" y2="143.1563"/><text fill="#000000" font-family="sans-serif" font-size="13" lengthAdjust="spacing" textLength="260" x="79.5" y="138.0903">create_jwt(user, user_agent, ip_address)</text><line style="stroke:#181818;stroke-width:1.0;" x1="397.5" x2="444.5" y1="167.2891" y2="167.2891"/><line style="stroke:#181818;stroke-width:1.0;" x1="444.5" x2="444.5" y1="167.2891" y2="180.2891"/><line style="stroke:#181818;stroke-width:1.0;" x1="403.5" x2="444.5" y1="180.2891" y2="180.2891"/><polygon fill="#181818" points="413.5,176.2891,403.5,180.2891,413.5,184.2891,409.5,180.2891" style="stroke:#181818;stroke-width:1.0;"/><text fill="#000000" font-family="sans-serif" font-size="13" lengthAdjust="spacing" textLength="207" x="409.5" y="162.2231">__create_refresh_jwt(user: User)</text><line style="stroke:#181818;stroke-width:1.0;" x1="407.5" x2="449.5" y1="214.4219" y2="214.4219"/><line style="stroke:#181818;stroke-width:1.0;" x1="449.5" x2="449.5" y1="214.4219" y2="227.4219"/><line style="stroke:#181818;stroke-width:1.0;" x1="408.5" x2="449.5" y1="227.4219" y2="227.4219"/><polygon fill="#181818" points="418.5,223.4219,408.5,227.4219,418.5,231.4219,414.5,227.4219" style="stroke:#181818;stroke-width:1.0;"/><text fill="#000000" font-family="sans-serif" font-size="13" lengthAdjust="spacing" textLength="164" x="414.5" y="209.356">__encode_jwt(refresh_jwt)</text><polygon fill="#181818" points="869.5,282.5547,879.5,286.5547,869.5,290.5547,873.5,286.5547" style="stroke:#181818;stroke-width:1.0;"/><line style="stroke:#181818;stroke-width:1.0;" x1="402.5" x2="875.5" y1="286.5547" y2="286.5547"/><text fill="#000000" font-family="sans-serif" font-size="13" lengthAdjust="spacing" textLength="460" x="409.5" y="281.4888">new(refres_jti, encoded_refresh_jwt, user_agent, ip_address, expires_at)</text><line style="stroke:#181818;stroke-width:1.0;" x1="896.5" x2="938.5" y1="315.6875" y2="315.6875"/><line style="stroke:#181818;stroke-width:1.0;" x1="938.5" x2="938.5" y1="315.6875" y2="328.6875"/><line style="stroke:#181818;stroke-width:1.0;" x1="897.5" x2="938.5" y1="328.6875" y2="328.6875"/><polygon fill="#181818" points="907.5,324.6875,897.5,328.6875,907.5,332.6875,903.5,328.6875" style="stroke:#181818;stroke-width:1.0;"/><text fill="#000000" font-family="sans-serif" font-size="13" lengthAdjust="spacing" textLength="171" x="903.5" y="310.6216">__hash_secret(refresh_jwt)</text><line style="stroke:#181818;stroke-width:1.0;stroke-dasharray:2.0,2.0;" x1="360.5" x2="402.5" y1="392.8203" y2="392.8203"/><line style="stroke:#181818;stroke-width:1.0;stroke-dasharray:2.0,2.0;" x1="360.5" x2="360.5" y1="392.8203" y2="405.8203"/><line style="stroke:#181818;stroke-width:1.0;stroke-dasharray:2.0,2.0;" x1="360.5" x2="407.5" y1="405.8203" y2="405.8203"/><polygon fill="#181818" points="387.5,401.8203,397.5,405.8203,387.5,409.8203,391.5,405.8203" style="stroke:#181818;stroke-width:1.0;"/><text fill="#000000" font-family="sans-serif" font-size="13" lengthAdjust="spacing" textLength="296" x="106.5" y="387.7544">Tuple[refresh_jti: str, encoded_refresh_jwt: str]</text><line style="stroke:#181818;stroke-width:1.0;" x1="397.5" x2="444.5" y1="424.9531" y2="424.9531"/><line style="stroke:#181818;stroke-width:1.0;" x1="444.5" x2="444.5" y1="424.9531" y2="437.9531"/><line style="stroke:#181818;stroke-width:1.0;" x1="403.5" x2="444.5" y1="437.9531" y2="437.9531"/><polygon fill="#181818" points="413.5,433.9531,403.5,437.9531,413.5,441.9531,409.5,437.9531" style="stroke:#181818;stroke-width:1.0;"/><text fill="#000000" font-family="sans-serif" font-size="13" lengthAdjust="spacing" textLength="239" x="409.5" y="419.8872">__create_access_jwt(user, refresh_jti)</text><line style="stroke:#181818;stroke-width:1.0;" x1="407.5" x2="449.5" y1="472.0859" y2="472.0859"/><line style="stroke:#181818;stroke-width:1.0;" x1="449.5" x2="449.5" y1="472.0859" y2="485.0859"/><line style="stroke:#181818;stroke-width:1.0;" x1="408.5" x2="449.5" y1="485.0859" y2="485.0859"/><polygon fill="#181818" points="418.5,481.0859,408.5,485.0859,418.5,489.0859,414.5,485.0859" style="stroke:#181818;stroke-width:1.0;"/><text fill="#000000" font-family="sans-serif" font-size="13" lengthAdjust="spacing" textLength="163" x="414.5" y="467.02">__encode_jwt(access_jwt)</text><polygon fill="#181818" points="83.5,540.2188,73.5,544.2188,83.5,548.2188,79.5,544.2188" style="stroke:#181818;stroke-width:1.0;"/><line style="stroke:#181818;stroke-width:1.0;stroke-dasharray:2.0,2.0;" x1="77.5" x2="391.5" y1="544.2188" y2="544.2188"/><text fill="#000000" font-family="sans-serif" font-size="13" lengthAdjust="spacing" textLength="189" x="89.5" y="539.1528">Tuple[access_jwt, refresh_jwt]</text><!--SRC=[ZP5RQy9048NVyoi6dnIKlajJi2qjb4ffjEH1ox9kfirgkWcx4wt_lcFYPUEDlYmCCz-PSsOBQKahNKX3qBgPIBF-19kNX5FJVigaMy1zLc9XjQ5E2wI3A2XyP51IEaAxr0ghzc3KxCUf9ioq8qnUud64NnPTEiuNQAPcc2UOmTjiZefutUZzTP2f57_MG3ayIf8pwR3U6W-380oX_Om6hLOTUB0e2O4r8Gm3gKWlDtKKHD2xOnVG1rMDYFcAsgL3suNDA-Gt6kg2BeHC4ZRZEWUQpJEvuuNOAjZQzLwf3n_yNk7GA8vMpNji4qZm58-7Z1jSRIan9zs5MYpnNLoAmiE_XTwGqj_6nsFbdRuGgMGPXvpkaZycF7yd5RkzxVNgjEEoo72obo7T1qVshEsgytasUVFWKYbEu_sS9_-_inyKhbszMKN7eGuYdeCL7INu0m00]--></g></svg>