<?xml version="1.0" encoding="us-ascii" standalone="no"?><svg xmlns="http://www.w3.org/2000/svg" xmlns:xlink="http://www.w3.org/1999/xlink" contentStyleType="text/css" height="1133px" preserveAspectRatio="none" style="width:1596px;height:1133px;background:#FFFFFF;" version="1.1" viewBox="0 0 1596 1133" width="1596px" zoomAndPan="magnify"><defs/><g><rect fill="#FFFFFF" height="29.1328" style="stroke:#181818;stroke-width:1.0;" width="10" x="240" y="155.5625"/><rect fill="#FFFFFF" height="29.1328" style="stroke:#181818;stroke-width:1.0;" width="10" x="240" y="320.3594"/><rect fill="#FFFFFF" height="29.1328" style="stroke:#181818;stroke-width:1.0;" width="10" x="240" y="497.1563"/><rect fill="#FFFFFF" height="29.1328" style="stroke:#181818;stroke-width:1.0;" width="10" x="240" y="804.3516"/><rect fill="#FFFFFF" height="71.2656" style="stroke:#181818;stroke-width:1.0;" width="10" x="240" y="963.0156"/><rect fill="#FFFFFF" height="778.3203" style="stroke:#181818;stroke-width:1.0;" width="10" x="726" y="184.6953"/><rect fill="#FFFFFF" height="171.7969" style="stroke:#181818;stroke-width:1.0;" width="10" x="938" y="213.8281"/><rect fill="#FFFFFF" height="307.1953" style="stroke:#181818;stroke-width:1.0;" width="10" x="1083.5" y="591.5547"/><rect fill="#FFFFFF" height="147.6641" style="stroke:#181818;stroke-width:1.0;" width="10" x="1189.5" y="414.7578"/><rect fill="#FFFFFF" height="248.9297" style="stroke:#181818;stroke-width:1.0;" width="10" x="1346" y="620.6875"/><rect fill="#FFFFFF" height="28" style="stroke:#181818;stroke-width:1.0;" width="10" x="1351" y="657.8203"/><rect fill="none" height="104.5313" style="stroke:#000000;stroke-width:1.5;" width="1020.5" x="20" y="252.9609"/><rect fill="none" height="104.5313" style="stroke:#000000;stroke-width:1.5;" width="1232.5" x="20" y="429.7578"/><rect fill="none" height="133.6641" style="stroke:#000000;stroke-width:1.5;" width="1439.5" x="20" y="707.8203"/><line style="stroke:#181818;stroke-width:0.5;stroke-dasharray:5.0,5.0;" x1="49" x2="49" y1="81.2969" y2="1052.2813"/><line style="stroke:#181818;stroke-width:0.5;stroke-dasharray:5.0,5.0;" x1="244.5" x2="244.5" y1="81.2969" y2="1052.2813"/><line style="stroke:#181818;stroke-width:0.5;stroke-dasharray:5.0,5.0;" x1="730.5" x2="730.5" y1="81.2969" y2="1052.2813"/><line style="stroke:#181818;stroke-width:0.5;stroke-dasharray:5.0,5.0;" x1="942.5" x2="942.5" y1="81.2969" y2="1052.2813"/><line style="stroke:#181818;stroke-width:0.5;stroke-dasharray:5.0,5.0;" x1="1088.5" x2="1088.5" y1="81.2969" y2="1052.2813"/><line style="stroke:#181818;stroke-width:0.5;stroke-dasharray:5.0,5.0;" x1="1194.5" x2="1194.5" y1="81.2969" y2="1052.2813"/><line style="stroke:#181818;stroke-width:0.5;stroke-dasharray:5.0,5.0;" x1="1350.5" x2="1350.5" y1="81.2969" y2="1052.2813"/><text fill="#000000" font-family="sans-serif" font-size="14" lengthAdjust="spacing" textLength="32" x="30" y="77.9951">User</text><ellipse cx="49" cy="13.5" fill="#E2E2F0" rx="8" ry="8" style="stroke:#181818;stroke-width:0.5;"/><path d="M49,21.5 L49,48.5 M36,29.5 L62,29.5 M49,48.5 L36,63.5 M49,48.5 L62,63.5 " fill="none" style="stroke:#181818;stroke-width:0.5;"/><text fill="#000000" font-family="sans-serif" font-size="14" lengthAdjust="spacing" textLength="32" x="30" y="1064.2764">User</text><ellipse cx="49" cy="1076.0781" fill="#E2E2F0" rx="8" ry="8" style="stroke:#181818;stroke-width:0.5;"/><path d="M49,1084.0781 L49,1111.0781 M36,1092.0781 L62,1092.0781 M49,1111.0781 L36,1126.0781 M49,1111.0781 L62,1126.0781 " fill="none" style="stroke:#181818;stroke-width:0.5;"/><rect fill="#E2E2F0" height="30.2969" rx="2.5" ry="2.5" style="stroke:#181818;stroke-width:0.5;" width="131" x="179.5" y="50"/><text fill="#000000" font-family="sans-serif" font-size="14" lengthAdjust="spacing" textLength="117" x="186.5" y="69.9951">Frontend (React)</text><rect fill="#E2E2F0" height="30.2969" rx="2.5" ry="2.5" style="stroke:#181818;stroke-width:0.5;" width="131" x="179.5" y="1051.2813"/><text fill="#000000" font-family="sans-serif" font-size="14" lengthAdjust="spacing" textLength="117" x="186.5" y="1071.2764">Frontend (React)</text><rect fill="#E2E2F0" height="46.5938" rx="2.5" ry="2.5" style="stroke:#181818;stroke-width:0.5;" width="125" x="668.5" y="33.7031"/><text fill="#000000" font-family="sans-serif" font-size="14" lengthAdjust="spacing" textLength="79" x="691.5" y="53.6982">/login route</text><text fill="#000000" font-family="sans-serif" font-size="14" lengthAdjust="spacing" textLength="111" x="675.5" y="69.9951">(Flask Blueprint)</text><rect fill="#E2E2F0" height="46.5938" rx="2.5" ry="2.5" style="stroke:#181818;stroke-width:0.5;" width="125" x="668.5" y="1051.2813"/><text fill="#000000" font-family="sans-serif" font-size="14" lengthAdjust="spacing" textLength="79" x="691.5" y="1071.2764">/login route</text><text fill="#000000" font-family="sans-serif" font-size="14" lengthAdjust="spacing" textLength="111" x="675.5" y="1087.5732">(Flask Blueprint)</text><rect fill="#E2E2F0" height="30.2969" rx="2.5" ry="2.5" style="stroke:#181818;stroke-width:0.5;" width="175" x="855.5" y="50"/><text fill="#000000" font-family="sans-serif" font-size="14" lengthAdjust="spacing" textLength="161" x="862.5" y="69.9951">EmailVerificationService</text><rect fill="#E2E2F0" height="30.2969" rx="2.5" ry="2.5" style="stroke:#181818;stroke-width:0.5;" width="175" x="855.5" y="1051.2813"/><text fill="#000000" font-family="sans-serif" font-size="14" lengthAdjust="spacing" textLength="161" x="862.5" y="1071.2764">EmailVerificationService</text><rect fill="#E2E2F0" height="30.2969" rx="2.5" ry="2.5" style="stroke:#181818;stroke-width:0.5;" width="96" x="1040.5" y="50"/><text fill="#000000" font-family="sans-serif" font-size="14" lengthAdjust="spacing" textLength="82" x="1047.5" y="69.9951">AuthService</text><rect fill="#E2E2F0" height="30.2969" rx="2.5" ry="2.5" style="stroke:#181818;stroke-width:0.5;" width="96" x="1040.5" y="1051.2813"/><text fill="#000000" font-family="sans-serif" font-size="14" lengthAdjust="spacing" textLength="82" x="1047.5" y="1071.2764">AuthService</text><rect fill="#E2E2F0" height="30.2969" rx="2.5" ry="2.5" style="stroke:#181818;stroke-width:0.5;" width="96" x="1146.5" y="50"/><text fill="#000000" font-family="sans-serif" font-size="14" lengthAdjust="spacing" textLength="82" x="1153.5" y="69.9951">UserService</text><rect fill="#E2E2F0" height="30.2969" rx="2.5" ry="2.5" style="stroke:#181818;stroke-width:0.5;" width="96" x="1146.5" y="1051.2813"/><text fill="#000000" font-family="sans-serif" font-size="14" lengthAdjust="spacing" textLength="82" x="1153.5" y="1071.2764">UserService</text><rect fill="#E2E2F0" height="46.5938" rx="2.5" ry="2.5" style="stroke:#181818;stroke-width:0.5;" width="197" x="1252.5" y="33.7031"/><text fill="#000000" font-family="sans-serif" font-size="14" lengthAdjust="spacing" textLength="127" x="1287.5" y="53.6982">User Model Object</text><text fill="#000000" font-family="sans-serif" font-size="14" lengthAdjust="spacing" textLength="183" x="1259.5" y="69.9951">(SQLAlchemy to Database)</text><rect fill="#E2E2F0" height="46.5938" rx="2.5" ry="2.5" style="stroke:#181818;stroke-width:0.5;" width="197" x="1252.5" y="1051.2813"/><text fill="#000000" font-family="sans-serif" font-size="14" lengthAdjust="spacing" textLength="127" x="1287.5" y="1071.2764">User Model Object</text><text fill="#000000" font-family="sans-serif" font-size="14" lengthAdjust="spacing" textLength="183" x="1259.5" y="1087.5732">(SQLAlchemy to Database)</text><rect fill="#FFFFFF" height="29.1328" style="stroke:#181818;stroke-width:1.0;" width="10" x="240" y="155.5625"/><rect fill="#FFFFFF" height="29.1328" style="stroke:#181818;stroke-width:1.0;" width="10" x="240" y="320.3594"/><rect fill="#FFFFFF" height="29.1328" style="stroke:#181818;stroke-width:1.0;" width="10" x="240" y="497.1563"/><rect fill="#FFFFFF" height="29.1328" style="stroke:#181818;stroke-width:1.0;" width="10" x="240" y="804.3516"/><rect fill="#FFFFFF" height="71.2656" style="stroke:#181818;stroke-width:1.0;" width="10" x="240" y="963.0156"/><rect fill="#FFFFFF" height="778.3203" style="stroke:#181818;stroke-width:1.0;" width="10" x="726" y="184.6953"/><rect fill="#FFFFFF" height="171.7969" style="stroke:#181818;stroke-width:1.0;" width="10" x="938" y="213.8281"/><rect fill="#FFFFFF" height="307.1953" style="stroke:#181818;stroke-width:1.0;" width="10" x="1083.5" y="591.5547"/><rect fill="#FFFFFF" height="147.6641" style="stroke:#181818;stroke-width:1.0;" width="10" x="1189.5" y="414.7578"/><rect fill="#FFFFFF" height="248.9297" style="stroke:#181818;stroke-width:1.0;" width="10" x="1346" y="620.6875"/><rect fill="#FFFFFF" height="28" style="stroke:#181818;stroke-width:1.0;" width="10" x="1351" y="657.8203"/><rect fill="#EEEEEE" height="3" style="stroke:#EEEEEE;stroke-width:1.0;" width="1589" x="0" y="111.8633"/><line style="stroke:#000000;stroke-width:1.0;" x1="0" x2="1589" y1="111.8633" y2="111.8633"/><line style="stroke:#000000;stroke-width:1.0;" x1="0" x2="1589" y1="114.8633" y2="114.8633"/><rect fill="#EEEEEE" height="23.1328" style="stroke:#000000;stroke-width:2.0;" width="249" x="670" y="101.2969"/><text fill="#000000" font-family="sans-serif" font-size="13" font-weight="bold" lengthAdjust="spacing" textLength="230" x="676" y="117.3638">Login Process (User Story #25)</text><polygon fill="#181818" points="228,151.5625,238,155.5625,228,159.5625,232,155.5625" style="stroke:#181818;stroke-width:1.0;"/><line style="stroke:#181818;stroke-width:1.0;" x1="49" x2="234" y1="155.5625" y2="155.5625"/><text fill="#000000" font-family="sans-serif" font-size="13" lengthAdjust="spacing" textLength="161" x="56" y="150.4966">Submits login credentials</text><polygon fill="#181818" points="714,180.6953,724,184.6953,714,188.6953,718,184.6953" style="stroke:#181818;stroke-width:1.0;"/><line style="stroke:#181818;stroke-width:1.0;" x1="245" x2="720" y1="184.6953" y2="184.6953"/><text fill="#000000" font-family="sans-serif" font-size="13" lengthAdjust="spacing" textLength="457" x="252" y="179.6294">HTTP Request: POST {email, plain_password, [user_agent, ip_address]}</text><polygon fill="#181818" points="926,209.8281,936,213.8281,926,217.8281,930,213.8281" style="stroke:#181818;stroke-width:1.0;"/><line style="stroke:#181818;stroke-width:1.0;" x1="736" x2="932" y1="213.8281" y2="213.8281"/><text fill="#000000" font-family="sans-serif" font-size="13" lengthAdjust="spacing" textLength="183" x="743" y="208.7622">is_email_format_valid(email)</text><path d="M20,252.9609 L84,252.9609 L84,260.0938 L74,270.0938 L20,270.0938 L20,252.9609 " fill="#EEEEEE" style="stroke:#000000;stroke-width:1.5;"/><rect fill="none" height="104.5313" style="stroke:#000000;stroke-width:1.5;" width="1020.5" x="20" y="252.9609"/><text fill="#000000" font-family="sans-serif" font-size="13" font-weight="bold" lengthAdjust="spacing" textLength="19" x="35" y="266.0278">alt</text><text fill="#000000" font-family="sans-serif" font-size="11" font-weight="bold" lengthAdjust="spacing" textLength="151" x="99" y="265.1714">[Email format not valid]</text><polygon fill="#181818" points="747,287.2266,737,291.2266,747,295.2266,743,291.2266" style="stroke:#181818;stroke-width:1.0;"/><line style="stroke:#181818;stroke-width:1.0;stroke-dasharray:2.0,2.0;" x1="741" x2="937" y1="291.2266" y2="291.2266"/><text fill="#000000" font-family="sans-serif" font-size="13" lengthAdjust="spacing" textLength="33" x="753" y="286.1606">False</text><polygon fill="#181818" points="261,316.3594,251,320.3594,261,324.3594,257,320.3594" style="stroke:#181818;stroke-width:1.0;"/><line style="stroke:#181818;stroke-width:1.0;stroke-dasharray:2.0,2.0;" x1="255" x2="725" y1="320.3594" y2="320.3594"/><text fill="#000000" font-family="sans-serif" font-size="13" lengthAdjust="spacing" textLength="200" x="267" y="315.2935">HTTP Response: 404 Not Found</text><polygon fill="#181818" points="60,345.4922,50,349.4922,60,353.4922,56,349.4922" style="stroke:#181818;stroke-width:1.0;"/><line style="stroke:#181818;stroke-width:1.0;stroke-dasharray:2.0,2.0;" x1="54" x2="244" y1="349.4922" y2="349.4922"/><text fill="#000000" font-family="sans-serif" font-size="13" lengthAdjust="spacing" textLength="167" x="66" y="344.4263">Error: credentials not valid</text><polygon fill="#181818" points="747,381.625,737,385.625,747,389.625,743,385.625" style="stroke:#181818;stroke-width:1.0;"/><line style="stroke:#181818;stroke-width:1.0;stroke-dasharray:2.0,2.0;" x1="741" x2="942" y1="385.625" y2="385.625"/><text fill="#000000" font-family="sans-serif" font-size="13" lengthAdjust="spacing" textLength="28" x="753" y="380.5591">True</text><polygon fill="#181818" points="1177.5,410.7578,1187.5,414.7578,1177.5,418.7578,1181.5,414.7578" style="stroke:#181818;stroke-width:1.0;"/><line style="stroke:#181818;stroke-width:1.0;" x1="736" x2="1183.5" y1="414.7578" y2="414.7578"/><text fill="#000000" font-family="sans-serif" font-size="13" lengthAdjust="spacing" textLength="179" x="743" y="409.6919">query_users_by_mail(email)</text><path d="M20,429.7578 L84,429.7578 L84,436.8906 L74,446.8906 L20,446.8906 L20,429.7578 " fill="#EEEEEE" style="stroke:#000000;stroke-width:1.5;"/><rect fill="none" height="104.5313" style="stroke:#000000;stroke-width:1.5;" width="1232.5" x="20" y="429.7578"/><text fill="#000000" font-family="sans-serif" font-size="13" font-weight="bold" lengthAdjust="spacing" textLength="19" x="35" y="442.8247">alt</text><text fill="#000000" font-family="sans-serif" font-size="11" font-weight="bold" lengthAdjust="spacing" textLength="271" x="99" y="441.9683">[Unverified Mail does not exist or expired]</text><polygon fill="#181818" points="747,464.0234,737,468.0234,747,472.0234,743,468.0234" style="stroke:#181818;stroke-width:1.0;"/><line style="stroke:#181818;stroke-width:1.0;stroke-dasharray:2.0,2.0;" x1="741" x2="1188.5" y1="468.0234" y2="468.0234"/><text fill="#000000" font-family="sans-serif" font-size="13" lengthAdjust="spacing" textLength="34" x="753" y="462.9575">None</text><polygon fill="#181818" points="261,493.1563,251,497.1563,261,501.1563,257,497.1563" style="stroke:#181818;stroke-width:1.0;"/><line style="stroke:#181818;stroke-width:1.0;stroke-dasharray:2.0,2.0;" x1="255" x2="725" y1="497.1563" y2="497.1563"/><text fill="#000000" font-family="sans-serif" font-size="13" lengthAdjust="spacing" textLength="200" x="267" y="492.0903">HTTP Response: 404 Not Found</text><polygon fill="#181818" points="60,522.2891,50,526.2891,60,530.2891,56,526.2891" style="stroke:#181818;stroke-width:1.0;"/><line style="stroke:#181818;stroke-width:1.0;stroke-dasharray:2.0,2.0;" x1="54" x2="244" y1="526.2891" y2="526.2891"/><text fill="#000000" font-family="sans-serif" font-size="13" lengthAdjust="spacing" textLength="167" x="66" y="521.2231">Error: credentials not valid</text><polygon fill="#181818" points="747,558.4219,737,562.4219,747,566.4219,743,562.4219" style="stroke:#181818;stroke-width:1.0;"/><line style="stroke:#181818;stroke-width:1.0;stroke-dasharray:2.0,2.0;" x1="741" x2="1193.5" y1="562.4219" y2="562.4219"/><text fill="#000000" font-family="sans-serif" font-size="13" lengthAdjust="spacing" textLength="73" x="753" y="557.356">User object</text><polygon fill="#181818" points="1071.5,587.5547,1081.5,591.5547,1071.5,595.5547,1075.5,591.5547" style="stroke:#181818;stroke-width:1.0;"/><line style="stroke:#181818;stroke-width:1.0;" x1="736" x2="1077.5" y1="591.5547" y2="591.5547"/><text fill="#000000" font-family="sans-serif" font-size="13" lengthAdjust="spacing" textLength="244" x="743" y="586.4888">verify_password(user, plain_password)</text><polygon fill="#181818" points="1334,616.6875,1344,620.6875,1334,624.6875,1338,620.6875" style="stroke:#181818;stroke-width:1.0;"/><line style="stroke:#181818;stroke-width:1.0;" x1="1093.5" x2="1340" y1="620.6875" y2="620.6875"/><text fill="#000000" font-family="sans-serif" font-size="13" lengthAdjust="spacing" textLength="208" x="1100.5" y="615.6216">verify_password(plain_password)</text><line style="stroke:#181818;stroke-width:1.0;" x1="1361" x2="1403" y1="649.8203" y2="649.8203"/><line style="stroke:#181818;stroke-width:1.0;" x1="1403" x2="1403" y1="649.8203" y2="662.8203"/><line style="stroke:#181818;stroke-width:1.0;" x1="1362" x2="1403" y1="662.8203" y2="662.8203"/><polygon fill="#181818" points="1372,658.8203,1362,662.8203,1372,666.8203,1368,662.8203" style="stroke:#181818;stroke-width:1.0;"/><text fill="#000000" font-family="sans-serif" font-size="13" lengthAdjust="spacing" textLength="199" x="1368" y="644.7544">__hash_secret(plain_password)</text><path d="M20,707.8203 L84,707.8203 L84,714.9531 L74,724.9531 L20,724.9531 L20,707.8203 " fill="#EEEEEE" style="stroke:#000000;stroke-width:1.5;"/><rect fill="none" height="133.6641" style="stroke:#000000;stroke-width:1.5;" width="1439.5" x="20" y="707.8203"/><text fill="#000000" font-family="sans-serif" font-size="13" font-weight="bold" lengthAdjust="spacing" textLength="19" x="35" y="720.8872">alt</text><text fill="#000000" font-family="sans-serif" font-size="11" font-weight="bold" lengthAdjust="spacing" textLength="175" x="99" y="720.0308">[Password does not match]</text><polygon fill="#181818" points="1104.5,742.0859,1094.5,746.0859,1104.5,750.0859,1100.5,746.0859" style="stroke:#181818;stroke-width:1.0;"/><line style="stroke:#181818;stroke-width:1.0;stroke-dasharray:2.0,2.0;" x1="1098.5" x2="1345" y1="746.0859" y2="746.0859"/><text fill="#000000" font-family="sans-serif" font-size="13" lengthAdjust="spacing" textLength="33" x="1110.5" y="741.02">False</text><polygon fill="#181818" points="747,771.2188,737,775.2188,747,779.2188,743,775.2188" style="stroke:#181818;stroke-width:1.0;"/><line style="stroke:#181818;stroke-width:1.0;stroke-dasharray:2.0,2.0;" x1="741" x2="1082.5" y1="775.2188" y2="775.2188"/><text fill="#000000" font-family="sans-serif" font-size="13" lengthAdjust="spacing" textLength="33" x="753" y="770.1528">False</text><polygon fill="#181818" points="261,800.3516,251,804.3516,261,808.3516,257,804.3516" style="stroke:#181818;stroke-width:1.0;"/><line style="stroke:#181818;stroke-width:1.0;stroke-dasharray:2.0,2.0;" x1="255" x2="725" y1="804.3516" y2="804.3516"/><text fill="#000000" font-family="sans-serif" font-size="13" lengthAdjust="spacing" textLength="200" x="267" y="799.2856">HTTP Response: 404 Not Found</text><polygon fill="#181818" points="60,829.4844,50,833.4844,60,837.4844,56,833.4844" style="stroke:#181818;stroke-width:1.0;"/><line style="stroke:#181818;stroke-width:1.0;stroke-dasharray:2.0,2.0;" x1="54" x2="244" y1="833.4844" y2="833.4844"/><text fill="#000000" font-family="sans-serif" font-size="13" lengthAdjust="spacing" textLength="167" x="66" y="828.4185">Error: credentials not valid</text><polygon fill="#181818" points="1104.5,865.6172,1094.5,869.6172,1104.5,873.6172,1100.5,869.6172" style="stroke:#181818;stroke-width:1.0;"/><line style="stroke:#181818;stroke-width:1.0;stroke-dasharray:2.0,2.0;" x1="1098.5" x2="1350" y1="869.6172" y2="869.6172"/><text fill="#000000" font-family="sans-serif" font-size="13" lengthAdjust="spacing" textLength="28" x="1110.5" y="864.5513">True</text><polygon fill="#181818" points="747,894.75,737,898.75,747,902.75,743,898.75" style="stroke:#181818;stroke-width:1.0;"/><line style="stroke:#181818;stroke-width:1.0;stroke-dasharray:2.0,2.0;" x1="741" x2="1087.5" y1="898.75" y2="898.75"/><text fill="#000000" font-family="sans-serif" font-size="13" lengthAdjust="spacing" textLength="28" x="753" y="893.6841">True</text><path d="M741,911.75 L741,936.75 L1004,936.75 L1004,921.75 L994,911.75 L741,911.75 " fill="#FEFFDD" style="stroke:#181818;stroke-width:0.5;"/><path d="M994,911.75 L994,921.75 L1004,921.75 L994,911.75 " fill="#FEFFDD" style="stroke:#181818;stroke-width:0.5;"/><text fill="#000000" font-family="sans-serif" font-size="13" lengthAdjust="spacing" textLength="242" x="747" y="928.8169">Create JWT: see sep. generic diagram.</text><polygon fill="#181818" points="261,959.0156,251,963.0156,261,967.0156,257,963.0156" style="stroke:#181818;stroke-width:1.0;"/><line style="stroke:#181818;stroke-width:1.0;stroke-dasharray:2.0,2.0;" x1="255" x2="730" y1="963.0156" y2="963.0156"/><text fill="#000000" font-family="sans-serif" font-size="13" lengthAdjust="spacing" textLength="317" x="267" y="957.9497">HTTP Response: 200 OK {access_jwt, refresh_jwt}</text><line style="stroke:#181818;stroke-width:1.0;" x1="250" x2="292" y1="992.1484" y2="992.1484"/><line style="stroke:#181818;stroke-width:1.0;" x1="292" x2="292" y1="992.1484" y2="1005.1484"/><line style="stroke:#181818;stroke-width:1.0;" x1="251" x2="292" y1="1005.1484" y2="1005.1484"/><polygon fill="#181818" points="261,1001.1484,251,1005.1484,261,1009.1484,257,1005.1484" style="stroke:#181818;stroke-width:1.0;"/><text fill="#000000" font-family="sans-serif" font-size="13" lengthAdjust="spacing" textLength="332" x="257" y="987.0825">store access_jwt and refresh_jwt in HTTP only cookie</text><polygon fill="#181818" points="60,1030.2813,50,1034.2813,60,1038.2813,56,1034.2813" style="stroke:#181818;stroke-width:1.0;"/><line style="stroke:#181818;stroke-width:1.0;stroke-dasharray:2.0,2.0;" x1="54" x2="244" y1="1034.2813" y2="1034.2813"/><text fill="#000000" font-family="sans-serif" font-size="13" lengthAdjust="spacing" textLength="95" x="66" y="1029.2153">Success: Login</text><!--SRC=[pPLHRzCm4CVVyobEuwMJjZ5DuoMYI0LQ8MXPQHfu06IvphNnbjh1ThfL4z-TizDjJZVsl4gH4j_TttS_dwzSE6tW8BTe3e1R6DIrVqzgRfmKikRAmS78QELG5T2R8HVkC7YEXbsdrvLUIGL6Dmv_gTweulOAtbSDraQgNSnureqPhhcilgEHIocuarfbQ3PIO70UPbtdGUFAs3xOi_kyOtl-X1qcki0ABXQNA1nbcNqR3ofHudeBJiD7xlY2MsoJpIT9qk_3E9GrDLgWjT0BAXb1syAhipU7qEydEsPm_8wWf90rYxLq5beUmc21oabUsOJOoGrtwDcDXjv_F8CKFitdKvZXdmQjIs5waStX5ZsP8wWhBXMhkRNNsXH7yBEXZHXVaU8Ho9hneZ2Krk-_IO6n-lqx4QSzQATXHZj9ou8mMsgpvevjU2MBNbWwV8WXyBno_e5mGD1wWz8EGaG2z2FPjyV7hUw8giEmIcNvrRWkMsjbCONpqtFuIX8ZtQXM8ixOVz-1z0eabCBG66tIcE5U4jsggKMJEAsvQJ06GuMrC79l9TvcopnGonPRvYjzX28FA21Ncz2aMC340oaqjfdWZRGEw0RXJIqfovXCsEIhLYyBJCWgYEbm2M8- -HsVWNSA9M_lcw_dIUrtP8IAhYE5URYJ9uB_6qQtZ0BkmXWhkIsPHQhCFHiKfpq9XpJT-JsS3ZMjA5k0MLlyfDEiEoI35zR2SRBxBKornbdlc-aGI1t1o5L9VRbig_XWq1i__vYdO17fgK-0PWYTaO12yfNXwvFacRhFJa_XuWlSSk678BkyfkbZS4cZf_GVdUb34-Vnd0ieB4rDX0SDuFIN4ia0ZSkmiLRL5eJMLnAJHq2p9WYaxM3kphr_]--></g></svg>