<?xml version="1.0" encoding="us-ascii" standalone="no"?><svg xmlns="http://www.w3.org/2000/svg" xmlns:xlink="http://www.w3.org/1999/xlink" contentStyleType="text/css" height="376px" preserveAspectRatio="none" style="width:955px;height:376px;background:#FFFFFF;" version="1.1" viewBox="0 0 955 376" width="955px" zoomAndPan="magnify"><defs/><g><rect fill="#FFFFFF" height="29.1328" style="stroke:#181818;stroke-width:1.0;" width="10" x="252" y="155.5625"/><rect fill="#FFFFFF" height="29.1328" style="stroke:#181818;stroke-width:1.0;" width="10" x="252" y="248.9609"/><rect fill="#FFFFFF" height="64.2656" style="stroke:#181818;stroke-width:1.0;" width="10" x="666" y="184.6953"/><line style="stroke:#181818;stroke-width:0.5;stroke-dasharray:5.0,5.0;" x1="24" x2="24" y1="81.2969" y2="296.0938"/><line style="stroke:#181818;stroke-width:0.5;stroke-dasharray:5.0,5.0;" x1="256.5" x2="256.5" y1="81.2969" y2="296.0938"/><line style="stroke:#181818;stroke-width:0.5;stroke-dasharray:5.0,5.0;" x1="671" x2="671" y1="81.2969" y2="296.0938"/><text fill="#000000" font-family="sans-serif" font-size="14" lengthAdjust="spacing" textLength="32" x="5" y="77.9951">User</text><ellipse cx="24" cy="13.5" fill="#E2E2F0" rx="8" ry="8" style="stroke:#181818;stroke-width:0.5;"/><path d="M24,21.5 L24,48.5 M11,29.5 L37,29.5 M24,48.5 L11,63.5 M24,48.5 L37,63.5 " fill="none" style="stroke:#181818;stroke-width:0.5;"/><text fill="#000000" font-family="sans-serif" font-size="14" lengthAdjust="spacing" textLength="32" x="5" y="308.0889">User</text><ellipse cx="24" cy="319.8906" fill="#E2E2F0" rx="8" ry="8" style="stroke:#181818;stroke-width:0.5;"/><path d="M24,327.8906 L24,354.8906 M11,335.8906 L37,335.8906 M24,354.8906 L11,369.8906 M24,354.8906 L37,369.8906 " fill="none" style="stroke:#181818;stroke-width:0.5;"/><rect fill="#E2E2F0" height="30.2969" rx="2.5" ry="2.5" style="stroke:#181818;stroke-width:0.5;" width="131" x="191.5" y="50"/><text fill="#000000" font-family="sans-serif" font-size="14" lengthAdjust="spacing" textLength="117" x="198.5" y="69.9951">Frontend (React)</text><rect fill="#E2E2F0" height="30.2969" rx="2.5" ry="2.5" style="stroke:#181818;stroke-width:0.5;" width="131" x="191.5" y="295.0938"/><text fill="#000000" font-family="sans-serif" font-size="14" lengthAdjust="spacing" textLength="117" x="198.5" y="315.0889">Frontend (React)</text><rect fill="#E2E2F0" height="46.5938" rx="2.5" ry="2.5" style="stroke:#181818;stroke-width:0.5;" width="186" x="578" y="33.7031"/><text fill="#000000" font-family="sans-serif" font-size="14" lengthAdjust="spacing" textLength="172" x="585" y="53.6982">/api/v1/auth/logout route</text><text fill="#000000" font-family="sans-serif" font-size="14" lengthAdjust="spacing" textLength="111" x="615.5" y="69.9951">(Flask Blueprint)</text><rect fill="#E2E2F0" height="46.5938" rx="2.5" ry="2.5" style="stroke:#181818;stroke-width:0.5;" width="186" x="578" y="295.0938"/><text fill="#000000" font-family="sans-serif" font-size="14" lengthAdjust="spacing" textLength="172" x="585" y="315.0889">/api/v1/auth/logout route</text><text fill="#000000" font-family="sans-serif" font-size="14" lengthAdjust="spacing" textLength="111" x="615.5" y="331.3857">(Flask Blueprint)</text><rect fill="#FFFFFF" height="29.1328" style="stroke:#181818;stroke-width:1.0;" width="10" x="252" y="155.5625"/><rect fill="#FFFFFF" height="29.1328" style="stroke:#181818;stroke-width:1.0;" width="10" x="252" y="248.9609"/><rect fill="#FFFFFF" height="64.2656" style="stroke:#181818;stroke-width:1.0;" width="10" x="666" y="184.6953"/><rect fill="#EEEEEE" height="3" style="stroke:#EEEEEE;stroke-width:1.0;" width="948" x="0" y="111.8633"/><line style="stroke:#000000;stroke-width:1.0;" x1="0" x2="948" y1="111.8633" y2="111.8633"/><line style="stroke:#000000;stroke-width:1.0;" x1="0" x2="948" y1="114.8633" y2="114.8633"/><rect fill="#EEEEEE" height="23.1328" style="stroke:#000000;stroke-width:2.0;" width="260" x="344" y="101.2969"/><text fill="#000000" font-family="sans-serif" font-size="13" font-weight="bold" lengthAdjust="spacing" textLength="241" x="350" y="117.3638">Logout Process (User Story #26)</text><polygon fill="#181818" points="240,151.5625,250,155.5625,240,159.5625,244,155.5625" style="stroke:#181818;stroke-width:1.0;"/><line style="stroke:#181818;stroke-width:1.0;" x1="24" x2="246" y1="155.5625" y2="155.5625"/><text fill="#000000" font-family="sans-serif" font-size="13" lengthAdjust="spacing" textLength="126" x="31" y="150.4966">Clicks logout button</text><polygon fill="#181818" points="654,180.6953,664,184.6953,654,188.6953,658,184.6953" style="stroke:#181818;stroke-width:1.0;"/><line style="stroke:#181818;stroke-width:1.0;" x1="257" x2="660" y1="184.6953" y2="184.6953"/><text fill="#000000" font-family="sans-serif" font-size="13" lengthAdjust="spacing" textLength="385" x="264" y="179.6294">HTTP Request: POST {access_jwt, [user_agent, ip_address]}</text><path d="M681,197.6953 L681,222.6953 L943,222.6953 L943,207.6953 L933,197.6953 L681,197.6953 " fill="#FEFFDD" style="stroke:#181818;stroke-width:0.5;"/><path d="M933,197.6953 L933,207.6953 L943,207.6953 L933,197.6953 " fill="#FEFFDD" style="stroke:#181818;stroke-width:0.5;"/><text fill="#000000" font-family="sans-serif" font-size="13" lengthAdjust="spacing" textLength="241" x="687" y="214.7622">Revoke JWT: see sep. generic diagram</text><polygon fill="#181818" points="273,244.9609,263,248.9609,273,252.9609,269,248.9609" style="stroke:#181818;stroke-width:1.0;"/><line style="stroke:#181818;stroke-width:1.0;stroke-dasharray:2.0,2.0;" x1="267" x2="670" y1="248.9609" y2="248.9609"/><text fill="#000000" font-family="sans-serif" font-size="13" lengthAdjust="spacing" textLength="152" x="279" y="243.895">HTTP Response: 200 OK</text><polygon fill="#181818" points="35,274.0938,25,278.0938,35,282.0938,31,278.0938" style="stroke:#181818;stroke-width:1.0;"/><line style="stroke:#181818;stroke-width:1.0;stroke-dasharray:2.0,2.0;" x1="29" x2="256" y1="278.0938" y2="278.0938"/><text fill="#000000" font-family="sans-serif" font-size="13" lengthAdjust="spacing" textLength="204" x="41" y="273.0278">Success, redirects to login page</text><!--SRC=[NP11ImCn48Nl-oiUzT92wzOUF2oke68HBRHiLpoeb9WTjx4rYSbiHSJ_Rh9MQJqap2IFzxuP8TauT6uzkGw4HomIAnmhgQpGZCxO6SsaAtGB4f9xhMnykIzAXLNfvYWL3I_JjQbDmt3XeWVT7Q-5N-5ytP1rIcyDpYQcI98yn-H7F7D6alVeHW3C0zG73aR7FUHvqZuDJaCeCboibLnvR3EU6cQZay2bDe8fSWLLq4R_eBugonaAUcl8SuRPT5xYKyYOj7Xvvpxkc-2z43Nfq2Yx45NbmkVZLrBHhkbVtN9h4ogdwYN3FFz65RGnAyBrNPd14uLZ3n6CoIc9IedQYTS8Tp8O_AFprcXF6KR38QOtkybjsYv7kuheqEvYthIZzE6eKeuaUx29gr4QDWorFyGt]--></g></svg>