<svg xmlns="http://www.w3.org/2000/svg" xmlns:xlink="http://www.w3.org/1999/xlink" contentStyleType="text/css" height="665px" preserveAspectRatio="none" style="width:1028px;height:665px;background:#FFFFFF;" version="1.1" viewBox="0 0 1028 665" width="1028px" zoomAndPan="magnify"><defs/><g><rect fill="#FFFFFF" height="495.9102" style="stroke:#181818;stroke-width:1.0;" width="10" x="57.9585" y="85.8633"/><rect fill="#FFFFFF" height="418.3281" style="stroke:#181818;stroke-width:1.0;" width="10" x="370.02" y="154.4453"/><rect fill="#FFFFFF" height="222.1641" style="stroke:#181818;stroke-width:1.0;" width="10" x="375.02" y="193.7363"/><rect fill="#FFFFFF" height="28" style="stroke:#181818;stroke-width:1.0;" width="10" x="380.02" y="238.0273"/><rect fill="#FFFFFF" height="72.291" style="stroke:#181818;stroke-width:1.0;" width="10" x="375.02" y="462.1914"/><rect fill="#FFFFFF" height="28" style="stroke:#181818;stroke-width:1.0;" width="10" x="380.02" y="506.4824"/><rect fill="#FFFFFF" height="67.291" style="stroke:#181818;stroke-width:1.0;" width="10" x="824.584" y="304.3184"/><rect fill="#FFFFFF" height="28" style="stroke:#181818;stroke-width:1.0;" width="10" x="829.584" y="343.6094"/><line style="stroke:#181818;stroke-width:0.5;stroke-dasharray:5.0,5.0;" x1="62" x2="62" y1="75.8633" y2="590.7734"/><line style="stroke:#181818;stroke-width:0.5;stroke-dasharray:5.0,5.0;" x1="374.2788" x2="374.2788" y1="75.8633" y2="590.7734"/><line style="stroke:#181818;stroke-width:0.5;stroke-dasharray:5.0,5.0;" x1="829.0015" x2="829.0015" y1="75.8633" y2="590.7734"/><rect fill="#E2E2F0" height="51.2422" rx="2.5" ry="2.5" style="stroke:#181818;stroke-width:0.5;" width="115.917" x="5" y="23.6211"/><text fill="#000000" font-family="sans-serif" font-size="14" lengthAdjust="spacing" textLength="70.041" x="27.938" y="45.7285">/[any] route</text><text fill="#000000" font-family="sans-serif" font-size="14" lengthAdjust="spacing" textLength="101.917" x="12" y="64.3496">(Flask Blueprint)</text><rect fill="#E2E2F0" height="51.2422" rx="2.5" ry="2.5" style="stroke:#181818;stroke-width:0.5;" width="115.917" x="5" y="589.7734"/><text fill="#000000" font-family="sans-serif" font-size="14" lengthAdjust="spacing" textLength="70.041" x="27.938" y="611.8809">/[any] route</text><text fill="#000000" font-family="sans-serif" font-size="14" lengthAdjust="spacing" textLength="101.917" x="12" y="630.502">(Flask Blueprint)</text><rect fill="#E2E2F0" height="32.6211" rx="2.5" ry="2.5" style="stroke:#181818;stroke-width:0.5;" width="89.4824" x="330.2788" y="42.2422"/><text fill="#000000" font-family="sans-serif" font-size="14" lengthAdjust="spacing" textLength="75.4824" x="337.2788" y="64.3496">AuthService</text><rect fill="#E2E2F0" height="32.6211" rx="2.5" ry="2.5" style="stroke:#181818;stroke-width:0.5;" width="89.4824" x="330.2788" y="589.7734"/><text fill="#000000" font-family="sans-serif" font-size="14" lengthAdjust="spacing" textLength="75.4824" x="337.2788" y="611.8809">AuthService</text><rect fill="#E2E2F0" height="69.8633" rx="2.5" ry="2.5" style="stroke:#181818;stroke-width:0.5;" width="199.165" x="730.0015" y="5"/><text fill="#000000" font-family="sans-serif" font-size="14" lengthAdjust="spacing" textLength="185.165" x="737.0015" y="27.1074">WhitelistedJWTRefreshToken</text><text fill="#000000" font-family="sans-serif" font-size="14" lengthAdjust="spacing" textLength="82.4824" x="788.3428" y="45.7285">Model Object</text><text fill="#000000" font-family="sans-serif" font-size="14" lengthAdjust="spacing" textLength="170.4063" x="744.3809" y="64.3496">(SQLAlchemy to Database)</text><rect fill="#E2E2F0" height="69.8633" rx="2.5" ry="2.5" style="stroke:#181818;stroke-width:0.5;" width="199.165" x="730.0015" y="589.7734"/><text fill="#000000" font-family="sans-serif" font-size="14" lengthAdjust="spacing" textLength="185.165" x="737.0015" y="611.8809">WhitelistedJWTRefreshToken</text><text fill="#000000" font-family="sans-serif" font-size="14" lengthAdjust="spacing" textLength="82.4824" x="788.3428" y="630.502">Model Object</text><text fill="#000000" font-family="sans-serif" font-size="14" lengthAdjust="spacing" textLength="170.4063" x="744.3809" y="649.123">(SQLAlchemy to Database)</text><rect fill="#FFFFFF" height="495.9102" style="stroke:#181818;stroke-width:1.0;" width="10" x="57.9585" y="85.8633"/><rect fill="#FFFFFF" height="418.3281" style="stroke:#181818;stroke-width:1.0;" width="10" x="370.02" y="154.4453"/><rect fill="#FFFFFF" height="222.1641" style="stroke:#181818;stroke-width:1.0;" width="10" x="375.02" y="193.7363"/><rect fill="#FFFFFF" height="28" style="stroke:#181818;stroke-width:1.0;" width="10" x="380.02" y="238.0273"/><rect fill="#FFFFFF" height="72.291" style="stroke:#181818;stroke-width:1.0;" width="10" x="375.02" y="462.1914"/><rect fill="#FFFFFF" height="28" style="stroke:#181818;stroke-width:1.0;" width="10" x="380.02" y="506.4824"/><rect fill="#FFFFFF" height="67.291" style="stroke:#181818;stroke-width:1.0;" width="10" x="824.584" y="304.3184"/><rect fill="#FFFFFF" height="28" style="stroke:#181818;stroke-width:1.0;" width="10" x="829.584" y="343.6094"/><rect fill="#EEEEEE" height="3" style="stroke:#EEEEEE;stroke-width:1.0;" width="1021.1011" x="0" y="107.5088"/><line style="stroke:#000000;stroke-width:1.0;" x1="0" x2="1021.1011" y1="107.5088" y2="107.5088"/><line style="stroke:#000000;stroke-width:1.0;" x1="0" x2="1021.1011" y1="110.5088" y2="110.5088"/><rect fill="#EEEEEE" height="25.291" style="stroke:#000000;stroke-width:2.0;" width="149.8145" x="435.6433" y="95.8633"/><text fill="#000000" font-family="sans-serif" font-size="13" font-weight="bold" lengthAdjust="spacing" textLength="132.2026" x="441.6433" y="113.8916">(Generic) Create JWT</text><polygon fill="#181818" points="358.02,150.4453,368.02,154.4453,358.02,158.4453,362.02,154.4453" style="stroke:#181818;stroke-width:1.0;"/><line style="stroke:#181818;stroke-width:1.0;" x1="67.9585" x2="364.02" y1="154.4453" y2="154.4453"/><text fill="#000000" font-family="sans-serif" font-size="13" lengthAdjust="spacing" textLength="236.2915" x="74.9585" y="149.1826">create_jwt(user, user_agent, ip_address)</text><line style="stroke:#181818;stroke-width:1.0;" x1="380.02" x2="427.02" y1="180.7363" y2="180.7363"/><line style="stroke:#181818;stroke-width:1.0;" x1="427.02" x2="427.02" y1="180.7363" y2="193.7363"/><line style="stroke:#181818;stroke-width:1.0;" x1="386.02" x2="427.02" y1="193.7363" y2="193.7363"/><polygon fill="#181818" points="396.02,189.7363,386.02,193.7363,396.02,197.7363,392.02,193.7363" style="stroke:#181818;stroke-width:1.0;"/><text fill="#000000" font-family="sans-serif" font-size="13" lengthAdjust="spacing" textLength="190.0171" x="392.02" y="175.4736">__create_refresh_jwt(user: User)</text><line style="stroke:#181818;stroke-width:1.0;" x1="390.02" x2="432.02" y1="230.0273" y2="230.0273"/><line style="stroke:#181818;stroke-width:1.0;" x1="432.02" x2="432.02" y1="230.0273" y2="243.0273"/><line style="stroke:#181818;stroke-width:1.0;" x1="391.02" x2="432.02" y1="243.0273" y2="243.0273"/><polygon fill="#181818" points="401.02,239.0273,391.02,243.0273,401.02,247.0273,397.02,243.0273" style="stroke:#181818;stroke-width:1.0;"/><text fill="#000000" font-family="sans-serif" font-size="13" lengthAdjust="spacing" textLength="152.4644" x="397.02" y="224.7646">__encode_jwt(refresh_jwt)</text><polygon fill="#181818" points="812.584,300.3184,822.584,304.3184,812.584,308.3184,816.584,304.3184" style="stroke:#181818;stroke-width:1.0;"/><line style="stroke:#181818;stroke-width:1.0;" x1="385.02" x2="818.584" y1="304.3184" y2="304.3184"/><text fill="#000000" font-family="sans-serif" font-size="13" lengthAdjust="spacing" textLength="420.564" x="392.02" y="299.0557">new(refres_jti, encoded_refresh_jwt, user_agent, ip_address, expires_at)</text><line style="stroke:#181818;stroke-width:1.0;" x1="839.584" x2="881.584" y1="335.6094" y2="335.6094"/><line style="stroke:#181818;stroke-width:1.0;" x1="881.584" x2="881.584" y1="335.6094" y2="348.6094"/><line style="stroke:#181818;stroke-width:1.0;" x1="840.584" x2="881.584" y1="348.6094" y2="348.6094"/><polygon fill="#181818" points="850.584,344.6094,840.584,348.6094,850.584,352.6094,846.584,348.6094" style="stroke:#181818;stroke-width:1.0;"/><text fill="#000000" font-family="sans-serif" font-size="13" lengthAdjust="spacing" textLength="157.5171" x="846.584" y="330.3467">__hash_secret(refresh_jwt)</text><line style="stroke:#181818;stroke-width:1.0;stroke-dasharray:2.0,2.0;" x1="328.02" x2="374.02" y1="414.9004" y2="414.9004"/><line style="stroke:#181818;stroke-width:1.0;stroke-dasharray:2.0,2.0;" x1="328.02" x2="328.02" y1="414.9004" y2="427.9004"/><line style="stroke:#181818;stroke-width:1.0;stroke-dasharray:2.0,2.0;" x1="328.02" x2="368.02" y1="427.9004" y2="427.9004"/><polygon fill="#181818" points="358.02,423.9004,368.02,427.9004,358.02,431.9004,362.02,427.9004" style="stroke:#181818;stroke-width:1.0;"/><text fill="#000000" font-family="sans-serif" font-size="13" lengthAdjust="spacing" textLength="268.0615" x="94.9585" y="409.6377">Tuple[refresh_jti: str, encoded_refresh_jwt: str]</text><line style="stroke:#181818;stroke-width:1.0;" x1="380.02" x2="427.02" y1="449.1914" y2="449.1914"/><line style="stroke:#181818;stroke-width:1.0;" x1="427.02" x2="427.02" y1="449.1914" y2="462.1914"/><line style="stroke:#181818;stroke-width:1.0;" x1="386.02" x2="427.02" y1="462.1914" y2="462.1914"/><polygon fill="#181818" points="396.02,458.1914,386.02,462.1914,396.02,466.1914,392.02,462.1914" style="stroke:#181818;stroke-width:1.0;"/><text fill="#000000" font-family="sans-serif" font-size="13" lengthAdjust="spacing" textLength="219.6479" x="392.02" y="443.9287">__create_access_jwt(user, refresh_jti)</text><line style="stroke:#181818;stroke-width:1.0;" x1="390.02" x2="432.02" y1="498.4824" y2="498.4824"/><line style="stroke:#181818;stroke-width:1.0;" x1="432.02" x2="432.02" y1="498.4824" y2="511.4824"/><line style="stroke:#181818;stroke-width:1.0;" x1="391.02" x2="432.02" y1="511.4824" y2="511.4824"/><polygon fill="#181818" points="401.02,507.4824,391.02,511.4824,401.02,515.4824,397.02,511.4824" style="stroke:#181818;stroke-width:1.0;"/><text fill="#000000" font-family="sans-serif" font-size="13" lengthAdjust="spacing" textLength="152.4644" x="397.02" y="493.2197">__encode_jwt(access_jwt)</text><polygon fill="#181818" points="78.9585,568.7734,68.9585,572.7734,78.9585,576.7734,74.9585,572.7734" style="stroke:#181818;stroke-width:1.0;"/><line style="stroke:#181818;stroke-width:1.0;stroke-dasharray:2.0,2.0;" x1="72.9585" x2="374.02" y1="572.7734" y2="572.7734"/><text fill="#000000" font-family="sans-serif" font-size="13" lengthAdjust="spacing" textLength="174.1226" x="84.9585" y="567.5107">Tuple[access_jwt, refresh_jwt]</text><!--SRC=[ZP5RIyD048NVyok6FhNGudinGbGKn28cbJoqicmtezasRiBkfBN_tcdJo_QABml3p7VcdDbAMj9ALz8Gj6v6qYm_mPOruTYqdmhfPd1Vr5XPRQZJ0kaWYeFAPwAQyWJjN2ji-ibXFyqrOQ4TOVQI3cFyikZoOJb3CpQ3CiC2tYPJLCJxalVNg50v_Yo1IdYK92VIORCs7GH164Bx6GrQhJhmO54I0cj260PIaPwlQhONnT2xOn_G1xKU4jC5jMk7jWkhLyXlDDG5NGcPPMp7TJm-2PZSya9i56pZUwVKXmz-ht1e58TRptli8P3XAPuE63Uus51YIheBZLZckxWKXOT_AxqYfR-DpyVAMtqXSiao3ZdT9NzCUFvEAdPxs-irQOTrLU1e9qEw3uxiMTlhpkVPv8S7bqfn6k_dFFd_dNslSEtgHqxYurHx5S_2WeuY_040]--></g></svg>