<svg xmlns="http://www.w3.org/2000/svg" xmlns:xlink="http://www.w3.org/1999/xlink" contentStyleType="text/css" height="1188px" preserveAspectRatio="none" style="width:1778px;height:1188px;background:#FFFFFF;" version="1.1" viewBox="0 0 1778 1188" width="1778px" zoomAndPan="magnify"><defs/><g><rect fill="#FFFFFF" height="31.291" style="stroke:#181818;stroke-width:1.0;" width="10" x="340.0444" y="162.2031"/><rect fill="#FFFFFF" height="31.291" style="stroke:#181818;stroke-width:1.0;" width="10" x="340.0444" y="313.6582"/><rect fill="#FFFFFF" height="31.291" style="stroke:#181818;stroke-width:1.0;" width="10" x="340.0444" y="503.4043"/><rect fill="#FFFFFF" height="31.291" style="stroke:#181818;stroke-width:1.0;" width="10" x="340.0444" y="830.0234"/><rect fill="#FFFFFF" height="31.291" style="stroke:#181818;stroke-width:1.0;" width="10" x="340.0444" y="1056.0605"/><rect fill="#FFFFFF" height="862.5664" style="stroke:#181818;stroke-width:1.0;" width="10" x="675.4141" y="193.4941"/><rect fill="#FFFFFF" height="158.4551" style="stroke:#181818;stroke-width:1.0;" width="10" x="1190.0161" y="224.7852"/><rect fill="#FFFFFF" height="158.4551" style="stroke:#181818;stroke-width:1.0;" width="10" x="1190.0161" y="414.5313"/><rect fill="#FFFFFF" height="420.4922" style="stroke:#181818;stroke-width:1.0;" width="10" x="1190.0161" y="604.2773"/><rect fill="#FFFFFF" height="357.9102" style="stroke:#181818;stroke-width:1.0;" width="10" x="1502.9976" y="635.5684"/><rect fill="#FFFFFF" height="28" style="stroke:#181818;stroke-width:1.0;" width="10" x="1507.9976" y="674.8594"/><rect fill="none" height="113.1641" style="stroke:#000000;stroke-width:1.5;" width="1240.1367" x="10" y="239.7852"/><rect fill="none" height="113.1641" style="stroke:#000000;stroke-width:1.5;" width="1240.1367" x="10" y="429.5313"/><rect fill="none" height="144.4551" style="stroke:#000000;stroke-width:1.5;" width="1574.9077" x="10" y="724.8594"/><line style="stroke:#181818;stroke-width:0.5;stroke-dasharray:5.0,5.0;" x1="53" x2="53" y1="83.6211" y2="1105.3516"/><line style="stroke:#181818;stroke-width:0.5;stroke-dasharray:5.0,5.0;" x1="344.1343" x2="344.1343" y1="83.6211" y2="1105.3516"/><line style="stroke:#181818;stroke-width:0.5;stroke-dasharray:5.0,5.0;" x1="679.5107" x2="679.5107" y1="83.6211" y2="1105.3516"/><line style="stroke:#181818;stroke-width:0.5;stroke-dasharray:5.0,5.0;" x1="1194.8955" x2="1194.8955" y1="83.6211" y2="1105.3516"/><line style="stroke:#181818;stroke-width:0.5;stroke-dasharray:5.0,5.0;" x1="1507.0874" x2="1507.0874" y1="83.6211" y2="1105.3516"/><text fill="#000000" font-family="sans-serif" font-size="14" lengthAdjust="spacing" textLength="61.4551" x="20" y="80.1074">New User</text><ellipse cx="53.7275" cy="13.5" fill="#E2E2F0" rx="8" ry="8" style="stroke:#181818;stroke-width:0.5;"/><path d="M53.7275,21.5 L53.7275,48.5 M40.7275,29.5 L66.7275,29.5 M53.7275,48.5 L40.7275,63.5 M53.7275,48.5 L66.7275,63.5 " fill="none" style="stroke:#181818;stroke-width:0.5;"/><text fill="#000000" font-family="sans-serif" font-size="14" lengthAdjust="spacing" textLength="61.4551" x="20" y="1119.459">New User</text><ellipse cx="53.7275" cy="1131.4727" fill="#E2E2F0" rx="8" ry="8" style="stroke:#181818;stroke-width:0.5;"/><path d="M53.7275,1139.4727 L53.7275,1166.4727 M40.7275,1147.4727 L66.7275,1147.4727 M53.7275,1166.4727 L40.7275,1181.4727 M53.7275,1166.4727 L66.7275,1181.4727 " fill="none" style="stroke:#181818;stroke-width:0.5;"/><rect fill="#E2E2F0" height="32.6211" rx="2.5" ry="2.5" style="stroke:#181818;stroke-width:0.5;" width="119.8203" x="285.1343" y="50"/><text fill="#000000" font-family="sans-serif" font-size="14" lengthAdjust="spacing" textLength="105.8203" x="292.1343" y="72.1074">Frontend (React)</text><rect fill="#E2E2F0" height="32.6211" rx="2.5" ry="2.5" style="stroke:#181818;stroke-width:0.5;" width="119.8203" x="285.1343" y="1104.3516"/><text fill="#000000" font-family="sans-serif" font-size="14" lengthAdjust="spacing" textLength="105.8203" x="292.1343" y="1126.459">Frontend (React)</text><rect fill="#E2E2F0" height="51.2422" rx="2.5" ry="2.5" style="stroke:#181818;stroke-width:0.5;" width="119.8066" x="620.5107" y="31.3789"/><text fill="#000000" font-family="sans-serif" font-size="14" lengthAdjust="spacing" textLength="73.1377" x="643.8452" y="53.4863">/verify route</text><text fill="#000000" font-family="sans-serif" font-size="14" lengthAdjust="spacing" textLength="101.917" x="631.4004" y="72.1074">(Flask Blueprint)</text><rect fill="#E2E2F0" height="51.2422" rx="2.5" ry="2.5" style="stroke:#181818;stroke-width:0.5;" width="119.8066" x="620.5107" y="1104.3516"/><text fill="#000000" font-family="sans-serif" font-size="14" lengthAdjust="spacing" textLength="73.1377" x="643.8452" y="1126.459">/verify route</text><text fill="#000000" font-family="sans-serif" font-size="14" lengthAdjust="spacing" textLength="101.917" x="631.4004" y="1145.0801">(Flask Blueprint)</text><rect fill="#E2E2F0" height="32.6211" rx="2.5" ry="2.5" style="stroke:#181818;stroke-width:0.5;" width="90.2412" x="1149.8955" y="50"/><text fill="#000000" font-family="sans-serif" font-size="14" lengthAdjust="spacing" textLength="76.2412" x="1156.8955" y="72.1074">UserService</text><rect fill="#E2E2F0" height="32.6211" rx="2.5" ry="2.5" style="stroke:#181818;stroke-width:0.5;" width="90.2412" x="1149.8955" y="1104.3516"/><text fill="#000000" font-family="sans-serif" font-size="14" lengthAdjust="spacing" textLength="76.2412" x="1156.8955" y="1126.459">UserService</text><rect fill="#E2E2F0" height="69.8633" rx="2.5" ry="2.5" style="stroke:#181818;stroke-width:0.5;" width="133.8203" x="1441.0874" y="12.7578"/><text fill="#000000" font-family="sans-serif" font-size="14" lengthAdjust="spacing" textLength="115.9307" x="1448.0874" y="34.8652">User Model Object</text><text fill="#000000" font-family="sans-serif" font-size="14" lengthAdjust="spacing" textLength="86.3584" x="1466.7632" y="53.4863">(SQLAlchemy</text><text fill="#000000" font-family="sans-serif" font-size="14" lengthAdjust="spacing" textLength="80.1582" x="1469.8633" y="72.1074">to Database)</text><rect fill="#E2E2F0" height="69.8633" rx="2.5" ry="2.5" style="stroke:#181818;stroke-width:0.5;" width="133.8203" x="1441.0874" y="1104.3516"/><text fill="#000000" font-family="sans-serif" font-size="14" lengthAdjust="spacing" textLength="115.9307" x="1448.0874" y="1126.459">User Model Object</text><text fill="#000000" font-family="sans-serif" font-size="14" lengthAdjust="spacing" textLength="86.3584" x="1466.7632" y="1145.0801">(SQLAlchemy</text><text fill="#000000" font-family="sans-serif" font-size="14" lengthAdjust="spacing" textLength="80.1582" x="1469.8633" y="1163.7012">to Database)</text><rect fill="#FFFFFF" height="31.291" style="stroke:#181818;stroke-width:1.0;" width="10" x="340.0444" y="162.2031"/><rect fill="#FFFFFF" height="31.291" style="stroke:#181818;stroke-width:1.0;" width="10" x="340.0444" y="313.6582"/><rect fill="#FFFFFF" height="31.291" style="stroke:#181818;stroke-width:1.0;" width="10" x="340.0444" y="503.4043"/><rect fill="#FFFFFF" height="31.291" style="stroke:#181818;stroke-width:1.0;" width="10" x="340.0444" y="830.0234"/><rect fill="#FFFFFF" height="31.291" style="stroke:#181818;stroke-width:1.0;" width="10" x="340.0444" y="1056.0605"/><rect fill="#FFFFFF" height="862.5664" style="stroke:#181818;stroke-width:1.0;" width="10" x="675.4141" y="193.4941"/><rect fill="#FFFFFF" height="158.4551" style="stroke:#181818;stroke-width:1.0;" width="10" x="1190.0161" y="224.7852"/><rect fill="#FFFFFF" height="158.4551" style="stroke:#181818;stroke-width:1.0;" width="10" x="1190.0161" y="414.5313"/><rect fill="#FFFFFF" height="420.4922" style="stroke:#181818;stroke-width:1.0;" width="10" x="1190.0161" y="604.2773"/><rect fill="#FFFFFF" height="357.9102" style="stroke:#181818;stroke-width:1.0;" width="10" x="1502.9976" y="635.5684"/><rect fill="#FFFFFF" height="28" style="stroke:#181818;stroke-width:1.0;" width="10" x="1507.9976" y="674.8594"/><rect fill="#EEEEEE" height="3" style="stroke:#EEEEEE;stroke-width:1.0;" width="1771.8018" x="0" y="115.2666"/><line style="stroke:#000000;stroke-width:1.0;" x1="0" x2="1771.8018" y1="115.2666" y2="115.2666"/><line style="stroke:#000000;stroke-width:1.0;" x1="0" x2="1771.8018" y1="118.2666" y2="118.2666"/><rect fill="#EEEEEE" height="25.291" style="stroke:#000000;stroke-width:2.0;" width="130.3018" x="820.75" y="103.6211"/><text fill="#000000" font-family="sans-serif" font-size="13" font-weight="bold" lengthAdjust="spacing" textLength="112.6899" x="826.75" y="121.6494">E-Mail Verification</text><polygon fill="#181818" points="328.0444,158.2031,338.0444,162.2031,328.0444,166.2031,332.0444,162.2031" style="stroke:#181818;stroke-width:1.0;"/><line style="stroke:#181818;stroke-width:1.0;" x1="53.7275" x2="334.0444" y1="162.2031" y2="162.2031"/><text fill="#000000" font-family="sans-serif" font-size="13" lengthAdjust="spacing" textLength="190.7471" x="60.7275" y="156.9404">clicks link (send email and token)</text><polygon fill="#181818" points="663.4141,189.4941,673.4141,193.4941,663.4141,197.4941,667.4141,193.4941" style="stroke:#181818;stroke-width:1.0;"/><line style="stroke:#181818;stroke-width:1.0;" x1="345.0444" x2="669.4141" y1="193.4941" y2="193.4941"/><text fill="#000000" font-family="sans-serif" font-size="13" lengthAdjust="spacing" textLength="306.3696" x="352.0444" y="188.2314">HTTP Request: GET {email, plain_verification_token}</text><polygon fill="#181818" points="1178.0161,220.7852,1188.0161,224.7852,1178.0161,228.7852,1182.0161,224.7852" style="stroke:#181818;stroke-width:1.0;"/><line style="stroke:#181818;stroke-width:1.0;" x1="685.4141" x2="1184.0161" y1="224.7852" y2="224.7852"/><text fill="#000000" font-family="sans-serif" font-size="13" lengthAdjust="spacing" textLength="165.4453" x="692.4141" y="219.5225">is_email_format_valid(email)</text><path d="M10,239.7852 L70.1709,239.7852 L70.1709,249.0762 L60.1709,259.0762 L10,259.0762 L10,239.7852 " fill="#EEEEEE" style="stroke:#000000;stroke-width:1.5;"/><rect fill="none" height="113.1641" style="stroke:#000000;stroke-width:1.5;" width="1240.1367" x="10" y="239.7852"/><text fill="#000000" font-family="sans-serif" font-size="13" font-weight="bold" lengthAdjust="spacing" textLength="15.1709" x="25" y="254.8135">alt</text><text fill="#000000" font-family="sans-serif" font-size="11" font-weight="bold" lengthAdjust="spacing" textLength="122.2354" x="85.1709" y="253.6553">[Email format not valid]</text><polygon fill="#181818" points="696.4141,278.3672,686.4141,282.3672,696.4141,286.3672,692.4141,282.3672" style="stroke:#181818;stroke-width:1.0;"/><line style="stroke:#181818;stroke-width:1.0;stroke-dasharray:2.0,2.0;" x1="690.4141" x2="1189.0161" y1="282.3672" y2="282.3672"/><text fill="#000000" font-family="sans-serif" font-size="13" lengthAdjust="spacing" textLength="31.7891" x="702.4141" y="277.1045">False</text><polygon fill="#181818" points="361.0444,309.6582,351.0444,313.6582,361.0444,317.6582,357.0444,313.6582" style="stroke:#181818;stroke-width:1.0;"/><line style="stroke:#181818;stroke-width:1.0;stroke-dasharray:2.0,2.0;" x1="355.0444" x2="674.4141" y1="313.6582" y2="313.6582"/><text fill="#000000" font-family="sans-serif" font-size="13" lengthAdjust="spacing" textLength="189.3188" x="367.0444" y="308.3955">HTTP Response: 404 Not Found</text><polygon fill="#181818" points="64.7275,340.9492,54.7275,344.9492,64.7275,348.9492,60.7275,344.9492" style="stroke:#181818;stroke-width:1.0;"/><line style="stroke:#181818;stroke-width:1.0;stroke-dasharray:2.0,2.0;" x1="58.7275" x2="344.0444" y1="344.9492" y2="344.9492"/><text fill="#000000" font-family="sans-serif" font-size="13" lengthAdjust="spacing" textLength="107.6499" x="70.7275" y="339.6865">Error: link not valid</text><polygon fill="#181818" points="696.4141,379.2402,686.4141,383.2402,696.4141,387.2402,692.4141,383.2402" style="stroke:#181818;stroke-width:1.0;"/><line style="stroke:#181818;stroke-width:1.0;stroke-dasharray:2.0,2.0;" x1="690.4141" x2="1194.0161" y1="383.2402" y2="383.2402"/><text fill="#000000" font-family="sans-serif" font-size="13" lengthAdjust="spacing" textLength="26.73" x="702.4141" y="377.9775">True</text><polygon fill="#181818" points="1178.0161,410.5313,1188.0161,414.5313,1178.0161,418.5313,1182.0161,414.5313" style="stroke:#181818;stroke-width:1.0;"/><line style="stroke:#181818;stroke-width:1.0;" x1="685.4141" x2="1184.0161" y1="414.5313" y2="414.5313"/><text fill="#000000" font-family="sans-serif" font-size="13" lengthAdjust="spacing" textLength="485.6021" x="692.4141" y="409.2686">query_users_by_unverified_mail_and_not_expired_verification(unverified_email: str)</text><path d="M10,429.5313 L70.1709,429.5313 L70.1709,438.8223 L60.1709,448.8223 L10,448.8223 L10,429.5313 " fill="#EEEEEE" style="stroke:#000000;stroke-width:1.5;"/><rect fill="none" height="113.1641" style="stroke:#000000;stroke-width:1.5;" width="1240.1367" x="10" y="429.5313"/><text fill="#000000" font-family="sans-serif" font-size="13" font-weight="bold" lengthAdjust="spacing" textLength="15.1709" x="25" y="444.5596">alt</text><text fill="#000000" font-family="sans-serif" font-size="11" font-weight="bold" lengthAdjust="spacing" textLength="218.8237" x="85.1709" y="443.4014">[Unverified Mail does not exist or expired]</text><polygon fill="#181818" points="696.4141,468.1133,686.4141,472.1133,696.4141,476.1133,692.4141,472.1133" style="stroke:#181818;stroke-width:1.0;"/><line style="stroke:#181818;stroke-width:1.0;stroke-dasharray:2.0,2.0;" x1="690.4141" x2="1189.0161" y1="472.1133" y2="472.1133"/><text fill="#000000" font-family="sans-serif" font-size="13" lengthAdjust="spacing" textLength="31.0781" x="702.4141" y="466.8506">None</text><polygon fill="#181818" points="361.0444,499.4043,351.0444,503.4043,361.0444,507.4043,357.0444,503.4043" style="stroke:#181818;stroke-width:1.0;"/><line style="stroke:#181818;stroke-width:1.0;stroke-dasharray:2.0,2.0;" x1="355.0444" x2="674.4141" y1="503.4043" y2="503.4043"/><text fill="#000000" font-family="sans-serif" font-size="13" lengthAdjust="spacing" textLength="189.3188" x="367.0444" y="498.1416">HTTP Response: 404 Not Found</text><polygon fill="#181818" points="64.7275,530.6953,54.7275,534.6953,64.7275,538.6953,60.7275,534.6953" style="stroke:#181818;stroke-width:1.0;"/><line style="stroke:#181818;stroke-width:1.0;stroke-dasharray:2.0,2.0;" x1="58.7275" x2="344.0444" y1="534.6953" y2="534.6953"/><text fill="#000000" font-family="sans-serif" font-size="13" lengthAdjust="spacing" textLength="107.6499" x="70.7275" y="529.4326">Error: link not valid</text><polygon fill="#181818" points="696.4141,568.9863,686.4141,572.9863,696.4141,576.9863,692.4141,572.9863" style="stroke:#181818;stroke-width:1.0;"/><line style="stroke:#181818;stroke-width:1.0;stroke-dasharray:2.0,2.0;" x1="690.4141" x2="1194.0161" y1="572.9863" y2="572.9863"/><text fill="#000000" font-family="sans-serif" font-size="13" lengthAdjust="spacing" textLength="65.749" x="702.4141" y="567.7236">User object</text><polygon fill="#181818" points="1178.0161,600.2773,1188.0161,604.2773,1178.0161,608.2773,1182.0161,604.2773" style="stroke:#181818;stroke-width:1.0;"/><line style="stroke:#181818;stroke-width:1.0;" x1="685.4141" x2="1184.0161" y1="604.2773" y2="604.2773"/><text fill="#000000" font-family="sans-serif" font-size="13" lengthAdjust="spacing" textLength="248.5488" x="692.4141" y="599.0146">verify_email(User, plain_verification_token)</text><polygon fill="#181818" points="1490.9976,631.5684,1500.9976,635.5684,1490.9976,639.5684,1494.9976,635.5684" style="stroke:#181818;stroke-width:1.0;"/><line style="stroke:#181818;stroke-width:1.0;" x1="1200.0161" x2="1496.9976" y1="635.5684" y2="635.5684"/><text fill="#000000" font-family="sans-serif" font-size="13" lengthAdjust="spacing" textLength="283.9814" x="1207.0161" y="630.3057">verify_verification_token(plain_verification_token)</text><line style="stroke:#181818;stroke-width:1.0;" x1="1517.9976" x2="1559.9976" y1="666.8594" y2="666.8594"/><line style="stroke:#181818;stroke-width:1.0;" x1="1559.9976" x2="1559.9976" y1="666.8594" y2="679.8594"/><line style="stroke:#181818;stroke-width:1.0;" x1="1518.9976" x2="1559.9976" y1="679.8594" y2="679.8594"/><polygon fill="#181818" points="1528.9976,675.8594,1518.9976,679.8594,1528.9976,683.8594,1524.9976,679.8594" style="stroke:#181818;stroke-width:1.0;"/><text fill="#000000" font-family="sans-serif" font-size="13" lengthAdjust="spacing" textLength="229.8042" x="1524.9976" y="661.5967">__hash_secret(plain_verification_token)</text><path d="M10,724.8594 L70.1709,724.8594 L70.1709,734.1504 L60.1709,744.1504 L10,744.1504 L10,724.8594 " fill="#EEEEEE" style="stroke:#000000;stroke-width:1.5;"/><rect fill="none" height="144.4551" style="stroke:#000000;stroke-width:1.5;" width="1574.9077" x="10" y="724.8594"/><text fill="#000000" font-family="sans-serif" font-size="13" font-weight="bold" lengthAdjust="spacing" textLength="15.1709" x="25" y="739.8877">alt</text><text fill="#000000" font-family="sans-serif" font-size="11" font-weight="bold" lengthAdjust="spacing" textLength="182.7461" x="85.1709" y="738.7295">[verification token does not match]</text><polygon fill="#181818" points="1211.0161,763.4414,1201.0161,767.4414,1211.0161,771.4414,1207.0161,767.4414" style="stroke:#181818;stroke-width:1.0;"/><line style="stroke:#181818;stroke-width:1.0;stroke-dasharray:2.0,2.0;" x1="1205.0161" x2="1501.9976" y1="767.4414" y2="767.4414"/><text fill="#000000" font-family="sans-serif" font-size="13" lengthAdjust="spacing" textLength="31.7891" x="1217.0161" y="762.1787">False</text><polygon fill="#181818" points="696.4141,794.7324,686.4141,798.7324,696.4141,802.7324,692.4141,798.7324" style="stroke:#181818;stroke-width:1.0;"/><line style="stroke:#181818;stroke-width:1.0;stroke-dasharray:2.0,2.0;" x1="690.4141" x2="1189.0161" y1="798.7324" y2="798.7324"/><text fill="#000000" font-family="sans-serif" font-size="13" lengthAdjust="spacing" textLength="31.7891" x="702.4141" y="793.4697">False</text><polygon fill="#181818" points="361.0444,826.0234,351.0444,830.0234,361.0444,834.0234,357.0444,830.0234" style="stroke:#181818;stroke-width:1.0;"/><line style="stroke:#181818;stroke-width:1.0;stroke-dasharray:2.0,2.0;" x1="355.0444" x2="674.4141" y1="830.0234" y2="830.0234"/><text fill="#000000" font-family="sans-serif" font-size="13" lengthAdjust="spacing" textLength="189.3188" x="367.0444" y="824.7607">HTTP Response: 404 Not Found</text><polygon fill="#181818" points="64.7275,857.3145,54.7275,861.3145,64.7275,865.3145,60.7275,861.3145" style="stroke:#181818;stroke-width:1.0;"/><line style="stroke:#181818;stroke-width:1.0;stroke-dasharray:2.0,2.0;" x1="58.7275" x2="344.0444" y1="861.3145" y2="861.3145"/><text fill="#000000" font-family="sans-serif" font-size="13" lengthAdjust="spacing" textLength="107.6499" x="70.7275" y="856.0518">Error: link not valid</text><polygon fill="#181818" points="1211.0161,895.6055,1201.0161,899.6055,1211.0161,903.6055,1207.0161,899.6055" style="stroke:#181818;stroke-width:1.0;"/><line style="stroke:#181818;stroke-width:1.0;stroke-dasharray:2.0,2.0;" x1="1205.0161" x2="1501.9976" y1="899.6055" y2="899.6055"/><text fill="#000000" font-family="sans-serif" font-size="13" lengthAdjust="spacing" textLength="26.73" x="1217.0161" y="894.3428">True</text><polygon fill="#181818" points="1490.9976,926.8965,1500.9976,930.8965,1490.9976,934.8965,1494.9976,930.8965" style="stroke:#181818;stroke-width:1.0;"/><line style="stroke:#181818;stroke-width:1.0;" x1="1200.0161" x2="1496.9976" y1="930.8965" y2="930.8965"/><text fill="#000000" font-family="sans-serif" font-size="13" lengthAdjust="spacing" textLength="132.5898" x="1207.0161" y="925.6338">is_user_verified = True</text><polygon fill="#181818" points="1490.9976,958.1875,1500.9976,962.1875,1490.9976,966.1875,1494.9976,962.1875" style="stroke:#181818;stroke-width:1.0;"/><line style="stroke:#181818;stroke-width:1.0;" x1="1200.0161" x2="1496.9976" y1="962.1875" y2="962.1875"/><text fill="#000000" font-family="sans-serif" font-size="13" lengthAdjust="spacing" textLength="140.5435" x="1207.0161" y="956.9248">email = unverified_email</text><polygon fill="#181818" points="1495.9976,989.4785,1505.9976,993.4785,1495.9976,997.4785,1499.9976,993.4785" style="stroke:#181818;stroke-width:1.0;"/><line style="stroke:#181818;stroke-width:1.0;" x1="1200.0161" x2="1501.9976" y1="993.4785" y2="993.4785"/><text fill="#000000" font-family="sans-serif" font-size="13" lengthAdjust="spacing" textLength="118.7075" x="1207.0161" y="988.2158">unverified_email = ""</text><polygon fill="#181818" points="696.4141,1020.7695,686.4141,1024.7695,696.4141,1028.7695,692.4141,1024.7695" style="stroke:#181818;stroke-width:1.0;"/><line style="stroke:#181818;stroke-width:1.0;stroke-dasharray:2.0,2.0;" x1="690.4141" x2="1194.0161" y1="1024.7695" y2="1024.7695"/><text fill="#000000" font-family="sans-serif" font-size="13" lengthAdjust="spacing" textLength="26.73" x="702.4141" y="1019.5068">True</text><polygon fill="#181818" points="361.0444,1052.0605,351.0444,1056.0605,361.0444,1060.0605,357.0444,1056.0605" style="stroke:#181818;stroke-width:1.0;"/><line style="stroke:#181818;stroke-width:1.0;stroke-dasharray:2.0,2.0;" x1="355.0444" x2="679.4141" y1="1056.0605" y2="1056.0605"/><text fill="#000000" font-family="sans-serif" font-size="13" lengthAdjust="spacing" textLength="237.6943" x="367.0444" y="1050.7979">HTTP Response: 200 OK (Email verified)</text><polygon fill="#181818" points="64.7275,1083.3516,54.7275,1087.3516,64.7275,1091.3516,60.7275,1087.3516" style="stroke:#181818;stroke-width:1.0;"/><line style="stroke:#181818;stroke-width:1.0;stroke-dasharray:2.0,2.0;" x1="58.7275" x2="344.0444" y1="1087.3516" y2="1087.3516"/><text fill="#000000" font-family="sans-serif" font-size="13" lengthAdjust="spacing" textLength="262.3169" x="70.7275" y="1082.0889">Success Message and redirects to login page</text><!--SRC=[pLHDRnCn4BtlhnZbj968Y51F4K4g8W49DeLydP0inpjjJ1nxiRsX5UA_C_OcgJUhGe_D8VBQyzxCU_OC5zvOwCtm5wmSsXvm1zTL5TPPnQsNGbPSU-XDhT4UTGdv7Bdm_HWvdRI3NX_Goji7iARs-5r3FbNSxU2zgh6oKXzHwtaR5P8jq1wam7Y-MdJFeJ0bAhZP_43X8L0lldsvLcAB-mVwyWO-SCytt66JOrLasNWCaq71fO9rA4iAxgNHC1vdHuKmU4SIO0H2IR5peAJUGUw2Ijm77AULDplK_OmqomFt63GJXf3hEI4_BPTVOOu_QtH-11ydI_WTeQ-WKbngTaWoiqZr9oin9JkloHQY9EBLWeYbOv68tHgxvvuTk99b7hUIOiWghZnCOhLD96ZZ8KPdG3-YV3iOD9nJhXp6NL8GTbC9hZBQuGYkXbSm8ugfgNL3aLORla_k1OPetyHQOqUDVUtiRQbaR9RMixGrfcwGciG1yjG-i9eoERQXXMwyn995N-Xk62LZU5z9IvkfqtaI72qRWVEswzlg70RndPG6NLI0zz9veCuuidUid1dzafoCB2OsnzE6DitP6987nDEFj6qLeGD7ySZHHUJFeIeo8ZbHCRRbRiiS2el-cV1KMn6lC4KqlVfuYzGDOXlT8mNHgwBL1I-jDz8gOsyanjCy2At0pWzst0bfPjOOBXz_6dDvHk6zteMj_sdHV_ZpPZY4cy-GD_FebAcV4j2KIsLt_5hKGg1pKD0VlyCuWga1gGc5Ts7EAtCdDLHqrXwaVm40]--></g></svg>