<svg xmlns="http://www.w3.org/2000/svg" xmlns:xlink="http://www.w3.org/1999/xlink" contentStyleType="text/css" height="1188px" preserveAspectRatio="none" style="width:1762px;height:1188px;background:#FFFFFF;" version="1.1" viewBox="0 0 1762 1188" width="1762px" zoomAndPan="magnify"><defs/><g><rect fill="#FFFFFF" height="31.291" style="stroke:#181818;stroke-width:1.0;" width="10" x="324.0962" y="162.2031"/><rect fill="#FFFFFF" height="31.291" style="stroke:#181818;stroke-width:1.0;" width="10" x="324.0962" y="313.6582"/><rect fill="#FFFFFF" height="31.291" style="stroke:#181818;stroke-width:1.0;" width="10" x="324.0962" y="503.4043"/><rect fill="#FFFFFF" height="31.291" style="stroke:#181818;stroke-width:1.0;" width="10" x="324.0962" y="830.0234"/><rect fill="#FFFFFF" height="31.291" style="stroke:#181818;stroke-width:1.0;" width="10" x="324.0962" y="1056.0605"/><rect fill="#FFFFFF" height="862.5664" style="stroke:#181818;stroke-width:1.0;" width="10" x="659.4658" y="193.4941"/><rect fill="#FFFFFF" height="158.4551" style="stroke:#181818;stroke-width:1.0;" width="10" x="1174.0679" y="224.7852"/><rect fill="#FFFFFF" height="158.4551" style="stroke:#181818;stroke-width:1.0;" width="10" x="1174.0679" y="414.5313"/><rect fill="#FFFFFF" height="420.4922" style="stroke:#181818;stroke-width:1.0;" width="10" x="1174.0679" y="604.2773"/><rect fill="#FFFFFF" height="357.9102" style="stroke:#181818;stroke-width:1.0;" width="10" x="1487.0493" y="635.5684"/><rect fill="#FFFFFF" height="28" style="stroke:#181818;stroke-width:1.0;" width="10" x="1492.0493" y="674.8594"/><rect fill="none" height="113.1641" style="stroke:#000000;stroke-width:1.5;" width="1224.1885" x="10" y="239.7852"/><rect fill="none" height="113.1641" style="stroke:#000000;stroke-width:1.5;" width="1224.1885" x="10" y="429.5313"/><rect fill="none" height="144.4551" style="stroke:#000000;stroke-width:1.5;" width="1558.9595" x="10" y="724.8594"/><line style="stroke:#181818;stroke-width:0.5;stroke-dasharray:5.0,5.0;" x1="37" x2="37" y1="83.6211" y2="1105.3516"/><line style="stroke:#181818;stroke-width:0.5;stroke-dasharray:5.0,5.0;" x1="328.186" x2="328.186" y1="83.6211" y2="1105.3516"/><line style="stroke:#181818;stroke-width:0.5;stroke-dasharray:5.0,5.0;" x1="663.5625" x2="663.5625" y1="83.6211" y2="1105.3516"/><line style="stroke:#181818;stroke-width:0.5;stroke-dasharray:5.0,5.0;" x1="1178.9473" x2="1178.9473" y1="83.6211" y2="1105.3516"/><line style="stroke:#181818;stroke-width:0.5;stroke-dasharray:5.0,5.0;" x1="1491.1392" x2="1491.1392" y1="83.6211" y2="1105.3516"/><text fill="#000000" font-family="sans-serif" font-size="14" lengthAdjust="spacing" textLength="29.5586" x="20" y="80.1074">User</text><ellipse cx="37.7793" cy="13.5" fill="#E2E2F0" rx="8" ry="8" style="stroke:#181818;stroke-width:0.5;"/><path d="M37.7793,21.5 L37.7793,48.5 M24.7793,29.5 L50.7793,29.5 M37.7793,48.5 L24.7793,63.5 M37.7793,48.5 L50.7793,63.5 " fill="none" style="stroke:#181818;stroke-width:0.5;"/><text fill="#000000" font-family="sans-serif" font-size="14" lengthAdjust="spacing" textLength="29.5586" x="20" y="1119.459">User</text><ellipse cx="37.7793" cy="1131.4727" fill="#E2E2F0" rx="8" ry="8" style="stroke:#181818;stroke-width:0.5;"/><path d="M37.7793,1139.4727 L37.7793,1166.4727 M24.7793,1147.4727 L50.7793,1147.4727 M37.7793,1166.4727 L24.7793,1181.4727 M37.7793,1166.4727 L50.7793,1181.4727 " fill="none" style="stroke:#181818;stroke-width:0.5;"/><rect fill="#E2E2F0" height="32.6211" rx="2.5" ry="2.5" style="stroke:#181818;stroke-width:0.5;" width="119.8203" x="269.186" y="50"/><text fill="#000000" font-family="sans-serif" font-size="14" lengthAdjust="spacing" textLength="105.8203" x="276.186" y="72.1074">Frontend (React)</text><rect fill="#E2E2F0" height="32.6211" rx="2.5" ry="2.5" style="stroke:#181818;stroke-width:0.5;" width="119.8203" x="269.186" y="1104.3516"/><text fill="#000000" font-family="sans-serif" font-size="14" lengthAdjust="spacing" textLength="105.8203" x="276.186" y="1126.459">Frontend (React)</text><rect fill="#E2E2F0" height="51.2422" rx="2.5" ry="2.5" style="stroke:#181818;stroke-width:0.5;" width="119.8066" x="604.5625" y="31.3789"/><text fill="#000000" font-family="sans-serif" font-size="14" lengthAdjust="spacing" textLength="73.1377" x="627.897" y="53.4863">/verify route</text><text fill="#000000" font-family="sans-serif" font-size="14" lengthAdjust="spacing" textLength="101.917" x="615.4521" y="72.1074">(Flask Blueprint)</text><rect fill="#E2E2F0" height="51.2422" rx="2.5" ry="2.5" style="stroke:#181818;stroke-width:0.5;" width="119.8066" x="604.5625" y="1104.3516"/><text fill="#000000" font-family="sans-serif" font-size="14" lengthAdjust="spacing" textLength="73.1377" x="627.897" y="1126.459">/verify route</text><text fill="#000000" font-family="sans-serif" font-size="14" lengthAdjust="spacing" textLength="101.917" x="615.4521" y="1145.0801">(Flask Blueprint)</text><rect fill="#E2E2F0" height="32.6211" rx="2.5" ry="2.5" style="stroke:#181818;stroke-width:0.5;" width="90.2412" x="1133.9473" y="50"/><text fill="#000000" font-family="sans-serif" font-size="14" lengthAdjust="spacing" textLength="76.2412" x="1140.9473" y="72.1074">UserService</text><rect fill="#E2E2F0" height="32.6211" rx="2.5" ry="2.5" style="stroke:#181818;stroke-width:0.5;" width="90.2412" x="1133.9473" y="1104.3516"/><text fill="#000000" font-family="sans-serif" font-size="14" lengthAdjust="spacing" textLength="76.2412" x="1140.9473" y="1126.459">UserService</text><rect fill="#E2E2F0" height="69.8633" rx="2.5" ry="2.5" style="stroke:#181818;stroke-width:0.5;" width="133.8203" x="1425.1392" y="12.7578"/><text fill="#000000" font-family="sans-serif" font-size="14" lengthAdjust="spacing" textLength="115.9307" x="1432.1392" y="34.8652">User Model Object</text><text fill="#000000" font-family="sans-serif" font-size="14" lengthAdjust="spacing" textLength="86.3584" x="1450.8149" y="53.4863">(SQLAlchemy</text><text fill="#000000" font-family="sans-serif" font-size="14" lengthAdjust="spacing" textLength="80.1582" x="1453.915" y="72.1074">to Database)</text><rect fill="#E2E2F0" height="69.8633" rx="2.5" ry="2.5" style="stroke:#181818;stroke-width:0.5;" width="133.8203" x="1425.1392" y="1104.3516"/><text fill="#000000" font-family="sans-serif" font-size="14" lengthAdjust="spacing" textLength="115.9307" x="1432.1392" y="1126.459">User Model Object</text><text fill="#000000" font-family="sans-serif" font-size="14" lengthAdjust="spacing" textLength="86.3584" x="1450.8149" y="1145.0801">(SQLAlchemy</text><text fill="#000000" font-family="sans-serif" font-size="14" lengthAdjust="spacing" textLength="80.1582" x="1453.915" y="1163.7012">to Database)</text><rect fill="#FFFFFF" height="31.291" style="stroke:#181818;stroke-width:1.0;" width="10" x="324.0962" y="162.2031"/><rect fill="#FFFFFF" height="31.291" style="stroke:#181818;stroke-width:1.0;" width="10" x="324.0962" y="313.6582"/><rect fill="#FFFFFF" height="31.291" style="stroke:#181818;stroke-width:1.0;" width="10" x="324.0962" y="503.4043"/><rect fill="#FFFFFF" height="31.291" style="stroke:#181818;stroke-width:1.0;" width="10" x="324.0962" y="830.0234"/><rect fill="#FFFFFF" height="31.291" style="stroke:#181818;stroke-width:1.0;" width="10" x="324.0962" y="1056.0605"/><rect fill="#FFFFFF" height="862.5664" style="stroke:#181818;stroke-width:1.0;" width="10" x="659.4658" y="193.4941"/><rect fill="#FFFFFF" height="158.4551" style="stroke:#181818;stroke-width:1.0;" width="10" x="1174.0679" y="224.7852"/><rect fill="#FFFFFF" height="158.4551" style="stroke:#181818;stroke-width:1.0;" width="10" x="1174.0679" y="414.5313"/><rect fill="#FFFFFF" height="420.4922" style="stroke:#181818;stroke-width:1.0;" width="10" x="1174.0679" y="604.2773"/><rect fill="#FFFFFF" height="357.9102" style="stroke:#181818;stroke-width:1.0;" width="10" x="1487.0493" y="635.5684"/><rect fill="#FFFFFF" height="28" style="stroke:#181818;stroke-width:1.0;" width="10" x="1492.0493" y="674.8594"/><rect fill="#EEEEEE" height="3" style="stroke:#EEEEEE;stroke-width:1.0;" width="1755.8535" x="0" y="115.2666"/><line style="stroke:#000000;stroke-width:1.0;" x1="0" x2="1755.8535" y1="115.2666" y2="115.2666"/><line style="stroke:#000000;stroke-width:1.0;" x1="0" x2="1755.8535" y1="118.2666" y2="118.2666"/><rect fill="#EEEEEE" height="25.291" style="stroke:#000000;stroke-width:2.0;" width="130.3018" x="812.7759" y="103.6211"/><text fill="#000000" font-family="sans-serif" font-size="13" font-weight="bold" lengthAdjust="spacing" textLength="112.6899" x="818.7759" y="121.6494">E-Mail Verification</text><polygon fill="#181818" points="312.0962,158.2031,322.0962,162.2031,312.0962,166.2031,316.0962,162.2031" style="stroke:#181818;stroke-width:1.0;"/><line style="stroke:#181818;stroke-width:1.0;" x1="37.7793" x2="318.0962" y1="162.2031" y2="162.2031"/><text fill="#000000" font-family="sans-serif" font-size="13" lengthAdjust="spacing" textLength="190.7471" x="44.7793" y="156.9404">clicks link (send email and token)</text><polygon fill="#181818" points="647.4658,189.4941,657.4658,193.4941,647.4658,197.4941,651.4658,193.4941" style="stroke:#181818;stroke-width:1.0;"/><line style="stroke:#181818;stroke-width:1.0;" x1="329.0962" x2="653.4658" y1="193.4941" y2="193.4941"/><text fill="#000000" font-family="sans-serif" font-size="13" lengthAdjust="spacing" textLength="306.3696" x="336.0962" y="188.2314">HTTP Request: GET {email, plain_verification_token}</text><polygon fill="#181818" points="1162.0679,220.7852,1172.0679,224.7852,1162.0679,228.7852,1166.0679,224.7852" style="stroke:#181818;stroke-width:1.0;"/><line style="stroke:#181818;stroke-width:1.0;" x1="669.4658" x2="1168.0679" y1="224.7852" y2="224.7852"/><text fill="#000000" font-family="sans-serif" font-size="13" lengthAdjust="spacing" textLength="165.4453" x="676.4658" y="219.5225">is_email_format_valid(email)</text><path d="M10,239.7852 L70.1709,239.7852 L70.1709,249.0762 L60.1709,259.0762 L10,259.0762 L10,239.7852 " fill="#EEEEEE" style="stroke:#000000;stroke-width:1.5;"/><rect fill="none" height="113.1641" style="stroke:#000000;stroke-width:1.5;" width="1224.1885" x="10" y="239.7852"/><text fill="#000000" font-family="sans-serif" font-size="13" font-weight="bold" lengthAdjust="spacing" textLength="15.1709" x="25" y="254.8135">alt</text><text fill="#000000" font-family="sans-serif" font-size="11" font-weight="bold" lengthAdjust="spacing" textLength="122.2354" x="85.1709" y="253.6553">[Email format not valid]</text><polygon fill="#181818" points="680.4658,278.3672,670.4658,282.3672,680.4658,286.3672,676.4658,282.3672" style="stroke:#181818;stroke-width:1.0;"/><line style="stroke:#181818;stroke-width:1.0;stroke-dasharray:2.0,2.0;" x1="674.4658" x2="1173.0679" y1="282.3672" y2="282.3672"/><text fill="#000000" font-family="sans-serif" font-size="13" lengthAdjust="spacing" textLength="31.7891" x="686.4658" y="277.1045">False</text><polygon fill="#181818" points="345.0962,309.6582,335.0962,313.6582,345.0962,317.6582,341.0962,313.6582" style="stroke:#181818;stroke-width:1.0;"/><line style="stroke:#181818;stroke-width:1.0;stroke-dasharray:2.0,2.0;" x1="339.0962" x2="658.4658" y1="313.6582" y2="313.6582"/><text fill="#000000" font-family="sans-serif" font-size="13" lengthAdjust="spacing" textLength="189.3188" x="351.0962" y="308.3955">HTTP Response: 404 Not Found</text><polygon fill="#181818" points="48.7793,340.9492,38.7793,344.9492,48.7793,348.9492,44.7793,344.9492" style="stroke:#181818;stroke-width:1.0;"/><line style="stroke:#181818;stroke-width:1.0;stroke-dasharray:2.0,2.0;" x1="42.7793" x2="328.0962" y1="344.9492" y2="344.9492"/><text fill="#000000" font-family="sans-serif" font-size="13" lengthAdjust="spacing" textLength="107.6499" x="54.7793" y="339.6865">Error: link not valid</text><polygon fill="#181818" points="680.4658,379.2402,670.4658,383.2402,680.4658,387.2402,676.4658,383.2402" style="stroke:#181818;stroke-width:1.0;"/><line style="stroke:#181818;stroke-width:1.0;stroke-dasharray:2.0,2.0;" x1="674.4658" x2="1178.0679" y1="383.2402" y2="383.2402"/><text fill="#000000" font-family="sans-serif" font-size="13" lengthAdjust="spacing" textLength="26.73" x="686.4658" y="377.9775">True</text><polygon fill="#181818" points="1162.0679,410.5313,1172.0679,414.5313,1162.0679,418.5313,1166.0679,414.5313" style="stroke:#181818;stroke-width:1.0;"/><line style="stroke:#181818;stroke-width:1.0;" x1="669.4658" x2="1168.0679" y1="414.5313" y2="414.5313"/><text fill="#000000" font-family="sans-serif" font-size="13" lengthAdjust="spacing" textLength="485.6021" x="676.4658" y="409.2686">query_users_by_unverified_mail_and_not_expired_verification(unverified_email: str)</text><path d="M10,429.5313 L70.1709,429.5313 L70.1709,438.8223 L60.1709,448.8223 L10,448.8223 L10,429.5313 " fill="#EEEEEE" style="stroke:#000000;stroke-width:1.5;"/><rect fill="none" height="113.1641" style="stroke:#000000;stroke-width:1.5;" width="1224.1885" x="10" y="429.5313"/><text fill="#000000" font-family="sans-serif" font-size="13" font-weight="bold" lengthAdjust="spacing" textLength="15.1709" x="25" y="444.5596">alt</text><text fill="#000000" font-family="sans-serif" font-size="11" font-weight="bold" lengthAdjust="spacing" textLength="218.8237" x="85.1709" y="443.4014">[Unverified Mail does not exist or expired]</text><polygon fill="#181818" points="680.4658,468.1133,670.4658,472.1133,680.4658,476.1133,676.4658,472.1133" style="stroke:#181818;stroke-width:1.0;"/><line style="stroke:#181818;stroke-width:1.0;stroke-dasharray:2.0,2.0;" x1="674.4658" x2="1173.0679" y1="472.1133" y2="472.1133"/><text fill="#000000" font-family="sans-serif" font-size="13" lengthAdjust="spacing" textLength="31.0781" x="686.4658" y="466.8506">None</text><polygon fill="#181818" points="345.0962,499.4043,335.0962,503.4043,345.0962,507.4043,341.0962,503.4043" style="stroke:#181818;stroke-width:1.0;"/><line style="stroke:#181818;stroke-width:1.0;stroke-dasharray:2.0,2.0;" x1="339.0962" x2="658.4658" y1="503.4043" y2="503.4043"/><text fill="#000000" font-family="sans-serif" font-size="13" lengthAdjust="spacing" textLength="189.3188" x="351.0962" y="498.1416">HTTP Response: 404 Not Found</text><polygon fill="#181818" points="48.7793,530.6953,38.7793,534.6953,48.7793,538.6953,44.7793,534.6953" style="stroke:#181818;stroke-width:1.0;"/><line style="stroke:#181818;stroke-width:1.0;stroke-dasharray:2.0,2.0;" x1="42.7793" x2="328.0962" y1="534.6953" y2="534.6953"/><text fill="#000000" font-family="sans-serif" font-size="13" lengthAdjust="spacing" textLength="107.6499" x="54.7793" y="529.4326">Error: link not valid</text><polygon fill="#181818" points="680.4658,568.9863,670.4658,572.9863,680.4658,576.9863,676.4658,572.9863" style="stroke:#181818;stroke-width:1.0;"/><line style="stroke:#181818;stroke-width:1.0;stroke-dasharray:2.0,2.0;" x1="674.4658" x2="1178.0679" y1="572.9863" y2="572.9863"/><text fill="#000000" font-family="sans-serif" font-size="13" lengthAdjust="spacing" textLength="65.749" x="686.4658" y="567.7236">User object</text><polygon fill="#181818" points="1162.0679,600.2773,1172.0679,604.2773,1162.0679,608.2773,1166.0679,604.2773" style="stroke:#181818;stroke-width:1.0;"/><line style="stroke:#181818;stroke-width:1.0;" x1="669.4658" x2="1168.0679" y1="604.2773" y2="604.2773"/><text fill="#000000" font-family="sans-serif" font-size="13" lengthAdjust="spacing" textLength="248.5488" x="676.4658" y="599.0146">verify_email(User, plain_verification_token)</text><polygon fill="#181818" points="1475.0493,631.5684,1485.0493,635.5684,1475.0493,639.5684,1479.0493,635.5684" style="stroke:#181818;stroke-width:1.0;"/><line style="stroke:#181818;stroke-width:1.0;" x1="1184.0679" x2="1481.0493" y1="635.5684" y2="635.5684"/><text fill="#000000" font-family="sans-serif" font-size="13" lengthAdjust="spacing" textLength="283.9814" x="1191.0679" y="630.3057">verify_verification_token(plain_verification_token)</text><line style="stroke:#181818;stroke-width:1.0;" x1="1502.0493" x2="1544.0493" y1="666.8594" y2="666.8594"/><line style="stroke:#181818;stroke-width:1.0;" x1="1544.0493" x2="1544.0493" y1="666.8594" y2="679.8594"/><line style="stroke:#181818;stroke-width:1.0;" x1="1503.0493" x2="1544.0493" y1="679.8594" y2="679.8594"/><polygon fill="#181818" points="1513.0493,675.8594,1503.0493,679.8594,1513.0493,683.8594,1509.0493,679.8594" style="stroke:#181818;stroke-width:1.0;"/><text fill="#000000" font-family="sans-serif" font-size="13" lengthAdjust="spacing" textLength="229.8042" x="1509.0493" y="661.5967">__hash_secret(plain_verification_token)</text><path d="M10,724.8594 L70.1709,724.8594 L70.1709,734.1504 L60.1709,744.1504 L10,744.1504 L10,724.8594 " fill="#EEEEEE" style="stroke:#000000;stroke-width:1.5;"/><rect fill="none" height="144.4551" style="stroke:#000000;stroke-width:1.5;" width="1558.9595" x="10" y="724.8594"/><text fill="#000000" font-family="sans-serif" font-size="13" font-weight="bold" lengthAdjust="spacing" textLength="15.1709" x="25" y="739.8877">alt</text><text fill="#000000" font-family="sans-serif" font-size="11" font-weight="bold" lengthAdjust="spacing" textLength="182.7461" x="85.1709" y="738.7295">[verification token does not match]</text><polygon fill="#181818" points="1195.0679,763.4414,1185.0679,767.4414,1195.0679,771.4414,1191.0679,767.4414" style="stroke:#181818;stroke-width:1.0;"/><line style="stroke:#181818;stroke-width:1.0;stroke-dasharray:2.0,2.0;" x1="1189.0679" x2="1486.0493" y1="767.4414" y2="767.4414"/><text fill="#000000" font-family="sans-serif" font-size="13" lengthAdjust="spacing" textLength="31.7891" x="1201.0679" y="762.1787">False</text><polygon fill="#181818" points="680.4658,794.7324,670.4658,798.7324,680.4658,802.7324,676.4658,798.7324" style="stroke:#181818;stroke-width:1.0;"/><line style="stroke:#181818;stroke-width:1.0;stroke-dasharray:2.0,2.0;" x1="674.4658" x2="1173.0679" y1="798.7324" y2="798.7324"/><text fill="#000000" font-family="sans-serif" font-size="13" lengthAdjust="spacing" textLength="31.7891" x="686.4658" y="793.4697">False</text><polygon fill="#181818" points="345.0962,826.0234,335.0962,830.0234,345.0962,834.0234,341.0962,830.0234" style="stroke:#181818;stroke-width:1.0;"/><line style="stroke:#181818;stroke-width:1.0;stroke-dasharray:2.0,2.0;" x1="339.0962" x2="658.4658" y1="830.0234" y2="830.0234"/><text fill="#000000" font-family="sans-serif" font-size="13" lengthAdjust="spacing" textLength="189.3188" x="351.0962" y="824.7607">HTTP Response: 404 Not Found</text><polygon fill="#181818" points="48.7793,857.3145,38.7793,861.3145,48.7793,865.3145,44.7793,861.3145" style="stroke:#181818;stroke-width:1.0;"/><line style="stroke:#181818;stroke-width:1.0;stroke-dasharray:2.0,2.0;" x1="42.7793" x2="328.0962" y1="861.3145" y2="861.3145"/><text fill="#000000" font-family="sans-serif" font-size="13" lengthAdjust="spacing" textLength="107.6499" x="54.7793" y="856.0518">Error: link not valid</text><polygon fill="#181818" points="1195.0679,895.6055,1185.0679,899.6055,1195.0679,903.6055,1191.0679,899.6055" style="stroke:#181818;stroke-width:1.0;"/><line style="stroke:#181818;stroke-width:1.0;stroke-dasharray:2.0,2.0;" x1="1189.0679" x2="1486.0493" y1="899.6055" y2="899.6055"/><text fill="#000000" font-family="sans-serif" font-size="13" lengthAdjust="spacing" textLength="26.73" x="1201.0679" y="894.3428">True</text><polygon fill="#181818" points="1475.0493,926.8965,1485.0493,930.8965,1475.0493,934.8965,1479.0493,930.8965" style="stroke:#181818;stroke-width:1.0;"/><line style="stroke:#181818;stroke-width:1.0;" x1="1184.0679" x2="1481.0493" y1="930.8965" y2="930.8965"/><text fill="#000000" font-family="sans-serif" font-size="13" lengthAdjust="spacing" textLength="132.5898" x="1191.0679" y="925.6338">is_user_verified = True</text><polygon fill="#181818" points="1475.0493,958.1875,1485.0493,962.1875,1475.0493,966.1875,1479.0493,962.1875" style="stroke:#181818;stroke-width:1.0;"/><line style="stroke:#181818;stroke-width:1.0;" x1="1184.0679" x2="1481.0493" y1="962.1875" y2="962.1875"/><text fill="#000000" font-family="sans-serif" font-size="13" lengthAdjust="spacing" textLength="140.5435" x="1191.0679" y="956.9248">email = unverified_email</text><polygon fill="#181818" points="1480.0493,989.4785,1490.0493,993.4785,1480.0493,997.4785,1484.0493,993.4785" style="stroke:#181818;stroke-width:1.0;"/><line style="stroke:#181818;stroke-width:1.0;" x1="1184.0679" x2="1486.0493" y1="993.4785" y2="993.4785"/><text fill="#000000" font-family="sans-serif" font-size="13" lengthAdjust="spacing" textLength="118.7075" x="1191.0679" y="988.2158">unverified_email = ""</text><polygon fill="#181818" points="680.4658,1020.7695,670.4658,1024.7695,680.4658,1028.7695,676.4658,1024.7695" style="stroke:#181818;stroke-width:1.0;"/><line style="stroke:#181818;stroke-width:1.0;stroke-dasharray:2.0,2.0;" x1="674.4658" x2="1178.0679" y1="1024.7695" y2="1024.7695"/><text fill="#000000" font-family="sans-serif" font-size="13" lengthAdjust="spacing" textLength="26.73" x="686.4658" y="1019.5068">True</text><polygon fill="#181818" points="345.0962,1052.0605,335.0962,1056.0605,345.0962,1060.0605,341.0962,1056.0605" style="stroke:#181818;stroke-width:1.0;"/><line style="stroke:#181818;stroke-width:1.0;stroke-dasharray:2.0,2.0;" x1="339.0962" x2="663.4658" y1="1056.0605" y2="1056.0605"/><text fill="#000000" font-family="sans-serif" font-size="13" lengthAdjust="spacing" textLength="237.6943" x="351.0962" y="1050.7979">HTTP Response: 200 OK (Email verified)</text><polygon fill="#181818" points="48.7793,1083.3516,38.7793,1087.3516,48.7793,1091.3516,44.7793,1087.3516" style="stroke:#181818;stroke-width:1.0;"/><line style="stroke:#181818;stroke-width:1.0;stroke-dasharray:2.0,2.0;" x1="42.7793" x2="328.0962" y1="1087.3516" y2="1087.3516"/><text fill="#000000" font-family="sans-serif" font-size="13" lengthAdjust="spacing" textLength="262.3169" x="54.7793" y="1082.0889">Success Message and redirects to login page</text><!--SRC=[pLHDRnen4BtlhnXnMgIYeYedL2gbAhHIkqdBrocIPRoJu6BihUr5GLN_UyTU85vMQNCC1-IrvxsPz-mPBhonq5iwj3tW3gwhAgopYbilXQouzj2RMgCzwXBo6NBX-p5oEca7lTsZbVS7iARsUASXdohkjl1HrLXPgO-erQoD2idcQFTIO3nVphldK9WI5TokVwBm4AZdFxvTAx71tO6-l85FtFCrTzZaM1PPDXx3P51mgM0LofA2UsaqZCVPKI4CFf04685GKcmTAActaBkW4dS1nsdbpHPrFoFDSiyz1is48UHgHiWlYyLtcE6l6fqVmUV90dv7w1ke59UQxPFCB5BzoKfCoSvhieKeYNWv9sBfM2HYzyRkk6TxhcIPnwsa6BAAAm-JM6qJ2TfuYD4Pq8yetmy63UUKAuTnbnI4tLI2gunsE8AhuHNS4CNKrBgXIAiDtoVt0aEqRsAjiQF6ldRsjbGoDalhMTWQKpT8JU80UMeFhAPCZgrfeHiliMJH5xeRHiaOFbRIqcRgT9u4Hyj6uBpj-hOyXq5y9wL15nNWetGUg2kEx1qhRun-JKv65XERutb3c-Pi3Ca3ulb7shQAq86ZUEBe8lANK1KPaPoe6Djmjs4EXKN_GdYghOXNc2AQNdswHUe6iOdkaOBeLT7gWjVM6scLiJSIusaUX5PWvmSxxeGqCsiCbuy_ZRaye_1UxyBM_xJeF_nvDnp2xLV8ctbqojHF2MZAfR8xVirh8T0vAEYFFs0SmTI0r8J2kp3dbNcG6YewQm_Ilm00]--></g></svg>