<svg xmlns="http://www.w3.org/2000/svg" xmlns:xlink="http://www.w3.org/1999/xlink" contentStyleType="text/css" height="1219px" preserveAspectRatio="none" style="width:1400px;height:1219px;background:#FFFFFF;" version="1.1" viewBox="0 0 1400 1219" width="1400px" zoomAndPan="magnify"><defs/><g><rect fill="#FFFFFF" height="31.291" style="stroke:#181818;stroke-width:1.0;" width="10" x="301.748" y="162.2031"/><rect fill="#FFFFFF" height="31.291" style="stroke:#181818;stroke-width:1.0;" width="10" x="301.748" y="224.7852"/><rect fill="#FFFFFF" height="31.291" style="stroke:#181818;stroke-width:1.0;" width="10" x="301.748" y="376.2402"/><rect fill="#FFFFFF" height="31.291" style="stroke:#181818;stroke-width:1.0;" width="10" x="301.748" y="565.9863"/><rect fill="#FFFFFF" height="31.291" style="stroke:#181818;stroke-width:1.0;" width="10" x="301.748" y="892.6055"/><rect fill="#FFFFFF" height="31.291" style="stroke:#181818;stroke-width:1.0;" width="10" x="301.748" y="1087.3516"/><rect fill="#FFFFFF" height="831.2754" style="stroke:#181818;stroke-width:1.0;" width="10" x="666.7485" y="256.0762"/><rect fill="#FFFFFF" height="158.4551" style="stroke:#181818;stroke-width:1.0;" width="10" x="923.3374" y="287.3672"/><rect fill="#FFFFFF" height="158.4551" style="stroke:#181818;stroke-width:1.0;" width="10" x="923.3374" y="477.1133"/><rect fill="#FFFFFF" height="326.6191" style="stroke:#181818;stroke-width:1.0;" width="10" x="923.3374" y="666.8594"/><rect fill="#FFFFFF" height="31.291" style="stroke:#181818;stroke-width:1.0;" width="10" x="1023.1992" y="1024.7695"/><rect fill="#FFFFFF" height="264.0371" style="stroke:#181818;stroke-width:1.0;" width="10" x="1170.1436" y="698.1504"/><rect fill="#FFFFFF" height="28" style="stroke:#181818;stroke-width:1.0;" width="10" x="1175.1436" y="737.4414"/><rect fill="none" height="113.1641" style="stroke:#000000;stroke-width:1.5;" width="973.458" x="10" y="302.3672"/><rect fill="none" height="113.1641" style="stroke:#000000;stroke-width:1.5;" width="973.458" x="10" y="492.1133"/><rect fill="none" height="144.4551" style="stroke:#000000;stroke-width:1.5;" width="1267.3467" x="10" y="787.4414"/><line style="stroke:#181818;stroke-width:0.5;stroke-dasharray:5.0,5.0;" x1="37" x2="37" y1="83.6211" y2="1136.6426"/><line style="stroke:#181818;stroke-width:0.5;stroke-dasharray:5.0,5.0;" x1="305.8379" x2="305.8379" y1="83.6211" y2="1136.6426"/><line style="stroke:#181818;stroke-width:0.5;stroke-dasharray:5.0,5.0;" x1="670.79" x2="670.79" y1="83.6211" y2="1136.6426"/><line style="stroke:#181818;stroke-width:0.5;stroke-dasharray:5.0,5.0;" x1="928.2168" x2="928.2168" y1="83.6211" y2="1136.6426"/><line style="stroke:#181818;stroke-width:0.5;stroke-dasharray:5.0,5.0;" x1="1027.458" x2="1027.458" y1="83.6211" y2="1136.6426"/><line style="stroke:#181818;stroke-width:0.5;stroke-dasharray:5.0,5.0;" x1="1174.9404" x2="1174.9404" y1="83.6211" y2="1136.6426"/><text fill="#000000" font-family="sans-serif" font-size="14" lengthAdjust="spacing" textLength="29.5586" x="20" y="80.1074">User</text><ellipse cx="37.7793" cy="13.5" fill="#E2E2F0" rx="8" ry="8" style="stroke:#181818;stroke-width:0.5;"/><path d="M37.7793,21.5 L37.7793,48.5 M24.7793,29.5 L50.7793,29.5 M37.7793,48.5 L24.7793,63.5 M37.7793,48.5 L50.7793,63.5 " fill="none" style="stroke:#181818;stroke-width:0.5;"/><text fill="#000000" font-family="sans-serif" font-size="14" lengthAdjust="spacing" textLength="29.5586" x="20" y="1150.75">User</text><ellipse cx="37.7793" cy="1162.7637" fill="#E2E2F0" rx="8" ry="8" style="stroke:#181818;stroke-width:0.5;"/><path d="M37.7793,1170.7637 L37.7793,1197.7637 M24.7793,1178.7637 L50.7793,1178.7637 M37.7793,1197.7637 L24.7793,1212.7637 M37.7793,1197.7637 L50.7793,1212.7637 " fill="none" style="stroke:#181818;stroke-width:0.5;"/><rect fill="#E2E2F0" height="32.6211" rx="2.5" ry="2.5" style="stroke:#181818;stroke-width:0.5;" width="119.8203" x="246.8379" y="50"/><text fill="#000000" font-family="sans-serif" font-size="14" lengthAdjust="spacing" textLength="105.8203" x="253.8379" y="72.1074">Frontend (React)</text><rect fill="#E2E2F0" height="32.6211" rx="2.5" ry="2.5" style="stroke:#181818;stroke-width:0.5;" width="119.8203" x="246.8379" y="1135.6426"/><text fill="#000000" font-family="sans-serif" font-size="14" lengthAdjust="spacing" textLength="105.8203" x="253.8379" y="1157.75">Frontend (React)</text><rect fill="#E2E2F0" height="51.2422" rx="2.5" ry="2.5" style="stroke:#181818;stroke-width:0.5;" width="115.917" x="613.79" y="31.3789"/><text fill="#000000" font-family="sans-serif" font-size="14" lengthAdjust="spacing" textLength="69.2686" x="637.1143" y="53.4863">/login route</text><text fill="#000000" font-family="sans-serif" font-size="14" lengthAdjust="spacing" textLength="101.917" x="620.79" y="72.1074">(Flask Blueprint)</text><rect fill="#E2E2F0" height="51.2422" rx="2.5" ry="2.5" style="stroke:#181818;stroke-width:0.5;" width="115.917" x="613.79" y="1135.6426"/><text fill="#000000" font-family="sans-serif" font-size="14" lengthAdjust="spacing" textLength="69.2686" x="637.1143" y="1157.75">/login route</text><text fill="#000000" font-family="sans-serif" font-size="14" lengthAdjust="spacing" textLength="101.917" x="620.79" y="1176.3711">(Flask Blueprint)</text><rect fill="#E2E2F0" height="32.6211" rx="2.5" ry="2.5" style="stroke:#181818;stroke-width:0.5;" width="90.2412" x="883.2168" y="50"/><text fill="#000000" font-family="sans-serif" font-size="14" lengthAdjust="spacing" textLength="76.2412" x="890.2168" y="72.1074">UserService</text><rect fill="#E2E2F0" height="32.6211" rx="2.5" ry="2.5" style="stroke:#181818;stroke-width:0.5;" width="90.2412" x="883.2168" y="1135.6426"/><text fill="#000000" font-family="sans-serif" font-size="14" lengthAdjust="spacing" textLength="76.2412" x="890.2168" y="1157.75">UserService</text><rect fill="#E2E2F0" height="32.6211" rx="2.5" ry="2.5" style="stroke:#181818;stroke-width:0.5;" width="89.4824" x="983.458" y="50"/><text fill="#000000" font-family="sans-serif" font-size="14" lengthAdjust="spacing" textLength="75.4824" x="990.458" y="72.1074">AuthService</text><rect fill="#E2E2F0" height="32.6211" rx="2.5" ry="2.5" style="stroke:#181818;stroke-width:0.5;" width="89.4824" x="983.458" y="1135.6426"/><text fill="#000000" font-family="sans-serif" font-size="14" lengthAdjust="spacing" textLength="75.4824" x="990.458" y="1157.75">AuthService</text><rect fill="#E2E2F0" height="51.2422" rx="2.5" ry="2.5" style="stroke:#181818;stroke-width:0.5;" width="184.4063" x="1082.9404" y="31.3789"/><text fill="#000000" font-family="sans-serif" font-size="14" lengthAdjust="spacing" textLength="115.9307" x="1117.1782" y="53.4863">User Model Object</text><text fill="#000000" font-family="sans-serif" font-size="14" lengthAdjust="spacing" textLength="170.4063" x="1089.9404" y="72.1074">(SQLAlchemy to Database)</text><rect fill="#E2E2F0" height="51.2422" rx="2.5" ry="2.5" style="stroke:#181818;stroke-width:0.5;" width="184.4063" x="1082.9404" y="1135.6426"/><text fill="#000000" font-family="sans-serif" font-size="14" lengthAdjust="spacing" textLength="115.9307" x="1117.1782" y="1157.75">User Model Object</text><text fill="#000000" font-family="sans-serif" font-size="14" lengthAdjust="spacing" textLength="170.4063" x="1089.9404" y="1176.3711">(SQLAlchemy to Database)</text><rect fill="#FFFFFF" height="31.291" style="stroke:#181818;stroke-width:1.0;" width="10" x="301.748" y="162.2031"/><rect fill="#FFFFFF" height="31.291" style="stroke:#181818;stroke-width:1.0;" width="10" x="301.748" y="224.7852"/><rect fill="#FFFFFF" height="31.291" style="stroke:#181818;stroke-width:1.0;" width="10" x="301.748" y="376.2402"/><rect fill="#FFFFFF" height="31.291" style="stroke:#181818;stroke-width:1.0;" width="10" x="301.748" y="565.9863"/><rect fill="#FFFFFF" height="31.291" style="stroke:#181818;stroke-width:1.0;" width="10" x="301.748" y="892.6055"/><rect fill="#FFFFFF" height="31.291" style="stroke:#181818;stroke-width:1.0;" width="10" x="301.748" y="1087.3516"/><rect fill="#FFFFFF" height="831.2754" style="stroke:#181818;stroke-width:1.0;" width="10" x="666.7485" y="256.0762"/><rect fill="#FFFFFF" height="158.4551" style="stroke:#181818;stroke-width:1.0;" width="10" x="923.3374" y="287.3672"/><rect fill="#FFFFFF" height="158.4551" style="stroke:#181818;stroke-width:1.0;" width="10" x="923.3374" y="477.1133"/><rect fill="#FFFFFF" height="326.6191" style="stroke:#181818;stroke-width:1.0;" width="10" x="923.3374" y="666.8594"/><rect fill="#FFFFFF" height="31.291" style="stroke:#181818;stroke-width:1.0;" width="10" x="1023.1992" y="1024.7695"/><rect fill="#FFFFFF" height="264.0371" style="stroke:#181818;stroke-width:1.0;" width="10" x="1170.1436" y="698.1504"/><rect fill="#FFFFFF" height="28" style="stroke:#181818;stroke-width:1.0;" width="10" x="1175.1436" y="737.4414"/><rect fill="#EEEEEE" height="3" style="stroke:#EEEEEE;stroke-width:1.0;" width="1393.416" x="0" y="115.2666"/><line style="stroke:#000000;stroke-width:1.0;" x1="0" x2="1393.416" y1="115.2666" y2="115.2666"/><line style="stroke:#000000;stroke-width:1.0;" x1="0" x2="1393.416" y1="118.2666" y2="118.2666"/><rect fill="#EEEEEE" height="25.291" style="stroke:#000000;stroke-width:2.0;" width="210.5107" x="591.4526" y="103.6211"/><text fill="#000000" font-family="sans-serif" font-size="13" font-weight="bold" lengthAdjust="spacing" textLength="192.8989" x="597.4526" y="121.6494">Login Process (User Story #25)</text><polygon fill="#181818" points="289.748,158.2031,299.748,162.2031,289.748,166.2031,293.748,162.2031" style="stroke:#181818;stroke-width:1.0;"/><line style="stroke:#181818;stroke-width:1.0;" x1="37.7793" x2="295.748" y1="162.2031" y2="162.2031"/><text fill="#000000" font-family="sans-serif" font-size="13" lengthAdjust="spacing" textLength="132.9517" x="44.7793" y="156.9404">Navigates to login form</text><polygon fill="#181818" points="48.7793,189.4941,38.7793,193.4941,48.7793,197.4941,44.7793,193.4941" style="stroke:#181818;stroke-width:1.0;"/><line style="stroke:#181818;stroke-width:1.0;stroke-dasharray:2.0,2.0;" x1="42.7793" x2="305.748" y1="193.4941" y2="193.4941"/><text fill="#000000" font-family="sans-serif" font-size="13" lengthAdjust="spacing" textLength="103.3145" x="54.7793" y="188.2314">Display login form</text><polygon fill="#181818" points="289.748,220.7852,299.748,224.7852,289.748,228.7852,293.748,224.7852" style="stroke:#181818;stroke-width:1.0;"/><line style="stroke:#181818;stroke-width:1.0;" x1="37.7793" x2="295.748" y1="224.7852" y2="224.7852"/><text fill="#000000" font-family="sans-serif" font-size="13" lengthAdjust="spacing" textLength="244.9688" x="44.7793" y="219.5225">Enters credentials {email, plain_password}</text><polygon fill="#181818" points="654.7485,252.0762,664.7485,256.0762,654.7485,260.0762,658.7485,256.0762" style="stroke:#181818;stroke-width:1.0;"/><line style="stroke:#181818;stroke-width:1.0;" x1="306.748" x2="660.7485" y1="256.0762" y2="256.0762"/><text fill="#000000" font-family="sans-serif" font-size="13" lengthAdjust="spacing" textLength="213.8652" x="313.748" y="250.8135">HTTP POST {email, plain_password}</text><polygon fill="#181818" points="911.3374,283.3672,921.3374,287.3672,911.3374,291.3672,915.3374,287.3672" style="stroke:#181818;stroke-width:1.0;"/><line style="stroke:#181818;stroke-width:1.0;" x1="676.7485" x2="917.3374" y1="287.3672" y2="287.3672"/><text fill="#000000" font-family="sans-serif" font-size="13" lengthAdjust="spacing" textLength="165.4453" x="683.7485" y="282.1045">is_email_format_valid(email)</text><path d="M10,302.3672 L70.1709,302.3672 L70.1709,311.6582 L60.1709,321.6582 L10,321.6582 L10,302.3672 " fill="#EEEEEE" style="stroke:#000000;stroke-width:1.5;"/><rect fill="none" height="113.1641" style="stroke:#000000;stroke-width:1.5;" width="973.458" x="10" y="302.3672"/><text fill="#000000" font-family="sans-serif" font-size="13" font-weight="bold" lengthAdjust="spacing" textLength="15.1709" x="25" y="317.3955">alt</text><text fill="#000000" font-family="sans-serif" font-size="11" font-weight="bold" lengthAdjust="spacing" textLength="122.2354" x="85.1709" y="316.2373">[Email format not valid]</text><polygon fill="#181818" points="687.7485,340.9492,677.7485,344.9492,687.7485,348.9492,683.7485,344.9492" style="stroke:#181818;stroke-width:1.0;"/><line style="stroke:#181818;stroke-width:1.0;stroke-dasharray:2.0,2.0;" x1="681.7485" x2="922.3374" y1="344.9492" y2="344.9492"/><text fill="#000000" font-family="sans-serif" font-size="13" lengthAdjust="spacing" textLength="31.7891" x="693.7485" y="339.6865">False</text><polygon fill="#181818" points="322.748,372.2402,312.748,376.2402,322.748,380.2402,318.748,376.2402" style="stroke:#181818;stroke-width:1.0;"/><line style="stroke:#181818;stroke-width:1.0;stroke-dasharray:2.0,2.0;" x1="316.748" x2="665.7485" y1="376.2402" y2="376.2402"/><text fill="#000000" font-family="sans-serif" font-size="13" lengthAdjust="spacing" textLength="336.0005" x="328.748" y="370.9775">HTTP Response: 401 Unauthorized (Credentials not valid)</text><polygon fill="#181818" points="48.7793,403.5313,38.7793,407.5313,48.7793,411.5313,44.7793,407.5313" style="stroke:#181818;stroke-width:1.0;"/><line style="stroke:#181818;stroke-width:1.0;stroke-dasharray:2.0,2.0;" x1="42.7793" x2="305.748" y1="407.5313" y2="407.5313"/><text fill="#000000" font-family="sans-serif" font-size="13" lengthAdjust="spacing" textLength="143.0571" x="54.7793" y="402.2686">Error: Invalid Credentials</text><polygon fill="#181818" points="687.7485,441.8223,677.7485,445.8223,687.7485,449.8223,683.7485,445.8223" style="stroke:#181818;stroke-width:1.0;"/><line style="stroke:#181818;stroke-width:1.0;stroke-dasharray:2.0,2.0;" x1="681.7485" x2="927.3374" y1="445.8223" y2="445.8223"/><text fill="#000000" font-family="sans-serif" font-size="13" lengthAdjust="spacing" textLength="26.73" x="693.7485" y="440.5596">True</text><polygon fill="#181818" points="911.3374,473.1133,921.3374,477.1133,911.3374,481.1133,915.3374,477.1133" style="stroke:#181818;stroke-width:1.0;"/><line style="stroke:#181818;stroke-width:1.0;" x1="676.7485" x2="917.3374" y1="477.1133" y2="477.1133"/><text fill="#000000" font-family="sans-serif" font-size="13" lengthAdjust="spacing" textLength="164.0171" x="683.7485" y="471.8506">query_user_by_email(email)</text><path d="M10,492.1133 L70.1709,492.1133 L70.1709,501.4043 L60.1709,511.4043 L10,511.4043 L10,492.1133 " fill="#EEEEEE" style="stroke:#000000;stroke-width:1.5;"/><rect fill="none" height="113.1641" style="stroke:#000000;stroke-width:1.5;" width="973.458" x="10" y="492.1133"/><text fill="#000000" font-family="sans-serif" font-size="13" font-weight="bold" lengthAdjust="spacing" textLength="15.1709" x="25" y="507.1416">alt</text><text fill="#000000" font-family="sans-serif" font-size="11" font-weight="bold" lengthAdjust="spacing" textLength="85.54" x="85.1709" y="505.9834">[User not found]</text><polygon fill="#181818" points="687.7485,530.6953,677.7485,534.6953,687.7485,538.6953,683.7485,534.6953" style="stroke:#181818;stroke-width:1.0;"/><line style="stroke:#181818;stroke-width:1.0;stroke-dasharray:2.0,2.0;" x1="681.7485" x2="922.3374" y1="534.6953" y2="534.6953"/><text fill="#000000" font-family="sans-serif" font-size="13" lengthAdjust="spacing" textLength="31.0781" x="693.7485" y="529.4326">None</text><polygon fill="#181818" points="322.748,561.9863,312.748,565.9863,322.748,569.9863,318.748,565.9863" style="stroke:#181818;stroke-width:1.0;"/><line style="stroke:#181818;stroke-width:1.0;stroke-dasharray:2.0,2.0;" x1="316.748" x2="665.7485" y1="565.9863" y2="565.9863"/><text fill="#000000" font-family="sans-serif" font-size="13" lengthAdjust="spacing" textLength="336.0005" x="328.748" y="560.7236">HTTP Response: 401 Unauthorized (Credentials not valid)</text><polygon fill="#181818" points="48.7793,593.2773,38.7793,597.2773,48.7793,601.2773,44.7793,597.2773" style="stroke:#181818;stroke-width:1.0;"/><line style="stroke:#181818;stroke-width:1.0;stroke-dasharray:2.0,2.0;" x1="42.7793" x2="305.748" y1="597.2773" y2="597.2773"/><text fill="#000000" font-family="sans-serif" font-size="13" lengthAdjust="spacing" textLength="143.0571" x="54.7793" y="592.0146">Error: Invalid Credentials</text><polygon fill="#181818" points="687.7485,631.5684,677.7485,635.5684,687.7485,639.5684,683.7485,635.5684" style="stroke:#181818;stroke-width:1.0;"/><line style="stroke:#181818;stroke-width:1.0;stroke-dasharray:2.0,2.0;" x1="681.7485" x2="927.3374" y1="635.5684" y2="635.5684"/><text fill="#000000" font-family="sans-serif" font-size="13" lengthAdjust="spacing" textLength="65.749" x="693.7485" y="630.3057">User object</text><polygon fill="#181818" points="911.3374,662.8594,921.3374,666.8594,911.3374,670.8594,915.3374,666.8594" style="stroke:#181818;stroke-width:1.0;"/><line style="stroke:#181818;stroke-width:1.0;" x1="676.7485" x2="917.3374" y1="666.8594" y2="666.8594"/><text fill="#000000" font-family="sans-serif" font-size="13" lengthAdjust="spacing" textLength="227.5889" x="683.7485" y="661.5967">verify_password(User, plain_password)</text><polygon fill="#181818" points="1158.1436,694.1504,1168.1436,698.1504,1158.1436,702.1504,1162.1436,698.1504" style="stroke:#181818;stroke-width:1.0;"/><line style="stroke:#181818;stroke-width:1.0;" x1="933.3374" x2="1164.1436" y1="698.1504" y2="698.1504"/><text fill="#000000" font-family="sans-serif" font-size="13" lengthAdjust="spacing" textLength="192.918" x="940.3374" y="692.8877">verify_password(plain_password)</text><line style="stroke:#181818;stroke-width:1.0;" x1="1185.1436" x2="1227.1436" y1="729.4414" y2="729.4414"/><line style="stroke:#181818;stroke-width:1.0;" x1="1227.1436" x2="1227.1436" y1="729.4414" y2="742.4414"/><line style="stroke:#181818;stroke-width:1.0;" x1="1186.1436" x2="1227.1436" y1="742.4414" y2="742.4414"/><polygon fill="#181818" points="1196.1436,738.4414,1186.1436,742.4414,1196.1436,746.4414,1192.1436,742.4414" style="stroke:#181818;stroke-width:1.0;"/><text fill="#000000" font-family="sans-serif" font-size="13" lengthAdjust="spacing" textLength="184.2725" x="1192.1436" y="724.1787">__hash_secret(plain_password)</text><path d="M10,787.4414 L70.1709,787.4414 L70.1709,796.7324 L60.1709,806.7324 L10,806.7324 L10,787.4414 " fill="#EEEEEE" style="stroke:#000000;stroke-width:1.5;"/><rect fill="none" height="144.4551" style="stroke:#000000;stroke-width:1.5;" width="1267.3467" x="10" y="787.4414"/><text fill="#000000" font-family="sans-serif" font-size="13" font-weight="bold" lengthAdjust="spacing" textLength="15.1709" x="25" y="802.4697">alt</text><text fill="#000000" font-family="sans-serif" font-size="11" font-weight="bold" lengthAdjust="spacing" textLength="113.7007" x="85.1709" y="801.3115">[Password mismatch]</text><polygon fill="#181818" points="944.3374,826.0234,934.3374,830.0234,944.3374,834.0234,940.3374,830.0234" style="stroke:#181818;stroke-width:1.0;"/><line style="stroke:#181818;stroke-width:1.0;stroke-dasharray:2.0,2.0;" x1="938.3374" x2="1169.1436" y1="830.0234" y2="830.0234"/><text fill="#000000" font-family="sans-serif" font-size="13" lengthAdjust="spacing" textLength="31.7891" x="950.3374" y="824.7607">False</text><polygon fill="#181818" points="687.7485,857.3145,677.7485,861.3145,687.7485,865.3145,683.7485,861.3145" style="stroke:#181818;stroke-width:1.0;"/><line style="stroke:#181818;stroke-width:1.0;stroke-dasharray:2.0,2.0;" x1="681.7485" x2="922.3374" y1="861.3145" y2="861.3145"/><text fill="#000000" font-family="sans-serif" font-size="13" lengthAdjust="spacing" textLength="31.7891" x="693.7485" y="856.0518">False</text><polygon fill="#181818" points="322.748,888.6055,312.748,892.6055,322.748,896.6055,318.748,892.6055" style="stroke:#181818;stroke-width:1.0;"/><line style="stroke:#181818;stroke-width:1.0;stroke-dasharray:2.0,2.0;" x1="316.748" x2="665.7485" y1="892.6055" y2="892.6055"/><text fill="#000000" font-family="sans-serif" font-size="13" lengthAdjust="spacing" textLength="336.0005" x="328.748" y="887.3428">HTTP Response: 401 Unauthorized (Credentials not valid)</text><polygon fill="#181818" points="48.7793,919.8965,38.7793,923.8965,48.7793,927.8965,44.7793,923.8965" style="stroke:#181818;stroke-width:1.0;"/><line style="stroke:#181818;stroke-width:1.0;stroke-dasharray:2.0,2.0;" x1="42.7793" x2="305.748" y1="923.8965" y2="923.8965"/><text fill="#000000" font-family="sans-serif" font-size="13" lengthAdjust="spacing" textLength="143.0571" x="54.7793" y="918.6338">Error: Invalid Credentials</text><polygon fill="#181818" points="944.3374,958.1875,934.3374,962.1875,944.3374,966.1875,940.3374,962.1875" style="stroke:#181818;stroke-width:1.0;"/><line style="stroke:#181818;stroke-width:1.0;stroke-dasharray:2.0,2.0;" x1="938.3374" x2="1174.1436" y1="962.1875" y2="962.1875"/><text fill="#000000" font-family="sans-serif" font-size="13" lengthAdjust="spacing" textLength="26.73" x="950.3374" y="956.9248">True</text><polygon fill="#181818" points="687.7485,989.4785,677.7485,993.4785,687.7485,997.4785,683.7485,993.4785" style="stroke:#181818;stroke-width:1.0;"/><line style="stroke:#181818;stroke-width:1.0;stroke-dasharray:2.0,2.0;" x1="681.7485" x2="927.3374" y1="993.4785" y2="993.4785"/><text fill="#000000" font-family="sans-serif" font-size="13" lengthAdjust="spacing" textLength="26.73" x="693.7485" y="988.2158">True</text><polygon fill="#181818" points="1011.1992,1020.7695,1021.1992,1024.7695,1011.1992,1028.7695,1015.1992,1024.7695" style="stroke:#181818;stroke-width:1.0;"/><line style="stroke:#181818;stroke-width:1.0;" x1="676.7485" x2="1017.1992" y1="1024.7695" y2="1024.7695"/><text fill="#000000" font-family="sans-serif" font-size="13" lengthAdjust="spacing" textLength="110.5444" x="683.7485" y="1019.5068">generate_jwt(User)</text><polygon fill="#181818" points="687.7485,1052.0605,677.7485,1056.0605,687.7485,1060.0605,683.7485,1056.0605" style="stroke:#181818;stroke-width:1.0;"/><line style="stroke:#181818;stroke-width:1.0;stroke-dasharray:2.0,2.0;" x1="681.7485" x2="1027.1992" y1="1056.0605" y2="1056.0605"/><text fill="#000000" font-family="sans-serif" font-size="13" lengthAdjust="spacing" textLength="37.5527" x="693.7485" y="1050.7979">jwt: str</text><polygon fill="#181818" points="322.748,1083.3516,312.748,1087.3516,322.748,1091.3516,318.748,1087.3516" style="stroke:#181818;stroke-width:1.0;"/><line style="stroke:#181818;stroke-width:1.0;stroke-dasharray:2.0,2.0;" x1="316.748" x2="670.7485" y1="1087.3516" y2="1087.3516"/><text fill="#000000" font-family="sans-serif" font-size="13" lengthAdjust="spacing" textLength="175.5825" x="328.748" y="1082.0889">HTTP Response: 200 OK {jwt}</text><polygon fill="#181818" points="48.7793,1114.6426,38.7793,1118.6426,48.7793,1122.6426,44.7793,1118.6426" style="stroke:#181818;stroke-width:1.0;"/><line style="stroke:#181818;stroke-width:1.0;stroke-dasharray:2.0,2.0;" x1="42.7793" x2="305.748" y1="1118.6426" y2="1118.6426"/><text fill="#000000" font-family="sans-serif" font-size="13" lengthAdjust="spacing" textLength="219.6733" x="54.7793" y="1113.3799">Login Success (redirect to dashboard)</text><!--SRC=[rLHHRzem47xFhpYn5v26nghj1OrAsGhQD58OWRTAaKaES1Vip7Qeqch_VMS7g5CAUovFmRxlkxllFXzBZLJGMcXKBM0QmgAmtq71bE4fBvWmq1efAGoA3DepPAdfkCZHi1dq8PThBa39qk2TQ8zofd_3rxp4Gd6nnundJOnD5QFQyHJT_I9kteUbsVZtONoAXqXccCDaUO-feSJnht6OfnlSLc0at333banZdNyH1S5W06DNwLJ95BM6jcE9IOSAtbrzxi1W4EnbWEurzGbzk6KxlcO6jUMi6rr9jGr83RwZSwl60VEbswr1DrmNEQly-0nVGnoo34bbfI5LcA4mdEKQdd3BUFuUY8YBf61QFqYL_Mqa9YmnZ6V4y7q-dy9q4i_F0fiL7BzfCaH0D8kOQBXE73onHJEJx5ZEixOxwZnZQ5eiDp2qnr17Wf06N7G0z2DAguRZ754xw4wfNdlwNF0CTI65nZvywds4XM0qTgdu8vBZldbY7CaxZiTlnFu_6S1GAQdwy4Cu47XKBhuf1VaxyEkTgn9zjQXRJw4_9QegAIbTigngiSxfusgofQzaAKvrkPNYBSdYgAHxR2_KyUNPeUAhwcWxzyHUUh6f5C4iE7e5V1uM1GGum99am_GcqKZlnrm4-NL7RaRJVHnikIORfnkd1DNa-euQzdrhflQxE35rz3_FxwSQskir2bHqdjm_63TIJzOmFZ2vK8heWpRAPwEG2ofTzNem-GbFX6niATfC5xTilSpZCgsNESd15PdJBkgC_B2Kp8w_8Si_]--></g></svg>