<svg xmlns="http://www.w3.org/2000/svg" xmlns:xlink="http://www.w3.org/1999/xlink" contentStyleType="text/css" height="2364.3px" preserveAspectRatio="none" style="width:1572px;height:2364px;background:#FFFFFF;" version="1.1" viewBox="0 0 1572 2364" width="1572.3px" zoomAndPan="magnify"><defs/><g><rect fill="#FFFFFF" height="77.2857" style="stroke:#181818;stroke-width:0.9;" width="9" x="53.9191" y="60.518"/><rect fill="#FFFFFF" height="33.5619" style="stroke:#181818;stroke-width:0.9;" width="9" x="53.9191" y="2258.2424"/><rect fill="#FFFFFF" height="2120.4387" style="stroke:#181818;stroke-width:0.9;" width="9" x="430.585" y="137.8037"/><rect fill="#FFFFFF" height="2014.991" style="stroke:#181818;stroke-width:0.9;" width="9" x="753.224" y="165.9656"/><rect fill="#FFFFFF" height="169.6096" style="stroke:#181818;stroke-width:0.9;" width="9" x="757.724" y="201.3275"/><rect fill="#FFFFFF" height="203.1715" style="stroke:#181818;stroke-width:0.9;" width="9" x="757.724" y="412.599"/><rect fill="#FFFFFF" height="169.6096" style="stroke:#181818;stroke-width:0.9;" width="9" x="757.724" y="657.4324"/><rect fill="#FFFFFF" height="169.6096" style="stroke:#181818;stroke-width:0.9;" width="9" x="757.724" y="868.7039"/><rect fill="#FFFFFF" height="169.6096" style="stroke:#181818;stroke-width:0.9;" width="9" x="757.724" y="1079.9754"/><rect fill="#FFFFFF" height="169.6096" style="stroke:#181818;stroke-width:0.9;" width="9" x="757.724" y="1291.2469"/><rect fill="#FFFFFF" height="169.6096" style="stroke:#181818;stroke-width:0.9;" width="9" x="757.724" y="1502.5184"/><rect fill="#FFFFFF" height="148.0096" style="stroke:#181818;stroke-width:0.9;" width="9" x="1179.8358" y="1949.6232"/><rect fill="#FFFFFF" height="214.8715" style="stroke:#181818;stroke-width:0.9;" width="9" x="1337.9779" y="1706.5898"/><rect fill="#FFFFFF" height="25.2" style="stroke:#181818;stroke-width:0.9;" width="9" x="1342.4779" y="1741.9518"/><rect fill="#FFFFFF" height="27" style="stroke:#181818;stroke-width:0.9;" width="9" x="1337.9779" y="2125.7947"/><rect fill="none" height="118.9477" style="stroke:#000000;stroke-width:1.35;" width="433.0688" x="373.9223" y="219.3275"/><rect fill="none" height="152.5096" style="stroke:#000000;stroke-width:1.35;" width="754.7542" x="373.9223" y="430.599"/><rect fill="none" height="118.9477" style="stroke:#000000;stroke-width:1.35;" width="433.0688" x="373.9223" y="675.4324"/><rect fill="none" height="118.9477" style="stroke:#000000;stroke-width:1.35;" width="433.0688" x="373.9223" y="886.7039"/><rect fill="none" height="118.9477" style="stroke:#000000;stroke-width:1.35;" width="433.0688" x="373.9223" y="1097.9754"/><rect fill="none" height="118.9477" style="stroke:#000000;stroke-width:1.35;" width="433.0688" x="373.9223" y="1309.2469"/><rect fill="none" height="118.9477" style="stroke:#000000;stroke-width:1.35;" width="433.0688" x="373.9223" y="1520.5184"/><rect fill="none" height="107.2477" style="stroke:#000000;stroke-width:1.35;" width="1086.0891" x="373.9223" y="1786.9518"/><rect fill="none" height="107.2477" style="stroke:#000000;stroke-width:1.35;" width="860.0221" x="373.9223" y="1963.1232"/><line style="stroke:#181818;stroke-width:0.45;stroke-dasharray:5.0,5.0;" x1="57.6" x2="57.6" y1="51.518" y2="2314.3043"/><line style="stroke:#181818;stroke-width:0.45;stroke-dasharray:5.0,5.0;" x1="434.2223" x2="434.2223" y1="51.518" y2="2314.3043"/><line style="stroke:#181818;stroke-width:0.45;stroke-dasharray:5.0,5.0;" x1="757.0569" x2="757.0569" y1="51.518" y2="2314.3043"/><line style="stroke:#181818;stroke-width:0.45;stroke-dasharray:5.0,5.0;" x1="1184.2273" x2="1184.2273" y1="51.518" y2="2314.3043"/><line style="stroke:#181818;stroke-width:0.45;stroke-dasharray:5.0,5.0;" x1="1341.9444" x2="1341.9444" y1="51.518" y2="2314.3043"/><rect fill="#E2E2F0" height="29.359" rx="2.25" ry="2.25" style="stroke:#181818;stroke-width:0.45;" width="107.8383" x="4.5" y="21.259"/><text fill="#000000" font-family="sans-serif" font-size="12.6" lengthAdjust="spacing" textLength="95.2383" x="10.8" y="41.1557">Frontend (React)</text><rect fill="#E2E2F0" height="29.359" rx="2.25" ry="2.25" style="stroke:#181818;stroke-width:0.45;" width="107.8383" x="4.5" y="2313.4043"/><text fill="#000000" font-family="sans-serif" font-size="12.6" lengthAdjust="spacing" textLength="95.2383" x="10.8" y="2333.301">Frontend (React)</text><rect fill="#E2E2F0" height="46.118" rx="2.25" ry="2.25" style="stroke:#181818;stroke-width:0.45;" width="104.3253" x="382.9223" y="4.5"/><text fill="#000000" font-family="sans-serif" font-size="12.6" lengthAdjust="spacing" textLength="74.9355" x="397.6172" y="24.3967">/refresh route</text><text fill="#000000" font-family="sans-serif" font-size="12.6" lengthAdjust="spacing" textLength="91.7253" x="389.2223" y="41.1557">(Flask Blueprint)</text><rect fill="#E2E2F0" height="46.118" rx="2.25" ry="2.25" style="stroke:#181818;stroke-width:0.45;" width="104.3253" x="382.9223" y="2313.4043"/><text fill="#000000" font-family="sans-serif" font-size="12.6" lengthAdjust="spacing" textLength="74.9355" x="397.6172" y="2333.301">/refresh route</text><text fill="#000000" font-family="sans-serif" font-size="12.6" lengthAdjust="spacing" textLength="91.7253" x="389.2223" y="2350.06">(Flask Blueprint)</text><rect fill="#E2E2F0" height="29.359" rx="2.25" ry="2.25" style="stroke:#181818;stroke-width:0.45;" width="80.5342" x="717.4569" y="21.259"/><text fill="#000000" font-family="sans-serif" font-size="12.6" lengthAdjust="spacing" textLength="67.9342" x="723.7569" y="41.1557">AuthService</text><rect fill="#E2E2F0" height="29.359" rx="2.25" ry="2.25" style="stroke:#181818;stroke-width:0.45;" width="80.5342" x="717.4569" y="2313.4043"/><text fill="#000000" font-family="sans-serif" font-size="12.6" lengthAdjust="spacing" textLength="67.9342" x="723.7569" y="2333.301">AuthService</text><rect fill="#E2E2F0" height="29.359" rx="2.25" ry="2.25" style="stroke:#181818;stroke-width:0.45;" width="81.2171" x="1143.7273" y="21.259"/><text fill="#000000" font-family="sans-serif" font-size="12.6" lengthAdjust="spacing" textLength="68.6171" x="1150.0273" y="41.1557">UserService</text><rect fill="#E2E2F0" height="29.359" rx="2.25" ry="2.25" style="stroke:#181818;stroke-width:0.45;" width="81.2171" x="1143.7273" y="2313.4043"/><text fill="#000000" font-family="sans-serif" font-size="12.6" lengthAdjust="spacing" textLength="68.6171" x="1150.0273" y="2333.301">UserService</text><rect fill="#E2E2F0" height="46.118" rx="2.25" ry="2.25" style="stroke:#181818;stroke-width:0.45;" width="217.067" x="1233.9444" y="4.5"/><text fill="#000000" font-family="sans-serif" font-size="12.6" lengthAdjust="spacing" textLength="204.467" x="1240.2444" y="24.3967">WhitelistedJWTRefreshToken Model</text><text fill="#000000" font-family="sans-serif" font-size="12.6" lengthAdjust="spacing" textLength="154.4115" x="1265.2721" y="41.1557">(SQLAlchemy -&gt; Database)</text><rect fill="#E2E2F0" height="46.118" rx="2.25" ry="2.25" style="stroke:#181818;stroke-width:0.45;" width="217.067" x="1233.9444" y="2313.4043"/><text fill="#000000" font-family="sans-serif" font-size="12.6" lengthAdjust="spacing" textLength="204.467" x="1240.2444" y="2333.301">WhitelistedJWTRefreshToken Model</text><text fill="#000000" font-family="sans-serif" font-size="12.6" lengthAdjust="spacing" textLength="154.4115" x="1265.2721" y="2350.06">(SQLAlchemy -&gt; Database)</text><rect fill="#FFFFFF" height="77.2857" style="stroke:#181818;stroke-width:0.9;" width="9" x="53.9191" y="60.518"/><rect fill="#FFFFFF" height="33.5619" style="stroke:#181818;stroke-width:0.9;" width="9" x="53.9191" y="2258.2424"/><rect fill="#FFFFFF" height="2120.4387" style="stroke:#181818;stroke-width:0.9;" width="9" x="430.585" y="137.8037"/><rect fill="#FFFFFF" height="2014.991" style="stroke:#181818;stroke-width:0.9;" width="9" x="753.224" y="165.9656"/><rect fill="#FFFFFF" height="169.6096" style="stroke:#181818;stroke-width:0.9;" width="9" x="757.724" y="201.3275"/><rect fill="#FFFFFF" height="203.1715" style="stroke:#181818;stroke-width:0.9;" width="9" x="757.724" y="412.599"/><rect fill="#FFFFFF" height="169.6096" style="stroke:#181818;stroke-width:0.9;" width="9" x="757.724" y="657.4324"/><rect fill="#FFFFFF" height="169.6096" style="stroke:#181818;stroke-width:0.9;" width="9" x="757.724" y="868.7039"/><rect fill="#FFFFFF" height="169.6096" style="stroke:#181818;stroke-width:0.9;" width="9" x="757.724" y="1079.9754"/><rect fill="#FFFFFF" height="169.6096" style="stroke:#181818;stroke-width:0.9;" width="9" x="757.724" y="1291.2469"/><rect fill="#FFFFFF" height="169.6096" style="stroke:#181818;stroke-width:0.9;" width="9" x="757.724" y="1502.5184"/><rect fill="#FFFFFF" height="148.0096" style="stroke:#181818;stroke-width:0.9;" width="9" x="1179.8358" y="1949.6232"/><rect fill="#FFFFFF" height="214.8715" style="stroke:#181818;stroke-width:0.9;" width="9" x="1337.9779" y="1706.5898"/><rect fill="#FFFFFF" height="25.2" style="stroke:#181818;stroke-width:0.9;" width="9" x="1342.4779" y="1741.9518"/><rect fill="#FFFFFF" height="27" style="stroke:#181818;stroke-width:0.9;" width="9" x="1337.9779" y="2125.7947"/><rect fill="#EEEEEE" height="2.7" style="stroke:#EEEEEE;stroke-width:0.9;" width="1566.2421" x="0" y="79.9989"/><line style="stroke:#000000;stroke-width:0.9;" x1="0" x2="1566.2421" y1="79.9989" y2="79.9989"/><line style="stroke:#000000;stroke-width:0.9;" x1="0" x2="1566.2421" y1="82.6989" y2="82.6989"/><rect fill="#EEEEEE" height="22.7619" style="stroke:#000000;stroke-width:1.8;" width="141.9798" x="712.1312" y="69.518"/><text fill="#000000" font-family="sans-serif" font-size="11.7" font-weight="bold" lengthAdjust="spacing" textLength="126.1292" x="717.5312" y="85.7435">(Generic) Refresh JWT</text><polygon fill="#181818" points="419.785,134.2037,428.785,137.8037,419.785,141.4037,423.385,137.8037" style="stroke:#181818;stroke-width:0.9;"/><line style="stroke:#181818;stroke-width:0.9;" x1="58.4191" x2="425.185" y1="137.8037" y2="137.8037"/><text fill="#000000" font-family="sans-serif" font-size="11.7" lengthAdjust="spacing" textLength="115.7317" x="64.7191" y="117.5054">HTTP Request: POST</text><text fill="#000000" font-family="sans-serif" font-size="11.7" lengthAdjust="spacing" textLength="350.5658" x="64.7191" y="133.0673">{expired access_jwt, encoded_refresh_jwt, user_agent, ip_address}</text><polygon fill="#181818" points="742.424,162.3656,751.424,165.9656,742.424,169.5656,746.024,165.9656" style="stroke:#181818;stroke-width:0.9;"/><line style="stroke:#181818;stroke-width:0.9;" x1="439.585" x2="747.824" y1="165.9656" y2="165.9656"/><text fill="#000000" font-family="sans-serif" font-size="11.7" lengthAdjust="spacing" textLength="296.539" x="445.885" y="161.2292">verify_refresh_request(access_jwt, encoded_refresh_jwt)</text><line style="stroke:#181818;stroke-width:0.9;" x1="762.224" x2="804.524" y1="189.6275" y2="189.6275"/><line style="stroke:#181818;stroke-width:0.9;" x1="804.524" x2="804.524" y1="189.6275" y2="201.3275"/><line style="stroke:#181818;stroke-width:0.9;" x1="767.624" x2="804.524" y1="201.3275" y2="201.3275"/><polygon fill="#181818" points="776.624,197.7275,767.624,201.3275,776.624,204.9275,773.024,201.3275" style="stroke:#181818;stroke-width:0.9;"/><text fill="#000000" font-family="sans-serif" font-size="11.7" lengthAdjust="spacing" textLength="137.2179" x="773.024" y="184.8911">__decode_jwt(access_jwt)</text><path d="M373.9223,219.3275 L428.0761,219.3275 L428.0761,227.6895 L419.0761,236.6895 L373.9223,236.6895 L373.9223,219.3275 " fill="#EEEEEE" style="stroke:#000000;stroke-width:1.35;"/><rect fill="none" height="118.9477" style="stroke:#000000;stroke-width:1.35;" width="433.0688" x="373.9223" y="219.3275"/><text fill="#000000" font-family="sans-serif" font-size="11.7" font-weight="bold" lengthAdjust="spacing" textLength="13.6538" x="387.4223" y="232.853">alt</text><text fill="#000000" font-family="sans-serif" font-size="9.9" font-weight="bold" lengthAdjust="spacing" textLength="133.6887" x="441.5761" y="231.8106">[Decoding access JWT fails]</text><line style="stroke:#181818;stroke-width:0.9;stroke-dasharray:2.0,2.0;" x1="715.424" x2="756.824" y1="257.6514" y2="257.6514"/><line style="stroke:#181818;stroke-width:0.9;stroke-dasharray:2.0,2.0;" x1="715.424" x2="715.424" y1="257.6514" y2="269.3514"/><line style="stroke:#181818;stroke-width:0.9;stroke-dasharray:2.0,2.0;" x1="715.424" x2="755.924" y1="269.3514" y2="269.3514"/><polygon fill="#181818" points="746.924,265.7514,755.924,269.3514,746.924,272.9514,750.524,269.3514" style="stroke:#181818;stroke-width:0.9;"/><text fill="#000000" font-family="sans-serif" font-size="11.7" lengthAdjust="spacing" textLength="27.9703" x="714.524" y="252.9149">None</text><polygon fill="#181818" points="449.485,293.9133,440.485,297.5133,449.485,301.1133,445.885,297.5133" style="stroke:#181818;stroke-width:0.9;"/><line style="stroke:#181818;stroke-width:0.9;stroke-dasharray:2.0,2.0;" x1="444.085" x2="756.824" y1="297.5133" y2="297.5133"/><text fill="#000000" font-family="sans-serif" font-size="11.7" lengthAdjust="spacing" textLength="27.9703" x="454.885" y="292.7769">None</text><path d="M443.7,309.2133 L443.7,333.5133 L670.5,333.5133 L670.5,318.2133 L661.5,309.2133 L443.7,309.2133 " fill="#FEFFDD" style="stroke:#181818;stroke-width:0.45;"/><path d="M661.5,309.2133 L661.5,318.2133 L670.5,318.2133 L661.5,309.2133 " fill="#FEFFDD" style="stroke:#181818;stroke-width:0.45;"/><text fill="#000000" font-family="sans-serif" font-size="11.7" lengthAdjust="spacing" textLength="208.0863" x="449.1" y="326.3388">Revoke JWT: see sep. generic diagram.</text><line style="stroke:#181818;stroke-width:0.9;stroke-dasharray:2.0,2.0;" x1="715.424" x2="756.824" y1="370.0371" y2="370.0371"/><line style="stroke:#181818;stroke-width:0.9;stroke-dasharray:2.0,2.0;" x1="715.424" x2="715.424" y1="370.0371" y2="381.7371"/><line style="stroke:#181818;stroke-width:0.9;stroke-dasharray:2.0,2.0;" x1="715.424" x2="751.424" y1="381.7371" y2="381.7371"/><polygon fill="#181818" points="742.424,378.1371,751.424,381.7371,742.424,385.3371,746.024,381.7371" style="stroke:#181818;stroke-width:0.9;"/><text fill="#000000" font-family="sans-serif" font-size="11.7" lengthAdjust="spacing" textLength="108.6192" x="638.3048" y="365.3007">decoded_access_jwt</text><line style="stroke:#181818;stroke-width:0.9;" x1="762.224" x2="804.524" y1="400.899" y2="400.899"/><line style="stroke:#181818;stroke-width:0.9;" x1="804.524" x2="804.524" y1="400.899" y2="412.599"/><line style="stroke:#181818;stroke-width:0.9;" x1="767.624" x2="804.524" y1="412.599" y2="412.599"/><polygon fill="#181818" points="776.624,408.999,767.624,412.599,776.624,416.199,773.024,412.599" style="stroke:#181818;stroke-width:0.9;"/><text fill="#000000" font-family="sans-serif" font-size="11.7" lengthAdjust="spacing" textLength="213.9763" x="773.024" y="396.1626">__has_jwt_expired(decoded_access_jwt)</text><path d="M373.9223,430.599 L428.0761,430.599 L428.0761,438.9609 L419.0761,447.9609 L373.9223,447.9609 L373.9223,430.599 " fill="#EEEEEE" style="stroke:#000000;stroke-width:1.35;"/><rect fill="none" height="152.5096" style="stroke:#000000;stroke-width:1.35;" width="754.7542" x="373.9223" y="430.599"/><text fill="#000000" font-family="sans-serif" font-size="11.7" font-weight="bold" lengthAdjust="spacing" textLength="13.6538" x="387.4223" y="444.1245">alt</text><text fill="#000000" font-family="sans-serif" font-size="9.9" font-weight="bold" lengthAdjust="spacing" textLength="139.1946" x="441.5761" y="443.0821">[access JWT has not expired]</text><line style="stroke:#181818;stroke-width:0.9;stroke-dasharray:2.0,2.0;" x1="715.424" x2="756.824" y1="468.9229" y2="468.9229"/><line style="stroke:#181818;stroke-width:0.9;stroke-dasharray:2.0,2.0;" x1="715.424" x2="715.424" y1="468.9229" y2="480.6229"/><line style="stroke:#181818;stroke-width:0.9;stroke-dasharray:2.0,2.0;" x1="715.424" x2="755.924" y1="480.6229" y2="480.6229"/><polygon fill="#181818" points="746.924,477.0229,755.924,480.6229,746.924,484.2229,750.524,480.6229" style="stroke:#181818;stroke-width:0.9;"/><text fill="#000000" font-family="sans-serif" font-size="11.7" lengthAdjust="spacing" textLength="28.6102" x="714.524" y="464.1864">False</text><path d="M770.4,492.3229 L770.4,516.6229 L1119.6,516.6229 L1119.6,501.3229 L1110.6,492.3229 L770.4,492.3229 " fill="#FEFFDD" style="stroke:#181818;stroke-width:0.45;"/><path d="M1110.6,492.3229 L1110.6,501.3229 L1119.6,501.3229 L1110.6,492.3229 " fill="#FEFFDD" style="stroke:#181818;stroke-width:0.45;"/><text fill="#000000" font-family="sans-serif" font-size="11.7" lengthAdjust="spacing" textLength="330.3765" x="775.8" y="509.4483">Note: only expired access token authorize for new access token</text><polygon fill="#181818" points="449.485,538.7467,440.485,542.3467,449.485,545.9467,445.885,542.3467" style="stroke:#181818;stroke-width:0.9;"/><line style="stroke:#181818;stroke-width:0.9;stroke-dasharray:2.0,2.0;" x1="444.085" x2="756.824" y1="542.3467" y2="542.3467"/><text fill="#000000" font-family="sans-serif" font-size="11.7" lengthAdjust="spacing" textLength="27.9703" x="454.885" y="537.6103">None</text><path d="M443.7,554.0467 L443.7,578.3467 L670.5,578.3467 L670.5,563.0467 L661.5,554.0467 L443.7,554.0467 " fill="#FEFFDD" style="stroke:#181818;stroke-width:0.45;"/><path d="M661.5,554.0467 L661.5,563.0467 L670.5,563.0467 L661.5,554.0467 " fill="#FEFFDD" style="stroke:#181818;stroke-width:0.45;"/><text fill="#000000" font-family="sans-serif" font-size="11.7" lengthAdjust="spacing" textLength="208.0863" x="449.1" y="571.1722">Revoke JWT: see sep. generic diagram.</text><line style="stroke:#181818;stroke-width:0.9;stroke-dasharray:2.0,2.0;" x1="715.424" x2="756.824" y1="614.8705" y2="614.8705"/><line style="stroke:#181818;stroke-width:0.9;stroke-dasharray:2.0,2.0;" x1="715.424" x2="715.424" y1="614.8705" y2="626.5705"/><line style="stroke:#181818;stroke-width:0.9;stroke-dasharray:2.0,2.0;" x1="715.424" x2="751.424" y1="626.5705" y2="626.5705"/><polygon fill="#181818" points="742.424,622.9705,751.424,626.5705,742.424,630.1705,746.024,626.5705" style="stroke:#181818;stroke-width:0.9;"/><text fill="#000000" font-family="sans-serif" font-size="11.7" lengthAdjust="spacing" textLength="24.057" x="714.524" y="610.1341">True</text><line style="stroke:#181818;stroke-width:0.9;" x1="762.224" x2="804.524" y1="645.7324" y2="645.7324"/><line style="stroke:#181818;stroke-width:0.9;" x1="804.524" x2="804.524" y1="645.7324" y2="657.4324"/><line style="stroke:#181818;stroke-width:0.9;" x1="767.624" x2="804.524" y1="657.4324" y2="657.4324"/><polygon fill="#181818" points="776.624,653.8324,767.624,657.4324,776.624,661.0324,773.024,657.4324" style="stroke:#181818;stroke-width:0.9;"/><text fill="#000000" font-family="sans-serif" font-size="11.7" lengthAdjust="spacing" textLength="162.566" x="773.024" y="640.996">__is_jwt_blacklisted(access_jti)</text><path d="M373.9223,675.4324 L428.0761,675.4324 L428.0761,683.7943 L419.0761,692.7943 L373.9223,692.7943 L373.9223,675.4324 " fill="#EEEEEE" style="stroke:#000000;stroke-width:1.35;"/><rect fill="none" height="118.9477" style="stroke:#000000;stroke-width:1.35;" width="433.0688" x="373.9223" y="675.4324"/><text fill="#000000" font-family="sans-serif" font-size="11.7" font-weight="bold" lengthAdjust="spacing" textLength="13.6538" x="387.4223" y="688.9579">alt</text><text fill="#000000" font-family="sans-serif" font-size="9.9" font-weight="bold" lengthAdjust="spacing" textLength="118.8628" x="441.5761" y="687.9155">[access_jti is blacklisted]</text><line style="stroke:#181818;stroke-width:0.9;stroke-dasharray:2.0,2.0;" x1="715.424" x2="756.824" y1="713.7563" y2="713.7563"/><line style="stroke:#181818;stroke-width:0.9;stroke-dasharray:2.0,2.0;" x1="715.424" x2="715.424" y1="713.7563" y2="725.4563"/><line style="stroke:#181818;stroke-width:0.9;stroke-dasharray:2.0,2.0;" x1="715.424" x2="755.924" y1="725.4563" y2="725.4563"/><polygon fill="#181818" points="746.924,721.8563,755.924,725.4563,746.924,729.0563,750.524,725.4563" style="stroke:#181818;stroke-width:0.9;"/><text fill="#000000" font-family="sans-serif" font-size="11.7" lengthAdjust="spacing" textLength="24.057" x="714.524" y="709.0198">True</text><polygon fill="#181818" points="449.485,750.0182,440.485,753.6182,449.485,757.2182,445.885,753.6182" style="stroke:#181818;stroke-width:0.9;"/><line style="stroke:#181818;stroke-width:0.9;stroke-dasharray:2.0,2.0;" x1="444.085" x2="756.824" y1="753.6182" y2="753.6182"/><text fill="#000000" font-family="sans-serif" font-size="11.7" lengthAdjust="spacing" textLength="27.9703" x="454.885" y="748.8817">None</text><path d="M443.7,765.3182 L443.7,789.6182 L670.5,789.6182 L670.5,774.3182 L661.5,765.3182 L443.7,765.3182 " fill="#FEFFDD" style="stroke:#181818;stroke-width:0.45;"/><path d="M661.5,765.3182 L661.5,774.3182 L670.5,774.3182 L661.5,765.3182 " fill="#FEFFDD" style="stroke:#181818;stroke-width:0.45;"/><text fill="#000000" font-family="sans-serif" font-size="11.7" lengthAdjust="spacing" textLength="208.0863" x="449.1" y="782.4437">Revoke JWT: see sep. generic diagram.</text><line style="stroke:#181818;stroke-width:0.9;stroke-dasharray:2.0,2.0;" x1="715.424" x2="756.824" y1="826.142" y2="826.142"/><line style="stroke:#181818;stroke-width:0.9;stroke-dasharray:2.0,2.0;" x1="715.424" x2="715.424" y1="826.142" y2="837.842"/><line style="stroke:#181818;stroke-width:0.9;stroke-dasharray:2.0,2.0;" x1="715.424" x2="751.424" y1="837.842" y2="837.842"/><polygon fill="#181818" points="742.424,834.242,751.424,837.842,742.424,841.442,746.024,837.842" style="stroke:#181818;stroke-width:0.9;"/><text fill="#000000" font-family="sans-serif" font-size="11.7" lengthAdjust="spacing" textLength="28.6102" x="714.524" y="821.4056">False</text><line style="stroke:#181818;stroke-width:0.9;" x1="762.224" x2="804.524" y1="857.0039" y2="857.0039"/><line style="stroke:#181818;stroke-width:0.9;" x1="804.524" x2="804.524" y1="857.0039" y2="868.7039"/><line style="stroke:#181818;stroke-width:0.9;" x1="767.624" x2="804.524" y1="868.7039" y2="868.7039"/><polygon fill="#181818" points="776.624,865.1039,767.624,868.7039,776.624,872.3039,773.024,868.7039" style="stroke:#181818;stroke-width:0.9;"/><text fill="#000000" font-family="sans-serif" font-size="11.7" lengthAdjust="spacing" textLength="137.2179" x="773.024" y="852.2675">__decode_jwt(refresh_jwt)</text><path d="M373.9223,886.7039 L428.0761,886.7039 L428.0761,895.0658 L419.0761,904.0658 L373.9223,904.0658 L373.9223,886.7039 " fill="#EEEEEE" style="stroke:#000000;stroke-width:1.35;"/><rect fill="none" height="118.9477" style="stroke:#000000;stroke-width:1.35;" width="433.0688" x="373.9223" y="886.7039"/><text fill="#000000" font-family="sans-serif" font-size="11.7" font-weight="bold" lengthAdjust="spacing" textLength="13.6538" x="387.4223" y="900.2294">alt</text><text fill="#000000" font-family="sans-serif" font-size="9.9" font-weight="bold" lengthAdjust="spacing" textLength="134.2204" x="441.5761" y="899.187">[Decoding refresh JWT fails]</text><line style="stroke:#181818;stroke-width:0.9;stroke-dasharray:2.0,2.0;" x1="715.424" x2="756.824" y1="925.0277" y2="925.0277"/><line style="stroke:#181818;stroke-width:0.9;stroke-dasharray:2.0,2.0;" x1="715.424" x2="715.424" y1="925.0277" y2="936.7277"/><line style="stroke:#181818;stroke-width:0.9;stroke-dasharray:2.0,2.0;" x1="715.424" x2="755.924" y1="936.7277" y2="936.7277"/><polygon fill="#181818" points="746.924,933.1277,755.924,936.7277,746.924,940.3277,750.524,936.7277" style="stroke:#181818;stroke-width:0.9;"/><text fill="#000000" font-family="sans-serif" font-size="11.7" lengthAdjust="spacing" textLength="27.9703" x="714.524" y="920.2913">None</text><polygon fill="#181818" points="449.485,961.2896,440.485,964.8896,449.485,968.4896,445.885,964.8896" style="stroke:#181818;stroke-width:0.9;"/><line style="stroke:#181818;stroke-width:0.9;stroke-dasharray:2.0,2.0;" x1="444.085" x2="756.824" y1="964.8896" y2="964.8896"/><text fill="#000000" font-family="sans-serif" font-size="11.7" lengthAdjust="spacing" textLength="27.9703" x="454.885" y="960.1532">None</text><path d="M443.7,976.5896 L443.7,1000.8896 L670.5,1000.8896 L670.5,985.5896 L661.5,976.5896 L443.7,976.5896 " fill="#FEFFDD" style="stroke:#181818;stroke-width:0.45;"/><path d="M661.5,976.5896 L661.5,985.5896 L670.5,985.5896 L661.5,976.5896 " fill="#FEFFDD" style="stroke:#181818;stroke-width:0.45;"/><text fill="#000000" font-family="sans-serif" font-size="11.7" lengthAdjust="spacing" textLength="208.0863" x="449.1" y="993.7151">Revoke JWT: see sep. generic diagram.</text><line style="stroke:#181818;stroke-width:0.9;stroke-dasharray:2.0,2.0;" x1="715.424" x2="756.824" y1="1037.4135" y2="1037.4135"/><line style="stroke:#181818;stroke-width:0.9;stroke-dasharray:2.0,2.0;" x1="715.424" x2="715.424" y1="1037.4135" y2="1049.1135"/><line style="stroke:#181818;stroke-width:0.9;stroke-dasharray:2.0,2.0;" x1="715.424" x2="751.424" y1="1049.1135" y2="1049.1135"/><polygon fill="#181818" points="742.424,1045.5135,751.424,1049.1135,742.424,1052.7135,746.024,1049.1135" style="stroke:#181818;stroke-width:0.9;"/><text fill="#000000" font-family="sans-serif" font-size="11.7" lengthAdjust="spacing" textLength="108.6192" x="638.3048" y="1032.6771">decoded_refresh_jwt</text><line style="stroke:#181818;stroke-width:0.9;" x1="762.224" x2="804.524" y1="1068.2754" y2="1068.2754"/><line style="stroke:#181818;stroke-width:0.9;" x1="804.524" x2="804.524" y1="1068.2754" y2="1079.9754"/><line style="stroke:#181818;stroke-width:0.9;" x1="767.624" x2="804.524" y1="1079.9754" y2="1079.9754"/><polygon fill="#181818" points="776.624,1076.3754,767.624,1079.9754,776.624,1083.5754,773.024,1079.9754" style="stroke:#181818;stroke-width:0.9;"/><text fill="#000000" font-family="sans-serif" font-size="11.7" lengthAdjust="spacing" textLength="396.0119" x="773.024" y="1063.539">__does_jti_match(refresh_jti_from_access_jwt, refresh_jti_from_refresh_jwt)</text><path d="M373.9223,1097.9754 L428.0761,1097.9754 L428.0761,1106.3373 L419.0761,1115.3373 L373.9223,1115.3373 L373.9223,1097.9754 " fill="#EEEEEE" style="stroke:#000000;stroke-width:1.35;"/><rect fill="none" height="118.9477" style="stroke:#000000;stroke-width:1.35;" width="433.0688" x="373.9223" y="1097.9754"/><text fill="#000000" font-family="sans-serif" font-size="11.7" font-weight="bold" lengthAdjust="spacing" textLength="13.6538" x="387.4223" y="1111.5009">alt</text><text fill="#000000" font-family="sans-serif" font-size="9.9" font-weight="bold" lengthAdjust="spacing" textLength="91.2995" x="441.5761" y="1110.4585">[jti does not match]</text><line style="stroke:#181818;stroke-width:0.9;stroke-dasharray:2.0,2.0;" x1="715.424" x2="756.824" y1="1136.2992" y2="1136.2992"/><line style="stroke:#181818;stroke-width:0.9;stroke-dasharray:2.0,2.0;" x1="715.424" x2="715.424" y1="1136.2992" y2="1147.9992"/><line style="stroke:#181818;stroke-width:0.9;stroke-dasharray:2.0,2.0;" x1="715.424" x2="755.924" y1="1147.9992" y2="1147.9992"/><polygon fill="#181818" points="746.924,1144.3992,755.924,1147.9992,746.924,1151.5992,750.524,1147.9992" style="stroke:#181818;stroke-width:0.9;"/><text fill="#000000" font-family="sans-serif" font-size="11.7" lengthAdjust="spacing" textLength="28.6102" x="714.524" y="1131.5628">False</text><polygon fill="#181818" points="449.485,1172.5611,440.485,1176.1611,449.485,1179.7611,445.885,1176.1611" style="stroke:#181818;stroke-width:0.9;"/><line style="stroke:#181818;stroke-width:0.9;stroke-dasharray:2.0,2.0;" x1="444.085" x2="756.824" y1="1176.1611" y2="1176.1611"/><text fill="#000000" font-family="sans-serif" font-size="11.7" lengthAdjust="spacing" textLength="27.9703" x="454.885" y="1171.4247">None</text><path d="M443.7,1187.8611 L443.7,1212.1611 L670.5,1212.1611 L670.5,1196.8611 L661.5,1187.8611 L443.7,1187.8611 " fill="#FEFFDD" style="stroke:#181818;stroke-width:0.45;"/><path d="M661.5,1187.8611 L661.5,1196.8611 L670.5,1196.8611 L661.5,1187.8611 " fill="#FEFFDD" style="stroke:#181818;stroke-width:0.45;"/><text fill="#000000" font-family="sans-serif" font-size="11.7" lengthAdjust="spacing" textLength="208.0863" x="449.1" y="1204.9866">Revoke JWT: see sep. generic diagram.</text><line style="stroke:#181818;stroke-width:0.9;stroke-dasharray:2.0,2.0;" x1="715.424" x2="756.824" y1="1248.685" y2="1248.685"/><line style="stroke:#181818;stroke-width:0.9;stroke-dasharray:2.0,2.0;" x1="715.424" x2="715.424" y1="1248.685" y2="1260.385"/><line style="stroke:#181818;stroke-width:0.9;stroke-dasharray:2.0,2.0;" x1="715.424" x2="751.424" y1="1260.385" y2="1260.385"/><polygon fill="#181818" points="742.424,1256.785,751.424,1260.385,742.424,1263.985,746.024,1260.385" style="stroke:#181818;stroke-width:0.9;"/><text fill="#000000" font-family="sans-serif" font-size="11.7" lengthAdjust="spacing" textLength="24.057" x="714.524" y="1243.9485">True</text><line style="stroke:#181818;stroke-width:0.9;" x1="762.224" x2="804.524" y1="1279.5469" y2="1279.5469"/><line style="stroke:#181818;stroke-width:0.9;" x1="804.524" x2="804.524" y1="1279.5469" y2="1291.2469"/><line style="stroke:#181818;stroke-width:0.9;" x1="767.624" x2="804.524" y1="1291.2469" y2="1291.2469"/><polygon fill="#181818" points="776.624,1287.6469,767.624,1291.2469,776.624,1294.8469,773.024,1291.2469" style="stroke:#181818;stroke-width:0.9;"/><text fill="#000000" font-family="sans-serif" font-size="11.7" lengthAdjust="spacing" textLength="213.9763" x="773.024" y="1274.8104">__has_jwt_expired(decoded_refresh_jwt)</text><path d="M373.9223,1309.2469 L428.0761,1309.2469 L428.0761,1317.6088 L419.0761,1326.6088 L373.9223,1326.6088 L373.9223,1309.2469 " fill="#EEEEEE" style="stroke:#000000;stroke-width:1.35;"/><rect fill="none" height="118.9477" style="stroke:#000000;stroke-width:1.35;" width="433.0688" x="373.9223" y="1309.2469"/><text fill="#000000" font-family="sans-serif" font-size="11.7" font-weight="bold" lengthAdjust="spacing" textLength="13.6538" x="387.4223" y="1322.7724">alt</text><text fill="#000000" font-family="sans-serif" font-size="9.9" font-weight="bold" lengthAdjust="spacing" textLength="121.5844" x="441.5761" y="1321.73">[refresh JWT has expired]</text><line style="stroke:#181818;stroke-width:0.9;stroke-dasharray:2.0,2.0;" x1="715.424" x2="756.824" y1="1347.5707" y2="1347.5707"/><line style="stroke:#181818;stroke-width:0.9;stroke-dasharray:2.0,2.0;" x1="715.424" x2="715.424" y1="1347.5707" y2="1359.2707"/><line style="stroke:#181818;stroke-width:0.9;stroke-dasharray:2.0,2.0;" x1="715.424" x2="755.924" y1="1359.2707" y2="1359.2707"/><polygon fill="#181818" points="746.924,1355.6707,755.924,1359.2707,746.924,1362.8707,750.524,1359.2707" style="stroke:#181818;stroke-width:0.9;"/><text fill="#000000" font-family="sans-serif" font-size="11.7" lengthAdjust="spacing" textLength="24.057" x="714.524" y="1342.8343">True</text><polygon fill="#181818" points="449.485,1383.8326,440.485,1387.4326,449.485,1391.0326,445.885,1387.4326" style="stroke:#181818;stroke-width:0.9;"/><line style="stroke:#181818;stroke-width:0.9;stroke-dasharray:2.0,2.0;" x1="444.085" x2="756.824" y1="1387.4326" y2="1387.4326"/><text fill="#000000" font-family="sans-serif" font-size="11.7" lengthAdjust="spacing" textLength="27.9703" x="454.885" y="1382.6962">None</text><path d="M443.7,1399.1326 L443.7,1423.4326 L670.5,1423.4326 L670.5,1408.1326 L661.5,1399.1326 L443.7,1399.1326 " fill="#FEFFDD" style="stroke:#181818;stroke-width:0.45;"/><path d="M661.5,1399.1326 L661.5,1408.1326 L670.5,1408.1326 L661.5,1399.1326 " fill="#FEFFDD" style="stroke:#181818;stroke-width:0.45;"/><text fill="#000000" font-family="sans-serif" font-size="11.7" lengthAdjust="spacing" textLength="208.0863" x="449.1" y="1416.2581">Revoke JWT: see sep. generic diagram.</text><line style="stroke:#181818;stroke-width:0.9;stroke-dasharray:2.0,2.0;" x1="715.424" x2="756.824" y1="1459.9564" y2="1459.9564"/><line style="stroke:#181818;stroke-width:0.9;stroke-dasharray:2.0,2.0;" x1="715.424" x2="715.424" y1="1459.9564" y2="1471.6564"/><line style="stroke:#181818;stroke-width:0.9;stroke-dasharray:2.0,2.0;" x1="715.424" x2="751.424" y1="1471.6564" y2="1471.6564"/><polygon fill="#181818" points="742.424,1468.0564,751.424,1471.6564,742.424,1475.2564,746.024,1471.6564" style="stroke:#181818;stroke-width:0.9;"/><text fill="#000000" font-family="sans-serif" font-size="11.7" lengthAdjust="spacing" textLength="28.6102" x="714.524" y="1455.22">False</text><line style="stroke:#181818;stroke-width:0.9;" x1="762.224" x2="804.524" y1="1490.8184" y2="1490.8184"/><line style="stroke:#181818;stroke-width:0.9;" x1="804.524" x2="804.524" y1="1490.8184" y2="1502.5184"/><line style="stroke:#181818;stroke-width:0.9;" x1="767.624" x2="804.524" y1="1502.5184" y2="1502.5184"/><polygon fill="#181818" points="776.624,1498.9184,767.624,1502.5184,776.624,1506.1184,773.024,1502.5184" style="stroke:#181818;stroke-width:0.9;"/><text fill="#000000" font-family="sans-serif" font-size="11.7" lengthAdjust="spacing" textLength="304.3828" x="773.024" y="1486.0819">__query_whitelisted_jwt_by_jti_user_agent(jti, user_agent)</text><path d="M373.9223,1520.5184 L428.0761,1520.5184 L428.0761,1528.8803 L419.0761,1537.8803 L373.9223,1537.8803 L373.9223,1520.5184 " fill="#EEEEEE" style="stroke:#000000;stroke-width:1.35;"/><rect fill="none" height="118.9477" style="stroke:#000000;stroke-width:1.35;" width="433.0688" x="373.9223" y="1520.5184"/><text fill="#000000" font-family="sans-serif" font-size="11.7" font-weight="bold" lengthAdjust="spacing" textLength="13.6538" x="387.4223" y="1534.0438">alt</text><text fill="#000000" font-family="sans-serif" font-size="9.9" font-weight="bold" lengthAdjust="spacing" textLength="144.0914" x="441.5761" y="1533.0015">[Refresh JWT not on Whitelist]</text><line style="stroke:#181818;stroke-width:0.9;stroke-dasharray:2.0,2.0;" x1="715.424" x2="756.824" y1="1558.8422" y2="1558.8422"/><line style="stroke:#181818;stroke-width:0.9;stroke-dasharray:2.0,2.0;" x1="715.424" x2="715.424" y1="1558.8422" y2="1570.5422"/><line style="stroke:#181818;stroke-width:0.9;stroke-dasharray:2.0,2.0;" x1="715.424" x2="755.924" y1="1570.5422" y2="1570.5422"/><polygon fill="#181818" points="746.924,1566.9422,755.924,1570.5422,746.924,1574.1422,750.524,1570.5422" style="stroke:#181818;stroke-width:0.9;"/><text fill="#000000" font-family="sans-serif" font-size="11.7" lengthAdjust="spacing" textLength="27.9703" x="714.524" y="1554.1058">None</text><polygon fill="#181818" points="449.485,1595.1041,440.485,1598.7041,449.485,1602.3041,445.885,1598.7041" style="stroke:#181818;stroke-width:0.9;"/><line style="stroke:#181818;stroke-width:0.9;stroke-dasharray:2.0,2.0;" x1="444.085" x2="756.824" y1="1598.7041" y2="1598.7041"/><text fill="#000000" font-family="sans-serif" font-size="11.7" lengthAdjust="spacing" textLength="27.9703" x="454.885" y="1593.9677">None</text><path d="M443.7,1610.4041 L443.7,1634.7041 L670.5,1634.7041 L670.5,1619.4041 L661.5,1610.4041 L443.7,1610.4041 " fill="#FEFFDD" style="stroke:#181818;stroke-width:0.45;"/><path d="M661.5,1610.4041 L661.5,1619.4041 L670.5,1619.4041 L661.5,1610.4041 " fill="#FEFFDD" style="stroke:#181818;stroke-width:0.45;"/><text fill="#000000" font-family="sans-serif" font-size="11.7" lengthAdjust="spacing" textLength="208.0863" x="449.1" y="1627.5296">Revoke JWT: see sep. generic diagram.</text><line style="stroke:#181818;stroke-width:0.9;stroke-dasharray:2.0,2.0;" x1="715.424" x2="756.824" y1="1671.2279" y2="1671.2279"/><line style="stroke:#181818;stroke-width:0.9;stroke-dasharray:2.0,2.0;" x1="715.424" x2="715.424" y1="1671.2279" y2="1682.9279"/><line style="stroke:#181818;stroke-width:0.9;stroke-dasharray:2.0,2.0;" x1="715.424" x2="751.424" y1="1682.9279" y2="1682.9279"/><polygon fill="#181818" points="742.424,1679.3279,751.424,1682.9279,742.424,1686.5279,746.024,1682.9279" style="stroke:#181818;stroke-width:0.9;"/><text fill="#000000" font-family="sans-serif" font-size="11.7" lengthAdjust="spacing" textLength="153.4825" x="593.4415" y="1666.4915">whitelisted_jwt_refresh_token</text><polygon fill="#181818" points="1327.1779,1702.9898,1336.1779,1706.5898,1327.1779,1710.1898,1330.7779,1706.5898" style="stroke:#181818;stroke-width:0.9;"/><line style="stroke:#181818;stroke-width:0.9;" x1="762.224" x2="1332.5779" y1="1706.5898" y2="1706.5898"/><text fill="#000000" font-family="sans-serif" font-size="11.7" lengthAdjust="spacing" textLength="179.4933" x="768.524" y="1701.8534">verify_token(encoded_refresh_jwt)</text><line style="stroke:#181818;stroke-width:0.9;" x1="1351.4779" x2="1389.2779" y1="1734.7518" y2="1734.7518"/><line style="stroke:#181818;stroke-width:0.9;" x1="1389.2779" x2="1389.2779" y1="1734.7518" y2="1746.4518"/><line style="stroke:#181818;stroke-width:0.9;" x1="1352.3779" x2="1389.2779" y1="1746.4518" y2="1746.4518"/><polygon fill="#181818" points="1361.3779,1742.8518,1352.3779,1746.4518,1361.3779,1750.0518,1357.7779,1746.4518" style="stroke:#181818;stroke-width:0.9;"/><text fill="#000000" font-family="sans-serif" font-size="11.7" lengthAdjust="spacing" textLength="193.1643" x="1357.7779" y="1730.0153">__hash_secret(encoded_refresh_jwt)</text><path d="M373.9223,1786.9518 L428.0761,1786.9518 L428.0761,1795.3137 L419.0761,1804.3137 L373.9223,1804.3137 L373.9223,1786.9518 " fill="#EEEEEE" style="stroke:#000000;stroke-width:1.35;"/><rect fill="none" height="107.2477" style="stroke:#000000;stroke-width:1.35;" width="1086.0891" x="373.9223" y="1786.9518"/><text fill="#000000" font-family="sans-serif" font-size="11.7" font-weight="bold" lengthAdjust="spacing" textLength="13.6538" x="387.4223" y="1800.4772">alt</text><text fill="#000000" font-family="sans-serif" font-size="9.9" font-weight="bold" lengthAdjust="spacing" textLength="147.9779" x="441.5761" y="1799.4349">[refresh_token does not match]</text><polygon fill="#181818" points="772.124,1821.6756,763.124,1825.2756,772.124,1828.8756,768.524,1825.2756" style="stroke:#181818;stroke-width:0.9;"/><line style="stroke:#181818;stroke-width:0.9;stroke-dasharray:2.0,2.0;" x1="766.724" x2="1337.0779" y1="1825.2756" y2="1825.2756"/><text fill="#000000" font-family="sans-serif" font-size="11.7" lengthAdjust="spacing" textLength="28.6102" x="777.524" y="1820.5392">False</text><polygon fill="#181818" points="449.485,1849.8375,440.485,1853.4375,449.485,1857.0375,445.885,1853.4375" style="stroke:#181818;stroke-width:0.9;"/><line style="stroke:#181818;stroke-width:0.9;stroke-dasharray:2.0,2.0;" x1="444.085" x2="752.324" y1="1853.4375" y2="1853.4375"/><text fill="#000000" font-family="sans-serif" font-size="11.7" lengthAdjust="spacing" textLength="27.9703" x="454.885" y="1848.7011">None</text><path d="M443.7,1865.1375 L443.7,1889.4375 L670.5,1889.4375 L670.5,1874.1375 L661.5,1865.1375 L443.7,1865.1375 " fill="#FEFFDD" style="stroke:#181818;stroke-width:0.45;"/><path d="M661.5,1865.1375 L661.5,1874.1375 L670.5,1874.1375 L661.5,1865.1375 " fill="#FEFFDD" style="stroke:#181818;stroke-width:0.45;"/><text fill="#000000" font-family="sans-serif" font-size="11.7" lengthAdjust="spacing" textLength="208.0863" x="449.1" y="1882.263">Revoke JWT: see sep. generic diagram.</text><polygon fill="#181818" points="772.124,1917.8613,763.124,1921.4613,772.124,1925.0613,768.524,1921.4613" style="stroke:#181818;stroke-width:0.9;"/><line style="stroke:#181818;stroke-width:0.9;stroke-dasharray:2.0,2.0;" x1="766.724" x2="1341.5779" y1="1921.4613" y2="1921.4613"/><text fill="#000000" font-family="sans-serif" font-size="11.7" lengthAdjust="spacing" textLength="24.057" x="777.524" y="1916.7249">True</text><polygon fill="#181818" points="1169.0358,1946.0232,1178.0358,1949.6232,1169.0358,1953.2232,1172.6358,1949.6232" style="stroke:#181818;stroke-width:0.9;"/><line style="stroke:#181818;stroke-width:0.9;" x1="762.224" x2="1174.4358" y1="1949.6232" y2="1949.6232"/><text fill="#000000" font-family="sans-serif" font-size="11.7" lengthAdjust="spacing" textLength="145.0274" x="768.524" y="1944.8868">query_users_by_id(user_id)</text><path d="M373.9223,1963.1232 L428.0761,1963.1232 L428.0761,1971.4852 L419.0761,1980.4852 L373.9223,1980.4852 L373.9223,1963.1232 " fill="#EEEEEE" style="stroke:#000000;stroke-width:1.35;"/><rect fill="none" height="107.2477" style="stroke:#000000;stroke-width:1.35;" width="860.0221" x="373.9223" y="1963.1232"/><text fill="#000000" font-family="sans-serif" font-size="11.7" font-weight="bold" lengthAdjust="spacing" textLength="13.6538" x="387.4223" y="1976.6487">alt</text><text fill="#000000" font-family="sans-serif" font-size="9.9" font-weight="bold" lengthAdjust="spacing" textLength="97.922" x="441.5761" y="1975.6063">[User does not exist]</text><polygon fill="#181818" points="772.124,1997.8471,763.124,2001.4471,772.124,2005.0471,768.524,2001.4471" style="stroke:#181818;stroke-width:0.9;"/><line style="stroke:#181818;stroke-width:0.9;stroke-dasharray:2.0,2.0;" x1="766.724" x2="1178.9358" y1="2001.4471" y2="2001.4471"/><text fill="#000000" font-family="sans-serif" font-size="11.7" lengthAdjust="spacing" textLength="27.9703" x="777.524" y="1996.7106">None</text><polygon fill="#181818" points="449.485,2026.009,440.485,2029.609,449.485,2033.209,445.885,2029.609" style="stroke:#181818;stroke-width:0.9;"/><line style="stroke:#181818;stroke-width:0.9;stroke-dasharray:2.0,2.0;" x1="444.085" x2="752.324" y1="2029.609" y2="2029.609"/><text fill="#000000" font-family="sans-serif" font-size="11.7" lengthAdjust="spacing" textLength="27.9703" x="454.885" y="2024.8726">None</text><path d="M443.7,2041.309 L443.7,2065.609 L670.5,2065.609 L670.5,2050.309 L661.5,2041.309 L443.7,2041.309 " fill="#FEFFDD" style="stroke:#181818;stroke-width:0.45;"/><path d="M661.5,2041.309 L661.5,2050.309 L670.5,2050.309 L661.5,2041.309 " fill="#FEFFDD" style="stroke:#181818;stroke-width:0.45;"/><text fill="#000000" font-family="sans-serif" font-size="11.7" lengthAdjust="spacing" textLength="208.0863" x="449.1" y="2058.4345">Revoke JWT: see sep. generic diagram.</text><polygon fill="#181818" points="772.124,2094.0328,763.124,2097.6328,772.124,2101.2328,768.524,2097.6328" style="stroke:#181818;stroke-width:0.9;"/><line style="stroke:#181818;stroke-width:0.9;stroke-dasharray:2.0,2.0;" x1="766.724" x2="1183.4358" y1="2097.6328" y2="2097.6328"/><text fill="#000000" font-family="sans-serif" font-size="11.7" lengthAdjust="spacing" textLength="59.1741" x="777.524" y="2092.8964">User object</text><polygon fill="#181818" points="1327.1779,2122.1947,1336.1779,2125.7947,1327.1779,2129.3947,1330.7779,2125.7947" style="stroke:#181818;stroke-width:0.9;"/><line style="stroke:#181818;stroke-width:0.9;" x1="762.224" x2="1332.5779" y1="2125.7947" y2="2125.7947"/><text fill="#000000" font-family="sans-serif" font-size="11.7" lengthAdjust="spacing" textLength="193.1528" x="768.524" y="2121.0583">delete(whitelisted_jwt_refresh_token)</text><polygon fill="#181818" points="449.485,2177.3566,440.485,2180.9566,449.485,2184.5566,445.885,2180.9566" style="stroke:#181818;stroke-width:0.9;"/><line style="stroke:#181818;stroke-width:0.9;stroke-dasharray:2.0,2.0;" x1="444.085" x2="756.824" y1="2180.9566" y2="2180.9566"/><text fill="#000000" font-family="sans-serif" font-size="11.7" lengthAdjust="spacing" textLength="59.1741" x="454.885" y="2176.2202">User object</text><path d="M443.7,2192.6566 L443.7,2216.9566 L666,2216.9566 L666,2201.6566 L657,2192.6566 L443.7,2192.6566 " fill="#FEFFDD" style="stroke:#181818;stroke-width:0.45;"/><path d="M657,2192.6566 L657,2201.6566 L666,2201.6566 L657,2192.6566 " fill="#FEFFDD" style="stroke:#181818;stroke-width:0.45;"/><text fill="#000000" font-family="sans-serif" font-size="11.7" lengthAdjust="spacing" textLength="203.5332" x="449.1" y="2209.7821">Create JWT: see sep. generic diagram.</text><polygon fill="#181818" points="72.8191,2254.6424,63.8191,2258.2424,72.8191,2261.8424,69.2191,2258.2424" style="stroke:#181818;stroke-width:0.9;"/><line style="stroke:#181818;stroke-width:0.9;stroke-dasharray:2.0,2.0;" x1="67.4191" x2="434.185" y1="2258.2424" y2="2258.2424"/><text fill="#000000" font-family="sans-serif" font-size="11.7" lengthAdjust="spacing" textLength="132.659" x="78.2191" y="2237.944">HTTP Response: 200 OK</text><text fill="#000000" font-family="sans-serif" font-size="11.7" lengthAdjust="spacing" textLength="184.6978" x="78.2191" y="2253.506">{new_access_jwt, new_refresh_jwt}</text><line style="stroke:#181818;stroke-width:0.9;" x1="62.9191" x2="100.7191" y1="2290.9043" y2="2290.9043"/><line style="stroke:#181818;stroke-width:0.9;" x1="100.7191" x2="100.7191" y1="2290.9043" y2="2302.6043"/><line style="stroke:#181818;stroke-width:0.9;" x1="58.4191" x2="100.7191" y1="2302.6043" y2="2302.6043"/><polygon fill="#181818" points="67.4191,2299.0043,58.4191,2302.6043,67.4191,2306.2043,63.8191,2302.6043" style="stroke:#181818;stroke-width:0.9;"/><text fill="#000000" font-family="sans-serif" font-size="11.7" lengthAdjust="spacing" textLength="329.0625" x="69.2191" y="2286.1679">store access_jwt and encoded_refresh_jwt in HTTP only cookie</text><!--SRC=[pLRVRzem47xFNt7gKogjNRL7D2QnjMpQrhKB85ugHMvo49TWPxPfowRzxplR51m2gJIjNP509FVpk_lEleefmpDUCM7WeA-aC2XoY1DacJay0AQXVnPLeT9hXHE5kW0b5mQlHDmlcPx1-tA1bU9YPPKaTQlUmXG3LBSyGoVl3UhoaKOLoaTRyd713PPS6ym_ZuU9Js4ePoZWNEPOKXw3xrzxPLRWV0b7x-2K6NRDDFfqnkTHrEr2_145AfuTmie3a3FeTYD2os-PGOksVsRjawG3duR3IzByiK1jEd1vCHXUYLzuNt65ER0iGwtJcplp2b1ab4IUhahZNou8KigcAEW_hrAMvoJJlwCSmsZh_rIn9B6HUmFem2sbELck7IgVHFn8qCEDEoemENfmbwOvMcsh53YfwxFImAbLusAwWkVgCs6yr17GXtozFJhoBhz9WUubPTryAIJvL7nQ690JgzAXGjvIlwp73cX4-bR7CFKDWPopgMBpuuZe5uLXVDvvkaawBE0soe8vbNJLfBXftOGS82Lpcpcip1kO-wpKk_2ji1liW1Jb4keS0UDuocW4fE8_4IPIWS2xclWPIZbK2smh7lUrkovPDlEZjgQAuVlgPcN0DGHMZRAvm4-FptUd1M0m0tk7fZO4AZWbNiGK16ct0fNe6fFEcScA3LXwCr5odeR7I4FOMXhRRUlTZOdptZ8a_xOcrjZMPIUx_k9CQCKPTjwU2ljEX9T2RReUr3AzszoIVfINhgsRcoYcn_1cQW8FBqRROobWVVV-B_Plmthed3yuTrLbVBwvGvrMt7vRqdv09W-6ZZD5gZ5JQ1wt31AW9rj4g6NOCZ0kt5CDJ5165sTxK2XPNwsHZUSPPAcXBMzu7ZkQy3m0E_8SiSlQ1XJURr5Zz3pKS65SAlBw1hFQWJYg4O7sGpGOjzAehQKXX3q1YNaxC7rGQ8MFOAA5qxft5gkLKrTIQDectfoSmCKNsZffNQYTslOv86HjgwHDihdFqY_bOAJ2O7C5Hil-3du35puJjyraKiuurlVMFm00]--></g></svg>