<svg xmlns="http://www.w3.org/2000/svg" xmlns:xlink="http://www.w3.org/1999/xlink" contentStyleType="text/css" height="1409px" preserveAspectRatio="none" style="width:2099px;height:1409px;background:#FFFFFF;" version="1.1" viewBox="0 0 2099 1409" width="2099px" zoomAndPan="magnify"><defs/><g><rect fill="#FFFFFF" height="93.873" style="stroke:#181818;stroke-width:1.0;" width="10" x="390.5972" y="162.2031"/><rect fill="#FFFFFF" height="31.291" style="stroke:#181818;stroke-width:1.0;" width="10" x="390.5972" y="376.2402"/><rect fill="#FFFFFF" height="31.291" style="stroke:#181818;stroke-width:1.0;" width="10" x="390.5972" y="565.9863"/><rect fill="#FFFFFF" height="31.291" style="stroke:#181818;stroke-width:1.0;" width="10" x="390.5972" y="1245.6426"/><rect fill="#FFFFFF" height="989.5664" style="stroke:#181818;stroke-width:1.0;" width="10" x="760.6377" y="256.0762"/><rect fill="#FFFFFF" height="158.4551" style="stroke:#181818;stroke-width:1.0;" width="10" x="1202.2544" y="477.1133"/><rect fill="#FFFFFF" height="316.7461" style="stroke:#181818;stroke-width:1.0;" width="10" x="1202.2544" y="729.4414"/><rect fill="#FFFFFF" height="158.4551" style="stroke:#181818;stroke-width:1.0;" width="10" x="1339.8472" y="287.3672"/><rect fill="#FFFFFF" height="31.291" style="stroke:#181818;stroke-width:1.0;" width="10" x="1339.8472" y="666.8594"/><rect fill="#FFFFFF" height="136.873" style="stroke:#181818;stroke-width:1.0;" width="10" x="1339.8472" y="1077.4785"/><rect fill="#FFFFFF" height="28" style="stroke:#181818;stroke-width:1.0;" width="10" x="1344.8472" y="1116.7695"/><rect fill="#FFFFFF" height="254.1641" style="stroke:#181818;stroke-width:1.0;" width="10" x="1766.9512" y="760.7324"/><rect fill="#FFFFFF" height="28" style="stroke:#181818;stroke-width:1.0;" width="10" x="1771.9512" y="800.0234"/><rect fill="#FFFFFF" height="28" style="stroke:#181818;stroke-width:1.0;" width="10" x="1771.9512" y="874.3145"/><rect fill="#FFFFFF" height="28" style="stroke:#181818;stroke-width:1.0;" width="10" x="1771.9512" y="948.6055"/><rect fill="#FFFFFF" height="125.1641" style="stroke:#181818;stroke-width:1.0;" width="10" x="2030.7554" y="1183.0605"/><rect fill="none" height="113.1641" style="stroke:#000000;stroke-width:1.5;" width="1427.3193" x="10" y="302.3672"/><rect fill="none" height="113.1641" style="stroke:#000000;stroke-width:1.5;" width="1252.375" x="10" y="492.1133"/><line style="stroke:#181818;stroke-width:0.5;stroke-dasharray:5.0,5.0;" x1="53" x2="53" y1="83.6211" y2="1326.2246"/><line style="stroke:#181818;stroke-width:0.5;stroke-dasharray:5.0,5.0;" x1="394.687" x2="394.687" y1="83.6211" y2="1326.2246"/><line style="stroke:#181818;stroke-width:0.5;stroke-dasharray:5.0,5.0;" x1="764.7344" x2="764.7344" y1="83.6211" y2="1326.2246"/><line style="stroke:#181818;stroke-width:0.5;stroke-dasharray:5.0,5.0;" x1="1207.1338" x2="1207.1338" y1="83.6211" y2="1326.2246"/><line style="stroke:#181818;stroke-width:0.5;stroke-dasharray:5.0,5.0;" x1="1344.375" x2="1344.375" y1="83.6211" y2="1326.2246"/><line style="stroke:#181818;stroke-width:0.5;stroke-dasharray:5.0,5.0;" x1="1771.041" x2="1771.041" y1="83.6211" y2="1326.2246"/><line style="stroke:#181818;stroke-width:0.5;stroke-dasharray:5.0,5.0;" x1="2035.021" x2="2035.021" y1="83.6211" y2="1326.2246"/><text fill="#000000" font-family="sans-serif" font-size="14" lengthAdjust="spacing" textLength="61.4551" x="20" y="80.1074">New User</text><ellipse cx="53.7275" cy="13.5" fill="#E2E2F0" rx="8" ry="8" style="stroke:#181818;stroke-width:0.5;"/><path d="M53.7275,21.5 L53.7275,48.5 M40.7275,29.5 L66.7275,29.5 M53.7275,48.5 L40.7275,63.5 M53.7275,48.5 L66.7275,63.5 " fill="none" style="stroke:#181818;stroke-width:0.5;"/><text fill="#000000" font-family="sans-serif" font-size="14" lengthAdjust="spacing" textLength="61.4551" x="20" y="1340.332">New User</text><ellipse cx="53.7275" cy="1352.3457" fill="#E2E2F0" rx="8" ry="8" style="stroke:#181818;stroke-width:0.5;"/><path d="M53.7275,1360.3457 L53.7275,1387.3457 M40.7275,1368.3457 L66.7275,1368.3457 M53.7275,1387.3457 L40.7275,1402.3457 M53.7275,1387.3457 L66.7275,1402.3457 " fill="none" style="stroke:#181818;stroke-width:0.5;"/><rect fill="#E2E2F0" height="32.6211" rx="2.5" ry="2.5" style="stroke:#181818;stroke-width:0.5;" width="119.8203" x="335.687" y="50"/><text fill="#000000" font-family="sans-serif" font-size="14" lengthAdjust="spacing" textLength="105.8203" x="342.687" y="72.1074">Frontend (React)</text><rect fill="#E2E2F0" height="32.6211" rx="2.5" ry="2.5" style="stroke:#181818;stroke-width:0.5;" width="119.8203" x="335.687" y="1325.2246"/><text fill="#000000" font-family="sans-serif" font-size="14" lengthAdjust="spacing" textLength="105.8203" x="342.687" y="1347.332">Frontend (React)</text><rect fill="#E2E2F0" height="51.2422" rx="2.5" ry="2.5" style="stroke:#181818;stroke-width:0.5;" width="119.8066" x="705.7344" y="31.3789"/><text fill="#000000" font-family="sans-serif" font-size="14" lengthAdjust="spacing" textLength="80.9443" x="725.1655" y="53.4863">/signup route</text><text fill="#000000" font-family="sans-serif" font-size="14" lengthAdjust="spacing" textLength="101.917" x="716.624" y="72.1074">(Flask Blueprint)</text><rect fill="#E2E2F0" height="51.2422" rx="2.5" ry="2.5" style="stroke:#181818;stroke-width:0.5;" width="119.8066" x="705.7344" y="1325.2246"/><text fill="#000000" font-family="sans-serif" font-size="14" lengthAdjust="spacing" textLength="80.9443" x="725.1655" y="1347.332">/signup route</text><text fill="#000000" font-family="sans-serif" font-size="14" lengthAdjust="spacing" textLength="101.917" x="716.624" y="1365.9531">(Flask Blueprint)</text><rect fill="#E2E2F0" height="32.6211" rx="2.5" ry="2.5" style="stroke:#181818;stroke-width:0.5;" width="90.2412" x="1162.1338" y="50"/><text fill="#000000" font-family="sans-serif" font-size="14" lengthAdjust="spacing" textLength="76.2412" x="1169.1338" y="72.1074">UserService</text><rect fill="#E2E2F0" height="32.6211" rx="2.5" ry="2.5" style="stroke:#181818;stroke-width:0.5;" width="90.2412" x="1162.1338" y="1325.2246"/><text fill="#000000" font-family="sans-serif" font-size="14" lengthAdjust="spacing" textLength="76.2412" x="1169.1338" y="1347.332">UserService</text><rect fill="#E2E2F0" height="32.6211" rx="2.5" ry="2.5" style="stroke:#181818;stroke-width:0.5;" width="164.9443" x="1262.375" y="50"/><text fill="#000000" font-family="sans-serif" font-size="14" lengthAdjust="spacing" textLength="150.9443" x="1269.375" y="72.1074">EmailVerificationService</text><rect fill="#E2E2F0" height="32.6211" rx="2.5" ry="2.5" style="stroke:#181818;stroke-width:0.5;" width="164.9443" x="1262.375" y="1325.2246"/><text fill="#000000" font-family="sans-serif" font-size="14" lengthAdjust="spacing" textLength="150.9443" x="1269.375" y="1347.332">EmailVerificationService</text><rect fill="#E2E2F0" height="69.8633" rx="2.5" ry="2.5" style="stroke:#181818;stroke-width:0.5;" width="133.8203" x="1705.041" y="12.7578"/><text fill="#000000" font-family="sans-serif" font-size="14" lengthAdjust="spacing" textLength="115.9307" x="1712.041" y="34.8652">User Model Object</text><text fill="#000000" font-family="sans-serif" font-size="14" lengthAdjust="spacing" textLength="86.3584" x="1730.7168" y="53.4863">(SQLAlchemy</text><text fill="#000000" font-family="sans-serif" font-size="14" lengthAdjust="spacing" textLength="80.1582" x="1733.8169" y="72.1074">to Database)</text><rect fill="#E2E2F0" height="69.8633" rx="2.5" ry="2.5" style="stroke:#181818;stroke-width:0.5;" width="133.8203" x="1705.041" y="1325.2246"/><text fill="#000000" font-family="sans-serif" font-size="14" lengthAdjust="spacing" textLength="115.9307" x="1712.041" y="1347.332">User Model Object</text><text fill="#000000" font-family="sans-serif" font-size="14" lengthAdjust="spacing" textLength="86.3584" x="1730.7168" y="1365.9531">(SQLAlchemy</text><text fill="#000000" font-family="sans-serif" font-size="14" lengthAdjust="spacing" textLength="80.1582" x="1733.8169" y="1384.5742">to Database)</text><rect fill="#E2E2F0" height="51.2422" rx="2.5" ry="2.5" style="stroke:#181818;stroke-width:0.5;" width="103.4688" x="1984.021" y="31.3789"/><text fill="#000000" font-family="sans-serif" font-size="14" lengthAdjust="spacing" textLength="51.3584" x="2008.1313" y="53.4863">External</text><text fill="#000000" font-family="sans-serif" font-size="14" lengthAdjust="spacing" textLength="85.5791" x="1994.9106" y="72.1074">Email Service</text><rect fill="#E2E2F0" height="51.2422" rx="2.5" ry="2.5" style="stroke:#181818;stroke-width:0.5;" width="103.4688" x="1984.021" y="1325.2246"/><text fill="#000000" font-family="sans-serif" font-size="14" lengthAdjust="spacing" textLength="51.3584" x="2008.1313" y="1347.332">External</text><text fill="#000000" font-family="sans-serif" font-size="14" lengthAdjust="spacing" textLength="85.5791" x="1994.9106" y="1365.9531">Email Service</text><rect fill="#FFFFFF" height="93.873" style="stroke:#181818;stroke-width:1.0;" width="10" x="390.5972" y="162.2031"/><rect fill="#FFFFFF" height="31.291" style="stroke:#181818;stroke-width:1.0;" width="10" x="390.5972" y="376.2402"/><rect fill="#FFFFFF" height="31.291" style="stroke:#181818;stroke-width:1.0;" width="10" x="390.5972" y="565.9863"/><rect fill="#FFFFFF" height="31.291" style="stroke:#181818;stroke-width:1.0;" width="10" x="390.5972" y="1245.6426"/><rect fill="#FFFFFF" height="989.5664" style="stroke:#181818;stroke-width:1.0;" width="10" x="760.6377" y="256.0762"/><rect fill="#FFFFFF" height="158.4551" style="stroke:#181818;stroke-width:1.0;" width="10" x="1202.2544" y="477.1133"/><rect fill="#FFFFFF" height="316.7461" style="stroke:#181818;stroke-width:1.0;" width="10" x="1202.2544" y="729.4414"/><rect fill="#FFFFFF" height="158.4551" style="stroke:#181818;stroke-width:1.0;" width="10" x="1339.8472" y="287.3672"/><rect fill="#FFFFFF" height="31.291" style="stroke:#181818;stroke-width:1.0;" width="10" x="1339.8472" y="666.8594"/><rect fill="#FFFFFF" height="136.873" style="stroke:#181818;stroke-width:1.0;" width="10" x="1339.8472" y="1077.4785"/><rect fill="#FFFFFF" height="28" style="stroke:#181818;stroke-width:1.0;" width="10" x="1344.8472" y="1116.7695"/><rect fill="#FFFFFF" height="254.1641" style="stroke:#181818;stroke-width:1.0;" width="10" x="1766.9512" y="760.7324"/><rect fill="#FFFFFF" height="28" style="stroke:#181818;stroke-width:1.0;" width="10" x="1771.9512" y="800.0234"/><rect fill="#FFFFFF" height="28" style="stroke:#181818;stroke-width:1.0;" width="10" x="1771.9512" y="874.3145"/><rect fill="#FFFFFF" height="28" style="stroke:#181818;stroke-width:1.0;" width="10" x="1771.9512" y="948.6055"/><rect fill="#FFFFFF" height="125.1641" style="stroke:#181818;stroke-width:1.0;" width="10" x="2030.7554" y="1183.0605"/><rect fill="#EEEEEE" height="3" style="stroke:#EEEEEE;stroke-width:1.0;" width="2092.4897" x="0" y="115.2666"/><line style="stroke:#000000;stroke-width:1.0;" x1="0" x2="2092.4897" y1="115.2666" y2="115.2666"/><line style="stroke:#000000;stroke-width:1.0;" x1="0" x2="2092.4897" y1="118.2666" y2="118.2666"/><rect fill="#EEEEEE" height="25.291" style="stroke:#000000;stroke-width:2.0;" width="221.3525" x="935.5686" y="103.6211"/><text fill="#000000" font-family="sans-serif" font-size="13" font-weight="bold" lengthAdjust="spacing" textLength="203.7407" x="941.5686" y="121.6494">Sign up Process (User story #23)</text><polygon fill="#181818" points="378.5972,158.2031,388.5972,162.2031,378.5972,166.2031,382.5972,162.2031" style="stroke:#181818;stroke-width:1.0;"/><line style="stroke:#181818;stroke-width:1.0;" x1="53.7275" x2="384.5972" y1="162.2031" y2="162.2031"/><text fill="#000000" font-family="sans-serif" font-size="13" lengthAdjust="spacing" textLength="147.4053" x="60.7275" y="156.9404">Navigates to sign up form</text><polygon fill="#181818" points="64.7275,189.4941,54.7275,193.4941,64.7275,197.4941,60.7275,193.4941" style="stroke:#181818;stroke-width:1.0;"/><line style="stroke:#181818;stroke-width:1.0;stroke-dasharray:2.0,2.0;" x1="58.7275" x2="389.5972" y1="193.4941" y2="193.4941"/><text fill="#000000" font-family="sans-serif" font-size="13" lengthAdjust="spacing" textLength="73.7026" x="70.7275" y="188.2314">Sign up form</text><polygon fill="#181818" points="378.5972,220.7852,388.5972,224.7852,378.5972,228.7852,382.5972,224.7852" style="stroke:#181818;stroke-width:1.0;"/><line style="stroke:#181818;stroke-width:1.0;" x1="53.7275" x2="384.5972" y1="224.7852" y2="224.7852"/><text fill="#000000" font-family="sans-serif" font-size="13" lengthAdjust="spacing" textLength="312.8696" x="60.7275" y="219.5225">Fills sign up form {email, plain_password} and submits</text><polygon fill="#181818" points="748.6377,252.0762,758.6377,256.0762,748.6377,260.0762,752.6377,256.0762" style="stroke:#181818;stroke-width:1.0;"/><line style="stroke:#181818;stroke-width:1.0;" x1="395.5972" x2="754.6377" y1="256.0762" y2="256.0762"/><text fill="#000000" font-family="sans-serif" font-size="13" lengthAdjust="spacing" textLength="269.5088" x="402.5972" y="250.8135">HTTP Request: POST {email, plain_password}</text><polygon fill="#181818" points="1327.8472,283.3672,1337.8472,287.3672,1327.8472,291.3672,1331.8472,287.3672" style="stroke:#181818;stroke-width:1.0;"/><line style="stroke:#181818;stroke-width:1.0;" x1="770.6377" x2="1333.8472" y1="287.3672" y2="287.3672"/><text fill="#000000" font-family="sans-serif" font-size="13" lengthAdjust="spacing" textLength="165.4453" x="777.6377" y="282.1045">is_email_format_valid(email)</text><path d="M10,302.3672 L70.1709,302.3672 L70.1709,311.6582 L60.1709,321.6582 L10,321.6582 L10,302.3672 " fill="#EEEEEE" style="stroke:#000000;stroke-width:1.5;"/><rect fill="none" height="113.1641" style="stroke:#000000;stroke-width:1.5;" width="1427.3193" x="10" y="302.3672"/><text fill="#000000" font-family="sans-serif" font-size="13" font-weight="bold" lengthAdjust="spacing" textLength="15.1709" x="25" y="317.3955">alt</text><text fill="#000000" font-family="sans-serif" font-size="11" font-weight="bold" lengthAdjust="spacing" textLength="122.2354" x="85.1709" y="316.2373">[Email format not valid]</text><polygon fill="#181818" points="781.6377,340.9492,771.6377,344.9492,781.6377,348.9492,777.6377,344.9492" style="stroke:#181818;stroke-width:1.0;"/><line style="stroke:#181818;stroke-width:1.0;stroke-dasharray:2.0,2.0;" x1="775.6377" x2="1338.8472" y1="344.9492" y2="344.9492"/><text fill="#000000" font-family="sans-serif" font-size="13" lengthAdjust="spacing" textLength="31.7891" x="787.6377" y="339.6865">False</text><polygon fill="#181818" points="411.5972,372.2402,401.5972,376.2402,411.5972,380.2402,407.5972,376.2402" style="stroke:#181818;stroke-width:1.0;"/><line style="stroke:#181818;stroke-width:1.0;stroke-dasharray:2.0,2.0;" x1="405.5972" x2="759.6377" y1="376.2402" y2="376.2402"/><text fill="#000000" font-family="sans-serif" font-size="13" lengthAdjust="spacing" textLength="341.0405" x="417.5972" y="370.9775">HTTP Response: 400 Bad Request (Email format not valid)</text><polygon fill="#181818" points="64.7275,403.5313,54.7275,407.5313,64.7275,411.5313,60.7275,407.5313" style="stroke:#181818;stroke-width:1.0;"/><line style="stroke:#181818;stroke-width:1.0;stroke-dasharray:2.0,2.0;" x1="58.7275" x2="394.5972" y1="407.5313" y2="407.5313"/><text fill="#000000" font-family="sans-serif" font-size="13" lengthAdjust="spacing" textLength="218.188" x="70.7275" y="402.2686">Error: Email format not valid, try again</text><polygon fill="#181818" points="781.6377,441.8223,771.6377,445.8223,781.6377,449.8223,777.6377,445.8223" style="stroke:#181818;stroke-width:1.0;"/><line style="stroke:#181818;stroke-width:1.0;stroke-dasharray:2.0,2.0;" x1="775.6377" x2="1343.8472" y1="445.8223" y2="445.8223"/><text fill="#000000" font-family="sans-serif" font-size="13" lengthAdjust="spacing" textLength="26.73" x="787.6377" y="440.5596">True</text><polygon fill="#181818" points="1190.2544,473.1133,1200.2544,477.1133,1190.2544,481.1133,1194.2544,477.1133" style="stroke:#181818;stroke-width:1.0;"/><line style="stroke:#181818;stroke-width:1.0;" x1="770.6377" x2="1196.2544" y1="477.1133" y2="477.1133"/><text fill="#000000" font-family="sans-serif" font-size="13" lengthAdjust="spacing" textLength="163.2871" x="777.6377" y="471.8506">query_users_by_mail(email)</text><path d="M10,492.1133 L70.1709,492.1133 L70.1709,501.4043 L60.1709,511.4043 L10,511.4043 L10,492.1133 " fill="#EEEEEE" style="stroke:#000000;stroke-width:1.5;"/><rect fill="none" height="113.1641" style="stroke:#000000;stroke-width:1.5;" width="1252.375" x="10" y="492.1133"/><text fill="#000000" font-family="sans-serif" font-size="13" font-weight="bold" lengthAdjust="spacing" textLength="15.1709" x="25" y="507.1416">alt</text><text fill="#000000" font-family="sans-serif" font-size="11" font-weight="bold" lengthAdjust="spacing" textLength="127.1553" x="85.1709" y="505.9834">[Account already exists]</text><polygon fill="#181818" points="781.6377,530.6953,771.6377,534.6953,781.6377,538.6953,777.6377,534.6953" style="stroke:#181818;stroke-width:1.0;"/><line style="stroke:#181818;stroke-width:1.0;stroke-dasharray:2.0,2.0;" x1="775.6377" x2="1201.2544" y1="534.6953" y2="534.6953"/><text fill="#000000" font-family="sans-serif" font-size="13" lengthAdjust="spacing" textLength="74.4072" x="787.6377" y="529.4326">User (object)</text><polygon fill="#181818" points="411.5972,561.9863,401.5972,565.9863,411.5972,569.9863,407.5972,565.9863" style="stroke:#181818;stroke-width:1.0;"/><line style="stroke:#181818;stroke-width:1.0;stroke-dasharray:2.0,2.0;" x1="405.5972" x2="759.6377" y1="565.9863" y2="565.9863"/><text fill="#000000" font-family="sans-serif" font-size="13" lengthAdjust="spacing" textLength="248.5234" x="417.5972" y="560.7236">HTTP Response: 409 Conflict (User exists)</text><polygon fill="#181818" points="64.7275,593.2773,54.7275,597.2773,64.7275,601.2773,60.7275,597.2773" style="stroke:#181818;stroke-width:1.0;"/><line style="stroke:#181818;stroke-width:1.0;stroke-dasharray:2.0,2.0;" x1="58.7275" x2="394.5972" y1="597.2773" y2="597.2773"/><text fill="#000000" font-family="sans-serif" font-size="13" lengthAdjust="spacing" textLength="299.8696" x="70.7275" y="592.0146">Error: account already exists, redirects to login page</text><polygon fill="#181818" points="781.6377,631.5684,771.6377,635.5684,781.6377,639.5684,777.6377,635.5684" style="stroke:#181818;stroke-width:1.0;"/><line style="stroke:#181818;stroke-width:1.0;stroke-dasharray:2.0,2.0;" x1="775.6377" x2="1206.2544" y1="635.5684" y2="635.5684"/><text fill="#000000" font-family="sans-serif" font-size="13" lengthAdjust="spacing" textLength="31.0781" x="787.6377" y="630.3057">None</text><polygon fill="#181818" points="1327.8472,662.8594,1337.8472,666.8594,1327.8472,670.8594,1331.8472,666.8594" style="stroke:#181818;stroke-width:1.0;"/><line style="stroke:#181818;stroke-width:1.0;" x1="770.6377" x2="1333.8472" y1="666.8594" y2="666.8594"/><text fill="#000000" font-family="sans-serif" font-size="13" lengthAdjust="spacing" textLength="153.188" x="777.6377" y="661.5967">create_verification_token()</text><polygon fill="#181818" points="781.6377,694.1504,771.6377,698.1504,781.6377,702.1504,777.6377,698.1504" style="stroke:#181818;stroke-width:1.0;"/><line style="stroke:#181818;stroke-width:1.0;stroke-dasharray:2.0,2.0;" x1="775.6377" x2="1343.8472" y1="698.1504" y2="698.1504"/><text fill="#000000" font-family="sans-serif" font-size="13" lengthAdjust="spacing" textLength="101.1689" x="787.6377" y="692.8877">verification_token</text><polygon fill="#181818" points="1190.2544,725.4414,1200.2544,729.4414,1190.2544,733.4414,1194.2544,729.4414" style="stroke:#181818;stroke-width:1.0;"/><line style="stroke:#181818;stroke-width:1.0;" x1="770.6377" x2="1196.2544" y1="729.4414" y2="729.4414"/><text fill="#000000" font-family="sans-serif" font-size="13" lengthAdjust="spacing" textLength="412.6167" x="777.6377" y="724.1787">create_user(unverified_email, plain_password, plain_verification_token)</text><polygon fill="#181818" points="1754.9512,756.7324,1764.9512,760.7324,1754.9512,764.7324,1758.9512,760.7324" style="stroke:#181818;stroke-width:1.0;"/><line style="stroke:#181818;stroke-width:1.0;" x1="1212.2544" x2="1760.9512" y1="760.7324" y2="760.7324"/><text fill="#000000" font-family="sans-serif" font-size="13" lengthAdjust="spacing" textLength="367.8149" x="1219.2544" y="755.4697">new(unverified_email, plain_password, plain_verification_token)</text><line style="stroke:#181818;stroke-width:1.0;" x1="1781.9512" x2="1823.9512" y1="792.0234" y2="792.0234"/><line style="stroke:#181818;stroke-width:1.0;" x1="1823.9512" x2="1823.9512" y1="792.0234" y2="805.0234"/><line style="stroke:#181818;stroke-width:1.0;" x1="1782.9512" x2="1823.9512" y1="805.0234" y2="805.0234"/><polygon fill="#181818" points="1792.9512,801.0234,1782.9512,805.0234,1792.9512,809.0234,1788.9512,805.0234" style="stroke:#181818;stroke-width:1.0;"/><text fill="#000000" font-family="sans-serif" font-size="13" lengthAdjust="spacing" textLength="149.5762" x="1788.9512" y="786.7607">__hash_secret(password)</text><line style="stroke:#181818;stroke-width:1.0;" x1="1781.9512" x2="1823.9512" y1="866.3145" y2="866.3145"/><line style="stroke:#181818;stroke-width:1.0;" x1="1823.9512" x2="1823.9512" y1="866.3145" y2="879.3145"/><line style="stroke:#181818;stroke-width:1.0;" x1="1782.9512" x2="1823.9512" y1="879.3145" y2="879.3145"/><polygon fill="#181818" points="1792.9512,875.3145,1782.9512,879.3145,1792.9512,883.3145,1788.9512,879.3145" style="stroke:#181818;stroke-width:1.0;"/><text fill="#000000" font-family="sans-serif" font-size="13" lengthAdjust="spacing" textLength="229.8042" x="1788.9512" y="861.0518">__hash_secret(plain_verification_token)</text><line style="stroke:#181818;stroke-width:1.0;" x1="1781.9512" x2="1823.9512" y1="940.6055" y2="940.6055"/><line style="stroke:#181818;stroke-width:1.0;" x1="1823.9512" x2="1823.9512" y1="940.6055" y2="953.6055"/><line style="stroke:#181818;stroke-width:1.0;" x1="1782.9512" x2="1823.9512" y1="953.6055" y2="953.6055"/><polygon fill="#181818" points="1792.9512,949.6055,1782.9512,953.6055,1792.9512,957.6055,1788.9512,953.6055" style="stroke:#181818;stroke-width:1.0;"/><text fill="#000000" font-family="sans-serif" font-size="13" lengthAdjust="spacing" textLength="192.2261" x="1788.9512" y="935.3428">verification_exp_at = (now + 48h)</text><polygon fill="#181818" points="1223.2544,1010.8965,1213.2544,1014.8965,1223.2544,1018.8965,1219.2544,1014.8965" style="stroke:#181818;stroke-width:1.0;"/><line style="stroke:#181818;stroke-width:1.0;stroke-dasharray:2.0,2.0;" x1="1217.2544" x2="1770.9512" y1="1014.8965" y2="1014.8965"/><text fill="#000000" font-family="sans-serif" font-size="13" lengthAdjust="spacing" textLength="74.4072" x="1229.2544" y="1009.6338">User (object)</text><polygon fill="#181818" points="781.6377,1042.1875,771.6377,1046.1875,781.6377,1050.1875,777.6377,1046.1875" style="stroke:#181818;stroke-width:1.0;"/><line style="stroke:#181818;stroke-width:1.0;stroke-dasharray:2.0,2.0;" x1="775.6377" x2="1206.2544" y1="1046.1875" y2="1046.1875"/><text fill="#000000" font-family="sans-serif" font-size="13" lengthAdjust="spacing" textLength="74.4072" x="787.6377" y="1040.9248">User (object)</text><polygon fill="#181818" points="1327.8472,1073.4785,1337.8472,1077.4785,1327.8472,1081.4785,1331.8472,1077.4785" style="stroke:#181818;stroke-width:1.0;"/><line style="stroke:#181818;stroke-width:1.0;" x1="770.6377" x2="1333.8472" y1="1077.4785" y2="1077.4785"/><text fill="#000000" font-family="sans-serif" font-size="13" lengthAdjust="spacing" textLength="340.3359" x="777.6377" y="1072.2158">send_verification_mail(verification_token, unverified_email)</text><line style="stroke:#181818;stroke-width:1.0;" x1="1354.8472" x2="1396.8472" y1="1108.7695" y2="1108.7695"/><line style="stroke:#181818;stroke-width:1.0;" x1="1396.8472" x2="1396.8472" y1="1108.7695" y2="1121.7695"/><line style="stroke:#181818;stroke-width:1.0;" x1="1355.8472" x2="1396.8472" y1="1121.7695" y2="1121.7695"/><polygon fill="#181818" points="1365.8472,1117.7695,1355.8472,1121.7695,1365.8472,1125.7695,1361.8472,1121.7695" style="stroke:#181818;stroke-width:1.0;"/><text fill="#000000" font-family="sans-serif" font-size="13" lengthAdjust="spacing" textLength="393.104" x="1361.8472" y="1103.5068">__create_verification_link(plain_verification_token, unverified_email)</text><polygon fill="#181818" points="2018.7554,1179.0605,2028.7554,1183.0605,2018.7554,1187.0605,2022.7554,1183.0605" style="stroke:#181818;stroke-width:1.0;"/><line style="stroke:#181818;stroke-width:1.0;" x1="1349.8472" x2="2024.7554" y1="1183.0605" y2="1183.0605"/><text fill="#000000" font-family="sans-serif" font-size="13" lengthAdjust="spacing" textLength="202.3252" x="1356.8472" y="1177.7979">send email {verification_link, email}</text><polygon fill="#181818" points="781.6377,1210.3516,771.6377,1214.3516,781.6377,1218.3516,777.6377,1214.3516" style="stroke:#181818;stroke-width:1.0;"/><line style="stroke:#181818;stroke-width:1.0;stroke-dasharray:2.0,2.0;" x1="775.6377" x2="1343.8472" y1="1214.3516" y2="1214.3516"/><text fill="#000000" font-family="sans-serif" font-size="13" lengthAdjust="spacing" textLength="74.4072" x="787.6377" y="1209.0889">User (object)</text><polygon fill="#181818" points="411.5972,1241.6426,401.5972,1245.6426,411.5972,1249.6426,407.5972,1245.6426" style="stroke:#181818;stroke-width:1.0;"/><line style="stroke:#181818;stroke-width:1.0;stroke-dasharray:2.0,2.0;" x1="405.5972" x2="764.6377" y1="1245.6426" y2="1245.6426"/><text fill="#000000" font-family="sans-serif" font-size="13" lengthAdjust="spacing" textLength="261.5552" x="417.5972" y="1240.3799">HTTP Response: 201 Created (User created)</text><polygon fill="#181818" points="64.7275,1272.9336,54.7275,1276.9336,64.7275,1280.9336,60.7275,1276.9336" style="stroke:#181818;stroke-width:1.0;"/><line style="stroke:#181818;stroke-width:1.0;stroke-dasharray:2.0,2.0;" x1="58.7275" x2="394.5972" y1="1276.9336" y2="1276.9336"/><text fill="#000000" font-family="sans-serif" font-size="13" lengthAdjust="spacing" textLength="233.9429" x="70.7275" y="1271.6709">Success Message and "check your mail"</text><polygon fill="#181818" points="64.7275,1304.2246,54.7275,1308.2246,64.7275,1312.2246,60.7275,1308.2246" style="stroke:#181818;stroke-width:1.0;"/><line style="stroke:#181818;stroke-width:1.0;" x1="58.7275" x2="2034.7554" y1="1308.2246" y2="1308.2246"/><text fill="#000000" font-family="sans-serif" font-size="13" lengthAdjust="spacing" textLength="73.6836" x="70.7275" y="1302.9619">Mail with link</text><!--SRC=[hPLHRzem4CVVyobEx2LeLEkwFMneJA9TqHv6sn7OqoJBJQxWOUpCTg2ewdVVsO4s8K0tQJm0YUz-T_U_iyrJfmsqhd054ukc1Tn2Fy_z_oZdnebKv5mvQ0sCLWvL1l48UUhQmN9mMJTwOyLK5JaONJZygI0UI6xdS2uBp8rG6wzaLFVomH8qIv5YM9yazVNB1HVo1nfn9rBkX5PLutxIXC5GPoZX-lONfWvy7idtRtsPpd2nfYUduGjt_9PRB1EQ37S2tZiqYall6e93DUAGNaHHhmS95GjKxOtHALeBSOXjIT0rl3fxruPUBzfe2IUVIIpemXLVYYbtQ7qMTWEuqsOHaQXYIIjUrAtNfvEJqYsfMkuo1q9AMuF10_gqEv1BBXJBkRKhRR97uDH0MzmkXBCH-H8X6H7XwtXy0oFyNQ1rNRYvJiQ72566rKIV_bDFYKIyVa8yOLbmPpuPxjYIIv75uLNxsOTQnwNRA5nQWj8EWdK4z26abo0m1rnQ36yfSV-schdDjRBOXVUdft3Eisqj4E-7jmEdMeX_RgX-QOmstGC9Ti1Hd_cKv0dUTM5efqJLxCUcmAfsL7kfryIlKh9cpGeARjdjclbu3RKcfLhzDDK53IcN1dcs1hmNbffPKIiGGo6n3ZkW_R9g7-52gpifQBkKKrnY_qqdlZUr3XZCXA4yminBFHKASZx5uwg5AgwqggasIQfJbb8OXsnPEHcOqtDKSNt8gdre6X_koeRlsn8NglJ4ZEtT6Dld9h_UGW9x_93m2bV_2JkC2BZ5CZRZTiOiKlekteBgvbL9Zpd_LUo3i9eZtkUCjayFOgLNy1hUVvWTnIJb50mRirotEppp1yV6qfJLYmhxhLbc1tRRKv-hVlB4P6pVC4gXvWT5V8bU7yiobhzwDXL0S867Hi1EkVBu30iNLdKJ71Ig4VR8eN5s-XOkGj7Pvime9SXgHBeNZbziHHhkpY5zqPaGBgWMNTJf7DQwCE1BQUrSEi-GhI3XPoNS3Bm2LNE_yWS0]--></g></svg>