<svg xmlns="http://www.w3.org/2000/svg" xmlns:xlink="http://www.w3.org/1999/xlink" contentStyleType="text/css" height="1433px" preserveAspectRatio="none" style="width:2164px;height:1433px;background:#FFFFFF;" version="1.1" viewBox="0 0 2164 1433" width="2164px" zoomAndPan="magnify"><defs/><g><rect fill="#FFFFFF" height="93.873" style="stroke:#181818;stroke-width:1.0;" width="10" x="390.5972" y="162.2031"/><rect fill="#FFFFFF" height="31.291" style="stroke:#181818;stroke-width:1.0;" width="10" x="390.5972" y="376.2402"/><rect fill="#FFFFFF" height="31.291" style="stroke:#181818;stroke-width:1.0;" width="10" x="390.5972" y="565.9863"/><rect fill="#FFFFFF" height="31.291" style="stroke:#181818;stroke-width:1.0;" width="10" x="390.5972" y="1269.0605"/><rect fill="#FFFFFF" height="1012.9844" style="stroke:#181818;stroke-width:1.0;" width="10" x="760.6377" y="256.0762"/><rect fill="#FFFFFF" height="158.4551" style="stroke:#181818;stroke-width:1.0;" width="10" x="1405.0464" y="287.3672"/><rect fill="#FFFFFF" height="158.4551" style="stroke:#181818;stroke-width:1.0;" width="10" x="1405.0464" y="477.1133"/><rect fill="#FFFFFF" height="570.9102" style="stroke:#181818;stroke-width:1.0;" width="10" x="1405.0464" y="666.8594"/><rect fill="#FFFFFF" height="28" style="stroke:#181818;stroke-width:1.0;" width="10" x="1410.0464" y="706.1504"/><rect fill="#FFFFFF" height="28" style="stroke:#181818;stroke-width:1.0;" width="10" x="1410.0464" y="1065.8965"/><rect fill="#FFFFFF" height="66.291" style="stroke:#181818;stroke-width:1.0;" width="10" x="1410.0464" y="1140.1875"/><rect fill="#FFFFFF" height="254.1641" style="stroke:#181818;stroke-width:1.0;" width="10" x="1832.1504" y="772.4414"/><rect fill="#FFFFFF" height="28" style="stroke:#181818;stroke-width:1.0;" width="10" x="1837.1504" y="811.7324"/><rect fill="#FFFFFF" height="28" style="stroke:#181818;stroke-width:1.0;" width="10" x="1837.1504" y="886.0234"/><rect fill="#FFFFFF" height="28" style="stroke:#181818;stroke-width:1.0;" width="10" x="1837.1504" y="960.3145"/><rect fill="#FFFFFF" height="155.1641" style="stroke:#181818;stroke-width:1.0;" width="10" x="2095.9546" y="1176.4785"/><rect fill="none" height="113.1641" style="stroke:#000000;stroke-width:1.5;" width="1455.167" x="10" y="302.3672"/><rect fill="none" height="113.1641" style="stroke:#000000;stroke-width:1.5;" width="1455.167" x="10" y="492.1133"/><line style="stroke:#181818;stroke-width:0.5;stroke-dasharray:5.0,5.0;" x1="53" x2="53" y1="83.6211" y2="1350.6426"/><line style="stroke:#181818;stroke-width:0.5;stroke-dasharray:5.0,5.0;" x1="394.687" x2="394.687" y1="83.6211" y2="1350.6426"/><line style="stroke:#181818;stroke-width:0.5;stroke-dasharray:5.0,5.0;" x1="764.7344" x2="764.7344" y1="83.6211" y2="1350.6426"/><line style="stroke:#181818;stroke-width:0.5;stroke-dasharray:5.0,5.0;" x1="894.541" x2="894.541" y1="83.6211" y2="1350.6426"/><line style="stroke:#181818;stroke-width:0.5;stroke-dasharray:5.0,5.0;" x1="1409.9258" x2="1409.9258" y1="83.6211" y2="1350.6426"/><line style="stroke:#181818;stroke-width:0.5;stroke-dasharray:5.0,5.0;" x1="1836.2402" x2="1836.2402" y1="83.6211" y2="1350.6426"/><line style="stroke:#181818;stroke-width:0.5;stroke-dasharray:5.0,5.0;" x1="2100.2202" x2="2100.2202" y1="83.6211" y2="1350.6426"/><text fill="#000000" font-family="sans-serif" font-size="14" lengthAdjust="spacing" textLength="61.4551" x="20" y="80.1074">New User</text><ellipse cx="53.7275" cy="13.5" fill="#E2E2F0" rx="8" ry="8" style="stroke:#181818;stroke-width:0.5;"/><path d="M53.7275,21.5 L53.7275,48.5 M40.7275,29.5 L66.7275,29.5 M53.7275,48.5 L40.7275,63.5 M53.7275,48.5 L66.7275,63.5 " fill="none" style="stroke:#181818;stroke-width:0.5;"/><text fill="#000000" font-family="sans-serif" font-size="14" lengthAdjust="spacing" textLength="61.4551" x="20" y="1364.75">New User</text><ellipse cx="53.7275" cy="1376.7637" fill="#E2E2F0" rx="8" ry="8" style="stroke:#181818;stroke-width:0.5;"/><path d="M53.7275,1384.7637 L53.7275,1411.7637 M40.7275,1392.7637 L66.7275,1392.7637 M53.7275,1411.7637 L40.7275,1426.7637 M53.7275,1411.7637 L66.7275,1426.7637 " fill="none" style="stroke:#181818;stroke-width:0.5;"/><rect fill="#E2E2F0" height="32.6211" rx="2.5" ry="2.5" style="stroke:#181818;stroke-width:0.5;" width="119.8203" x="335.687" y="50"/><text fill="#000000" font-family="sans-serif" font-size="14" lengthAdjust="spacing" textLength="105.8203" x="342.687" y="72.1074">Frontend (React)</text><rect fill="#E2E2F0" height="32.6211" rx="2.5" ry="2.5" style="stroke:#181818;stroke-width:0.5;" width="119.8203" x="335.687" y="1349.6426"/><text fill="#000000" font-family="sans-serif" font-size="14" lengthAdjust="spacing" textLength="105.8203" x="342.687" y="1371.75">Frontend (React)</text><rect fill="#E2E2F0" height="51.2422" rx="2.5" ry="2.5" style="stroke:#181818;stroke-width:0.5;" width="119.8066" x="705.7344" y="31.3789"/><text fill="#000000" font-family="sans-serif" font-size="14" lengthAdjust="spacing" textLength="80.9443" x="725.1655" y="53.4863">/signup route</text><text fill="#000000" font-family="sans-serif" font-size="14" lengthAdjust="spacing" textLength="101.917" x="716.624" y="72.1074">(Flask Blueprint)</text><rect fill="#E2E2F0" height="51.2422" rx="2.5" ry="2.5" style="stroke:#181818;stroke-width:0.5;" width="119.8066" x="705.7344" y="1349.6426"/><text fill="#000000" font-family="sans-serif" font-size="14" lengthAdjust="spacing" textLength="80.9443" x="725.1655" y="1371.75">/signup route</text><text fill="#000000" font-family="sans-serif" font-size="14" lengthAdjust="spacing" textLength="101.917" x="716.624" y="1390.3711">(Flask Blueprint)</text><rect fill="#E2E2F0" height="51.2422" rx="2.5" ry="2.5" style="stroke:#181818;stroke-width:0.5;" width="119.8066" x="835.541" y="31.3789"/><text fill="#000000" font-family="sans-serif" font-size="14" lengthAdjust="spacing" textLength="73.1377" x="858.8755" y="53.4863">/verify route</text><text fill="#000000" font-family="sans-serif" font-size="14" lengthAdjust="spacing" textLength="101.917" x="846.4307" y="72.1074">(Flask Blueprint)</text><rect fill="#E2E2F0" height="51.2422" rx="2.5" ry="2.5" style="stroke:#181818;stroke-width:0.5;" width="119.8066" x="835.541" y="1349.6426"/><text fill="#000000" font-family="sans-serif" font-size="14" lengthAdjust="spacing" textLength="73.1377" x="858.8755" y="1371.75">/verify route</text><text fill="#000000" font-family="sans-serif" font-size="14" lengthAdjust="spacing" textLength="101.917" x="846.4307" y="1390.3711">(Flask Blueprint)</text><rect fill="#E2E2F0" height="32.6211" rx="2.5" ry="2.5" style="stroke:#181818;stroke-width:0.5;" width="90.2412" x="1364.9258" y="50"/><text fill="#000000" font-family="sans-serif" font-size="14" lengthAdjust="spacing" textLength="76.2412" x="1371.9258" y="72.1074">UserService</text><rect fill="#E2E2F0" height="32.6211" rx="2.5" ry="2.5" style="stroke:#181818;stroke-width:0.5;" width="90.2412" x="1364.9258" y="1349.6426"/><text fill="#000000" font-family="sans-serif" font-size="14" lengthAdjust="spacing" textLength="76.2412" x="1371.9258" y="1371.75">UserService</text><rect fill="#E2E2F0" height="69.8633" rx="2.5" ry="2.5" style="stroke:#181818;stroke-width:0.5;" width="133.8203" x="1770.2402" y="12.7578"/><text fill="#000000" font-family="sans-serif" font-size="14" lengthAdjust="spacing" textLength="115.9307" x="1777.2402" y="34.8652">User Model Object</text><text fill="#000000" font-family="sans-serif" font-size="14" lengthAdjust="spacing" textLength="86.3584" x="1795.916" y="53.4863">(SQLAlchemy</text><text fill="#000000" font-family="sans-serif" font-size="14" lengthAdjust="spacing" textLength="80.1582" x="1799.0161" y="72.1074">to Database)</text><rect fill="#E2E2F0" height="69.8633" rx="2.5" ry="2.5" style="stroke:#181818;stroke-width:0.5;" width="133.8203" x="1770.2402" y="1349.6426"/><text fill="#000000" font-family="sans-serif" font-size="14" lengthAdjust="spacing" textLength="115.9307" x="1777.2402" y="1371.75">User Model Object</text><text fill="#000000" font-family="sans-serif" font-size="14" lengthAdjust="spacing" textLength="86.3584" x="1795.916" y="1390.3711">(SQLAlchemy</text><text fill="#000000" font-family="sans-serif" font-size="14" lengthAdjust="spacing" textLength="80.1582" x="1799.0161" y="1408.9922">to Database)</text><rect fill="#E2E2F0" height="51.2422" rx="2.5" ry="2.5" style="stroke:#181818;stroke-width:0.5;" width="103.4688" x="2049.2202" y="31.3789"/><text fill="#000000" font-family="sans-serif" font-size="14" lengthAdjust="spacing" textLength="51.3584" x="2073.3306" y="53.4863">External</text><text fill="#000000" font-family="sans-serif" font-size="14" lengthAdjust="spacing" textLength="85.5791" x="2060.1099" y="72.1074">Email Service</text><rect fill="#E2E2F0" height="51.2422" rx="2.5" ry="2.5" style="stroke:#181818;stroke-width:0.5;" width="103.4688" x="2049.2202" y="1349.6426"/><text fill="#000000" font-family="sans-serif" font-size="14" lengthAdjust="spacing" textLength="51.3584" x="2073.3306" y="1371.75">External</text><text fill="#000000" font-family="sans-serif" font-size="14" lengthAdjust="spacing" textLength="85.5791" x="2060.1099" y="1390.3711">Email Service</text><rect fill="#FFFFFF" height="93.873" style="stroke:#181818;stroke-width:1.0;" width="10" x="390.5972" y="162.2031"/><rect fill="#FFFFFF" height="31.291" style="stroke:#181818;stroke-width:1.0;" width="10" x="390.5972" y="376.2402"/><rect fill="#FFFFFF" height="31.291" style="stroke:#181818;stroke-width:1.0;" width="10" x="390.5972" y="565.9863"/><rect fill="#FFFFFF" height="31.291" style="stroke:#181818;stroke-width:1.0;" width="10" x="390.5972" y="1269.0605"/><rect fill="#FFFFFF" height="1012.9844" style="stroke:#181818;stroke-width:1.0;" width="10" x="760.6377" y="256.0762"/><rect fill="#FFFFFF" height="158.4551" style="stroke:#181818;stroke-width:1.0;" width="10" x="1405.0464" y="287.3672"/><rect fill="#FFFFFF" height="158.4551" style="stroke:#181818;stroke-width:1.0;" width="10" x="1405.0464" y="477.1133"/><rect fill="#FFFFFF" height="570.9102" style="stroke:#181818;stroke-width:1.0;" width="10" x="1405.0464" y="666.8594"/><rect fill="#FFFFFF" height="28" style="stroke:#181818;stroke-width:1.0;" width="10" x="1410.0464" y="706.1504"/><rect fill="#FFFFFF" height="28" style="stroke:#181818;stroke-width:1.0;" width="10" x="1410.0464" y="1065.8965"/><rect fill="#FFFFFF" height="66.291" style="stroke:#181818;stroke-width:1.0;" width="10" x="1410.0464" y="1140.1875"/><rect fill="#FFFFFF" height="254.1641" style="stroke:#181818;stroke-width:1.0;" width="10" x="1832.1504" y="772.4414"/><rect fill="#FFFFFF" height="28" style="stroke:#181818;stroke-width:1.0;" width="10" x="1837.1504" y="811.7324"/><rect fill="#FFFFFF" height="28" style="stroke:#181818;stroke-width:1.0;" width="10" x="1837.1504" y="886.0234"/><rect fill="#FFFFFF" height="28" style="stroke:#181818;stroke-width:1.0;" width="10" x="1837.1504" y="960.3145"/><rect fill="#FFFFFF" height="155.1641" style="stroke:#181818;stroke-width:1.0;" width="10" x="2095.9546" y="1176.4785"/><rect fill="#EEEEEE" height="3" style="stroke:#EEEEEE;stroke-width:1.0;" width="2157.689" x="0" y="115.2666"/><line style="stroke:#000000;stroke-width:1.0;" x1="0" x2="2157.689" y1="115.2666" y2="115.2666"/><line style="stroke:#000000;stroke-width:1.0;" x1="0" x2="2157.689" y1="118.2666" y2="118.2666"/><rect fill="#EEEEEE" height="25.291" style="stroke:#000000;stroke-width:2.0;" width="119.4727" x="1019.1082" y="103.6211"/><text fill="#000000" font-family="sans-serif" font-size="13" font-weight="bold" lengthAdjust="spacing" textLength="101.8608" x="1025.1082" y="121.6494">Sign up Process</text><polygon fill="#181818" points="378.5972,158.2031,388.5972,162.2031,378.5972,166.2031,382.5972,162.2031" style="stroke:#181818;stroke-width:1.0;"/><line style="stroke:#181818;stroke-width:1.0;" x1="53.7275" x2="384.5972" y1="162.2031" y2="162.2031"/><text fill="#000000" font-family="sans-serif" font-size="13" lengthAdjust="spacing" textLength="147.4053" x="60.7275" y="156.9404">Navigates to sign up form</text><polygon fill="#181818" points="64.7275,189.4941,54.7275,193.4941,64.7275,197.4941,60.7275,193.4941" style="stroke:#181818;stroke-width:1.0;"/><line style="stroke:#181818;stroke-width:1.0;stroke-dasharray:2.0,2.0;" x1="58.7275" x2="389.5972" y1="193.4941" y2="193.4941"/><text fill="#000000" font-family="sans-serif" font-size="13" lengthAdjust="spacing" textLength="73.7026" x="70.7275" y="188.2314">Sign up form</text><polygon fill="#181818" points="378.5972,220.7852,388.5972,224.7852,378.5972,228.7852,382.5972,224.7852" style="stroke:#181818;stroke-width:1.0;"/><line style="stroke:#181818;stroke-width:1.0;" x1="53.7275" x2="384.5972" y1="224.7852" y2="224.7852"/><text fill="#000000" font-family="sans-serif" font-size="13" lengthAdjust="spacing" textLength="312.8696" x="60.7275" y="219.5225">Fills sign up form {email, plain_password} and submits</text><polygon fill="#181818" points="748.6377,252.0762,758.6377,256.0762,748.6377,260.0762,752.6377,256.0762" style="stroke:#181818;stroke-width:1.0;"/><line style="stroke:#181818;stroke-width:1.0;" x1="395.5972" x2="754.6377" y1="256.0762" y2="256.0762"/><text fill="#000000" font-family="sans-serif" font-size="13" lengthAdjust="spacing" textLength="269.5088" x="402.5972" y="250.8135">HTTP Request: POST {email, plain_password}</text><polygon fill="#181818" points="1393.0464,283.3672,1403.0464,287.3672,1393.0464,291.3672,1397.0464,287.3672" style="stroke:#181818;stroke-width:1.0;"/><line style="stroke:#181818;stroke-width:1.0;" x1="770.6377" x2="1399.0464" y1="287.3672" y2="287.3672"/><text fill="#000000" font-family="sans-serif" font-size="13" lengthAdjust="spacing" textLength="165.4453" x="777.6377" y="282.1045">is_email_format_valid(email)</text><path d="M10,302.3672 L70.1709,302.3672 L70.1709,311.6582 L60.1709,321.6582 L10,321.6582 L10,302.3672 " fill="#EEEEEE" style="stroke:#000000;stroke-width:1.5;"/><rect fill="none" height="113.1641" style="stroke:#000000;stroke-width:1.5;" width="1455.167" x="10" y="302.3672"/><text fill="#000000" font-family="sans-serif" font-size="13" font-weight="bold" lengthAdjust="spacing" textLength="15.1709" x="25" y="317.3955">alt</text><text fill="#000000" font-family="sans-serif" font-size="11" font-weight="bold" lengthAdjust="spacing" textLength="122.2354" x="85.1709" y="316.2373">[Email format not valid]</text><polygon fill="#181818" points="781.6377,340.9492,771.6377,344.9492,781.6377,348.9492,777.6377,344.9492" style="stroke:#181818;stroke-width:1.0;"/><line style="stroke:#181818;stroke-width:1.0;stroke-dasharray:2.0,2.0;" x1="775.6377" x2="1404.0464" y1="344.9492" y2="344.9492"/><text fill="#000000" font-family="sans-serif" font-size="13" lengthAdjust="spacing" textLength="31.7891" x="787.6377" y="339.6865">False</text><polygon fill="#181818" points="411.5972,372.2402,401.5972,376.2402,411.5972,380.2402,407.5972,376.2402" style="stroke:#181818;stroke-width:1.0;"/><line style="stroke:#181818;stroke-width:1.0;stroke-dasharray:2.0,2.0;" x1="405.5972" x2="759.6377" y1="376.2402" y2="376.2402"/><text fill="#000000" font-family="sans-serif" font-size="13" lengthAdjust="spacing" textLength="341.0405" x="417.5972" y="370.9775">HTTP Response: 400 Bad Request (Email format not valid)</text><polygon fill="#181818" points="64.7275,403.5313,54.7275,407.5313,64.7275,411.5313,60.7275,407.5313" style="stroke:#181818;stroke-width:1.0;"/><line style="stroke:#181818;stroke-width:1.0;stroke-dasharray:2.0,2.0;" x1="58.7275" x2="394.5972" y1="407.5313" y2="407.5313"/><text fill="#000000" font-family="sans-serif" font-size="13" lengthAdjust="spacing" textLength="218.188" x="70.7275" y="402.2686">Error: Email format not valid, try again</text><polygon fill="#181818" points="781.6377,441.8223,771.6377,445.8223,781.6377,449.8223,777.6377,445.8223" style="stroke:#181818;stroke-width:1.0;"/><line style="stroke:#181818;stroke-width:1.0;stroke-dasharray:2.0,2.0;" x1="775.6377" x2="1409.0464" y1="445.8223" y2="445.8223"/><text fill="#000000" font-family="sans-serif" font-size="13" lengthAdjust="spacing" textLength="26.73" x="787.6377" y="440.5596">True</text><polygon fill="#181818" points="1393.0464,473.1133,1403.0464,477.1133,1393.0464,481.1133,1397.0464,477.1133" style="stroke:#181818;stroke-width:1.0;"/><line style="stroke:#181818;stroke-width:1.0;" x1="770.6377" x2="1399.0464" y1="477.1133" y2="477.1133"/><text fill="#000000" font-family="sans-serif" font-size="13" lengthAdjust="spacing" textLength="163.2871" x="777.6377" y="471.8506">query_users_by_mail(email)</text><path d="M10,492.1133 L70.1709,492.1133 L70.1709,501.4043 L60.1709,511.4043 L10,511.4043 L10,492.1133 " fill="#EEEEEE" style="stroke:#000000;stroke-width:1.5;"/><rect fill="none" height="113.1641" style="stroke:#000000;stroke-width:1.5;" width="1455.167" x="10" y="492.1133"/><text fill="#000000" font-family="sans-serif" font-size="13" font-weight="bold" lengthAdjust="spacing" textLength="15.1709" x="25" y="507.1416">alt</text><text fill="#000000" font-family="sans-serif" font-size="11" font-weight="bold" lengthAdjust="spacing" textLength="127.1553" x="85.1709" y="505.9834">[Account already exists]</text><polygon fill="#181818" points="781.6377,530.6953,771.6377,534.6953,781.6377,538.6953,777.6377,534.6953" style="stroke:#181818;stroke-width:1.0;"/><line style="stroke:#181818;stroke-width:1.0;stroke-dasharray:2.0,2.0;" x1="775.6377" x2="1404.0464" y1="534.6953" y2="534.6953"/><text fill="#000000" font-family="sans-serif" font-size="13" lengthAdjust="spacing" textLength="74.4072" x="787.6377" y="529.4326">User (object)</text><polygon fill="#181818" points="411.5972,561.9863,401.5972,565.9863,411.5972,569.9863,407.5972,565.9863" style="stroke:#181818;stroke-width:1.0;"/><line style="stroke:#181818;stroke-width:1.0;stroke-dasharray:2.0,2.0;" x1="405.5972" x2="759.6377" y1="565.9863" y2="565.9863"/><text fill="#000000" font-family="sans-serif" font-size="13" lengthAdjust="spacing" textLength="248.5234" x="417.5972" y="560.7236">HTTP Response: 409 Conflict (User exists)</text><polygon fill="#181818" points="64.7275,593.2773,54.7275,597.2773,64.7275,601.2773,60.7275,597.2773" style="stroke:#181818;stroke-width:1.0;"/><line style="stroke:#181818;stroke-width:1.0;stroke-dasharray:2.0,2.0;" x1="58.7275" x2="394.5972" y1="597.2773" y2="597.2773"/><text fill="#000000" font-family="sans-serif" font-size="13" lengthAdjust="spacing" textLength="299.8696" x="70.7275" y="592.0146">Error: account already exists, redirects to login page</text><polygon fill="#181818" points="781.6377,631.5684,771.6377,635.5684,781.6377,639.5684,777.6377,635.5684" style="stroke:#181818;stroke-width:1.0;"/><line style="stroke:#181818;stroke-width:1.0;stroke-dasharray:2.0,2.0;" x1="775.6377" x2="1409.0464" y1="635.5684" y2="635.5684"/><text fill="#000000" font-family="sans-serif" font-size="13" lengthAdjust="spacing" textLength="31.0781" x="787.6377" y="630.3057">None</text><polygon fill="#181818" points="1393.0464,662.8594,1403.0464,666.8594,1393.0464,670.8594,1397.0464,666.8594" style="stroke:#181818;stroke-width:1.0;"/><line style="stroke:#181818;stroke-width:1.0;" x1="770.6377" x2="1399.0464" y1="666.8594" y2="666.8594"/><text fill="#000000" font-family="sans-serif" font-size="13" lengthAdjust="spacing" textLength="205.9307" x="777.6377" y="661.5967">create_user(email, plain_password)</text><line style="stroke:#181818;stroke-width:1.0;" x1="1420.0464" x2="1462.0464" y1="698.1504" y2="698.1504"/><line style="stroke:#181818;stroke-width:1.0;" x1="1462.0464" x2="1462.0464" y1="698.1504" y2="711.1504"/><line style="stroke:#181818;stroke-width:1.0;" x1="1421.0464" x2="1462.0464" y1="711.1504" y2="711.1504"/><polygon fill="#181818" points="1431.0464,707.1504,1421.0464,711.1504,1431.0464,715.1504,1427.0464,711.1504" style="stroke:#181818;stroke-width:1.0;"/><text fill="#000000" font-family="sans-serif" font-size="13" lengthAdjust="spacing" textLength="167.6479" x="1427.0464" y="692.8877">__create_verification_token()</text><polygon fill="#181818" points="1820.1504,768.4414,1830.1504,772.4414,1820.1504,776.4414,1824.1504,772.4414" style="stroke:#181818;stroke-width:1.0;"/><line style="stroke:#181818;stroke-width:1.0;" x1="1415.0464" x2="1826.1504" y1="772.4414" y2="772.4414"/><text fill="#000000" font-family="sans-serif" font-size="13" lengthAdjust="spacing" textLength="367.8149" x="1422.0464" y="767.1787">new(unverified_email, plain_password, plain_verification_token)</text><line style="stroke:#181818;stroke-width:1.0;" x1="1847.1504" x2="1889.1504" y1="803.7324" y2="803.7324"/><line style="stroke:#181818;stroke-width:1.0;" x1="1889.1504" x2="1889.1504" y1="803.7324" y2="816.7324"/><line style="stroke:#181818;stroke-width:1.0;" x1="1848.1504" x2="1889.1504" y1="816.7324" y2="816.7324"/><polygon fill="#181818" points="1858.1504,812.7324,1848.1504,816.7324,1858.1504,820.7324,1854.1504,816.7324" style="stroke:#181818;stroke-width:1.0;"/><text fill="#000000" font-family="sans-serif" font-size="13" lengthAdjust="spacing" textLength="149.5762" x="1854.1504" y="798.4697">__hash_secret(password)</text><line style="stroke:#181818;stroke-width:1.0;" x1="1847.1504" x2="1889.1504" y1="878.0234" y2="878.0234"/><line style="stroke:#181818;stroke-width:1.0;" x1="1889.1504" x2="1889.1504" y1="878.0234" y2="891.0234"/><line style="stroke:#181818;stroke-width:1.0;" x1="1848.1504" x2="1889.1504" y1="891.0234" y2="891.0234"/><polygon fill="#181818" points="1858.1504,887.0234,1848.1504,891.0234,1858.1504,895.0234,1854.1504,891.0234" style="stroke:#181818;stroke-width:1.0;"/><text fill="#000000" font-family="sans-serif" font-size="13" lengthAdjust="spacing" textLength="229.8042" x="1854.1504" y="872.7607">__hash_secret(plain_verification_token)</text><line style="stroke:#181818;stroke-width:1.0;" x1="1847.1504" x2="1889.1504" y1="952.3145" y2="952.3145"/><line style="stroke:#181818;stroke-width:1.0;" x1="1889.1504" x2="1889.1504" y1="952.3145" y2="965.3145"/><line style="stroke:#181818;stroke-width:1.0;" x1="1848.1504" x2="1889.1504" y1="965.3145" y2="965.3145"/><polygon fill="#181818" points="1858.1504,961.3145,1848.1504,965.3145,1858.1504,969.3145,1854.1504,965.3145" style="stroke:#181818;stroke-width:1.0;"/><text fill="#000000" font-family="sans-serif" font-size="13" lengthAdjust="spacing" textLength="192.2261" x="1854.1504" y="947.0518">verification_exp_at = (now + 48h)</text><polygon fill="#181818" points="1426.0464,1022.6055,1416.0464,1026.6055,1426.0464,1030.6055,1422.0464,1026.6055" style="stroke:#181818;stroke-width:1.0;"/><line style="stroke:#181818;stroke-width:1.0;stroke-dasharray:2.0,2.0;" x1="1420.0464" x2="1836.1504" y1="1026.6055" y2="1026.6055"/><text fill="#000000" font-family="sans-serif" font-size="13" lengthAdjust="spacing" textLength="74.4072" x="1432.0464" y="1021.3428">User (object)</text><line style="stroke:#181818;stroke-width:1.0;" x1="1420.0464" x2="1462.0464" y1="1057.8965" y2="1057.8965"/><line style="stroke:#181818;stroke-width:1.0;" x1="1462.0464" x2="1462.0464" y1="1057.8965" y2="1070.8965"/><line style="stroke:#181818;stroke-width:1.0;" x1="1421.0464" x2="1462.0464" y1="1070.8965" y2="1070.8965"/><polygon fill="#181818" points="1431.0464,1066.8965,1421.0464,1070.8965,1431.0464,1074.8965,1427.0464,1070.8965" style="stroke:#181818;stroke-width:1.0;"/><text fill="#000000" font-family="sans-serif" font-size="13" lengthAdjust="spacing" textLength="393.104" x="1427.0464" y="1052.6338">__create_verification_link(plain_verification_token, unverified_email)</text><line style="stroke:#181818;stroke-width:1.0;" x1="1415.0464" x2="1462.0464" y1="1127.1875" y2="1127.1875"/><line style="stroke:#181818;stroke-width:1.0;" x1="1462.0464" x2="1462.0464" y1="1127.1875" y2="1140.1875"/><line style="stroke:#181818;stroke-width:1.0;" x1="1421.0464" x2="1462.0464" y1="1140.1875" y2="1140.1875"/><polygon fill="#181818" points="1431.0464,1136.1875,1421.0464,1140.1875,1431.0464,1144.1875,1427.0464,1140.1875" style="stroke:#181818;stroke-width:1.0;"/><text fill="#000000" font-family="sans-serif" font-size="13" lengthAdjust="spacing" textLength="240.6143" x="1427.0464" y="1121.9248">__send_verification_mail(verification_link)</text><polygon fill="#181818" points="2083.9546,1172.4785,2093.9546,1176.4785,2083.9546,1180.4785,2087.9546,1176.4785" style="stroke:#181818;stroke-width:1.0;"/><line style="stroke:#181818;stroke-width:1.0;" x1="1420.0464" x2="2089.9546" y1="1176.4785" y2="1176.4785"/><text fill="#000000" font-family="sans-serif" font-size="13" lengthAdjust="spacing" textLength="202.3252" x="1427.0464" y="1171.2158">send email {verification_link, email}</text><polygon fill="#181818" points="781.6377,1233.7695,771.6377,1237.7695,781.6377,1241.7695,777.6377,1237.7695" style="stroke:#181818;stroke-width:1.0;"/><line style="stroke:#181818;stroke-width:1.0;stroke-dasharray:2.0,2.0;" x1="775.6377" x2="1409.0464" y1="1237.7695" y2="1237.7695"/><text fill="#000000" font-family="sans-serif" font-size="13" lengthAdjust="spacing" textLength="74.4072" x="787.6377" y="1232.5068">User (object)</text><polygon fill="#181818" points="411.5972,1265.0605,401.5972,1269.0605,411.5972,1273.0605,407.5972,1269.0605" style="stroke:#181818;stroke-width:1.0;"/><line style="stroke:#181818;stroke-width:1.0;stroke-dasharray:2.0,2.0;" x1="405.5972" x2="764.6377" y1="1269.0605" y2="1269.0605"/><text fill="#000000" font-family="sans-serif" font-size="13" lengthAdjust="spacing" textLength="261.5552" x="417.5972" y="1263.7979">HTTP Response: 201 Created (User created)</text><polygon fill="#181818" points="64.7275,1296.3516,54.7275,1300.3516,64.7275,1304.3516,60.7275,1300.3516" style="stroke:#181818;stroke-width:1.0;"/><line style="stroke:#181818;stroke-width:1.0;stroke-dasharray:2.0,2.0;" x1="58.7275" x2="394.5972" y1="1300.3516" y2="1300.3516"/><text fill="#000000" font-family="sans-serif" font-size="13" lengthAdjust="spacing" textLength="233.9429" x="70.7275" y="1295.0889">Success Message and "check your mail"</text><polygon fill="#181818" points="64.7275,1327.6426,54.7275,1331.6426,64.7275,1335.6426,60.7275,1331.6426" style="stroke:#181818;stroke-width:1.0;"/><line style="stroke:#181818;stroke-width:1.0;" x1="58.7275" x2="2099.9546" y1="1331.6426" y2="1331.6426"/><text fill="#000000" font-family="sans-serif" font-size="13" lengthAdjust="spacing" textLength="73.6836" x="70.7275" y="1326.3799">Mail with link</text><line style="stroke:#000000;stroke-width:1.0;stroke-dasharray:2.0,2.0;" x1="0" x2="2157.689" y1="1339.6426" y2="1339.6426"/><!--SRC=[pLPDRnit4BtlhnZej4Pbr0byQ8sgW9D8BT3AThtMdWeGz2ujCLgJMv8hMGZotpFaIXQvNtRI7EA3BEtEl1c- -NYacP4AHbTi2mlDr0YeXikojD-ZaYh3CrvIOM0qKr8O9dA8RndDp8cpd4r3evyrNugg12Khm_uL4CyAgjVmhgXOgRZOUoMt3QyDK_nXzu9Nsl2oAIPCRNZ6tFj5qduFSvcp0gxlFxBCW8LE_ldxiiXMx767luo43zJGUwfP7MCn3p6cJuOfGGlhEdsal00_uXmVHD5a0WcU6l3ODqfcJ6kOJA8zXt3wEv845t15Dtn93TCsgDxRFqZr626PV8DlB9a7hzzEJsktnBTiOivuKUW033unc-KOoe9oGKggzLQg_3DGB9okxX-vqH7w8a9oYmX_tjtTm2txhsBQNC3DTNBNXn3bp4_q-JlM4f4GRv4W7jV4kHER33LaGmkUn-xHoT47AqKBioUqjWGX3JZh2F0F8Iq53dD62ytSKqpSFlKprwKKcbt0-TaPlAFvuImGTuEVE1p_8FPtY_MfKb9Tz2Gu1gDsG9T8Z_CEYS49YVpixrJ5VExmx1vVcApQaGg3QtA_8pPU7rkNMIOhx4bQA4Rp7R0dhh6OJRRSGMBf6lxaPTP-XVTIF1GSfoDshZNir_54ErCRWs8vLvY7w_b2Bhc0aYxPArYxacA0jGp36EPeYpkxDMGFVGwUXEnztSRX6JLS2cBaceauT0g3xo7c227ODgv4xSzoqXd_yBiTnGyoZn3m04l8YkeLqGmJD77NGUP1JaFEhuhT2nOuigUIOFDF81Po2p_1-I-hGPYahk6yrOajk-6I55oiUmyoXcO1Nb6xEfR6JWiHtSorOdTra5tt268Xm4M5Jos_SVtcyz7TYKIhbNlcDRGRcDotPs_WlUCjtmzkpM8UOE1o7bQNAdDwDSSF74od4YCKnsmDErafi4SPDJR_4UH0YFktvMO5bW7Vl1P8d1WtzYYKqrDdd7gqTObbXWjfhHqSn1xVDhzcAsDAjQ2bRK7xOzhKitOpzIeRtZVIxwziwP2ofPqx-XpNeO4PhjZygzQoeo-CtjwwwR1MfRrQvOsWumLhGp2OtHYuzCCXQorCd2AZshmjditgfiebtfVi2PoYWBJovD1RL3h1-76OT2ZrKFSJMjzwQqBS3BzEDW8rscDqoDd_LQ1l415RGj-ZdjLZ5N4QifLZpzU9unJyQBFXP-bcmoCUzu4T1VBSi9EMIRsp9YsnycsQxz1yD6hG-iA83l3p5c_5rtyTBiE7I854fDyW4Nttke31Bm00]--></g></svg>