<svg xmlns="http://www.w3.org/2000/svg" xmlns:xlink="http://www.w3.org/1999/xlink" contentStyleType="text/css" height="1190px" preserveAspectRatio="none" style="width:2164px;height:1190px;background:#FFFFFF;" version="1.1" viewBox="0 0 2164 1190" width="2164px" zoomAndPan="magnify"><defs/><g><rect fill="#FFFFFF" height="31.291" style="stroke:#181818;stroke-width:1.0;" width="10" x="390.5972" y="164.2031"/><rect fill="#FFFFFF" height="31.291" style="stroke:#181818;stroke-width:1.0;" width="10" x="390.5972" y="315.6582"/><rect fill="#FFFFFF" height="31.291" style="stroke:#181818;stroke-width:1.0;" width="10" x="390.5972" y="505.4043"/><rect fill="#FFFFFF" height="31.291" style="stroke:#181818;stroke-width:1.0;" width="10" x="390.5972" y="832.0234"/><rect fill="#FFFFFF" height="31.291" style="stroke:#181818;stroke-width:1.0;" width="10" x="390.5972" y="1058.0605"/><rect fill="#FFFFFF" height="862.5664" style="stroke:#181818;stroke-width:1.0;" width="10" x="890.4443" y="195.4941"/><rect fill="#FFFFFF" height="158.4551" style="stroke:#181818;stroke-width:1.0;" width="10" x="1405.0464" y="226.7852"/><rect fill="#FFFFFF" height="158.4551" style="stroke:#181818;stroke-width:1.0;" width="10" x="1405.0464" y="416.5313"/><rect fill="#FFFFFF" height="420.4922" style="stroke:#181818;stroke-width:1.0;" width="10" x="1405.0464" y="606.2773"/><rect fill="#FFFFFF" height="357.9102" style="stroke:#181818;stroke-width:1.0;" width="10" x="1832.1504" y="637.5684"/><rect fill="#FFFFFF" height="28" style="stroke:#181818;stroke-width:1.0;" width="10" x="1837.1504" y="676.8594"/><rect fill="none" height="113.1641" style="stroke:#000000;stroke-width:1.5;" width="1455.167" x="10" y="241.7852"/><rect fill="none" height="113.1641" style="stroke:#000000;stroke-width:1.5;" width="1455.167" x="10" y="431.5313"/><rect fill="none" height="144.4551" style="stroke:#000000;stroke-width:1.5;" width="1904.0605" x="10" y="726.8594"/><line style="stroke:#181818;stroke-width:0.5;stroke-dasharray:5.0,5.0;" x1="53" x2="53" y1="83.6211" y2="1107.3516"/><line style="stroke:#181818;stroke-width:0.5;stroke-dasharray:5.0,5.0;" x1="394.687" x2="394.687" y1="83.6211" y2="1107.3516"/><line style="stroke:#181818;stroke-width:0.5;stroke-dasharray:5.0,5.0;" x1="764.7344" x2="764.7344" y1="83.6211" y2="1107.3516"/><line style="stroke:#181818;stroke-width:0.5;stroke-dasharray:5.0,5.0;" x1="894.541" x2="894.541" y1="83.6211" y2="1107.3516"/><line style="stroke:#181818;stroke-width:0.5;stroke-dasharray:5.0,5.0;" x1="1409.9258" x2="1409.9258" y1="83.6211" y2="1107.3516"/><line style="stroke:#181818;stroke-width:0.5;stroke-dasharray:5.0,5.0;" x1="1836.2402" x2="1836.2402" y1="83.6211" y2="1107.3516"/><line style="stroke:#181818;stroke-width:0.5;stroke-dasharray:5.0,5.0;" x1="2100.2202" x2="2100.2202" y1="83.6211" y2="1107.3516"/><text fill="#000000" font-family="sans-serif" font-size="14" lengthAdjust="spacing" textLength="61.4551" x="20" y="80.1074">New User</text><ellipse cx="53.7275" cy="13.5" fill="#E2E2F0" rx="8" ry="8" style="stroke:#181818;stroke-width:0.5;"/><path d="M53.7275,21.5 L53.7275,48.5 M40.7275,29.5 L66.7275,29.5 M53.7275,48.5 L40.7275,63.5 M53.7275,48.5 L66.7275,63.5 " fill="none" style="stroke:#181818;stroke-width:0.5;"/><text fill="#000000" font-family="sans-serif" font-size="14" lengthAdjust="spacing" textLength="61.4551" x="20" y="1121.459">New User</text><ellipse cx="53.7275" cy="1133.4727" fill="#E2E2F0" rx="8" ry="8" style="stroke:#181818;stroke-width:0.5;"/><path d="M53.7275,1141.4727 L53.7275,1168.4727 M40.7275,1149.4727 L66.7275,1149.4727 M53.7275,1168.4727 L40.7275,1183.4727 M53.7275,1168.4727 L66.7275,1183.4727 " fill="none" style="stroke:#181818;stroke-width:0.5;"/><rect fill="#E2E2F0" height="32.6211" rx="2.5" ry="2.5" style="stroke:#181818;stroke-width:0.5;" width="119.8203" x="335.687" y="50"/><text fill="#000000" font-family="sans-serif" font-size="14" lengthAdjust="spacing" textLength="105.8203" x="342.687" y="72.1074">Frontend (React)</text><rect fill="#E2E2F0" height="32.6211" rx="2.5" ry="2.5" style="stroke:#181818;stroke-width:0.5;" width="119.8203" x="335.687" y="1106.3516"/><text fill="#000000" font-family="sans-serif" font-size="14" lengthAdjust="spacing" textLength="105.8203" x="342.687" y="1128.459">Frontend (React)</text><rect fill="#E2E2F0" height="51.2422" rx="2.5" ry="2.5" style="stroke:#181818;stroke-width:0.5;" width="119.8066" x="705.7344" y="31.3789"/><text fill="#000000" font-family="sans-serif" font-size="14" lengthAdjust="spacing" textLength="80.9443" x="725.1655" y="53.4863">/signup route</text><text fill="#000000" font-family="sans-serif" font-size="14" lengthAdjust="spacing" textLength="101.917" x="716.624" y="72.1074">(Flask Blueprint)</text><rect fill="#E2E2F0" height="51.2422" rx="2.5" ry="2.5" style="stroke:#181818;stroke-width:0.5;" width="119.8066" x="705.7344" y="1106.3516"/><text fill="#000000" font-family="sans-serif" font-size="14" lengthAdjust="spacing" textLength="80.9443" x="725.1655" y="1128.459">/signup route</text><text fill="#000000" font-family="sans-serif" font-size="14" lengthAdjust="spacing" textLength="101.917" x="716.624" y="1147.0801">(Flask Blueprint)</text><rect fill="#E2E2F0" height="51.2422" rx="2.5" ry="2.5" style="stroke:#181818;stroke-width:0.5;" width="119.8066" x="835.541" y="31.3789"/><text fill="#000000" font-family="sans-serif" font-size="14" lengthAdjust="spacing" textLength="73.1377" x="858.8755" y="53.4863">/verify route</text><text fill="#000000" font-family="sans-serif" font-size="14" lengthAdjust="spacing" textLength="101.917" x="846.4307" y="72.1074">(Flask Blueprint)</text><rect fill="#E2E2F0" height="51.2422" rx="2.5" ry="2.5" style="stroke:#181818;stroke-width:0.5;" width="119.8066" x="835.541" y="1106.3516"/><text fill="#000000" font-family="sans-serif" font-size="14" lengthAdjust="spacing" textLength="73.1377" x="858.8755" y="1128.459">/verify route</text><text fill="#000000" font-family="sans-serif" font-size="14" lengthAdjust="spacing" textLength="101.917" x="846.4307" y="1147.0801">(Flask Blueprint)</text><rect fill="#E2E2F0" height="32.6211" rx="2.5" ry="2.5" style="stroke:#181818;stroke-width:0.5;" width="90.2412" x="1364.9258" y="50"/><text fill="#000000" font-family="sans-serif" font-size="14" lengthAdjust="spacing" textLength="76.2412" x="1371.9258" y="72.1074">UserService</text><rect fill="#E2E2F0" height="32.6211" rx="2.5" ry="2.5" style="stroke:#181818;stroke-width:0.5;" width="90.2412" x="1364.9258" y="1106.3516"/><text fill="#000000" font-family="sans-serif" font-size="14" lengthAdjust="spacing" textLength="76.2412" x="1371.9258" y="1128.459">UserService</text><rect fill="#E2E2F0" height="69.8633" rx="2.5" ry="2.5" style="stroke:#181818;stroke-width:0.5;" width="133.8203" x="1770.2402" y="12.7578"/><text fill="#000000" font-family="sans-serif" font-size="14" lengthAdjust="spacing" textLength="115.9307" x="1777.2402" y="34.8652">User Model Object</text><text fill="#000000" font-family="sans-serif" font-size="14" lengthAdjust="spacing" textLength="86.3584" x="1795.916" y="53.4863">(SQLAlchemy</text><text fill="#000000" font-family="sans-serif" font-size="14" lengthAdjust="spacing" textLength="80.1582" x="1799.0161" y="72.1074">to Database)</text><rect fill="#E2E2F0" height="69.8633" rx="2.5" ry="2.5" style="stroke:#181818;stroke-width:0.5;" width="133.8203" x="1770.2402" y="1106.3516"/><text fill="#000000" font-family="sans-serif" font-size="14" lengthAdjust="spacing" textLength="115.9307" x="1777.2402" y="1128.459">User Model Object</text><text fill="#000000" font-family="sans-serif" font-size="14" lengthAdjust="spacing" textLength="86.3584" x="1795.916" y="1147.0801">(SQLAlchemy</text><text fill="#000000" font-family="sans-serif" font-size="14" lengthAdjust="spacing" textLength="80.1582" x="1799.0161" y="1165.7012">to Database)</text><rect fill="#E2E2F0" height="51.2422" rx="2.5" ry="2.5" style="stroke:#181818;stroke-width:0.5;" width="103.4688" x="2049.2202" y="31.3789"/><text fill="#000000" font-family="sans-serif" font-size="14" lengthAdjust="spacing" textLength="51.3584" x="2073.3306" y="53.4863">External</text><text fill="#000000" font-family="sans-serif" font-size="14" lengthAdjust="spacing" textLength="85.5791" x="2060.1099" y="72.1074">Email Service</text><rect fill="#E2E2F0" height="51.2422" rx="2.5" ry="2.5" style="stroke:#181818;stroke-width:0.5;" width="103.4688" x="2049.2202" y="1106.3516"/><text fill="#000000" font-family="sans-serif" font-size="14" lengthAdjust="spacing" textLength="51.3584" x="2073.3306" y="1128.459">External</text><text fill="#000000" font-family="sans-serif" font-size="14" lengthAdjust="spacing" textLength="85.5791" x="2060.1099" y="1147.0801">Email Service</text><rect fill="#FFFFFF" height="31.291" style="stroke:#181818;stroke-width:1.0;" width="10" x="390.5972" y="164.2031"/><rect fill="#FFFFFF" height="31.291" style="stroke:#181818;stroke-width:1.0;" width="10" x="390.5972" y="315.6582"/><rect fill="#FFFFFF" height="31.291" style="stroke:#181818;stroke-width:1.0;" width="10" x="390.5972" y="505.4043"/><rect fill="#FFFFFF" height="31.291" style="stroke:#181818;stroke-width:1.0;" width="10" x="390.5972" y="832.0234"/><rect fill="#FFFFFF" height="31.291" style="stroke:#181818;stroke-width:1.0;" width="10" x="390.5972" y="1058.0605"/><rect fill="#FFFFFF" height="862.5664" style="stroke:#181818;stroke-width:1.0;" width="10" x="890.4443" y="195.4941"/><rect fill="#FFFFFF" height="158.4551" style="stroke:#181818;stroke-width:1.0;" width="10" x="1405.0464" y="226.7852"/><rect fill="#FFFFFF" height="158.4551" style="stroke:#181818;stroke-width:1.0;" width="10" x="1405.0464" y="416.5313"/><rect fill="#FFFFFF" height="420.4922" style="stroke:#181818;stroke-width:1.0;" width="10" x="1405.0464" y="606.2773"/><rect fill="#FFFFFF" height="357.9102" style="stroke:#181818;stroke-width:1.0;" width="10" x="1832.1504" y="637.5684"/><rect fill="#FFFFFF" height="28" style="stroke:#181818;stroke-width:1.0;" width="10" x="1837.1504" y="676.8594"/><line style="stroke:#000000;stroke-width:1.0;stroke-dasharray:2.0,2.0;" x1="0" x2="2157.689" y1="94.6211" y2="94.6211"/><rect fill="#EEEEEE" height="3" style="stroke:#EEEEEE;stroke-width:1.0;" width="2157.689" x="0" y="117.2666"/><line style="stroke:#000000;stroke-width:1.0;" x1="0" x2="2157.689" y1="117.2666" y2="117.2666"/><line style="stroke:#000000;stroke-width:1.0;" x1="0" x2="2157.689" y1="120.2666" y2="120.2666"/><rect fill="#EEEEEE" height="25.291" style="stroke:#000000;stroke-width:2.0;" width="130.3018" x="1013.6936" y="105.6211"/><text fill="#000000" font-family="sans-serif" font-size="13" font-weight="bold" lengthAdjust="spacing" textLength="112.6899" x="1019.6936" y="123.6494">E-Mail Verification</text><polygon fill="#181818" points="378.5972,160.2031,388.5972,164.2031,378.5972,168.2031,382.5972,164.2031" style="stroke:#181818;stroke-width:1.0;"/><line style="stroke:#181818;stroke-width:1.0;" x1="53.7275" x2="384.5972" y1="164.2031" y2="164.2031"/><text fill="#000000" font-family="sans-serif" font-size="13" lengthAdjust="spacing" textLength="190.7471" x="60.7275" y="158.9404">clicks link (send email and token)</text><polygon fill="#181818" points="878.4443,191.4941,888.4443,195.4941,878.4443,199.4941,882.4443,195.4941" style="stroke:#181818;stroke-width:1.0;"/><line style="stroke:#181818;stroke-width:1.0;" x1="395.5972" x2="884.4443" y1="195.4941" y2="195.4941"/><text fill="#000000" font-family="sans-serif" font-size="13" lengthAdjust="spacing" textLength="306.3696" x="402.5972" y="190.2314">HTTP Request: GET {email, plain_verification_token}</text><polygon fill="#181818" points="1393.0464,222.7852,1403.0464,226.7852,1393.0464,230.7852,1397.0464,226.7852" style="stroke:#181818;stroke-width:1.0;"/><line style="stroke:#181818;stroke-width:1.0;" x1="900.4443" x2="1399.0464" y1="226.7852" y2="226.7852"/><text fill="#000000" font-family="sans-serif" font-size="13" lengthAdjust="spacing" textLength="165.4453" x="907.4443" y="221.5225">is_email_format_valid(email)</text><path d="M10,241.7852 L70.1709,241.7852 L70.1709,251.0762 L60.1709,261.0762 L10,261.0762 L10,241.7852 " fill="#EEEEEE" style="stroke:#000000;stroke-width:1.5;"/><rect fill="none" height="113.1641" style="stroke:#000000;stroke-width:1.5;" width="1455.167" x="10" y="241.7852"/><text fill="#000000" font-family="sans-serif" font-size="13" font-weight="bold" lengthAdjust="spacing" textLength="15.1709" x="25" y="256.8135">alt</text><text fill="#000000" font-family="sans-serif" font-size="11" font-weight="bold" lengthAdjust="spacing" textLength="122.2354" x="85.1709" y="255.6553">[Email format not valid]</text><polygon fill="#181818" points="911.4443,280.3672,901.4443,284.3672,911.4443,288.3672,907.4443,284.3672" style="stroke:#181818;stroke-width:1.0;"/><line style="stroke:#181818;stroke-width:1.0;stroke-dasharray:2.0,2.0;" x1="905.4443" x2="1404.0464" y1="284.3672" y2="284.3672"/><text fill="#000000" font-family="sans-serif" font-size="13" lengthAdjust="spacing" textLength="31.7891" x="917.4443" y="279.1045">False</text><polygon fill="#181818" points="411.5972,311.6582,401.5972,315.6582,411.5972,319.6582,407.5972,315.6582" style="stroke:#181818;stroke-width:1.0;"/><line style="stroke:#181818;stroke-width:1.0;stroke-dasharray:2.0,2.0;" x1="405.5972" x2="889.4443" y1="315.6582" y2="315.6582"/><text fill="#000000" font-family="sans-serif" font-size="13" lengthAdjust="spacing" textLength="189.3188" x="417.5972" y="310.3955">HTTP Response: 404 Not Found</text><polygon fill="#181818" points="64.7275,342.9492,54.7275,346.9492,64.7275,350.9492,60.7275,346.9492" style="stroke:#181818;stroke-width:1.0;"/><line style="stroke:#181818;stroke-width:1.0;stroke-dasharray:2.0,2.0;" x1="58.7275" x2="394.5972" y1="346.9492" y2="346.9492"/><text fill="#000000" font-family="sans-serif" font-size="13" lengthAdjust="spacing" textLength="107.6499" x="70.7275" y="341.6865">Error: link not valid</text><polygon fill="#181818" points="911.4443,381.2402,901.4443,385.2402,911.4443,389.2402,907.4443,385.2402" style="stroke:#181818;stroke-width:1.0;"/><line style="stroke:#181818;stroke-width:1.0;stroke-dasharray:2.0,2.0;" x1="905.4443" x2="1409.0464" y1="385.2402" y2="385.2402"/><text fill="#000000" font-family="sans-serif" font-size="13" lengthAdjust="spacing" textLength="26.73" x="917.4443" y="379.9775">True</text><polygon fill="#181818" points="1393.0464,412.5313,1403.0464,416.5313,1393.0464,420.5313,1397.0464,416.5313" style="stroke:#181818;stroke-width:1.0;"/><line style="stroke:#181818;stroke-width:1.0;" x1="900.4443" x2="1399.0464" y1="416.5313" y2="416.5313"/><text fill="#000000" font-family="sans-serif" font-size="13" lengthAdjust="spacing" textLength="485.6021" x="907.4443" y="411.2686">query_users_by_unverified_mail_and_not_expired_verification(unverified_email: str)</text><path d="M10,431.5313 L70.1709,431.5313 L70.1709,440.8223 L60.1709,450.8223 L10,450.8223 L10,431.5313 " fill="#EEEEEE" style="stroke:#000000;stroke-width:1.5;"/><rect fill="none" height="113.1641" style="stroke:#000000;stroke-width:1.5;" width="1455.167" x="10" y="431.5313"/><text fill="#000000" font-family="sans-serif" font-size="13" font-weight="bold" lengthAdjust="spacing" textLength="15.1709" x="25" y="446.5596">alt</text><text fill="#000000" font-family="sans-serif" font-size="11" font-weight="bold" lengthAdjust="spacing" textLength="218.8237" x="85.1709" y="445.4014">[Unverified Mail does not exist or expired]</text><polygon fill="#181818" points="911.4443,470.1133,901.4443,474.1133,911.4443,478.1133,907.4443,474.1133" style="stroke:#181818;stroke-width:1.0;"/><line style="stroke:#181818;stroke-width:1.0;stroke-dasharray:2.0,2.0;" x1="905.4443" x2="1404.0464" y1="474.1133" y2="474.1133"/><text fill="#000000" font-family="sans-serif" font-size="13" lengthAdjust="spacing" textLength="31.0781" x="917.4443" y="468.8506">None</text><polygon fill="#181818" points="411.5972,501.4043,401.5972,505.4043,411.5972,509.4043,407.5972,505.4043" style="stroke:#181818;stroke-width:1.0;"/><line style="stroke:#181818;stroke-width:1.0;stroke-dasharray:2.0,2.0;" x1="405.5972" x2="889.4443" y1="505.4043" y2="505.4043"/><text fill="#000000" font-family="sans-serif" font-size="13" lengthAdjust="spacing" textLength="189.3188" x="417.5972" y="500.1416">HTTP Response: 404 Not Found</text><polygon fill="#181818" points="64.7275,532.6953,54.7275,536.6953,64.7275,540.6953,60.7275,536.6953" style="stroke:#181818;stroke-width:1.0;"/><line style="stroke:#181818;stroke-width:1.0;stroke-dasharray:2.0,2.0;" x1="58.7275" x2="394.5972" y1="536.6953" y2="536.6953"/><text fill="#000000" font-family="sans-serif" font-size="13" lengthAdjust="spacing" textLength="107.6499" x="70.7275" y="531.4326">Error: link not valid</text><polygon fill="#181818" points="911.4443,570.9863,901.4443,574.9863,911.4443,578.9863,907.4443,574.9863" style="stroke:#181818;stroke-width:1.0;"/><line style="stroke:#181818;stroke-width:1.0;stroke-dasharray:2.0,2.0;" x1="905.4443" x2="1409.0464" y1="574.9863" y2="574.9863"/><text fill="#000000" font-family="sans-serif" font-size="13" lengthAdjust="spacing" textLength="65.749" x="917.4443" y="569.7236">User object</text><polygon fill="#181818" points="1393.0464,602.2773,1403.0464,606.2773,1393.0464,610.2773,1397.0464,606.2773" style="stroke:#181818;stroke-width:1.0;"/><line style="stroke:#181818;stroke-width:1.0;" x1="900.4443" x2="1399.0464" y1="606.2773" y2="606.2773"/><text fill="#000000" font-family="sans-serif" font-size="13" lengthAdjust="spacing" textLength="248.5488" x="907.4443" y="601.0146">verify_email(User, plain_verification_token)</text><polygon fill="#181818" points="1820.1504,633.5684,1830.1504,637.5684,1820.1504,641.5684,1824.1504,637.5684" style="stroke:#181818;stroke-width:1.0;"/><line style="stroke:#181818;stroke-width:1.0;" x1="1415.0464" x2="1826.1504" y1="637.5684" y2="637.5684"/><text fill="#000000" font-family="sans-serif" font-size="13" lengthAdjust="spacing" textLength="283.9814" x="1422.0464" y="632.3057">verify_verification_token(plain_verification_token)</text><line style="stroke:#181818;stroke-width:1.0;" x1="1847.1504" x2="1889.1504" y1="668.8594" y2="668.8594"/><line style="stroke:#181818;stroke-width:1.0;" x1="1889.1504" x2="1889.1504" y1="668.8594" y2="681.8594"/><line style="stroke:#181818;stroke-width:1.0;" x1="1848.1504" x2="1889.1504" y1="681.8594" y2="681.8594"/><polygon fill="#181818" points="1858.1504,677.8594,1848.1504,681.8594,1858.1504,685.8594,1854.1504,681.8594" style="stroke:#181818;stroke-width:1.0;"/><text fill="#000000" font-family="sans-serif" font-size="13" lengthAdjust="spacing" textLength="229.8042" x="1854.1504" y="663.5967">__hash_secret(plain_verification_token)</text><path d="M10,726.8594 L70.1709,726.8594 L70.1709,736.1504 L60.1709,746.1504 L10,746.1504 L10,726.8594 " fill="#EEEEEE" style="stroke:#000000;stroke-width:1.5;"/><rect fill="none" height="144.4551" style="stroke:#000000;stroke-width:1.5;" width="1904.0605" x="10" y="726.8594"/><text fill="#000000" font-family="sans-serif" font-size="13" font-weight="bold" lengthAdjust="spacing" textLength="15.1709" x="25" y="741.8877">alt</text><text fill="#000000" font-family="sans-serif" font-size="11" font-weight="bold" lengthAdjust="spacing" textLength="182.7461" x="85.1709" y="740.7295">[verification token does not match]</text><polygon fill="#181818" points="1426.0464,765.4414,1416.0464,769.4414,1426.0464,773.4414,1422.0464,769.4414" style="stroke:#181818;stroke-width:1.0;"/><line style="stroke:#181818;stroke-width:1.0;stroke-dasharray:2.0,2.0;" x1="1420.0464" x2="1831.1504" y1="769.4414" y2="769.4414"/><text fill="#000000" font-family="sans-serif" font-size="13" lengthAdjust="spacing" textLength="31.7891" x="1432.0464" y="764.1787">False</text><polygon fill="#181818" points="911.4443,796.7324,901.4443,800.7324,911.4443,804.7324,907.4443,800.7324" style="stroke:#181818;stroke-width:1.0;"/><line style="stroke:#181818;stroke-width:1.0;stroke-dasharray:2.0,2.0;" x1="905.4443" x2="1404.0464" y1="800.7324" y2="800.7324"/><text fill="#000000" font-family="sans-serif" font-size="13" lengthAdjust="spacing" textLength="31.7891" x="917.4443" y="795.4697">False</text><polygon fill="#181818" points="411.5972,828.0234,401.5972,832.0234,411.5972,836.0234,407.5972,832.0234" style="stroke:#181818;stroke-width:1.0;"/><line style="stroke:#181818;stroke-width:1.0;stroke-dasharray:2.0,2.0;" x1="405.5972" x2="889.4443" y1="832.0234" y2="832.0234"/><text fill="#000000" font-family="sans-serif" font-size="13" lengthAdjust="spacing" textLength="189.3188" x="417.5972" y="826.7607">HTTP Response: 404 Not Found</text><polygon fill="#181818" points="64.7275,859.3145,54.7275,863.3145,64.7275,867.3145,60.7275,863.3145" style="stroke:#181818;stroke-width:1.0;"/><line style="stroke:#181818;stroke-width:1.0;stroke-dasharray:2.0,2.0;" x1="58.7275" x2="394.5972" y1="863.3145" y2="863.3145"/><text fill="#000000" font-family="sans-serif" font-size="13" lengthAdjust="spacing" textLength="107.6499" x="70.7275" y="858.0518">Error: link not valid</text><polygon fill="#181818" points="1426.0464,897.6055,1416.0464,901.6055,1426.0464,905.6055,1422.0464,901.6055" style="stroke:#181818;stroke-width:1.0;"/><line style="stroke:#181818;stroke-width:1.0;stroke-dasharray:2.0,2.0;" x1="1420.0464" x2="1831.1504" y1="901.6055" y2="901.6055"/><text fill="#000000" font-family="sans-serif" font-size="13" lengthAdjust="spacing" textLength="26.73" x="1432.0464" y="896.3428">True</text><polygon fill="#181818" points="1820.1504,928.8965,1830.1504,932.8965,1820.1504,936.8965,1824.1504,932.8965" style="stroke:#181818;stroke-width:1.0;"/><line style="stroke:#181818;stroke-width:1.0;" x1="1415.0464" x2="1826.1504" y1="932.8965" y2="932.8965"/><text fill="#000000" font-family="sans-serif" font-size="13" lengthAdjust="spacing" textLength="132.5898" x="1422.0464" y="927.6338">is_user_verified = True</text><polygon fill="#181818" points="1820.1504,960.1875,1830.1504,964.1875,1820.1504,968.1875,1824.1504,964.1875" style="stroke:#181818;stroke-width:1.0;"/><line style="stroke:#181818;stroke-width:1.0;" x1="1415.0464" x2="1826.1504" y1="964.1875" y2="964.1875"/><text fill="#000000" font-family="sans-serif" font-size="13" lengthAdjust="spacing" textLength="140.5435" x="1422.0464" y="958.9248">email = unverified_email</text><polygon fill="#181818" points="1825.1504,991.4785,1835.1504,995.4785,1825.1504,999.4785,1829.1504,995.4785" style="stroke:#181818;stroke-width:1.0;"/><line style="stroke:#181818;stroke-width:1.0;" x1="1415.0464" x2="1831.1504" y1="995.4785" y2="995.4785"/><text fill="#000000" font-family="sans-serif" font-size="13" lengthAdjust="spacing" textLength="118.7075" x="1422.0464" y="990.2158">unverified_email = ""</text><polygon fill="#181818" points="911.4443,1022.7695,901.4443,1026.7695,911.4443,1030.7695,907.4443,1026.7695" style="stroke:#181818;stroke-width:1.0;"/><line style="stroke:#181818;stroke-width:1.0;stroke-dasharray:2.0,2.0;" x1="905.4443" x2="1409.0464" y1="1026.7695" y2="1026.7695"/><text fill="#000000" font-family="sans-serif" font-size="13" lengthAdjust="spacing" textLength="26.73" x="917.4443" y="1021.5068">True</text><polygon fill="#181818" points="411.5972,1054.0605,401.5972,1058.0605,411.5972,1062.0605,407.5972,1058.0605" style="stroke:#181818;stroke-width:1.0;"/><line style="stroke:#181818;stroke-width:1.0;stroke-dasharray:2.0,2.0;" x1="405.5972" x2="894.4443" y1="1058.0605" y2="1058.0605"/><text fill="#000000" font-family="sans-serif" font-size="13" lengthAdjust="spacing" textLength="237.6943" x="417.5972" y="1052.7979">HTTP Response: 200 OK (Email verified)</text><polygon fill="#181818" points="64.7275,1085.3516,54.7275,1089.3516,64.7275,1093.3516,60.7275,1089.3516" style="stroke:#181818;stroke-width:1.0;"/><line style="stroke:#181818;stroke-width:1.0;stroke-dasharray:2.0,2.0;" x1="58.7275" x2="394.5972" y1="1089.3516" y2="1089.3516"/><text fill="#000000" font-family="sans-serif" font-size="13" lengthAdjust="spacing" textLength="262.3169" x="70.7275" y="1084.0889">Success Message and redirects to login page</text><!--SRC=[pLPDRnit4BtlhnZej4Pbr0byQ8sgW9D8BT3AThtMdWeGz2ujCLgJMv8hMGZotpFaIXQvNtRI7EA3BEtEl1c- -NYacP4AHbTi2mlDr0YeXikojD-ZaYh3CrvIOM0qKr8O9dA8RndDp8cpd4r3evyrNugg12Khm_uL4CyAgjVmhgXOgRZOUoMt3QyDK_nXzu9Nsl2oAIPCRNZ6tFj5qduFSvcp0gxlFxBCW8LE_ldxiiXMx767luo43zJGUwfP7MCn3p6cJuOfGGlhEdsal00_uXmVHD5a0WcU6l3ODqfcJ6kOJA8zXt3wEv845t15Dtn93TCsgDxRFqZr626PV8DlB9a7hzzEJsktnBTiOivuKUW033unc-KOoe9oGKggzLQg_3DGB9okxX-vqH7w8a9oYmX_tjtTm2txhsBQNC3DTNBNXn3bp4_q-JlM4f4GRv4W7jV4kHER33LaGmkUn-xHoT47AqKBioUqjWGX3JZh2F0F8Iq53dD62ytSKqpSFlKprwKKcbt0-TaPlAFvuImGTuEVE1p_8FPtY_MfKb9Tz2Gu1gDsG9T8Z_CEYS49YVpixrJ5VExmx1vVcApQaGg3QtA_8pPU7rkNMIOhx4bQA4Rp7R0dhh6OJRRSGMBf6lxaPTP-XVTIF1GSfoDshZNir_54ErCRWs8vLvY7w_b2Bhc0aYxPArYxacA0jGp36EPeYpkxDMGFVGwUXEnztSRX6JLS2cBaceauT0g3xo7c227ODgv4xSzoqXd_yBiTnGyoZn3m04l8YkeLqGmJD77NGUP1JaFEhuhT2nOuigUIOFDF81Po2p_1-I-hGPYahk6yrOajk-6I55oiUmyoXcO1Nb6xEfR6JWiHtSorOdTra5tt268Xm4M5Jos_SVtcyz7TYKIhbNlcDRGRcDotPs_WlUCjtmzkpM8UOE1o7bQNAdDwDSSF74od4YCKnsmDErafi4SPDJR_4UH0YFktvMO5bW7Vl1P8d1WtzYYKqrDdd7gqTObbXWjfhHqSn1xVDhzcAsDAjQ2bRK7xOzhKitOpzIeRtZVIxwziwP2ofPqx-XpNeO4PhjZygzQoeo-CtjwwwR1MfRrQvOsWumLhGp2OtHYuzCCXQorCd2AZshmjditgfiebtfVi2PoYWBJovD1RL3h1-76OT2ZrKFSJMjzwQqBS3BzEDW8rscDqoDd_LQ1l415RGj-ZdjLZ5N4QifLZpzU9unJyQBFXP-bcmoCUzu4T1VBSi9EMIRsp9YsnycsQxz1yD6hG-iA83l3p5c_5rtyTBiE7I854fDyW4Nttke31Bm00]--></g></svg>