<svg xmlns="http://www.w3.org/2000/svg" xmlns:xlink="http://www.w3.org/1999/xlink" contentStyleType="text/css" height="1432px" preserveAspectRatio="none" style="width:1755px;height:1432px;background:#FFFFFF;" version="1.1" viewBox="0 0 1755 1432" width="1755px" zoomAndPan="magnify"><defs/><g><rect fill="#FFFFFF" height="93.873" style="stroke:#181818;stroke-width:1.0;" width="10" x="390.5972" y="162.2031"/><rect fill="#FFFFFF" height="31.291" style="stroke:#181818;stroke-width:1.0;" width="10" x="390.5972" y="376.2402"/><rect fill="#FFFFFF" height="31.291" style="stroke:#181818;stroke-width:1.0;" width="10" x="390.5972" y="565.9863"/><rect fill="#FFFFFF" height="31.291" style="stroke:#181818;stroke-width:1.0;" width="10" x="390.5972" y="1269.0605"/><rect fill="#FFFFFF" height="1012.9844" style="stroke:#181818;stroke-width:1.0;" width="10" x="760.6377" y="256.0762"/><rect fill="#FFFFFF" height="158.4551" style="stroke:#181818;stroke-width:1.0;" width="10" x="995.5684" y="287.3672"/><rect fill="#FFFFFF" height="158.4551" style="stroke:#181818;stroke-width:1.0;" width="10" x="995.5684" y="477.1133"/><rect fill="#FFFFFF" height="570.9102" style="stroke:#181818;stroke-width:1.0;" width="10" x="995.5684" y="666.8594"/><rect fill="#FFFFFF" height="28" style="stroke:#181818;stroke-width:1.0;" width="10" x="1000.5684" y="706.1504"/><rect fill="#FFFFFF" height="28" style="stroke:#181818;stroke-width:1.0;" width="10" x="1000.5684" y="1065.8965"/><rect fill="#FFFFFF" height="66.291" style="stroke:#181818;stroke-width:1.0;" width="10" x="1000.5684" y="1140.1875"/><rect fill="#FFFFFF" height="254.1641" style="stroke:#181818;stroke-width:1.0;" width="10" x="1422.6724" y="772.4414"/><rect fill="#FFFFFF" height="28" style="stroke:#181818;stroke-width:1.0;" width="10" x="1427.6724" y="811.7324"/><rect fill="#FFFFFF" height="28" style="stroke:#181818;stroke-width:1.0;" width="10" x="1427.6724" y="886.0234"/><rect fill="#FFFFFF" height="28" style="stroke:#181818;stroke-width:1.0;" width="10" x="1427.6724" y="960.3145"/><rect fill="#FFFFFF" height="155.1641" style="stroke:#181818;stroke-width:1.0;" width="10" x="1686.4766" y="1176.4785"/><rect fill="none" height="113.1641" style="stroke:#000000;stroke-width:1.5;" width="1045.689" x="10" y="302.3672"/><rect fill="none" height="113.1641" style="stroke:#000000;stroke-width:1.5;" width="1045.689" x="10" y="492.1133"/><line style="stroke:#181818;stroke-width:0.5;stroke-dasharray:5.0,5.0;" x1="53" x2="53" y1="83.6211" y2="1349.6426"/><line style="stroke:#181818;stroke-width:0.5;stroke-dasharray:5.0,5.0;" x1="394.687" x2="394.687" y1="83.6211" y2="1349.6426"/><line style="stroke:#181818;stroke-width:0.5;stroke-dasharray:5.0,5.0;" x1="764.7344" x2="764.7344" y1="83.6211" y2="1349.6426"/><line style="stroke:#181818;stroke-width:0.5;stroke-dasharray:5.0,5.0;" x1="1000.4478" x2="1000.4478" y1="83.6211" y2="1349.6426"/><line style="stroke:#181818;stroke-width:0.5;stroke-dasharray:5.0,5.0;" x1="1426.7622" x2="1426.7622" y1="83.6211" y2="1349.6426"/><line style="stroke:#181818;stroke-width:0.5;stroke-dasharray:5.0,5.0;" x1="1690.7422" x2="1690.7422" y1="83.6211" y2="1349.6426"/><text fill="#000000" font-family="sans-serif" font-size="14" lengthAdjust="spacing" textLength="61.4551" x="20" y="80.1074">New User</text><ellipse cx="53.7275" cy="13.5" fill="#E2E2F0" rx="8" ry="8" style="stroke:#181818;stroke-width:0.5;"/><path d="M53.7275,21.5 L53.7275,48.5 M40.7275,29.5 L66.7275,29.5 M53.7275,48.5 L40.7275,63.5 M53.7275,48.5 L66.7275,63.5 " fill="none" style="stroke:#181818;stroke-width:0.5;"/><text fill="#000000" font-family="sans-serif" font-size="14" lengthAdjust="spacing" textLength="61.4551" x="20" y="1363.75">New User</text><ellipse cx="53.7275" cy="1375.7637" fill="#E2E2F0" rx="8" ry="8" style="stroke:#181818;stroke-width:0.5;"/><path d="M53.7275,1383.7637 L53.7275,1410.7637 M40.7275,1391.7637 L66.7275,1391.7637 M53.7275,1410.7637 L40.7275,1425.7637 M53.7275,1410.7637 L66.7275,1425.7637 " fill="none" style="stroke:#181818;stroke-width:0.5;"/><rect fill="#E2E2F0" height="32.6211" rx="2.5" ry="2.5" style="stroke:#181818;stroke-width:0.5;" width="119.8203" x="335.687" y="50"/><text fill="#000000" font-family="sans-serif" font-size="14" lengthAdjust="spacing" textLength="105.8203" x="342.687" y="72.1074">Frontend (React)</text><rect fill="#E2E2F0" height="32.6211" rx="2.5" ry="2.5" style="stroke:#181818;stroke-width:0.5;" width="119.8203" x="335.687" y="1348.6426"/><text fill="#000000" font-family="sans-serif" font-size="14" lengthAdjust="spacing" textLength="105.8203" x="342.687" y="1370.75">Frontend (React)</text><rect fill="#E2E2F0" height="51.2422" rx="2.5" ry="2.5" style="stroke:#181818;stroke-width:0.5;" width="119.8066" x="705.7344" y="31.3789"/><text fill="#000000" font-family="sans-serif" font-size="14" lengthAdjust="spacing" textLength="80.9443" x="725.1655" y="53.4863">/signup route</text><text fill="#000000" font-family="sans-serif" font-size="14" lengthAdjust="spacing" textLength="101.917" x="716.624" y="72.1074">(Flask Blueprint)</text><rect fill="#E2E2F0" height="51.2422" rx="2.5" ry="2.5" style="stroke:#181818;stroke-width:0.5;" width="119.8066" x="705.7344" y="1348.6426"/><text fill="#000000" font-family="sans-serif" font-size="14" lengthAdjust="spacing" textLength="80.9443" x="725.1655" y="1370.75">/signup route</text><text fill="#000000" font-family="sans-serif" font-size="14" lengthAdjust="spacing" textLength="101.917" x="716.624" y="1389.3711">(Flask Blueprint)</text><rect fill="#E2E2F0" height="32.6211" rx="2.5" ry="2.5" style="stroke:#181818;stroke-width:0.5;" width="90.2412" x="955.4478" y="50"/><text fill="#000000" font-family="sans-serif" font-size="14" lengthAdjust="spacing" textLength="76.2412" x="962.4478" y="72.1074">UserService</text><rect fill="#E2E2F0" height="32.6211" rx="2.5" ry="2.5" style="stroke:#181818;stroke-width:0.5;" width="90.2412" x="955.4478" y="1348.6426"/><text fill="#000000" font-family="sans-serif" font-size="14" lengthAdjust="spacing" textLength="76.2412" x="962.4478" y="1370.75">UserService</text><rect fill="#E2E2F0" height="69.8633" rx="2.5" ry="2.5" style="stroke:#181818;stroke-width:0.5;" width="133.8203" x="1360.7622" y="12.7578"/><text fill="#000000" font-family="sans-serif" font-size="14" lengthAdjust="spacing" textLength="115.9307" x="1367.7622" y="34.8652">User Model Object</text><text fill="#000000" font-family="sans-serif" font-size="14" lengthAdjust="spacing" textLength="86.3584" x="1386.438" y="53.4863">(SQLAlchemy</text><text fill="#000000" font-family="sans-serif" font-size="14" lengthAdjust="spacing" textLength="80.1582" x="1389.5381" y="72.1074">to Database)</text><rect fill="#E2E2F0" height="69.8633" rx="2.5" ry="2.5" style="stroke:#181818;stroke-width:0.5;" width="133.8203" x="1360.7622" y="1348.6426"/><text fill="#000000" font-family="sans-serif" font-size="14" lengthAdjust="spacing" textLength="115.9307" x="1367.7622" y="1370.75">User Model Object</text><text fill="#000000" font-family="sans-serif" font-size="14" lengthAdjust="spacing" textLength="86.3584" x="1386.438" y="1389.3711">(SQLAlchemy</text><text fill="#000000" font-family="sans-serif" font-size="14" lengthAdjust="spacing" textLength="80.1582" x="1389.5381" y="1407.9922">to Database)</text><rect fill="#E2E2F0" height="51.2422" rx="2.5" ry="2.5" style="stroke:#181818;stroke-width:0.5;" width="103.4688" x="1639.7422" y="31.3789"/><text fill="#000000" font-family="sans-serif" font-size="14" lengthAdjust="spacing" textLength="51.3584" x="1663.8525" y="53.4863">External</text><text fill="#000000" font-family="sans-serif" font-size="14" lengthAdjust="spacing" textLength="85.5791" x="1650.6318" y="72.1074">Email Service</text><rect fill="#E2E2F0" height="51.2422" rx="2.5" ry="2.5" style="stroke:#181818;stroke-width:0.5;" width="103.4688" x="1639.7422" y="1348.6426"/><text fill="#000000" font-family="sans-serif" font-size="14" lengthAdjust="spacing" textLength="51.3584" x="1663.8525" y="1370.75">External</text><text fill="#000000" font-family="sans-serif" font-size="14" lengthAdjust="spacing" textLength="85.5791" x="1650.6318" y="1389.3711">Email Service</text><rect fill="#FFFFFF" height="93.873" style="stroke:#181818;stroke-width:1.0;" width="10" x="390.5972" y="162.2031"/><rect fill="#FFFFFF" height="31.291" style="stroke:#181818;stroke-width:1.0;" width="10" x="390.5972" y="376.2402"/><rect fill="#FFFFFF" height="31.291" style="stroke:#181818;stroke-width:1.0;" width="10" x="390.5972" y="565.9863"/><rect fill="#FFFFFF" height="31.291" style="stroke:#181818;stroke-width:1.0;" width="10" x="390.5972" y="1269.0605"/><rect fill="#FFFFFF" height="1012.9844" style="stroke:#181818;stroke-width:1.0;" width="10" x="760.6377" y="256.0762"/><rect fill="#FFFFFF" height="158.4551" style="stroke:#181818;stroke-width:1.0;" width="10" x="995.5684" y="287.3672"/><rect fill="#FFFFFF" height="158.4551" style="stroke:#181818;stroke-width:1.0;" width="10" x="995.5684" y="477.1133"/><rect fill="#FFFFFF" height="570.9102" style="stroke:#181818;stroke-width:1.0;" width="10" x="995.5684" y="666.8594"/><rect fill="#FFFFFF" height="28" style="stroke:#181818;stroke-width:1.0;" width="10" x="1000.5684" y="706.1504"/><rect fill="#FFFFFF" height="28" style="stroke:#181818;stroke-width:1.0;" width="10" x="1000.5684" y="1065.8965"/><rect fill="#FFFFFF" height="66.291" style="stroke:#181818;stroke-width:1.0;" width="10" x="1000.5684" y="1140.1875"/><rect fill="#FFFFFF" height="254.1641" style="stroke:#181818;stroke-width:1.0;" width="10" x="1422.6724" y="772.4414"/><rect fill="#FFFFFF" height="28" style="stroke:#181818;stroke-width:1.0;" width="10" x="1427.6724" y="811.7324"/><rect fill="#FFFFFF" height="28" style="stroke:#181818;stroke-width:1.0;" width="10" x="1427.6724" y="886.0234"/><rect fill="#FFFFFF" height="28" style="stroke:#181818;stroke-width:1.0;" width="10" x="1427.6724" y="960.3145"/><rect fill="#FFFFFF" height="155.1641" style="stroke:#181818;stroke-width:1.0;" width="10" x="1686.4766" y="1176.4785"/><rect fill="#EEEEEE" height="3" style="stroke:#EEEEEE;stroke-width:1.0;" width="1748.2109" x="0" y="115.2666"/><line style="stroke:#000000;stroke-width:1.0;" x1="0" x2="1748.2109" y1="115.2666" y2="115.2666"/><line style="stroke:#000000;stroke-width:1.0;" x1="0" x2="1748.2109" y1="118.2666" y2="118.2666"/><rect fill="#EEEEEE" height="25.291" style="stroke:#000000;stroke-width:2.0;" width="119.4727" x="814.3691" y="103.6211"/><text fill="#000000" font-family="sans-serif" font-size="13" font-weight="bold" lengthAdjust="spacing" textLength="101.8608" x="820.3691" y="121.6494">Sign up Process</text><polygon fill="#181818" points="378.5972,158.2031,388.5972,162.2031,378.5972,166.2031,382.5972,162.2031" style="stroke:#181818;stroke-width:1.0;"/><line style="stroke:#181818;stroke-width:1.0;" x1="53.7275" x2="384.5972" y1="162.2031" y2="162.2031"/><text fill="#000000" font-family="sans-serif" font-size="13" lengthAdjust="spacing" textLength="147.4053" x="60.7275" y="156.9404">Navigates to sign up form</text><polygon fill="#181818" points="64.7275,189.4941,54.7275,193.4941,64.7275,197.4941,60.7275,193.4941" style="stroke:#181818;stroke-width:1.0;"/><line style="stroke:#181818;stroke-width:1.0;stroke-dasharray:2.0,2.0;" x1="58.7275" x2="389.5972" y1="193.4941" y2="193.4941"/><text fill="#000000" font-family="sans-serif" font-size="13" lengthAdjust="spacing" textLength="73.7026" x="70.7275" y="188.2314">Sign up form</text><polygon fill="#181818" points="378.5972,220.7852,388.5972,224.7852,378.5972,228.7852,382.5972,224.7852" style="stroke:#181818;stroke-width:1.0;"/><line style="stroke:#181818;stroke-width:1.0;" x1="53.7275" x2="384.5972" y1="224.7852" y2="224.7852"/><text fill="#000000" font-family="sans-serif" font-size="13" lengthAdjust="spacing" textLength="312.8696" x="60.7275" y="219.5225">Fills sign up form {email, plain_password} and submits</text><polygon fill="#181818" points="748.6377,252.0762,758.6377,256.0762,748.6377,260.0762,752.6377,256.0762" style="stroke:#181818;stroke-width:1.0;"/><line style="stroke:#181818;stroke-width:1.0;" x1="395.5972" x2="754.6377" y1="256.0762" y2="256.0762"/><text fill="#000000" font-family="sans-serif" font-size="13" lengthAdjust="spacing" textLength="269.5088" x="402.5972" y="250.8135">HTTP Request: POST {email, plain_password}</text><polygon fill="#181818" points="983.5684,283.3672,993.5684,287.3672,983.5684,291.3672,987.5684,287.3672" style="stroke:#181818;stroke-width:1.0;"/><line style="stroke:#181818;stroke-width:1.0;" x1="770.6377" x2="989.5684" y1="287.3672" y2="287.3672"/><text fill="#000000" font-family="sans-serif" font-size="13" lengthAdjust="spacing" textLength="165.4453" x="777.6377" y="282.1045">is_email_format_valid(email)</text><path d="M10,302.3672 L70.1709,302.3672 L70.1709,311.6582 L60.1709,321.6582 L10,321.6582 L10,302.3672 " fill="#EEEEEE" style="stroke:#000000;stroke-width:1.5;"/><rect fill="none" height="113.1641" style="stroke:#000000;stroke-width:1.5;" width="1045.689" x="10" y="302.3672"/><text fill="#000000" font-family="sans-serif" font-size="13" font-weight="bold" lengthAdjust="spacing" textLength="15.1709" x="25" y="317.3955">alt</text><text fill="#000000" font-family="sans-serif" font-size="11" font-weight="bold" lengthAdjust="spacing" textLength="122.2354" x="85.1709" y="316.2373">[Email format not valid]</text><polygon fill="#181818" points="781.6377,340.9492,771.6377,344.9492,781.6377,348.9492,777.6377,344.9492" style="stroke:#181818;stroke-width:1.0;"/><line style="stroke:#181818;stroke-width:1.0;stroke-dasharray:2.0,2.0;" x1="775.6377" x2="994.5684" y1="344.9492" y2="344.9492"/><text fill="#000000" font-family="sans-serif" font-size="13" lengthAdjust="spacing" textLength="31.7891" x="787.6377" y="339.6865">False</text><polygon fill="#181818" points="411.5972,372.2402,401.5972,376.2402,411.5972,380.2402,407.5972,376.2402" style="stroke:#181818;stroke-width:1.0;"/><line style="stroke:#181818;stroke-width:1.0;stroke-dasharray:2.0,2.0;" x1="405.5972" x2="759.6377" y1="376.2402" y2="376.2402"/><text fill="#000000" font-family="sans-serif" font-size="13" lengthAdjust="spacing" textLength="341.0405" x="417.5972" y="370.9775">HTTP Response: 400 Bad Request (Email format not valid)</text><polygon fill="#181818" points="64.7275,403.5313,54.7275,407.5313,64.7275,411.5313,60.7275,407.5313" style="stroke:#181818;stroke-width:1.0;"/><line style="stroke:#181818;stroke-width:1.0;stroke-dasharray:2.0,2.0;" x1="58.7275" x2="394.5972" y1="407.5313" y2="407.5313"/><text fill="#000000" font-family="sans-serif" font-size="13" lengthAdjust="spacing" textLength="218.188" x="70.7275" y="402.2686">Error: Email format not valid, try again</text><polygon fill="#181818" points="781.6377,441.8223,771.6377,445.8223,781.6377,449.8223,777.6377,445.8223" style="stroke:#181818;stroke-width:1.0;"/><line style="stroke:#181818;stroke-width:1.0;stroke-dasharray:2.0,2.0;" x1="775.6377" x2="999.5684" y1="445.8223" y2="445.8223"/><text fill="#000000" font-family="sans-serif" font-size="13" lengthAdjust="spacing" textLength="26.73" x="787.6377" y="440.5596">True</text><polygon fill="#181818" points="983.5684,473.1133,993.5684,477.1133,983.5684,481.1133,987.5684,477.1133" style="stroke:#181818;stroke-width:1.0;"/><line style="stroke:#181818;stroke-width:1.0;" x1="770.6377" x2="989.5684" y1="477.1133" y2="477.1133"/><text fill="#000000" font-family="sans-serif" font-size="13" lengthAdjust="spacing" textLength="163.2871" x="777.6377" y="471.8506">query_users_by_mail(email)</text><path d="M10,492.1133 L70.1709,492.1133 L70.1709,501.4043 L60.1709,511.4043 L10,511.4043 L10,492.1133 " fill="#EEEEEE" style="stroke:#000000;stroke-width:1.5;"/><rect fill="none" height="113.1641" style="stroke:#000000;stroke-width:1.5;" width="1045.689" x="10" y="492.1133"/><text fill="#000000" font-family="sans-serif" font-size="13" font-weight="bold" lengthAdjust="spacing" textLength="15.1709" x="25" y="507.1416">alt</text><text fill="#000000" font-family="sans-serif" font-size="11" font-weight="bold" lengthAdjust="spacing" textLength="127.1553" x="85.1709" y="505.9834">[Account already exists]</text><polygon fill="#181818" points="781.6377,530.6953,771.6377,534.6953,781.6377,538.6953,777.6377,534.6953" style="stroke:#181818;stroke-width:1.0;"/><line style="stroke:#181818;stroke-width:1.0;stroke-dasharray:2.0,2.0;" x1="775.6377" x2="994.5684" y1="534.6953" y2="534.6953"/><text fill="#000000" font-family="sans-serif" font-size="13" lengthAdjust="spacing" textLength="74.4072" x="787.6377" y="529.4326">User (object)</text><polygon fill="#181818" points="411.5972,561.9863,401.5972,565.9863,411.5972,569.9863,407.5972,565.9863" style="stroke:#181818;stroke-width:1.0;"/><line style="stroke:#181818;stroke-width:1.0;stroke-dasharray:2.0,2.0;" x1="405.5972" x2="759.6377" y1="565.9863" y2="565.9863"/><text fill="#000000" font-family="sans-serif" font-size="13" lengthAdjust="spacing" textLength="248.5234" x="417.5972" y="560.7236">HTTP Response: 409 Conflict (User exists)</text><polygon fill="#181818" points="64.7275,593.2773,54.7275,597.2773,64.7275,601.2773,60.7275,597.2773" style="stroke:#181818;stroke-width:1.0;"/><line style="stroke:#181818;stroke-width:1.0;stroke-dasharray:2.0,2.0;" x1="58.7275" x2="394.5972" y1="597.2773" y2="597.2773"/><text fill="#000000" font-family="sans-serif" font-size="13" lengthAdjust="spacing" textLength="299.8696" x="70.7275" y="592.0146">Error: account already exists, redirects to login page</text><polygon fill="#181818" points="781.6377,631.5684,771.6377,635.5684,781.6377,639.5684,777.6377,635.5684" style="stroke:#181818;stroke-width:1.0;"/><line style="stroke:#181818;stroke-width:1.0;stroke-dasharray:2.0,2.0;" x1="775.6377" x2="999.5684" y1="635.5684" y2="635.5684"/><text fill="#000000" font-family="sans-serif" font-size="13" lengthAdjust="spacing" textLength="31.0781" x="787.6377" y="630.3057">None</text><polygon fill="#181818" points="983.5684,662.8594,993.5684,666.8594,983.5684,670.8594,987.5684,666.8594" style="stroke:#181818;stroke-width:1.0;"/><line style="stroke:#181818;stroke-width:1.0;" x1="770.6377" x2="989.5684" y1="666.8594" y2="666.8594"/><text fill="#000000" font-family="sans-serif" font-size="13" lengthAdjust="spacing" textLength="205.9307" x="777.6377" y="661.5967">create_user(email, plain_password)</text><line style="stroke:#181818;stroke-width:1.0;" x1="1010.5684" x2="1052.5684" y1="698.1504" y2="698.1504"/><line style="stroke:#181818;stroke-width:1.0;" x1="1052.5684" x2="1052.5684" y1="698.1504" y2="711.1504"/><line style="stroke:#181818;stroke-width:1.0;" x1="1011.5684" x2="1052.5684" y1="711.1504" y2="711.1504"/><polygon fill="#181818" points="1021.5684,707.1504,1011.5684,711.1504,1021.5684,715.1504,1017.5684,711.1504" style="stroke:#181818;stroke-width:1.0;"/><text fill="#000000" font-family="sans-serif" font-size="13" lengthAdjust="spacing" textLength="167.6479" x="1017.5684" y="692.8877">__create_verification_token()</text><polygon fill="#181818" points="1410.6724,768.4414,1420.6724,772.4414,1410.6724,776.4414,1414.6724,772.4414" style="stroke:#181818;stroke-width:1.0;"/><line style="stroke:#181818;stroke-width:1.0;" x1="1005.5684" x2="1416.6724" y1="772.4414" y2="772.4414"/><text fill="#000000" font-family="sans-serif" font-size="13" lengthAdjust="spacing" textLength="367.8149" x="1012.5684" y="767.1787">new(unverified_email, plain_password, plain_verification_token)</text><line style="stroke:#181818;stroke-width:1.0;" x1="1437.6724" x2="1479.6724" y1="803.7324" y2="803.7324"/><line style="stroke:#181818;stroke-width:1.0;" x1="1479.6724" x2="1479.6724" y1="803.7324" y2="816.7324"/><line style="stroke:#181818;stroke-width:1.0;" x1="1438.6724" x2="1479.6724" y1="816.7324" y2="816.7324"/><polygon fill="#181818" points="1448.6724,812.7324,1438.6724,816.7324,1448.6724,820.7324,1444.6724,816.7324" style="stroke:#181818;stroke-width:1.0;"/><text fill="#000000" font-family="sans-serif" font-size="13" lengthAdjust="spacing" textLength="149.5762" x="1444.6724" y="798.4697">__hash_secret(password)</text><line style="stroke:#181818;stroke-width:1.0;" x1="1437.6724" x2="1479.6724" y1="878.0234" y2="878.0234"/><line style="stroke:#181818;stroke-width:1.0;" x1="1479.6724" x2="1479.6724" y1="878.0234" y2="891.0234"/><line style="stroke:#181818;stroke-width:1.0;" x1="1438.6724" x2="1479.6724" y1="891.0234" y2="891.0234"/><polygon fill="#181818" points="1448.6724,887.0234,1438.6724,891.0234,1448.6724,895.0234,1444.6724,891.0234" style="stroke:#181818;stroke-width:1.0;"/><text fill="#000000" font-family="sans-serif" font-size="13" lengthAdjust="spacing" textLength="229.8042" x="1444.6724" y="872.7607">__hash_secret(plain_verification_token)</text><line style="stroke:#181818;stroke-width:1.0;" x1="1437.6724" x2="1479.6724" y1="952.3145" y2="952.3145"/><line style="stroke:#181818;stroke-width:1.0;" x1="1479.6724" x2="1479.6724" y1="952.3145" y2="965.3145"/><line style="stroke:#181818;stroke-width:1.0;" x1="1438.6724" x2="1479.6724" y1="965.3145" y2="965.3145"/><polygon fill="#181818" points="1448.6724,961.3145,1438.6724,965.3145,1448.6724,969.3145,1444.6724,965.3145" style="stroke:#181818;stroke-width:1.0;"/><text fill="#000000" font-family="sans-serif" font-size="13" lengthAdjust="spacing" textLength="192.2261" x="1444.6724" y="947.0518">verification_exp_at = (now + 48h)</text><polygon fill="#181818" points="1016.5684,1022.6055,1006.5684,1026.6055,1016.5684,1030.6055,1012.5684,1026.6055" style="stroke:#181818;stroke-width:1.0;"/><line style="stroke:#181818;stroke-width:1.0;stroke-dasharray:2.0,2.0;" x1="1010.5684" x2="1426.6724" y1="1026.6055" y2="1026.6055"/><text fill="#000000" font-family="sans-serif" font-size="13" lengthAdjust="spacing" textLength="74.4072" x="1022.5684" y="1021.3428">User (object)</text><line style="stroke:#181818;stroke-width:1.0;" x1="1010.5684" x2="1052.5684" y1="1057.8965" y2="1057.8965"/><line style="stroke:#181818;stroke-width:1.0;" x1="1052.5684" x2="1052.5684" y1="1057.8965" y2="1070.8965"/><line style="stroke:#181818;stroke-width:1.0;" x1="1011.5684" x2="1052.5684" y1="1070.8965" y2="1070.8965"/><polygon fill="#181818" points="1021.5684,1066.8965,1011.5684,1070.8965,1021.5684,1074.8965,1017.5684,1070.8965" style="stroke:#181818;stroke-width:1.0;"/><text fill="#000000" font-family="sans-serif" font-size="13" lengthAdjust="spacing" textLength="393.104" x="1017.5684" y="1052.6338">__create_verification_link(plain_verification_token, unverified_email)</text><line style="stroke:#181818;stroke-width:1.0;" x1="1005.5684" x2="1052.5684" y1="1127.1875" y2="1127.1875"/><line style="stroke:#181818;stroke-width:1.0;" x1="1052.5684" x2="1052.5684" y1="1127.1875" y2="1140.1875"/><line style="stroke:#181818;stroke-width:1.0;" x1="1011.5684" x2="1052.5684" y1="1140.1875" y2="1140.1875"/><polygon fill="#181818" points="1021.5684,1136.1875,1011.5684,1140.1875,1021.5684,1144.1875,1017.5684,1140.1875" style="stroke:#181818;stroke-width:1.0;"/><text fill="#000000" font-family="sans-serif" font-size="13" lengthAdjust="spacing" textLength="240.6143" x="1017.5684" y="1121.9248">__send_verification_mail(verification_link)</text><polygon fill="#181818" points="1674.4766,1172.4785,1684.4766,1176.4785,1674.4766,1180.4785,1678.4766,1176.4785" style="stroke:#181818;stroke-width:1.0;"/><line style="stroke:#181818;stroke-width:1.0;" x1="1010.5684" x2="1680.4766" y1="1176.4785" y2="1176.4785"/><text fill="#000000" font-family="sans-serif" font-size="13" lengthAdjust="spacing" textLength="202.3252" x="1017.5684" y="1171.2158">send email {verification_link, email}</text><polygon fill="#181818" points="781.6377,1233.7695,771.6377,1237.7695,781.6377,1241.7695,777.6377,1237.7695" style="stroke:#181818;stroke-width:1.0;"/><line style="stroke:#181818;stroke-width:1.0;stroke-dasharray:2.0,2.0;" x1="775.6377" x2="999.5684" y1="1237.7695" y2="1237.7695"/><text fill="#000000" font-family="sans-serif" font-size="13" lengthAdjust="spacing" textLength="74.4072" x="787.6377" y="1232.5068">User (object)</text><polygon fill="#181818" points="411.5972,1265.0605,401.5972,1269.0605,411.5972,1273.0605,407.5972,1269.0605" style="stroke:#181818;stroke-width:1.0;"/><line style="stroke:#181818;stroke-width:1.0;stroke-dasharray:2.0,2.0;" x1="405.5972" x2="764.6377" y1="1269.0605" y2="1269.0605"/><text fill="#000000" font-family="sans-serif" font-size="13" lengthAdjust="spacing" textLength="261.5552" x="417.5972" y="1263.7979">HTTP Response: 201 Created (User created)</text><polygon fill="#181818" points="64.7275,1296.3516,54.7275,1300.3516,64.7275,1304.3516,60.7275,1300.3516" style="stroke:#181818;stroke-width:1.0;"/><line style="stroke:#181818;stroke-width:1.0;stroke-dasharray:2.0,2.0;" x1="58.7275" x2="394.5972" y1="1300.3516" y2="1300.3516"/><text fill="#000000" font-family="sans-serif" font-size="13" lengthAdjust="spacing" textLength="233.9429" x="70.7275" y="1295.0889">Success Message and "check your mail"</text><polygon fill="#181818" points="64.7275,1327.6426,54.7275,1331.6426,64.7275,1335.6426,60.7275,1331.6426" style="stroke:#181818;stroke-width:1.0;"/><line style="stroke:#181818;stroke-width:1.0;" x1="58.7275" x2="1690.4766" y1="1331.6426" y2="1331.6426"/><text fill="#000000" font-family="sans-serif" font-size="13" lengthAdjust="spacing" textLength="73.6836" x="70.7275" y="1326.3799">Mail with link</text><!--SRC=[bLLHRzem47xFhpZn53IgTLCVDZGcjHre3qlN4NYRP9da2Xx6pcm7Ygh-zvqTM1C2hEC1Y7tVzzrzTuvvvhI1pXrkO6hHT81Rk2uA_pygk74Y4mLN3ZeZevL3bKCyHfwvReWS3Pj1RwsOgx80eqk7FnN48ydj4cvaYOKHQeTAnqsK5qlHh4M6ON-QjlSXqJbA-3xxXPa3Jvt- -7OjimMkjlJaD7pXZi-unKfZcZGvXeyEZUBIGuShBYJK5HDQYAB105BA7wY0UwCpj1O6WsZd1bnyfdAX3tTyBURSeVMYTXV_eCqg8bl4cdQyBNlKfukB2fRM8myvHq9Aso239_HPzg2GN2XMS6itskJFmAa5jfojXBCHOOaX7HF3ryda7iRukqJh-d3_FPsSOeXoh2VwzpzrXPY8RveIdx0im9bFXZksvbBaSLZglc2eKrowdQ5L92Zj84H7G1-Yz1O4pX6N5iCg9UvNwvdRGYkBVRYwl8GRdkzhWVWuUJVmr0lnpotNXyPeqp-HO0-SsGAVapq1tJI6PZsgPpyn9TQzezfhVb6oPijA4hTijcLUxvHRrrccIvf9BWtoV0luA2mryz2jK4Yimy1t_-tQHxZLwa4AEXrnW5Qq_-SJFvfQ3mpcmb0UOUQbdWi51P_ZAroxq-gCQnd9E0osnKUdjUaUOVP8ndRODHhn83BkX5RCwIMgk0bgYkye4g9Gk8bBLU4nPqVrzyzjbRf84X7XdfQn1RSBPf4ITF6nGf96JkV0hz8-ITO0ucF1QFW742kzWJTmzM5nbYQjUfYq9h4LTxubKgZboK9wSDY0L_Ikqh8qQKt6SEPQsiScoB_kYSHJG525fnQkL-qyly339T4QvHFdjHbtvkI-ltm7jy6tV7TmAnVp1WUzdC_VBcKMxgk4lkXWXbkYGvTZjeIjBWtuKZe7R_uNahqXuMSZt0Ay0_Lml_C7]--></g></svg>