<svg xmlns="http://www.w3.org/2000/svg" xmlns:xlink="http://www.w3.org/1999/xlink" contentStyleType="text/css" height="1189px" preserveAspectRatio="none" style="width:973px;height:1189px;background:#FFFFFF;" version="1.1" viewBox="0 0 973 1189" width="973px" zoomAndPan="magnify"><defs/><g><rect fill="#FFFFFF" height="1057.4395" style="stroke:#181818;stroke-width:1.0;" width="10" x="322.79" y="67.2422"/><rect fill="#FFFFFF" height="979.8574" style="stroke:#181818;stroke-width:1.0;" width="10" x="603.6758" y="135.8242"/><rect fill="#FFFFFF" height="188.4551" style="stroke:#181818;stroke-width:1.0;" width="10" x="608.6758" y="175.1152"/><rect fill="#FFFFFF" height="188.4551" style="stroke:#181818;stroke-width:1.0;" width="10" x="608.6758" y="409.8613"/><rect fill="#FFFFFF" height="237.0371" style="stroke:#181818;stroke-width:1.0;" width="10" x="608.6758" y="644.6074"/><rect fill="#FFFFFF" height="164.4551" style="stroke:#181818;stroke-width:1.0;" width="10" x="896.4399" y="919.9355"/><rect fill="none" height="132.1641" style="stroke:#000000;stroke-width:1.5;" width="403.5854" x="259.8315" y="195.1152"/><rect fill="none" height="132.1641" style="stroke:#000000;stroke-width:1.5;" width="403.5854" x="259.8315" y="429.8613"/><rect fill="none" height="180.7461" style="stroke:#000000;stroke-width:1.5;" width="653.417" x="10" y="664.6074"/><rect fill="none" height="119.1641" style="stroke:#000000;stroke-width:1.5;" width="696.729" x="259.8315" y="934.9355"/><line style="stroke:#181818;stroke-width:0.5;stroke-dasharray:5.0,5.0;" x1="79" x2="79" y1="57.2422" y2="1133.6816"/><line style="stroke:#181818;stroke-width:0.5;stroke-dasharray:5.0,5.0;" x1="326.8315" x2="326.8315" y1="57.2422" y2="1133.6816"/><line style="stroke:#181818;stroke-width:0.5;stroke-dasharray:5.0,5.0;" x1="607.9346" x2="607.9346" y1="57.2422" y2="1133.6816"/><line style="stroke:#181818;stroke-width:0.5;stroke-dasharray:5.0,5.0;" x1="901.3193" x2="901.3193" y1="57.2422" y2="1133.6816"/><rect fill="#E2E2F0" height="32.6211" rx="2.5" ry="2.5" style="stroke:#181818;stroke-width:0.5;" width="119.8203" x="20" y="23.6211"/><text fill="#000000" font-family="sans-serif" font-size="14" lengthAdjust="spacing" textLength="105.8203" x="27" y="45.7285">Frontend (React)</text><rect fill="#E2E2F0" height="32.6211" rx="2.5" ry="2.5" style="stroke:#181818;stroke-width:0.5;" width="119.8203" x="20" y="1132.6816"/><text fill="#000000" font-family="sans-serif" font-size="14" lengthAdjust="spacing" textLength="105.8203" x="27" y="1154.7891">Frontend (React)</text><rect fill="#E2E2F0" height="51.2422" rx="2.5" ry="2.5" style="stroke:#181818;stroke-width:0.5;" width="115.917" x="269.8315" y="5"/><text fill="#000000" font-family="sans-serif" font-size="14" lengthAdjust="spacing" textLength="70.041" x="292.7695" y="27.1074">/[any] route</text><text fill="#000000" font-family="sans-serif" font-size="14" lengthAdjust="spacing" textLength="101.917" x="276.8315" y="45.7285">(Flask Blueprint)</text><rect fill="#E2E2F0" height="51.2422" rx="2.5" ry="2.5" style="stroke:#181818;stroke-width:0.5;" width="115.917" x="269.8315" y="1132.6816"/><text fill="#000000" font-family="sans-serif" font-size="14" lengthAdjust="spacing" textLength="70.041" x="292.7695" y="1154.7891">/[any] route</text><text fill="#000000" font-family="sans-serif" font-size="14" lengthAdjust="spacing" textLength="101.917" x="276.8315" y="1173.4102">(Flask Blueprint)</text><rect fill="#E2E2F0" height="32.6211" rx="2.5" ry="2.5" style="stroke:#181818;stroke-width:0.5;" width="89.4824" x="563.9346" y="23.6211"/><text fill="#000000" font-family="sans-serif" font-size="14" lengthAdjust="spacing" textLength="75.4824" x="570.9346" y="45.7285">AuthService</text><rect fill="#E2E2F0" height="32.6211" rx="2.5" ry="2.5" style="stroke:#181818;stroke-width:0.5;" width="89.4824" x="563.9346" y="1132.6816"/><text fill="#000000" font-family="sans-serif" font-size="14" lengthAdjust="spacing" textLength="75.4824" x="570.9346" y="1154.7891">AuthService</text><rect fill="#E2E2F0" height="32.6211" rx="2.5" ry="2.5" style="stroke:#181818;stroke-width:0.5;" width="90.2412" x="856.3193" y="23.6211"/><text fill="#000000" font-family="sans-serif" font-size="14" lengthAdjust="spacing" textLength="76.2412" x="863.3193" y="45.7285">UserService</text><rect fill="#E2E2F0" height="32.6211" rx="2.5" ry="2.5" style="stroke:#181818;stroke-width:0.5;" width="90.2412" x="856.3193" y="1132.6816"/><text fill="#000000" font-family="sans-serif" font-size="14" lengthAdjust="spacing" textLength="76.2412" x="863.3193" y="1154.7891">UserService</text><rect fill="#FFFFFF" height="1057.4395" style="stroke:#181818;stroke-width:1.0;" width="10" x="322.79" y="67.2422"/><rect fill="#FFFFFF" height="979.8574" style="stroke:#181818;stroke-width:1.0;" width="10" x="603.6758" y="135.8242"/><rect fill="#FFFFFF" height="188.4551" style="stroke:#181818;stroke-width:1.0;" width="10" x="608.6758" y="175.1152"/><rect fill="#FFFFFF" height="188.4551" style="stroke:#181818;stroke-width:1.0;" width="10" x="608.6758" y="409.8613"/><rect fill="#FFFFFF" height="237.0371" style="stroke:#181818;stroke-width:1.0;" width="10" x="608.6758" y="644.6074"/><rect fill="#FFFFFF" height="164.4551" style="stroke:#181818;stroke-width:1.0;" width="10" x="896.4399" y="919.9355"/><rect fill="#EEEEEE" height="3" style="stroke:#EEEEEE;stroke-width:1.0;" width="966.5605" x="0" y="88.8877"/><line style="stroke:#000000;stroke-width:1.0;" x1="0" x2="966.5605" y1="88.8877" y2="88.8877"/><line style="stroke:#000000;stroke-width:1.0;" x1="0" x2="966.5605" y1="91.8877" y2="91.8877"/><rect fill="#EEEEEE" height="25.291" style="stroke:#000000;stroke-width:2.0;" width="145.479" x="410.5408" y="77.2422"/><text fill="#000000" font-family="sans-serif" font-size="13" font-weight="bold" lengthAdjust="spacing" textLength="127.8672" x="416.5408" y="95.2705">(Generic) Verify JWT</text><polygon fill="#181818" points="591.6758,131.8242,601.6758,135.8242,591.6758,139.8242,595.6758,135.8242" style="stroke:#181818;stroke-width:1.0;"/><line style="stroke:#181818;stroke-width:1.0;" x1="332.79" x2="597.6758" y1="135.8242" y2="135.8242"/><text fill="#000000" font-family="sans-serif" font-size="13" lengthAdjust="spacing" textLength="231.2134" x="339.79" y="130.5615">verify_access_jwt(encoded_access_jwt)</text><line style="stroke:#181818;stroke-width:1.0;" x1="613.6758" x2="660.6758" y1="162.1152" y2="162.1152"/><line style="stroke:#181818;stroke-width:1.0;" x1="660.6758" x2="660.6758" y1="162.1152" y2="175.1152"/><line style="stroke:#181818;stroke-width:1.0;" x1="619.6758" x2="660.6758" y1="175.1152" y2="175.1152"/><polygon fill="#181818" points="629.6758,171.1152,619.6758,175.1152,629.6758,179.1152,625.6758,175.1152" style="stroke:#181818;stroke-width:1.0;"/><text fill="#000000" font-family="sans-serif" font-size="13" lengthAdjust="spacing" textLength="209.5742" x="625.6758" y="156.8525">__decode_jwt(encoded_access_jwt)</text><path d="M259.8315,195.1152 L320.0024,195.1152 L320.0024,204.4063 L310.0024,214.4063 L259.8315,214.4063 L259.8315,195.1152 " fill="#EEEEEE" style="stroke:#000000;stroke-width:1.5;"/><rect fill="none" height="132.1641" style="stroke:#000000;stroke-width:1.5;" width="403.5854" x="259.8315" y="195.1152"/><text fill="#000000" font-family="sans-serif" font-size="13" font-weight="bold" lengthAdjust="spacing" textLength="15.1709" x="274.8315" y="210.1436">alt</text><text fill="#000000" font-family="sans-serif" font-size="11" font-weight="bold" lengthAdjust="spacing" textLength="148.543" x="335.0024" y="208.9854">[Decoding access JWT fails]</text><line style="stroke:#181818;stroke-width:1.0;stroke-dasharray:2.0,2.0;" x1="561.6758" x2="607.6758" y1="237.6973" y2="237.6973"/><line style="stroke:#181818;stroke-width:1.0;stroke-dasharray:2.0,2.0;" x1="561.6758" x2="561.6758" y1="237.6973" y2="250.6973"/><line style="stroke:#181818;stroke-width:1.0;stroke-dasharray:2.0,2.0;" x1="561.6758" x2="606.6758" y1="250.6973" y2="250.6973"/><polygon fill="#181818" points="596.6758,246.6973,606.6758,250.6973,596.6758,254.6973,600.6758,250.6973" style="stroke:#181818;stroke-width:1.0;"/><text fill="#000000" font-family="sans-serif" font-size="13" lengthAdjust="spacing" textLength="31.0781" x="560.6758" y="232.4346">None</text><polygon fill="#181818" points="343.79,277.9883,333.79,281.9883,343.79,285.9883,339.79,281.9883" style="stroke:#181818;stroke-width:1.0;"/><line style="stroke:#181818;stroke-width:1.0;stroke-dasharray:2.0,2.0;" x1="337.79" x2="607.6758" y1="281.9883" y2="281.9883"/><text fill="#000000" font-family="sans-serif" font-size="13" lengthAdjust="spacing" textLength="31.0781" x="349.79" y="276.7256">None</text><path d="M337,294.9883 L337,321.9883 L589,321.9883 L589,304.9883 L579,294.9883 L337,294.9883 " fill="#FEFFDD" style="stroke:#181818;stroke-width:0.5;"/><path d="M579,294.9883 L579,304.9883 L589,304.9883 L579,294.9883 " fill="#FEFFDD" style="stroke:#181818;stroke-width:0.5;"/><text fill="#000000" font-family="sans-serif" font-size="13" lengthAdjust="spacing" textLength="231.207" x="343" y="314.0166">Revoke JWT: see sep. generic diagram.</text><line style="stroke:#181818;stroke-width:1.0;stroke-dasharray:2.0,2.0;" x1="561.6758" x2="607.6758" y1="362.5703" y2="362.5703"/><line style="stroke:#181818;stroke-width:1.0;stroke-dasharray:2.0,2.0;" x1="561.6758" x2="561.6758" y1="362.5703" y2="375.5703"/><line style="stroke:#181818;stroke-width:1.0;stroke-dasharray:2.0,2.0;" x1="561.6758" x2="601.6758" y1="375.5703" y2="375.5703"/><polygon fill="#181818" points="591.6758,371.5703,601.6758,375.5703,591.6758,379.5703,595.6758,375.5703" style="stroke:#181818;stroke-width:1.0;"/><text fill="#000000" font-family="sans-serif" font-size="13" lengthAdjust="spacing" textLength="120.688" x="475.9878" y="357.3076">decoded_access_jwt</text><line style="stroke:#181818;stroke-width:1.0;" x1="613.6758" x2="660.6758" y1="396.8613" y2="396.8613"/><line style="stroke:#181818;stroke-width:1.0;" x1="660.6758" x2="660.6758" y1="396.8613" y2="409.8613"/><line style="stroke:#181818;stroke-width:1.0;" x1="619.6758" x2="660.6758" y1="409.8613" y2="409.8613"/><polygon fill="#181818" points="629.6758,405.8613,619.6758,409.8613,629.6758,413.8613,625.6758,409.8613" style="stroke:#181818;stroke-width:1.0;"/><text fill="#000000" font-family="sans-serif" font-size="13" lengthAdjust="spacing" textLength="241.3379" x="625.6758" y="391.5986">__query_blacklisted_jwt_by_jti(access_jti)</text><path d="M259.8315,429.8613 L320.0024,429.8613 L320.0024,439.1523 L310.0024,449.1523 L259.8315,449.1523 L259.8315,429.8613 " fill="#EEEEEE" style="stroke:#000000;stroke-width:1.5;"/><rect fill="none" height="132.1641" style="stroke:#000000;stroke-width:1.5;" width="403.5854" x="259.8315" y="429.8613"/><text fill="#000000" font-family="sans-serif" font-size="13" font-weight="bold" lengthAdjust="spacing" textLength="15.1709" x="274.8315" y="444.8896">alt</text><text fill="#000000" font-family="sans-serif" font-size="11" font-weight="bold" lengthAdjust="spacing" textLength="132.0698" x="335.0024" y="443.7314">[access_jti is blacklisted]</text><line style="stroke:#181818;stroke-width:1.0;stroke-dasharray:2.0,2.0;" x1="561.6758" x2="607.6758" y1="472.4434" y2="472.4434"/><line style="stroke:#181818;stroke-width:1.0;stroke-dasharray:2.0,2.0;" x1="561.6758" x2="561.6758" y1="472.4434" y2="485.4434"/><line style="stroke:#181818;stroke-width:1.0;stroke-dasharray:2.0,2.0;" x1="561.6758" x2="606.6758" y1="485.4434" y2="485.4434"/><polygon fill="#181818" points="596.6758,481.4434,606.6758,485.4434,596.6758,489.4434,600.6758,485.4434" style="stroke:#181818;stroke-width:1.0;"/><text fill="#000000" font-family="sans-serif" font-size="13" lengthAdjust="spacing" textLength="166.8799" x="429.7959" y="467.1807">BlacklistedJWTAccessToken</text><polygon fill="#181818" points="343.79,512.7344,333.79,516.7344,343.79,520.7344,339.79,516.7344" style="stroke:#181818;stroke-width:1.0;"/><line style="stroke:#181818;stroke-width:1.0;stroke-dasharray:2.0,2.0;" x1="337.79" x2="607.6758" y1="516.7344" y2="516.7344"/><text fill="#000000" font-family="sans-serif" font-size="13" lengthAdjust="spacing" textLength="31.0781" x="349.79" y="511.4717">None</text><path d="M337,529.7344 L337,556.7344 L589,556.7344 L589,539.7344 L579,529.7344 L337,529.7344 " fill="#FEFFDD" style="stroke:#181818;stroke-width:0.5;"/><path d="M579,529.7344 L579,539.7344 L589,539.7344 L579,529.7344 " fill="#FEFFDD" style="stroke:#181818;stroke-width:0.5;"/><text fill="#000000" font-family="sans-serif" font-size="13" lengthAdjust="spacing" textLength="231.207" x="343" y="548.7627">Revoke JWT: see sep. generic diagram.</text><line style="stroke:#181818;stroke-width:1.0;stroke-dasharray:2.0,2.0;" x1="561.6758" x2="607.6758" y1="597.3164" y2="597.3164"/><line style="stroke:#181818;stroke-width:1.0;stroke-dasharray:2.0,2.0;" x1="561.6758" x2="561.6758" y1="597.3164" y2="610.3164"/><line style="stroke:#181818;stroke-width:1.0;stroke-dasharray:2.0,2.0;" x1="561.6758" x2="601.6758" y1="610.3164" y2="610.3164"/><polygon fill="#181818" points="591.6758,606.3164,601.6758,610.3164,591.6758,614.3164,595.6758,610.3164" style="stroke:#181818;stroke-width:1.0;"/><text fill="#000000" font-family="sans-serif" font-size="13" lengthAdjust="spacing" textLength="31.0781" x="560.6758" y="592.0537">None</text><line style="stroke:#181818;stroke-width:1.0;" x1="613.6758" x2="660.6758" y1="631.6074" y2="631.6074"/><line style="stroke:#181818;stroke-width:1.0;" x1="660.6758" x2="660.6758" y1="631.6074" y2="644.6074"/><line style="stroke:#181818;stroke-width:1.0;" x1="619.6758" x2="660.6758" y1="644.6074" y2="644.6074"/><polygon fill="#181818" points="629.6758,640.6074,619.6758,644.6074,629.6758,648.6074,625.6758,644.6074" style="stroke:#181818;stroke-width:1.0;"/><text fill="#000000" font-family="sans-serif" font-size="13" lengthAdjust="spacing" textLength="211.7261" x="625.6758" y="626.3447">__has_jwt_expired(decoded_jwt: str)</text><path d="M10,664.6074 L70.1709,664.6074 L70.1709,673.8984 L60.1709,683.8984 L10,683.8984 L10,664.6074 " fill="#EEEEEE" style="stroke:#000000;stroke-width:1.5;"/><rect fill="none" height="180.7461" style="stroke:#000000;stroke-width:1.5;" width="653.417" x="10" y="664.6074"/><text fill="#000000" font-family="sans-serif" font-size="13" font-weight="bold" lengthAdjust="spacing" textLength="15.1709" x="25" y="679.6357">alt</text><text fill="#000000" font-family="sans-serif" font-size="11" font-weight="bold" lengthAdjust="spacing" textLength="136.3291" x="85.1709" y="678.4775">[Access JWT has expired]</text><line style="stroke:#181818;stroke-width:1.0;stroke-dasharray:2.0,2.0;" x1="561.6758" x2="607.6758" y1="707.1895" y2="707.1895"/><line style="stroke:#181818;stroke-width:1.0;stroke-dasharray:2.0,2.0;" x1="561.6758" x2="561.6758" y1="707.1895" y2="720.1895"/><line style="stroke:#181818;stroke-width:1.0;stroke-dasharray:2.0,2.0;" x1="561.6758" x2="606.6758" y1="720.1895" y2="720.1895"/><polygon fill="#181818" points="596.6758,716.1895,606.6758,720.1895,596.6758,724.1895,600.6758,720.1895" style="stroke:#181818;stroke-width:1.0;"/><text fill="#000000" font-family="sans-serif" font-size="13" lengthAdjust="spacing" textLength="26.73" x="560.6758" y="701.9268">True</text><polygon fill="#181818" points="343.79,747.4805,333.79,751.4805,343.79,755.4805,339.79,751.4805" style="stroke:#181818;stroke-width:1.0;"/><line style="stroke:#181818;stroke-width:1.0;stroke-dasharray:2.0,2.0;" x1="337.79" x2="607.6758" y1="751.4805" y2="751.4805"/><text fill="#000000" font-family="sans-serif" font-size="13" lengthAdjust="spacing" textLength="246.8857" x="349.79" y="746.2178">raise JWTExpiredError("JWT has expired")</text><polygon fill="#181818" points="90.9102,796.0625,80.9102,800.0625,90.9102,804.0625,86.9102,800.0625" style="stroke:#181818;stroke-width:1.0;"/><line style="stroke:#181818;stroke-width:1.0;stroke-dasharray:2.0,2.0;" x1="84.9102" x2="321.79" y1="800.0625" y2="800.0625"/><text fill="#000000" font-family="sans-serif" font-size="13" lengthAdjust="spacing" textLength="209.5552" x="96.9102" y="777.5088">HTTP Response: 401 Unauthorized:</text><text fill="#000000" font-family="sans-serif" font-size="13" lengthAdjust="spacing" textLength="218.8799" x="96.9102" y="794.7998">JWT expired, redirects to refresh JWT</text><path d="M84,813.0625 L84,840.0625 L334,840.0625 L334,823.0625 L324,813.0625 L84,813.0625 " fill="#FEFFDD" style="stroke:#181818;stroke-width:0.5;"/><path d="M324,813.0625 L324,823.0625 L334,823.0625 L324,813.0625 " fill="#FEFFDD" style="stroke:#181818;stroke-width:0.5;"/><text fill="#000000" font-family="sans-serif" font-size="13" lengthAdjust="spacing" textLength="229.0361" x="90" y="832.0908">Refresh JWT: see sep. generic diagram</text><line style="stroke:#181818;stroke-width:1.0;stroke-dasharray:2.0,2.0;" x1="561.6758" x2="607.6758" y1="880.6445" y2="880.6445"/><line style="stroke:#181818;stroke-width:1.0;stroke-dasharray:2.0,2.0;" x1="561.6758" x2="561.6758" y1="880.6445" y2="893.6445"/><line style="stroke:#181818;stroke-width:1.0;stroke-dasharray:2.0,2.0;" x1="561.6758" x2="601.6758" y1="893.6445" y2="893.6445"/><polygon fill="#181818" points="591.6758,889.6445,601.6758,893.6445,591.6758,897.6445,595.6758,893.6445" style="stroke:#181818;stroke-width:1.0;"/><text fill="#000000" font-family="sans-serif" font-size="13" lengthAdjust="spacing" textLength="31.7891" x="560.6758" y="875.3818">False</text><polygon fill="#181818" points="884.4399,915.9355,894.4399,919.9355,884.4399,923.9355,888.4399,919.9355" style="stroke:#181818;stroke-width:1.0;"/><line style="stroke:#181818;stroke-width:1.0;" x1="613.6758" x2="890.4399" y1="919.9355" y2="919.9355"/><text fill="#000000" font-family="sans-serif" font-size="13" lengthAdjust="spacing" textLength="263.7642" x="620.6758" y="914.6729">query_users_by_id(decoded_access_jwt.sub)</text><path d="M259.8315,934.9355 L320.0024,934.9355 L320.0024,944.2266 L310.0024,954.2266 L259.8315,954.2266 L259.8315,934.9355 " fill="#EEEEEE" style="stroke:#000000;stroke-width:1.5;"/><rect fill="none" height="119.1641" style="stroke:#000000;stroke-width:1.5;" width="696.729" x="259.8315" y="934.9355"/><text fill="#000000" font-family="sans-serif" font-size="13" font-weight="bold" lengthAdjust="spacing" textLength="15.1709" x="274.8315" y="949.9639">alt</text><text fill="#000000" font-family="sans-serif" font-size="11" font-weight="bold" lengthAdjust="spacing" textLength="108.8022" x="335.0024" y="948.8057">[User does not exist]</text><polygon fill="#181818" points="624.6758,973.5176,614.6758,977.5176,624.6758,981.5176,620.6758,977.5176" style="stroke:#181818;stroke-width:1.0;"/><line style="stroke:#181818;stroke-width:1.0;stroke-dasharray:2.0,2.0;" x1="618.6758" x2="895.4399" y1="977.5176" y2="977.5176"/><text fill="#000000" font-family="sans-serif" font-size="13" lengthAdjust="spacing" textLength="31.0781" x="630.6758" y="972.2549">None</text><polygon fill="#181818" points="343.79,1004.8086,333.79,1008.8086,343.79,1012.8086,339.79,1008.8086" style="stroke:#181818;stroke-width:1.0;"/><line style="stroke:#181818;stroke-width:1.0;stroke-dasharray:2.0,2.0;" x1="337.79" x2="602.6758" y1="1008.8086" y2="1008.8086"/><text fill="#000000" font-family="sans-serif" font-size="13" lengthAdjust="spacing" textLength="31.0781" x="349.79" y="1003.5459">None</text><path d="M337,1021.8086 L337,1048.8086 L589,1048.8086 L589,1031.8086 L579,1021.8086 L337,1021.8086 " fill="#FEFFDD" style="stroke:#181818;stroke-width:0.5;"/><path d="M579,1021.8086 L579,1031.8086 L589,1031.8086 L579,1021.8086 " fill="#FEFFDD" style="stroke:#181818;stroke-width:0.5;"/><text fill="#000000" font-family="sans-serif" font-size="13" lengthAdjust="spacing" textLength="231.207" x="343" y="1040.8369">Revoke JWT: see sep. generic diagram.</text><polygon fill="#181818" points="624.6758,1080.3906,614.6758,1084.3906,624.6758,1088.3906,620.6758,1084.3906" style="stroke:#181818;stroke-width:1.0;"/><line style="stroke:#181818;stroke-width:1.0;stroke-dasharray:2.0,2.0;" x1="618.6758" x2="900.4399" y1="1084.3906" y2="1084.3906"/><text fill="#000000" font-family="sans-serif" font-size="13" lengthAdjust="spacing" textLength="65.749" x="630.6758" y="1079.1279">User object</text><polygon fill="#181818" points="343.79,1111.6816,333.79,1115.6816,343.79,1119.6816,339.79,1115.6816" style="stroke:#181818;stroke-width:1.0;"/><line style="stroke:#181818;stroke-width:1.0;stroke-dasharray:2.0,2.0;" x1="337.79" x2="607.6758" y1="1115.6816" y2="1115.6816"/><text fill="#000000" font-family="sans-serif" font-size="13" lengthAdjust="spacing" textLength="65.749" x="349.79" y="1110.4189">User object</text><!--SRC=[lLHDZzCm4BtdLunwIYLQM8bJH96oejaL1uJomHvO5Bd9j7MRjOFj5CglPnotn4jQn6ahfKayyzxCUnwdPShmYhTC69WaIWg3eeOmHLQPwGIOXcGPj7xIwwzC7B-1aft1Hn4c3TDxk6qwR1KN9qoSFiV4dTbcg0wyGXVFdiSBZSgF5raGB1OGtg50nQifVA7R-WWV7t9OB0BgZH-OGLidJc7sdWWXWaEVLBAgGgtBtGyJegXaZRMtDFN0MK2mCxWiQxJ9_uLZZO4FDfsB3RYalhSruuqEW7x4-MusSzIVf42tc5vO598u5Tzi3SYrJOaWnOFSesMCG2FIrSvXuxo0chEDOa_pW3OgyCku_lscWnglgltUeJgMguPL-uPhGpW2bAjZkJCyF5COFjOzn81hy0X6kc-764c9UrnEmiGBcD4p_aF-blKEbVYpvGhhy6mUhL4PeyQwus6R2Gmdu4XqhhhnPYl6TIzXwL1BfQGA9tznJQOzC5awe1L_d-UVoG7TIg4nWhTlRg0GZ4wJLFmNrj6Zi1md_2kWFtgeZ0OZwMMjK6zjsGlUKXNhxP-Kw-QEl4rOeo-RMzYmcwoEZhIsyyG7SuV9dEjkvLbSE8ljPm1gYThsIgfeT7n_YvSvJ7sPlXMvsf6Plb9grAzx9IlEVWC0]--></g></svg>