<?xml version="1.0" encoding="us-ascii" standalone="no"?><svg xmlns="http://www.w3.org/2000/svg" xmlns:xlink="http://www.w3.org/1999/xlink" contentStyleType="text/css" height="1119px" preserveAspectRatio="none" style="width:2047px;height:1119px;background:#FFFFFF;" version="1.1" viewBox="0 0 2047 1119" width="2047px" zoomAndPan="magnify"><defs/><g><rect fill="#FFFFFF" height="29.1328" style="stroke:#181818;stroke-width:1.0;" width="10" x="352" y="155.5625"/><rect fill="#FFFFFF" height="29.1328" style="stroke:#181818;stroke-width:1.0;" width="10" x="352" y="296.2266"/><rect fill="#FFFFFF" height="29.1328" style="stroke:#181818;stroke-width:1.0;" width="10" x="352" y="473.0234"/><rect fill="#FFFFFF" height="29.1328" style="stroke:#181818;stroke-width:1.0;" width="10" x="352" y="780.2188"/><rect fill="#FFFFFF" height="29.1328" style="stroke:#181818;stroke-width:1.0;" width="10" x="352" y="991.1484"/><rect fill="#FFFFFF" height="806.4531" style="stroke:#181818;stroke-width:1.0;" width="10" x="714" y="184.6953"/><rect fill="#FFFFFF" height="147.6641" style="stroke:#181818;stroke-width:1.0;" width="10" x="1274" y="390.625"/><rect fill="#FFFFFF" height="147.6641" style="stroke:#181818;stroke-width:1.0;" width="10" x="1419.5" y="213.8281"/><rect fill="#FFFFFF" height="394.5938" style="stroke:#181818;stroke-width:1.0;" width="10" x="1419.5" y="567.4219"/><rect fill="#FFFFFF" height="336.3281" style="stroke:#181818;stroke-width:1.0;" width="10" x="1760.5" y="596.5547"/><rect fill="#FFFFFF" height="28" style="stroke:#181818;stroke-width:1.0;" width="10" x="1765.5" y="633.6875"/><rect fill="none" height="104.5313" style="stroke:#000000;stroke-width:1.5;" width="1512" x="10" y="228.8281"/><rect fill="none" height="104.5313" style="stroke:#000000;stroke-width:1.5;" width="1327" x="10" y="405.625"/><rect fill="none" height="133.6641" style="stroke:#000000;stroke-width:1.5;" width="1838" x="10" y="683.6875"/><line style="stroke:#181818;stroke-width:0.5;stroke-dasharray:5.0,5.0;" x1="39" x2="39" y1="81.2969" y2="1038.2813"/><line style="stroke:#181818;stroke-width:0.5;stroke-dasharray:5.0,5.0;" x1="356.5" x2="356.5" y1="81.2969" y2="1038.2813"/><line style="stroke:#181818;stroke-width:0.5;stroke-dasharray:5.0,5.0;" x1="718.5" x2="718.5" y1="81.2969" y2="1038.2813"/><line style="stroke:#181818;stroke-width:0.5;stroke-dasharray:5.0,5.0;" x1="1279" x2="1279" y1="81.2969" y2="1038.2813"/><line style="stroke:#181818;stroke-width:0.5;stroke-dasharray:5.0,5.0;" x1="1424" x2="1424" y1="81.2969" y2="1038.2813"/><line style="stroke:#181818;stroke-width:0.5;stroke-dasharray:5.0,5.0;" x1="1765" x2="1765" y1="81.2969" y2="1038.2813"/><text fill="#000000" font-family="sans-serif" font-size="14" lengthAdjust="spacing" textLength="32" x="20" y="77.9951">User</text><ellipse cx="39" cy="13.5" fill="#E2E2F0" rx="8" ry="8" style="stroke:#181818;stroke-width:0.5;"/><path d="M39,21.5 L39,48.5 M26,29.5 L52,29.5 M39,48.5 L26,63.5 M39,48.5 L52,63.5 " fill="none" style="stroke:#181818;stroke-width:0.5;"/><text fill="#000000" font-family="sans-serif" font-size="14" lengthAdjust="spacing" textLength="32" x="20" y="1050.2764">User</text><ellipse cx="39" cy="1062.0781" fill="#E2E2F0" rx="8" ry="8" style="stroke:#181818;stroke-width:0.5;"/><path d="M39,1070.0781 L39,1097.0781 M26,1078.0781 L52,1078.0781 M39,1097.0781 L26,1112.0781 M39,1097.0781 L52,1112.0781 " fill="none" style="stroke:#181818;stroke-width:0.5;"/><rect fill="#E2E2F0" height="30.2969" rx="2.5" ry="2.5" style="stroke:#181818;stroke-width:0.5;" width="131" x="291.5" y="50"/><text fill="#000000" font-family="sans-serif" font-size="14" lengthAdjust="spacing" textLength="117" x="298.5" y="69.9951">Frontend (React)</text><rect fill="#E2E2F0" height="30.2969" rx="2.5" ry="2.5" style="stroke:#181818;stroke-width:0.5;" width="131" x="291.5" y="1037.2813"/><text fill="#000000" font-family="sans-serif" font-size="14" lengthAdjust="spacing" textLength="117" x="298.5" y="1057.2764">Frontend (React)</text><rect fill="#E2E2F0" height="46.5938" rx="2.5" ry="2.5" style="stroke:#181818;stroke-width:0.5;" width="129" x="654.5" y="33.7031"/><text fill="#000000" font-family="sans-serif" font-size="14" lengthAdjust="spacing" textLength="81" x="678.5" y="53.6982">/verify route</text><text fill="#000000" font-family="sans-serif" font-size="14" lengthAdjust="spacing" textLength="111" x="665.5" y="69.9951">(Flask Blueprint)</text><rect fill="#E2E2F0" height="46.5938" rx="2.5" ry="2.5" style="stroke:#181818;stroke-width:0.5;" width="129" x="654.5" y="1037.2813"/><text fill="#000000" font-family="sans-serif" font-size="14" lengthAdjust="spacing" textLength="81" x="678.5" y="1057.2764">/verify route</text><text fill="#000000" font-family="sans-serif" font-size="14" lengthAdjust="spacing" textLength="111" x="665.5" y="1073.5732">(Flask Blueprint)</text><rect fill="#E2E2F0" height="30.2969" rx="2.5" ry="2.5" style="stroke:#181818;stroke-width:0.5;" width="96" x="1231" y="50"/><text fill="#000000" font-family="sans-serif" font-size="14" lengthAdjust="spacing" textLength="82" x="1238" y="69.9951">UserService</text><rect fill="#E2E2F0" height="30.2969" rx="2.5" ry="2.5" style="stroke:#181818;stroke-width:0.5;" width="96" x="1231" y="1037.2813"/><text fill="#000000" font-family="sans-serif" font-size="14" lengthAdjust="spacing" textLength="82" x="1238" y="1057.2764">UserService</text><rect fill="#E2E2F0" height="30.2969" rx="2.5" ry="2.5" style="stroke:#181818;stroke-width:0.5;" width="175" x="1337" y="50"/><text fill="#000000" font-family="sans-serif" font-size="14" lengthAdjust="spacing" textLength="161" x="1344" y="69.9951">EmailVerificationService</text><rect fill="#E2E2F0" height="30.2969" rx="2.5" ry="2.5" style="stroke:#181818;stroke-width:0.5;" width="175" x="1337" y="1037.2813"/><text fill="#000000" font-family="sans-serif" font-size="14" lengthAdjust="spacing" textLength="161" x="1344" y="1057.2764">EmailVerificationService</text><rect fill="#E2E2F0" height="62.8906" rx="2.5" ry="2.5" style="stroke:#181818;stroke-width:0.5;" width="145" x="1693" y="17.4063"/><text fill="#000000" font-family="sans-serif" font-size="14" lengthAdjust="spacing" textLength="127" x="1700" y="37.4014">User Model Object</text><text fill="#000000" font-family="sans-serif" font-size="14" lengthAdjust="spacing" textLength="90" x="1722.5" y="53.6982">(SQLAlchemy</text><text fill="#000000" font-family="sans-serif" font-size="14" lengthAdjust="spacing" textLength="89" x="1723" y="69.9951">to Database)</text><rect fill="#E2E2F0" height="62.8906" rx="2.5" ry="2.5" style="stroke:#181818;stroke-width:0.5;" width="145" x="1693" y="1037.2813"/><text fill="#000000" font-family="sans-serif" font-size="14" lengthAdjust="spacing" textLength="127" x="1700" y="1057.2764">User Model Object</text><text fill="#000000" font-family="sans-serif" font-size="14" lengthAdjust="spacing" textLength="90" x="1722.5" y="1073.5732">(SQLAlchemy</text><text fill="#000000" font-family="sans-serif" font-size="14" lengthAdjust="spacing" textLength="89" x="1723" y="1089.8701">to Database)</text><rect fill="#FFFFFF" height="29.1328" style="stroke:#181818;stroke-width:1.0;" width="10" x="352" y="155.5625"/><rect fill="#FFFFFF" height="29.1328" style="stroke:#181818;stroke-width:1.0;" width="10" x="352" y="296.2266"/><rect fill="#FFFFFF" height="29.1328" style="stroke:#181818;stroke-width:1.0;" width="10" x="352" y="473.0234"/><rect fill="#FFFFFF" height="29.1328" style="stroke:#181818;stroke-width:1.0;" width="10" x="352" y="780.2188"/><rect fill="#FFFFFF" height="29.1328" style="stroke:#181818;stroke-width:1.0;" width="10" x="352" y="991.1484"/><rect fill="#FFFFFF" height="806.4531" style="stroke:#181818;stroke-width:1.0;" width="10" x="714" y="184.6953"/><rect fill="#FFFFFF" height="147.6641" style="stroke:#181818;stroke-width:1.0;" width="10" x="1274" y="390.625"/><rect fill="#FFFFFF" height="147.6641" style="stroke:#181818;stroke-width:1.0;" width="10" x="1419.5" y="213.8281"/><rect fill="#FFFFFF" height="394.5938" style="stroke:#181818;stroke-width:1.0;" width="10" x="1419.5" y="567.4219"/><rect fill="#FFFFFF" height="336.3281" style="stroke:#181818;stroke-width:1.0;" width="10" x="1760.5" y="596.5547"/><rect fill="#FFFFFF" height="28" style="stroke:#181818;stroke-width:1.0;" width="10" x="1765.5" y="633.6875"/><rect fill="#EEEEEE" height="3" style="stroke:#EEEEEE;stroke-width:1.0;" width="2040.5" x="0" y="111.8633"/><line style="stroke:#000000;stroke-width:1.0;" x1="0" x2="2040.5" y1="111.8633" y2="111.8633"/><line style="stroke:#000000;stroke-width:1.0;" x1="0" x2="2040.5" y1="114.8633" y2="114.8633"/><rect fill="#EEEEEE" height="23.1328" style="stroke:#000000;stroke-width:2.0;" width="330" x="855.25" y="101.2969"/><text fill="#000000" font-family="sans-serif" font-size="13" font-weight="bold" lengthAdjust="spacing" textLength="311" x="861.25" y="117.3638">E-Mail Verification (User stories #23, #27)</text><polygon fill="#181818" points="340,151.5625,350,155.5625,340,159.5625,344,155.5625" style="stroke:#181818;stroke-width:1.0;"/><line style="stroke:#181818;stroke-width:1.0;" x1="39" x2="346" y1="155.5625" y2="155.5625"/><text fill="#000000" font-family="sans-serif" font-size="13" lengthAdjust="spacing" textLength="211" x="46" y="150.4966">clicks link (send email and token)</text><polygon fill="#181818" points="702,180.6953,712,184.6953,702,188.6953,706,184.6953" style="stroke:#181818;stroke-width:1.0;"/><line style="stroke:#181818;stroke-width:1.0;" x1="357" x2="708" y1="184.6953" y2="184.6953"/><text fill="#000000" font-family="sans-serif" font-size="13" lengthAdjust="spacing" textLength="333" x="364" y="179.6294">HTTP Request: GET {email, plain_verification_token}</text><polygon fill="#181818" points="1407.5,209.8281,1417.5,213.8281,1407.5,217.8281,1411.5,213.8281" style="stroke:#181818;stroke-width:1.0;"/><line style="stroke:#181818;stroke-width:1.0;" x1="724" x2="1413.5" y1="213.8281" y2="213.8281"/><text fill="#000000" font-family="sans-serif" font-size="13" lengthAdjust="spacing" textLength="183" x="731" y="208.7622">is_email_format_valid(email)</text><path d="M10,228.8281 L74,228.8281 L74,235.9609 L64,245.9609 L10,245.9609 L10,228.8281 " fill="#EEEEEE" style="stroke:#000000;stroke-width:1.5;"/><rect fill="none" height="104.5313" style="stroke:#000000;stroke-width:1.5;" width="1512" x="10" y="228.8281"/><text fill="#000000" font-family="sans-serif" font-size="13" font-weight="bold" lengthAdjust="spacing" textLength="19" x="25" y="241.895">alt</text><text fill="#000000" font-family="sans-serif" font-size="11" font-weight="bold" lengthAdjust="spacing" textLength="151" x="89" y="241.0386">[Email format not valid]</text><polygon fill="#181818" points="735,263.0938,725,267.0938,735,271.0938,731,267.0938" style="stroke:#181818;stroke-width:1.0;"/><line style="stroke:#181818;stroke-width:1.0;stroke-dasharray:2.0,2.0;" x1="729" x2="1418.5" y1="267.0938" y2="267.0938"/><text fill="#000000" font-family="sans-serif" font-size="13" lengthAdjust="spacing" textLength="33" x="741" y="262.0278">False</text><polygon fill="#181818" points="373,292.2266,363,296.2266,373,300.2266,369,296.2266" style="stroke:#181818;stroke-width:1.0;"/><line style="stroke:#181818;stroke-width:1.0;stroke-dasharray:2.0,2.0;" x1="367" x2="713" y1="296.2266" y2="296.2266"/><text fill="#000000" font-family="sans-serif" font-size="13" lengthAdjust="spacing" textLength="200" x="379" y="291.1606">HTTP Response: 404 Not Found</text><polygon fill="#181818" points="50,321.3594,40,325.3594,50,329.3594,46,325.3594" style="stroke:#181818;stroke-width:1.0;"/><line style="stroke:#181818;stroke-width:1.0;stroke-dasharray:2.0,2.0;" x1="44" x2="356" y1="325.3594" y2="325.3594"/><text fill="#000000" font-family="sans-serif" font-size="13" lengthAdjust="spacing" textLength="118" x="56" y="320.2935">Error: link not valid</text><polygon fill="#181818" points="735,357.4922,725,361.4922,735,365.4922,731,361.4922" style="stroke:#181818;stroke-width:1.0;"/><line style="stroke:#181818;stroke-width:1.0;stroke-dasharray:2.0,2.0;" x1="729" x2="1423.5" y1="361.4922" y2="361.4922"/><text fill="#000000" font-family="sans-serif" font-size="13" lengthAdjust="spacing" textLength="28" x="741" y="356.4263">True</text><polygon fill="#181818" points="1262,386.625,1272,390.625,1262,394.625,1266,390.625" style="stroke:#181818;stroke-width:1.0;"/><line style="stroke:#181818;stroke-width:1.0;" x1="724" x2="1268" y1="390.625" y2="390.625"/><text fill="#000000" font-family="sans-serif" font-size="13" lengthAdjust="spacing" textLength="531" x="731" y="385.5591">query_users_by_unverified_mail_and_not_expired_verification(unverified_email: str)</text><path d="M10,405.625 L74,405.625 L74,412.7578 L64,422.7578 L10,422.7578 L10,405.625 " fill="#EEEEEE" style="stroke:#000000;stroke-width:1.5;"/><rect fill="none" height="104.5313" style="stroke:#000000;stroke-width:1.5;" width="1327" x="10" y="405.625"/><text fill="#000000" font-family="sans-serif" font-size="13" font-weight="bold" lengthAdjust="spacing" textLength="19" x="25" y="418.6919">alt</text><text fill="#000000" font-family="sans-serif" font-size="11" font-weight="bold" lengthAdjust="spacing" textLength="271" x="89" y="417.8354">[Unverified Mail does not exist or expired]</text><polygon fill="#181818" points="735,439.8906,725,443.8906,735,447.8906,731,443.8906" style="stroke:#181818;stroke-width:1.0;"/><line style="stroke:#181818;stroke-width:1.0;stroke-dasharray:2.0,2.0;" x1="729" x2="1273" y1="443.8906" y2="443.8906"/><text fill="#000000" font-family="sans-serif" font-size="13" lengthAdjust="spacing" textLength="34" x="741" y="438.8247">None</text><polygon fill="#181818" points="373,469.0234,363,473.0234,373,477.0234,369,473.0234" style="stroke:#181818;stroke-width:1.0;"/><line style="stroke:#181818;stroke-width:1.0;stroke-dasharray:2.0,2.0;" x1="367" x2="713" y1="473.0234" y2="473.0234"/><text fill="#000000" font-family="sans-serif" font-size="13" lengthAdjust="spacing" textLength="200" x="379" y="467.9575">HTTP Response: 404 Not Found</text><polygon fill="#181818" points="50,498.1563,40,502.1563,50,506.1563,46,502.1563" style="stroke:#181818;stroke-width:1.0;"/><line style="stroke:#181818;stroke-width:1.0;stroke-dasharray:2.0,2.0;" x1="44" x2="356" y1="502.1563" y2="502.1563"/><text fill="#000000" font-family="sans-serif" font-size="13" lengthAdjust="spacing" textLength="118" x="56" y="497.0903">Error: link not valid</text><polygon fill="#181818" points="735,534.2891,725,538.2891,735,542.2891,731,538.2891" style="stroke:#181818;stroke-width:1.0;"/><line style="stroke:#181818;stroke-width:1.0;stroke-dasharray:2.0,2.0;" x1="729" x2="1278" y1="538.2891" y2="538.2891"/><text fill="#000000" font-family="sans-serif" font-size="13" lengthAdjust="spacing" textLength="73" x="741" y="533.2231">User object</text><polygon fill="#181818" points="1407.5,563.4219,1417.5,567.4219,1407.5,571.4219,1411.5,567.4219" style="stroke:#181818;stroke-width:1.0;"/><line style="stroke:#181818;stroke-width:1.0;" x1="724" x2="1413.5" y1="567.4219" y2="567.4219"/><text fill="#000000" font-family="sans-serif" font-size="13" lengthAdjust="spacing" textLength="273" x="731" y="562.356">verify_email(User, plain_verification_token)</text><polygon fill="#181818" points="1748.5,592.5547,1758.5,596.5547,1748.5,600.5547,1752.5,596.5547" style="stroke:#181818;stroke-width:1.0;"/><line style="stroke:#181818;stroke-width:1.0;" x1="1429.5" x2="1754.5" y1="596.5547" y2="596.5547"/><text fill="#000000" font-family="sans-serif" font-size="13" lengthAdjust="spacing" textLength="312" x="1436.5" y="591.4888">verify_verification_token(plain_verification_token)</text><line style="stroke:#181818;stroke-width:1.0;" x1="1775.5" x2="1817.5" y1="625.6875" y2="625.6875"/><line style="stroke:#181818;stroke-width:1.0;" x1="1817.5" x2="1817.5" y1="625.6875" y2="638.6875"/><line style="stroke:#181818;stroke-width:1.0;" x1="1776.5" x2="1817.5" y1="638.6875" y2="638.6875"/><polygon fill="#181818" points="1786.5,634.6875,1776.5,638.6875,1786.5,642.6875,1782.5,638.6875" style="stroke:#181818;stroke-width:1.0;"/><text fill="#000000" font-family="sans-serif" font-size="13" lengthAdjust="spacing" textLength="251" x="1782.5" y="620.6216">__hash_secret(plain_verification_token)</text><path d="M10,683.6875 L74,683.6875 L74,690.8203 L64,700.8203 L10,700.8203 L10,683.6875 " fill="#EEEEEE" style="stroke:#000000;stroke-width:1.5;"/><rect fill="none" height="133.6641" style="stroke:#000000;stroke-width:1.5;" width="1838" x="10" y="683.6875"/><text fill="#000000" font-family="sans-serif" font-size="13" font-weight="bold" lengthAdjust="spacing" textLength="19" x="25" y="696.7544">alt</text><text fill="#000000" font-family="sans-serif" font-size="11" font-weight="bold" lengthAdjust="spacing" textLength="226" x="89" y="695.8979">[verification token does not match]</text><polygon fill="#181818" points="1440.5,717.9531,1430.5,721.9531,1440.5,725.9531,1436.5,721.9531" style="stroke:#181818;stroke-width:1.0;"/><line style="stroke:#181818;stroke-width:1.0;stroke-dasharray:2.0,2.0;" x1="1434.5" x2="1759.5" y1="721.9531" y2="721.9531"/><text fill="#000000" font-family="sans-serif" font-size="13" lengthAdjust="spacing" textLength="33" x="1446.5" y="716.8872">False</text><polygon fill="#181818" points="735,747.0859,725,751.0859,735,755.0859,731,751.0859" style="stroke:#181818;stroke-width:1.0;"/><line style="stroke:#181818;stroke-width:1.0;stroke-dasharray:2.0,2.0;" x1="729" x2="1418.5" y1="751.0859" y2="751.0859"/><text fill="#000000" font-family="sans-serif" font-size="13" lengthAdjust="spacing" textLength="33" x="741" y="746.02">False</text><polygon fill="#181818" points="373,776.2188,363,780.2188,373,784.2188,369,780.2188" style="stroke:#181818;stroke-width:1.0;"/><line style="stroke:#181818;stroke-width:1.0;stroke-dasharray:2.0,2.0;" x1="367" x2="713" y1="780.2188" y2="780.2188"/><text fill="#000000" font-family="sans-serif" font-size="13" lengthAdjust="spacing" textLength="200" x="379" y="775.1528">HTTP Response: 404 Not Found</text><polygon fill="#181818" points="50,805.3516,40,809.3516,50,813.3516,46,809.3516" style="stroke:#181818;stroke-width:1.0;"/><line style="stroke:#181818;stroke-width:1.0;stroke-dasharray:2.0,2.0;" x1="44" x2="356" y1="809.3516" y2="809.3516"/><text fill="#000000" font-family="sans-serif" font-size="13" lengthAdjust="spacing" textLength="118" x="56" y="804.2856">Error: link not valid</text><polygon fill="#181818" points="1440.5,841.4844,1430.5,845.4844,1440.5,849.4844,1436.5,845.4844" style="stroke:#181818;stroke-width:1.0;"/><line style="stroke:#181818;stroke-width:1.0;stroke-dasharray:2.0,2.0;" x1="1434.5" x2="1759.5" y1="845.4844" y2="845.4844"/><text fill="#000000" font-family="sans-serif" font-size="13" lengthAdjust="spacing" textLength="28" x="1446.5" y="840.4185">True</text><polygon fill="#181818" points="1748.5,870.6172,1758.5,874.6172,1748.5,878.6172,1752.5,874.6172" style="stroke:#181818;stroke-width:1.0;"/><line style="stroke:#181818;stroke-width:1.0;" x1="1429.5" x2="1754.5" y1="874.6172" y2="874.6172"/><text fill="#000000" font-family="sans-serif" font-size="13" lengthAdjust="spacing" textLength="145" x="1436.5" y="869.5513">is_user_verified = True</text><polygon fill="#181818" points="1748.5,899.75,1758.5,903.75,1748.5,907.75,1752.5,903.75" style="stroke:#181818;stroke-width:1.0;"/><line style="stroke:#181818;stroke-width:1.0;" x1="1429.5" x2="1754.5" y1="903.75" y2="903.75"/><text fill="#000000" font-family="sans-serif" font-size="13" lengthAdjust="spacing" textLength="158" x="1436.5" y="898.6841">email = unverified_email</text><polygon fill="#181818" points="1753.5,928.8828,1763.5,932.8828,1753.5,936.8828,1757.5,932.8828" style="stroke:#181818;stroke-width:1.0;"/><line style="stroke:#181818;stroke-width:1.0;" x1="1429.5" x2="1759.5" y1="932.8828" y2="932.8828"/><text fill="#000000" font-family="sans-serif" font-size="13" lengthAdjust="spacing" textLength="133" x="1436.5" y="927.8169">unverified_email = ""</text><polygon fill="#181818" points="735,958.0156,725,962.0156,735,966.0156,731,962.0156" style="stroke:#181818;stroke-width:1.0;"/><line style="stroke:#181818;stroke-width:1.0;stroke-dasharray:2.0,2.0;" x1="729" x2="1423.5" y1="962.0156" y2="962.0156"/><text fill="#000000" font-family="sans-serif" font-size="13" lengthAdjust="spacing" textLength="28" x="741" y="956.9497">True</text><polygon fill="#181818" points="373,987.1484,363,991.1484,373,995.1484,369,991.1484" style="stroke:#181818;stroke-width:1.0;"/><line style="stroke:#181818;stroke-width:1.0;stroke-dasharray:2.0,2.0;" x1="367" x2="718" y1="991.1484" y2="991.1484"/><text fill="#000000" font-family="sans-serif" font-size="13" lengthAdjust="spacing" textLength="251" x="379" y="986.0825">HTTP Response: 200 OK (Email verified)</text><polygon fill="#181818" points="50,1016.2813,40,1020.2813,50,1024.2813,46,1020.2813" style="stroke:#181818;stroke-width:1.0;"/><line style="stroke:#181818;stroke-width:1.0;stroke-dasharray:2.0,2.0;" x1="44" x2="356" y1="1020.2813" y2="1020.2813"/><text fill="#000000" font-family="sans-serif" font-size="13" lengthAdjust="spacing" textLength="289" x="56" y="1015.2153">Success Message and redirects to login page</text><!--SRC=[pPHHQzim4CVV_IcExCM1XfMkC0ZBe6FE1flRBOxpD12AScsqk98doQ6XxBll92MjtB2jZyr3aAMxl-v-kZikd3Omg2sQ0N0B5sthrrdBZPD2jbmv64oDLWxL2l8PSk66mN9Qz8rURz78wnqOtJdyeI2VDjnku4FJOMkasdijPdqlVrc5PYi5XlEwwfyNjrms2wyi1NTIgzIug8x5eDGhRE1g-HE50nz7zVthHIFMUBkZBwVX8tTyoIt6WEeoooOJA4ObNGJfJP07FKk095fuTVRcXFxU3c4ooVQOOFIUEC0OH2F5na8ZrGPowr6X3nmuhPpUe1fc14vkkKCFZdp8Sp4Zpy_p-JUOuQyEhHl3fs8Ezy7r1Dg6IyMsIKGiIFtELfYAFQo9BKcIS56HiBGi2B5hRMwvOrlUo5KUjf9W225l70JC42r1QGV1EWFwaUIxqIXgJdbZCUnI1dutJS6sMbaSm_dfELoIn5HtAagaqVhl0psl4F0LncWpZlZwj_TJ9R1P6i_ST9ZIe6mYWTgV4bEpOntTPDcI5Ygon1KBNEXj65t6yAwLXZPJqdbY792DgGvCmgsEtEe7CmZriz9KAJu3l9FM0RNMNZr56OAxrEg5a0pX11KTcYO5MbTfISKEZq12S_ozIFibHjx-KSf7ZMEF_1bIrAmaSf1YRCtjcbaK1jqptTFSol24gKVirSTNf6uGwq2FCWYiobuNlBJUIACClP60ftdWMu4z5Epao2JEh0ayBVxKvkaPcGy6Jx3-fqN_mUViz1Ikla0Uvz7Xfc4gG5CkJVk8LzK9WTP2IN_y1iC8fWQa9XJE-ldVw1kfeAMp_Y3z0m00]--></g></svg>