<svg xmlns="http://www.w3.org/2000/svg" xmlns:xlink="http://www.w3.org/1999/xlink" contentStyleType="text/css" data-diagram-type="SEQUENCE" height="1119px" preserveAspectRatio="none" style="width:2110px;height:1119px;background:#FFFFFF;" version="1.1" viewBox="0 0 2110 1119" width="2110px" zoomAndPan="magnify"><defs/><g><g><title>Frontend (React)</title><rect fill="#FFFFFF" height="29.1328" style="stroke:#181818;stroke-width:1;" width="10" x="356.2676" y="155.5625"/></g><g><title>Frontend (React)</title><rect fill="#FFFFFF" height="29.1328" style="stroke:#181818;stroke-width:1;" width="10" x="356.2676" y="296.2266"/></g><g><title>Frontend (React)</title><rect fill="#FFFFFF" height="29.1328" style="stroke:#181818;stroke-width:1;" width="10" x="356.2676" y="473.0234"/></g><g><title>Frontend (React)</title><rect fill="#FFFFFF" height="29.1328" style="stroke:#181818;stroke-width:1;" width="10" x="356.2676" y="780.2188"/></g><g><title>Frontend (React)</title><rect fill="#FFFFFF" height="29.1328" style="stroke:#181818;stroke-width:1;" width="10" x="356.2676" y="991.1484"/></g><g><title>/verify route</title><rect fill="#FFFFFF" height="806.4531" style="stroke:#181818;stroke-width:1;" width="10" x="730.1675" y="184.6953"/></g><g><title>UserService</title><rect fill="#FFFFFF" height="147.6641" style="stroke:#181818;stroke-width:1;" width="10" x="1304.7231" y="390.625"/></g><g><title>EmailVerificationService</title><rect fill="#FFFFFF" height="147.6641" style="stroke:#181818;stroke-width:1;" width="10" x="1455.7144" y="213.8281"/></g><g><title>EmailVerificationService</title><rect fill="#FFFFFF" height="394.5938" style="stroke:#181818;stroke-width:1;" width="10" x="1455.7144" y="567.4219"/></g><g><title>User Model Object </title><rect fill="#FFFFFF" height="336.3281" style="stroke:#181818;stroke-width:1;" width="10" x="1808.7939" y="596.5547"/></g><g><title>User Model Object </title><rect fill="#FFFFFF" height="28" style="stroke:#181818;stroke-width:1;" width="10" x="1813.7939" y="633.6875"/></g><rect fill="#FFFFFF" fill-opacity="0.00000" height="104.5313" style="stroke:#000000;stroke-width:1.5;" width="1552.8799" x="10" y="228.8281"/><rect fill="#FFFFFF" fill-opacity="0.00000" height="104.5313" style="stroke:#000000;stroke-width:1.5;" width="1358.5488" x="10" y="405.625"/><rect fill="#FFFFFF" fill-opacity="0.00000" height="133.6641" style="stroke:#000000;stroke-width:1.5;" width="1887.2393" x="10" y="683.6875"/><g><title>User</title><rect fill="#FFFFFF" fill-opacity="0.00000" height="956.9844" width="8" x="34.9551" y="81.2969"/><line style="stroke:#181818;stroke-width:0.5;stroke-dasharray:5.0,5.0;" x1="38" x2="38" y1="81.2969" y2="1038.2813"/></g><g><title>Frontend (React)</title><rect fill="#FFFFFF" fill-opacity="0.00000" height="956.9844" width="8" x="357.2676" y="81.2969"/><line style="stroke:#181818;stroke-width:0.5;stroke-dasharray:5.0,5.0;" x1="360.9727" x2="360.9727" y1="81.2969" y2="1038.2813"/></g><g><title>/verify route</title><rect fill="#FFFFFF" fill-opacity="0.00000" height="956.9844" width="8" x="731.1675" y="81.2969"/><line style="stroke:#181818;stroke-width:0.5;stroke-dasharray:5.0,5.0;" x1="734.3564" x2="734.3564" y1="81.2969" y2="1038.2813"/></g><g><title>UserService</title><rect fill="#FFFFFF" fill-opacity="0.00000" height="956.9844" width="8" x="1305.7231" y="81.2969"/><line style="stroke:#181818;stroke-width:0.5;stroke-dasharray:5.0,5.0;" x1="1308.8975" x2="1308.8975" y1="81.2969" y2="1038.2813"/></g><g><title>EmailVerificationService</title><rect fill="#FFFFFF" fill-opacity="0.00000" height="956.9844" width="8" x="1456.7144" y="81.2969"/><line style="stroke:#181818;stroke-width:0.5;stroke-dasharray:5.0,5.0;" x1="1460.5488" x2="1460.5488" y1="81.2969" y2="1038.2813"/></g><g><title>User Model Object </title><rect fill="#FFFFFF" fill-opacity="0.00000" height="956.9844" width="8" x="1809.7939" y="81.2969"/><line style="stroke:#181818;stroke-width:0.5;stroke-dasharray:5.0,5.0;" x1="1813.3486" x2="1813.3486" y1="81.2969" y2="1038.2813"/></g><g><text fill="#000000" font-family="sans-serif" font-size="14" lengthAdjust="spacing" textLength="31.9102" x="20" y="77.9951">User</text><ellipse cx="38.9551" cy="13.5" fill="#E2E2F0" rx="8" ry="8" style="stroke:#181818;stroke-width:0.5;"/><path d="M38.9551,21.5 L38.9551,48.5 M25.9551,29.5 L51.9551,29.5 M38.9551,48.5 L25.9551,63.5 M38.9551,48.5 L51.9551,63.5 " fill="#FFFFFF" fill-opacity="0.00000" style="stroke:#181818;stroke-width:0.5;"/></g><g><text fill="#000000" font-family="sans-serif" font-size="14" lengthAdjust="spacing" textLength="31.9102" x="20" y="1050.2764">User</text><ellipse cx="38.9551" cy="1062.0781" fill="#E2E2F0" rx="8" ry="8" style="stroke:#181818;stroke-width:0.5;"/><path d="M38.9551,1070.0781 L38.9551,1097.0781 M25.9551,1078.0781 L51.9551,1078.0781 M38.9551,1097.0781 L25.9551,1112.0781 M38.9551,1097.0781 L51.9551,1112.0781 " fill="#FFFFFF" fill-opacity="0.00000" style="stroke:#181818;stroke-width:0.5;"/></g><g><rect fill="#E2E2F0" height="30.2969" rx="2.5" ry="2.5" style="stroke:#181818;stroke-width:0.5;" width="132.5898" x="294.9727" y="50"/><text fill="#000000" font-family="sans-serif" font-size="14" lengthAdjust="spacing" textLength="118.5898" x="301.9727" y="69.9951">Frontend (React)</text></g><g><rect fill="#E2E2F0" height="30.2969" rx="2.5" ry="2.5" style="stroke:#181818;stroke-width:0.5;" width="132.5898" x="294.9727" y="1037.2813"/><text fill="#000000" font-family="sans-serif" font-size="14" lengthAdjust="spacing" textLength="118.5898" x="301.9727" y="1057.2764">Frontend (React)</text></g><g><rect fill="#E2E2F0" height="46.5938" rx="2.5" ry="2.5" style="stroke:#181818;stroke-width:0.5;" width="133.6221" x="668.3564" y="33.7031"/><text fill="#000000" font-family="sans-serif" font-size="14" lengthAdjust="spacing" textLength="86.2217" x="692.0566" y="53.6982">/verify route</text><text fill="#000000" font-family="sans-serif" font-size="14" lengthAdjust="spacing" textLength="115.1719" x="679.8066" y="69.9951">(Flask Blueprint)</text></g><g><rect fill="#E2E2F0" height="46.5938" rx="2.5" ry="2.5" style="stroke:#181818;stroke-width:0.5;" width="133.6221" x="668.3564" y="1037.2813"/><text fill="#000000" font-family="sans-serif" font-size="14" lengthAdjust="spacing" textLength="86.2217" x="692.0566" y="1057.2764">/verify route</text><text fill="#000000" font-family="sans-serif" font-size="14" lengthAdjust="spacing" textLength="115.1719" x="679.8066" y="1073.5732">(Flask Blueprint)</text></g><g><rect fill="#E2E2F0" height="30.2969" rx="2.5" ry="2.5" style="stroke:#181818;stroke-width:0.5;" width="97.6514" x="1260.8975" y="50"/><text fill="#000000" font-family="sans-serif" font-size="14" lengthAdjust="spacing" textLength="83.6514" x="1267.8975" y="69.9951">UserService</text></g><g><rect fill="#E2E2F0" height="30.2969" rx="2.5" ry="2.5" style="stroke:#181818;stroke-width:0.5;" width="97.6514" x="1260.8975" y="1037.2813"/><text fill="#000000" font-family="sans-serif" font-size="14" lengthAdjust="spacing" textLength="83.6514" x="1267.8975" y="1057.2764">UserService</text></g><g><rect fill="#E2E2F0" height="30.2969" rx="2.5" ry="2.5" style="stroke:#181818;stroke-width:0.5;" width="184.3311" x="1368.5488" y="50"/><text fill="#000000" font-family="sans-serif" font-size="14" lengthAdjust="spacing" textLength="170.3311" x="1375.5488" y="69.9951">EmailVerificationService</text></g><g><rect fill="#E2E2F0" height="30.2969" rx="2.5" ry="2.5" style="stroke:#181818;stroke-width:0.5;" width="184.3311" x="1368.5488" y="1037.2813"/><text fill="#000000" font-family="sans-serif" font-size="14" lengthAdjust="spacing" textLength="170.3311" x="1375.5488" y="1057.2764">EmailVerificationService</text></g><g><rect fill="#E2E2F0" height="62.8906" rx="2.5" ry="2.5" style="stroke:#181818;stroke-width:0.5;" width="146.8906" x="1740.3486" y="17.4063"/><text fill="#000000" font-family="sans-serif" font-size="14" lengthAdjust="spacing" textLength="128.4404" x="1747.3486" y="37.4014">User Model Object</text><text fill="#000000" font-family="sans-serif" font-size="14" lengthAdjust="spacing" textLength="93.7412" x="1769.1484" y="53.6982">(SQLAlchemy</text><text fill="#000000" font-family="sans-serif" font-size="14" lengthAdjust="spacing" textLength="90.7676" x="1770.6353" y="69.9951">to Database)</text></g><g><rect fill="#E2E2F0" height="62.8906" rx="2.5" ry="2.5" style="stroke:#181818;stroke-width:0.5;" width="146.8906" x="1740.3486" y="1037.2813"/><text fill="#000000" font-family="sans-serif" font-size="14" lengthAdjust="spacing" textLength="128.4404" x="1747.3486" y="1057.2764">User Model Object</text><text fill="#000000" font-family="sans-serif" font-size="14" lengthAdjust="spacing" textLength="93.7412" x="1769.1484" y="1073.5732">(SQLAlchemy</text><text fill="#000000" font-family="sans-serif" font-size="14" lengthAdjust="spacing" textLength="90.7676" x="1770.6353" y="1089.8701">to Database)</text></g><g><title>Frontend (React)</title><rect fill="#FFFFFF" height="29.1328" style="stroke:#181818;stroke-width:1;" width="10" x="356.2676" y="155.5625"/></g><g><title>Frontend (React)</title><rect fill="#FFFFFF" height="29.1328" style="stroke:#181818;stroke-width:1;" width="10" x="356.2676" y="296.2266"/></g><g><title>Frontend (React)</title><rect fill="#FFFFFF" height="29.1328" style="stroke:#181818;stroke-width:1;" width="10" x="356.2676" y="473.0234"/></g><g><title>Frontend (React)</title><rect fill="#FFFFFF" height="29.1328" style="stroke:#181818;stroke-width:1;" width="10" x="356.2676" y="780.2188"/></g><g><title>Frontend (React)</title><rect fill="#FFFFFF" height="29.1328" style="stroke:#181818;stroke-width:1;" width="10" x="356.2676" y="991.1484"/></g><g><title>/verify route</title><rect fill="#FFFFFF" height="806.4531" style="stroke:#181818;stroke-width:1;" width="10" x="730.1675" y="184.6953"/></g><g><title>UserService</title><rect fill="#FFFFFF" height="147.6641" style="stroke:#181818;stroke-width:1;" width="10" x="1304.7231" y="390.625"/></g><g><title>EmailVerificationService</title><rect fill="#FFFFFF" height="147.6641" style="stroke:#181818;stroke-width:1;" width="10" x="1455.7144" y="213.8281"/></g><g><title>EmailVerificationService</title><rect fill="#FFFFFF" height="394.5938" style="stroke:#181818;stroke-width:1;" width="10" x="1455.7144" y="567.4219"/></g><g><title>User Model Object </title><rect fill="#FFFFFF" height="336.3281" style="stroke:#181818;stroke-width:1;" width="10" x="1808.7939" y="596.5547"/></g><g><title>User Model Object </title><rect fill="#FFFFFF" height="28" style="stroke:#181818;stroke-width:1;" width="10" x="1813.7939" y="633.6875"/></g><rect fill="#EEEEEE" height="3" style="stroke:#EEEEEE;stroke-width:1;" width="2103.3633" x="0" y="111.8633"/><line style="stroke:#000000;stroke-width:1;" x1="0" x2="2103.3633" y1="111.8633" y2="111.8633"/><line style="stroke:#000000;stroke-width:1;" x1="0" x2="2103.3633" y1="114.8633" y2="114.8633"/><rect fill="#EEEEEE" height="23.1328" style="stroke:#000000;stroke-width:2;" width="329.8594" x="886.752" y="101.2969"/><text fill="#000000" font-family="sans-serif" font-size="13" font-weight="bold" lengthAdjust="spacing" textLength="311.3335" x="892.752" y="117.3638">E-Mail Verification (User stories #23, #27)</text><g><polygon fill="#181818" points="344.2676,151.5625,354.2676,155.5625,344.2676,159.5625,348.2676,155.5625" style="stroke:#181818;stroke-width:1;"/><line style="stroke:#181818;stroke-width:1;" x1="38.9551" x2="350.2676" y1="155.5625" y2="155.5625"/><text fill="#000000" font-family="sans-serif" font-size="13" lengthAdjust="spacing" textLength="218.0039" x="45.9551" y="150.4966">clicks link (send email and token)</text></g><g><polygon fill="#181818" points="718.1675,180.6953,728.1675,184.6953,718.1675,188.6953,722.1675,184.6953" style="stroke:#181818;stroke-width:1;"/><line style="stroke:#181818;stroke-width:1;" x1="361.2676" x2="724.1675" y1="184.6953" y2="184.6953"/><text fill="#000000" font-family="sans-serif" font-size="13" lengthAdjust="spacing" textLength="344.8999" x="368.2676" y="179.6294">HTTP Request: GET {email, plain_verification_token}</text></g><g><polygon fill="#181818" points="1443.7144,209.8281,1453.7144,213.8281,1443.7144,217.8281,1447.7144,213.8281" style="stroke:#181818;stroke-width:1;"/><line style="stroke:#181818;stroke-width:1;" x1="740.1675" x2="1449.7144" y1="213.8281" y2="213.8281"/><text fill="#000000" font-family="sans-serif" font-size="13" lengthAdjust="spacing" textLength="186.4688" x="747.1675" y="208.7622">is_email_format_valid(email)</text></g><path d="M10,228.8281 L74.4429,228.8281 L74.4429,235.9609 L64.4429,245.9609 L10,245.9609 L10,228.8281 " fill="#EEEEEE" style="stroke:#000000;stroke-width:1.5;"/><rect fill="#FFFFFF" fill-opacity="0.00000" height="104.5313" style="stroke:#000000;stroke-width:1.5;" width="1552.8799" x="10" y="228.8281"/><text fill="#000000" font-family="sans-serif" font-size="13" font-weight="bold" lengthAdjust="spacing" textLength="19.4429" x="25" y="241.895">alt</text><text fill="#000000" font-family="sans-serif" font-size="11" font-weight="bold" lengthAdjust="spacing" textLength="148.0488" x="89.4429" y="241.0386">[Email format not valid]</text><g><polygon fill="#181818" points="751.1675,263.0938,741.1675,267.0938,751.1675,271.0938,747.1675,267.0938" style="stroke:#181818;stroke-width:1;"/><line style="stroke:#181818;stroke-width:1;stroke-dasharray:2.0,2.0;" x1="745.1675" x2="1454.7144" y1="267.0938" y2="267.0938"/><text fill="#000000" font-family="sans-serif" font-size="13" lengthAdjust="spacing" textLength="33.8267" x="757.1675" y="262.0278">False</text></g><g><polygon fill="#181818" points="377.2676,292.2266,367.2676,296.2266,377.2676,300.2266,373.2676,296.2266" style="stroke:#181818;stroke-width:1;"/><line style="stroke:#181818;stroke-width:1;stroke-dasharray:2.0,2.0;" x1="371.2676" x2="729.1675" y1="296.2266" y2="296.2266"/><text fill="#000000" font-family="sans-serif" font-size="13" lengthAdjust="spacing" textLength="205.1753" x="383.2676" y="291.1606">HTTP Response: 404 Not Found</text></g><g><polygon fill="#181818" points="49.9551,321.3594,39.9551,325.3594,49.9551,329.3594,45.9551,325.3594" style="stroke:#181818;stroke-width:1;"/><line style="stroke:#181818;stroke-width:1;stroke-dasharray:2.0,2.0;" x1="43.9551" x2="360.2676" y1="325.3594" y2="325.3594"/><text fill="#000000" font-family="sans-serif" font-size="13" lengthAdjust="spacing" textLength="124.395" x="55.9551" y="320.2935">Error: link not valid</text></g><g><polygon fill="#181818" points="751.1675,357.4922,741.1675,361.4922,751.1675,365.4922,747.1675,361.4922" style="stroke:#181818;stroke-width:1;"/><line style="stroke:#181818;stroke-width:1;stroke-dasharray:2.0,2.0;" x1="745.1675" x2="1459.7144" y1="361.4922" y2="361.4922"/><text fill="#000000" font-family="sans-serif" font-size="13" lengthAdjust="spacing" textLength="29.5229" x="757.1675" y="356.4263">True</text></g><g><polygon fill="#181818" points="1292.7231,386.625,1302.7231,390.625,1292.7231,394.625,1296.7231,390.625" style="stroke:#181818;stroke-width:1;"/><line style="stroke:#181818;stroke-width:1;" x1="740.1675" x2="1298.7231" y1="390.625" y2="390.625"/><text fill="#000000" font-family="sans-serif" font-size="13" lengthAdjust="spacing" textLength="545.5557" x="747.1675" y="385.5591">query_users_by_unverified_mail_and_not_expired_verification(unverified_email: str)</text></g><path d="M10,405.625 L74.4429,405.625 L74.4429,412.7578 L64.4429,422.7578 L10,422.7578 L10,405.625 " fill="#EEEEEE" style="stroke:#000000;stroke-width:1.5;"/><rect fill="#FFFFFF" fill-opacity="0.00000" height="104.5313" style="stroke:#000000;stroke-width:1.5;" width="1358.5488" x="10" y="405.625"/><text fill="#000000" font-family="sans-serif" font-size="13" font-weight="bold" lengthAdjust="spacing" textLength="19.4429" x="25" y="418.6919">alt</text><text fill="#000000" font-family="sans-serif" font-size="11" font-weight="bold" lengthAdjust="spacing" textLength="263.5811" x="89.4429" y="417.8354">[Unverified Mail does not exist or expired]</text><g><polygon fill="#181818" points="751.1675,439.8906,741.1675,443.8906,751.1675,447.8906,747.1675,443.8906" style="stroke:#181818;stroke-width:1;"/><line style="stroke:#181818;stroke-width:1;stroke-dasharray:2.0,2.0;" x1="745.1675" x2="1303.7231" y1="443.8906" y2="443.8906"/><text fill="#000000" font-family="sans-serif" font-size="13" lengthAdjust="spacing" textLength="33.9155" x="757.1675" y="438.8247">None</text></g><g><polygon fill="#181818" points="377.2676,469.0234,367.2676,473.0234,377.2676,477.0234,373.2676,473.0234" style="stroke:#181818;stroke-width:1;"/><line style="stroke:#181818;stroke-width:1;stroke-dasharray:2.0,2.0;" x1="371.2676" x2="729.1675" y1="473.0234" y2="473.0234"/><text fill="#000000" font-family="sans-serif" font-size="13" lengthAdjust="spacing" textLength="205.1753" x="383.2676" y="467.9575">HTTP Response: 404 Not Found</text></g><g><polygon fill="#181818" points="49.9551,498.1563,39.9551,502.1563,49.9551,506.1563,45.9551,502.1563" style="stroke:#181818;stroke-width:1;"/><line style="stroke:#181818;stroke-width:1;stroke-dasharray:2.0,2.0;" x1="43.9551" x2="360.2676" y1="502.1563" y2="502.1563"/><text fill="#000000" font-family="sans-serif" font-size="13" lengthAdjust="spacing" textLength="124.395" x="55.9551" y="497.0903">Error: link not valid</text></g><g><polygon fill="#181818" points="751.1675,534.2891,741.1675,538.2891,751.1675,542.2891,747.1675,538.2891" style="stroke:#181818;stroke-width:1;"/><line style="stroke:#181818;stroke-width:1;stroke-dasharray:2.0,2.0;" x1="745.1675" x2="1308.7231" y1="538.2891" y2="538.2891"/><text fill="#000000" font-family="sans-serif" font-size="13" lengthAdjust="spacing" textLength="73.8232" x="757.1675" y="533.2231">User object</text></g><g><polygon fill="#181818" points="1443.7144,563.4219,1453.7144,567.4219,1443.7144,571.4219,1447.7144,567.4219" style="stroke:#181818;stroke-width:1;"/><line style="stroke:#181818;stroke-width:1;" x1="740.1675" x2="1449.7144" y1="567.4219" y2="567.4219"/><text fill="#000000" font-family="sans-serif" font-size="13" lengthAdjust="spacing" textLength="281.6582" x="747.1675" y="562.356">verify_email(User, plain_verification_token)</text></g><g><polygon fill="#181818" points="1796.7939,592.5547,1806.7939,596.5547,1796.7939,600.5547,1800.7939,596.5547" style="stroke:#181818;stroke-width:1;"/><line style="stroke:#181818;stroke-width:1;" x1="1465.7144" x2="1802.7939" y1="596.5547" y2="596.5547"/><text fill="#000000" font-family="sans-serif" font-size="13" lengthAdjust="spacing" textLength="324.0796" x="1472.7144" y="591.4888">verify_verification_token(plain_verification_token)</text></g><g><line style="stroke:#181818;stroke-width:1;" x1="1823.7939" x2="1865.7939" y1="625.6875" y2="625.6875"/><line style="stroke:#181818;stroke-width:1;" x1="1865.7939" x2="1865.7939" y1="625.6875" y2="638.6875"/><line style="stroke:#181818;stroke-width:1;" x1="1824.7939" x2="1865.7939" y1="638.6875" y2="638.6875"/><polygon fill="#181818" points="1834.7939,634.6875,1824.7939,638.6875,1834.7939,642.6875,1830.7939,638.6875" style="stroke:#181818;stroke-width:1;"/><text fill="#000000" font-family="sans-serif" font-size="13" lengthAdjust="spacing" textLength="255.5693" x="1830.7939" y="620.6216">__hash_secret(plain_verification_token)</text></g><path d="M10,683.6875 L74.4429,683.6875 L74.4429,690.8203 L64.4429,700.8203 L10,700.8203 L10,683.6875 " fill="#EEEEEE" style="stroke:#000000;stroke-width:1.5;"/><rect fill="#FFFFFF" fill-opacity="0.00000" height="133.6641" style="stroke:#000000;stroke-width:1.5;" width="1887.2393" x="10" y="683.6875"/><text fill="#000000" font-family="sans-serif" font-size="13" font-weight="bold" lengthAdjust="spacing" textLength="19.4429" x="25" y="696.7544">alt</text><text fill="#000000" font-family="sans-serif" font-size="11" font-weight="bold" lengthAdjust="spacing" textLength="220.1182" x="89.4429" y="695.8979">[verification token does not match]</text><g><polygon fill="#181818" points="1476.7144,717.9531,1466.7144,721.9531,1476.7144,725.9531,1472.7144,721.9531" style="stroke:#181818;stroke-width:1;"/><line style="stroke:#181818;stroke-width:1;stroke-dasharray:2.0,2.0;" x1="1470.7144" x2="1807.7939" y1="721.9531" y2="721.9531"/><text fill="#000000" font-family="sans-serif" font-size="13" lengthAdjust="spacing" textLength="33.8267" x="1482.7144" y="716.8872">False</text></g><g><polygon fill="#181818" points="751.1675,747.0859,741.1675,751.0859,751.1675,755.0859,747.1675,751.0859" style="stroke:#181818;stroke-width:1;"/><line style="stroke:#181818;stroke-width:1;stroke-dasharray:2.0,2.0;" x1="745.1675" x2="1454.7144" y1="751.0859" y2="751.0859"/><text fill="#000000" font-family="sans-serif" font-size="13" lengthAdjust="spacing" textLength="33.8267" x="757.1675" y="746.02">False</text></g><g><polygon fill="#181818" points="377.2676,776.2188,367.2676,780.2188,377.2676,784.2188,373.2676,780.2188" style="stroke:#181818;stroke-width:1;"/><line style="stroke:#181818;stroke-width:1;stroke-dasharray:2.0,2.0;" x1="371.2676" x2="729.1675" y1="780.2188" y2="780.2188"/><text fill="#000000" font-family="sans-serif" font-size="13" lengthAdjust="spacing" textLength="205.1753" x="383.2676" y="775.1528">HTTP Response: 404 Not Found</text></g><g><polygon fill="#181818" points="49.9551,805.3516,39.9551,809.3516,49.9551,813.3516,45.9551,809.3516" style="stroke:#181818;stroke-width:1;"/><line style="stroke:#181818;stroke-width:1;stroke-dasharray:2.0,2.0;" x1="43.9551" x2="360.2676" y1="809.3516" y2="809.3516"/><text fill="#000000" font-family="sans-serif" font-size="13" lengthAdjust="spacing" textLength="124.395" x="55.9551" y="804.2856">Error: link not valid</text></g><g><polygon fill="#181818" points="1476.7144,841.4844,1466.7144,845.4844,1476.7144,849.4844,1472.7144,845.4844" style="stroke:#181818;stroke-width:1;"/><line style="stroke:#181818;stroke-width:1;stroke-dasharray:2.0,2.0;" x1="1470.7144" x2="1807.7939" y1="845.4844" y2="845.4844"/><text fill="#000000" font-family="sans-serif" font-size="13" lengthAdjust="spacing" textLength="29.5229" x="1482.7144" y="840.4185">True</text></g><g><polygon fill="#181818" points="1796.7939,870.6172,1806.7939,874.6172,1796.7939,878.6172,1800.7939,874.6172" style="stroke:#181818;stroke-width:1;"/><line style="stroke:#181818;stroke-width:1;" x1="1465.7144" x2="1802.7939" y1="874.6172" y2="874.6172"/><text fill="#000000" font-family="sans-serif" font-size="13" lengthAdjust="spacing" textLength="149.5063" x="1472.7144" y="869.5513">is_user_verified = True</text></g><g><polygon fill="#181818" points="1796.7939,899.75,1806.7939,903.75,1796.7939,907.75,1800.7939,903.75" style="stroke:#181818;stroke-width:1;"/><line style="stroke:#181818;stroke-width:1;" x1="1465.7144" x2="1802.7939" y1="903.75" y2="903.75"/><text fill="#000000" font-family="sans-serif" font-size="13" lengthAdjust="spacing" textLength="162.9253" x="1472.7144" y="898.6841">email = unverified_email</text></g><g><polygon fill="#181818" points="1801.7939,928.8828,1811.7939,932.8828,1801.7939,936.8828,1805.7939,932.8828" style="stroke:#181818;stroke-width:1;"/><line style="stroke:#181818;stroke-width:1;" x1="1465.7144" x2="1807.7939" y1="932.8828" y2="932.8828"/><text fill="#000000" font-family="sans-serif" font-size="13" lengthAdjust="spacing" textLength="139.0327" x="1472.7144" y="927.8169">unverified_email = ""</text></g><g><polygon fill="#181818" points="751.1675,958.0156,741.1675,962.0156,751.1675,966.0156,747.1675,962.0156" style="stroke:#181818;stroke-width:1;"/><line style="stroke:#181818;stroke-width:1;stroke-dasharray:2.0,2.0;" x1="745.1675" x2="1459.7144" y1="962.0156" y2="962.0156"/><text fill="#000000" font-family="sans-serif" font-size="13" lengthAdjust="spacing" textLength="29.5229" x="757.1675" y="956.9497">True</text></g><g><polygon fill="#181818" points="377.2676,987.1484,367.2676,991.1484,377.2676,995.1484,373.2676,991.1484" style="stroke:#181818;stroke-width:1;"/><line style="stroke:#181818;stroke-width:1;stroke-dasharray:2.0,2.0;" x1="371.2676" x2="734.1675" y1="991.1484" y2="991.1484"/><text fill="#000000" font-family="sans-serif" font-size="13" lengthAdjust="spacing" textLength="260.4253" x="383.2676" y="986.0825">HTTP Response: 200 OK (Email verified)</text></g><g><polygon fill="#181818" points="49.9551,1016.2813,39.9551,1020.2813,49.9551,1024.2813,45.9551,1020.2813" style="stroke:#181818;stroke-width:1;"/><line style="stroke:#181818;stroke-width:1;stroke-dasharray:2.0,2.0;" x1="43.9551" x2="360.2676" y1="1020.2813" y2="1020.2813"/><text fill="#000000" font-family="sans-serif" font-size="13" lengthAdjust="spacing" textLength="293.3125" x="55.9551" y="1015.2153">Success Message and redirects to login page</text></g><!--SRC=[pPHHQzim4CVV_IcExCM1XfMkC0ZBe6FE1flRBOxpD12AScsqk98doQ6XxBll92MjtB2jZyr3aAMxl-v-kZikd3Omg2sQ0N0B5sthrrdBZPD2jbmv64oDLWxL2l8PSk66mN9Qz8rURz78wnqOtJdyeI2VDjnku4FJOMkasdijPdqlVrc5PYi5XlEwwfyNjrms2wyi1NTIgzIug8x5eDGhRE1g-HE50nz7zVthHIFMUBkZBwVX8tTyoIt6WEeoooOJA4ObNGJfJP07FKk095fuTVRcXFxU3c4ooVQOOFIUEC0OH2F5na8ZrGPowr6X3nmuhPpUe1fc14vkkKCFZdp8Sp4Zpy_p-JUOuQyEhHl3fs8Ezy7r1Dg6IyMsIKGiIFtELfYAFQo9BKcIS56HiBGi2B5hRMwvOrlUo5KUjf9W225l70JC42r1QGV1EWFwaUIxqIXgJdbZCUnI1dutJS6sMbaSm_dfELoIn5HtAagaqVhl0psl4F0LncWpZlZwj_TJ9R1P6i_ST9ZIe6mYWTgV4bEpOntTPDcI5Ygon1KBNEXj65t6yAwLXZPJqdbY792DgGvCmgsEtEe7CmZriz9KAJu3l9FM0RNMNZr56OAxrEg5a0pX11KTcYO5MbTfISKEZq12S_ozIFibHjx-KSf7ZMEF_1bIrAmaSf1YRCtjcbaK1jqptTFSol24gKVirSTNf6uGwq2FCWYiobuNlBJUIACClP60ftdWMu4z5Epao2JEh0ayBVxKvkaPcGy6Jx3-fqN_mUViz1Ikla0Uvz7Xfc4gG5CkJVk8LzK9WTP2IN_y1iC8fWQa9XJE-ldVw1kfeAMp_Y3z0m00]--></g></svg>