<?xml version="1.0" encoding="us-ascii" standalone="no"?><svg xmlns="http://www.w3.org/2000/svg" xmlns:xlink="http://www.w3.org/1999/xlink" contentStyleType="text/css" height="1712px" preserveAspectRatio="none" style="width:2477px;height:1712px;background:#FFFFFF;" version="1.1" viewBox="0 0 2477 1712" width="2477px" zoomAndPan="magnify"><defs/><g><rect fill="#FFFFFF" height="29.1328" style="stroke:#181818;stroke-width:1.0;" width="10" x="457" y="155.5625"/><rect fill="#FFFFFF" height="215.7969" style="stroke:#181818;stroke-width:1.0;" width="10" x="457" y="228.9609"/><rect fill="#FFFFFF" height="142.5313" style="stroke:#181818;stroke-width:1.0;" width="10" x="462" y="266.0938"/><rect fill="#FFFFFF" height="29.1328" style="stroke:#181818;stroke-width:1.0;" width="10" x="457" y="556.2891"/><rect fill="#FFFFFF" height="29.1328" style="stroke:#181818;stroke-width:1.0;" width="10" x="457" y="733.0859"/><rect fill="#FFFFFF" height="29.1328" style="stroke:#181818;stroke-width:1.0;" width="10" x="457" y="909.8828"/><rect fill="#FFFFFF" height="29.1328" style="stroke:#181818;stroke-width:1.0;" width="10" x="457" y="1555.0078"/><rect fill="#FFFFFF" height="1110.25" style="stroke:#181818;stroke-width:1.0;" width="10" x="920" y="444.7578"/><rect fill="#FFFFFF" height="147.6641" style="stroke:#181818;stroke-width:1.0;" width="10" x="1401" y="650.6875"/><rect fill="#FFFFFF" height="303.7969" style="stroke:#181818;stroke-width:1.0;" width="10" x="1401" y="1062.5469"/><rect fill="#FFFFFF" height="147.6641" style="stroke:#181818;stroke-width:1.0;" width="10" x="1546.5" y="473.8906"/><rect fill="#FFFFFF" height="29.1328" style="stroke:#181818;stroke-width:1.0;" width="10" x="1546.5" y="1004.2813"/><rect fill="#FFFFFF" height="130.3984" style="stroke:#181818;stroke-width:1.0;" width="10" x="1546.5" y="1395.4766"/><rect fill="#FFFFFF" height="28" style="stroke:#181818;stroke-width:1.0;" width="10" x="1551.5" y="1432.6094"/><rect fill="#FFFFFF" height="147.6641" style="stroke:#181818;stroke-width:1.0;" width="10" x="2000.5" y="827.4844"/><rect fill="#FFFFFF" height="245.5313" style="stroke:#181818;stroke-width:1.0;" width="10" x="2131" y="1091.6797"/><rect fill="#FFFFFF" height="28" style="stroke:#181818;stroke-width:1.0;" width="10" x="2136" y="1128.8125"/><rect fill="#FFFFFF" height="28" style="stroke:#181818;stroke-width:1.0;" width="10" x="2136" y="1200.9453"/><rect fill="#FFFFFF" height="28" style="stroke:#181818;stroke-width:1.0;" width="10" x="2136" y="1273.0781"/><rect fill="#FFFFFF" height="116.5313" style="stroke:#181818;stroke-width:1.0;" width="10" x="2406" y="1496.7422"/><rect fill="none" height="88.3984" style="stroke:#000000;stroke-width:1.5;" width="527.5" x="10" y="286.0938"/><rect fill="none" height="104.5313" style="stroke:#000000;stroke-width:1.5;" width="1639" x="10" y="488.8906"/><rect fill="none" height="104.5313" style="stroke:#000000;stroke-width:1.5;" width="1454" x="10" y="665.6875"/><rect fill="none" height="104.5313" style="stroke:#000000;stroke-width:1.5;" width="2053.5" x="10" y="842.4844"/><line style="stroke:#181818;stroke-width:0.5;stroke-dasharray:5.0,5.0;" x1="39" x2="39" y1="81.2969" y2="1631.2734"/><line style="stroke:#181818;stroke-width:0.5;stroke-dasharray:5.0,5.0;" x1="461.5" x2="461.5" y1="81.2969" y2="1631.2734"/><line style="stroke:#181818;stroke-width:0.5;stroke-dasharray:5.0,5.0;" x1="925" x2="925" y1="81.2969" y2="1631.2734"/><line style="stroke:#181818;stroke-width:0.5;stroke-dasharray:5.0,5.0;" x1="1406" x2="1406" y1="81.2969" y2="1631.2734"/><line style="stroke:#181818;stroke-width:0.5;stroke-dasharray:5.0,5.0;" x1="1551" x2="1551" y1="81.2969" y2="1631.2734"/><line style="stroke:#181818;stroke-width:0.5;stroke-dasharray:5.0,5.0;" x1="2005.5" x2="2005.5" y1="81.2969" y2="1631.2734"/><line style="stroke:#181818;stroke-width:0.5;stroke-dasharray:5.0,5.0;" x1="2135.5" x2="2135.5" y1="81.2969" y2="1631.2734"/><line style="stroke:#181818;stroke-width:0.5;stroke-dasharray:5.0,5.0;" x1="2411" x2="2411" y1="81.2969" y2="1631.2734"/><text fill="#000000" font-family="sans-serif" font-size="14" lengthAdjust="spacing" textLength="32" x="20" y="77.9951">User</text><ellipse cx="39" cy="13.5" fill="#E2E2F0" rx="8" ry="8" style="stroke:#181818;stroke-width:0.5;"/><path d="M39,21.5 L39,48.5 M26,29.5 L52,29.5 M39,48.5 L26,63.5 M39,48.5 L52,63.5 " fill="none" style="stroke:#181818;stroke-width:0.5;"/><text fill="#000000" font-family="sans-serif" font-size="14" lengthAdjust="spacing" textLength="32" x="20" y="1643.2686">User</text><ellipse cx="39" cy="1655.0703" fill="#E2E2F0" rx="8" ry="8" style="stroke:#181818;stroke-width:0.5;"/><path d="M39,1663.0703 L39,1690.0703 M26,1671.0703 L52,1671.0703 M39,1690.0703 L26,1705.0703 M39,1690.0703 L52,1705.0703 " fill="none" style="stroke:#181818;stroke-width:0.5;"/><rect fill="#E2E2F0" height="30.2969" rx="2.5" ry="2.5" style="stroke:#181818;stroke-width:0.5;" width="131" x="396.5" y="50"/><text fill="#000000" font-family="sans-serif" font-size="14" lengthAdjust="spacing" textLength="117" x="403.5" y="69.9951">Frontend (React)</text><rect fill="#E2E2F0" height="30.2969" rx="2.5" ry="2.5" style="stroke:#181818;stroke-width:0.5;" width="131" x="396.5" y="1630.2734"/><text fill="#000000" font-family="sans-serif" font-size="14" lengthAdjust="spacing" textLength="117" x="403.5" y="1650.2686">Frontend (React)</text><rect fill="#E2E2F0" height="46.5938" rx="2.5" ry="2.5" style="stroke:#181818;stroke-width:0.5;" width="194" x="828" y="33.7031"/><text fill="#000000" font-family="sans-serif" font-size="14" lengthAdjust="spacing" textLength="180" x="835" y="53.6982">/api/v1/auth/sign-up route</text><text fill="#000000" font-family="sans-serif" font-size="14" lengthAdjust="spacing" textLength="111" x="871.5" y="69.9951">(Flask Blueprint)</text><rect fill="#E2E2F0" height="46.5938" rx="2.5" ry="2.5" style="stroke:#181818;stroke-width:0.5;" width="194" x="828" y="1630.2734"/><text fill="#000000" font-family="sans-serif" font-size="14" lengthAdjust="spacing" textLength="180" x="835" y="1650.2686">/api/v1/auth/sign-up route</text><text fill="#000000" font-family="sans-serif" font-size="14" lengthAdjust="spacing" textLength="111" x="871.5" y="1666.5654">(Flask Blueprint)</text><rect fill="#E2E2F0" height="30.2969" rx="2.5" ry="2.5" style="stroke:#181818;stroke-width:0.5;" width="96" x="1358" y="50"/><text fill="#000000" font-family="sans-serif" font-size="14" lengthAdjust="spacing" textLength="82" x="1365" y="69.9951">UserService</text><rect fill="#E2E2F0" height="30.2969" rx="2.5" ry="2.5" style="stroke:#181818;stroke-width:0.5;" width="96" x="1358" y="1630.2734"/><text fill="#000000" font-family="sans-serif" font-size="14" lengthAdjust="spacing" textLength="82" x="1365" y="1650.2686">UserService</text><rect fill="#E2E2F0" height="30.2969" rx="2.5" ry="2.5" style="stroke:#181818;stroke-width:0.5;" width="175" x="1464" y="50"/><text fill="#000000" font-family="sans-serif" font-size="14" lengthAdjust="spacing" textLength="161" x="1471" y="69.9951">EmailVerificationService</text><rect fill="#E2E2F0" height="30.2969" rx="2.5" ry="2.5" style="stroke:#181818;stroke-width:0.5;" width="175" x="1464" y="1630.2734"/><text fill="#000000" font-family="sans-serif" font-size="14" lengthAdjust="spacing" textLength="161" x="1471" y="1650.2686">EmailVerificationService</text><rect fill="#E2E2F0" height="30.2969" rx="2.5" ry="2.5" style="stroke:#181818;stroke-width:0.5;" width="96" x="1957.5" y="50"/><text fill="#000000" font-family="sans-serif" font-size="14" lengthAdjust="spacing" textLength="82" x="1964.5" y="69.9951">AuthService</text><rect fill="#E2E2F0" height="30.2969" rx="2.5" ry="2.5" style="stroke:#181818;stroke-width:0.5;" width="96" x="1957.5" y="1630.2734"/><text fill="#000000" font-family="sans-serif" font-size="14" lengthAdjust="spacing" textLength="82" x="1964.5" y="1650.2686">AuthService</text><rect fill="#E2E2F0" height="62.8906" rx="2.5" ry="2.5" style="stroke:#181818;stroke-width:0.5;" width="145" x="2063.5" y="17.4063"/><text fill="#000000" font-family="sans-serif" font-size="14" lengthAdjust="spacing" textLength="127" x="2070.5" y="37.4014">User Model Object</text><text fill="#000000" font-family="sans-serif" font-size="14" lengthAdjust="spacing" textLength="90" x="2093" y="53.6982">(SQLAlchemy</text><text fill="#000000" font-family="sans-serif" font-size="14" lengthAdjust="spacing" textLength="89" x="2093.5" y="69.9951">to Database)</text><rect fill="#E2E2F0" height="62.8906" rx="2.5" ry="2.5" style="stroke:#181818;stroke-width:0.5;" width="145" x="2063.5" y="1630.2734"/><text fill="#000000" font-family="sans-serif" font-size="14" lengthAdjust="spacing" textLength="127" x="2070.5" y="1650.2686">User Model Object</text><text fill="#000000" font-family="sans-serif" font-size="14" lengthAdjust="spacing" textLength="90" x="2093" y="1666.5654">(SQLAlchemy</text><text fill="#000000" font-family="sans-serif" font-size="14" lengthAdjust="spacing" textLength="89" x="2093.5" y="1682.8623">to Database)</text><rect fill="#E2E2F0" height="46.5938" rx="2.5" ry="2.5" style="stroke:#181818;stroke-width:0.5;" width="108" x="2357" y="33.7031"/><text fill="#000000" font-family="sans-serif" font-size="14" lengthAdjust="spacing" textLength="55" x="2381.5" y="53.6982">External</text><text fill="#000000" font-family="sans-serif" font-size="14" lengthAdjust="spacing" textLength="90" x="2368" y="69.9951">Email Service</text><rect fill="#E2E2F0" height="46.5938" rx="2.5" ry="2.5" style="stroke:#181818;stroke-width:0.5;" width="108" x="2357" y="1630.2734"/><text fill="#000000" font-family="sans-serif" font-size="14" lengthAdjust="spacing" textLength="55" x="2381.5" y="1650.2686">External</text><text fill="#000000" font-family="sans-serif" font-size="14" lengthAdjust="spacing" textLength="90" x="2368" y="1666.5654">Email Service</text><rect fill="#FFFFFF" height="29.1328" style="stroke:#181818;stroke-width:1.0;" width="10" x="457" y="155.5625"/><rect fill="#FFFFFF" height="215.7969" style="stroke:#181818;stroke-width:1.0;" width="10" x="457" y="228.9609"/><rect fill="#FFFFFF" height="142.5313" style="stroke:#181818;stroke-width:1.0;" width="10" x="462" y="266.0938"/><rect fill="#FFFFFF" height="29.1328" style="stroke:#181818;stroke-width:1.0;" width="10" x="457" y="556.2891"/><rect fill="#FFFFFF" height="29.1328" style="stroke:#181818;stroke-width:1.0;" width="10" x="457" y="733.0859"/><rect fill="#FFFFFF" height="29.1328" style="stroke:#181818;stroke-width:1.0;" width="10" x="457" y="909.8828"/><rect fill="#FFFFFF" height="29.1328" style="stroke:#181818;stroke-width:1.0;" width="10" x="457" y="1555.0078"/><rect fill="#FFFFFF" height="1110.25" style="stroke:#181818;stroke-width:1.0;" width="10" x="920" y="444.7578"/><rect fill="#FFFFFF" height="147.6641" style="stroke:#181818;stroke-width:1.0;" width="10" x="1401" y="650.6875"/><rect fill="#FFFFFF" height="303.7969" style="stroke:#181818;stroke-width:1.0;" width="10" x="1401" y="1062.5469"/><rect fill="#FFFFFF" height="147.6641" style="stroke:#181818;stroke-width:1.0;" width="10" x="1546.5" y="473.8906"/><rect fill="#FFFFFF" height="29.1328" style="stroke:#181818;stroke-width:1.0;" width="10" x="1546.5" y="1004.2813"/><rect fill="#FFFFFF" height="130.3984" style="stroke:#181818;stroke-width:1.0;" width="10" x="1546.5" y="1395.4766"/><rect fill="#FFFFFF" height="28" style="stroke:#181818;stroke-width:1.0;" width="10" x="1551.5" y="1432.6094"/><rect fill="#FFFFFF" height="147.6641" style="stroke:#181818;stroke-width:1.0;" width="10" x="2000.5" y="827.4844"/><rect fill="#FFFFFF" height="245.5313" style="stroke:#181818;stroke-width:1.0;" width="10" x="2131" y="1091.6797"/><rect fill="#FFFFFF" height="28" style="stroke:#181818;stroke-width:1.0;" width="10" x="2136" y="1128.8125"/><rect fill="#FFFFFF" height="28" style="stroke:#181818;stroke-width:1.0;" width="10" x="2136" y="1200.9453"/><rect fill="#FFFFFF" height="28" style="stroke:#181818;stroke-width:1.0;" width="10" x="2136" y="1273.0781"/><rect fill="#FFFFFF" height="116.5313" style="stroke:#181818;stroke-width:1.0;" width="10" x="2406" y="1496.7422"/><rect fill="#EEEEEE" height="3" style="stroke:#EEEEEE;stroke-width:1.0;" width="2470" x="0" y="111.8633"/><line style="stroke:#000000;stroke-width:1.0;" x1="0" x2="2470" y1="111.8633" y2="111.8633"/><line style="stroke:#000000;stroke-width:1.0;" x1="0" x2="2470" y1="114.8633" y2="114.8633"/><rect fill="#EEEEEE" height="23.1328" style="stroke:#000000;stroke-width:2.0;" width="264" x="1103" y="101.2969"/><text fill="#000000" font-family="sans-serif" font-size="13" font-weight="bold" lengthAdjust="spacing" textLength="245" x="1109" y="117.3638">Sign up Process (User story #23)</text><polygon fill="#181818" points="445,151.5625,455,155.5625,445,159.5625,449,155.5625" style="stroke:#181818;stroke-width:1.0;"/><line style="stroke:#181818;stroke-width:1.0;" x1="39" x2="451" y1="155.5625" y2="155.5625"/><text fill="#000000" font-family="sans-serif" font-size="13" lengthAdjust="spacing" textLength="165" x="46" y="150.4966">Navigates to sign up form</text><polygon fill="#181818" points="50,180.6953,40,184.6953,50,188.6953,46,184.6953" style="stroke:#181818;stroke-width:1.0;"/><line style="stroke:#181818;stroke-width:1.0;stroke-dasharray:2.0,2.0;" x1="44" x2="461" y1="184.6953" y2="184.6953"/><text fill="#000000" font-family="sans-serif" font-size="13" lengthAdjust="spacing" textLength="82" x="56" y="179.6294">Sign up form</text><polygon fill="#181818" points="445,224.9609,455,228.9609,445,232.9609,449,228.9609" style="stroke:#181818;stroke-width:1.0;"/><line style="stroke:#181818;stroke-width:1.0;" x1="39" x2="451" y1="228.9609" y2="228.9609"/><text fill="#000000" font-family="sans-serif" font-size="13" lengthAdjust="spacing" textLength="107" x="46" y="208.7622">Fills sign up form</text><text fill="#000000" font-family="sans-serif" font-size="13" lengthAdjust="spacing" textLength="399" x="46" y="223.895">{email, plain_password, plain_password_confirm} and submits</text><line style="stroke:#181818;stroke-width:1.0;" x1="467" x2="514" y1="253.0938" y2="253.0938"/><line style="stroke:#181818;stroke-width:1.0;" x1="514" x2="514" y1="253.0938" y2="266.0938"/><line style="stroke:#181818;stroke-width:1.0;" x1="473" x2="514" y1="266.0938" y2="266.0938"/><polygon fill="#181818" points="483,262.0938,473,266.0938,483,270.0938,479,266.0938" style="stroke:#181818;stroke-width:1.0;"/><text fill="#000000" font-family="sans-serif" font-size="13" lengthAdjust="spacing" textLength="423" x="479" y="248.0278">verify_passwords_match(plain_password, plain_password_confirm)</text><path d="M10,286.0938 L74,286.0938 L74,293.2266 L64,303.2266 L10,303.2266 L10,286.0938 " fill="#EEEEEE" style="stroke:#000000;stroke-width:1.5;"/><rect fill="none" height="88.3984" style="stroke:#000000;stroke-width:1.5;" width="527.5" x="10" y="286.0938"/><text fill="#000000" font-family="sans-serif" font-size="13" font-weight="bold" lengthAdjust="spacing" textLength="19" x="25" y="299.1606">alt</text><text fill="#000000" font-family="sans-serif" font-size="11" font-weight="bold" lengthAdjust="spacing" textLength="167" x="89" y="298.3042">[Passwords do not match]</text><line style="stroke:#181818;stroke-width:1.0;stroke-dasharray:2.0,2.0;" x1="430" x2="472" y1="324.3594" y2="324.3594"/><line style="stroke:#181818;stroke-width:1.0;stroke-dasharray:2.0,2.0;" x1="430" x2="430" y1="324.3594" y2="337.3594"/><line style="stroke:#181818;stroke-width:1.0;stroke-dasharray:2.0,2.0;" x1="430" x2="471" y1="337.3594" y2="337.3594"/><polygon fill="#181818" points="463,333.3594,473,337.3594,463,341.3594,467,337.3594" style="stroke:#181818;stroke-width:1.0;"/><text fill="#000000" font-family="sans-serif" font-size="13" lengthAdjust="spacing" textLength="33" x="439" y="319.2935">False</text><polygon fill="#181818" points="50,362.4922,40,366.4922,50,370.4922,46,366.4922" style="stroke:#181818;stroke-width:1.0;"/><line style="stroke:#181818;stroke-width:1.0;stroke-dasharray:2.0,2.0;" x1="44" x2="461" y1="366.4922" y2="366.4922"/><text fill="#000000" font-family="sans-serif" font-size="13" lengthAdjust="spacing" textLength="260" x="56" y="361.4263">Error: Passwords do not match, try again</text><line style="stroke:#181818;stroke-width:1.0;stroke-dasharray:2.0,2.0;" x1="430" x2="472" y1="407.625" y2="407.625"/><line style="stroke:#181818;stroke-width:1.0;stroke-dasharray:2.0,2.0;" x1="430" x2="430" y1="407.625" y2="420.625"/><line style="stroke:#181818;stroke-width:1.0;stroke-dasharray:2.0,2.0;" x1="430" x2="477" y1="420.625" y2="420.625"/><polygon fill="#181818" points="457,416.625,467,420.625,457,424.625,461,420.625" style="stroke:#181818;stroke-width:1.0;"/><text fill="#000000" font-family="sans-serif" font-size="13" lengthAdjust="spacing" textLength="28" x="444" y="402.5591">True</text><polygon fill="#181818" points="908,440.7578,918,444.7578,908,448.7578,912,444.7578" style="stroke:#181818;stroke-width:1.0;"/><line style="stroke:#181818;stroke-width:1.0;" x1="462" x2="914" y1="444.7578" y2="444.7578"/><text fill="#000000" font-family="sans-serif" font-size="13" lengthAdjust="spacing" textLength="290" x="469" y="439.6919">HTTP Request: POST {email, plain_password}</text><polygon fill="#181818" points="1534.5,469.8906,1544.5,473.8906,1534.5,477.8906,1538.5,473.8906" style="stroke:#181818;stroke-width:1.0;"/><line style="stroke:#181818;stroke-width:1.0;" x1="930" x2="1540.5" y1="473.8906" y2="473.8906"/><text fill="#000000" font-family="sans-serif" font-size="13" lengthAdjust="spacing" textLength="183" x="937" y="468.8247">is_email_format_valid(email)</text><path d="M10,488.8906 L74,488.8906 L74,496.0234 L64,506.0234 L10,506.0234 L10,488.8906 " fill="#EEEEEE" style="stroke:#000000;stroke-width:1.5;"/><rect fill="none" height="104.5313" style="stroke:#000000;stroke-width:1.5;" width="1639" x="10" y="488.8906"/><text fill="#000000" font-family="sans-serif" font-size="13" font-weight="bold" lengthAdjust="spacing" textLength="19" x="25" y="501.9575">alt</text><text fill="#000000" font-family="sans-serif" font-size="11" font-weight="bold" lengthAdjust="spacing" textLength="151" x="89" y="501.1011">[Email format not valid]</text><polygon fill="#181818" points="941,523.1563,931,527.1563,941,531.1563,937,527.1563" style="stroke:#181818;stroke-width:1.0;"/><line style="stroke:#181818;stroke-width:1.0;stroke-dasharray:2.0,2.0;" x1="935" x2="1545.5" y1="527.1563" y2="527.1563"/><text fill="#000000" font-family="sans-serif" font-size="13" lengthAdjust="spacing" textLength="33" x="947" y="522.0903">False</text><polygon fill="#181818" points="478,552.2891,468,556.2891,478,560.2891,474,556.2891" style="stroke:#181818;stroke-width:1.0;"/><line style="stroke:#181818;stroke-width:1.0;stroke-dasharray:2.0,2.0;" x1="472" x2="919" y1="556.2891" y2="556.2891"/><text fill="#000000" font-family="sans-serif" font-size="13" lengthAdjust="spacing" textLength="369" x="484" y="551.2231">HTTP Response: 400 Bad Request (Email format not valid)</text><polygon fill="#181818" points="50,581.4219,40,585.4219,50,589.4219,46,585.4219" style="stroke:#181818;stroke-width:1.0;"/><line style="stroke:#181818;stroke-width:1.0;stroke-dasharray:2.0,2.0;" x1="44" x2="461" y1="585.4219" y2="585.4219"/><text fill="#000000" font-family="sans-serif" font-size="13" lengthAdjust="spacing" textLength="243" x="56" y="580.356">Error: Email format not valid, try again</text><polygon fill="#181818" points="941,617.5547,931,621.5547,941,625.5547,937,621.5547" style="stroke:#181818;stroke-width:1.0;"/><line style="stroke:#181818;stroke-width:1.0;stroke-dasharray:2.0,2.0;" x1="935" x2="1550.5" y1="621.5547" y2="621.5547"/><text fill="#000000" font-family="sans-serif" font-size="13" lengthAdjust="spacing" textLength="28" x="947" y="616.4888">True</text><polygon fill="#181818" points="1389,646.6875,1399,650.6875,1389,654.6875,1393,650.6875" style="stroke:#181818;stroke-width:1.0;"/><line style="stroke:#181818;stroke-width:1.0;" x1="930" x2="1395" y1="650.6875" y2="650.6875"/><text fill="#000000" font-family="sans-serif" font-size="13" lengthAdjust="spacing" textLength="179" x="937" y="645.6216">query_users_by_mail(email)</text><path d="M10,665.6875 L74,665.6875 L74,672.8203 L64,682.8203 L10,682.8203 L10,665.6875 " fill="#EEEEEE" style="stroke:#000000;stroke-width:1.5;"/><rect fill="none" height="104.5313" style="stroke:#000000;stroke-width:1.5;" width="1454" x="10" y="665.6875"/><text fill="#000000" font-family="sans-serif" font-size="13" font-weight="bold" lengthAdjust="spacing" textLength="19" x="25" y="678.7544">alt</text><text fill="#000000" font-family="sans-serif" font-size="11" font-weight="bold" lengthAdjust="spacing" textLength="155" x="89" y="677.8979">[Account already exists]</text><polygon fill="#181818" points="941,699.9531,931,703.9531,941,707.9531,937,703.9531" style="stroke:#181818;stroke-width:1.0;"/><line style="stroke:#181818;stroke-width:1.0;stroke-dasharray:2.0,2.0;" x1="935" x2="1400" y1="703.9531" y2="703.9531"/><text fill="#000000" font-family="sans-serif" font-size="13" lengthAdjust="spacing" textLength="83" x="947" y="698.8872">User (object)</text><polygon fill="#181818" points="478,729.0859,468,733.0859,478,737.0859,474,733.0859" style="stroke:#181818;stroke-width:1.0;"/><line style="stroke:#181818;stroke-width:1.0;stroke-dasharray:2.0,2.0;" x1="472" x2="919" y1="733.0859" y2="733.0859"/><text fill="#000000" font-family="sans-serif" font-size="13" lengthAdjust="spacing" textLength="266" x="484" y="728.02">HTTP Response: 409 Conflict (User exists)</text><polygon fill="#181818" points="50,758.2188,40,762.2188,50,766.2188,46,762.2188" style="stroke:#181818;stroke-width:1.0;"/><line style="stroke:#181818;stroke-width:1.0;stroke-dasharray:2.0,2.0;" x1="44" x2="461" y1="762.2188" y2="762.2188"/><text fill="#000000" font-family="sans-serif" font-size="13" lengthAdjust="spacing" textLength="333" x="56" y="757.1528">Error: account already exists, redirects to login page</text><polygon fill="#181818" points="941,794.3516,931,798.3516,941,802.3516,937,798.3516" style="stroke:#181818;stroke-width:1.0;"/><line style="stroke:#181818;stroke-width:1.0;stroke-dasharray:2.0,2.0;" x1="935" x2="1405" y1="798.3516" y2="798.3516"/><text fill="#000000" font-family="sans-serif" font-size="13" lengthAdjust="spacing" textLength="34" x="947" y="793.2856">None</text><polygon fill="#181818" points="1988.5,823.4844,1998.5,827.4844,1988.5,831.4844,1992.5,827.4844" style="stroke:#181818;stroke-width:1.0;"/><line style="stroke:#181818;stroke-width:1.0;" x1="930" x2="1994.5" y1="827.4844" y2="827.4844"/><text fill="#000000" font-family="sans-serif" font-size="13" lengthAdjust="spacing" textLength="333" x="937" y="822.4185">does_password_fulfill_requirements(plain_password)</text><path d="M10,842.4844 L74,842.4844 L74,849.6172 L64,859.6172 L10,859.6172 L10,842.4844 " fill="#EEEEEE" style="stroke:#000000;stroke-width:1.5;"/><rect fill="none" height="104.5313" style="stroke:#000000;stroke-width:1.5;" width="2053.5" x="10" y="842.4844"/><text fill="#000000" font-family="sans-serif" font-size="13" font-weight="bold" lengthAdjust="spacing" textLength="19" x="25" y="855.5513">alt</text><text fill="#000000" font-family="sans-serif" font-size="11" font-weight="bold" lengthAdjust="spacing" textLength="259" x="89" y="854.6948">[Password does not fulfill requirements]</text><polygon fill="#181818" points="941,876.75,931,880.75,941,884.75,937,880.75" style="stroke:#181818;stroke-width:1.0;"/><line style="stroke:#181818;stroke-width:1.0;stroke-dasharray:2.0,2.0;" x1="935" x2="1999.5" y1="880.75" y2="880.75"/><text fill="#000000" font-family="sans-serif" font-size="13" lengthAdjust="spacing" textLength="33" x="947" y="875.6841">False</text><polygon fill="#181818" points="478,905.8828,468,909.8828,478,913.8828,474,909.8828" style="stroke:#181818;stroke-width:1.0;"/><line style="stroke:#181818;stroke-width:1.0;stroke-dasharray:2.0,2.0;" x1="472" x2="919" y1="909.8828" y2="909.8828"/><text fill="#000000" font-family="sans-serif" font-size="13" lengthAdjust="spacing" textLength="434" x="484" y="904.8169">HTTP Response: 400 Bad Request (Password requirements not met)</text><polygon fill="#181818" points="50,935.0156,40,939.0156,50,943.0156,46,939.0156" style="stroke:#181818;stroke-width:1.0;"/><line style="stroke:#181818;stroke-width:1.0;stroke-dasharray:2.0,2.0;" x1="44" x2="461" y1="939.0156" y2="939.0156"/><text fill="#000000" font-family="sans-serif" font-size="13" lengthAdjust="spacing" textLength="308" x="56" y="933.9497">Error: Password requirements not met, try again</text><polygon fill="#181818" points="941,971.1484,931,975.1484,941,979.1484,937,975.1484" style="stroke:#181818;stroke-width:1.0;"/><line style="stroke:#181818;stroke-width:1.0;stroke-dasharray:2.0,2.0;" x1="935" x2="2004.5" y1="975.1484" y2="975.1484"/><text fill="#000000" font-family="sans-serif" font-size="13" lengthAdjust="spacing" textLength="28" x="947" y="970.0825">True</text><polygon fill="#181818" points="1534.5,1000.2813,1544.5,1004.2813,1534.5,1008.2813,1538.5,1004.2813" style="stroke:#181818;stroke-width:1.0;"/><line style="stroke:#181818;stroke-width:1.0;" x1="930" x2="1540.5" y1="1004.2813" y2="1004.2813"/><text fill="#000000" font-family="sans-serif" font-size="13" lengthAdjust="spacing" textLength="170" x="937" y="999.2153">create_verification_token()</text><polygon fill="#181818" points="941,1029.4141,931,1033.4141,941,1037.4141,937,1033.4141" style="stroke:#181818;stroke-width:1.0;"/><line style="stroke:#181818;stroke-width:1.0;stroke-dasharray:2.0,2.0;" x1="935" x2="1550.5" y1="1033.4141" y2="1033.4141"/><text fill="#000000" font-family="sans-serif" font-size="13" lengthAdjust="spacing" textLength="112" x="947" y="1028.3481">verification_token</text><polygon fill="#181818" points="1389,1058.5469,1399,1062.5469,1389,1066.5469,1393,1062.5469" style="stroke:#181818;stroke-width:1.0;"/><line style="stroke:#181818;stroke-width:1.0;" x1="930" x2="1395" y1="1062.5469" y2="1062.5469"/><text fill="#000000" font-family="sans-serif" font-size="13" lengthAdjust="spacing" textLength="452" x="937" y="1057.481">create_user(unverified_email, plain_password, plain_verification_token)</text><polygon fill="#181818" points="2119,1087.6797,2129,1091.6797,2119,1095.6797,2123,1091.6797" style="stroke:#181818;stroke-width:1.0;"/><line style="stroke:#181818;stroke-width:1.0;" x1="1411" x2="2125" y1="1091.6797" y2="1091.6797"/><text fill="#000000" font-family="sans-serif" font-size="13" lengthAdjust="spacing" textLength="401" x="1418" y="1086.6138">new(unverified_email, plain_password, plain_verification_token)</text><line style="stroke:#181818;stroke-width:1.0;" x1="2146" x2="2188" y1="1120.8125" y2="1120.8125"/><line style="stroke:#181818;stroke-width:1.0;" x1="2188" x2="2188" y1="1120.8125" y2="1133.8125"/><line style="stroke:#181818;stroke-width:1.0;" x1="2147" x2="2188" y1="1133.8125" y2="1133.8125"/><polygon fill="#181818" points="2157,1129.8125,2147,1133.8125,2157,1137.8125,2153,1133.8125" style="stroke:#181818;stroke-width:1.0;"/><text fill="#000000" font-family="sans-serif" font-size="13" lengthAdjust="spacing" textLength="162" x="2153" y="1115.7466">__hash_secret(password)</text><line style="stroke:#181818;stroke-width:1.0;" x1="2146" x2="2188" y1="1192.9453" y2="1192.9453"/><line style="stroke:#181818;stroke-width:1.0;" x1="2188" x2="2188" y1="1192.9453" y2="1205.9453"/><line style="stroke:#181818;stroke-width:1.0;" x1="2147" x2="2188" y1="1205.9453" y2="1205.9453"/><polygon fill="#181818" points="2157,1201.9453,2147,1205.9453,2157,1209.9453,2153,1205.9453" style="stroke:#181818;stroke-width:1.0;"/><text fill="#000000" font-family="sans-serif" font-size="13" lengthAdjust="spacing" textLength="251" x="2153" y="1187.8794">__hash_secret(plain_verification_token)</text><line style="stroke:#181818;stroke-width:1.0;" x1="2146" x2="2188" y1="1265.0781" y2="1265.0781"/><line style="stroke:#181818;stroke-width:1.0;" x1="2188" x2="2188" y1="1265.0781" y2="1278.0781"/><line style="stroke:#181818;stroke-width:1.0;" x1="2147" x2="2188" y1="1278.0781" y2="1278.0781"/><polygon fill="#181818" points="2157,1274.0781,2147,1278.0781,2157,1282.0781,2153,1278.0781" style="stroke:#181818;stroke-width:1.0;"/><text fill="#000000" font-family="sans-serif" font-size="13" lengthAdjust="spacing" textLength="216" x="2153" y="1260.0122">verification_exp_at = (now + 48h)</text><polygon fill="#181818" points="1422,1333.2109,1412,1337.2109,1422,1341.2109,1418,1337.2109" style="stroke:#181818;stroke-width:1.0;"/><line style="stroke:#181818;stroke-width:1.0;stroke-dasharray:2.0,2.0;" x1="1416" x2="2135" y1="1337.2109" y2="1337.2109"/><text fill="#000000" font-family="sans-serif" font-size="13" lengthAdjust="spacing" textLength="83" x="1428" y="1332.145">User (object)</text><polygon fill="#181818" points="941,1362.3438,931,1366.3438,941,1370.3438,937,1366.3438" style="stroke:#181818;stroke-width:1.0;"/><line style="stroke:#181818;stroke-width:1.0;stroke-dasharray:2.0,2.0;" x1="935" x2="1405" y1="1366.3438" y2="1366.3438"/><text fill="#000000" font-family="sans-serif" font-size="13" lengthAdjust="spacing" textLength="83" x="947" y="1361.2778">User (object)</text><polygon fill="#181818" points="1534.5,1391.4766,1544.5,1395.4766,1534.5,1399.4766,1538.5,1395.4766" style="stroke:#181818;stroke-width:1.0;"/><line style="stroke:#181818;stroke-width:1.0;" x1="930" x2="1540.5" y1="1395.4766" y2="1395.4766"/><text fill="#000000" font-family="sans-serif" font-size="13" lengthAdjust="spacing" textLength="375" x="937" y="1390.4106">send_verification_mail(verification_token, unverified_email)</text><line style="stroke:#181818;stroke-width:1.0;" x1="1561.5" x2="1603.5" y1="1424.6094" y2="1424.6094"/><line style="stroke:#181818;stroke-width:1.0;" x1="1603.5" x2="1603.5" y1="1424.6094" y2="1437.6094"/><line style="stroke:#181818;stroke-width:1.0;" x1="1562.5" x2="1603.5" y1="1437.6094" y2="1437.6094"/><polygon fill="#181818" points="1572.5,1433.6094,1562.5,1437.6094,1572.5,1441.6094,1568.5,1437.6094" style="stroke:#181818;stroke-width:1.0;"/><text fill="#000000" font-family="sans-serif" font-size="13" lengthAdjust="spacing" textLength="430" x="1568.5" y="1419.5435">__create_verification_link(plain_verification_token, unverified_email)</text><polygon fill="#181818" points="2394,1492.7422,2404,1496.7422,2394,1500.7422,2398,1496.7422" style="stroke:#181818;stroke-width:1.0;"/><line style="stroke:#181818;stroke-width:1.0;" x1="1556.5" x2="2400" y1="1496.7422" y2="1496.7422"/><text fill="#000000" font-family="sans-serif" font-size="13" lengthAdjust="spacing" textLength="230" x="1563.5" y="1491.6763">send email {verification_link, email}</text><polygon fill="#181818" points="941,1521.875,931,1525.875,941,1529.875,937,1525.875" style="stroke:#181818;stroke-width:1.0;"/><line style="stroke:#181818;stroke-width:1.0;stroke-dasharray:2.0,2.0;" x1="935" x2="1550.5" y1="1525.875" y2="1525.875"/><text fill="#000000" font-family="sans-serif" font-size="13" lengthAdjust="spacing" textLength="83" x="947" y="1520.8091">User (object)</text><polygon fill="#181818" points="478,1551.0078,468,1555.0078,478,1559.0078,474,1555.0078" style="stroke:#181818;stroke-width:1.0;"/><line style="stroke:#181818;stroke-width:1.0;stroke-dasharray:2.0,2.0;" x1="472" x2="924" y1="1555.0078" y2="1555.0078"/><text fill="#000000" font-family="sans-serif" font-size="13" lengthAdjust="spacing" textLength="282" x="484" y="1549.9419">HTTP Response: 201 Created (User created)</text><polygon fill="#181818" points="50,1580.1406,40,1584.1406,50,1588.1406,46,1584.1406" style="stroke:#181818;stroke-width:1.0;"/><line style="stroke:#181818;stroke-width:1.0;stroke-dasharray:2.0,2.0;" x1="44" x2="461" y1="1584.1406" y2="1584.1406"/><text fill="#000000" font-family="sans-serif" font-size="13" lengthAdjust="spacing" textLength="256" x="56" y="1579.0747">Success Message and "check your mail"</text><polygon fill="#181818" points="50,1609.2734,40,1613.2734,50,1617.2734,46,1613.2734" style="stroke:#181818;stroke-width:1.0;"/><line style="stroke:#181818;stroke-width:1.0;" x1="44" x2="2410" y1="1613.2734" y2="1613.2734"/><text fill="#000000" font-family="sans-serif" font-size="13" lengthAdjust="spacing" textLength="79" x="56" y="1608.2075">Mail with link</text><!--SRC=[hLPDRziu4BthLmoy5ncraVJZq0tg1TJMHWzrcutYFHKW66biSoEJAaavCOhyzmufsn4jsKcmwuC_n9atCs_UZCapgpJqPWPr3xW1zoKgkROY4oMN5deJhQH5cKDyXJopVMys6OT6PxmKP-lNPxooopCZ5d9ObQ1LPV67X7XIS7CB7uiAIota5Y99hq8C5pf5lHOPrgcauVbunKNn3sen5nctGiccyVZ0EA54ckT9sWu6KvLZ0Tzl_iNCWaiq_VjhKcHBN6tebrNmcLj-mmtM6S-c1mdTMzII5yxL9mVDY5Dw44MZ4QH41n0TbrfbQ0p4FhOXtZVmnvktVHYD8lze-1Vn2XVmZQ_5WbiqBWMpzPuhlOg8Vx6c4yU_T_am7DO-QTCinvRX3diYYi84e3_aBtJ93w0ik92ivCRSAPqV_cQPadEXLm_0IGockba9QuACAC0kpDgrQRFtDMp5RRQCdnUX7w3omiBb3WTo1L9Py70Hq8l2xKcOyCAWVngICzPQwOiZA0Emr0Y-e4mYaddK1BpM5HwmMHT9ugNZBzVNbt25Foiqbk2_fzVGpUN30SZ-kni2XqMGuvGGXM4UWBdESClMl11vx1yrM26nErPgpTMMlXvlxUjtcAuA3_f8oxQs87jJAcdm0jwTdyD7dk_gWRWRlk-1ciKSvRiReCctSmsPSHq8aZzi0TM-9MpcZYbNlM4LXJViPiDSn1PTivgk9CjKHNFB2uqytm3U2qCARjBb8NqjiV9ReVyCslw4JwJRGj0EgKUx1du1KRmpim5ep8McBFmYADH2I2Zv0f-WpHVnJSc0jjcUjiGTvmhDuzpDgs9EUu5fQZq5NA6qvc1M-qtD1ZFfiNnxjp3GX0deJVw36lVXckZr5ADz0TSdSPwlpQHBcqaQ37D6tRJ8res_B6RLBSeudEL0xsth4-hVHd3oZojPksBEJkxpTe1mL0ZOmKy9NkBT_mGxZGXm1ylOafibCqZfsxX3OMJUbEufvsV5FWeMEE9zoMXHZI2MwWvUmRltovCmQJrjqzRA2ErEx9RE-VGgCAIri2o_sTg53k2mGQ6snkaUax4kGHP2tXwbyIdqK9brB7VlsLO0tWL-jG8EwfE7Hp1_Mme6uIXLhRYdziYRyzVmoPUTRxTpJKBU3mVtwjJTgihynMrARxH-_VsdHxV4x1OsgjBWIkbrNRe-37Ti-8yxOPVWoc_QkfFV]--></g></svg>