<svg xmlns="http://www.w3.org/2000/svg" xmlns:xlink="http://www.w3.org/1999/xlink" contentStyleType="text/css" height="1693px" preserveAspectRatio="none" style="width:1873px;height:1693px;background:#FFFFFF;" version="1.1" viewBox="0 0 1873 1693" width="1873px" zoomAndPan="magnify"><defs/><g><rect fill="#FFFFFF" height="31.291" style="stroke:#181818;stroke-width:1.0;" width="10" x="222.79" y="162.2031"/><rect fill="#FFFFFF" height="31.291" style="stroke:#181818;stroke-width:1.0;" width="10" x="222.79" y="339.9492"/><rect fill="#FFFFFF" height="31.291" style="stroke:#181818;stroke-width:1.0;" width="10" x="222.79" y="529.6953"/><rect fill="#FFFFFF" height="31.291" style="stroke:#181818;stroke-width:1.0;" width="10" x="222.79" y="856.3145"/><rect fill="#FFFFFF" height="75.582" style="stroke:#181818;stroke-width:1.0;" width="10" x="222.79" y="1516.3887"/><rect fill="#FFFFFF" height="1322.8945" style="stroke:#181818;stroke-width:1.0;" width="10" x="671.6177" y="193.4941"/><rect fill="#FFFFFF" height="184.7461" style="stroke:#181818;stroke-width:1.0;" width="10" x="866.063" y="224.7852"/><rect fill="#FFFFFF" height="326.6191" style="stroke:#181818;stroke-width:1.0;" width="10" x="1003.2764" y="630.5684"/><rect fill="#FFFFFF" height="285.4551" style="stroke:#181818;stroke-width:1.0;" width="10" x="1003.2764" y="988.4785"/><rect fill="#FFFFFF" height="28" style="stroke:#181818;stroke-width:1.0;" width="10" x="1008.2764" y="1027.7695"/><rect fill="#FFFFFF" height="28" style="stroke:#181818;stroke-width:1.0;" width="10" x="1008.2764" y="1102.0605"/><rect fill="#FFFFFF" height="179.873" style="stroke:#181818;stroke-width:1.0;" width="10" x="1003.2764" y="1305.2246"/><rect fill="#FFFFFF" height="28" style="stroke:#181818;stroke-width:1.0;" width="10" x="1008.2764" y="1344.5156"/><rect fill="#FFFFFF" height="28" style="stroke:#181818;stroke-width:1.0;" width="10" x="1008.2764" y="1418.8066"/><rect fill="#FFFFFF" height="158.4551" style="stroke:#181818;stroke-width:1.0;" width="10" x="1272.1143" y="440.8223"/><rect fill="#FFFFFF" height="67.291" style="stroke:#181818;stroke-width:1.0;" width="10" x="1426.8174" y="1168.3516"/><rect fill="#FFFFFF" height="28" style="stroke:#181818;stroke-width:1.0;" width="10" x="1431.8174" y="1207.6426"/><rect fill="#FFFFFF" height="264.0371" style="stroke:#181818;stroke-width:1.0;" width="10" x="1628.603" y="661.8594"/><rect fill="#FFFFFF" height="28" style="stroke:#181818;stroke-width:1.0;" width="10" x="1633.603" y="701.1504"/><rect fill="none" height="113.1641" style="stroke:#000000;stroke-width:1.5;" width="943.5352" x="20" y="266.0762"/><rect fill="none" height="113.1641" style="stroke:#000000;stroke-width:1.5;" width="1312.2349" x="20" y="455.8223"/><rect fill="none" height="144.4551" style="stroke:#000000;stroke-width:1.5;" width="1715.8062" x="20" y="751.1504"/><line style="stroke:#181818;stroke-width:0.5;stroke-dasharray:5.0,5.0;" x1="47" x2="47" y1="83.6211" y2="1609.9707"/><line style="stroke:#181818;stroke-width:0.5;stroke-dasharray:5.0,5.0;" x1="226.8799" x2="226.8799" y1="83.6211" y2="1609.9707"/><line style="stroke:#181818;stroke-width:0.5;stroke-dasharray:5.0,5.0;" x1="675.6592" x2="675.6592" y1="83.6211" y2="1609.9707"/><line style="stroke:#181818;stroke-width:0.5;stroke-dasharray:5.0,5.0;" x1="870.5908" x2="870.5908" y1="83.6211" y2="1609.9707"/><line style="stroke:#181818;stroke-width:0.5;stroke-dasharray:5.0,5.0;" x1="1007.5352" x2="1007.5352" y1="83.6211" y2="1609.9707"/><line style="stroke:#181818;stroke-width:0.5;stroke-dasharray:5.0,5.0;" x1="1276.9937" x2="1276.9937" y1="83.6211" y2="1609.9707"/><line style="stroke:#181818;stroke-width:0.5;stroke-dasharray:5.0,5.0;" x1="1431.2349" x2="1431.2349" y1="83.6211" y2="1609.9707"/><line style="stroke:#181818;stroke-width:0.5;stroke-dasharray:5.0,5.0;" x1="1633.3999" x2="1633.3999" y1="83.6211" y2="1609.9707"/><text fill="#000000" font-family="sans-serif" font-size="14" lengthAdjust="spacing" textLength="29.5586" x="30" y="80.1074">User</text><ellipse cx="47.7793" cy="13.5" fill="#E2E2F0" rx="8" ry="8" style="stroke:#181818;stroke-width:0.5;"/><path d="M47.7793,21.5 L47.7793,48.5 M34.7793,29.5 L60.7793,29.5 M47.7793,48.5 L34.7793,63.5 M47.7793,48.5 L60.7793,63.5 " fill="none" style="stroke:#181818;stroke-width:0.5;"/><text fill="#000000" font-family="sans-serif" font-size="14" lengthAdjust="spacing" textLength="29.5586" x="30" y="1624.0781">User</text><ellipse cx="47.7793" cy="1636.0918" fill="#E2E2F0" rx="8" ry="8" style="stroke:#181818;stroke-width:0.5;"/><path d="M47.7793,1644.0918 L47.7793,1671.0918 M34.7793,1652.0918 L60.7793,1652.0918 M47.7793,1671.0918 L34.7793,1686.0918 M47.7793,1671.0918 L60.7793,1686.0918 " fill="none" style="stroke:#181818;stroke-width:0.5;"/><rect fill="#E2E2F0" height="32.6211" rx="2.5" ry="2.5" style="stroke:#181818;stroke-width:0.5;" width="119.8203" x="167.8799" y="50"/><text fill="#000000" font-family="sans-serif" font-size="14" lengthAdjust="spacing" textLength="105.8203" x="174.8799" y="72.1074">Frontend (React)</text><rect fill="#E2E2F0" height="32.6211" rx="2.5" ry="2.5" style="stroke:#181818;stroke-width:0.5;" width="119.8203" x="167.8799" y="1608.9707"/><text fill="#000000" font-family="sans-serif" font-size="14" lengthAdjust="spacing" textLength="105.8203" x="174.8799" y="1631.0781">Frontend (React)</text><rect fill="#E2E2F0" height="51.2422" rx="2.5" ry="2.5" style="stroke:#181818;stroke-width:0.5;" width="115.917" x="618.6592" y="31.3789"/><text fill="#000000" font-family="sans-serif" font-size="14" lengthAdjust="spacing" textLength="69.2686" x="641.9834" y="53.4863">/login route</text><text fill="#000000" font-family="sans-serif" font-size="14" lengthAdjust="spacing" textLength="101.917" x="625.6592" y="72.1074">(Flask Blueprint)</text><rect fill="#E2E2F0" height="51.2422" rx="2.5" ry="2.5" style="stroke:#181818;stroke-width:0.5;" width="115.917" x="618.6592" y="1608.9707"/><text fill="#000000" font-family="sans-serif" font-size="14" lengthAdjust="spacing" textLength="69.2686" x="641.9834" y="1631.0781">/login route</text><text fill="#000000" font-family="sans-serif" font-size="14" lengthAdjust="spacing" textLength="101.917" x="625.6592" y="1649.6992">(Flask Blueprint)</text><rect fill="#E2E2F0" height="32.6211" rx="2.5" ry="2.5" style="stroke:#181818;stroke-width:0.5;" width="164.9443" x="788.5908" y="50"/><text fill="#000000" font-family="sans-serif" font-size="14" lengthAdjust="spacing" textLength="150.9443" x="795.5908" y="72.1074">EmailVerificationService</text><rect fill="#E2E2F0" height="32.6211" rx="2.5" ry="2.5" style="stroke:#181818;stroke-width:0.5;" width="164.9443" x="788.5908" y="1608.9707"/><text fill="#000000" font-family="sans-serif" font-size="14" lengthAdjust="spacing" textLength="150.9443" x="795.5908" y="1631.0781">EmailVerificationService</text><rect fill="#E2E2F0" height="32.6211" rx="2.5" ry="2.5" style="stroke:#181818;stroke-width:0.5;" width="89.4824" x="963.5352" y="50"/><text fill="#000000" font-family="sans-serif" font-size="14" lengthAdjust="spacing" textLength="75.4824" x="970.5352" y="72.1074">AuthService</text><rect fill="#E2E2F0" height="32.6211" rx="2.5" ry="2.5" style="stroke:#181818;stroke-width:0.5;" width="89.4824" x="963.5352" y="1608.9707"/><text fill="#000000" font-family="sans-serif" font-size="14" lengthAdjust="spacing" textLength="75.4824" x="970.5352" y="1631.0781">AuthService</text><rect fill="#E2E2F0" height="32.6211" rx="2.5" ry="2.5" style="stroke:#181818;stroke-width:0.5;" width="90.2412" x="1231.9937" y="50"/><text fill="#000000" font-family="sans-serif" font-size="14" lengthAdjust="spacing" textLength="76.2412" x="1238.9937" y="72.1074">UserService</text><rect fill="#E2E2F0" height="32.6211" rx="2.5" ry="2.5" style="stroke:#181818;stroke-width:0.5;" width="90.2412" x="1231.9937" y="1608.9707"/><text fill="#000000" font-family="sans-serif" font-size="14" lengthAdjust="spacing" textLength="76.2412" x="1238.9937" y="1631.0781">UserService</text><rect fill="#E2E2F0" height="69.8633" rx="2.5" ry="2.5" style="stroke:#181818;stroke-width:0.5;" width="199.165" x="1332.2349" y="12.7578"/><text fill="#000000" font-family="sans-serif" font-size="14" lengthAdjust="spacing" textLength="185.165" x="1339.2349" y="34.8652">WhitelistedJWTRefreshToken</text><text fill="#000000" font-family="sans-serif" font-size="14" lengthAdjust="spacing" textLength="82.4824" x="1390.5762" y="53.4863">Model Object</text><text fill="#000000" font-family="sans-serif" font-size="14" lengthAdjust="spacing" textLength="170.4063" x="1346.6143" y="72.1074">(SQLAlchemy to Database)</text><rect fill="#E2E2F0" height="69.8633" rx="2.5" ry="2.5" style="stroke:#181818;stroke-width:0.5;" width="199.165" x="1332.2349" y="1608.9707"/><text fill="#000000" font-family="sans-serif" font-size="14" lengthAdjust="spacing" textLength="185.165" x="1339.2349" y="1631.0781">WhitelistedJWTRefreshToken</text><text fill="#000000" font-family="sans-serif" font-size="14" lengthAdjust="spacing" textLength="82.4824" x="1390.5762" y="1649.6992">Model Object</text><text fill="#000000" font-family="sans-serif" font-size="14" lengthAdjust="spacing" textLength="170.4063" x="1346.6143" y="1668.3203">(SQLAlchemy to Database)</text><rect fill="#E2E2F0" height="51.2422" rx="2.5" ry="2.5" style="stroke:#181818;stroke-width:0.5;" width="184.4063" x="1541.3999" y="31.3789"/><text fill="#000000" font-family="sans-serif" font-size="14" lengthAdjust="spacing" textLength="115.9307" x="1575.6377" y="53.4863">User Model Object</text><text fill="#000000" font-family="sans-serif" font-size="14" lengthAdjust="spacing" textLength="170.4063" x="1548.3999" y="72.1074">(SQLAlchemy to Database)</text><rect fill="#E2E2F0" height="51.2422" rx="2.5" ry="2.5" style="stroke:#181818;stroke-width:0.5;" width="184.4063" x="1541.3999" y="1608.9707"/><text fill="#000000" font-family="sans-serif" font-size="14" lengthAdjust="spacing" textLength="115.9307" x="1575.6377" y="1631.0781">User Model Object</text><text fill="#000000" font-family="sans-serif" font-size="14" lengthAdjust="spacing" textLength="170.4063" x="1548.3999" y="1649.6992">(SQLAlchemy to Database)</text><rect fill="#FFFFFF" height="31.291" style="stroke:#181818;stroke-width:1.0;" width="10" x="222.79" y="162.2031"/><rect fill="#FFFFFF" height="31.291" style="stroke:#181818;stroke-width:1.0;" width="10" x="222.79" y="339.9492"/><rect fill="#FFFFFF" height="31.291" style="stroke:#181818;stroke-width:1.0;" width="10" x="222.79" y="529.6953"/><rect fill="#FFFFFF" height="31.291" style="stroke:#181818;stroke-width:1.0;" width="10" x="222.79" y="856.3145"/><rect fill="#FFFFFF" height="75.582" style="stroke:#181818;stroke-width:1.0;" width="10" x="222.79" y="1516.3887"/><rect fill="#FFFFFF" height="1322.8945" style="stroke:#181818;stroke-width:1.0;" width="10" x="671.6177" y="193.4941"/><rect fill="#FFFFFF" height="184.7461" style="stroke:#181818;stroke-width:1.0;" width="10" x="866.063" y="224.7852"/><rect fill="#FFFFFF" height="326.6191" style="stroke:#181818;stroke-width:1.0;" width="10" x="1003.2764" y="630.5684"/><rect fill="#FFFFFF" height="285.4551" style="stroke:#181818;stroke-width:1.0;" width="10" x="1003.2764" y="988.4785"/><rect fill="#FFFFFF" height="28" style="stroke:#181818;stroke-width:1.0;" width="10" x="1008.2764" y="1027.7695"/><rect fill="#FFFFFF" height="28" style="stroke:#181818;stroke-width:1.0;" width="10" x="1008.2764" y="1102.0605"/><rect fill="#FFFFFF" height="179.873" style="stroke:#181818;stroke-width:1.0;" width="10" x="1003.2764" y="1305.2246"/><rect fill="#FFFFFF" height="28" style="stroke:#181818;stroke-width:1.0;" width="10" x="1008.2764" y="1344.5156"/><rect fill="#FFFFFF" height="28" style="stroke:#181818;stroke-width:1.0;" width="10" x="1008.2764" y="1418.8066"/><rect fill="#FFFFFF" height="158.4551" style="stroke:#181818;stroke-width:1.0;" width="10" x="1272.1143" y="440.8223"/><rect fill="#FFFFFF" height="67.291" style="stroke:#181818;stroke-width:1.0;" width="10" x="1426.8174" y="1168.3516"/><rect fill="#FFFFFF" height="28" style="stroke:#181818;stroke-width:1.0;" width="10" x="1431.8174" y="1207.6426"/><rect fill="#FFFFFF" height="264.0371" style="stroke:#181818;stroke-width:1.0;" width="10" x="1628.603" y="661.8594"/><rect fill="#FFFFFF" height="28" style="stroke:#181818;stroke-width:1.0;" width="10" x="1633.603" y="701.1504"/><rect fill="#EEEEEE" height="3" style="stroke:#EEEEEE;stroke-width:1.0;" width="1866.8755" x="0" y="115.2666"/><line style="stroke:#000000;stroke-width:1.0;" x1="0" x2="1866.8755" y1="115.2666" y2="115.2666"/><line style="stroke:#000000;stroke-width:1.0;" x1="0" x2="1866.8755" y1="118.2666" y2="118.2666"/><rect fill="#EEEEEE" height="25.291" style="stroke:#000000;stroke-width:2.0;" width="210.5107" x="828.1824" y="103.6211"/><text fill="#000000" font-family="sans-serif" font-size="13" font-weight="bold" lengthAdjust="spacing" textLength="192.8989" x="834.1824" y="121.6494">Login Process (User Story #25)</text><polygon fill="#181818" points="210.79,158.2031,220.79,162.2031,210.79,166.2031,214.79,162.2031" style="stroke:#181818;stroke-width:1.0;"/><line style="stroke:#181818;stroke-width:1.0;" x1="47.7793" x2="216.79" y1="162.2031" y2="162.2031"/><text fill="#000000" font-family="sans-serif" font-size="13" lengthAdjust="spacing" textLength="144.5171" x="54.7793" y="156.9404">Submits login credentials</text><polygon fill="#181818" points="659.6177,189.4941,669.6177,193.4941,659.6177,197.4941,663.6177,193.4941" style="stroke:#181818;stroke-width:1.0;"/><line style="stroke:#181818;stroke-width:1.0;" x1="227.79" x2="665.6177" y1="193.4941" y2="193.4941"/><text fill="#000000" font-family="sans-serif" font-size="13" lengthAdjust="spacing" textLength="419.8276" x="234.79" y="188.2314">HTTP Request: POST {email, plain_password, [user_agent, ip_address]}</text><polygon fill="#181818" points="854.063,220.7852,864.063,224.7852,854.063,228.7852,858.063,224.7852" style="stroke:#181818;stroke-width:1.0;"/><line style="stroke:#181818;stroke-width:1.0;" x1="681.6177" x2="860.063" y1="224.7852" y2="224.7852"/><text fill="#000000" font-family="sans-serif" font-size="13" lengthAdjust="spacing" textLength="165.4453" x="688.6177" y="219.5225">is_email_format_valid(email)</text><path d="M20,266.0762 L80.1709,266.0762 L80.1709,275.3672 L70.1709,285.3672 L20,285.3672 L20,266.0762 " fill="#EEEEEE" style="stroke:#000000;stroke-width:1.5;"/><rect fill="none" height="113.1641" style="stroke:#000000;stroke-width:1.5;" width="943.5352" x="20" y="266.0762"/><text fill="#000000" font-family="sans-serif" font-size="13" font-weight="bold" lengthAdjust="spacing" textLength="15.1709" x="35" y="281.1045">alt</text><text fill="#000000" font-family="sans-serif" font-size="11" font-weight="bold" lengthAdjust="spacing" textLength="122.2354" x="95.1709" y="279.9463">[Email format not valid]</text><polygon fill="#181818" points="692.6177,304.6582,682.6177,308.6582,692.6177,312.6582,688.6177,308.6582" style="stroke:#181818;stroke-width:1.0;"/><line style="stroke:#181818;stroke-width:1.0;stroke-dasharray:2.0,2.0;" x1="686.6177" x2="865.063" y1="308.6582" y2="308.6582"/><text fill="#000000" font-family="sans-serif" font-size="13" lengthAdjust="spacing" textLength="31.7891" x="698.6177" y="303.3955">False</text><polygon fill="#181818" points="243.79,335.9492,233.79,339.9492,243.79,343.9492,239.79,339.9492" style="stroke:#181818;stroke-width:1.0;"/><line style="stroke:#181818;stroke-width:1.0;stroke-dasharray:2.0,2.0;" x1="237.79" x2="670.6177" y1="339.9492" y2="339.9492"/><text fill="#000000" font-family="sans-serif" font-size="13" lengthAdjust="spacing" textLength="189.3188" x="249.79" y="334.6865">HTTP Response: 404 Not Found</text><polygon fill="#181818" points="58.7793,367.2402,48.7793,371.2402,58.7793,375.2402,54.7793,371.2402" style="stroke:#181818;stroke-width:1.0;"/><line style="stroke:#181818;stroke-width:1.0;stroke-dasharray:2.0,2.0;" x1="52.7793" x2="226.79" y1="371.2402" y2="371.2402"/><text fill="#000000" font-family="sans-serif" font-size="13" lengthAdjust="spacing" textLength="151.0107" x="64.7793" y="365.9775">Error: credentials not valid</text><polygon fill="#181818" points="692.6177,405.5313,682.6177,409.5313,692.6177,413.5313,688.6177,409.5313" style="stroke:#181818;stroke-width:1.0;"/><line style="stroke:#181818;stroke-width:1.0;stroke-dasharray:2.0,2.0;" x1="686.6177" x2="870.063" y1="409.5313" y2="409.5313"/><text fill="#000000" font-family="sans-serif" font-size="13" lengthAdjust="spacing" textLength="26.73" x="698.6177" y="404.2686">True</text><polygon fill="#181818" points="1260.1143,436.8223,1270.1143,440.8223,1260.1143,444.8223,1264.1143,440.8223" style="stroke:#181818;stroke-width:1.0;"/><line style="stroke:#181818;stroke-width:1.0;" x1="681.6177" x2="1266.1143" y1="440.8223" y2="440.8223"/><text fill="#000000" font-family="sans-serif" font-size="13" lengthAdjust="spacing" textLength="163.2871" x="688.6177" y="435.5596">query_users_by_mail(email)</text><path d="M20,455.8223 L80.1709,455.8223 L80.1709,465.1133 L70.1709,475.1133 L20,475.1133 L20,455.8223 " fill="#EEEEEE" style="stroke:#000000;stroke-width:1.5;"/><rect fill="none" height="113.1641" style="stroke:#000000;stroke-width:1.5;" width="1312.2349" x="20" y="455.8223"/><text fill="#000000" font-family="sans-serif" font-size="13" font-weight="bold" lengthAdjust="spacing" textLength="15.1709" x="35" y="470.8506">alt</text><text fill="#000000" font-family="sans-serif" font-size="11" font-weight="bold" lengthAdjust="spacing" textLength="218.8237" x="95.1709" y="469.6924">[Unverified Mail does not exist or expired]</text><polygon fill="#181818" points="692.6177,494.4043,682.6177,498.4043,692.6177,502.4043,688.6177,498.4043" style="stroke:#181818;stroke-width:1.0;"/><line style="stroke:#181818;stroke-width:1.0;stroke-dasharray:2.0,2.0;" x1="686.6177" x2="1271.1143" y1="498.4043" y2="498.4043"/><text fill="#000000" font-family="sans-serif" font-size="13" lengthAdjust="spacing" textLength="31.0781" x="698.6177" y="493.1416">None</text><polygon fill="#181818" points="243.79,525.6953,233.79,529.6953,243.79,533.6953,239.79,529.6953" style="stroke:#181818;stroke-width:1.0;"/><line style="stroke:#181818;stroke-width:1.0;stroke-dasharray:2.0,2.0;" x1="237.79" x2="670.6177" y1="529.6953" y2="529.6953"/><text fill="#000000" font-family="sans-serif" font-size="13" lengthAdjust="spacing" textLength="189.3188" x="249.79" y="524.4326">HTTP Response: 404 Not Found</text><polygon fill="#181818" points="58.7793,556.9863,48.7793,560.9863,58.7793,564.9863,54.7793,560.9863" style="stroke:#181818;stroke-width:1.0;"/><line style="stroke:#181818;stroke-width:1.0;stroke-dasharray:2.0,2.0;" x1="52.7793" x2="226.79" y1="560.9863" y2="560.9863"/><text fill="#000000" font-family="sans-serif" font-size="13" lengthAdjust="spacing" textLength="151.0107" x="64.7793" y="555.7236">Error: credentials not valid</text><polygon fill="#181818" points="692.6177,595.2773,682.6177,599.2773,692.6177,603.2773,688.6177,599.2773" style="stroke:#181818;stroke-width:1.0;"/><line style="stroke:#181818;stroke-width:1.0;stroke-dasharray:2.0,2.0;" x1="686.6177" x2="1276.1143" y1="599.2773" y2="599.2773"/><text fill="#000000" font-family="sans-serif" font-size="13" lengthAdjust="spacing" textLength="65.749" x="698.6177" y="594.0146">User object</text><polygon fill="#181818" points="991.2764,626.5684,1001.2764,630.5684,991.2764,634.5684,995.2764,630.5684" style="stroke:#181818;stroke-width:1.0;"/><line style="stroke:#181818;stroke-width:1.0;" x1="681.6177" x2="997.2764" y1="630.5684" y2="630.5684"/><text fill="#000000" font-family="sans-serif" font-size="13" lengthAdjust="spacing" textLength="225.4307" x="688.6177" y="625.3057">verify_password(user, plain_password)</text><polygon fill="#181818" points="1616.603,657.8594,1626.603,661.8594,1616.603,665.8594,1620.603,661.8594" style="stroke:#181818;stroke-width:1.0;"/><line style="stroke:#181818;stroke-width:1.0;" x1="1013.2764" x2="1622.603" y1="661.8594" y2="661.8594"/><text fill="#000000" font-family="sans-serif" font-size="13" lengthAdjust="spacing" textLength="192.918" x="1020.2764" y="656.5967">verify_password(plain_password)</text><line style="stroke:#181818;stroke-width:1.0;" x1="1643.603" x2="1685.603" y1="693.1504" y2="693.1504"/><line style="stroke:#181818;stroke-width:1.0;" x1="1685.603" x2="1685.603" y1="693.1504" y2="706.1504"/><line style="stroke:#181818;stroke-width:1.0;" x1="1644.603" x2="1685.603" y1="706.1504" y2="706.1504"/><polygon fill="#181818" points="1654.603,702.1504,1644.603,706.1504,1654.603,710.1504,1650.603,706.1504" style="stroke:#181818;stroke-width:1.0;"/><text fill="#000000" font-family="sans-serif" font-size="13" lengthAdjust="spacing" textLength="184.2725" x="1650.603" y="687.8877">__hash_secret(plain_password)</text><path d="M20,751.1504 L80.1709,751.1504 L80.1709,760.4414 L70.1709,770.4414 L20,770.4414 L20,751.1504 " fill="#EEEEEE" style="stroke:#000000;stroke-width:1.5;"/><rect fill="none" height="144.4551" style="stroke:#000000;stroke-width:1.5;" width="1715.8062" x="20" y="751.1504"/><text fill="#000000" font-family="sans-serif" font-size="13" font-weight="bold" lengthAdjust="spacing" textLength="15.1709" x="35" y="766.1787">alt</text><text fill="#000000" font-family="sans-serif" font-size="11" font-weight="bold" lengthAdjust="spacing" textLength="143.6338" x="95.1709" y="765.0205">[Password does not match]</text><polygon fill="#181818" points="1024.2764,789.7324,1014.2764,793.7324,1024.2764,797.7324,1020.2764,793.7324" style="stroke:#181818;stroke-width:1.0;"/><line style="stroke:#181818;stroke-width:1.0;stroke-dasharray:2.0,2.0;" x1="1018.2764" x2="1627.603" y1="793.7324" y2="793.7324"/><text fill="#000000" font-family="sans-serif" font-size="13" lengthAdjust="spacing" textLength="31.7891" x="1030.2764" y="788.4697">False</text><polygon fill="#181818" points="692.6177,821.0234,682.6177,825.0234,692.6177,829.0234,688.6177,825.0234" style="stroke:#181818;stroke-width:1.0;"/><line style="stroke:#181818;stroke-width:1.0;stroke-dasharray:2.0,2.0;" x1="686.6177" x2="1002.2764" y1="825.0234" y2="825.0234"/><text fill="#000000" font-family="sans-serif" font-size="13" lengthAdjust="spacing" textLength="31.7891" x="698.6177" y="819.7607">False</text><polygon fill="#181818" points="243.79,852.3145,233.79,856.3145,243.79,860.3145,239.79,856.3145" style="stroke:#181818;stroke-width:1.0;"/><line style="stroke:#181818;stroke-width:1.0;stroke-dasharray:2.0,2.0;" x1="237.79" x2="670.6177" y1="856.3145" y2="856.3145"/><text fill="#000000" font-family="sans-serif" font-size="13" lengthAdjust="spacing" textLength="189.3188" x="249.79" y="851.0518">HTTP Response: 404 Not Found</text><polygon fill="#181818" points="58.7793,883.6055,48.7793,887.6055,58.7793,891.6055,54.7793,887.6055" style="stroke:#181818;stroke-width:1.0;"/><line style="stroke:#181818;stroke-width:1.0;stroke-dasharray:2.0,2.0;" x1="52.7793" x2="226.79" y1="887.6055" y2="887.6055"/><text fill="#000000" font-family="sans-serif" font-size="13" lengthAdjust="spacing" textLength="151.0107" x="64.7793" y="882.3428">Error: credentials not valid</text><polygon fill="#181818" points="1024.2764,921.8965,1014.2764,925.8965,1024.2764,929.8965,1020.2764,925.8965" style="stroke:#181818;stroke-width:1.0;"/><line style="stroke:#181818;stroke-width:1.0;stroke-dasharray:2.0,2.0;" x1="1018.2764" x2="1632.603" y1="925.8965" y2="925.8965"/><text fill="#000000" font-family="sans-serif" font-size="13" lengthAdjust="spacing" textLength="26.73" x="1030.2764" y="920.6338">True</text><polygon fill="#181818" points="692.6177,953.1875,682.6177,957.1875,692.6177,961.1875,688.6177,957.1875" style="stroke:#181818;stroke-width:1.0;"/><line style="stroke:#181818;stroke-width:1.0;stroke-dasharray:2.0,2.0;" x1="686.6177" x2="1007.2764" y1="957.1875" y2="957.1875"/><text fill="#000000" font-family="sans-serif" font-size="13" lengthAdjust="spacing" textLength="26.73" x="698.6177" y="951.9248">True</text><polygon fill="#181818" points="991.2764,984.4785,1001.2764,988.4785,991.2764,992.4785,995.2764,988.4785" style="stroke:#181818;stroke-width:1.0;"/><line style="stroke:#181818;stroke-width:1.0;" x1="681.6177" x2="997.2764" y1="988.4785" y2="988.4785"/><text fill="#000000" font-family="sans-serif" font-size="13" lengthAdjust="spacing" textLength="283.9814" x="688.6177" y="983.2158">create_refresh_jwt(user, user_agent, ip_address)</text><line style="stroke:#181818;stroke-width:1.0;" x1="1018.2764" x2="1060.2764" y1="1019.7695" y2="1019.7695"/><line style="stroke:#181818;stroke-width:1.0;" x1="1060.2764" x2="1060.2764" y1="1019.7695" y2="1032.7695"/><line style="stroke:#181818;stroke-width:1.0;" x1="1019.2764" x2="1060.2764" y1="1032.7695" y2="1032.7695"/><polygon fill="#181818" points="1029.2764,1028.7695,1019.2764,1032.7695,1029.2764,1036.7695,1025.2764,1032.7695" style="stroke:#181818;stroke-width:1.0;"/><text fill="#000000" font-family="sans-serif" font-size="13" lengthAdjust="spacing" textLength="170.5361" x="1025.2764" y="1014.5068">__generate_refresh_jwt(user)</text><line style="stroke:#181818;stroke-width:1.0;" x1="1018.2764" x2="1060.2764" y1="1094.0605" y2="1094.0605"/><line style="stroke:#181818;stroke-width:1.0;" x1="1060.2764" x2="1060.2764" y1="1094.0605" y2="1107.0605"/><line style="stroke:#181818;stroke-width:1.0;" x1="1019.2764" x2="1060.2764" y1="1107.0605" y2="1107.0605"/><polygon fill="#181818" points="1029.2764,1103.0605,1019.2764,1107.0605,1029.2764,1111.0605,1025.2764,1107.0605" style="stroke:#181818;stroke-width:1.0;"/><text fill="#000000" font-family="sans-serif" font-size="13" lengthAdjust="spacing" textLength="152.4644" x="1025.2764" y="1088.7979">__encode_jwt(refresh_jwt)</text><polygon fill="#181818" points="1414.8174,1164.3516,1424.8174,1168.3516,1414.8174,1172.3516,1418.8174,1168.3516" style="stroke:#181818;stroke-width:1.0;"/><line style="stroke:#181818;stroke-width:1.0;" x1="1013.2764" x2="1420.8174" y1="1168.3516" y2="1168.3516"/><text fill="#000000" font-family="sans-serif" font-size="13" lengthAdjust="spacing" textLength="392.3867" x="1020.2764" y="1163.0889">create(jti, encoded_refresh_jwt, user_agent, ip_address, expires_at)</text><line style="stroke:#181818;stroke-width:1.0;" x1="1441.8174" x2="1483.8174" y1="1199.6426" y2="1199.6426"/><line style="stroke:#181818;stroke-width:1.0;" x1="1483.8174" x2="1483.8174" y1="1199.6426" y2="1212.6426"/><line style="stroke:#181818;stroke-width:1.0;" x1="1442.8174" x2="1483.8174" y1="1212.6426" y2="1212.6426"/><polygon fill="#181818" points="1452.8174,1208.6426,1442.8174,1212.6426,1452.8174,1216.6426,1448.8174,1212.6426" style="stroke:#181818;stroke-width:1.0;"/><text fill="#000000" font-family="sans-serif" font-size="13" lengthAdjust="spacing" textLength="157.5171" x="1448.8174" y="1194.3799">__hash_secret(refresh_jwt)</text><polygon fill="#181818" points="692.6177,1269.9336,682.6177,1273.9336,692.6177,1277.9336,688.6177,1273.9336" style="stroke:#181818;stroke-width:1.0;"/><line style="stroke:#181818;stroke-width:1.0;stroke-dasharray:2.0,2.0;" x1="686.6177" x2="1007.2764" y1="1273.9336" y2="1273.9336"/><text fill="#000000" font-family="sans-serif" font-size="13" lengthAdjust="spacing" textLength="119.9326" x="698.6177" y="1268.6709">Tuple[jti, refresh_jwt]</text><polygon fill="#181818" points="991.2764,1301.2246,1001.2764,1305.2246,991.2764,1309.2246,995.2764,1305.2246" style="stroke:#181818;stroke-width:1.0;"/><line style="stroke:#181818;stroke-width:1.0;" x1="681.6177" x2="997.2764" y1="1305.2246" y2="1305.2246"/><text fill="#000000" font-family="sans-serif" font-size="13" lengthAdjust="spacing" textLength="205.188" x="688.6177" y="1299.9619">create_access_jwt(user, refresh_jti)</text><line style="stroke:#181818;stroke-width:1.0;" x1="1018.2764" x2="1060.2764" y1="1336.5156" y2="1336.5156"/><line style="stroke:#181818;stroke-width:1.0;" x1="1060.2764" x2="1060.2764" y1="1336.5156" y2="1349.5156"/><line style="stroke:#181818;stroke-width:1.0;" x1="1019.2764" x2="1060.2764" y1="1349.5156" y2="1349.5156"/><polygon fill="#181818" points="1029.2764,1345.5156,1019.2764,1349.5156,1029.2764,1353.5156,1025.2764,1349.5156" style="stroke:#181818;stroke-width:1.0;"/><text fill="#000000" font-family="sans-serif" font-size="13" lengthAdjust="spacing" textLength="234.8379" x="1025.2764" y="1331.2529">__generate_access_jwt(user, refresh_jti)</text><line style="stroke:#181818;stroke-width:1.0;" x1="1018.2764" x2="1060.2764" y1="1410.8066" y2="1410.8066"/><line style="stroke:#181818;stroke-width:1.0;" x1="1060.2764" x2="1060.2764" y1="1410.8066" y2="1423.8066"/><line style="stroke:#181818;stroke-width:1.0;" x1="1019.2764" x2="1060.2764" y1="1423.8066" y2="1423.8066"/><polygon fill="#181818" points="1029.2764,1419.8066,1019.2764,1423.8066,1029.2764,1427.8066,1025.2764,1423.8066" style="stroke:#181818;stroke-width:1.0;"/><text fill="#000000" font-family="sans-serif" font-size="13" lengthAdjust="spacing" textLength="152.4644" x="1025.2764" y="1405.5439">__encode_jwt(access_jwt)</text><polygon fill="#181818" points="692.6177,1481.0977,682.6177,1485.0977,692.6177,1489.0977,688.6177,1485.0977" style="stroke:#181818;stroke-width:1.0;"/><line style="stroke:#181818;stroke-width:1.0;stroke-dasharray:2.0,2.0;" x1="686.6177" x2="1007.2764" y1="1485.0977" y2="1485.0977"/><text fill="#000000" font-family="sans-serif" font-size="13" lengthAdjust="spacing" textLength="63.5781" x="698.6177" y="1479.835">access_jwt</text><polygon fill="#181818" points="243.79,1512.3887,233.79,1516.3887,243.79,1520.3887,239.79,1516.3887" style="stroke:#181818;stroke-width:1.0;"/><line style="stroke:#181818;stroke-width:1.0;stroke-dasharray:2.0,2.0;" x1="237.79" x2="675.6177" y1="1516.3887" y2="1516.3887"/><text fill="#000000" font-family="sans-serif" font-size="13" lengthAdjust="spacing" textLength="294.0742" x="249.79" y="1511.126">HTTP Response: 200 OK {access_jwt, refresh_jwt}</text><line style="stroke:#181818;stroke-width:1.0;" x1="232.79" x2="274.79" y1="1547.6797" y2="1547.6797"/><line style="stroke:#181818;stroke-width:1.0;" x1="274.79" x2="274.79" y1="1547.6797" y2="1560.6797"/><line style="stroke:#181818;stroke-width:1.0;" x1="233.79" x2="274.79" y1="1560.6797" y2="1560.6797"/><polygon fill="#181818" points="243.79,1556.6797,233.79,1560.6797,243.79,1564.6797,239.79,1560.6797" style="stroke:#181818;stroke-width:1.0;"/><text fill="#000000" font-family="sans-serif" font-size="13" lengthAdjust="spacing" textLength="308.5151" x="239.79" y="1542.417">store access_jwt and refresh_jwt in HTTP only cookie</text><polygon fill="#181818" points="58.7793,1587.9707,48.7793,1591.9707,58.7793,1595.9707,54.7793,1591.9707" style="stroke:#181818;stroke-width:1.0;"/><line style="stroke:#181818;stroke-width:1.0;stroke-dasharray:2.0,2.0;" x1="52.7793" x2="226.79" y1="1591.9707" y2="1591.9707"/><text fill="#000000" font-family="sans-serif" font-size="13" lengthAdjust="spacing" textLength="88.1626" x="64.7793" y="1586.708">Success: Login</text><!--SRC=[pLPDRnen4BtlhnYb5o8HDOhI2ogLg0ggMZQXB9H34bbcTnASBFRMzfAWgF-zOoy1Bv2FtX8f4gpdlPbvRxm3JwtIS30sg0-06-WKXViS5LnRaOg2Imi7FQsaHPb1OuWyjOS-ijUj1ttCrOsGe5LfyL8sUZatT_0rBx7GGgum_M4TqvrpaVz6BQv5ogrGCa6z42dwu6vI3-wKTXQUTxRENTtX-NZhV38J5dDXB6O_9gCXNciqiv6wGtafOvLX3kVJMqmj5P_ywdVoT8Rp9LW5txZbKswmwc4IxwQ5_y2FuoXgjw7lrHfebQ8nqF0i2NcnX0yddmwXtOvMLi3H5zAw1KavdGjhe98vrPYXj8Bd9Y9Bn89RT9RqkYw-FuGMV1-D1Z34FoKQsuB1UJA2HtI2Dw78kP2iuCRSAvqruQAaH8pV46CJHC5ubf4uvkflb678llvCHb8EojHDA9Cmp1EpQwNdtB85pqNMy8yEDnZoa-VM_OFt7QfeaCg2HqH0VqJx-UYeukrHT-YVKblkQTYNAPGqs8BJurCu8ugUAcL54LRilZy9wHY8g0LThPLkXHfk5L7lcYO_2iiQwH93OQYnIeonEoMzzP8vGGsRBfdhT4UAiPS2ndBXPnypY9qWcSAg4doWCGMwcFXG2AeoLCOdELFoVGdZg_9aob-2K9_napuT5-HRNgw7h-6Ksfx8G2gwvGHpuiPxmC_2w9OHu0d6s8oR6JD8dTaNGM7PiJTfi8hRk4D3cyug0PEg-RWsh2j9EkziXCDYjqUOUWshtZxkr1oafFIGwUeDocxlxSh4_M-HVMPw7iOe5FK-hZgcNacD0MLAhrwF2pXUXq_YTIEDMokQK15bOINFDTHSNKl3U9Y95iCaNdFNHsv_RPFQlErygpbI5ZbU-4e3hgjNJUAfso-1Hskq5MynvktujvcquNi97NQ-GMm5lN2XJewFuVmdF6wmDTbgQurMsUu2zNVCq3h683zm-WaKq03jOPzOoNm9gL9t0gETcvgKdg1LRVpwGlq7]--></g></svg>