<svg xmlns="http://www.w3.org/2000/svg" xmlns:xlink="http://www.w3.org/1999/xlink" contentStyleType="text/css" height="394px" preserveAspectRatio="none" style="width:889px;height:394px;background:#FFFFFF;" version="1.1" viewBox="0 0 889 394" width="889px" zoomAndPan="magnify"><defs/><g><rect fill="#FFFFFF" height="31.291" style="stroke:#181818;stroke-width:1.0;" width="10" x="231.0454" y="162.2031"/><rect fill="#FFFFFF" height="31.291" style="stroke:#181818;stroke-width:1.0;" width="10" x="231.0454" y="262.0762"/><rect fill="#FFFFFF" height="68.582" style="stroke:#181818;stroke-width:1.0;" width="10" x="614.8286" y="193.4941"/><line style="stroke:#181818;stroke-width:0.5;stroke-dasharray:5.0,5.0;" x1="22" x2="22" y1="83.6211" y2="311.3672"/><line style="stroke:#181818;stroke-width:0.5;stroke-dasharray:5.0,5.0;" x1="235.1353" x2="235.1353" y1="83.6211" y2="311.3672"/><line style="stroke:#181818;stroke-width:0.5;stroke-dasharray:5.0,5.0;" x1="618.8701" x2="618.8701" y1="83.6211" y2="311.3672"/><text fill="#000000" font-family="sans-serif" font-size="14" lengthAdjust="spacing" textLength="29.5586" x="5" y="80.1074">User</text><ellipse cx="22.7793" cy="13.5" fill="#E2E2F0" rx="8" ry="8" style="stroke:#181818;stroke-width:0.5;"/><path d="M22.7793,21.5 L22.7793,48.5 M9.7793,29.5 L35.7793,29.5 M22.7793,48.5 L9.7793,63.5 M22.7793,48.5 L35.7793,63.5 " fill="none" style="stroke:#181818;stroke-width:0.5;"/><text fill="#000000" font-family="sans-serif" font-size="14" lengthAdjust="spacing" textLength="29.5586" x="5" y="325.4746">User</text><ellipse cx="22.7793" cy="337.4883" fill="#E2E2F0" rx="8" ry="8" style="stroke:#181818;stroke-width:0.5;"/><path d="M22.7793,345.4883 L22.7793,372.4883 M9.7793,353.4883 L35.7793,353.4883 M22.7793,372.4883 L9.7793,387.4883 M22.7793,372.4883 L35.7793,387.4883 " fill="none" style="stroke:#181818;stroke-width:0.5;"/><rect fill="#E2E2F0" height="32.6211" rx="2.5" ry="2.5" style="stroke:#181818;stroke-width:0.5;" width="119.8203" x="176.1353" y="50"/><text fill="#000000" font-family="sans-serif" font-size="14" lengthAdjust="spacing" textLength="105.8203" x="183.1353" y="72.1074">Frontend (React)</text><rect fill="#E2E2F0" height="32.6211" rx="2.5" ry="2.5" style="stroke:#181818;stroke-width:0.5;" width="119.8203" x="176.1353" y="310.3672"/><text fill="#000000" font-family="sans-serif" font-size="14" lengthAdjust="spacing" textLength="105.8203" x="183.1353" y="332.4746">Frontend (React)</text><rect fill="#E2E2F0" height="51.2422" rx="2.5" ry="2.5" style="stroke:#181818;stroke-width:0.5;" width="115.917" x="561.8701" y="31.3789"/><text fill="#000000" font-family="sans-serif" font-size="14" lengthAdjust="spacing" textLength="77.834" x="580.9116" y="53.4863">/logout route</text><text fill="#000000" font-family="sans-serif" font-size="14" lengthAdjust="spacing" textLength="101.917" x="568.8701" y="72.1074">(Flask Blueprint)</text><rect fill="#E2E2F0" height="51.2422" rx="2.5" ry="2.5" style="stroke:#181818;stroke-width:0.5;" width="115.917" x="561.8701" y="310.3672"/><text fill="#000000" font-family="sans-serif" font-size="14" lengthAdjust="spacing" textLength="77.834" x="580.9116" y="332.4746">/logout route</text><text fill="#000000" font-family="sans-serif" font-size="14" lengthAdjust="spacing" textLength="101.917" x="568.8701" y="351.0957">(Flask Blueprint)</text><rect fill="#FFFFFF" height="31.291" style="stroke:#181818;stroke-width:1.0;" width="10" x="231.0454" y="162.2031"/><rect fill="#FFFFFF" height="31.291" style="stroke:#181818;stroke-width:1.0;" width="10" x="231.0454" y="262.0762"/><rect fill="#FFFFFF" height="68.582" style="stroke:#181818;stroke-width:1.0;" width="10" x="614.8286" y="193.4941"/><rect fill="#EEEEEE" height="3" style="stroke:#EEEEEE;stroke-width:1.0;" width="882.5952" x="0" y="115.2666"/><line style="stroke:#000000;stroke-width:1.0;" x1="0" x2="882.5952" y1="115.2666" y2="115.2666"/><line style="stroke:#000000;stroke-width:1.0;" x1="0" x2="882.5952" y1="118.2666" y2="118.2666"/><rect fill="#EEEEEE" height="25.291" style="stroke:#000000;stroke-width:2.0;" width="210.5107" x="336.0422" y="103.6211"/><text fill="#000000" font-family="sans-serif" font-size="13" font-weight="bold" lengthAdjust="spacing" textLength="192.8989" x="342.0422" y="121.6494">Login Process (User Story #26)</text><polygon fill="#181818" points="219.0454,158.2031,229.0454,162.2031,219.0454,166.2031,223.0454,162.2031" style="stroke:#181818;stroke-width:1.0;"/><line style="stroke:#181818;stroke-width:1.0;" x1="22.7793" x2="225.0454" y1="162.2031" y2="162.2031"/><text fill="#000000" font-family="sans-serif" font-size="13" lengthAdjust="spacing" textLength="113.4517" x="29.7793" y="156.9404">Clicks logout button</text><polygon fill="#181818" points="602.8286,189.4941,612.8286,193.4941,602.8286,197.4941,606.8286,193.4941" style="stroke:#181818;stroke-width:1.0;"/><line style="stroke:#181818;stroke-width:1.0;" x1="236.0454" x2="608.8286" y1="193.4941" y2="193.4941"/><text fill="#000000" font-family="sans-serif" font-size="13" lengthAdjust="spacing" textLength="354.7832" x="243.0454" y="188.2314">HTTP Request: POST {access_jwt, [user_agent, ip_address]}</text><path d="M629,206.4941 L629,233.4941 L877,233.4941 L877,216.4941 L867,206.4941 L629,206.4941 " fill="#FEFFDD" style="stroke:#181818;stroke-width:0.5;"/><path d="M867,206.4941 L867,216.4941 L877,216.4941 L867,206.4941 " fill="#FEFFDD" style="stroke:#181818;stroke-width:0.5;"/><text fill="#000000" font-family="sans-serif" font-size="13" lengthAdjust="spacing" textLength="227.5952" x="635" y="225.5225">Revoke JWT: see sep. generic diagram</text><polygon fill="#181818" points="252.0454,258.0762,242.0454,262.0762,252.0454,266.0762,248.0454,262.0762" style="stroke:#181818;stroke-width:1.0;"/><line style="stroke:#181818;stroke-width:1.0;stroke-dasharray:2.0,2.0;" x1="246.0454" x2="618.8286" y1="262.0762" y2="262.0762"/><text fill="#000000" font-family="sans-serif" font-size="13" lengthAdjust="spacing" textLength="147.3989" x="258.0454" y="256.8135">HTTP Response: 200 OK</text><polygon fill="#181818" points="33.7793,289.3672,23.7793,293.3672,33.7793,297.3672,29.7793,293.3672" style="stroke:#181818;stroke-width:1.0;"/><line style="stroke:#181818;stroke-width:1.0;stroke-dasharray:2.0,2.0;" x1="27.7793" x2="235.0454" y1="293.3672" y2="293.3672"/><text fill="#000000" font-family="sans-serif" font-size="13" lengthAdjust="spacing" textLength="184.2661" x="39.7793" y="288.1045">Success, redirects to login page</text><!--SRC=[LP11ImCn48Nl-oiUzT92gwK73uihg5X42otR5Gyg9MR7DNPDOZ9R4V6_ExjMQGz99kJblMz6QNO1lTj8eGSLSUPzMoTU1JRQU6KPlMbmbicMwEUaD0ywvVHoNtHKkyerZ20RFTZ-j5PnZVEw8H-CtNwQvKcIPPYvobWiWjCK8_fj8fO2yec3oV40MPPiEJ0wbI2akAYDNaTiCvuQPcSJOJ4RnTIoY4gqiroqLqMnG4xl3KLEiPWl2tmftKQjNZzuYFj6d5Ug8YiNurUgB8CyFdud9UrQ_jT2RPsSmLGl3FVy6vFJngq9rtT5YaWaonz2J2aOZTAeAgYt5kjaDDhZYjxPI2acup7cDxkPahER_pU3rg0RmhBfkXWYK6a2QOvWryv4Xkcbdtt-7m00]--></g></svg>