<svg xmlns="http://www.w3.org/2000/svg" xmlns:xlink="http://www.w3.org/1999/xlink" contentStyleType="text/css" height="1177px" preserveAspectRatio="none" style="width:1718px;height:1177px;background:#FFFFFF;" version="1.1" viewBox="0 0 1718 1177" width="1718px" zoomAndPan="magnify"><defs/><g><rect fill="#FFFFFF" height="31.291" style="stroke:#181818;stroke-width:1.0;" width="10" x="172.2183" y="423.2402"/><rect fill="#FFFFFF" height="31.291" style="stroke:#181818;stroke-width:1.0;" width="10" x="172.2183" y="862.7813"/><rect fill="#FFFFFF" height="31.291" style="stroke:#181818;stroke-width:1.0;" width="10" x="172.2183" y="1044.9453"/><rect fill="#FFFFFF" height="951.3242" style="stroke:#181818;stroke-width:1.0;" width="10" x="562.5269" y="93.6211"/><rect fill="#FFFFFF" height="851.4512" style="stroke:#181818;stroke-width:1.0;" width="10" x="868.9956" y="162.2031"/><rect fill="#FFFFFF" height="358.25" style="stroke:#181818;stroke-width:1.0;" width="10" x="873.9956" y="201.4941"/><rect fill="#FFFFFF" height="182.4551" style="stroke:#181818;stroke-width:1.0;" width="10" x="878.9956" y="316.3672"/><rect fill="#FFFFFF" height="103.582" style="stroke:#181818;stroke-width:1.0;" width="10" x="873.9956" y="606.0352"/><rect fill="#FFFFFF" height="182.4551" style="stroke:#181818;stroke-width:1.0;" width="10" x="873.9956" y="755.9082"/><rect fill="#FFFFFF" height="67.291" style="stroke:#181818;stroke-width:1.0;" width="10" x="1332.8359" y="642.3262"/><rect fill="#FFFFFF" height="28" style="stroke:#181818;stroke-width:1.0;" width="10" x="1337.8359" y="681.6172"/><rect fill="#FFFFFF" height="30" style="stroke:#181818;stroke-width:1.0;" width="10" x="1581.2974" y="983.6543"/><rect fill="none" height="731.8691" style="stroke:#000000;stroke-width:1.5;" width="1524.353" x="10" y="221.4941"/><rect fill="none" height="126.1641" style="stroke:#000000;stroke-width:1.5;" width="908.7368" x="20" y="336.3672"/><rect fill="none" height="126.1641" style="stroke:#000000;stroke-width:1.5;" width="908.7368" x="20" y="775.9082"/><line style="stroke:#181818;stroke-width:0.5;stroke-dasharray:5.0,5.0;" x1="47" x2="47" y1="83.6211" y2="1094.2363"/><line style="stroke:#181818;stroke-width:0.5;stroke-dasharray:5.0,5.0;" x1="176.3081" x2="176.3081" y1="83.6211" y2="1094.2363"/><line style="stroke:#181818;stroke-width:0.5;stroke-dasharray:5.0,5.0;" x1="566.5684" x2="566.5684" y1="83.6211" y2="1094.2363"/><line style="stroke:#181818;stroke-width:0.5;stroke-dasharray:5.0,5.0;" x1="873.2544" x2="873.2544" y1="83.6211" y2="1094.2363"/><line style="stroke:#181818;stroke-width:0.5;stroke-dasharray:5.0,5.0;" x1="1336.9673" x2="1336.9673" y1="83.6211" y2="1094.2363"/><line style="stroke:#181818;stroke-width:0.5;stroke-dasharray:5.0,5.0;" x1="1585.7046" x2="1585.7046" y1="83.6211" y2="1094.2363"/><text fill="#000000" font-family="sans-serif" font-size="14" lengthAdjust="spacing" textLength="29.5586" x="30" y="80.1074">User</text><ellipse cx="47.7793" cy="13.5" fill="#E2E2F0" rx="8" ry="8" style="stroke:#181818;stroke-width:0.5;"/><path d="M47.7793,21.5 L47.7793,48.5 M34.7793,29.5 L60.7793,29.5 M47.7793,48.5 L34.7793,63.5 M47.7793,48.5 L60.7793,63.5 " fill="none" style="stroke:#181818;stroke-width:0.5;"/><text fill="#000000" font-family="sans-serif" font-size="14" lengthAdjust="spacing" textLength="29.5586" x="30" y="1108.3438">User</text><ellipse cx="47.7793" cy="1120.3574" fill="#E2E2F0" rx="8" ry="8" style="stroke:#181818;stroke-width:0.5;"/><path d="M47.7793,1128.3574 L47.7793,1155.3574 M34.7793,1136.3574 L60.7793,1136.3574 M47.7793,1155.3574 L34.7793,1170.3574 M47.7793,1155.3574 L60.7793,1170.3574 " fill="none" style="stroke:#181818;stroke-width:0.5;"/><rect fill="#E2E2F0" height="32.6211" rx="2.5" ry="2.5" style="stroke:#181818;stroke-width:0.5;" width="119.8203" x="117.3081" y="50"/><text fill="#000000" font-family="sans-serif" font-size="14" lengthAdjust="spacing" textLength="105.8203" x="124.3081" y="72.1074">Frontend (React)</text><rect fill="#E2E2F0" height="32.6211" rx="2.5" ry="2.5" style="stroke:#181818;stroke-width:0.5;" width="119.8203" x="117.3081" y="1093.2363"/><text fill="#000000" font-family="sans-serif" font-size="14" lengthAdjust="spacing" textLength="105.8203" x="124.3081" y="1115.3438">Frontend (React)</text><rect fill="#E2E2F0" height="51.2422" rx="2.5" ry="2.5" style="stroke:#181818;stroke-width:0.5;" width="115.917" x="509.5684" y="31.3789"/><text fill="#000000" font-family="sans-serif" font-size="14" lengthAdjust="spacing" textLength="70.041" x="532.5063" y="53.4863">/[any] route</text><text fill="#000000" font-family="sans-serif" font-size="14" lengthAdjust="spacing" textLength="101.917" x="516.5684" y="72.1074">(Flask Blueprint)</text><rect fill="#E2E2F0" height="51.2422" rx="2.5" ry="2.5" style="stroke:#181818;stroke-width:0.5;" width="115.917" x="509.5684" y="1093.2363"/><text fill="#000000" font-family="sans-serif" font-size="14" lengthAdjust="spacing" textLength="70.041" x="532.5063" y="1115.3438">/[any] route</text><text fill="#000000" font-family="sans-serif" font-size="14" lengthAdjust="spacing" textLength="101.917" x="516.5684" y="1133.9648">(Flask Blueprint)</text><rect fill="#E2E2F0" height="32.6211" rx="2.5" ry="2.5" style="stroke:#181818;stroke-width:0.5;" width="89.4824" x="829.2544" y="50"/><text fill="#000000" font-family="sans-serif" font-size="14" lengthAdjust="spacing" textLength="75.4824" x="836.2544" y="72.1074">AuthService</text><rect fill="#E2E2F0" height="32.6211" rx="2.5" ry="2.5" style="stroke:#181818;stroke-width:0.5;" width="89.4824" x="829.2544" y="1093.2363"/><text fill="#000000" font-family="sans-serif" font-size="14" lengthAdjust="spacing" textLength="75.4824" x="836.2544" y="1115.3438">AuthService</text><rect fill="#E2E2F0" height="51.2422" rx="2.5" ry="2.5" style="stroke:#181818;stroke-width:0.5;" width="235.7373" x="1219.9673" y="31.3789"/><text fill="#000000" font-family="sans-serif" font-size="14" lengthAdjust="spacing" textLength="221.7373" x="1226.9673" y="53.4863">BlacklistedJWTAccessToken Model</text><text fill="#000000" font-family="sans-serif" font-size="14" lengthAdjust="spacing" textLength="171.5684" x="1252.0518" y="72.1074">(SQLAlchemy -&gt; Database)</text><rect fill="#E2E2F0" height="51.2422" rx="2.5" ry="2.5" style="stroke:#181818;stroke-width:0.5;" width="235.7373" x="1219.9673" y="1093.2363"/><text fill="#000000" font-family="sans-serif" font-size="14" lengthAdjust="spacing" textLength="221.7373" x="1226.9673" y="1115.3438">BlacklistedJWTAccessToken Model</text><text fill="#000000" font-family="sans-serif" font-size="14" lengthAdjust="spacing" textLength="171.5684" x="1252.0518" y="1133.9648">(SQLAlchemy -&gt; Database)</text><rect fill="#E2E2F0" height="51.2422" rx="2.5" ry="2.5" style="stroke:#181818;stroke-width:0.5;" width="241.1855" x="1465.7046" y="31.3789"/><text fill="#000000" font-family="sans-serif" font-size="14" lengthAdjust="spacing" textLength="227.1855" x="1472.7046" y="53.4863">WhitelistedJWTRefreshToken Model</text><text fill="#000000" font-family="sans-serif" font-size="14" lengthAdjust="spacing" textLength="171.5684" x="1500.5132" y="72.1074">(SQLAlchemy -&gt; Database)</text><rect fill="#E2E2F0" height="51.2422" rx="2.5" ry="2.5" style="stroke:#181818;stroke-width:0.5;" width="241.1855" x="1465.7046" y="1093.2363"/><text fill="#000000" font-family="sans-serif" font-size="14" lengthAdjust="spacing" textLength="227.1855" x="1472.7046" y="1115.3438">WhitelistedJWTRefreshToken Model</text><text fill="#000000" font-family="sans-serif" font-size="14" lengthAdjust="spacing" textLength="171.5684" x="1500.5132" y="1133.9648">(SQLAlchemy -&gt; Database)</text><rect fill="#FFFFFF" height="31.291" style="stroke:#181818;stroke-width:1.0;" width="10" x="172.2183" y="423.2402"/><rect fill="#FFFFFF" height="31.291" style="stroke:#181818;stroke-width:1.0;" width="10" x="172.2183" y="862.7813"/><rect fill="#FFFFFF" height="31.291" style="stroke:#181818;stroke-width:1.0;" width="10" x="172.2183" y="1044.9453"/><rect fill="#FFFFFF" height="951.3242" style="stroke:#181818;stroke-width:1.0;" width="10" x="562.5269" y="93.6211"/><rect fill="#FFFFFF" height="851.4512" style="stroke:#181818;stroke-width:1.0;" width="10" x="868.9956" y="162.2031"/><rect fill="#FFFFFF" height="358.25" style="stroke:#181818;stroke-width:1.0;" width="10" x="873.9956" y="201.4941"/><rect fill="#FFFFFF" height="182.4551" style="stroke:#181818;stroke-width:1.0;" width="10" x="878.9956" y="316.3672"/><rect fill="#FFFFFF" height="103.582" style="stroke:#181818;stroke-width:1.0;" width="10" x="873.9956" y="606.0352"/><rect fill="#FFFFFF" height="182.4551" style="stroke:#181818;stroke-width:1.0;" width="10" x="873.9956" y="755.9082"/><rect fill="#FFFFFF" height="67.291" style="stroke:#181818;stroke-width:1.0;" width="10" x="1332.8359" y="642.3262"/><rect fill="#FFFFFF" height="28" style="stroke:#181818;stroke-width:1.0;" width="10" x="1337.8359" y="681.6172"/><rect fill="#FFFFFF" height="30" style="stroke:#181818;stroke-width:1.0;" width="10" x="1581.2974" y="983.6543"/><rect fill="#EEEEEE" height="3" style="stroke:#EEEEEE;stroke-width:1.0;" width="1711.8901" x="0" y="115.2666"/><line style="stroke:#000000;stroke-width:1.0;" x1="0" x2="1711.8901" y1="115.2666" y2="115.2666"/><line style="stroke:#000000;stroke-width:1.0;" x1="0" x2="1711.8901" y1="118.2666" y2="118.2666"/><rect fill="#EEEEEE" height="25.291" style="stroke:#000000;stroke-width:2.0;" width="155.5972" x="778.1465" y="103.6211"/><text fill="#000000" font-family="sans-serif" font-size="13" font-weight="bold" lengthAdjust="spacing" textLength="137.9854" x="784.1465" y="121.6494">(Generic) Revoke JWT</text><polygon fill="#181818" points="856.9956,158.2031,866.9956,162.2031,856.9956,166.2031,860.9956,162.2031" style="stroke:#181818;stroke-width:1.0;"/><line style="stroke:#181818;stroke-width:1.0;" x1="572.5269" x2="862.9956" y1="162.2031" y2="162.2031"/><text fill="#000000" font-family="sans-serif" font-size="13" lengthAdjust="spacing" textLength="277.4688" x="579.5269" y="156.9404">revoke_jwt(access_jwt, user_agent, ip_address)</text><line style="stroke:#181818;stroke-width:1.0;" x1="878.9956" x2="925.9956" y1="188.4941" y2="188.4941"/><line style="stroke:#181818;stroke-width:1.0;" x1="925.9956" x2="925.9956" y1="188.4941" y2="201.4941"/><line style="stroke:#181818;stroke-width:1.0;" x1="884.9956" x2="925.9956" y1="201.4941" y2="201.4941"/><polygon fill="#181818" points="894.9956,197.4941,884.9956,201.4941,894.9956,205.4941,890.9956,201.4941" style="stroke:#181818;stroke-width:1.0;"/><text fill="#000000" font-family="sans-serif" font-size="13" lengthAdjust="spacing" textLength="152.4644" x="890.9956" y="183.2314">__decode_jwt(access_jwt)</text><path d="M10,221.4941 L70.1709,221.4941 L70.1709,230.7852 L60.1709,240.7852 L10,240.7852 L10,221.4941 " fill="#EEEEEE" style="stroke:#000000;stroke-width:1.5;"/><rect fill="none" height="731.8691" style="stroke:#000000;stroke-width:1.5;" width="1524.353" x="10" y="221.4941"/><text fill="#000000" font-family="sans-serif" font-size="13" font-weight="bold" lengthAdjust="spacing" textLength="15.1709" x="25" y="236.5225">alt</text><text fill="#000000" font-family="sans-serif" font-size="11" font-weight="bold" lengthAdjust="spacing" textLength="148.543" x="85.1709" y="235.3643">[Decoding access JWT fails]</text><line style="stroke:#181818;stroke-width:1.0;stroke-dasharray:2.0,2.0;" x1="826.9956" x2="872.9956" y1="264.0762" y2="264.0762"/><line style="stroke:#181818;stroke-width:1.0;stroke-dasharray:2.0,2.0;" x1="826.9956" x2="826.9956" y1="264.0762" y2="277.0762"/><line style="stroke:#181818;stroke-width:1.0;stroke-dasharray:2.0,2.0;" x1="826.9956" x2="871.9956" y1="277.0762" y2="277.0762"/><polygon fill="#181818" points="861.9956,273.0762,871.9956,277.0762,861.9956,281.0762,865.9956,277.0762" style="stroke:#181818;stroke-width:1.0;"/><text fill="#000000" font-family="sans-serif" font-size="13" lengthAdjust="spacing" textLength="31.0781" x="825.9956" y="258.8135">None</text><line style="stroke:#181818;stroke-width:1.0;" x1="883.9956" x2="930.9956" y1="303.3672" y2="303.3672"/><line style="stroke:#181818;stroke-width:1.0;" x1="930.9956" x2="930.9956" y1="303.3672" y2="316.3672"/><line style="stroke:#181818;stroke-width:1.0;" x1="889.9956" x2="930.9956" y1="316.3672" y2="316.3672"/><polygon fill="#181818" points="899.9956,312.3672,889.9956,316.3672,899.9956,320.3672,895.9956,316.3672" style="stroke:#181818;stroke-width:1.0;"/><text fill="#000000" font-family="sans-serif" font-size="13" lengthAdjust="spacing" textLength="419.8403" x="895.9956" y="298.1045">__query_whitelisted_jwt_by_device_info(user_agent: str, ip_address: str)</text><path d="M20,336.3672 L80.1709,336.3672 L80.1709,345.6582 L70.1709,355.6582 L20,355.6582 L20,336.3672 " fill="#EEEEEE" style="stroke:#000000;stroke-width:1.5;"/><rect fill="none" height="126.1641" style="stroke:#000000;stroke-width:1.5;" width="908.7368" x="20" y="336.3672"/><text fill="#000000" font-family="sans-serif" font-size="13" font-weight="bold" lengthAdjust="spacing" textLength="15.1709" x="35" y="351.3955">alt</text><text fill="#000000" font-family="sans-serif" font-size="11" font-weight="bold" lengthAdjust="spacing" textLength="128.3315" x="95.1709" y="350.2373">[No refresh token found]</text><line style="stroke:#181818;stroke-width:1.0;stroke-dasharray:2.0,2.0;" x1="826.9956" x2="877.9956" y1="378.9492" y2="378.9492"/><line style="stroke:#181818;stroke-width:1.0;stroke-dasharray:2.0,2.0;" x1="826.9956" x2="826.9956" y1="378.9492" y2="391.9492"/><line style="stroke:#181818;stroke-width:1.0;stroke-dasharray:2.0,2.0;" x1="826.9956" x2="876.9956" y1="391.9492" y2="391.9492"/><polygon fill="#181818" points="866.9956,387.9492,876.9956,391.9492,866.9956,395.9492,870.9956,391.9492" style="stroke:#181818;stroke-width:1.0;"/><text fill="#000000" font-family="sans-serif" font-size="13" lengthAdjust="spacing" textLength="31.0781" x="825.9956" y="373.6865">None</text><polygon fill="#181818" points="193.2183,419.2402,183.2183,423.2402,193.2183,427.2402,189.2183,423.2402" style="stroke:#181818;stroke-width:1.0;"/><line style="stroke:#181818;stroke-width:1.0;stroke-dasharray:2.0,2.0;" x1="187.2183" x2="561.5269" y1="423.2402" y2="423.2402"/><text fill="#000000" font-family="sans-serif" font-size="13" lengthAdjust="spacing" textLength="361.3086" x="199.2183" y="417.9775">HTTP Response: 404 Not Found / or in case of logout: 200 OK</text><polygon fill="#181818" points="58.7793,450.5313,48.7793,454.5313,58.7793,458.5313,54.7793,454.5313" style="stroke:#181818;stroke-width:1.0;"/><line style="stroke:#181818;stroke-width:1.0;stroke-dasharray:2.0,2.0;" x1="52.7793" x2="176.2183" y1="454.5313" y2="454.5313"/><text fill="#000000" font-family="sans-serif" font-size="13" lengthAdjust="spacing" textLength="100.439" x="64.7793" y="449.2686">Redirects to login</text><line style="stroke:#181818;stroke-width:1.0;stroke-dasharray:2.0,2.0;" x1="826.9956" x2="877.9956" y1="497.8223" y2="497.8223"/><line style="stroke:#181818;stroke-width:1.0;stroke-dasharray:2.0,2.0;" x1="826.9956" x2="826.9956" y1="497.8223" y2="510.8223"/><line style="stroke:#181818;stroke-width:1.0;stroke-dasharray:2.0,2.0;" x1="826.9956" x2="866.9956" y1="510.8223" y2="510.8223"/><polygon fill="#181818" points="856.9956,506.8223,866.9956,510.8223,856.9956,514.8223,860.9956,510.8223" style="stroke:#181818;stroke-width:1.0;"/><text fill="#000000" font-family="sans-serif" font-size="13" lengthAdjust="spacing" textLength="171.939" x="690.0566" y="492.5596">WhitelistedJWTRefreshToken</text><line style="stroke:#000000;stroke-width:1.0;stroke-dasharray:2.0,2.0;" x1="10" x2="1534.353" y1="514.8223" y2="514.8223"/><text fill="#000000" font-family="sans-serif" font-size="11" font-weight="bold" lengthAdjust="spacing" textLength="169.9575" x="15" y="526.6924">[Decoding access JWT success]</text><line style="stroke:#181818;stroke-width:1.0;stroke-dasharray:2.0,2.0;" x1="826.9956" x2="872.9956" y1="558.7441" y2="558.7441"/><line style="stroke:#181818;stroke-width:1.0;stroke-dasharray:2.0,2.0;" x1="826.9956" x2="826.9956" y1="558.7441" y2="571.7441"/><line style="stroke:#181818;stroke-width:1.0;stroke-dasharray:2.0,2.0;" x1="826.9956" x2="866.9956" y1="571.7441" y2="571.7441"/><polygon fill="#181818" points="856.9956,567.7441,866.9956,571.7441,856.9956,575.7441,860.9956,571.7441" style="stroke:#181818;stroke-width:1.0;"/><text fill="#000000" font-family="sans-serif" font-size="13" lengthAdjust="spacing" textLength="120.688" x="741.3076" y="553.4814">decoded_access_jwt</text><line style="stroke:#181818;stroke-width:1.0;" x1="878.9956" x2="925.9956" y1="593.0352" y2="593.0352"/><line style="stroke:#181818;stroke-width:1.0;" x1="925.9956" x2="925.9956" y1="593.0352" y2="606.0352"/><line style="stroke:#181818;stroke-width:1.0;" x1="884.9956" x2="925.9956" y1="606.0352" y2="606.0352"/><polygon fill="#181818" points="894.9956,602.0352,884.9956,606.0352,894.9956,610.0352,890.9956,606.0352" style="stroke:#181818;stroke-width:1.0;"/><text fill="#000000" font-family="sans-serif" font-size="13" lengthAdjust="spacing" textLength="287.5552" x="890.9956" y="587.7725">__blacklist_jwt(access_jti, access_jwt, expires_at)</text><polygon fill="#181818" points="1320.8359,638.3262,1330.8359,642.3262,1320.8359,646.3262,1324.8359,642.3262" style="stroke:#181818;stroke-width:1.0;"/><line style="stroke:#181818;stroke-width:1.0;" x1="883.9956" x2="1326.8359" y1="642.3262" y2="642.3262"/><text fill="#000000" font-family="sans-serif" font-size="13" lengthAdjust="spacing" textLength="239.8716" x="890.9956" y="637.0635">create(access_jti, access_jwt, expires_at)</text><line style="stroke:#181818;stroke-width:1.0;" x1="1347.8359" x2="1389.8359" y1="673.6172" y2="673.6172"/><line style="stroke:#181818;stroke-width:1.0;" x1="1389.8359" x2="1389.8359" y1="673.6172" y2="686.6172"/><line style="stroke:#181818;stroke-width:1.0;" x1="1348.8359" x2="1389.8359" y1="686.6172" y2="686.6172"/><polygon fill="#181818" points="1358.8359,682.6172,1348.8359,686.6172,1358.8359,690.6172,1354.8359,686.6172" style="stroke:#181818;stroke-width:1.0;"/><text fill="#000000" font-family="sans-serif" font-size="13" lengthAdjust="spacing" textLength="157.5171" x="1354.8359" y="668.3545">__hash_secret(access_jwt)</text><line style="stroke:#181818;stroke-width:1.0;" x1="878.9956" x2="925.9956" y1="742.9082" y2="742.9082"/><line style="stroke:#181818;stroke-width:1.0;" x1="925.9956" x2="925.9956" y1="742.9082" y2="755.9082"/><line style="stroke:#181818;stroke-width:1.0;" x1="884.9956" x2="925.9956" y1="755.9082" y2="755.9082"/><polygon fill="#181818" points="894.9956,751.9082,884.9956,755.9082,894.9956,759.9082,890.9956,755.9082" style="stroke:#181818;stroke-width:1.0;"/><text fill="#000000" font-family="sans-serif" font-size="13" lengthAdjust="spacing" textLength="193.6479" x="890.9956" y="737.6455">__query_whitelisted_jwt_by_jti(jti)</text><path d="M20,775.9082 L80.1709,775.9082 L80.1709,785.1992 L70.1709,795.1992 L20,795.1992 L20,775.9082 " fill="#EEEEEE" style="stroke:#000000;stroke-width:1.5;"/><rect fill="none" height="126.1641" style="stroke:#000000;stroke-width:1.5;" width="908.7368" x="20" y="775.9082"/><text fill="#000000" font-family="sans-serif" font-size="13" font-weight="bold" lengthAdjust="spacing" textLength="15.1709" x="35" y="790.9365">alt</text><text fill="#000000" font-family="sans-serif" font-size="11" font-weight="bold" lengthAdjust="spacing" textLength="128.3315" x="95.1709" y="789.7783">[No refresh token found]</text><line style="stroke:#181818;stroke-width:1.0;stroke-dasharray:2.0,2.0;" x1="826.9956" x2="872.9956" y1="818.4902" y2="818.4902"/><line style="stroke:#181818;stroke-width:1.0;stroke-dasharray:2.0,2.0;" x1="826.9956" x2="826.9956" y1="818.4902" y2="831.4902"/><line style="stroke:#181818;stroke-width:1.0;stroke-dasharray:2.0,2.0;" x1="826.9956" x2="871.9956" y1="831.4902" y2="831.4902"/><polygon fill="#181818" points="861.9956,827.4902,871.9956,831.4902,861.9956,835.4902,865.9956,831.4902" style="stroke:#181818;stroke-width:1.0;"/><text fill="#000000" font-family="sans-serif" font-size="13" lengthAdjust="spacing" textLength="31.0781" x="825.9956" y="813.2275">None</text><polygon fill="#181818" points="193.2183,858.7813,183.2183,862.7813,193.2183,866.7813,189.2183,862.7813" style="stroke:#181818;stroke-width:1.0;"/><line style="stroke:#181818;stroke-width:1.0;stroke-dasharray:2.0,2.0;" x1="187.2183" x2="561.5269" y1="862.7813" y2="862.7813"/><text fill="#000000" font-family="sans-serif" font-size="13" lengthAdjust="spacing" textLength="361.3086" x="199.2183" y="857.5186">HTTP Response: 404 Not Found / or in case of logout: 200 OK</text><polygon fill="#181818" points="58.7793,890.0723,48.7793,894.0723,58.7793,898.0723,54.7793,894.0723" style="stroke:#181818;stroke-width:1.0;"/><line style="stroke:#181818;stroke-width:1.0;stroke-dasharray:2.0,2.0;" x1="52.7793" x2="176.2183" y1="894.0723" y2="894.0723"/><text fill="#000000" font-family="sans-serif" font-size="13" lengthAdjust="spacing" textLength="100.439" x="64.7793" y="888.8096">Redirects to login</text><line style="stroke:#181818;stroke-width:1.0;stroke-dasharray:2.0,2.0;" x1="826.9956" x2="872.9956" y1="937.3633" y2="937.3633"/><line style="stroke:#181818;stroke-width:1.0;stroke-dasharray:2.0,2.0;" x1="826.9956" x2="826.9956" y1="937.3633" y2="950.3633"/><line style="stroke:#181818;stroke-width:1.0;stroke-dasharray:2.0,2.0;" x1="826.9956" x2="866.9956" y1="950.3633" y2="950.3633"/><polygon fill="#181818" points="856.9956,946.3633,866.9956,950.3633,856.9956,954.3633,860.9956,950.3633" style="stroke:#181818;stroke-width:1.0;"/><text fill="#000000" font-family="sans-serif" font-size="13" lengthAdjust="spacing" textLength="171.939" x="690.0566" y="932.1006">WhitelistedJWTRefreshToken</text><polygon fill="#181818" points="1569.2974,979.6543,1579.2974,983.6543,1569.2974,987.6543,1573.2974,983.6543" style="stroke:#181818;stroke-width:1.0;"/><line style="stroke:#181818;stroke-width:1.0;" x1="878.9956" x2="1575.2974" y1="983.6543" y2="983.6543"/><text fill="#000000" font-family="sans-serif" font-size="13" lengthAdjust="spacing" textLength="216.0171" x="885.9956" y="978.3916">delete(WhitelistedJWTRefreshToken)</text><polygon fill="#181818" points="193.2183,1040.9453,183.2183,1044.9453,193.2183,1048.9453,189.2183,1044.9453" style="stroke:#181818;stroke-width:1.0;"/><line style="stroke:#181818;stroke-width:1.0;stroke-dasharray:2.0,2.0;" x1="187.2183" x2="566.5269" y1="1044.9453" y2="1044.9453"/><text fill="#000000" font-family="sans-serif" font-size="13" lengthAdjust="spacing" textLength="361.3086" x="199.2183" y="1039.6826">HTTP Response: 404 Not Found / or in case of logout: 200 OK</text><polygon fill="#181818" points="58.7793,1072.2363,48.7793,1076.2363,58.7793,1080.2363,54.7793,1076.2363" style="stroke:#181818;stroke-width:1.0;"/><line style="stroke:#181818;stroke-width:1.0;stroke-dasharray:2.0,2.0;" x1="52.7793" x2="176.2183" y1="1076.2363" y2="1076.2363"/><text fill="#000000" font-family="sans-serif" font-size="13" lengthAdjust="spacing" textLength="100.439" x="64.7793" y="1070.9736">Redirects to login</text><!--SRC=[xPHDZzem48Rl-HKZJa5QjAZQ4ogLWdPfrPPj6wWuj2lBE0DnIUtKTjZoxpjs5aXOaDYgnqQAv8_nCpEltuGBfmrqlbeq7U0MahBquwZanaaXIwuSTCP6AuSgWpX5BbmtH8xlsa7NtxZQFe3HbSFlAXuNtAvXL5HO6gcUpYHf-qnIkNoAPYC5rllJzlweu69TIEimUp-V9KAWjJEzHWKJdM51QQPVFYQ5oF7d5dflu9Oxlk0MwsoZIPispwN3FIt5fK6RNuwRJw9eE8JuBIeqKdGXnGqT1cB1S1YHC7B37VecazGVJwOm01E2s8z75_DGlnzUGKKYCxv2HMDPCfvbL8pjDYZJYCxlA8nbAAZ68quxdXSERdsOL2keWq9nIouB6m4zn7hTwzN8UwrmjtX8ywj2isMF1wLy6hROKdv_IqogfOuFnG_0EjFi82nq0xTPMfXJUVUQ10cwWml2BtMbih1zjZx_ZE_gZPGstircdqbxMsfbSG0t_HkATJ3s9BW6ihDK8EZQG2-Xq2iov01UzVlmwSEUjw-DNBnFNbi_9A9y0ygHIOF2MQhLWwJQnsPuJC2dDfejd3TST0GXYR2WYazTdwt2-1czTaJ63dOuGNrsmOlT9zMoafDNqBGd_YwfTSkuEtsNDN8q8QGmI1il9z7NwUV4s94OoxdDcKL2jbr-wc2ZpqjMJcbnrkpKHKplVn__ZOy9KAiydmIN5aZsE8ze_CFe3zjWjMT4_bVYDQbfr1JW4kdQalq1]--></g></svg>